<?xml version="1.0" encoding="UTF-8"?><svg id="Layer_1" xmlns="http://www.w3.org/2000/svg" xmlns:xlink="http://www.w3.org/1999/xlink" viewBox="0 0 1525.44 696.32"><defs><style>.cls-1{fill:url(#linear-gradient);}.cls-1,.cls-2,.cls-3,.cls-4,.cls-5,.cls-6,.cls-7,.cls-8,.cls-9,.cls-10,.cls-11,.cls-12,.cls-13{stroke-width:0px;}.cls-2{fill:url(#linear-gradient-6);}.cls-3{fill:url(#linear-gradient-5);}.cls-4{fill:#e1002b;}.cls-5{fill:url(#linear-gradient-2);}.cls-6{fill:url(#linear-gradient-7);}.cls-7{fill:url(#linear-gradient-3);}.cls-8{fill:url(#linear-gradient-9);}.cls-9{fill:#a6a6a6;}.cls-10{fill:url(#linear-gradient-8);}.cls-11{fill:#170b0b;}.cls-12{fill:url(#linear-gradient-4);}.cls-13{fill:#efefef;}</style><linearGradient id="linear-gradient" x1="25.26" y1="671.9" x2="270.38" y2="189.57" gradientUnits="userSpaceOnUse"><stop offset="0" stop-color="#f5a200"/><stop offset=".4" stop-color="#f08100"/><stop offset="1" stop-color="#e1002b"/></linearGradient><linearGradient id="linear-gradient-2" x1="-2194.32" y1="-1156.04" x2="-2194.32" y2="-1586.42" gradientTransform="translate(2011.32 1244.23) scale(.6)" xlink:href="#linear-gradient"/><linearGradient id="linear-gradient-3" x1="-1625.37" y1="-1205.13" x2="-1625.37" y2="-1699.05" gradientTransform="translate(2011.32 1244.23) scale(.6)" xlink:href="#linear-gradient"/><linearGradient id="linear-gradient-4" x1="-2803.53" y1="-1127.2" x2="-2803.53" y2="-1750.97" gradientTransform="translate(2011.32 1244.23) scale(.6)" xlink:href="#linear-gradient"/><linearGradient id="linear-gradient-5" x1="-2558.99" y1="-1150.31" x2="-2558.99" y2="-1571.89" gradientTransform="translate(2011.32 1244.23) scale(.6)" xlink:href="#linear-gradient"/><linearGradient id="linear-gradient-6" x1="-1052.02" y1="-1260.01" x2="-1052.02" y2="-1696.12" gradientTransform="translate(2011.32 1244.23) scale(.6)" xlink:href="#linear-gradient"/><linearGradient id="linear-gradient-7" x1="-2010.61" y1="-1109.9" x2="-2010.61" y2="-1605.14" gradientTransform="translate(2011.32 1244.23) scale(.6)" xlink:href="#linear-gradient"/><linearGradient id="linear-gradient-8" x1="-1290.07" y1="-1222.53" x2="-1290.07" y2="-1655.72" gradientTransform="translate(2011.32 1244.23) scale(.6)" xlink:href="#linear-gradient"/><linearGradient id="linear-gradient-9" x1="-2271.21" y1="-1156.01" x2="-2271.21" y2="-1586.39" gradientTransform="translate(2011.32 1244.23) scale(.6)" xlink:href="#linear-gradient"/></defs><path class="cls-4" d="m733.98,64.99c-13.34-6.23-24.29-11.25-24.29-21.46,0-7.78,6.23-13.44,18.56-13.44,4.51,0,8.22.5,12.03,1.21,2.02.37,4.14.67,5.93.67,10.75,0,16.81-6.43,20.82-18.63l1.68-4.92c-1.68-.74-19.27-8.42-42.18-8.42-36.45,0-55.69,23.35-55.69,47.64,0,12.23,3.84,21.09,9.84,28.06,7.75,9,18.73,14.86,29.08,19.88,14.99,7.38,28.54,12.8,28.54,23.75,0,9.67-10.01,15.23-23.38,15.23-18.36,0-34.4-10.55-36.45-11.79l-15.03,28.27c2.66,1.48,22.03,13.78,53.97,13.78,34.03-.03,59.8-19.51,59.8-49.53s-23.89-40.94-43.23-50.3Z"/><path class="cls-4" d="m867.03,78.94L928.75,3.3h-44l-49.19,65.26h-.74V3.3h-36.22v160.27h2.16c15.67,0,34.3-7.24,34.3-33.42v-36.82h.74l50.17,68.22h46.12l-65.06-82.61Z"/><path class="cls-9" d="m1525.44,280.92l-16.26-24.72s-82.72-29.29-151.59,11.31l-4.42-12.67s-14.11,1.15-20.13,1.66l16.56-53.34-17.63-26.59-67.89,5.55c-5.62,21.24-36.18,95.09-97.16,102.47l-3.32,9.41c-12.78-15.41-27.45-20.53-47.44-20.63l16.58-52.35-17.67-26.63-138.44,11.41,5.58,68.42-7.92,24.96c-83.78-25.73-159.89-9.07-207.95,27.61l-9.23-7.91,32.96-27.51-70.06-100.15-95.86,80.01,26.96,39.03-41.62,3.34,3.55,31.66c-18.61-24.59-48.63-29.48-77.84-26.27.14,0-72.82,5.95-110.42,9.04,47.13-43.73,100.53-93.32,100.53-93.32l-19.72-29.73s-143.45,11.79-171.34,14.07c.28-.17-27.71,2.34-27.71,2.34.44,3.3,3.84,29.06,5.15,39.12.75,5.71,1.42,10.87,1.76,13.56-1.99,1.88-9.12,8.62-18.8,17.73-13.97,13.18-86.71,82.69-103.48,98.51.76,3.27,12.36,68.94,12.36,68.94l8.62,49.2c12.05,72.94,54.27,107.7,125.28,102.48l316-25.05-28.51,29.17c18.68,29.21,63.3,74.49,121.61,74.49h.53c73.82,0,130.03-42.64,163.86-123.57l221.55-18.02,10.73-33.18c4.83,12.24,24.85,37.65,57.33,37.65s51.64-14.19,57.15-18.64l11.9-16.62,3.88,7.52c75.82,24.42,140.97.43,172.29-21.71,38.24-27.12,65.15-77.06,47.54-121.7l32.13-100.35Zm-1164.76,234.16c-6.05-8.17-10.92-19.34-13.88-32.95-.11-.61-10.09-42.7-15.42-67.33l63.64-59.07,3.57,43.26-37.91,116.08Z"/><path class="cls-9" d="m176.54,506.48c-13.03,26.47-26.98,54.95-28.55,58.19.47,2.16,3.21,14.13,6.58,28.95l.8,3.52c.24,1.07.49,2.15.73,3.25h0s6.01,26.49,6.01,26.49c1.51,6.7,5.81,25.55,5.81,25.55l-33.47,4.05s-9.59-11.18-16-18.64c4.5,21.02-8.75,38.95-14.18,44.38-16.18,16.18-46.57,21.68-69.44-1.19-33.48-33.48-16.85-85.45,5.62-91.6l10.34-31.28L0,496.8l68.88,2.49,106.58-318.22,127.61-81.83-10.59,171.1-64.15,130.64v.02s-51.78,105.48-51.78,105.48Z"/><path class="cls-11" d="m205.7,427.67l78.3-159.44,9.45-152.24-110.56,70.93-107.76,321.41-55.99-1.98,41.51,50.08c-3.32,10.28-9.73,29.63-12.92,39.42-5.31,1.69-10.08,4.9-13.96,9.61-1.11,1.36-2.11,2.84-3.06,4.53-11.14,19.17-6.11,46.12,9.11,63.66,27.53,31.71,81,6.27,68.93-40.66,1.01-2.11,4.19-9.61,5.83-13.02l23.59,27.56,19.31-2.32-18.5-81.46,49.09-99.99"/><path class="cls-1" d="m100.31,584.89l-22.56,47.05c3.36,10.21,3.04,21.56-1.63,29.58-6.86,11.9-20.54,11.94-30.58.13-10.03-11.82-12.55-30.98-5.67-42.86,3.73-6.46,9.51-9.45,15.64-8.82l18.4-56.2-26.87-31.64,36.41,2.62,108.2-326.91,68.93-44.15-8.21,115.72-139,289.77,14.3,57.87-27.36-32.15Zm-34.02,65.02c3.17-5.42,1.97-14.21-2.63-19.59-4.54-5.32-10.81-5.33-13.93.04-3.13,5.47-2.02,14.2,2.57,19.59,4.54,5.39,10.86,5.35,14-.05Z"/><polygon class="cls-13" points="94.95 538.33 69.47 536.48 64.46 530.58 90.01 532.44 198.12 205.49 251.02 171.65 250.37 181.2 203.12 211.39 94.95 538.33"/><polygon class="cls-13" points="61.99 617.62 80.45 561.48 85.45 567.37 67.02 623.5 61.99 617.62"/><path class="cls-11" d="m206.9,418.59l15.46,88.06c9.25,48.79,32.18,100.19,114.55,94.21l109.57-9.05,7.42-20.87,15.6,18.87,89.1-6.82,7.02-19.97,13.5,18.63,93.37-7.5,26.48-82.61c2.53,45.48,37.51,70.67,85.25,56.91-2.61,10.25-14.92,27.99-32.48,27.99-24.66,0-31.93-26.62-35.95-39.6l-77.46,79.15c39.02,54.4,87.2,63.38,108.42,63.38s117,1.02,164.29-141.9l9.37,17.8,85.34-6.88,7.38-20.8,14.46,18.82,97.57-8.03,18.62-57.78c1.2,22.4,19.32,61.71,57.16,61.71,26.64,0,42.22-10.48,49.73-15.9l20.13-27.9,7.93,16.82c11.14,5.72,54.31,10.86,77.25,8.7,25.99-2.47,104.48-14.48,129.43-91.71,2.6-7.97,3.88-15.73,3.88-23.24,0-9.28-2.61-19.32-6.62-27.35l31.8-99.32-11.53-17.53c-69.21-20.22-126.69-1.78-150.37,18.64l-6.22-17.98s-14.32,1.18-27.27,2.22c8.73-27.62,19.67-63.09,19.67-63.09l-11.65-17.53-55.41,4.46c-25.14,74.21-75.12,98.47-98.17,101.96l-7.8,23.71c-7.51-29.75-36.38-36.81-63.48-32.83,9.04-28.61,19.52-61.94,19.52-61.94l-11.65-17.56-122.31,10.1s4.41,54.71,4.86,60.3c-.44,1.35-5.01,15.52-11.68,36.68l-15.42-5.12c-18.67-6.22-36.58-9.79-73.07-9.83h-.09l-.17.04c-6.58.04-13.14.59-18.91,1.07l-.36.03c-56.12,5.7-97.46,25.79-127.83,63.13l9.98-31.02-13.55-11.59,35.06-29.26-58.45-83.45-80.27,67.05,31.69,45.77-48.7,4.02,6.83,60.3-8.29,17.49c-.8-59.37-37.94-76.58-82.95-71.65l-132.4,10.85s4.47,54.68,4.95,60.27c-1.4,4.18-26.95,81.66-43.62,133.56-14.75-9.29-24.08-29.36-28.33-49.44,0,0-11.65-49.48-16.67-72.94,12.49-11.61,191.93-178.22,191.93-178.22l-11.71-17.6-182.44,15.03s4.82,37.13,6.17,47.34c-8.1,7.59-69.97,65.93-102.33,96.46l-19.81,19.81"/><polygon class="cls-5" points="686.7 312.78 658.95 273.58 714.13 227.58 741.91 266.76 686.7 312.78"/><path class="cls-7" d="m1008.19,274.96l-77.44,242.12,62.28-5.15,39.95-123.96c8.2-25.18,18.52-41.31,34.49-42.62,16.02-1.33,18.82,13.45,10.53,38.9l-39.99,124.02,62.23-5.22,43.66-135.32c16.73-51.66-3.21-72.57-38.8-69.61-18.35,1.53-36.13,9.89-51.88,27.2l33.07-104.38-81.92,6.75,3.82,47.25Z"/><path class="cls-12" d="m289.85,385.74l164.08-152.31-118.31,9.67,4.97,38.65-121.55,114.63,16.2,91.07c4.41,28.9,18.78,82.85,71.94,78.45l56.24-4.61c-29.2-17.18-45.81-45.41-53.85-81.95l-19.72-93.6Z"/><path class="cls-3" d="m424.5,399.76l-51.84,160.69,62.28-5.1,40.01-123.97c3.12-9.82,6.77-22.18,14.91-31.11,5.62-6.47,13.39-11.01,19.48-11.5,7.57-.65,13.34,3.19,14.74,10.88,2.27,8.01-1,18.22-4.15,28.01l-39.94,123.97,62.29-5.11,39.35-122.23c7.57-23.51,15.15-43.63,8.02-61.63-7.19-17.99-23.13-22.72-42.62-21.12-18.37,1.45-36.14,9.87-51.85,27.14l7.38-22.88-81.91,6.7,3.85,47.26Z"/><path class="cls-2" d="m1293.41,432.19c14.46,12.67,33.13,21.03,55.82,19.17,10.03-.83,26.48-5.21,31.84-21.61,9.58-29.79-75.85-24.48-56.48-84.48,7.73-23.98,23.64-43.01,43.96-55.93,20.43-13.3,40.5-17.16,59.23-18.67,18.77-1.54,36.39.04,53.06,3.82l-14.97,46.19c-10.04-10-24.18-14.81-40.39-13.51-7.19.6-21.93,3.95-25.86,15.92-4.42,13.83,6.38,16.38,13.96,18.76,11.38,3.82,24.5,7.51,33.08,15.89,11.19,10.67,17.86,27.06,10.54,49.68-19.18,59.53-77.06,77.29-115.24,80.41-20.12,1.7-39.06-1.52-57.12-5.22l8.57-50.43Z"/><path class="cls-6" d="m782.93,529.17c-42.5,16.34-69.53-9.58-69.53-51.62,0-26.25,16.52-95.91,74.2-136.42,25.73-18.04,59.62-29.31,103.89-30.07,33.38.06,49.89,3.04,67.9,9.09,0,0-19.72,13.15-27.79,38.92l-51.76,162.9c-41.24,127.44-154.93,148.59-218.87,91.02l50.34-51.1c2.66,8.86,7.32,15.58,13.7,20.2,30.26,21.89,71.97,2.28,95.71-70.66l46.88-147.44c-1.26-.3-2.01-1.06-3.26-1.35-21.53-7.31-43.32,2.82-62,28.79-8.23,11.75-14.65,26.44-19.95,50.58-3.97,17.67-2.06,63.35,41.6,36.82l-41.06,50.33Z"/><path class="cls-10" d="m1305.99,331.54l16.34-50-44.82,3.69,25.6-82.08-21.22,1.66c-37.7,88.14-96.73,100.29-96.73,100.29l-7.99,24.53,25.66-2.1-41.35,130.2c-10.69,32.05,12.54,67.16,65.34,36.44l38.75-53.71c-27.6,11.17-35.79-7.26-31.71-20.14l31.86-98,23.89-1.96c4.42-.29,12.21.65,16.38,11.18Z"/><polygon class="cls-8" points="719.4 328.79 637.52 335.52 641.39 382.77 589.6 543.49 651.83 538.34 719.4 328.79"/><path class="cls-13" d="m743.33,431.32c19.42-51.76,47.43-82.97,92.46-101.48l-1.53-2c-49.22,17.58-79.18,49.71-99.61,104.22-18.97,50.56-5.78,86.33,28.05,92.21l2.05-2.37c-28.86-10.01-39.09-43.37-21.43-90.59Z"/><path class="cls-13" d="m878.09,365.73l-46.04,144.79c-14.25,43.73-34.86,68.21-55.7,76.12l1.09,1.51c23.3-4.46,47.34-29.24,63.24-78.3l45.18-141.9-7.78-2.22Z"/><path class="cls-13" d="m684.06,611.35l29.61-30.05-3.21-4.89-35.08,35.67c20.52,18.47,47.62,25.85,75.18,24.3l1.07-1.42c-24.24-1.09-49.05-6.88-67.56-23.61Z"/><path class="cls-13" d="m1181.65,456.09l41.41-130.21-8.34.64-41.36,130.26c-7.83,23.46,6.22,51.14,47.73,29.18l1.5-2.83c-41.61,14.11-47.91-5.96-40.95-27.04Z"/><path class="cls-13" d="m1285.1,214.17c-33.24,79.03-88.93,92.82-88.93,92.82l-4.55,13.78,8.36-.63,3.61-10.21s55.24-14.45,86.6-96.36l-5.1.6Z"/><polygon class="cls-13" points="679.59 272.45 714.47 243.37 711.66 239.35 671.16 273.13 690.02 299.84 695.54 294.87 679.59 272.45"/><path class="cls-13" d="m1295.74,466.06l-1.87,8.97c53.62,11.11,89.44-1.81,111.77-17.12l-1.05-1.08c-21.28,14.46-66.05,23.84-108.86,9.23Z"/><path class="cls-13" d="m1461.92,297.58c-8.54-3.9-31.17-8.64-52,2.45l.8,1.74c23.15-8.71,39.25-1.07,48.69,3.28l2.51-7.47Z"/><path class="cls-13" d="m1355.11,314.16c-7.37,6.38-22.75,25.05-21.99,45.89,1.45,38.96,76.49,36.15,54.05,73.9l2.36.5c26.2-39.06-45.82-40.5-48.38-76.69-1.41-19.85,12.05-37.99,15.21-41.8l-1.26-1.79Z"/><path class="cls-13" d="m445.64,397.39l-4.15-38-7.8.66,4.02,37.71c-.85,2.76-33.68,104.45-48.38,149.82l8.23-.7,48.08-149.49Z"/><path class="cls-13" d="m662.53,380.37l-4.19-38.02-7.82.65,4.06,37.76c-.93,2.79-33.73,104.45-48.42,149.79l8.22-.66,48.15-149.52Z"/><path class="cls-13" d="m1029.32,272.52l-4.27-38.02-7.73.71,3.97,37.72c-.86,2.77-59.84,185.9-74.54,231.23l8.3-.69,74.28-230.95Z"/><path class="cls-13" d="m532.83,384.23l-2.16,2.2c2.16,1.34,10.04,10.87.5,40.52-7.69,23.79-28.22,87.82-36.04,111.87l8.28-.67,35.85-111.84c7.5-23.15,1.2-37.35-6.43-42.07Z"/><path class="cls-13" d="m1090.91,340.78l-2.21,2.22c2.21,1.39,10.04,10.89.55,40.6-7.77,23.77-28.25,87.74-36.08,111.87l8.33-.75,35.83-111.85c7.48-23.11,1.2-37.37-6.42-42.1Z"/><path class="cls-13" d="m256.46,485.69l-14.91-86.69,120.97-114.78-4.52-33.85-8.03.67,3.97,31.65-121.41,114.94,16.7,92.62c7.03,34.53,17.79,57.82,39.75,65.62l6.15-.46c-20.94-10.24-33.09-37.02-38.67-69.71Z"/></svg>