<?xml version="1.0" encoding="utf-8"?>
<!-- Generator: Adobe Illustrator 27.9.4, SVG Export Plug-In . SVG Version: 9.03 Build 54784)  -->
<svg version="1.1" id="_레이어_1" xmlns="http://www.w3.org/2000/svg" xmlns:xlink="http://www.w3.org/1999/xlink" x="0px"
	 y="0px" viewBox="0 0 459.9 459.9" style="enable-background:new 0 0 459.9 459.9;" xml:space="preserve">
<style type="text/css">
	.st0{fill:#223E63;}
	.st1{fill:#72A3CD;}
</style>
<g>
	<path class="st0" d="M313.6,263.7c20.8-20.8,33-48.5,34.4-77.9l3.4-2.4l-3.2-4.6c-0.3-23-7.1-45.2-19.9-64.2l-7.5-11.2l-11.1,19.8
		c-0.6,1.1-1.2,2.2-1.8,3.2c-6.3-5.6-13.2-10.4-20.5-14.5l-1.8-1l0.3-2.4l14-16.9l-10.3-4.3c-0.5-0.2-1.3-0.5-2.4-0.8l0-13.7
		l14.2-16.7L290.9,52c-5.3-2.2-10.8-4.1-16.4-5.7v-1.9c0-24.4-19.9-44.3-44.3-44.3h-0.2h-0.2c-24.4,0-44.3,19.9-44.3,44.3v1.9
		c-5.6,1.6-11.1,3.5-16.4,5.7l-10.5,4.3L172.7,73l0,13.7c-1.1,0.3-1.8,0.6-2.3,0.8L160,91.8l14,16.9l0.3,2.4l-1.8,1
		c-7.3,4.1-14.2,8.9-20.5,14.5c-0.6-1.1-1.2-2.2-1.8-3.2l-11.1-19.8l-7.5,11.2c-12.7,19-19.6,41.2-19.9,64.2l-3.2,4.6l3.4,2.4
		c1.4,29.4,13.6,57,34.4,77.9c1.6,1.6,3.4,3.3,5.3,5l0.4,0.3c-1.7,4.2-3.6,8.1-5.8,11.6l-4.3,7.1l22.8,13.9l4.3-7.1
		c1.9-3.1,3.7-6.5,5.3-10c7.9,4.2,16.2,7.5,24.9,9.8l3.3,24.7h54.9l3.3-24.7c8.6-2.3,17-5.6,24.9-9.8c1.6,3.5,3.4,6.9,5.4,10
		l4.3,7.1l22.8-13.9l-4.3-7.1c-2.1-3.5-4.1-7.4-5.8-11.6l0.4-0.3C310.2,267,312,265.3,313.6,263.7L313.6,263.7z M300.1,221.2
		c0.2-5.3,0.8-10.7,1.8-16l0.6-0.1c1.2-0.3,8.6-2.2,17.1-5.2c-3,15.2-9.3,28.5-18.8,39.4C300.1,233.3,299.8,227.3,300.1,221.2
		L300.1,221.2z M312,174.9c1.8-3.9,3.9-8,6.5-12.8l0.9-1.6c0.8,3.4,1.3,6.9,1.7,10.5C318.3,172.3,315.2,173.6,312,174.9L312,174.9z
		 M276.9,258.7c-3.9,2.3-8,4.4-12.2,6.1l7-51.6c0.7-0.1,1.5-0.3,2.2-0.4c-0.2,2.5-0.4,5-0.5,7.5
		C272.9,233.1,274.2,246.4,276.9,258.7z M275.5,185.3l6.1-45.1c4.7,3.2,9,6.8,12.8,10.4c-4.4,8.2-10.4,20.2-14.7,33.8
		C278.3,184.7,276.9,185,275.5,185.3L275.5,185.3z M237.4,271.3c-5.1,0.4-9.9,0.4-14.9,0l-0.9-8.4l4.2-46c1.2,0,2.6,0.1,4.2,0.1
		c1.6,0,2.9,0,4.1-0.1l4.2,46L237.4,271.3L237.4,271.3z M229.9,190.4L229.9,190.4c-0.7,0-1.4,0-2.2,0l2.3-26.4l2.3,26.4
		C231.4,190.4,230.7,190.4,229.9,190.4z M178.2,140.2l6.1,45.1c-1.4-0.3-2.8-0.6-4.2-0.9c-4.3-13.6-10.3-25.6-14.7-33.8
		C169.2,147,173.5,143.4,178.2,140.2z M186.4,220.3c-0.1-2.5-0.3-5-0.5-7.5c0.7,0.1,1.4,0.3,2.2,0.4l7,51.6
		c-4.2-1.7-8.3-3.8-12.2-6.1C185.7,246.4,186.9,233.1,186.4,220.3L186.4,220.3z M138.8,171c0.4-3.5,0.9-7,1.7-10.5l0.9,1.6
		c2.6,4.7,4.7,8.9,6.5,12.8C145.1,173.8,142,172.5,138.8,171L138.8,171z M157.4,205.1l0.6,0.1c1,5.3,1.6,10.6,1.8,16
		c0.2,6,0,12.1-0.7,18.1c-9.5-10.9-15.8-24.2-18.8-39.4C148.8,202.9,156.1,204.9,157.4,205.1L157.4,205.1z"/>
	<path class="st1" d="M310.8,260.9c20.7-20.7,32.4-48,33.3-77.1l1.7-1.2l-1.7-2.4c0-22.7-6.7-44.6-19.2-63.2l-3.9-5.8l-7.9,14.2
		c-1.4,2.5-2.9,5.1-4.3,7.6c-7.1-6.8-15-12.6-23.5-17.3l-4.2-2.3l0.8-6.2l11.3-13.6l-5.4-2.2c-0.8-0.3-2.5-0.8-4.8-1.5l-0.1-18.1
		l11.6-13.6l-5.5-2.3c-6.1-2.5-12.4-4.7-18.9-6.4V49c0,0,0-3.3,0-4.7C270.5,22,252.5,4,230.2,4c-0.1,0-0.2,0-0.2,0s-0.2,0-0.2,0
		c-22.3,0-40.3,18.1-40.3,40.3c0,1.5,0,4.7,0,4.7v0.2c-6.4,1.7-12.7,3.8-18.9,6.4l-5.4,2.3l11.6,13.6l-0.1,18.1
		c-2.3,0.6-4.1,1.2-4.8,1.5l-5.4,2.2l11.3,13.6l0.8,6.2l-4.2,2.3c-8.5,4.7-16.4,10.5-23.5,17.3c-1.4-2.5-2.9-5.1-4.3-7.6l-7.9-14.2
		l-3.9,5.8c-12.5,18.7-19.2,40.5-19.2,63.2l-1.7,2.4l1.7,1.2c0.9,29.2,12.7,56.5,33.3,77.2c1.6,1.6,3.3,3.2,5.1,4.8l2.4,2.2
		c-2,5.4-4.4,10.4-7.1,14.8l-2.2,3.7l16,9.8l2.2-3.7c2.5-4.1,4.8-8.7,6.9-13.6c9.5,5.5,19.6,9.6,30.3,12.2l3.2,23.9h48l3.2-23.9
		c10.7-2.6,20.9-6.7,30.3-12.2c2,4.9,4.4,9.4,6.9,13.6l2.2,3.7l16-9.8l-2.2-3.7c-2.7-4.5-5.1-9.5-7.1-14.8l2.4-2.2
		C307.5,264.1,309.2,262.5,310.8,260.9L310.8,260.9z M139.2,150.1l5.6,10.1c3.7,6.8,7.3,14,10.3,21.6c-3.8-1.3-12.6-4.5-20.6-8.5
		C135.2,165.4,136.7,157.6,139.2,150.1z M161.9,248c-14.8-14.1-23.8-32.2-26.6-54.2c10.9,4.3,21.8,7.1,22.9,7.4l3.2,0.7
		c1.3,6.1,2.1,12.4,2.4,19.2C164.1,230.1,163.5,239.3,161.9,248L161.9,248z M160.5,149.8c5.3-5.4,12.3-11.1,19.6-15.7l1.2-0.8
		l7.7,56.9c-4.1-0.8-8.1-1.6-12-2.6C172.8,173.4,166.4,160.7,160.5,149.8L160.5,149.8z M178.4,260.6c3.2-12.8,4.6-26.6,4-40.1
		c-0.2-4.2-0.5-8.5-1.1-12.7c3.4,0.8,6.9,1.5,10.3,2.1l8.3,61C192.4,268.3,185.2,264.9,178.4,260.6L178.4,260.6z M229.7,120.4h0.5
		l6.3,73.8c-3.1,0.1-4.8,0.2-6.6,0.2c-1.8,0-3.5-0.1-6.6-0.2L229.7,120.4L229.7,120.4z M205.1,171.7l6.3-33.9l2.2,55.8
		c-1.8-0.1-3.7-0.3-5.6-0.5C208,193.1,205.1,171.7,205.1,171.7z M209.8,211.8l5.1,0.6l0.3,26.4L209.8,211.8z M238.1,296.3h-16.3
		l-0.3-2.3c2.8,0.2,5.6,0.3,8.5,0.3c2.8,0,5.7-0.1,8.5-0.3L238.1,296.3z M241,274.9c-3.8,0.4-7.5,0.6-11.1,0.6
		c-3.6,0-7.2-0.2-11.1-0.6l-1.3-12l4.6-50.1c2.7,0.1,4.7,0.2,7.8,0.2c0,0,0,0,0,0s0,0,0,0c3,0,5.1-0.1,7.8-0.2l4.6,50.1L241,274.9z
		 M244.6,238.8l0.4-26.4l5.1-0.6L244.6,238.8z M251.9,193.1c-1.9,0.2-3.8,0.4-5.6,0.5l2.2-55.8l6.3,33.9L251.9,193.1z M315,160.2
		l5.6-10.1c2.5,7.5,4.1,15.3,4.6,23.2c-8,4.1-16.8,7.2-20.6,8.5C307.7,174.2,311.3,167,315,160.2z M259.9,270.8l8.3-61
		c3.4-0.6,6.9-1.3,10.3-2.1c-0.6,4.2-0.9,8.5-1.1,12.7c-0.5,13.6,0.9,27.4,4,40.1C274.7,264.9,267.5,268.3,259.9,270.8L259.9,270.8z
		 M282.9,187.7c-3.9,0.9-7.9,1.8-12,2.6l7.7-56.9l1.2,0.8c7.3,4.6,14.3,10.2,19.6,15.7C293.4,160.7,287.1,173.4,282.9,187.7
		L282.9,187.7z M298,248c-1.5-8.7-2.2-17.9-1.9-26.9c0.2-6.8,1.1-13.1,2.4-19.2l3.2-0.7c1.1-0.2,11.9-3.1,22.9-7.4
		C321.8,215.8,312.8,234,298,248L298,248z"/>
	<path class="st0" d="M339.7,180.2c0-22-6.4-43.1-18.5-61l-4.5,8.1c-2,3.5-4,7.1-6,10.5c-0.4,0.7-0.8,1.3-1.1,2
		c-0.7-0.7-1.4-1.4-2.1-2.1c-7.4-7.4-15.6-13.5-24.4-18.4l-1.3,11.2c7.9,5,16.4,11.7,22.5,18.7c-7.2,13-14,26.6-18.3,42.1
		c-6.4,1.6-13.3,3.1-20.5,4.3l12.2-90.3l8.4-10.1c-2.1-0.9-16-4.4-25.4-6.6l1.5-23.5c2.1,0.5,4.1,1,6.2,1.6l0,16.1
		c3.4,0.9,6.8,1.8,10.1,2.9l0-15.7l8.8-10.4c-7.9-3.3-16-5.9-24.4-7.7l0-8.8V43c-0.1-18.2-15-32.9-33.2-32.9s-33,14.7-33.2,32.9v0
		l0,8.8c-8.3,1.9-16.5,4.5-24.4,7.7l8.8,10.4l0,15.7c3.3-1.1,6.7-2,10.1-2.9l0-16.1c2.1-0.6,4.1-1.1,6.2-1.6l1.6,23.5
		c-9.4,2.2-23.3,5.7-25.4,6.6l8.3,10.1l12.2,90.3c-7.1-1.2-14.1-2.6-20.5-4.3c-4.3-15.4-11.1-29-18.3-42.1
		c6.2-6.9,14.6-13.7,22.5-18.7l-1.3-11.2c-8.8,4.9-17.1,11.1-24.4,18.4c-0.7,0.7-1.4,1.4-2.1,2.1c-0.4-0.7-0.8-1.3-1.1-2
		c-2-3.4-4-7-6-10.5l-4.5-8.1c-12,17.9-18.5,38.9-18.5,61c0,0.4,0,0.8,0,1.2l0,0c0,0,0,0,0,0c0.3,28.9,11.7,55.9,32.1,76.4
		c1.6,1.6,3.3,3.1,4.9,4.6l3.2-10.2c-18.4-16.8-28.1-38.8-29.9-65.2c12.7,5.8,27.9,9.7,28.7,9.9c-0.8-3-2.4-8.2-3.1-10.4
		c0,0-14.1-4.4-25.8-10.8c0.6-12.6,3.5-24.6,8.3-35.6c0.5,0.9,1.1,1.7,1.6,2.7c1,1.7,1.9,3.4,2.9,5.1l0,0l5.4,9.8l0,0
		c10.3,19,18.7,38.4,19.6,63.2c0.9,23.4-4.7,47.3-14.9,64l8.6,5.3c3.3-5.4,6.1-11.3,8.4-17.6c11.1,7.2,22.9,12.2,35.8,15l3.1,23.2
		h41.1l3.1-23.2c12.9-2.8,24.7-7.8,35.8-15c2.3,6.3,5.1,12.3,8.4,17.6l8.6-5.3c-10.2-16.7-15.7-40.6-14.9-64
		c0.9-24.8,9.3-44.2,19.6-63.2l0,0l5.4-9.8l0,0c1-1.7,1.9-3.4,2.9-5.1c0.5-0.9,1.1-1.8,1.6-2.7c4.8,11,7.8,23,8.3,35.6
		c-11.6,6.3-25.8,10.8-25.8,10.8c-0.7,2.3-2.4,7.5-3.1,10.4c0.9-0.2,16.1-4.1,28.7-9.9c-1.8,26.3-11.5,48.4-29.9,65.2l3.2,10.2
		c1.7-1.5,3.3-3,4.9-4.6c20.4-20.4,31.8-47.5,32.1-76.4c0,0,0,0,0,0l0,0C339.7,181,339.7,180.6,339.7,180.2L339.7,180.2z
		 M255.3,87.3c-0.9-0.2-1.7-0.3-2.3-0.4c-7.5-1.5-14.7-2.3-22.5-2.3l0.6-23.5c7.9,0.1,15.8,0.9,23.6,2.3L255.3,87.3L255.3,87.3z
		 M254.6,43.3L254.6,43.3l0,6.9c-7.5-7-9.8-15-10.3-20.9c3.1,1.3,6,3.1,8.7,5.3C254,37.3,254.6,40.2,254.6,43.3L254.6,43.3z
		 M244.2,23.3c3.1,2.2,5.6,5.1,7.4,8.4c-2.4-1.7-4.9-3.1-7.5-4.2C244,25.8,244.1,24.4,244.2,23.3z M232.1,21.2
		c0-0.8,0.1-1.6,0.4-2.4c3,0.3,5.9,1.2,8.5,2.5c0,1.5,0.1,3.2,0.3,5.1c-3-0.9-6-1.5-9.2-1.5L232.1,21.2L232.1,21.2z M241.5,28.2
		c1,6.4,3.7,14.6,10.6,21.6c-6.7-1-13.6-1.5-20.6-1.6l0.5-21.6C235.2,26.7,238.4,27.2,241.5,28.2z M218.9,21.3
		c2.6-1.3,5.4-2.2,8.5-2.5c0.2,0.8,0.3,1.6,0.4,2.4l0.1,3.9c-3.2,0.3-6.3,1.1-9.3,2.3C218.9,25,218.9,23,218.9,21.3z M215.7,23.3
		c0.1,1.3,0.2,3.2,0.1,5.4c-3.2,1.6-6.1,3.7-8.9,6.1C208.6,30.1,211.7,26.1,215.7,23.3L215.7,23.3z M206,37.6
		c2.9-2.9,6.1-5.3,9.5-7.1c-0.7,5.7-3.2,13.2-10.2,19.7l0-6.8v-0.1C205.3,41.3,205.6,39.4,206,37.6z M218.3,29.2
		c3.1-1.3,6.3-2.1,9.6-2.5l0.5,21.5c-7,0.1-13.8,0.6-20.5,1.6C214.4,43.2,217.2,35.5,218.3,29.2L218.3,29.2z M205.1,63.4
		c7.8-1.4,15.7-2.2,23.6-2.3l0.6,23.5c-7.7,0.1-14.9,0.8-22.5,2.3c-0.6,0.1-1.3,0.2-2.3,0.4L205.1,63.4L205.1,63.4z M191.9,102
		c2.6-0.8,5.3-1.4,8-2l3.3,50.1l1.1-51c8.3-1.6,16.8-2.4,25.2-2.5l0.4,17.6l0.4-17.6c8.5,0.1,16.9,0.9,25.2,2.5l1.1,51L260,100
		c2.7,0.6,5.4,1.3,8,2L255.3,197c-8.1,1-18.1,1.6-25.3,1.6c0,0,0,0,0,0s0,0,0,0c-7.2,0-17.2-0.6-25.3-1.6L191.9,102L191.9,102z
		 M173.8,262.4c3.6-13.1,5.2-27.4,4.7-41.9c-0.2-6.5-1-12.6-2.1-18.5c6.4,1.7,12.9,3,19.4,4.1l9.6,70.7
		C193.9,273.8,183.2,268.9,173.8,262.4z M241.9,300.6h-24l-1.3-11.4c4.2,0.5,8.9,0.8,13.2,0.8c0,0,0,0,0,0s0,0,0,0
		c4.3,0,9-0.3,13.2-0.8L241.9,300.6z M244.8,278.8c-4.7,0.7-9.9,1-14.8,1c0,0,0,0,0,0s0,0,0,0c-4.8,0-10.1-0.4-14.8-1l-9.6-71.3
		c9.2,1,19,1.2,24.4,1.2c0,0,0,0,0,0s0,0,0,0c5.4,0,15.2-0.2,24.4-1.2L244.8,278.8z M254.6,276.8l9.6-70.7c6.5-1,13-2.4,19.4-4.1
		c-1.1,5.9-1.8,12.1-2.1,18.5c-0.5,14.4,1.1,28.8,4.7,41.9C276.7,268.9,266,273.9,254.6,276.8L254.6,276.8z"/>
	<path class="st0" d="M261.1,356.8h-27.1v58.5h13.5v-43.1c0-1,0.8-1.9,1.9-1.9h11.1c1.5,0,3.6,0.9,4.6,1.9l0.6,0.6
		c1,1,1.9,3.2,1.9,4.6v37.8h13.5v-38.5C281.1,365.8,272.1,356.8,261.1,356.8L261.1,356.8z"/>
	<path class="st1" d="M275.1,415.3h-1.3v-38.1c0-7.2-5.8-13-13-13h-19.3v51.1h-1.3v-52.4h20.6c7.9,0,14.4,6.4,14.4,14.4L275.1,415.3
		L275.1,415.3z"/>
	<path class="st0" d="M161.6,370.3l0,4.9h13.5v-18.4h-41c-3.4,0-6.2,2.8-6.2,6.2v17.7h0.1c0,0.3,0,0.5,0,0.5
		c0.1,3.9,2.9,6.4,6.5,7.8l24,4.5l0.1,0.1c1.6,0.6,2.9,1.1,2.9,4v2.3c0,1-0.8,1.9-1.8,1.9l-18.2-0.1l0-4.6h-13.5v18.2h41
		c3.4,0,6.2-2.8,6.2-6.2v-17.7h0c0-0.2,0-0.3,0-0.3c-0.4-3.8-2.9-7-6.5-8.4l-24-4.2l-0.2-0.1c-1.6-0.6-2.8-1.1-2.8-3.9v-4.2
		L161.6,370.3L161.6,370.3z"/>
	<path class="st1" d="M164.5,409.1h-30.2V397h1.3v10.8h28.9c1.6,0,3-1.3,3-3v-10.7c0-2.2-1.3-4.2-3.4-5.1l-25.8-5.8
		c-2.4-1.1-4-3.5-4-6.1V367c0-2.3,1.9-4.1,4.1-4.1h30.4v12.3h-1.3v-11h-29c-1.6,0-2.8,1.3-2.8,2.8v10.1c0,2.1,1.2,4,3.1,4.9
		l25.8,5.8c2.6,1.1,4.3,3.6,4.3,6.3v10.7C168.8,407.2,166.9,409.2,164.5,409.1L164.5,409.1z"/>
	<path class="st0" d="M192,356.8c-5.9,0-10.8,4.8-10.8,10.8v47.7h36.4c5.9,0,10.8-4.8,10.8-10.8v-47.7H192z M214.8,397.9
		c0,2.2-1.8,4-4,4h-16.1v-27.7c0-2.2,1.8-4,4-4h16.1V397.9z"/>
	<path class="st1" d="M214.1,409.1h-26.7v-38.6c0-4.3,3.5-7.8,7.8-7.8h27.1V401C222.3,405.5,218.6,409.1,214.1,409.1L214.1,409.1z
		 M188.8,407.8h25.3c3.8,0,6.8-3.1,6.8-6.8v-36.8h-25.8c-3.5,0-6.4,2.9-6.4,6.4V407.8L188.8,407.8z"/>
	<path class="st0" d="M297.2,356.8c-5.9,0-10.8,4.8-10.8,10.8v47.7h36.4c5.9,0,10.8-4.8,10.8-10.8v-47.7H297.2L297.2,356.8z
		 M320,397.9c0,2.2-1.8,4-4,4h-16.1v-27.7c0-2.2,1.8-4,4-4H320V397.9z"/>
	<path class="st1" d="M319.4,409.1h-26.7v-38.4c0-4.4,3.6-7.9,8-7.9h26.9v38.2C327.5,405.5,323.9,409.1,319.4,409.1L319.4,409.1z
		 M294,407.8h25.4c3.7,0,6.8-3,6.8-6.8v-36.9h-25.6c-3.6,0-6.6,3-6.6,6.6V407.8L294,407.8z"/>
	<path class="st0" d="M136.9,433.2H128l1.1,4.2v4.6c0,3.3,0.9,4.5,2.9,5.2l5.1,1.8c1.2,0.4,1.4,1,1.4,2.4v4.8
		c-0.5,0.1-1,0.2-1.6,0.2c-1.8,0-2.2-1.3-2.2-4v-0.8h-5.7v1.3c0,4.1,0.9,7,7.3,7l0,0h7.8v-9.5c0-4.2-2.1-5.1-3.7-5.7l-4.4-1.5
		c-0.9-0.3-1.3-0.8-1.3-1.9v-4.5c0.5-0.1,0.9-0.2,1.6-0.2c1.8,0,2.2,1.3,2.2,4v0.8h5.7v-1.3C144.3,436.1,143.4,433.2,136.9,433.2
		L136.9,433.2z"/>
	<path class="st0" d="M326.4,433.2h-8.8l1.1,4.2v4.6c0,3.3,1,4.5,2.9,5.2l5.1,1.8c1.2,0.4,1.4,1,1.4,2.4v4.8
		c-0.5,0.1-0.9,0.2-1.6,0.2c-1.8,0-2.2-1.3-2.2-4v-0.8h-5.7v1.3c0,4.1,0.9,7,7.3,7l0,0h7.8v-9.5c0-4.2-2.1-5.1-3.7-5.7l-4.4-1.5
		c-1-0.3-1.3-0.8-1.3-1.9v-4.5c0.5-0.1,1-0.2,1.6-0.2c1.8,0,2.2,1.3,2.2,4v0.8h5.7v-1.3C333.8,436.1,332.9,433.2,326.4,433.2
		L326.4,433.2z"/>
	<path class="st0" d="M181.8,449.5c-0.5,0.1-1.3,0.2-1.6,0.2c-1.9,0-2.2-1.5-2.2-4.3v-12.2h-5.7h-1.1l1.1,4.1v9.3
		c0,4.1,1.7,5.8,4.7,6.3v6.9h5.7V453c0.5,0,0.9-0.1,1.4-0.2c1.9-0.3,3.3-2,3.3-3.9v-15.7h-5.7L181.8,449.5L181.8,449.5z"/>
	<path class="st0" d="M201.4,433.2h-0.2c0,0,0,0,0,0l0,0h-8.6l1.1,4.1V453c0,5.6,3,6.9,7.3,6.9l0,0h0.3h7.5v-12h-7.2v3.6h1.5v1.9
		c0,2.3-0.5,3-1.9,3c-1.3,0-1.9-0.7-1.9-3v-13.5c0-2.3,0.6-3.1,1.9-3.1c1.3,0,1.9,0.8,1.9,3.1v3.6h5.7v-3.6
		C208.7,435.1,206.7,433.2,201.4,433.2L201.4,433.2z"/>
	<path class="st0" d="M224.3,456.2c-0.5,0.1-0.9,0.2-1.6,0.2c-1.8,0-2.2-1.3-2.2-4v-19.2h-5.7h-1.1l1.1,4.2l0,0v16.1
		c0,5,2.7,6.3,7.3,6.4l0,0h7.8v-26.7h-5.7L224.3,456.2L224.3,456.2z"/>
	<path class="st0" d="M244.3,433.2c0,0-0.1,0-0.1,0l0,0h-8.6l1.1,4.1v22.5h5.7v-23c0.5-0.1,0.9-0.2,1.6-0.2c1.8,0,2.2,1.3,2.2,4
		v19.2h5.7v-20.3C251.7,434.5,248.9,433.2,244.3,433.2L244.3,433.2z"/>
	<path class="st0" d="M266,433.2c0,0-0.1,0-0.1,0l0,0h-8.6l1.1,4.1v22.5h5.7v-23c0.5-0.1,1-0.2,1.6-0.2c1.8,0,2.2,1.3,2.2,4v19.2
		h5.7v-20.3C273.5,434.5,270.7,433.2,266,433.2L266,433.2z"/>
	<polygon class="st0" points="280.2,433.2 279.1,433.2 280.2,437.4 280.2,459.9 292.3,459.9 292.3,456.3 285.8,456.3 285.8,447.6 
		291.3,447.6 291.3,444 285.8,444 285.8,436.8 292.3,436.8 292.3,433.2 280.2,433.2 	"/>
	<path class="st0" d="M305.6,433.2h-8.1h-1.1l1.1,4.1v22.6h5.7v-7.3h1.7c1.4,0,2,0.7,2,3v4.3h5.7V456c0-2.6-0.5-4.4-2.1-5.3
		c1.5-1,2.1-2.5,2.1-5.3v-5.7C312.7,435,310.5,433.2,305.6,433.2L305.6,433.2z M307,446c0,2.3-0.6,3-2,3h-1.7v-12.2h1.7
		c1.5,0,2.1,0.7,2.1,3V446L307,446z"/>
	<polygon class="st0" points="168.4,459.9 161.8,448.7 168.1,433.2 162.1,433.2 156.2,447.6 156.2,447.6 156.2,444 156.2,433.2 
		150.5,433.2 150.5,433.2 149.4,433.2 150.5,437.4 150.5,459.9 156.2,459.9 156.2,450.5 161.6,459.9 	"/>
</g>
</svg>
