<?xml version="1.0" encoding="utf-8"?>
<!-- Generator: Adobe Illustrator 27.9.4, SVG Export Plug-In . SVG Version: 9.03 Build 54784)  -->
<svg version="1.1" id="_레이어_1" xmlns="http://www.w3.org/2000/svg" xmlns:xlink="http://www.w3.org/1999/xlink" x="0px"
	 y="0px" viewBox="0 0 108 108" style="enable-background:new 0 0 108 108;" xml:space="preserve">
<style type="text/css">
	.st0{fill:#F7941D;}
	.st1{fill:#034EA2;}
	.st2{fill:#FFFFFF;}
	.st3{fill:#ED1C24;}
	.st4{fill:#231F20;}
	.st5{fill:url(#SVGID_1_);}
	.st6{fill:#0088CE;}
</style>
<g>
	<path class="st0" d="M43.2,76c0.2-0.3,0.3-0.7,0.5-1.1c0.6-2.1,0.4-6.1-4-12.9c-0.1-0.2-10.8-18.8,7.6-35.3
		c-3.2,0.8-6.4,2.1-9.3,3.9c-7.2,4.4-12.2,11.4-14.2,19.6c-0.5,2.3-0.8,4.6-0.8,6.9l0.1,0C28.6,66.1,35.3,72.4,43.2,76L43.2,76z"/>
	<path class="st0" d="M41.9,77.5c0,0,0.3-0.2,0.7-0.5c-6.8-3.4-13.6-9.2-19.5-18.7c0.1,5,1.5,9.8,4,14.2l0-0.1
		C27.1,72.6,35.7,80.9,41.9,77.5L41.9,77.5z M41.1,61.2c2.1,3.3,3.5,6.2,4.1,8.8l6.3-44c-1,0.1-2,0.3-3,0.5
		C30.4,42.2,40.7,60.5,41.1,61.2L41.1,61.2z M45.3,75.4c-0.1,0.5-0.3,0.9-0.5,1.3c1.2,0.5,2.5,1,3.8,1.3
		C55,67.9,63.4,49.5,59.7,26.2c-2.7-0.4-5.5-0.5-8.2-0.2l-6.3,44C45.7,72.1,45.7,73.9,45.3,75.4z M78.2,58.8
		c-4.3,11.2-15.9,15-16.9,15.4c-3.7,1.3-5.7,3.3-6.5,5.3c1.8,0.2,3.8,0.4,5.7,0.4c10,0.1,18.2-3.2,20.3-4.1
		c2.4-3.3,4.2-7.1,5.1-11.2c2.9-12.5-2.2-25-12-32.3C79.5,42.4,81.3,50.8,78.2,58.8L78.2,58.8z"/>
	<path class="st0" d="M44.1,77.7L44.1,77.7c-0.7,0.9-1.4,1.3-1.5,1.3c-5.7,3.1-12-2.2-14.7-4.9c3.5,5.5,8.6,9.7,14.5,12.2
		c0.1-0.2,0.3-0.3,0.5-0.6c1-1.2,2.8-3.4,4.9-6.6C46.6,78.8,45.4,78.3,44.1,77.7L44.1,77.7z M52.6,81.3c0-0.3,0-0.6,0-0.8
		c-1.1-0.2-2.2-0.5-3.2-0.8c-2.2,3.5-4.2,6-5.2,7.2c1.1,0.4,2.3,0.7,3.5,1c3.6,0.8,7.2,1,10.7,0.6C56.3,87.5,52.8,85.2,52.6,81.3
		L52.6,81.3z"/>
	<path class="st0" d="M54.4,80.8c0,0.2,0,0.4,0,0.5c0,3.5,4.3,6.3,5.6,7c4.2-0.7,8.2-2.2,11.8-4.4c2.6-1.6,4.9-3.5,6.8-5.6
		C73.8,80.1,64.7,82.5,54.4,80.8L54.4,80.8z M50.2,78.5c0.9,0.2,1.8,0.4,2.8,0.6c0.8-2.5,3-5,7.6-6.5l0.1,0h0.1
		C60.8,72.5,72.7,68.7,77,58c3-7.4,1.6-16.4-4.1-26.6c-3.3-2.2-7-3.8-10.8-4.7c-0.5-0.1-1-0.2-1.6-0.3
		C64.3,49.7,56.5,68.1,50.2,78.5L50.2,78.5z M44.1,77.7L44.1,77.7L44.1,77.7L44.1,77.7z"/>
	<path class="st1" d="M70.1,41.6c0.7,0,1.4-0.5,1.6-1.1L75.2,23c0.1-0.6-0.3-1.1-1-1.1L40,22.4c-0.8,0-1.5,0.5-1.6,1.1L34.5,41
		c-0.1,0.6,0.3,1.1,1.1,1.1C35.6,42.1,70.1,41.6,70.1,41.6z"/>
	<path class="st2" d="M51,29l-1.2,6.5c0,0-0.8,3.7,4.1,3.6c0,0,4.3,0.1,5.4-3.4l0.4-1.9l-3.4,0.1L56,35.4c0,0-0.3,1.3-1.7,1.2
		c0,0-1.4,0.2-1.1-1l1.2-6.7c0,0,0-1.1,1.6-1.2c0,0,1.4,0,1.3,1.1L57,30.4l3.4-0.1l0.3-1.7c0,0,0.6-3.6-4.2-3.4
		C56.5,25.3,51.9,25.5,51,29L51,29z M61.2,28.8L60,35.3c0,0-0.8,3.7,4,3.6c0,0,4.3,0.1,5.4-3.4l0.4-1.9l-3.4,0.1l-0.3,1.5
		c0,0-0.3,1.3-1.7,1.2c0,0-1.4,0.2-1.1-1l1.2-6.7c0,0,0-1.1,1.6-1.2c0,0,1.4,0,1.3,1.1l-0.3,1.7l3.4-0.1l0.3-1.7
		c0,0,0.6-3.6-4.2-3.4C66.7,25.1,62.1,25.4,61.2,28.8L61.2,28.8z"/>
	<path class="st2" d="M55.5,22.1l-3.9,0.1l-6.7,7.6l1-4.9l-3.5,0L39.6,39l3.5-0.1l0.8-3.9l0.9-1.1l1.3,5l3.5-0.1l-2.2-7.6L55.5,22.1
		"/>
	<path class="st3" d="M58.1,19.2l-3.9,0.1l-2.5,2.8l3.9-0.1L58.1,19.2z"/>
	<path class="st4" d="M7.8,35c7.9,6.3,8.1,12.5,8.1,12.5c0,0.1-3,18.7-3,19C11.6,72.6,0,83.5,0,83.5C4,82.1,31.2,72,43.1,71.6
		c1.2,0.5,2.5,0.8,3.8,1.1c1.1,0.2,2.2,0.3,3.3,0.3c1.6,0,3.9-0.3,7.2-1c1.4-0.1,2.4,0,2.8,0.2c3,1.4,7.3,3.2,11.2,3.7
		c2,0.4,4.3,0.6,7.1,0c0,0,1.8-0.5,2.6-0.8c1-0.4,3-1.2,3-1.2c3.7-1.3,8.8-1.8,13.1-0.5c-5.7-3.3-6.8-5.4-5.8-10.1c0.9-4.5-2-7-2-7
		C95.8,41.2,108,39.9,108,39.9c-15.6-5-23.6-1.5-28.3,0.7c-6.5,2.9-2.3-0.3-2.3-0.3c-7.5,2.7-17.8,8.6-17.8,8.6s-8.2-5-16.7-3.9
		c4.6,2.4,3.1,3.5-0.4,1.9C42.4,46.8,23.4,38.3,7.8,35L7.8,35z"/>
	
		<linearGradient id="SVGID_1_" gradientUnits="userSpaceOnUse" x1="-274.3504" y1="209.5249" x2="-274.3504" y2="197.2649" gradientTransform="matrix(0.9999 -1.692889e-02 -1.692889e-02 -0.9999 332.792 255.9054)">
		<stop  offset="0" style="stop-color:#00AEEF"/>
		<stop  offset="1" style="stop-color:#0072BC"/>
	</linearGradient>
	<path class="st5" d="M94.9,39.2c-3.4-0.2-7.4,0.5-10.9,1.6c-3.4,1.1-7.4,3-10.3,5.5c0,0-5.1,4.3-4.4,10.6c0.4,6,10.2,5.8,8.4,10.6
		c-0.9,2.4-3.6,2.7-5.3,2.5c0,0-4.6-0.1-5.2-3.9c0.3-4.7,0.7-11.6,0.9-14.9c0,0,0,0,0,0c-0.1-3.7,5.1-7,5.1-7
		c-11.1,4.8-12.6,6.8-12.6,6.8l-1.1,16.8c-1-0.4-1.8-0.8-1.8-2.2l0.6-7l-8.3-0.5c0,0,2.1,0.9,1.9,3.3c0,0-0.6,4.4-0.7,5.3
		c-1.6,0.1-2.9-0.4-3.8-1.4c-1.6-1.8-1.4-4.7-1.2-6.3c0.3-2.1,1.2-3.8,2.5-4.8c1.3-1,2.9-1.4,4.8-1.2c2.7,0.3,4.8,2.7,4.8,2.7
		s1.2-3.5,0.2-5.2c-0.9-1.6-10.7-4.1-10.7-4.1s3.9,1.5,1,2.5c-2.5,0.4-4.8,1.4-6.7,2.8c-1.3,1-2.3,2.2-3.1,3.7
		c-0.6,0.3-1.5,0.7-2.3,0.4l-7.2-1.1l0.6-6.5l5.9,1.8c2.4,1.2,1.6,2.3,1.6,2.3l3.8-3.5c0,0-16.1-7.1-27.1-9.8c0,0,5.1,3.5,4.4,8
		l-3,20c-0.7,4.7-6.1,9.7-7.2,10.7c5.7-2,23-7.9,34.8-8.2c1.2,0.5,2.4,0.9,3.8,1.1c1,0.2,2,0.3,3,0.3c1.7,0,4.4-0.5,6.8-1
		c0.9-0.1,2.9-0.2,4,0.4c2.6,1.3,6.9,3.1,10.6,3.5c2.7,0.5,5.4,0.6,8.9-0.7c3.5-1.4,6.3-4,7.8-7.2c1.6-3.4,0.9-5.8-1.2-7.9
		c-1.7-1.6-3.9-2.3-6.1-3c-0.2,0-2.5-0.8-2.7-2.6c-0.2-2.1,3.3-2.8,4.4-3c2.8-0.5,4.6,0.6,6.5,1.7c2.3-3.5,8.2-10.4,12.3-11.3
		C100.8,39.8,98.7,39.3,94.9,39.2L94.9,39.2z M34.7,67.1l-6.4,0.2l0.8-8.4l5.1,0.3c2.3,0,3.1,1.2,3.3,1.9c0,1.4,0.3,2.7,0.8,3.8
		C37.9,65.9,36.9,67.1,34.7,67.1z"/>
	<path class="st2" d="M58.4,57.4l0.6-6.9c-5.9-4.5-13.4-4.7-13.4-4.7c3.8,1.5,3.5,2.4,3.5,2.4c0,0,0,0.3-0.5,0.3
		c-5.1,0.5-8.4,3.7-9.4,5.6c-0.8,1.6-2.4,1.3-2.4,1.3l-6.8-1c0.1-0.7,0.4-4.5,0.5-5.4c0.9,0.3,4.8,1.4,4.8,1.4
		c2.5,0.8,2.4,3.8,2.4,3.8c2-3.6,5.3-5.3,5.3-5.3c-0.2-0.1-18-7.9-29.6-10.5c0,0,4.5,4.4,4.3,8.7l-3,20c0,0-1.3,6.7-8.4,12.1
		c5.1-1.8,25.1-8.8,37-9.1c1.2,0.5,2.5,0.9,3.8,1.1c1,0.2,2,0.3,3.1,0.3c1.4,0,3.8-0.3,6.9-1c0.8-0.1,2.7-0.2,3.8,0.3
		c2.9,1.4,7,3.1,10.7,3.5c2.4,0.5,5.1,0.7,9.1-0.7c3.8-1.4,6.9-4.1,8.5-7.5c1.6-3.4,1.2-6.1-1.4-8.4c-1.8-1.6-5.5-2.8-6.3-3.1
		c-1-0.4-3.1-0.8-2.7-2.3c0.4-1.6,2.6-2.5,4.2-2.5c3-0.1,4.8,0.9,6.6,2.6c2.4-5.6,9.8-11.6,13.3-12.4c-3.2-1-8-1.2-8-1.2
		c-3.3,0-7.2,0.4-11.1,1.7c-2.4,0.8-6.6,2.5-10.1,5.5c-0.2,0.2-5.6,4.5-4.8,11c0.2,3.2,2.9,4.8,5.2,6.1c2.5,1.4,3.7,2.3,2.9,4.3
		c-0.9,2.5-4.2,2.3-4.8,2.2h0c-0.2,0-4.7-0.2-4.8-3c0.3-4.6,0.9-15.3,0.9-15.3s0.2-3.8,5.8-7.9c-9.8,3.9-14.3,7.4-14.3,7.4
		l-1.1,15.5c-0.9-0.3-0.9-1.4-0.9-2.2c0-0.1,0.6-6,0.6-6L49,57.8c0.1,0,2.2,1.6,2.2,3.3c0,0.1,0,0.2,0,0.3c0,0-0.5,3.5-0.7,4.8
		c-1.3,0-2.3-0.4-3-1.2c-0.9-1-1.2-2.5-1.2-3.9c0-0.8,0.1-1.5,0.1-2.1c0.3-2,1.1-3.6,2.3-4.5c1.2-0.9,2.7-1.3,4.5-1.1
		C53.2,53.5,57.7,54.1,58.4,57.4L58.4,57.4z M16.6,40.2c9.6,2.7,21.8,7.6,24.3,8.7c-1.8,1.1-2.9,2.8-2.9,2.8
		c-0.3-1.6-2.4-2.2-2.4-2.2l-5.9-1.8L29,55.2l7.6,1.2c0,0,2.2,0.4,3.1-1.2c0.7-1.3,1.4-2,2.7-3c1.8-1.4,4-2.3,6.5-2.7
		c1.5-0.2,1.3-1.3,1.3-1.3c0-0.4-0.4-0.8-1.1-1.2c6.6,1.7,9.2,3.9,9.2,3.9l-0.3,3.9c0,0-1.8-1.9-4.5-2.2c-2.1-0.2-3.8,0.2-5.2,1.3
		c-1.4,1.1-2.4,2.9-2.7,5.2c-0.2,1.7-0.4,4.8,1.3,6.7c1,1.1,2.4,1.6,4.2,1.5l0.4,0l0.1-0.4c0.2-0.9,0.7-5.1,0.7-5.3
		c0-0.2,0-0.3,0-0.4c0-1-0.3-1.8-0.9-2.4c2.2,0.1,5.6,0.3,6.3,0.3c-0.1,0.9-0.5,6.1-0.5,6.1c0,1.4,1.2,2,2.5,2.7
		c0,0,1.3-16.2,1.3-16.7c0.6-0.5,2.9-2.3,9.5-5.3c-1.6,1.5-2.7,3.1-2.8,5.3l-0.9,15.5c0.1,3.6,5.3,3.8,5.7,3.9
		c2.2,0.2,4.9-0.4,5.8-2.8c1-2.8-1.1-4.2-3.4-5.5c-2.2-1.3-4.6-2.6-4.8-5.3c-0.7-6,4.4-10.1,4.5-10.2c2.4-2.2,5.8-4.1,9.8-5.4
		c3.8-1.2,7.6-1.8,10.8-1.6h0c2,0,3.5,0.2,4.6,0.4c-3,1.2-7.7,5.5-10.4,10.1c-2.3-1.4-4.2-1.8-6.5-1.6c-1.1,0.1-4.6,0.9-5.1,3.8
		c-0.3,1.8,2.1,2.6,3.6,3.2c1.3,0.5,4.1,1.3,5.7,2.8c2.1,2.1,2.5,4.3,1.1,7.3c-1.4,3.2-4.1,5.7-7.6,7c-3.5,1.3-6.3,1.1-8.6,0.7h0
		c-3.5-0.4-7.6-2.1-10.4-3.5c-1.2-0.6-3.2-0.5-4.3-0.4h0l0,0c-3,0.7-5.3,1.1-6.7,1c-1,0-2-0.1-3-0.3c-1.3-0.2-2.6-0.6-3.7-1.1
		l-0.1,0h-0.1c-10.7,0.2-26,5.1-32.9,7.5c2.1-2.1,5.2-5.8,5.8-9.4l3-20C19.9,43.8,16.6,40.2,16.6,40.2L16.6,40.2z"/>
	<path class="st2" d="M28.6,58.9l-0.8,8.9l6.9-0.2h0c2.4,0,3.5-1.4,4-2.5l0.1-0.2l-0.1-0.2c-0.5-1.1-0.8-2.3-0.8-3.6V61l0-0.1
		c-0.3-0.8-1.1-2.2-3.8-2.3c0,0-5-0.3-5-0.3l-0.5,0L28.6,58.9L28.6,58.9z M29.6,59.4c0.8,0,4.6,0.3,4.6,0.3c1.9,0,2.6,0.8,2.9,1.5
		c0,1.3,0.3,2.5,0.8,3.7c-0.6,1.1-1.6,1.7-3.1,1.7c0,0-4.9,0.2-5.8,0.2C29,65.9,29.5,60.2,29.6,59.4L29.6,59.4z"/>
	<path class="st2" d="M37.1,61.1c0,0-0.6,5.5,5,6.5c0,0-3.5-1-4.1-6.5 M69.8,69c0,0-5.1-1.7-6.5-4.1c0,0,1.2,3.7,6.4,5L69.8,69
		L69.8,69z"/>
	<path class="st2" d="M38,61.8c0,0-0.2-4.2,2.4-7.9l-0.3-0.9l-1,1.1c-1.3,2-2.1,2.2-2.1,6.7L38,61.8L38,61.8z"/>
	<path class="st2" d="M39.6,53.3c0,0-3.3,3.4-2.6,8.9l0.8-0.2c0,0-0.5-5.4,2.7-8.4C40.5,53.6,39.6,53.3,39.6,53.3z"/>
	<path class="st4" d="M37.7,54.1c0,0-1.7,1.9-1.8,7l1,0.1c0,0-0.1-3.7,1.9-6.9L37.7,54.1L37.7,54.1z"/>
	<path class="st2" d="M37.1,55.1c0,0-1,1.8-1.2,5.5c0,0-0.1-0.6-1.1-0.8c0,0,0.5-2.8,1.2-4.4C36.1,55.3,36.7,55.3,37.1,55.1z"/>
	<path class="st6" d="M35,56.1c0,0,0.6,0.1,1,0c0,0-0.4,1.1-0.6,2.9c0,0-0.2-0.2-1-0.3L35,56.1L35,56.1z"/>
</g>
</svg>
