<?xml version="1.0" encoding="utf-8"?>
<!-- Generator: Adobe Illustrator 27.9.4, SVG Export Plug-In . SVG Version: 9.03 Build 54784)  -->
<svg version="1.1" id="Layer_1" xmlns="http://www.w3.org/2000/svg" xmlns:xlink="http://www.w3.org/1999/xlink" x="0px" y="0px"
	 viewBox="0 0 264.7 264.7" style="enable-background:new 0 0 264.7 264.7;" xml:space="preserve">
<style type="text/css">
	.st0{fill:#231F20;}
	.st1{fill:#CF1F25;}
</style>
<g>
	<path class="st0" d="M79.9,0.1v7.5c0,1-0.3,1.8-0.9,2.3c-0.6,0.6-1.6,0.9-2.9,0.9c-0.2,0-0.5,0-0.7,0c-0.2,0-0.3,0-0.4-0.1
		s-0.3-0.1-0.5-0.1c-0.2-0.1-0.5-0.1-0.6-0.1V8.4c0.8,0.1,1.5,0.2,2.3,0.2c0.5,0,0.9-0.1,1-0.4s0.2-0.6,0.2-1.2V0.1H79.9L79.9,0.1z"
		/>
	<path class="st0" d="M87,0.1h2.6v7.6c0,0.9-0.3,1.6-1,2.3c-0.7,0.6-1.7,0.9-3,0.9s-2.4-0.3-3-0.9c-0.7-0.6-1-1.4-1-2.2V0.1h2.6v7.6
		c0,0.3,0.1,0.6,0.4,0.8s0.6,0.2,1,0.2c0.4,0,0.8-0.1,1-0.2S87,8.1,87,7.7L87,0.1L87,0.1z"/>
	<path class="st0" d="M99.2,0.1v10.5H97l-2.7-4.3l-0.5-1.4h-0.1l0.1,1.7v4h-2.4V0.1h2.2l2.7,4.6l0.5,1.2h0.1l-0.1-1.7v-4H99.2
		L99.2,0.1z"/>
	<path class="st0" d="M104.8,10.8c-1.2,0-2.2-0.3-2.9-0.9s-1-1.4-1-2.3V3.2c0-1,0.3-1.8,1-2.4s1.6-0.9,2.9-0.9
		c0.8,0,1.9,0.1,3.1,0.3v2.2c-1.4-0.2-2.4-0.3-3.1-0.3c-0.5,0-0.9,0.1-1.2,0.4s-0.3,0.6-0.3,1.1v3.6c0,1,0.5,1.5,1.5,1.5
		c0.4,0,0.9,0,1.4-0.1V5.4h2.2v4.9C107.2,10.6,106,10.8,104.8,10.8L104.8,10.8z"/>
	<path class="st0" d="M111.9,10.7V0.1h2.6v10.5H111.9z M117.5,5.3l2.5-5.2h-2.8l-2.5,5.4l2.6,5.2h3L117.5,5.3L117.5,5.3z"/>
	<path class="st0" d="M131.4,10.7h-2.6l-1.3-4.3l-1.2,4.3h-2.5l-3.1-10.5h2.7l1.3,4.8l0.3,2.5h0.1l0.4-2.5l0.8-2.9l-0.6-1.9h2.7
		l1.3,4.8l0.3,2.5h0.1l0.4-2.5l1.3-4.8h2.6L131.4,10.7L131.4,10.7z"/>
	<path class="st0" d="M139.8,0.1l3.1,10.5h-2.7l-0.5-1.9h-2.4l-0.5,1.9h-2.6l3.1-10.5H139.8z M137.8,6.7h1.3l-0.2-0.8l-0.3-2.5h-0.1
		l-0.4,2.5L137.8,6.7z"/>
	<path class="st0" d="M151.8,0.1v10.5h-2.2l-2.7-4.3l-0.5-1.4h-0.1l0.1,1.7v4h-2.4V0.1h2.2l2.7,4.6l0.5,1.2h0.1l-0.1-1.7v-4H151.8
		L151.8,0.1z"/>
	<path class="st0" d="M160.9,0.1v7.5c0,1-0.3,1.8-0.9,2.3s-1.6,0.9-2.9,0.9c-0.2,0-0.5,0-0.7,0c-0.2,0-0.3,0-0.4-0.1
		c-0.1,0-0.3-0.1-0.5-0.1c-0.2-0.1-0.4-0.1-0.6-0.1V8.4c0.8,0.1,1.5,0.2,2.3,0.2c0.5,0,0.9-0.1,1-0.4c0.1-0.2,0.2-0.6,0.2-1.2V0.1
		H160.9L160.9,0.1z"/>
	<path class="st0" d="M167.4,0.1l3.1,10.5h-2.7l-0.5-1.9h-2.4l-0.5,1.9h-2.6l3.1-10.5C164.8,0.1,167.4,0.1,167.4,0.1z M165.4,6.7
		h1.3l-0.2-0.8l-0.3-2.5H166l-0.4,2.5L165.4,6.7z"/>
	<path class="st0" d="M179.4,0.1v10.5h-2.2l-2.7-4.3l-0.5-1.4h-0.1l0.1,1.7v4h-2.4V0.1h2.2l2.7,4.6l0.5,1.2h0.1L177,4.2v-4H179.4
		L179.4,0.1z"/>
	<path class="st0" d="M184.9,10.8c-1.2,0-2.2-0.3-2.9-0.9s-1-1.4-1-2.3V3.2c0-1,0.3-1.8,1-2.4s1.6-0.9,2.9-0.9
		c0.8,0,1.9,0.1,3.1,0.3v2.2c-1.4-0.2-2.4-0.3-3.1-0.3c-0.6,0-0.9,0.1-1.2,0.4s-0.3,0.6-0.3,1.1v3.6c0,1,0.5,1.5,1.5,1.5
		c0.4,0,0.9,0,1.4-0.1V5.4h2.2v4.9C187.4,10.6,186.2,10.8,184.9,10.8L184.9,10.8z"/>
	<path class="st0" d="M56.2,38.3l3,9h-5.9l-2.7-9h-0.7v9h-5.7V19h10.8l3.8,3.7v13.1L56.2,38.3L56.2,38.3z M49.8,24v9.8h2.8
		c0.4,0,0.5-0.2,0.5-0.6v-8.6c0-0.4-0.2-0.6-0.5-0.6L49.8,24L49.8,24z"/>
	<path class="st0" d="M202.9,38.3l3,9H200l-2.7-9h-0.7v9h-5.7V19h10.8l3.8,3.7v13.1L202.9,38.3L202.9,38.3z M196.6,24v9.8h2.8
		c0.4,0,0.6-0.2,0.6-0.6v-8.6c0-0.4-0.2-0.6-0.6-0.6L196.6,24L196.6,24z"/>
	<path class="st0" d="M61.1,19h11l1,5.3H67V31h4.7v4.9H67v6.2h5.9l-1,5.3H61.1L61.1,19L61.1,19z"/>
	<path class="st0" d="M85.2,47.4H75.1V19h11.1l3.4,3.4V43C89.6,43,85.2,47.4,85.2,47.4z M80.7,24v18.4h2.7c0.5,0,0.6-0.2,0.6-0.6
		V24.5c0-0.4-0.1-0.5-0.5-0.5L80.7,24L80.7,24z"/>
	<path class="st0" d="M111.5,35.6V43l-4.4,4.4H96.8V19h11.1l3.4,3.4v7.8l-2,2.9L111.5,35.6L111.5,35.6z M102.5,24v7.4h2.7
		c0.4,0,0.7-0.2,0.7-0.7v-6.1c0-0.4-0.1-0.5-0.5-0.5L102.5,24L102.5,24z M105.9,36.5c0-0.6-0.3-0.8-0.9-0.8h-2.6v6.7h2.9
		c0.5,0,0.6-0.2,0.6-0.6L105.9,36.5L105.9,36.5z"/>
	<path class="st0" d="M124.5,47.4H118l-4.1-4V22.7l3.8-3.7h7l3.8,3.7v20.7L124.5,47.4L124.5,47.4z M120.1,24c-0.4,0-0.5,0.2-0.5,0.5
		v17.3c0,0.4,0.1,0.6,0.6,0.6h2.2c0.5,0,0.6-0.2,0.6-0.6V24.5c0-0.4-0.1-0.5-0.5-0.5C122.4,24,120.1,24,120.1,24z"/>
	<path class="st0" d="M141.6,47.4H135l-4.1-4V22.7l3.8-3.7h7l3.8,3.7v20.7L141.6,47.4L141.6,47.4z M137.2,24c-0.4,0-0.5,0.2-0.5,0.5
		v17.3c0,0.4,0.1,0.6,0.5,0.6h2.2c0.5,0,0.6-0.2,0.6-0.6V24.5c0-0.4-0.1-0.5-0.5-0.5C139.4,24,137.2,24,137.2,24z"/>
	<path class="st0" d="M156.4,47.4h-7l-1-5.3h6.1c0.5,0,0.7-0.2,0.7-0.6v-5.2c0-0.8-0.3-0.8-1.1-0.8h-2.9l-3.2-3.2v-9.6l3.8-3.7h7.8
		l1,5.3h-6.4c-0.5,0-0.7,0.2-0.7,0.6v5.2c0,0.6,0.3,0.7,0.9,0.7h3.6l2.8,2.9v9.4L156.4,47.4L156.4,47.4z"/>
	<path class="st0" d="M216.3,47.4h-7l-1-5.3h6.1c0.5,0,0.7-0.2,0.7-0.6v-5.2c0-0.8-0.3-0.8-1.1-0.8H211l-3.2-3.2v-9.6l3.8-3.7h7.8
		l1,5.3h-6.4c-0.5,0-0.7,0.2-0.7,0.6v5.2c0,0.6,0.3,0.7,0.9,0.7h3.6l2.8,2.9v9.4L216.3,47.4L216.3,47.4z"/>
	<path class="st0" d="M173.9,19l1.4,5.3h-3.8v23.1h-5.8V24.3H162l1.5-5.3H173.9z"/>
	<path class="st0" d="M176.9,19h11l1,5.3h-6.2V31h4.7v4.9h-4.7v6.2h5.9l-1,5.3h-10.8L176.9,19L176.9,19z"/>
	<path class="st0" d="M133.4,104.8v51.3l12.5,5.4l-12.5,103.3l72.5-46.9v-54.1l-13.8-5.9l13.8-14.8v-28.5l13.4-22.3h-68
		C148.3,99.4,141.5,104.4,133.4,104.8L133.4,104.8z M160.9,114.6h17.4v37.3l-17.4-7.7L160.9,114.6L160.9,114.6z M160.9,168l17.4,7.6
		l-0.7,27.7l-17.4,11.2L160.9,168L160.9,168z"/>
	<path class="st1" d="M113.5,92.3h-68l13.4,22.3v103.3l27.5,17.8V177l17.4,7.5v62.4l27.5,17.8v-95.6l-17.4-7.6l14.3-57
		C121.5,103.1,116,98.5,113.5,92.3L113.5,92.3z M93.6,152.7l-7.3-3.2v-34.9h15.4L93.6,152.7L93.6,152.7z"/>
	<path class="st1" d="M220.6,59H44.1v22.3h68c1.5-9.8,10-17.4,20.2-17.4s18.7,7.6,20.2,17.4h68L220.6,59L220.6,59z"/>
	<path class="st1" d="M150.8,81.4c-2.5-5.6-6.9-9.7-12.3-11.6c1.2-0.7,2.8-1.1,3.8-1.2C146.7,71.4,149.9,76,150.8,81.4L150.8,81.4z
		 M136.2,74c0.5,0.9,1.3,1.9,2.2,3.1c3.9,5.2,9.9,13.1,3.5,23.3c-2.5,1.5-5.5,2.4-8.6,2.6V70.7c0.8,0,1.5,0.1,2.2,0.2
		C135.3,71.9,135.6,72.9,136.2,74z M126.4,77.1c0.9-1.2,1.7-2.2,2.2-3.1c0.6-1.1,0.8-2.2,0.7-3.1c0.7-0.1,1.5-0.2,2.2-0.2V103
		c-3.1-0.2-6.1-1.1-8.6-2.6C116.5,90.2,122.4,82.4,126.4,77.1z M125,67.3c2-0.9,4.2-1.4,6.4-1.5v3c-1,0.1-2,0.2-3,0.4
		C127.5,68.2,126.2,67.6,125,67.3z M133.3,68.8v-3c2.3,0.1,4.5,0.6,6.4,1.5c-1.2,0.4-2.5,1-3.4,1.9C135.3,69,134.3,68.9,133.3,68.8z
		 M122.5,68.6c1,0.1,2.7,0.5,3.8,1.2c-5.4,1.8-9.8,6-12.3,11.6C114.9,76,118,71.4,122.5,68.6z M114,87.7c1.3-8,6.6-14.2,13.4-16.3
		c0.1,0.5-0.1,1.1-0.5,1.8c-0.4,0.8-1.2,1.8-2,2.9c-3.6,4.7-9.2,12.3-5.4,21.8C116.7,95.2,114.7,91.6,114,87.7L114,87.7z
		 M145.2,97.9c3.8-9.6-1.9-17.1-5.4-21.8c-0.9-1.1-1.6-2.1-2-2.9c-0.4-0.7-0.5-1.3-0.5-1.8c6.8,2.1,12.1,8.3,13.4,16.3
		C150,91.6,148.1,95.2,145.2,97.9L145.2,97.9z"/>
</g>
</svg>
