<?xml version="1.0" encoding="UTF-8"?><svg id="Layer_1" xmlns="http://www.w3.org/2000/svg" xmlns:xlink="http://www.w3.org/1999/xlink" viewBox="0 0 225.16 225.16"><defs><style>.cls-1{fill:#00205b;}.cls-1,.cls-2,.cls-3,.cls-4,.cls-5,.cls-6,.cls-7,.cls-8,.cls-9,.cls-10{stroke-width:0px;}.cls-2{fill:#007f41;}.cls-3{fill:#e8470b;}.cls-4{fill:none;}.cls-5{fill:#008e43;}.cls-6{fill:#001a54;}.cls-7{fill:#fff;}.cls-8{fill:#b4b5b5;}.cls-11{clip-path:url(#clippath);}.cls-9{fill:url(#radial-gradient);}.cls-10{fill:#005226;}</style><clipPath id="clippath"><path class="cls-4" d="m11.21,112.58c0,55.9,45.48,101.37,101.37,101.37s101.37-45.48,101.37-101.37S168.48,11.21,112.58,11.21,11.21,56.68,11.21,112.58"/></clipPath><radialGradient id="radial-gradient" cx="-306.3" cy="409.97" fx="-306.3" fy="409.97" r=".66" gradientTransform="translate(47022.17 62898.66) scale(153.15 -153.15)" gradientUnits="userSpaceOnUse"><stop offset="0" stop-color="#009533"/><stop offset=".78" stop-color="#006129"/><stop offset="1" stop-color="#005226"/></radialGradient></defs><path class="cls-1" d="m4.2,112.58C4.2,52.72,52.72,4.2,112.58,4.2s108.38,48.52,108.38,108.38-48.53,108.38-108.38,108.38S4.2,172.44,4.2,112.58"/><path class="cls-8" d="m112.58,4.2c59.86,0,108.38,48.52,108.38,108.38s-48.52,108.38-108.38,108.38S4.2,172.44,4.2,112.58,52.72,4.2,112.58,4.2m0-4.2c-30.07,0-58.34,11.71-79.6,32.97C11.71,54.24,0,82.51,0,112.58s11.71,58.34,32.97,79.61c21.26,21.26,49.53,32.97,79.6,32.97s58.34-11.71,79.61-32.97c21.26-21.26,32.97-49.53,32.97-79.61s-11.71-58.34-32.97-79.61C170.92,11.71,142.65,0,112.58,0"/><g class="cls-11"><rect class="cls-9" x="11.21" y="11.21" width="202.74" height="202.75"/></g><path class="cls-10" d="m205.01,108.79c-6.4-6-14.13-8.7-22.82-7.91-2.15-6.66-4.86-13.14-8.13-19.42,9.16-2.16,17.2-3.66,23.77-4.7-.82-1.95-1.71-3.87-2.65-5.75-6.52,1.08-14.71,2.66-24.13,4.93-3.21-5.57-6.61-10.64-10.15-15.25.87-.53,1.72-1.1,2.55-1.73,4.66-3.51,9.15-9.16,8.24-17.64-2.57-2.16-5.25-4.18-8.05-6.06,3.71,8.06,2.47,14.07-3.86,18.82-.89.67-1.82,1.27-2.76,1.81-17.5-20.55-37.98-30.87-56.27-35.84-5.23.6-10.32,1.63-15.25,3.06,19.72,2.86,44.74,11.64,65.61,35.31-9.12,2.76-19.58,1.38-29.07-.28-1.61-.28-3.23-.57-4.85-.86-19.04-3.41-38.72-6.94-57.59-1.72-12.46,3.45-24.67,11.15-34.36,21.29-2.22,5.31-3.97,10.86-5.19,16.61,9.45-15.37,25.1-27.57,41.18-32.03,17.53-4.85,36.52-1.45,54.89,1.84,1.64.29,3.26.58,4.87.87,11.76,2.06,23.85,3.24,34.3-.71,3.35,4.25,6.56,8.92,9.6,14.06-11.57,3.02-24.67,7.04-38.59,12.41-38.21,14.72-71.95,35.19-100.35,60.88.86,1.94,1.78,3.85,2.77,5.73,47.32-43.32,101.3-63.87,139.25-73.55.11.21.22.41.33.62,3.17,5.99,5.79,12.15,7.87,18.45-14.55,4.49-24.31,21.34-35.48,40.64-13.31,23-28.38,49.01-55.06,60.23,3.09.89,6.26,1.63,9.47,2.2,24.13-13.21,38.26-37.59,50.87-59.38,10.51-18.16,19.68-34,31.97-37.85,6.17,22.46,5.68,46.74-1.5,72.51,3.06-2.95,5.93-6.11,8.57-9.45,2.46-11.84,3.54-23.49,3.21-34.77-.3-10.05-1.73-19.84-4.26-29.29,8.43-.42,15.35,3.24,21.02,11.1.09-1.65.13-3.31.13-4.99,0-1.41-.04-2.8-.1-4.2"/><path class="cls-7" d="m71.55,55.72l-5.85,4.59-9.21-11.74,5.85-4.59,2.62.31,6.91,8.8-.31,2.62Zm-8.28-9.18l-3.04,2.39,6.02,7.66,3.04-2.39-6.02-7.66Z"/><path class="cls-7" d="m83.94,48.56l-6.64,3.3-6.64-13.36,6.64-3.3,2.5.84,1.92,3.86-.53,1.56,1.56.53,2.02,4.07-.84,2.5Zm-6.24-10.68l-3.47,1.72,1.55,3.11,3.47-1.72-1.55-3.11Zm2.69,5.41l-3.47,1.72,1.65,3.32,3.47-1.72-1.65-3.32Z"/><path class="cls-7" d="m105.53,37.03l-4.67.61.74,5.71-2.68.35-1.92-14.8,7.35-.95,2.09,1.61.7,5.39-1.61,2.09Zm-1.68-6.41l-3.84.5.51,3.96,3.84-.5-.51-3.95Z"/><path class="cls-7" d="m119.92,42.85l-1.83-5.9-1.79-.13-.41,5.74-2.7-.19,1.06-14.89,7.4.52,1.73,1.99-.38,5.42-1.99,1.73,1.92,5.91-3-.21Zm.71-12.31l-3.86-.27-.27,3.86,3.86.27.27-3.86Z"/><path class="cls-7" d="m134.24,45.87l-5.34-1.5-1.29-2.3,3.03-10.77,2.3-1.29,5.34,1.5,1.29,2.3-3.03,10.77-2.3,1.29Zm2.53-12.1l-3.73-1.05-2.64,9.38,3.73,1.05,2.64-9.38Z"/><polygon class="cls-7" points="150.37 53.31 148.07 52.08 151.72 45.18 147.32 48.88 146.12 48.24 146.74 42.52 143.07 49.41 140.74 48.17 147.77 35.01 149.95 36.17 149.1 44.09 155.21 38.98 157.39 40.14 150.37 53.31"/><polygon class="cls-7" points="162.84 55.31 158.9 59.98 156.85 58.25 160.78 53.57 163.21 44.08 165.62 46.12 163.71 52.23 169.35 49.28 171.7 51.26 162.84 55.31"/><path class="cls-7" d="m39.06,146.69l-1.34-3.07-3.76,1.63-.77-1.77,9.73-4.24,2.11,4.84-.69,1.75-3.54,1.54-1.75-.69Zm4.05-2.41l-1.1-2.53-2.6,1.13,1.1,2.53,2.6-1.13Z"/><path class="cls-7" d="m40.7,158.17l2.67-3.49-.67-1.09-3.5,2.13-1-1.64,9.07-5.52,2.74,4.51-.44,1.82-3.3,2.01-1.82-.44-2.64,3.55-1.11-1.83Zm7.43-4.66l-1.43-2.35-2.35,1.43,1.43,2.35,2.35-1.43Z"/><path class="cls-7" d="m47.78,167.77l-2.49-3.06.19-1.87,6.18-5.02,1.87.19,2.49,3.06-.19,1.87-6.18,5.03-1.87-.19Zm6.43-6l-1.74-2.14-5.38,4.38,1.74,2.14,5.38-4.38Z"/><path class="cls-7" d="m61.57,180.73l-4.15-3.26,6.57-8.34,4.15,3.26.22,1.86-1.9,2.41-1.17.14.14,1.17-2,2.54-1.86.22Zm2.3-3.89l-2.16-1.7-1.63,2.07,2.16,1.7,1.63-2.07Zm2.66-3.38l-2.17-1.7-1.53,1.94,2.16,1.7,1.53-1.94Z"/><path class="cls-7" d="m71.28,187.04l.68-2.62-2.29-1.35-1.89,1.91-1.66-.97,8-7.61,1.52.89-2.75,10.7-1.6-.94Zm2.03-7.54l-2.33,2.32,1.42.83.91-3.16Z"/><polygon class="cls-7" points="81.6 191.89 77.54 190.2 77.09 189.09 77.52 188.06 81.73 189.83 82.67 187.56 79.66 186.3 78.95 184.56 80.32 181.29 82.05 180.57 86.11 182.27 86.56 183.38 86.14 184.4 81.93 182.64 81.04 184.76 84.06 186.02 84.76 187.77 83.34 191.18 81.6 191.89"/><polygon class="cls-7" points="93.9 195.67 93.14 189.62 90.26 191.88 89.57 194.56 87.71 194.08 90.35 183.79 92.22 184.27 90.97 189.11 95.9 185.22 98.08 185.78 94.93 188.29 95.83 196.16 93.9 195.67"/><polygon class="cls-7" points="100.11 196.84 101.26 186.28 107.84 187 107.64 188.83 102.99 188.32 102.72 190.81 105.87 191.16 105.66 193.07 102.51 192.73 102.24 195.22 106.89 195.73 106.68 197.56 100.11 196.84"/><polygon class="cls-7" points="118.01 188.81 115.26 188.87 115.45 197.65 113.52 197.69 113.33 188.91 110.58 188.99 110.54 187.13 117.97 186.97 118.01 188.81"/><path class="cls-7" d="m127.82,196.35l-5.21.82-1.64-10.49,5.21-.82,1.52,1.1.48,3.03-.69.95.95.69.5,3.2-1.11,1.52Zm-1.95-8.58l-2.72.43.38,2.44,2.72-.43-.38-2.44Zm.67,4.24l-2.72.43.41,2.61,2.72-.42-.41-2.61Z"/><path class="cls-7" d="m139.07,193.51l-1.46-2.28-2.54.76.11,2.69-1.84.55-.15-11.04,1.68-.51,5.98,9.29-1.78.54Zm-4.15-6.62l.12,3.29,1.57-.47-1.69-2.82Z"/><polygon class="cls-7" points="144.79 191.43 140.44 181.75 142.2 180.96 145.79 188.97 149.68 187.22 150.43 188.9 144.79 191.43"/><polygon class="cls-7" points="154.44 186.75 148.91 177.69 150.55 176.69 155.13 184.18 158.77 181.95 159.73 183.53 154.44 186.75"/><polygon class="cls-7" points="172.73 172.82 170.02 175.41 168.14 175.36 162.65 169.59 162.7 167.72 165.41 165.13 167.29 165.18 167.64 165.55 164.4 168.64 169.18 173.66 172.43 170.58 172.78 170.95 172.73 172.82"/><polygon class="cls-7" points="176.82 168.49 168.58 161.78 169.8 160.29 176.61 165.83 179.3 162.53 180.73 163.69 176.82 168.49"/><polygon class="cls-7" points="186.15 155.45 184.08 158.81 182.25 159.25 174.34 154.38 175.35 152.74 182.82 157.34 184.27 154.99 176.79 150.39 177.8 148.75 185.71 153.62 186.15 155.45"/><path class="cls-7" d="m191.34,144.94l-2.12,4.83-9.72-4.26,2.12-4.83,1.75-.68,2.81,1.23.43,1.09,1.09-.43,2.96,1.3.68,1.75Zm-8.28-2.98l-1.11,2.52,2.26.99,1.11-2.52-2.26-.99Zm3.93,1.73l-1.11,2.52,2.42,1.06,1.11-2.52-2.42-1.06Z"/><path class="cls-7" d="m112.58,20.06c51.1,0,92.52,41.42,92.52,92.52s-41.42,92.52-92.52,92.52S20.06,163.68,20.06,112.58,61.48,20.06,112.58,20.06m0-3.73c-53.07,0-96.25,43.18-96.25,96.25s43.18,96.25,96.25,96.25,96.25-43.18,96.25-96.25S165.65,16.33,112.58,16.33"/><path class="cls-2" d="m141.15,88.36h-63.27c-1.12,0-2.02.91-2.02,2.02v25.24l-2.86,3.72c-.32.32-.32.83,0,1.15l2.86,3.72v23.26c0,.35.42.54.68.3l10.76-9.74v-13.19h51.39l10.58-9.58c.54-.49.85-1.19.85-1.92v-16.02c0-.69-.27-1.35-.76-1.83l-6.37-6.37c-.49-.49-1.14-.76-1.83-.76m-2.48,25.64h-51.39v-14.69h51.39v14.69Z"/><path class="cls-6" d="m76.25,148.98c-.21,0-.41-.04-.61-.13-.55-.24-.9-.78-.9-1.38v-22.89l-2.6-3.38c-.67-.73-.67-1.85,0-2.58l2.6-3.38v-24.86c0-1.73,1.4-3.13,3.13-3.13h63.27c.99,0,1.92.38,2.61,1.08l6.37,6.37c.7.7,1.08,1.63,1.08,2.61v16.02c0,1.04-.44,2.04-1.21,2.74l-10.9,9.87h-50.71v12.57l-11.12,10.07c-.28.26-.65.39-1.01.39m-2.31-29.07l3.01,3.92v22.06l9.23-8.35v-13.8h52.07l10.27-9.3c.31-.28.49-.68.49-1.1v-16.02c0-.4-.15-.77-.44-1.05l-6.37-6.37c-.28-.28-.66-.44-1.05-.44h-63.27c-.51,0-.92.41-.92.92v25.61l-3.01,3.92Zm65.84-4.81h-53.6v-16.9h53.6v16.9Zm-51.39-2.21h49.18v-12.48h-49.18v12.48Z"/><path class="cls-1" d="m76.66,124.21c0-.22-.08-.42-.24-.57l-2.86-3.72,2.86-3.72c.15-.15.24-.36.24-.57v-25.24c0-.67.55-1.22,1.21-1.22h63.28c.48,0,.92.19,1.26.52l6.37,6.37c.34.34.52.78.52,1.26v16.02c0,.5-.21.98-.59,1.32l-10.35,9.37h-51.07c-.45,0-.81.36-.81.81v12.83l-9.82,8.89v-22.35Zm10.63-25.71c-.45,0-.81.36-.81.81v14.69c0,.45.36.81.81.81h51.39c.45,0,.81-.36.81-.81v-14.69c0-.45-.36-.81-.81-.81h-51.39Z"/><path class="cls-6" d="m76.22,147.56v-23.35c0-.1-.04-.19-.11-.26l-.04-.04-3.07-3.99,3.11-4.03c.07-.07.11-.16.11-.26v-25.24c0-.91.74-1.66,1.66-1.66h63.27c.59,0,1.15.23,1.57.65l6.37,6.37c.42.42.65.98.65,1.57v16.02c0,.63-.27,1.23-.73,1.65l-10.48,9.49h-51.24c-.2,0-.37.17-.37.37v13.02l-10.7,9.69Zm.54-24.21c.22.23.34.54.34.86v21.36l8.93-8.09v-12.63c0-.69.56-1.25,1.25-1.25h50.9l10.23-9.26c.28-.25.44-.62.44-.99v-16.02c0-.36-.14-.69-.39-.95l-6.37-6.37c-.25-.25-.59-.39-.95-.39h-63.27c-.43,0-.77.35-.77.77v25.24c0,.32-.12.63-.34.86l-2.64,3.43,2.64,3.43Zm61.92-8.09h-51.39c-.69,0-1.25-.56-1.25-1.25v-14.69c0-.69.56-1.25,1.25-1.25h51.39c.69,0,1.25.56,1.25,1.25v14.69c0,.69-.56,1.25-1.25,1.25m-51.39-16.31c-.2,0-.37.17-.37.37v14.69c0,.2.16.37.37.37h51.39c.2,0,.37-.17.37-.37v-14.69c0-.2-.17-.37-.37-.37h-51.39Z"/><path class="cls-2" d="m138.67,128.79v12.59h-50.73l-11.31,10.24c-.27.25-.1.71.27.71h64.25c.69,0,1.35-.27,1.83-.76l6.37-6.37c.49-.49.76-1.15.76-1.83v-17.08c0-.69-.27-1.35-.76-1.83l-2.53-2.53c-.15-.15-.4-.16-.56-.01l-7.6,6.88Z"/><path class="cls-6" d="m141.15,153.43h-64.25c-.63,0-1.18-.38-1.41-.97-.23-.59-.07-1.24.4-1.66l11.63-10.52h50.05v-11.98l7.96-7.2c.6-.54,1.51-.52,2.08.05l2.53,2.53c.7.7,1.08,1.63,1.08,2.61v17.08c0,.99-.38,1.92-1.08,2.61l-6.37,6.37c-.7.7-1.62,1.08-2.61,1.08m-62.43-2.21h62.43c.4,0,.77-.15,1.05-.44l6.37-6.37c.28-.28.44-.65.44-1.05v-17.08c0-.4-.15-.77-.44-1.05l-2.05-2.05-6.74,6.1v13.21h-51.41l-9.65,8.74Z"/><path class="cls-1" d="m77.95,151.52l10.3-9.32h50.42c.45,0,.81-.36.81-.81v-12.24l7.04-6.37,2.25,2.25c.34.34.52.78.52,1.26v17.08c0,.48-.19.92-.52,1.26l-6.37,6.37c-.34.34-.78.52-1.26.52h-63.2Z"/><path class="cls-6" d="m141.15,151.96h-64.34l11.28-10.21h50.59c.2,0,.37-.17.37-.37v-12.43l7.5-6.79,2.55,2.55c.42.42.65.98.65,1.57v17.08c0,.59-.23,1.15-.65,1.57l-6.37,6.37c-.42.42-.98.65-1.57.65m-62.05-.88h62.05c.36,0,.69-.14.95-.39l6.37-6.37c.25-.25.39-.59.39-.95v-17.08c0-.36-.14-.69-.39-.95l-1.95-1.96-6.58,5.96v12.04c0,.69-.56,1.25-1.25,1.25h-50.25l-9.33,8.44Z"/><path class="cls-2" d="m125.52,72.91c-.49-.48-1.14-.76-1.83-.76h-6.42l-3.67-2.91c-.32-.32-.83-.32-1.15,0l-3.67,2.91h-13.44c-1.12,0-2.03.91-2.03,2.03v92.33c0,1.12.91,2.03,2.03,2.03h13.44l3.67,2.62c.32.32.83.32,1.15,0l3.67-2.62h6.32c.75,0,1.47-.3,2-.83l6.23-6.23c.53-.53.83-1.25.83-2v-77.62c0-1.16-.46-2.28-1.28-3.1l-5.85-5.85Zm-4.31,84.68h-16.37v-74.49h16.37v74.49Z"/><path class="cls-6" d="m113.02,172.5c-.48,0-.92-.17-1.27-.48l-3.33-2.37h-13.09c-1.73,0-3.13-1.4-3.13-3.13v-92.33c0-1.73,1.4-3.13,3.13-3.13h13.06l3.33-2.64c.71-.66,1.89-.66,2.6,0l3.33,2.64h6.04c.99,0,1.92.39,2.61,1.08l5.85,5.85c1.04,1.03,1.61,2.41,1.61,3.88v77.62c0,1.05-.41,2.04-1.15,2.79l-6.23,6.23c-.74.75-1.73,1.15-2.79,1.15h-5.96l-3.33,2.37c-.35.31-.8.48-1.27.48m-17.69-99.24c-.51,0-.92.41-.92.92v92.33c0,.51.41.92.92.92h13.79l3.89,2.78,3.89-2.78h6.67c.46,0,.9-.18,1.22-.51l6.23-6.23c.33-.33.51-.76.51-1.22v-77.62c0-.88-.34-1.7-.96-2.31l-5.85-5.85c-.28-.28-.65-.43-1.05-.43h-6.8l-3.86-3.06-3.86,3.06h-13.83Zm26.98,85.43h-18.58v-76.7h18.58v76.7Zm-16.37-2.21h14.16v-72.28h-14.16v72.28Z"/><path class="cls-1" d="m109.35,167.96c-.15-.15-.36-.24-.57-.24h-13.44c-.67,0-1.22-.55-1.22-1.22v-92.33c0-.67.55-1.21,1.22-1.21h13.44c.22,0,.43-.09.58-.24l3.68-2.91,3.66,2.91c.15.16.36.24.58.24h6.42c.48,0,.92.18,1.26.52l5.85,5.85c.67.67,1.04,1.57,1.04,2.52v77.62c0,.54-.21,1.05-.59,1.43l-6.23,6.23c-.38.38-.89.59-1.43.59h-6.32c-.21,0-.42.08-.57.24l-3.68,2.82-3.67-2.82Zm-4.5-85.67c-.45,0-.81.36-.81.81v74.49c0,.45.36.81.81.81h16.37c.45,0,.81-.36.81-.81v-74.49c0-.45-.36-.81-.81-.81h-16.37Z"/><path class="cls-6" d="m113.17,171.22h-.15q-.15,0-3.94-2.91l-.04-.04c-.07-.07-.16-.11-.26-.11h-13.44c-.91,0-1.66-.74-1.66-1.66v-92.33c0-.91.74-1.66,1.66-1.66h13.44c.1,0,.19-.04.26-.11l.04-.04,3.95-3.12,3.98,3.16c.07.07.16.11.26.11h6.42c.59,0,1.15.23,1.57.65l5.85,5.85c.76.76,1.17,1.76,1.17,2.84v77.62c0,.66-.26,1.28-.72,1.75l-6.23,6.23c-.47.46-1.09.72-1.75.72h-6.32c-.1,0-.19.04-.26.11l-.04.04-3.79,2.91Zm-3.54-3.59c.25.19,2.58,1.98,3.39,2.59l3.39-2.6c.23-.22.54-.34.86-.34h6.32c.42,0,.82-.16,1.12-.46l6.23-6.23c.3-.3.46-.7.46-1.12v-77.62c0-.83-.33-1.62-.92-2.21l-5.85-5.85c-.25-.25-.59-.39-.95-.39h-6.42c-.32,0-.64-.13-.87-.36l-3.37-2.67-3.38,2.67c-.23.23-.55.36-.87.36h-13.44c-.43,0-.77.35-.77.77v92.33c0,.43.35.77.77.77h13.44c.32,0,.63.12.86.34m11.58-8.79h-16.37c-.69,0-1.25-.56-1.25-1.25v-74.49c0-.69.56-1.25,1.25-1.25h16.37c.69,0,1.25.56,1.25,1.25v74.49c0,.69-.56,1.25-1.25,1.25m-16.37-76.11c-.2,0-.37.17-.37.37v74.49c0,.2.17.37.37.37h16.37c.2,0,.37-.16.37-.37v-74.49c0-.2-.17-.37-.37-.37h-16.37Z"/><path class="cls-5" d="m143.84,85.61h-63.27c-1.12,0-2.02.91-2.02,2.03v25.23l-2.86,3.72c-.32.32-.32.83,0,1.15l2.86,3.72v23.26c0,.35.42.54.68.3l10.76-9.74v-13.19h51.39l10.59-9.58c.54-.49.85-1.19.85-1.92v-16.02c0-.69-.27-1.35-.76-1.83l-6.37-6.37c-.49-.49-1.15-.76-1.83-.76m-2.48,25.64h-51.39v-14.69h51.39v14.69Z"/><path class="cls-6" d="m78.94,145.84c-.15,0-.31-.03-.45-.1-.4-.18-.66-.58-.66-1.02v-23.02l-2.69-3.5c-.26-.28-.41-.65-.41-1.04s.14-.76.41-1.04l2.69-3.5v-24.99c0-1.51,1.23-2.74,2.74-2.74h63.27c.88,0,1.71.34,2.34.97l6.37,6.37c.63.63.97,1.45.97,2.34v16.02c0,.93-.4,1.83-1.09,2.45l-10.79,9.77h-50.95v12.79l-11,9.95c-.21.19-.48.29-.75.29m1.62-59.51c-.72,0-1.31.59-1.31,1.31v25.48l-3.07,3.98s-.03.04-.03.07,0,.05.03.07l.06.07,3.01,3.91v22.81l10.01-9.06v-13.58h51.83l10.38-9.4c.39-.35.62-.86.62-1.39v-16.02c0-.5-.2-.97-.55-1.33l-6.37-6.37c-.35-.35-.83-.55-1.33-.55h-63.27Zm61.51,25.64h-52.81v-16.12h52.81v16.12Zm-51.39-1.43h49.96v-13.26h-49.96v13.26Z"/><path class="cls-7" d="m79.06,144.45v-22.99c0-.14-.05-.27-.15-.37l-.02-.03-3-3.89,3.02-3.92c.1-.1.15-.23.15-.37v-25.24c0-.83.67-1.5,1.5-1.5h63.28c.55,0,1.07.22,1.46.61l6.37,6.37c.39.39.61.91.61,1.46v16.02c0,.58-.25,1.14-.68,1.53l-10.44,9.45h-51.18c-.29,0-.52.24-.52.53v12.95l-10.39,9.4Zm.27-23.76c.2.21.31.48.31.76v21.71l9.25-8.37v-12.7c0-.6.49-1.1,1.1-1.1h50.96l10.27-9.3c.31-.28.49-.69.49-1.11v-16.02c0-.4-.16-.77-.44-1.06l-6.37-6.37c-.28-.28-.66-.44-1.06-.44h-63.28c-.51,0-.93.42-.93.93v25.24c0,.29-.11.56-.31.76l-2.72,3.53,2.72,3.53Zm62.03-8.35h-51.39c-.6,0-1.1-.49-1.1-1.1v-14.69c0-.6.49-1.1,1.1-1.1h51.39c.61,0,1.1.49,1.1,1.1v14.69c0,.6-.49,1.1-1.1,1.1m-51.39-16.31c-.29,0-.52.23-.52.52v14.69c0,.29.24.52.52.52h51.39c.29,0,.53-.24.53-.52v-14.69c0-.29-.24-.52-.53-.52h-51.39Z"/><path class="cls-5" d="m141.36,126.04v12.6h-50.73l-11.31,10.24c-.28.25-.1.7.27.7h64.25c.69,0,1.35-.27,1.83-.76l6.37-6.37c.49-.49.76-1.15.76-1.83v-17.08c0-.69-.27-1.35-.76-1.83l-2.53-2.52c-.15-.15-.4-.16-.56-.01l-7.6,6.87Z"/><path class="cls-6" d="m143.84,150.29h-64.25c-.47,0-.88-.28-1.04-.72-.17-.44-.05-.92.29-1.23l11.52-10.42h50.29v-12.2l7.83-7.09c.44-.4,1.12-.38,1.54.04l2.53,2.53c.62.62.97,1.45.97,2.34v17.08c0,.88-.34,1.71-.97,2.34l-6.37,6.37c-.62.63-1.46.97-2.34.97m-63.45-1.43h63.45c.5,0,.97-.2,1.33-.55l6.37-6.37c.35-.35.55-.82.55-1.33v-17.08c0-.5-.2-.97-.55-1.33l-2.32-2.32-7.14,6.46v12.99h-51.17l-10.51,9.52Z"/><path class="cls-7" d="m79.35,121.46c0-.21-.09-.42-.24-.57l-2.86-3.72,2.86-3.72c.15-.15.24-.36.24-.57v-25.24c0-.67.55-1.21,1.21-1.21h63.28c.48,0,.92.18,1.26.52l6.37,6.37c.34.34.52.78.52,1.26v16.02c0,.5-.21.98-.59,1.32l-10.35,9.37h-51.07c-.45,0-.81.36-.81.81v12.83l-9.82,8.89v-22.35Zm10.63-25.71c-.45,0-.81.36-.81.81v14.69c0,.45.36.81.81.81h51.39c.45,0,.81-.36.81-.81v-14.69c0-.45-.36-.81-.81-.81h-51.39Z"/><path class="cls-7" d="m80.64,148.77l10.3-9.32h50.42c.45,0,.81-.36.81-.81v-12.24l7.04-6.37,2.25,2.25c.34.34.52.78.52,1.26v17.08c0,.48-.19.92-.52,1.26l-6.37,6.37c-.34.34-.78.52-1.26.52h-63.2Z"/><path class="cls-7" d="m143.84,149.05h-63.94l10.93-9.9h50.53c.29,0,.52-.24.52-.52v-12.36l7.34-6.64,2.44,2.45c.39.39.61.91.61,1.46v17.08c0,.55-.21,1.07-.61,1.46l-6.37,6.37c-.39.39-.91.61-1.46.61m-62.46-.57h62.46c.4,0,.78-.16,1.06-.44l6.37-6.37c.28-.28.44-.66.44-1.06v-17.08c0-.4-.16-.78-.44-1.06l-2.06-2.06-6.75,6.11v12.11c0,.6-.49,1.1-1.09,1.1h-50.31l-9.67,8.75Z"/><path class="cls-2" d="m88.92,111.43v-13.39h-.59c-.45,0-.81.36-.81.81v14.69c0,.45.36.81.81.81h51.39c.45,0,.81-.36.81-.81v-1.3h-50.8c-.45,0-.81-.36-.81-.81"/><path class="cls-2" d="m151.47,93.32l-6.37-6.37c-.34-.34-.78-.52-1.26-.52h-63.27c-.67,0-1.22.54-1.22,1.21v.9h63.09c.48,0,.92.19,1.26.52l6.37,6.37c.34.34.52.78.52,1.26v15.96l.81-.73c.37-.34.59-.82.59-1.32v-16.02c0-.48-.19-.92-.52-1.26"/><path class="cls-2" d="m87.52,124.12v11.98l1.4-1.26v-11.53h-.59c-.45,0-.81.36-.81.81"/><path class="cls-2" d="m140.21,141.55c.45,0,.81-.36.81-.81v-1.3h-49.83l-10.3,9.32h.93l7.97-7.22h50.42Z"/><path class="cls-2" d="m76.82,117.57l-.29-.38,2.95-3.75v.45c0,.25-.1.49-.28.67l-2.38,3.01Z"/><path class="cls-2" d="m149.21,120.31l-7.04,6.38v.84l5.65-5.11,2.25,2.25c.34.34.52.78.52,1.26v17.08s0,.02,0,.03l.88-.88c.34-.34.52-.78.52-1.26v-17.08c0-.48-.19-.92-.52-1.26l-2.25-2.25Z"/><path class="cls-7" d="m79.06,144.45v-22.99c0-.14-.05-.27-.15-.37l-.02-.03-3-3.89,3.02-3.92c.1-.1.15-.23.15-.37v-25.24c0-.83.67-1.5,1.5-1.5h63.28c.55,0,1.07.22,1.46.61l6.37,6.37c.39.39.61.91.61,1.46v16.02c0,.58-.25,1.14-.68,1.53l-10.44,9.45h-51.18c-.29,0-.52.24-.52.53v12.95l-10.39,9.4Zm.27-23.76c.2.21.31.48.31.76v21.71l9.25-8.37v-12.7c0-.6.49-1.1,1.1-1.1h50.96l10.27-9.3c.31-.28.49-.69.49-1.11v-16.02c0-.4-.16-.77-.44-1.06l-6.37-6.37c-.28-.28-.66-.44-1.06-.44h-63.28c-.51,0-.93.42-.93.93v25.24c0,.29-.11.56-.31.76l-2.72,3.53,2.72,3.53Zm62.03-8.35h-51.39c-.6,0-1.1-.49-1.1-1.1v-14.69c0-.6.49-1.1,1.1-1.1h51.39c.61,0,1.1.49,1.1,1.1v14.69c0,.6-.49,1.1-1.1,1.1m-51.39-16.31c-.29,0-.52.23-.52.52v14.69c0,.29.24.52.52.52h51.39c.29,0,.53-.24.53-.52v-14.69c0-.29-.24-.52-.53-.52h-51.39Z"/><path class="cls-7" d="m143.84,149.05h-63.94l10.93-9.9h50.53c.29,0,.52-.24.52-.52v-12.36l7.34-6.64,2.44,2.45c.39.39.61.91.61,1.46v17.08c0,.55-.21,1.07-.61,1.46l-6.37,6.37c-.39.39-.91.61-1.46.61m-62.46-.57h62.46c.4,0,.78-.16,1.06-.44l6.37-6.37c.28-.28.44-.66.44-1.06v-17.08c0-.4-.16-.78-.44-1.06l-2.06-2.06-6.75,6.11v12.11c0,.6-.49,1.1-1.09,1.1h-50.31l-9.67,8.75Z"/><path class="cls-2" d="m106.43,81.46h-.27c-.45,0-.81.36-.81.81v28.26h1.08v-29.07Z"/><path class="cls-2" d="m133.73,157.95c.33-.33.51-.77.51-1.23v-6.43h-1.11v8.26l.6-.6Z"/><path class="cls-2" d="m106.43,154.84v-32.03h-1.08v33.95c0,.45.36.81.81.81h16.37c.45,0,.81-.36.81-.81v-.83h-15.81c-.6,0-1.1-.49-1.1-1.1"/><path class="cls-2" d="m133.28,76.79l-5.85-5.85c-.21-.21-.48-.35-.76-.41h0c-.08-.02-.15-.02-.23-.02-.02,0-.04,0-.06,0h-6.42c-.06,0-.12,0-.18-.02-.22-.04-.43-.14-.59-.3l-3.47-2.76-3.48,2.76c-.16.16-.37.26-.6.3-.06.01-.12.02-.17.02h-13.44c-.07,0-.14,0-.2.02-.42.09-.73.46-.73.91v1.41c.2-.14.43-.22.69-.22h12.28c.22,0,.43-.09.58-.25l3.67-2.91,3.66,2.91c.15.16.36.25.58.25h6.42c.48,0,.92.18,1.26.52l5.85,5.85c.67.67,1.04,1.57,1.04,2.52v3.39h1.11v-5.79c0-.88-.34-1.7-.96-2.32"/><path class="cls-7" d="m134.53,150.29h-.29v6.43c0,.46-.18.9-.51,1.23l-.6.6-5.62,5.62c-.33.33-.77.51-1.23.51h-6.32c-.29,0-.56.11-.76.31l-3.49,2.67c-.7-.54-3.27-2.51-3.49-2.67-.21-.2-.48-.31-.76-.31h-13.44c-.51,0-.93-.42-.93-.93v-40.95h-.57v40.95c0,.83.67,1.5,1.5,1.5h13.44c.14,0,.27.06.37.16l.03.02q3.75,2.88,3.85,2.88h.1l3.75-2.88.03-.02c.1-.1.23-.16.37-.16h6.32c.62,0,1.2-.24,1.63-.67l6.23-6.23c.44-.44.68-1.02.68-1.63v-6.43h-.29Z"/><path class="cls-7" d="m124.61,84.9h.38v-4.55c0-.6-.49-1.09-1.1-1.09h-16.37c-.6,0-1.1.49-1.1,1.09v30.19h.57v-30.19c0-.29.23-.52.52-.52h16.37c.29,0,.53.24.53.52v4.55h.19Z"/><path class="cls-7" d="m133.68,76.38l-5.85-5.85c-.39-.39-.91-.6-1.46-.6h-6.42c-.14,0-.28-.06-.38-.16l-3.87-3.07-3.85,3.05-.03.03c-.1.1-.24.16-.38.16h-13.44c-.83,0-1.5.67-1.5,1.5v39.1h.57v-39.1c0-.44.31-.81.73-.91.07-.01.13-.02.2-.02h13.44c.06,0,.12,0,.17-.02.22-.04.43-.14.6-.3l3.48-2.76,3.47,2.76c.16.16.37.26.6.3.06.01.11.02.17.02h6.42s.04,0,.06,0c.08,0,.16,0,.23.02h0c.29.06.55.2.76.41l5.85,5.85c.62.62.96,1.44.96,2.32v5.79h.57v-5.79c0-1.03-.4-2-1.13-2.73"/><path class="cls-7" d="m106.43,154.84c0,.61.49,1.1,1.1,1.1h16.37c.6,0,1.1-.49,1.1-1.1v-4.55h-.57v4.55c0,.29-.24.53-.53.53h-16.37c-.29,0-.52-.24-.52-.53v-32.03h-.57v32.03Z"/><path class="cls-6" d="m123.9,79.83h-16.37c-.29,0-.52.24-.52.52v30.19h1.24v-29.47h14.94v3.84h1.24v-4.55c0-.29-.24-.52-.53-.52"/><path class="cls-6" d="m123.9,150.29h-.71v3.83h-14.94v-31.32h-1.24v32.03c0,.29.23.53.52.53h16.37c.29,0,.52-.24.52-.53v-4.55h-.52Z"/><polygon class="cls-6" points="123.9 97.27 123.18 97.27 123.18 137.92 123.9 137.92 124.42 137.92 124.42 97.27 123.9 97.27"/><path class="cls-6" d="m135.34,150.29h-.52v6.43c0,.62-.24,1.2-.68,1.63l-6.23,6.23c-.44.44-1.02.67-1.63.67h-6.32c-.14,0-.27.06-.37.16l-.03.02-3.75,2.88h-.1q-.1,0-3.85-2.88l-.03-.02c-.1-.1-.23-.16-.37-.16h-13.44c-.83,0-1.5-.67-1.5-1.5v-40.95h-1.24v40.95c0,1.51,1.23,2.74,2.74,2.74h13.21l3.45,2.46c.29.27.66.4,1.03.4s.74-.13,1.03-.4l3.45-2.46h6.09c.95,0,1.84-.37,2.51-1.04l6.23-6.23c.67-.67,1.04-1.56,1.04-2.51v-6.43h-.71Z"/><path class="cls-6" d="m134.56,75.51l-5.85-5.85c-.62-.62-1.46-.97-2.34-.97h-6.17l-3.45-2.73c-.59-.55-1.5-.55-2.09,0l-3.45,2.73h-13.19c-1.51,0-2.74,1.23-2.74,2.74v39.1h1.24v-39.1c0-.83.67-1.5,1.5-1.5h13.44c.14,0,.28-.06.37-.16l.03-.02,3.85-3.05,3.86,3.07c.1.1.23.16.37.16h6.42c.55,0,1.07.21,1.46.61l5.85,5.85c.73.73,1.13,1.7,1.13,2.72v5.79h1.24v-5.79c0-1.36-.53-2.64-1.49-3.6"/><polygon class="cls-6" points="135.34 97.27 134.81 97.27 134.81 137.92 135.34 137.92 136.05 137.92 136.05 97.27 135.34 97.27"/><path class="cls-7" d="m123.9,155.94h-.56v.83c0,.45-.36.81-.81.81h-16.37c-.45,0-.81-.36-.81-.81v-33.95h-8.26v40.95c0,.51.42.93.93.93h13.44c.29,0,.56.11.76.31.21.16,2.79,2.14,3.49,2.67l3.49-2.67c.21-.2.47-.31.76-.31h6.32c.46,0,.9-.18,1.23-.51l5.62-5.62v-8.26h-8.13v4.55c0,.61-.49,1.1-1.1,1.1"/><path class="cls-7" d="m132.08,78.98l-5.85-5.85c-.34-.34-.78-.52-1.26-.52h-6.42c-.22,0-.43-.09-.58-.24l-3.66-2.91-3.68,2.91c-.15.16-.36.24-.58.24h-12.28c-.26,0-.5.08-.69.22v37.7h8.26v-28.26c0-.45.36-.81.81-.81h.27v-1.11c0-.6.49-1.1,1.1-1.1h16.37c.6,0,1.1.49,1.1,1.1v4.55h8.13v-3.39c0-.95-.37-1.85-1.04-2.52"/><rect class="cls-7" x="125" y="97.27" width="8.13" height="40.64"/><rect class="cls-2" x="133.13" y="97.27" width="1.11" height="40.64"/><polygon class="cls-7" points="124.71 97.27 124.61 97.27 124.42 97.27 124.42 137.92 124.61 137.92 124.71 137.92 125 137.92 125 97.27 124.71 97.27"/><polygon class="cls-7" points="134.62 97.27 134.53 97.27 134.24 97.27 134.24 137.92 134.53 137.92 134.62 137.92 134.81 137.92 134.81 97.27 134.62 97.27"/><path class="cls-6" d="m115.53,59.97l-3.89,2.75c-.18.13-.43-.05-.36-.26l1.47-4.46c.03-.1,0-.2-.08-.26l-3.83-2.84c-.18-.13-.08-.42.14-.42h4.7c.1,0,.19-.06.22-.16l1.51-4.5c.07-.21.37-.21.44,0l1.47,4.49c.03.1.12.16.22.16h4.84c.23,0,.32.29.14.42l-3.96,2.84c-.08.06-.12.17-.08.27l1.57,4.48c.08.21-.17.4-.36.27l-3.89-2.77c-.08-.06-.19-.06-.27,0"/><polygon class="cls-3" points="121.21 55.08 116.93 55.08 115.62 51.09 114.28 55.08 110.12 55.08 113.53 57.6 112.22 61.56 115.66 59.12 119.08 61.56 117.69 57.6 121.21 55.08"/><path class="cls-7" d="m119.46,62.07l-3.8-2.7-3.81,2.69,1.44-4.38-3.76-2.79h4.61l1.48-4.41,1.44,4.41h4.74l-3.89,2.79,1.54,4.39Zm-8.75-6.79l3.05,2.26-1.16,3.53,3.07-2.17,3.03,2.15-1.23-3.51,3.15-2.26h-3.82l-1.17-3.57-1.2,3.57h-3.71Z"/></svg>