<?xml version="1.0" encoding="utf-8"?>
<!-- Generator: Adobe Illustrator 27.9.4, SVG Export Plug-In . SVG Version: 9.03 Build 54784)  -->
<svg version="1.1" id="Layer_1" xmlns="http://www.w3.org/2000/svg" xmlns:xlink="http://www.w3.org/1999/xlink" x="0px" y="0px"
	 viewBox="0 0 349.4 349.4" style="enable-background:new 0 0 349.4 349.4;" xml:space="preserve">
<style type="text/css">
	.st0{fill:#FFFFFF;}
	.st1{fill:#490000;}
	.st2{fill:#BB1237;}
	.st3{fill:#FFD400;}
	.st4{fill:#6D6E71;}
</style>
<g>
	<path class="st0" d="M145,198.8c-16.9-8.4-29.7-23.7-35.2-43.2c-1.3-4.8-2.3-10-2.6-15.1c-0.1-1.2-0.1-1.9-0.1-3.1
		c0-1.6,0.1-3.4,0.2-5c0.6-8.8,2.9-17.1,6.5-24.7c4.1-8.7,9.8-16.5,16.9-22.8c5.8-5.1,12.5-9.2,19.8-12.1c7.2-2.9,15-4.7,23.2-5.1
		c0.4,0,0.9-0.1,1.3-0.1c0.5,0,1.1,0,1.6,0s1.1,0,1.6,0c0.5,0,1,0.1,1.5,0.1c6.9,0.3,13.6,1.7,19.8,3.9c6.1,2.1,11.8,5,17,8.6
		c0.5,0.3,1,0.6,1.4,1c0.9,0.6,1.6,1.2,2.5,1.9c0.4,0.3,0.8,0.7,1.2,1.1c6.2,5.3,11.4,11.7,15.4,18.9c0,0-9.3-8.5-25.1-4
		c0,0,28.3,10.8,32.9,26.6c0,0-10.5-14.2-26.2-12.8c0,0,25.4,23.2,25.1,42.6l-2.1,13.3l-7.9-6.3l3.2,9.5L145,198.8L145,198.8z"/>
	<path class="st1" d="M241.6,168.9c-3.9-29.4-23.8-40-32.6-42.6c14.8,8.3,23.1,22.4,24.2,32.1c-3.4-7.7-9.3-14.2-19-16.1
		c10.7,6.7,14.2,14.7,15.7,23.2c-9.1-15.5-28.6-21.3-45.2-18.2c0,0,8.4-5.2,15.6-4.9c-0.5-4.1-11.9-3.5-22.5-6.5
		c-9-2.6-10.8-7.2-11.2-10.1c1.4,2.2,5.9,4,10.7,3.5c4.3-0.5,8.9-3.1,9.1-9.4c0,0,5.4-2.5,6.6-4.9c-1.4,1.2-17.5,5.1-27.6,5.8
		c-3.6,0-4.4-3.4-9.4-2.3c0-2.3,1.6-5,4.2-6.8c14-9.4,36.8-0.4,52.8,10.5c0,0-14.3-14.6-31.7-17.9c-19-3.6-31,6.3-29.4,15.7
		c-7.7,1.9-15.6,9.2-13.2,17.1c2.5,8.3,9,11.3,9,11.3c-4.5-7.2,9.8-13.5,28.6-7.2c-6.5-1.3-27.4-1.4-25.1,7.3
		c3.2-2.3,11.2-0.6,13.5,6.7c3.9,12.5-4.3,34-21.2,43.5c9.9,5.4,21.2,8.4,33.3,8.4c4.8,0,9.6-0.5,14.1-1.4l4.8-1.3
		c-1.3-3.6-3.7-6.3-12.1-8.9c19.5-1.2,25.4,17.9,25.4,17.9c8.2-3.7,12.2-11.1,11.6-19.6l9.9,9.4c2.8-6.1,3.3-19.3-1.4-27.9l8.1,9.2
		c0.5-5.6,0.2-13.3-2.4-19.8L241.6,168.9L241.6,168.9z"/>
	<path class="st0" d="M170.5,123.7c3.6-0.5,7.2-1.4,9.8-2.2c-0.8,1.9-3.3,3.7-6,3.9L170.5,123.7z"/>
	<path class="st2" d="M200.2,142.4c-7.1-0.2-15.6,4.9-15.6,4.9c16.6-3.2,36.1,2.7,45.2,18.2c-1.5-8.5-5.1-16.6-15.7-23.2
		c9.7,1.9,15.6,8.4,19,16.1c-1.1-9.7-9.4-23.8-24.1-32.1c0,0,0,0,0,0l0,0c3.3,1,8,3.1,12.9,6.7c-2.8-4.2-6-7.9-9.3-11
		c-0.3-0.2-0.5-0.4-0.8-0.5c-0.2-0.1-0.3-0.2-0.5-0.3c-2-1.3-4.1-2.6-6.3-3.8c-15.9-6.8-26.4-7.9-33.8-7.1
		c-6.2,0.7-11.5,3.3-12.5,8.1c2.6,0.5,3.7,2.4,6.5,2.4c10.1-0.7,26.2-4.6,27.6-5.8c-1.2,2.4-6.6,4.9-6.6,4.9
		c-0.2,6.2-4.7,8.9-9.1,9.4c-4.9,0.6-9.3-1.3-10.7-3.5c0.4,2.9,2.2,7.5,11.2,10.1C188.3,138.9,199.7,138.3,200.2,142.4L200.2,142.4z
		"/>
	<path class="st2" d="M186.5,191c17.8-0.7,25.9,5.3,25.6,15.2C224.6,192,203.6,184.4,186.5,191z"/>
	<path class="st2" d="M182.9,160.2c25,1.4,32.6,15.4,32.6,15.4s-17.7-4.4-33.9,12.8c23.4-10.6,39.4-2.9,46.8,5.2
		c-2.2-25.7-20.7-32.8-20.7-32.8s10.2-0.1,22.6,10.2C221.1,152.4,193.5,151.8,182.9,160.2L182.9,160.2z"/>
	<path class="st2" d="M147.7,148.4c0-3.2,2.9-3.9,4.9-4.3c4.6-4.2,18.6-3.9,23.7-2.8C157.4,134.9,143.2,141.2,147.7,148.4
		L147.7,148.4z"/>
	<path class="st3" d="M225,117.2c10.1,1.2,16.5,4.7,20.3,9.5c-3.9-19.2-18.4-25.8-32.7-27.4c8.1-1,17.4-0.3,25,4.2
		c-4.3-7.8-10.1-14.7-17-20.3c-7.7,6.8-13.3,17-16.6,27.8c10.7,7.2,17.6,16.1,20.5,20.7c5.8,4.8,14.5,11.6,19.4,23.9
		c0.5-1.9,1-3.8,1.3-5.8C246.9,135.5,240,122.3,225,117.2L225,117.2z"/>
	<path class="st3" d="M152.3,109c4.5-5.3,12.2-8.4,21.2-8.4c0.5,0,1.1,0,1.6,0v-33c-15.9,0.4-30.4,6-41.9,15.3
		c6.6,7.1,13,17.4,17,29.3C150.8,111.1,151.5,110,152.3,109L152.3,109z"/>
	<path class="st3" d="M201.1,109.2c3.9-11.8,10.2-21.7,17-27.9c-11.2-8.3-24.9-13.3-39.8-13.6v33.2c1.2,0.1,2.3,0.3,3.5,0.6
		C189.1,103,195.5,105.8,201.1,109.2L201.1,109.2z"/>
	<path class="st3" d="M137.2,127.3c2.3-4,6.6-7.5,11.4-9.4c-3.5-13.2-10.4-25.1-17.8-33c-14.5,12.7-23.6,31.4-23.6,52.2
		c0,0.1,0,0.2,0,0.3h28.5C134.7,134.1,135.3,130.5,137.2,127.3L137.2,127.3z"/>
	<path class="st3" d="M154.9,150.6c-2.3,0-4.2,1.3-4.9,2.5c-3.1-1.3-9.4-4.7-13.1-12.5h-29.7c1.1,22.5,12.8,42.1,30.3,54.1
		c9.2-5.3,28.6-19,24.4-38.4C161,152.2,157.7,150.6,154.9,150.6L154.9,150.6z"/>
	<path class="st3" d="M154.3,128.9c1.9-0.8,4.5-1.3,8.4-0.5c0,0-0.9-1-1.2-2.6C161.5,125.8,156.5,126.7,154.3,128.9L154.3,128.9z"/>
	<path class="st3" d="M160.1,111.6c-2.6,1.7-4.2,4.4-4.2,6.8c1.2-0.2,2.1-0.2,2.9-0.1c1-4.8,6.2-7.4,12.5-8
		c7.3-0.8,17.9,0.3,33.8,7.1C190.1,108.9,172,103.7,160.1,111.6L160.1,111.6z"/>
	<path class="st1" d="M349.4,238.7l-6.2-14.7H179h0l-19.4,2.3l-11.2-2.3h-26.2l-11.6,9.7l-0.2-9.6H75.5l-9.3,9l-3.8-9h-53l6.4,12.3
		l-6.3,11.2l7.9,9.4L0,265.2l6.2,14.7h35.4l25.2-2.5l7.4-8.9l17.1,8.7l0.1,0.1l16.1,2.8l18.4-3.7l2.4-5.4l33.1,8.9h61.8l17.3-3.8
		l2.1-4.7l44.8,10.4l2-1.9h34.2l16.7-19.3l-6-14.6L349.4,238.7L349.4,238.7z"/>
	<polygon class="st3" points="50.3,246.1 30.6,246.1 28.2,243.2 31.6,237.2 52.3,237.2 50.1,244.2 64.8,237.2 60.5,227 14.4,227 
		19.2,236.3 19.3,236.2 13.2,247.1 20.9,256.2 40.6,256.2 41.8,259.1 35.2,266.8 16.4,266.6 18.6,259.6 3.9,266.7 8.2,276.8 
		41.4,276.8 56,260 	"/>
	<polygon class="st3" points="331.1,246.1 311.4,246.1 309,243.2 312.4,237.2 333.1,237.2 330.9,244.2 345.5,237.2 341.2,227 
		295.2,227 300,236.3 300.1,236.2 294,247.1 301.7,256.2 321.4,256.2 322.6,259.1 316,266.8 297.1,266.6 299.3,259.6 284.7,266.7 
		289,276.8 322.2,276.8 336.8,260 	"/>
	<polygon class="st3" points="224.4,237.4 233.4,227 182.8,227 186.9,236.2 168.4,276.8 209.7,276.8 218.9,266.5 187.2,266.5 
		200,237.4 	"/>
	<polygon class="st3" points="217.6,256.5 222.4,246.2 206,246.2 194.4,256.5 	"/>
	<polygon class="st3" points="177.6,227 160.2,229.6 147.1,244 134.1,254.4 144.1,254.4 153.3,274.1 167.1,277.6 155.6,251.5 	"/>
	<polygon class="st3" points="122.5,227 127.1,235.8 108.4,276.8 123.8,273.7 144.7,227 	"/>
	<polygon class="st3" points="292,227 237.1,227 241.6,235.8 222.9,276.8 238.3,273.5 254.7,236.8 273.7,236.8 267.7,246.8 
		260.5,246.8 248.9,257.1 262.9,257.1 270,274.1 286.1,277.9 275.3,252.5 285.3,241.5 	"/>
	<polygon class="st3" points="79.8,227 83.7,234.5 46.9,276.8 65.3,274.5 94,241.3 94,254.9 88.2,254.9 76.6,265.3 94,265.3 
		94,274.6 107.5,276.8 107.5,227 	"/>
	<polygon class="st4" points="79.4,201.2 64.7,201.2 64.7,176.4 57.6,176.4 57.6,207.2 79.4,207.2 	"/>
	<path class="st4" d="M95.5,207.7c4.8,0,9.5-1.2,12-3v-15H95.1v5.8h5.8v5.4c-1.1,0.4-3.2,0.8-5.1,0.8c-6.4,0-8.5-3.3-8.5-9.9
		c0-6.6,2-10,8.4-10c3.6,0,5.6,1.1,7.3,3.2l4.4-4.1c-2.7-3.9-7.4-5-11.8-5c-10,0-15.2,5.4-15.2,15.8C80.3,202.1,85,207.7,95.5,207.7
		"/>
</g>
</svg>
