<?xml version="1.0" encoding="UTF-8"?><svg id="Layer_1" xmlns="http://www.w3.org/2000/svg" xmlns:xlink="http://www.w3.org/1999/xlink" viewBox="0 0 283.73 276.06"><defs><style>.cls-1{fill:url(#linear-gradient-12);}.cls-1,.cls-2,.cls-3,.cls-4,.cls-5,.cls-6,.cls-7,.cls-8,.cls-9,.cls-10,.cls-11,.cls-12,.cls-13,.cls-14,.cls-15,.cls-16,.cls-17,.cls-18,.cls-19{stroke-width:0px;}.cls-2{fill:url(#linear-gradient);}.cls-3{fill:url(#linear-gradient-6);}.cls-4{fill:url(#linear-gradient-11);}.cls-5{fill:url(#linear-gradient-5);}.cls-20,.cls-21{stroke:#fff;stroke-linejoin:round;stroke-width:82.14px;}.cls-20,.cls-7{fill:#fff;}.cls-6{fill:url(#linear-gradient-13);}.cls-21,.cls-11{fill:#e0002b;}.cls-8{fill:url(#linear-gradient-14);}.cls-9{fill:url(#linear-gradient-2);}.cls-10{fill:url(#linear-gradient-7);}.cls-12{fill:url(#linear-gradient-3);}.cls-13{fill:url(#linear-gradient-9);}.cls-14{fill:#eeeeef;}.cls-15{fill:#a6a6a6;}.cls-16{fill:url(#linear-gradient-8);}.cls-17{fill:#170b0b;}.cls-18{fill:url(#linear-gradient-10);}.cls-19{fill:url(#linear-gradient-4);}</style><linearGradient id="linear-gradient" x1="-2840.44" y1="-1650.11" x2="-2840.44" y2="-1763.05" gradientTransform="translate(1762.93 1155.33) scale(.6)" gradientUnits="userSpaceOnUse"><stop offset="0" stop-color="#f4a100"/><stop offset=".4" stop-color="#ee8000"/><stop offset="1" stop-color="#e0002b"/></linearGradient><linearGradient id="linear-gradient-2" x1="-2796.17" y1="-1654.29" x2="-2796.17" y2="-1730.63" xlink:href="#linear-gradient"/><linearGradient id="linear-gradient-3" x1="-2696.87" y1="-1646.98" x2="-2696.87" y2="-1736.65" xlink:href="#linear-gradient"/><linearGradient id="linear-gradient-4" x1="-2744.06" y1="-1655.32" x2="-2744.06" y2="-1733.25" xlink:href="#linear-gradient"/><linearGradient id="linear-gradient-5" x1="-2730.14" y1="-1655.33" x2="-2730.14" y2="-1733.26" xlink:href="#linear-gradient"/><linearGradient id="linear-gradient-6" x1="4.7" y1="191.89" x2="50.29" y2="102.18" gradientTransform="matrix(1,0,0,1,0,0)" xlink:href="#linear-gradient"/><linearGradient id="linear-gradient-7" x1="-2732.93" y1="-1649.55" x2="-2732.93" y2="-1729.6" xlink:href="#linear-gradient"/><linearGradient id="linear-gradient-8" x1="-2627.1" y1="-1658.69" x2="-2627.1" y2="-1750.56" xlink:href="#linear-gradient"/><linearGradient id="linear-gradient-9" x1="-2846.24" y1="-1644.19" x2="-2846.24" y2="-1760.21" xlink:href="#linear-gradient"/><linearGradient id="linear-gradient-10" x1="-2800.76" y1="-1648.49" x2="-2800.76" y2="-1726.9" xlink:href="#linear-gradient"/><linearGradient id="linear-gradient-11" x1="-2520.46" y1="-1668.89" x2="-2520.46" y2="-1750.01" xlink:href="#linear-gradient"/><linearGradient id="linear-gradient-12" x1="-2698.76" y1="-1640.97" x2="-2698.76" y2="-1733.09" xlink:href="#linear-gradient"/><linearGradient id="linear-gradient-13" x1="-2564.74" y1="-1661.92" x2="-2564.74" y2="-1742.5" xlink:href="#linear-gradient"/><linearGradient id="linear-gradient-14" x1="-2747.23" y1="-1649.55" x2="-2747.23" y2="-1729.6" xlink:href="#linear-gradient"/></defs><path class="cls-21" d="m242.41,138.04c0,53.56-43.27,96.96-96.62,96.96s-96.62-43.4-96.62-96.96,43.27-96.97,96.62-96.97,96.62,43.4,96.62,96.97Z"/><path class="cls-20" d="m145,71.92c-36.52,0-66.11,29.61-66.11,66.12s29.59,66.11,66.11,66.11,66.11-29.6,66.11-66.11-29.61-66.12-66.11-66.12Z"/><path class="cls-20" d="m85.49,87.06c.53.43.91.92,1.11,1.47.22.56.25,1.15.11,1.75-.14.61-.44,1.22-.89,1.8-.12.17-.3.34-.49.57-.21.22-.52.48-.93.78-.41.31-.88.6-1.42.85l-2.13-1.65c.58-.19,1.11-.4,1.58-.64.48-.25.89-.58,1.24-1.02.3-.4.44-.72.38-.95-.07-.23-.15-.4-.28-.5-.23-.18-.5-.23-.83-.16-.32.08-.72.25-1.2.5-.53.27-1.03.48-1.52.62-.5.14-1,.17-1.52.1-.51-.07-1.01-.3-1.49-.68-.46-.36-.82-.8-1.04-1.31-.22-.49-.27-1.04-.16-1.65.11-.6.39-1.2.86-1.81.34-.43.71-.81,1.08-1.1.39-.3.73-.53,1.04-.68.3-.15.53-.24.64-.27l2.06,1.59c-.51.12-1.01.3-1.53.54-.51.24-.93.58-1.28,1.03-.22.29-.33.56-.31.79.03.23.14.41.31.56.17.13.37.18.59.14.24-.03.58-.14,1.02-.35.78-.35,1.44-.61,1.97-.78.53-.17,1.04-.23,1.53-.18.49.05.98.27,1.47.65Z"/><path class="cls-20" d="m94.43,82.41l-5.26,5.31-7.83-7.75,5.16-5.22,1.58,1.55-3.07,3.1,1.45,1.44,2.92-2.96,1.59,1.56-2.93,2.95,1.66,1.65,3.16-3.18,1.57,1.56Z"/><path class="cls-20" d="m100.52,70.59c.63.82,1.02,1.7,1.22,2.65.19.94.1,1.88-.26,2.79-.36.91-1.02,1.74-1.98,2.48-.97.74-1.96,1.15-2.95,1.26-1,.09-1.92-.08-2.77-.51-.85-.44-1.58-1.05-2.18-1.83-.6-.79-1-1.64-1.2-2.59-.2-.92-.11-1.86.25-2.8.35-.93,1.02-1.76,1.99-2.51.73-.56,1.46-.94,2.21-1.14.75-.19,1.48-.22,2.15-.1.68.13,1.33.4,1.94.8.6.4,1.14.9,1.59,1.5Zm-2.43,1.86c-.24-.33-.52-.59-.81-.8-.3-.2-.61-.34-.94-.4-.33-.06-.66-.05-1,.02-.34.09-.67.26-1.01.5-.65.48-.98,1.08-1.04,1.77-.04.69.2,1.38.71,2.04.52.67,1.12,1.07,1.79,1.21.68.13,1.35-.04,1.97-.52.43-.35.74-.72.89-1.15.16-.42.19-.86.08-1.33-.09-.45-.31-.9-.66-1.34Z"/><path class="cls-20" d="m111.75,65.06c.45.83.7,1.61.74,2.35.03.73-.09,1.4-.36,1.98-.28.6-.64,1.1-1.1,1.55-.46.43-.94.79-1.46,1.07-.74.4-1.53.65-2.37.75-.86.09-1.7-.07-2.53-.49-.84-.42-1.55-1.16-2.12-2.24l-2.88-5.35,2.62-1.41,2.47,4.59c.35.65.71,1.13,1.1,1.45.39.33.79.51,1.19.54.4.04.8-.05,1.21-.28.38-.2.66-.48.87-.84.2-.34.25-.77.21-1.28-.06-.5-.26-1.07-.61-1.71l-2.48-4.61,2.64-1.42,2.87,5.35Z"/><path class="cls-20" d="m123.09,66.09l-7.06,2.59-3.78-10.34,2.8-1.02,2.88,7.86,4.25-1.56.91,2.48Z"/><path class="cls-20" d="m135.27,60.27c.13.67.07,1.3-.15,1.84-.24.55-.6,1.01-1.11,1.36-.51.37-1.13.6-1.86.73-.19.04-.44.06-.75.09-.3.03-.7.02-1.21-.04-.5-.05-1.04-.15-1.62-.31l-.46-2.66c.55.26,1.09.45,1.61.59.51.14,1.05.17,1.6.07.49-.09.8-.23.92-.45.11-.21.16-.4.13-.56-.03-.29-.22-.52-.5-.67-.3-.17-.69-.31-1.21-.43-.57-.15-1.1-.35-1.55-.58-.46-.22-.85-.54-1.18-.94-.34-.4-.56-.9-.65-1.5-.11-.59-.06-1.14.12-1.65.17-.52.49-.96.99-1.33.47-.37,1.09-.62,1.85-.76.56-.1,1.06-.12,1.55-.09.49.04.89.11,1.21.2.33.1.55.17.69.24l.44,2.54c-.46-.25-.95-.46-1.48-.62-.54-.17-1.08-.21-1.64-.12-.36.07-.62.2-.76.38-.13.18-.17.4-.14.62.04.22.15.39.34.52.19.12.52.26.98.42.82.26,1.48.5,1.98.74.51.24.92.53,1.25.9.32.37.54.86.64,1.47Z"/><path class="cls-20" d="m147.96,62.8l-3.63.14-3.98-5.01.2,5.14-3,.11-.4-11,2.99-.11.17,4.92,3.42-5.04,3.24-.12-3.49,5.28,4.49,5.69Z"/><path class="cls-20" d="m163.88,65.14l-3.59-.64-2.83-5.74-.91,5.08-2.93-.51,1.93-10.84,2.93.51-.85,4.85,4.39-4.23,3.2.57-4.54,4.43,3.21,6.52Z"/><path class="cls-20" d="m174.75,68.89l-2.52-.88-2.83-7.48-2.01,5.79-2.81-.97,3.63-10.4,2.5.87,2.83,7.44,2.01-5.75,2.83.98-3.62,10.4Z"/><path class="cls-20" d="m179.4,71.28l-2.68-1.31,4.86-9.88,2.68,1.31-4.86,9.87Z"/><path class="cls-20" d="m189.47,76.41c-.23-.04-.42-.08-.58-.11-.18-.03-.31-.07-.47-.1-.14-.04-.35-.09-.6-.17-.46-.14-.88-.31-1.3-.5-.41-.19-.82-.41-1.25-.69-.85-.54-1.53-1.2-2.03-2-.5-.8-.75-1.7-.71-2.7.03-1,.36-2.03,1.03-3.08.44-.68.97-1.26,1.61-1.79.64-.5,1.31-.82,2.03-.92.59-.09,1.12-.1,1.62-.02.5.07.95.19,1.35.38.41.17.84.4,1.28.68.74.46,1.31.91,1.72,1.34.4.42.82.91,1.26,1.49l-1.39,2.19c-.23-.49-.5-.94-.81-1.38-.33-.43-.79-.85-1.44-1.25-.72-.46-1.41-.68-2.04-.64-.63.02-1.16.2-1.61.52-.44.31-.78.68-1.04,1.08-.3.47-.47.96-.53,1.48-.05.52.04,1.03.29,1.53.26.49.65.91,1.22,1.27.32.2.7.37,1.13.5l.69-1.09-1.13-.72,1.18-1.88,3.34,2.12-2.84,4.48Z"/><path class="cls-20" d="m198.38,85.01l-2.24-1.97,2.83-3.23-3.39-2.96-2.82,3.23-2.25-1.97,7.26-8.29,2.24,1.98-2.67,3.03,3.39,2.97,2.65-3.04,2.24,1.96-7.26,8.29Z"/><path class="cls-20" d="m211.98,88.1l-2.34-2.77-6.36,5.38-1.93-2.28,6.36-5.38-2.34-2.77,2.04-1.73,6.63,7.82-2.05,1.74Z"/><path class="cls-20" d="m212.51,98.27c-.58.37-1.16.57-1.76.58-.58.01-1.14-.15-1.68-.48-.54-.33-1.01-.8-1.42-1.41-.1-.18-.24-.4-.37-.67-.15-.26-.29-.63-.45-1.11-.16-.49-.27-1.03-.35-1.62l2.25-1.48c0,.62.01,1.18.1,1.71.08.54.27,1.02.57,1.49.29.43.54.65.79.67.23.02.41,0,.56-.1.24-.16.38-.4.42-.73.03-.33,0-.76-.1-1.28-.08-.6-.1-1.15-.08-1.66.02-.5.15-.99.38-1.45.24-.46.62-.87,1.14-1.2.48-.34,1.01-.51,1.55-.56.54-.04,1.09.09,1.62.38.55.3,1.02.77,1.44,1.42.3.46.54.92.69,1.38.16.46.26.86.3,1.19.05.34.05.57.05.72l-2.15,1.41c.04-.52.04-1.05-.02-1.61-.07-.55-.24-1.07-.54-1.55-.22-.32-.43-.49-.66-.54-.21-.06-.42-.01-.63.1-.18.12-.29.3-.34.53-.04.23-.04.58,0,1.07.09.86.12,1.55.11,2.11-.02.56-.14,1.05-.33,1.49-.21.45-.58.84-1.09,1.19Z"/><path class="cls-20" d="m83.8,194.96c-.72.61-1.49.87-2.29.78-.81-.09-1.55-.54-2.22-1.34l-3.66-4.41,8.48-7.04,3.07,3.69c.39.48.69.93.88,1.38.2.43.29.83.29,1.2s-.07.7-.22,1c-.16.31-.38.59-.66.82-.32.26-.64.44-1,.56-.36.1-.68.14-.99.13-.31-.03-.57-.09-.77-.2.2.71.25,1.35.13,1.9-.14.57-.47,1.08-1.03,1.53Zm-1.81-2.39c.74-.6.7-1.37-.09-2.32l-.76-.95-2.18,1.8.78.94c.78.95,1.54,1.12,2.25.53Zm3.23-3.3c.41-.34.58-.69.51-1.04-.05-.36-.31-.8-.73-1.32l-.39-.48-2.04,1.69.41.5c.43.53.82.86,1.15.98.34.12.7.01,1.11-.33Z"/><path class="cls-20" d="m91.18,206.11l-2.25-2.06.89-2.2-3.17-2.89-2.12,1.1-2.26-2.06,10.66-5.19,2.46,2.23-4.2,11.07Zm-.57-6.13l1.63-3.95-3.79,1.98,2.16,1.97Z"/><path class="cls-20" d="m100.08,208.35c-.4.57-.87.96-1.42,1.2-.57.23-1.14.29-1.77.17-.6-.12-1.22-.38-1.82-.8-.15-.12-.37-.27-.6-.46-.22-.2-.5-.5-.82-.89-.34-.39-.64-.85-.93-1.37l1.56-2.2c.2.56.45,1.08.72,1.54.26.47.62.87,1.07,1.18.41.3.74.41.98.34.23-.06.39-.16.48-.3.17-.24.21-.52.12-.83-.1-.32-.29-.71-.56-1.17-.3-.52-.54-1.02-.69-1.5-.17-.48-.23-.98-.18-1.5.05-.52.26-1.03.61-1.53.35-.49.75-.86,1.25-1.09.49-.24,1.05-.33,1.64-.25.6.08,1.23.35,1.86.79.46.32.83.66,1.15,1.02.33.37.57.71.73,1,.16.3.26.51.32.65l-1.49,2.11c-.14-.49-.35-.99-.62-1.49-.25-.5-.62-.91-1.08-1.23-.31-.21-.58-.31-.8-.27-.24.03-.42.14-.55.33-.12.19-.16.38-.12.61.05.23.19.55.4,1,.4.76.69,1.4.88,1.93.19.52.27,1.02.24,1.51-.03.49-.22.99-.57,1.49Z"/><path class="cls-20" d="m109.65,217.28l-3.23-1.71-.94-6.32-2.41,4.54-2.64-1.4,5.15-9.73,2.64,1.4-2.32,4.36,5.48-2.68,2.88,1.52-5.67,2.83,1.05,7.19Z"/><path class="cls-20" d="m118.42,220.52l-7-2.6,3.86-10.33,6.89,2.56-.77,2.08-4.09-1.52-.71,1.89,3.9,1.45-.77,2.07-3.9-1.44-.82,2.19,4.19,1.57-.78,2.07Z"/><path class="cls-20" d="m132.58,215.43l-3.54-.8-1.83,8.13-2.92-.66,1.85-8.13-3.54-.81.59-2.6,9.99,2.26-.59,2.61Z"/><path class="cls-20" d="m142.64,221.56c-.1.94-.46,1.67-1.08,2.19-.63.52-1.46.72-2.5.63l-5.7-.48.93-10.96,4.77.4c.61.05,1.14.16,1.59.33.45.17.81.38,1.06.65.25.25.44.54.56.85.11.33.16.67.11,1.05-.02.4-.12.77-.29,1.1-.18.33-.38.59-.61.78-.22.21-.46.34-.68.42.65.35,1.13.76,1.45,1.25.31.47.44,1.08.39,1.79Zm-2.98-.39c.08-.94-.49-1.47-1.73-1.56l-1.21-.11-.24,2.8,1.21.11c1.24.1,1.87-.31,1.96-1.24Zm-.1-4.61c.05-.53-.08-.9-.37-1.09-.31-.2-.78-.33-1.47-.39l-.62-.06-.22,2.63.65.05c.67.06,1.18.01,1.49-.13.32-.14.5-.49.55-1.02Z"/><path class="cls-20" d="m155.75,224.14l-3.05.16-.92-2.19-4.3.23-.69,2.28-3.07.16,3.78-11.23,3.3-.17,4.95,10.76Zm-4.76-3.9l-1.66-3.93-1.25,4.09,2.91-.16Z"/><path class="cls-20" d="m165.02,222.36l-7.39,1.39-2.03-10.83,2.93-.54,1.54,8.22,4.45-.83.49,2.59Z"/><path class="cls-20" d="m174.46,219.54l-7.18,2.22-3.25-10.51,2.85-.88,2.48,8,4.33-1.34.77,2.52Z"/><path class="cls-20" d="m187.69,212.53c-.25.4-.56.76-.87,1.08-.32.32-.65.61-1.03.86-.36.25-.74.48-1.16.69-.77.39-1.52.62-2.25.69-.73.07-1.44-.01-2.12-.25-.67-.23-1.29-.61-1.83-1.11-.54-.51-.98-1.13-1.35-1.88-.43-.84-.67-1.64-.72-2.42-.06-.76.04-1.48.3-2.14.27-.67.65-1.25,1.15-1.76.51-.5,1.1-.92,1.77-1.26,1-.51,2.26-.83,3.78-.97l1.32,2.6c-.58-.07-1.14-.12-1.67-.1-.54.01-1.09.17-1.66.47-.52.26-.93.61-1.27,1.06-.34.46-.53.96-.59,1.51-.06.56.06,1.11.33,1.68.26.5.6.89,1.06,1.18.45.3.93.47,1.48.5.54.02,1.09-.09,1.63-.36.42-.22.81-.49,1.12-.79.34-.31.59-.59.78-.88.19-.27.38-.57.55-.9l1.26,2.48Z"/><path class="cls-20" d="m196.77,207.52l-6.25,4.2-6.16-9.13,2.48-1.67,4.68,6.94,3.76-2.53,1.48,2.19Z"/><path class="cls-20" d="m203.09,195.6c.62.7,1.04,1.41,1.24,2.12.21.71.25,1.38.1,2.02-.13.64-.36,1.21-.7,1.74-.34.53-.74.99-1.19,1.39-.62.56-1.33.98-2.15,1.27-.81.29-1.65.34-2.56.11-.91-.22-1.76-.78-2.57-1.69l-4.04-4.55,2.24-1.98,3.45,3.89c.48.55.96.94,1.41,1.16.46.22.89.32,1.27.26.41-.06.77-.24,1.12-.54.33-.29.54-.63.65-1.02.11-.4.07-.82-.09-1.3-.18-.48-.51-.99-.98-1.52l-3.47-3.92,2.24-1.98,4.03,4.54Z"/><path class="cls-20" d="m212.17,187.76c.74.61,1.13,1.33,1.19,2.13.05.81-.25,1.62-.93,2.43l-3.67,4.39-8.45-7.06,3.07-3.67c.4-.47.8-.85,1.2-1.12.39-.27.77-.43,1.14-.5.34-.07.7-.05,1.02.05.33.08.63.25.92.49.31.26.54.56.73.89.17.32.26.64.3.94.04.3.03.58-.04.79.66-.33,1.27-.49,1.85-.47.57.01,1.14.27,1.68.72Zm-5.84-.35c-.41-.33-.79-.44-1.12-.31-.34.14-.72.46-1.15.96l-.4.49,2.02,1.69.42-.49c.43-.53.69-.96.75-1.3.05-.35-.12-.69-.52-1.03Zm3.83,2.57c-.73-.6-1.48-.44-2.27.51l-.78.94,2.16,1.81.78-.93c.79-.95.83-1.73.11-2.32Z"/><path class="cls-11" d="m242.27,138.04c0,53.29-43.21,96.48-96.49,96.48s-96.48-43.19-96.48-96.48,43.21-96.49,96.48-96.49,96.49,43.19,96.49,96.49Z"/><path class="cls-7" d="m145.78,71.92c-36.52,0-66.11,29.61-66.11,66.12s29.59,66.11,66.11,66.11,66.11-29.6,66.11-66.11-29.61-66.12-66.11-66.12Z"/><path class="cls-2" d="m57.61,136.04l29.71-27.58-21.42,1.75.9,7-22.01,20.75,2.93,16.49c.8,5.23,3.4,15,13.03,14.2l10.18-.83c-5.29-3.11-8.29-8.22-9.75-14.84l-3.57-16.95Z"/><path class="cls-9" d="m81.99,138.58l-9.39,29.1,11.28-.92,7.25-22.45c.56-1.78,1.23-4.02,2.7-5.63,1.02-1.17,2.42-1.99,3.53-2.08,1.37-.12,2.42.58,2.67,1.97.41,1.45-.18,3.3-.75,5.07l-7.23,22.45,11.28-.93,7.13-22.13c1.37-4.26,2.74-7.9,1.45-11.16-1.3-3.26-4.19-4.11-7.72-3.82-3.33.26-6.54,1.79-9.39,4.91l1.34-4.14-14.83,1.21.7,8.56Z"/><path class="cls-12" d="m146.89,162.02c-7.7,2.96-12.59-1.74-12.59-9.35,0-4.75,2.99-17.37,13.43-24.7,4.66-3.27,10.79-5.31,18.81-5.44,6.05.01,9.04.55,12.3,1.65,0,0-3.57,2.38-5.03,7.05l-9.37,29.5c-7.47,23.08-28.05,26.91-39.63,16.48l9.11-9.25c.48,1.6,1.33,2.82,2.48,3.66,5.48,3.96,13.03.41,17.33-12.79l8.49-26.7c-.23-.06-.36-.19-.59-.24-3.9-1.32-7.84.51-11.23,5.21-1.49,2.13-2.65,4.79-3.61,9.16-.72,3.2-.37,11.47,7.53,6.67l-7.43,9.11Z"/><polygon class="cls-19" points="135.38 125.73 120.56 126.95 121.26 135.51 111.88 164.61 123.15 163.67 135.38 125.73"/><polygon class="cls-5" points="129.46 122.83 124.44 115.73 134.43 107.41 139.46 114.5 129.46 122.83"/><path class="cls-7" d="m85.49,87.06c.53.43.91.92,1.11,1.47.22.56.25,1.15.11,1.75-.14.61-.44,1.22-.89,1.8-.12.17-.3.34-.49.57-.21.22-.52.48-.93.78-.41.31-.88.6-1.42.85l-2.13-1.65c.58-.19,1.11-.4,1.58-.64.48-.25.89-.58,1.24-1.02.3-.4.44-.72.38-.95-.07-.23-.15-.4-.28-.5-.23-.18-.5-.23-.83-.16-.32.08-.72.25-1.2.5-.53.27-1.03.48-1.52.62-.5.14-1,.17-1.52.1-.51-.07-1.01-.3-1.49-.68-.46-.36-.82-.8-1.04-1.31-.22-.49-.27-1.04-.16-1.65.11-.6.39-1.2.86-1.81.34-.43.71-.81,1.08-1.1.39-.3.73-.53,1.04-.68.3-.15.53-.24.64-.27l2.06,1.59c-.51.12-1.01.3-1.53.54-.51.24-.93.58-1.28,1.03-.22.29-.33.56-.31.79.03.23.14.41.31.56.17.13.37.18.59.14.24-.03.58-.14,1.02-.35.78-.35,1.44-.61,1.97-.78.53-.17,1.04-.23,1.53-.18.49.05.98.27,1.47.65Z"/><path class="cls-7" d="m94.43,82.41l-5.26,5.31-7.83-7.75,5.16-5.22,1.58,1.55-3.07,3.1,1.45,1.44,2.92-2.96,1.59,1.56-2.93,2.95,1.66,1.65,3.16-3.18,1.57,1.56Z"/><path class="cls-7" d="m100.52,70.59c.63.82,1.02,1.7,1.22,2.65.19.94.1,1.88-.26,2.79-.36.91-1.02,1.74-1.98,2.48-.97.74-1.96,1.15-2.95,1.26-1,.09-1.92-.08-2.77-.51-.85-.44-1.58-1.05-2.18-1.83-.6-.79-1-1.64-1.2-2.59-.2-.92-.11-1.86.25-2.8.35-.93,1.02-1.76,1.99-2.51.73-.56,1.46-.94,2.21-1.14.75-.19,1.48-.22,2.15-.1.68.13,1.33.4,1.94.8.6.4,1.14.9,1.59,1.5Zm-2.43,1.86c-.24-.33-.52-.59-.81-.8-.3-.2-.61-.34-.94-.4-.33-.06-.66-.05-1,.02-.34.09-.67.26-1.01.5-.65.48-.98,1.08-1.04,1.77-.04.69.2,1.38.71,2.04.52.67,1.12,1.07,1.79,1.21.68.13,1.35-.04,1.97-.52.43-.35.74-.72.89-1.15.16-.42.19-.86.08-1.33-.09-.45-.31-.9-.66-1.34Z"/><path class="cls-7" d="m111.75,65.06c.45.83.7,1.61.74,2.35.03.73-.09,1.4-.36,1.98-.28.6-.64,1.1-1.1,1.55-.46.43-.94.79-1.46,1.07-.74.4-1.53.65-2.37.75-.86.09-1.7-.07-2.53-.49-.84-.42-1.55-1.16-2.12-2.24l-2.88-5.35,2.62-1.41,2.47,4.59c.35.65.71,1.13,1.1,1.45.39.33.79.51,1.19.54.4.04.8-.05,1.21-.28.38-.2.66-.48.87-.84.2-.34.25-.77.21-1.28-.06-.5-.26-1.07-.61-1.71l-2.48-4.61,2.64-1.42,2.87,5.35Z"/><path class="cls-7" d="m123.09,66.09l-7.06,2.59-3.78-10.34,2.8-1.02,2.88,7.86,4.25-1.56.91,2.48Z"/><path class="cls-7" d="m135.27,60.27c.13.67.07,1.3-.15,1.84-.24.55-.6,1.01-1.11,1.36-.51.37-1.13.6-1.86.73-.19.04-.44.06-.75.09-.3.03-.7.02-1.21-.04-.5-.05-1.04-.15-1.62-.31l-.46-2.66c.55.26,1.09.45,1.61.59.51.14,1.05.17,1.6.07.49-.09.8-.23.92-.45.11-.21.16-.4.13-.56-.03-.29-.22-.52-.5-.67-.3-.17-.69-.31-1.21-.43-.57-.15-1.1-.35-1.55-.58-.46-.22-.85-.54-1.18-.94-.34-.4-.56-.9-.65-1.5-.11-.59-.06-1.14.12-1.65.17-.52.49-.96.99-1.33.47-.37,1.09-.62,1.85-.76.56-.1,1.06-.12,1.55-.09.49.04.89.11,1.21.2.33.1.55.17.69.24l.44,2.54c-.46-.25-.95-.46-1.48-.62-.54-.17-1.08-.21-1.64-.12-.36.07-.62.2-.76.38-.13.18-.17.4-.14.62.04.22.15.39.34.52.19.12.52.26.98.42.82.26,1.48.5,1.98.74.51.24.92.53,1.25.9.32.37.54.86.64,1.47Z"/><path class="cls-7" d="m147.96,62.8l-3.63.14-3.98-5.01.2,5.14-3,.11-.4-11,2.99-.11.17,4.92,3.42-5.04,3.24-.12-3.49,5.28,4.49,5.69Z"/><path class="cls-7" d="m163.88,65.14l-3.59-.64-2.83-5.74-.91,5.08-2.93-.51,1.93-10.84,2.93.51-.85,4.85,4.39-4.23,3.2.57-4.54,4.43,3.21,6.52Z"/><path class="cls-7" d="m174.75,68.89l-2.52-.88-2.83-7.48-2.01,5.79-2.81-.97,3.63-10.4,2.5.87,2.83,7.44,2.01-5.75,2.83.98-3.62,10.4Z"/><path class="cls-7" d="m179.4,71.28l-2.68-1.31,4.86-9.88,2.68,1.31-4.86,9.87Z"/><path class="cls-7" d="m189.47,76.41c-.23-.04-.42-.08-.58-.11-.18-.03-.31-.07-.47-.1-.14-.04-.35-.09-.6-.17-.46-.14-.88-.31-1.3-.5-.41-.19-.82-.41-1.25-.69-.85-.54-1.53-1.2-2.03-2-.5-.8-.75-1.7-.71-2.7.03-1,.36-2.03,1.03-3.08.44-.68.97-1.26,1.61-1.79.64-.5,1.31-.82,2.03-.92.59-.09,1.12-.1,1.62-.02.5.07.95.19,1.35.38.41.17.84.4,1.28.68.74.46,1.31.91,1.72,1.34.4.42.82.91,1.26,1.49l-1.39,2.19c-.23-.49-.5-.94-.81-1.38-.33-.43-.79-.85-1.44-1.25-.72-.46-1.41-.68-2.04-.64-.63.02-1.16.2-1.61.52-.44.31-.78.68-1.04,1.08-.3.47-.47.96-.53,1.48-.05.52.04,1.03.29,1.53.26.49.65.91,1.22,1.27.32.2.7.37,1.13.5l.69-1.09-1.13-.72,1.18-1.88,3.34,2.12-2.84,4.48Z"/><path class="cls-7" d="m198.38,85.01l-2.24-1.97,2.83-3.23-3.39-2.96-2.82,3.23-2.25-1.97,7.26-8.29,2.24,1.98-2.67,3.03,3.39,2.97,2.65-3.04,2.24,1.96-7.26,8.29Z"/><path class="cls-7" d="m211.98,88.1l-2.34-2.77-6.36,5.38-1.93-2.28,6.36-5.38-2.34-2.77,2.04-1.73,6.63,7.82-2.05,1.74Z"/><path class="cls-7" d="m212.51,98.27c-.58.37-1.16.57-1.76.58-.58.01-1.14-.15-1.68-.48-.54-.33-1.01-.8-1.42-1.41-.1-.18-.24-.4-.37-.67-.15-.26-.29-.63-.45-1.11-.16-.49-.27-1.03-.35-1.62l2.25-1.48c0,.62.01,1.18.1,1.71.08.54.27,1.02.57,1.49.29.43.54.65.79.67.23.02.41,0,.56-.1.24-.16.38-.4.42-.73.03-.33,0-.76-.1-1.28-.08-.6-.1-1.15-.08-1.66.02-.5.15-.99.38-1.45.24-.46.62-.87,1.14-1.2.48-.34,1.01-.51,1.55-.56.54-.04,1.09.09,1.62.38.55.3,1.02.77,1.44,1.42.3.46.54.92.69,1.38.16.46.26.86.3,1.19.05.34.05.57.05.72l-2.15,1.41c.04-.52.04-1.05-.02-1.61-.07-.55-.24-1.07-.54-1.55-.22-.32-.43-.49-.66-.54-.21-.06-.42-.01-.63.1-.18.12-.29.3-.34.53-.04.23-.04.58,0,1.07.09.86.12,1.55.11,2.11-.02.56-.14,1.05-.33,1.49-.21.45-.58.84-1.09,1.19Z"/><path class="cls-7" d="m83.8,194.96c-.72.61-1.49.87-2.29.78-.81-.09-1.55-.54-2.22-1.34l-3.66-4.41,8.48-7.04,3.07,3.69c.39.48.69.93.88,1.38.2.43.29.83.29,1.2s-.07.7-.22,1c-.16.31-.38.59-.66.82-.32.26-.64.44-1,.56-.36.1-.68.14-.99.13-.31-.03-.57-.09-.77-.2.2.71.25,1.35.13,1.9-.14.57-.47,1.08-1.03,1.53Zm-1.81-2.39c.74-.6.7-1.37-.09-2.32l-.76-.95-2.18,1.8.78.94c.78.95,1.54,1.12,2.25.53Zm3.23-3.3c.41-.34.58-.69.51-1.04-.05-.36-.31-.8-.73-1.32l-.39-.48-2.04,1.69.41.5c.43.53.82.86,1.15.98.34.12.7.01,1.11-.33Z"/><path class="cls-7" d="m91.18,206.11l-2.25-2.06.89-2.2-3.17-2.89-2.12,1.1-2.26-2.06,10.66-5.19,2.46,2.23-4.2,11.07Zm-.57-6.13l1.63-3.95-3.79,1.98,2.16,1.97Z"/><path class="cls-7" d="m100.08,208.35c-.4.57-.87.96-1.42,1.2-.57.23-1.14.29-1.77.17-.6-.12-1.22-.38-1.82-.8-.15-.12-.37-.27-.6-.46-.22-.2-.5-.5-.82-.89-.34-.39-.64-.85-.93-1.37l1.56-2.2c.2.56.45,1.08.72,1.54.26.47.62.87,1.07,1.18.41.3.74.41.98.34.23-.06.39-.16.48-.3.17-.24.21-.52.12-.83-.1-.32-.29-.71-.56-1.17-.3-.52-.54-1.02-.69-1.5-.17-.48-.23-.98-.18-1.5.05-.52.26-1.03.61-1.53.35-.49.75-.86,1.25-1.09.49-.24,1.05-.33,1.64-.25.6.08,1.23.35,1.86.79.46.32.83.66,1.15,1.02.33.37.57.71.73,1,.16.3.26.51.32.65l-1.49,2.11c-.14-.49-.35-.99-.62-1.49-.25-.5-.62-.91-1.08-1.23-.31-.21-.58-.31-.8-.27-.24.03-.42.14-.55.33-.12.19-.16.38-.12.61.05.23.19.55.4,1,.4.76.69,1.4.88,1.93.19.52.27,1.02.24,1.51-.03.49-.22.99-.57,1.49Z"/><path class="cls-7" d="m109.65,217.28l-3.23-1.71-.94-6.32-2.41,4.54-2.64-1.4,5.15-9.73,2.64,1.4-2.32,4.36,5.48-2.68,2.88,1.52-5.67,2.83,1.05,7.19Z"/><path class="cls-7" d="m118.42,220.52l-7-2.6,3.86-10.33,6.89,2.56-.77,2.08-4.09-1.52-.71,1.89,3.9,1.45-.77,2.07-3.9-1.44-.82,2.19,4.19,1.57-.78,2.07Z"/><path class="cls-7" d="m132.58,215.43l-3.54-.8-1.83,8.13-2.92-.66,1.85-8.13-3.54-.81.59-2.6,9.99,2.26-.59,2.61Z"/><path class="cls-7" d="m142.64,221.56c-.1.94-.46,1.67-1.08,2.19-.63.52-1.46.72-2.5.63l-5.7-.48.93-10.96,4.77.4c.61.05,1.14.16,1.59.33.45.17.81.38,1.06.65.25.25.44.54.56.85.11.33.16.67.11,1.05-.02.4-.12.77-.29,1.1-.18.33-.38.59-.61.78-.22.21-.46.34-.68.42.65.35,1.13.76,1.45,1.25.31.47.44,1.08.39,1.79Zm-2.98-.39c.08-.94-.49-1.47-1.73-1.56l-1.21-.11-.24,2.8,1.21.11c1.24.1,1.87-.31,1.96-1.24Zm-.1-4.61c.05-.53-.08-.9-.37-1.09-.31-.2-.78-.33-1.47-.39l-.62-.06-.22,2.63.65.05c.67.06,1.18.01,1.49-.13.32-.14.5-.49.55-1.02Z"/><path class="cls-7" d="m155.75,224.14l-3.05.16-.92-2.19-4.3.23-.69,2.28-3.07.16,3.78-11.23,3.3-.17,4.95,10.76Zm-4.76-3.9l-1.66-3.93-1.25,4.09,2.91-.16Z"/><path class="cls-7" d="m165.02,222.36l-7.39,1.39-2.03-10.83,2.93-.54,1.54,8.22,4.45-.83.49,2.59Z"/><path class="cls-7" d="m174.46,219.54l-7.18,2.22-3.25-10.51,2.85-.88,2.48,8,4.33-1.34.77,2.52Z"/><path class="cls-7" d="m187.69,212.53c-.25.4-.56.76-.87,1.08-.32.32-.65.61-1.03.86-.36.25-.74.48-1.16.69-.77.39-1.52.62-2.25.69-.73.07-1.44-.01-2.12-.25-.67-.23-1.29-.61-1.83-1.11-.54-.51-.98-1.13-1.35-1.88-.43-.84-.67-1.64-.72-2.42-.06-.76.04-1.48.3-2.14.27-.67.65-1.25,1.15-1.76.51-.5,1.1-.92,1.77-1.26,1-.51,2.26-.83,3.78-.97l1.32,2.6c-.58-.07-1.14-.12-1.67-.1-.54.01-1.09.17-1.66.47-.52.26-.93.61-1.27,1.06-.34.46-.53.96-.59,1.51-.06.56.06,1.11.33,1.68.26.5.6.89,1.06,1.18.45.3.93.47,1.48.5.54.02,1.09-.09,1.63-.36.42-.22.81-.49,1.12-.79.34-.31.59-.59.78-.88.19-.27.38-.57.55-.9l1.26,2.48Z"/><path class="cls-7" d="m196.77,207.52l-6.25,4.2-6.16-9.13,2.48-1.67,4.68,6.94,3.76-2.53,1.48,2.19Z"/><path class="cls-7" d="m203.09,195.6c.62.7,1.04,1.41,1.24,2.12.21.71.25,1.38.1,2.02-.13.64-.36,1.21-.7,1.74-.34.53-.74.99-1.19,1.39-.62.56-1.33.98-2.15,1.27-.81.29-1.65.34-2.56.11-.91-.22-1.76-.78-2.57-1.69l-4.04-4.55,2.24-1.98,3.45,3.89c.48.55.96.94,1.41,1.16.46.22.89.32,1.27.26.41-.06.77-.24,1.12-.54.33-.29.54-.63.65-1.02.11-.4.07-.82-.09-1.3-.18-.48-.51-.99-.98-1.52l-3.47-3.92,2.24-1.98,4.03,4.54Z"/><path class="cls-7" d="m212.17,187.76c.74.61,1.13,1.33,1.19,2.13.05.81-.25,1.62-.93,2.43l-3.67,4.39-8.45-7.06,3.07-3.67c.4-.47.8-.85,1.2-1.12.39-.27.77-.43,1.14-.5.34-.07.7-.05,1.02.05.33.08.63.25.92.49.31.26.54.56.73.89.17.32.26.64.3.94.04.3.03.58-.04.79.66-.33,1.27-.49,1.85-.47.57.01,1.14.27,1.68.72Zm-5.84-.35c-.41-.33-.79-.44-1.12-.31-.34.14-.72.46-1.15.96l-.4.49,2.02,1.69.42-.49c.43-.53.69-.96.75-1.3.05-.35-.12-.69-.52-1.03Zm3.83,2.57c-.73-.6-1.48-.44-2.27.51l-.78.94,2.16,1.81.78-.93c.79-.95.83-1.73.11-2.32Z"/><path class="cls-15" d="m283.73,119.17l-3.02-4.6s-15.39-5.45-28.2,2.1l-.82-2.36s-2.62.21-3.74.31l3.08-9.92-3.28-4.95-12.63,1.03c-1.04,3.95-6.73,17.69-18.07,19.06l-.62,1.75c-2.38-2.87-5.11-3.82-8.83-3.84l3.08-9.74-3.29-4.95-25.75,2.12,1.04,12.73-1.47,4.64c-15.58-4.79-29.74-1.69-38.68,5.13l-1.72-1.47,6.13-5.12-13.03-18.63-17.83,14.88,5.01,7.26-7.74.62.66,5.89c-3.46-4.57-9.05-5.48-14.48-4.88.03,0-13.54,1.11-20.54,1.68,8.77-8.13,18.7-17.36,18.7-17.36l-3.67-5.53s-26.68,2.19-31.87,2.62c.05-.03-5.15.43-5.15.43.08.61.72,5.41.96,7.28.14,1.06.26,2.02.33,2.52-.37.35-1.7,1.6-3.5,3.3-2.6,2.45-16.13,15.38-19.25,18.32.14.61,2.3,12.82,2.3,12.82l1.6,9.15c2.24,13.57,10.09,20.03,23.3,19.06l58.78-4.66-5.3,5.43c3.47,5.43,11.77,13.86,22.62,13.86h.1c13.73,0,24.19-7.93,30.48-22.98l41.21-3.35,2-6.17c.9,2.28,4.62,7,10.66,7s9.61-2.64,10.63-3.47l2.21-3.09.72,1.4c14.1,4.54,26.22.08,32.04-4.04,7.11-5.04,12.12-14.33,8.84-22.64l5.98-18.67Zm-216.65,43.55c-1.13-1.52-2.03-3.6-2.58-6.13-.02-.11-1.88-7.94-2.87-12.52l11.84-10.99.66,8.05-7.05,21.59Z"/><path class="cls-15" d="m32.84,161.12c-2.42,4.92-5.02,10.22-5.31,10.82.09.4.6,2.63,1.22,5.39l.15.66c.04.2.09.4.14.6h0s1.12,4.93,1.12,4.93c.28,1.25,1.08,4.75,1.08,4.75l-6.22.75s-1.78-2.08-2.98-3.47c.84,3.91-1.63,7.24-2.64,8.25-3.01,3.01-8.66,4.03-12.92-.22-6.23-6.23-3.13-15.89,1.05-17.04l1.92-5.82-9.45-11.41,12.81.46,19.82-59.19,23.74-15.22-1.97,31.83-11.93,24.3h0s-9.63,19.62-9.63,19.62Z"/><path class="cls-17" d="m38.26,146.46l14.56-29.66,1.76-28.32-20.56,13.19-20.04,59.78-10.41-.37,7.72,9.31c-.62,1.91-1.81,5.51-2.4,7.33-.99.31-1.87.91-2.6,1.79-.21.25-.39.53-.57.84-2.07,3.57-1.14,8.58,1.69,11.84,5.12,5.9,15.07,1.17,12.82-7.56.19-.39.78-1.79,1.08-2.42l4.39,5.13,3.59-.43-3.44-15.15,9.13-18.6"/><path class="cls-3" d="m18.66,175.71l-4.2,8.75c.62,1.9.57,4.01-.3,5.5-1.28,2.21-3.82,2.22-5.69.02-1.87-2.2-2.33-5.76-1.06-7.97.69-1.2,1.77-1.76,2.91-1.64l3.42-10.45-5-5.88,6.77.49,20.13-60.81,12.82-8.21-1.53,21.52-25.85,53.9,2.66,10.76-5.09-5.98Zm-6.33,12.09c.59-1.01.37-2.64-.49-3.64-.84-.99-2.01-.99-2.59,0-.58,1.02-.38,2.64.48,3.65.84,1,2.02.99,2.6,0Z"/><polygon class="cls-14" points="17.66 167.05 12.92 166.7 11.99 165.61 16.74 165.95 36.85 105.14 46.69 98.84 46.57 100.62 37.78 106.24 17.66 167.05"/><polygon class="cls-14" points="11.53 181.8 14.96 171.35 15.9 172.45 12.47 182.89 11.53 181.8"/><path class="cls-17" d="m38.48,144.78l2.88,16.38c1.72,9.08,5.99,18.64,21.31,17.52l20.38-1.68,1.38-3.88,2.9,3.51,16.57-1.27,1.31-3.71,2.51,3.47,17.37-1.4,4.93-15.36c.47,8.46,6.98,13.14,15.86,10.58-.49,1.91-2.78,5.21-6.04,5.21-4.59,0-5.94-4.95-6.69-7.37l-14.41,14.72c7.26,10.12,16.22,11.79,20.17,11.79s21.76.19,30.56-26.39l1.74,3.31,15.87-1.28,1.37-3.87,2.69,3.5,18.15-1.49,3.46-10.75c.22,4.17,3.59,11.48,10.63,11.48,4.96,0,7.85-1.95,9.25-2.96l3.75-5.19,1.48,3.13c2.07,1.06,10.1,2.02,14.37,1.62,4.83-.46,19.43-2.69,24.07-17.06.49-1.48.72-2.93.72-4.32,0-1.73-.49-3.59-1.23-5.09l5.91-18.47-2.15-3.26c-12.87-3.76-23.56-.33-27.97,3.47l-1.16-3.34s-2.66.22-5.07.41c1.62-5.14,3.66-11.73,3.66-11.73l-2.17-3.26-10.31.83c-4.68,13.8-13.97,18.32-18.26,18.97l-1.45,4.41c-1.4-5.53-6.77-6.85-11.81-6.11,1.68-5.32,3.63-11.52,3.63-11.52l-2.17-3.27-22.75,1.88s.82,10.18.9,11.22c-.08.25-.93,2.89-2.17,6.82l-2.87-.95c-3.47-1.16-6.8-1.82-13.59-1.83h-.05c-1.22.02-2.44.12-3.52.21h-.07c-10.44,1.07-18.13,4.8-23.78,11.75l1.86-5.77-2.52-2.16,6.52-5.44-10.87-15.52-14.93,12.47,5.89,8.51-9.06.75,1.27,11.22-1.54,3.25c-.15-11.04-7.06-14.25-15.43-13.33l-24.63,2.02s.83,10.17.92,11.21c-.26.78-5.01,15.19-8.11,24.84-2.74-1.73-4.48-5.46-5.27-9.2,0,0-2.17-9.2-3.1-13.57,2.32-2.16,35.7-33.15,35.7-33.15l-2.18-3.27-33.93,2.8s.9,6.91,1.15,8.8c-1.51,1.41-13.01,12.26-19.03,17.94l-3.68,3.69"/><polygon class="cls-10" points="127.73 125.1 122.57 117.8 132.83 109.25 138 116.53 127.73 125.1"/><path class="cls-16" d="m187.53,118.06l-14.4,45.04,11.58-.96,7.43-23.06c1.52-4.68,3.45-7.68,6.41-7.93,2.98-.25,3.5,2.5,1.96,7.24l-7.44,23.07,11.57-.97,8.12-25.17c3.11-9.61-.6-13.5-7.22-12.95-3.41.28-6.72,1.84-9.65,5.06l6.15-19.41-15.24,1.26.71,8.79Z"/><path class="cls-13" d="m53.91,138.67l30.52-28.33-22.01,1.8.92,7.19-22.61,21.32,3.01,16.94c.82,5.38,3.49,15.41,13.38,14.59l10.46-.86c-5.43-3.19-8.52-8.45-10.02-15.24l-3.67-17.41Z"/><path class="cls-18" d="m78.96,141.27l-9.64,29.89,11.58-.95,7.44-23.06c.58-1.83,1.26-4.12,2.77-5.79,1.04-1.2,2.49-2.05,3.62-2.14,1.41-.12,2.48.59,2.74,2.02.42,1.49-.19,3.39-.77,5.21l-7.43,23.06,11.59-.95,7.32-22.74c1.41-4.37,2.82-8.12,1.49-11.46-1.34-3.35-4.3-4.23-7.93-3.93-3.42.27-6.72,1.84-9.64,5.05l1.37-4.26-15.24,1.25.72,8.79Z"/><path class="cls-4" d="m240.58,147.31c2.69,2.36,6.16,3.91,10.38,3.57,1.86-.15,4.93-.97,5.92-4.02,1.78-5.54-14.11-4.55-10.5-15.71,1.44-4.46,4.4-8,8.18-10.4,3.8-2.47,7.53-3.19,11.02-3.47,3.49-.29,6.77,0,9.87.71l-2.78,8.59c-1.87-1.86-4.5-2.75-7.51-2.51-1.34.11-4.08.73-4.81,2.96-.82,2.57,1.19,3.05,2.6,3.49,2.12.71,4.55,1.4,6.15,2.96,2.08,1.98,3.32,5.03,1.96,9.24-3.57,11.07-14.33,14.38-21.43,14.96-3.74.32-7.27-.28-10.63-.97l1.6-9.38Z"/><path class="cls-1" d="m145.63,165.34c-7.91,3.04-12.93-1.78-12.93-9.6,0-4.88,3.07-17.84,13.8-25.37,4.79-3.36,11.09-5.45,19.32-5.59,6.21.01,9.28.57,12.63,1.69,0,0-3.67,2.45-5.17,7.24l-9.63,30.3c-7.67,23.7-28.82,27.64-40.71,16.93l9.36-9.51c.5,1.65,1.36,2.9,2.55,3.76,5.63,4.07,13.38.42,17.8-13.14l8.72-27.42c-.23-.06-.37-.2-.61-.25-4-1.36-8.06.52-11.53,5.35-1.53,2.18-2.72,4.92-3.71,9.41-.74,3.29-.39,11.78,7.74,6.85l-7.64,9.36Z"/><path class="cls-6" d="m242.92,128.58l3.04-9.3-8.33.69,4.76-15.27-3.95.31c-7.01,16.39-17.99,18.65-17.99,18.65l-1.49,4.56,4.77-.39-7.69,24.22c-1.99,5.96,2.33,12.49,12.15,6.78l7.21-9.99c-5.13,2.08-6.66-1.35-5.9-3.75l5.93-18.23,4.44-.36c.82-.05,2.27.12,3.05,2.08Z"/><polygon class="cls-8" points="133.81 128.07 118.58 129.32 119.3 138.11 109.67 168.01 121.24 167.05 133.81 128.07"/><path class="cls-14" d="m138.26,147.14c3.61-9.63,8.82-15.43,17.2-18.88l-.28-.37c-9.16,3.27-14.73,9.25-18.53,19.39-3.53,9.4-1.08,16.06,5.22,17.15l.38-.44c-5.37-1.86-7.27-8.07-3.99-16.85Z"/><path class="cls-14" d="m163.33,134.94l-8.56,26.93c-2.65,8.13-6.49,12.69-10.36,14.16l.2.28c4.33-.83,8.81-5.44,11.76-14.56l8.4-26.39-1.45-.41Z"/><path class="cls-14" d="m127.24,180.63l5.51-5.59-.6-.91-6.53,6.64c3.82,3.43,8.86,4.81,13.98,4.52l.2-.26c-4.51-.2-9.12-1.28-12.57-4.39Z"/><path class="cls-14" d="m219.79,151.75l7.7-24.22-1.55.12-7.69,24.23c-1.46,4.36,1.16,9.51,8.88,5.43l.28-.53c-7.74,2.62-8.91-1.11-7.62-5.03Z"/><path class="cls-14" d="m239.03,106.75c-6.18,14.7-16.54,17.27-16.54,17.27l-.85,2.56,1.55-.12.67-1.9s10.28-2.69,16.11-17.92l-.95.11Z"/><polygon class="cls-14" points="126.41 117.59 132.89 112.18 132.37 111.44 124.84 117.72 128.35 122.69 129.37 121.76 126.41 117.59"/><path class="cls-14" d="m241.01,153.61l-.35,1.67c9.97,2.07,16.64-.34,20.79-3.18l-.19-.2c-3.96,2.69-12.28,4.43-20.25,1.72Z"/><path class="cls-14" d="m271.92,122.27c-1.59-.73-5.8-1.61-9.67.46l.15.32c4.31-1.62,7.3-.2,9.06.61l.46-1.39Z"/><path class="cls-14" d="m252.06,125.35c-1.37,1.19-4.23,4.66-4.09,8.54.27,7.25,14.23,6.72,10.05,13.74l.44.09c4.87-7.26-8.52-7.53-9-14.26-.26-3.69,2.24-7.07,2.83-7.78l-.23-.33Z"/><path class="cls-14" d="m82.89,140.83l-.77-7.07-1.45.12.75,7.01c-.16.51-6.26,19.43-9,27.87l1.53-.13,8.94-27.81Z"/><path class="cls-14" d="m123.23,137.67l-.78-7.07-1.46.12.76,7.02c-.17.52-6.27,19.43-9.01,27.86l1.53-.12,8.96-27.81Z"/><path class="cls-14" d="m191.46,117.61l-.79-7.07-1.44.13.74,7.02c-.16.51-11.13,34.58-13.86,43.01l1.54-.13,13.82-42.96Z"/><path class="cls-14" d="m99.11,138.38l-.4.41c.4.25,1.87,2.02.09,7.54-1.43,4.42-5.25,16.34-6.7,20.81l1.54-.12,6.67-20.8c1.39-4.31.22-6.95-1.2-7.83Z"/><path class="cls-14" d="m202.91,130.3l-.41.41c.41.26,1.87,2.03.1,7.55-1.44,4.42-5.25,16.32-6.71,20.81l1.55-.14,6.67-20.81c1.39-4.3.22-6.95-1.19-7.83Z"/><path class="cls-14" d="m47.7,157.26l-2.77-16.12,22.5-21.35-.84-6.3-1.49.12.74,5.89-22.58,21.38,3.11,17.23c1.31,6.42,3.31,10.75,7.39,12.2l1.14-.09c-3.9-1.9-6.16-6.88-7.19-12.97Z"/></svg>