<?xml version="1.0" encoding="UTF-8"?><svg id="Layer_1" xmlns="http://www.w3.org/2000/svg" xmlns:xlink="http://www.w3.org/1999/xlink" viewBox="0 0 321.47 178.75"><defs><style>.cls-1{fill:url(#linear-gradient);}.cls-1,.cls-2,.cls-3,.cls-4,.cls-5,.cls-6,.cls-7,.cls-8,.cls-9,.cls-10,.cls-11{stroke-width:0px;}.cls-2{fill:url(#linear-gradient-6);}.cls-3{fill:url(#linear-gradient-5);}.cls-4{fill:#dbdcdd;}.cls-5{fill:url(#linear-gradient-2);}.cls-6{fill:#f26f21;}.cls-7{fill:#374ea1;}.cls-8{fill:url(#linear-gradient-7);}.cls-9{fill:url(#linear-gradient-3);}.cls-10{fill:#d9d9d9;}.cls-11{fill:url(#linear-gradient-4);}</style><linearGradient id="linear-gradient" x1="160.79" y1="83.28" x2="160.79" y2="117.17" gradientUnits="userSpaceOnUse"><stop offset=".15" stop-color="#fff"/><stop offset="1" stop-color="#00adee"/></linearGradient><linearGradient id="linear-gradient-2" x1="136.48" y1="83.56" x2="136.48" y2="117.16" xlink:href="#linear-gradient"/><linearGradient id="linear-gradient-3" x1="229.48" y1="84.87" x2="229.48" y2="128.44" xlink:href="#linear-gradient"/><linearGradient id="linear-gradient-4" x1="183.97" y1="84.58" x2="183.97" y2="117.43" xlink:href="#linear-gradient"/><linearGradient id="linear-gradient-5" x1="114.83" y1="84" x2="114.83" y2="119.97" xlink:href="#linear-gradient"/><linearGradient id="linear-gradient-6" x1="206.38" y1="84" x2="206.38" y2="119.79" xlink:href="#linear-gradient"/><linearGradient id="linear-gradient-7" x1="92.29" y1="85.16" x2="92.29" y2="129.47" xlink:href="#linear-gradient"/></defs><path class="cls-10" d="m303.13,54.43c10.37-12.79,16.4-27.07,17.44-41.27l.9-12.27c.06-.82-1-1.21-1.48-.55l-7.27,9.93c-15.18,20.74-50.45,41.74-92.04,54.81-2.73.86-5.5,1.68-8.29,2.47-1.15.32-2.3.64-3.45.95-11.95,3.02-29.12,4.91-48.2,4.91s-36.25-1.89-48.2-4.91c-1.15-.31-2.3-.62-3.45-.95-2.79-.79-5.56-1.61-8.29-2.47C59.21,52.01,23.94,31.01,8.76,10.27L1.49.34C1-.33-.06.06,0,.88l.9,12.27c1.04,14.21,7.07,28.48,17.44,41.27,3.19,3.94,7.21,7.29,11.72,9.8-3-1.09-5.95-2.22-8.84-3.4l-5.65-2.3c-.59-.24-1.21.25-1.12.87l.82,6.04c1.31,9.63,9.6,18.92,23.99,26.86l-6.48-.87c-.49-.07-.85.44-.64.88l3.01,6.24c3.17,6.59,10.17,11.83,20.37,15.31l-2.83.48c-.47.08-.68.65-.36,1.01l4.35,5.02c3.07,3.54,7.55,6.06,13.35,7.52l-2.4,16.55c-.06.43.33.79.75.69l13.83-3.27c2.19-.52,4.41-1.02,6.61-1.49l7.07-1.53,1.61-11.7c.18.2.37.4.56.58,2.4,2.35,5.66,3.64,9.16,3.64.66,0,1.33-.05,1.99-.14,4.55-.63,9.15-1.18,13.65-1.63,0,0,6.6-.61,6.97-.64,2.5-.21,5.05-.39,7.55-.55l4.22-.24c1.65-.08,3.29-.16,4.92-.22l2.79-.09c2.23-.07,4.47-.12,6.67-.14l4.82-.06,4.81.06c2.24.03,4.48.08,6.63.14,0,0,5.88.23,6.23.24,3.66.17,7.38.4,11.07.69,1.86.14,3.68-.07,5.4-.61,1.65.84,3.45,1.38,5.33,1.58,4.35.46,8.75,1,13.07,1.61.28.04.56.07.83.09,2.17,3.68,5.96,6.4,10.38,7.25,4.79.91,9.64,1.95,14.41,3.07l13.82,3.25c.42.1.81-.26.75-.69l-2.38-16.39c5.95-1.45,10.53-3.99,13.65-7.59l4.35-5.02c.31-.36.11-.93-.36-1.01l-2.83-.48c10.2-3.48,17.2-8.72,20.37-15.31l3-6.24c.21-.44-.15-.94-.64-.88l-6.48.87c14.39-7.94,22.68-17.23,23.99-26.86l.82-6.04c.08-.63-.54-1.11-1.12-.87l-5.65,2.3c-2.9,1.18-5.85,2.31-8.84,3.4,4.51-2.5,8.53-5.86,11.72-9.8Z"/><path class="cls-4" d="m160.74,32.75c-40.32,0-73,32.68-73,73s32.68,73,73,73,73-32.68,73-73-32.68-73-73-73Z"/><path class="cls-6" d="m160.74,56.48c27.17,0,49.27,22.1,49.27,49.27s-22.1,49.27-49.27,49.27-49.26-22.1-49.26-49.27,22.1-49.27,49.26-49.27Z"/><path class="cls-7" d="m160.74,157.48c28.53,0,51.74-23.21,51.74-51.74s-23.21-51.74-51.74-51.74-51.74,23.21-51.74,51.74,23.21,51.74,51.74,51.74Zm-46.86-43.47c6.33,13.78,19.36,24.15,35.17,27.62-.7,2.36-2.65,3.72-4.26,4.46-2.42,1.1-5.46,1.4-7.76.9-11.98-6.9-20.67-18.87-23.14-32.98Zm21.98-48.84c6.82-4.19,14.77-6.7,23.29-6.98v81.49c-2.24-.07-4.46-.3-6.63-.66-.07-5.72-3.42-12.33-11.1-22.12-7.48-9.54-10.57-15.86-11.8-24.14-1.31-8.81-.29-20.47,6.23-27.59Zm49.76,0c6.52,7.12,7.54,18.78,6.23,27.59-1.23,8.28-4.32,14.59-11.8,24.13-7.68,9.78-11.02,16.4-11.1,22.12-2.17.37-4.38.59-6.63.66V58.2c8.52.28,16.47,2.79,23.29,6.98Zm-10.25,83.81c.93.42,1.92.75,2.92.98-4.97,1.97-10.34,3.13-15.96,3.32v-10.41c2.36-.07,4.68-.29,6.96-.65.76,2.93,2.87,5.3,6.08,6.76Zm-23.18-6.76c2.27.36,4.59.58,6.96.65v10.41c-5.63-.18-11-1.35-15.97-3.32,1.01-.23,2-.55,2.93-.98,3.21-1.46,5.33-3.84,6.08-6.76Zm32.26,4.77c-2.3.51-5.35.21-7.76-.9-1.62-.74-3.57-2.09-4.27-4.46,15.81-3.48,28.84-13.85,35.17-27.63-2.47,14.12-11.16,26.08-23.14,32.99Zm23.65-45.76c-2.71,17.96-17.41,32.74-35.94,37.15.33-4.83,3.5-10.72,10.39-19.52,7.77-9.91,11.14-16.85,12.45-25.63,1.03-6.95.68-15.57-2.38-22.82,8.6,7.76,14.34,18.62,15.48,30.82Zm-79.25-30.82c-3.07,7.25-3.41,15.87-2.38,22.82,1.3,8.78,4.68,15.73,12.45,25.63,6.9,8.8,10.07,14.69,10.39,19.52-18.54-4.4-33.24-19.19-35.94-37.15,1.15-12.2,6.89-23.05,15.48-30.82Z"/><path class="cls-7" d="m138.96,48l4.05-1.62-.11-.27h0s-1.28-3.19-1.28-3.19h0c-.24-.6-.92-.9-1.52-.67h0s-8.99,3.59-8.99,3.59l.66,1.65,8.23-3.3.52,1.3-8.41,3.37.65,1.63,4.09-1.64.47,1.18-4.09,1.64.66,1.65,8.41-3.37.71,1.77,1.83-.73-.93-2.32h.01c-.23-.59-.87-.88-1.46-.69h0s-.02,0-.02,0c-.02,0-.04,0-.06.02h0s-2.96,1.19-2.96,1.19l-.47-1.18Z"/><path class="cls-7" d="m125.67,50.19h0s-.02-.02-.02-.03h0s0-.01,0-.01c-.39-.47-1.07-.56-1.58-.22h0s-.03.02-.03.02c0,0-.02,0-.02.01h0s-6.19,4.77-6.19,4.77l-.55-.72-1.54,1.19,1.18,1.53h0s.45.59.45.59l.82-.63c-.02.66.16,1.32.58,1.87,1.01,1.31,2.97,1.48,4.38.39,1.41-1.09,1.75-3.03.74-4.34-.42-.54-1.01-.89-1.66-1.04l2.25-1.73,3.91,5.06-5.56,4.28-.83-1.08-1.55,1.2,1.15,1.49h0s0,0,.01.01v.02s.02,0,.02,0c.42.51,1.16.6,1.7.22h0s7.69-5.92,7.69-5.92l-.79-1.02h.02s-2.56-3.33-2.56-3.33l1.16-.9-1.08-1.41-1.17.9-.92-1.18Zm-3.58,7.41c-.56.43-1.35.32-1.78-.23-.43-.56-.32-1.35.23-1.78.56-.43,1.35-.32,1.78.23.43.56.32,1.35-.23,1.78Z"/><path class="cls-7" d="m190.82,47h-.02c.2-.57-.05-1.18-.57-1.45h0s-8.99-3.71-8.99-3.71l-.68,1.64,8.19,3.37-.7,1.71-2.82-1.16.45-1.1-2.09-.86-.45,1.1-3.69-1.52-.67,1.63,2.28.94c-.58.28-1.05.74-1.31,1.38-.69,1.68.37,3.71,2.38,4.54,2.01.83,4.19.13,4.88-1.54.26-.64.26-1.29.04-1.9l2.14.88.67-1.63h0s.95-2.31.95-2.31Zm-8.03,4.92c-.86-.35-1.26-1.33-.91-2.19.35-.86,1.33-1.26,2.19-.91.86.35,1.26,1.33.91,2.19-.35.86-1.33,1.26-2.19.91Z"/><path class="cls-7" d="m153.71,40.57v-.04s0,0,0,0c-.08-.62-.63-1.08-1.26-1.03h0s-5.18.43-5.18.43l.15,1.77,4.28-.37.19,2.08c.21,2.47-1.3,3.73-3.29,3.9l-.92.09.15,1.77,1.15-.1c2.85-.24,5.28-2.25,4.96-5.96l-.22-2.52h0s0,0,0,0Z"/><path class="cls-7" d="m156.73,39.13c-.62.09-1.08.64-1.02,1.27h0s.74,8.65.74,8.65l1.96-.17-.69-8.08,1.7-.15-.15-1.77-2.55.22v.02Z"/><rect class="cls-7" x="168.39" y="42.64" width="1.76" height="11.03" transform="translate(99.07 209.53) rotate(-82.37)"/><path class="cls-7" d="m170.05,42.42c.77.99,2.17,1.75,3.88,2.05l1.21.19.23-1.74-1.32-.21c-1.66-.33-2.81-1.17-2.63-2.48l.09-.67-.15-.02-1.8-.24-.15-.02-.09.67c-.18,1.31-1.51,1.82-3.19,1.7l-1.39-.15-.23,1.74,1.28.15c1.72.16,3.28-.21,4.28-.96Z"/><path class="cls-7" d="m197.74,58.69c-1.52-1.72-1.53-3.74.39-6.45l.48-.68s.04-.06.07-.09l.29-.41h0s0,0,0,0l-.85-.6-.85-.6h0s0,0,0,0l-.29.41s-.04.06-.06.09l-.48.68c-1.92,2.71-3.83,3.37-5.96,2.51l-.93,1.67c1.68.89,3.39.99,5.14.08-.28,1.95.39,3.54,1.78,4.82l.02.02.28.27-.57.8,1.61,1.14,4.69-6.61,1.4.99,1.03-1.45-2.05-1.45h0c-.52-.34-1.22-.22-1.6.27h-.01s-3.38,4.76-3.38,4.76l-.15-.16Z"/><path class="cls-7" d="m104.78,142.03l7.46-5.4,1.8,2.48c.62.86.92,1.64.9,2.33-.02.7-.37,1.29-1.04,1.77-.37.26-.75.41-1.16.43s-.79-.08-1.15-.3c.17.43.18.86.04,1.28-.14.42-.42.78-.84,1.09-.72.52-1.42.7-2.1.53-.68-.17-1.32-.65-1.91-1.45l-2-2.76Zm4.31-.89l-2.01,1.46.91,1.25c.25.34.53.55.84.62.31.07.62,0,.92-.23.68-.49.79-1.08.31-1.76l-.97-1.34Zm1.09-.79l.78,1.08c.55.73,1.12.87,1.73.43.34-.24.51-.51.53-.81.01-.29-.13-.64-.42-1.04l-.74-1.02-1.88,1.36Z"/><path class="cls-7" d="m115.29,151.83l-2.2-2.27-1.78.89-1.33-1.38,8.88-4.07,1.16,1.2-4.33,8.76-1.33-1.38.94-1.76Zm-.76-2.99l1.52,1.57,1.71-3.19-3.23,1.62Z"/><path class="cls-7" d="m122.56,157.3c.22-.28.29-.57.22-.87-.07-.3-.29-.72-.65-1.28-.36-.55-.63-1.02-.79-1.41-.44-1.06-.37-1.96.22-2.72.3-.39.68-.66,1.13-.81.45-.15.94-.15,1.47-.02.53.13,1.04.39,1.53.77.49.38.86.82,1.1,1.31.24.49.33.99.28,1.5-.05.51-.25.98-.59,1.42l-1.42-1.1c.26-.33.36-.67.3-1.01-.06-.34-.26-.65-.63-.93-.35-.27-.68-.4-.99-.4-.31,0-.57.13-.76.39-.18.24-.22.52-.12.86.1.34.32.74.65,1.23.61.89.96,1.66,1.03,2.33.08.67-.11,1.28-.54,1.85-.49.63-1.1.95-1.83.96-.73,0-1.48-.29-2.25-.88-.53-.41-.94-.89-1.22-1.43-.28-.54-.39-1.08-.35-1.62.05-.53.25-1.04.62-1.51l1.43,1.11c-.62.8-.48,1.56.43,2.27.34.26.66.4.96.4.3,0,.55-.13.76-.39Z"/><path class="cls-7" d="m129.3,160.16l-1.34.46-1.3,2.29-1.57-.89,4.53-8.02,1.57.89-2.06,3.64,1.25-.61,3.43-1.54,1.93,1.09-4.72,2.03.26,6.03-1.87-1.06-.14-4.32Z"/><path class="cls-7" d="m140.32,164.87l-3.23-1.25-.89,2.3,3.79,1.47-.55,1.42-5.47-2.12,3.33-8.59,5.46,2.12-.56,1.43-3.78-1.47-.79,2.05,3.23,1.25-.54,1.39Z"/><path class="cls-7" d="m151.08,163.83l-2.62-.59-1.69,7.49-1.76-.4,1.69-7.49-2.58-.58.34-1.5,6.95,1.57-.34,1.5Z"/><path class="cls-7" d="m152.63,171.77l.67-9.19,3.06.22c1.06.08,1.85.35,2.36.82.52.47.75,1.11.68,1.94-.03.45-.17.84-.42,1.17-.25.33-.57.56-.97.69.44.15.77.41,1.01.79.23.38.33.82.29,1.34-.06.88-.38,1.53-.95,1.95-.57.41-1.35.59-2.34.53l-3.39-.25Zm2.09-3.87l-.18,2.48,1.54.11c.42.03.76-.05,1.02-.25.25-.19.39-.48.42-.85.06-.84-.32-1.3-1.15-1.37l-1.65-.12Zm.1-1.34l1.33.1c.91.05,1.39-.3,1.44-1.04.03-.42-.06-.72-.28-.92-.22-.2-.57-.32-1.07-.35l-1.26-.09-.17,2.32Z"/><path class="cls-7" d="m166.8,170.01l-3.15.22-.47,1.94-1.91.13,2.6-9.42,1.67-.12,3.92,8.96-1.91.14-.74-1.85Zm-2.78-1.35l2.18-.15-1.34-3.36-.84,3.52Z"/><path class="cls-7" d="m173.52,169.39l3.74-.8.32,1.49-5.51,1.17-1.92-9.01,1.76-.38,1.6,7.52Z"/><path class="cls-7" d="m181.45,167.26l3.61-1.27.5,1.44-5.31,1.86-3.05-8.69,1.7-.6,2.54,7.25Z"/><path class="cls-7" d="m196.2,158.33c.45.89.55,1.73.3,2.55-.25.81-.81,1.48-1.69,2-.96.57-1.93.69-2.89.33-.96-.35-1.8-1.13-2.51-2.32l-.29-.48c-.45-.76-.73-1.51-.82-2.24-.09-.73,0-1.39.3-1.99s.75-1.07,1.37-1.45c.87-.52,1.71-.69,2.53-.52.82.17,1.54.68,2.15,1.51l-1.55.92c-.34-.49-.7-.78-1.07-.87-.37-.09-.79,0-1.27.29-.52.31-.79.73-.81,1.28-.02.54.2,1.23.69,2.05l.36.6c.51.86,1.01,1.41,1.49,1.65.48.25.99.21,1.52-.1.48-.29.77-.61.87-.98.1-.37.02-.81-.23-1.31l1.55-.92Z"/><path class="cls-7" d="m200.84,156.75l2.98-2.4.96,1.19-4.38,3.54-5.78-7.17,1.4-1.13,4.83,5.98Z"/><path class="cls-7" d="m204.4,142.8l4.38,4.2c.73.7,1.1,1.47,1.11,2.3,0,.84-.35,1.63-1.06,2.38-.71.74-1.47,1.13-2.3,1.17-.83.04-1.6-.28-2.33-.96l-4.43-4.25,1.25-1.3,4.39,4.21c.44.42.85.62,1.24.62.39,0,.75-.19,1.09-.54.7-.73.65-1.49-.15-2.28l-4.43-4.24,1.25-1.31Z"/><path class="cls-7" d="m213.2,146.57l-7.52-5.32,1.77-2.5c.61-.87,1.25-1.4,1.92-1.6.67-.2,1.34-.06,2.01.41.37.26.63.58.78.96.15.38.18.77.09,1.19.36-.3.75-.45,1.2-.45.44,0,.87.14,1.3.44.72.51,1.12,1.12,1.18,1.82.06.7-.19,1.46-.76,2.28l-1.96,2.78Zm-3.33-4.56l.77-1.09c.51-.75.46-1.34-.15-1.78-.34-.24-.65-.32-.94-.24-.28.08-.57.33-.85.73l-.73,1.03,1.9,1.34Zm1.1.77l2.03,1.44.89-1.26c.25-.35.35-.68.31-1-.04-.32-.21-.58-.51-.8-.69-.49-1.28-.4-1.77.27l-.95,1.35Z"/><path class="cls-7" d="m301.55,65c-14.51,5.88-30.95,10.87-48.61,14.5-1.01.21-2.02.39-3.03.59l-11.61-.46c-1.09-.04-2.31-.09-3.6-.14,19.81-4.82,38.25-11.08,52.82-18.14,4.77-2.31,8.94-5.6,12.22-9.65,9.75-12.04,15.14-25.12,16.36-37.42.04-.41-.49-.61-.74-.28-15.61,20.38-50.26,41.69-93.39,55.24-5.98,1.88-11.91,3.53-17.76,4.98-.14.03-.27.07-.41.1-7.54,1.69-16.77,3.03-27.07,3.87h0c-1.96.16-3.82.9-5.27,2.12l-.4-2.2h-20.55s-.4,2.2-.4,2.2c-1.51-1.26-3.45-2.01-5.5-2.13-10.25-.84-19.44-2.18-26.95-3.86-.14-.03-.27-.07-.41-.1-5.85-1.45-11.78-3.1-17.76-4.98C56.37,55.68,21.72,34.37,6.1,13.99c-.25-.33-.78-.13-.74.28,1.22,12.3,6.61,25.38,16.36,37.42,3.28,4.05,7.46,7.34,12.22,9.65,14.57,7.06,33.01,13.32,52.82,18.14-1.77.07-3.74.15-5.93.23l-9.27.37c-1.01-.2-2.02-.38-3.03-.59-17.66-3.63-34.1-8.62-48.61-14.5-.15-.06-.31.06-.28.22,1.32,8.32,9.37,16.5,21.98,23.42,3.51,1.92,7.32,3.25,11.28,3.86,3.93.6,7.95,1.11,12.04,1.52,4.76.47,9.43.76,14.01.92l.21.4-.36,2.45c-14.06.93-27.43.52-39.34-1.05-.16-.02-.29.15-.21.3,3.27,6.38,11.12,11.15,22.08,14.06,3.11.83,6.37.98,9.56.52,2-.29,4.01-.61,6.04-.96l-.5,3.42c-5.48,1.39-10.86,2.53-16.1,3.42-.16.03-.23.22-.12.34,3.15,3.45,8.23,5.64,14.71,6.61l-2.21,15.21,8.49-2.01c2.22-.52,4.47-1.03,6.69-1.51l4.09-.88,1.61-11.69c1.68-1.28,3.41-2.56,5.15-3.83.18,1.86,1,3.59,2.35,4.91,1.6,1.56,3.77,2.4,6.12,2.4.46,0,.92-.03,1.39-.1,4.6-.64,9.26-1.19,13.84-1.66,0,0,6.72-.62,7.01-.64,2.53-.21,5.1-.39,7.67-.55l4.24-.24c1.67-.08,3.33-.16,5-.22l2.81-.09c2.25-.07,4.5-.12,6.75-.15l4.88-.06,4.87.06c2.25.03,4.52.08,6.74.15,0,0,5.99.23,6.27.24,3.71.17,7.48.41,11.2.69.27.02.54.03.81.03,1.68,0,3.27-.42,4.65-1.18,1.5,1.15,3.35,1.92,5.39,2.14,4.39.46,8.84,1.01,13.23,1.63.48.07.96.1,1.43.1.54,0,1.06-.05,1.57-.14,1.05,3.62,4.38,6.63,8.4,7.41,4.85.92,9.76,1.97,14.59,3.11l8.48,2-2.19-15.09c6.62-.96,11.82-3.15,15.02-6.66.11-.12.04-.31-.12-.34-5.34-.91-10.83-2.08-16.42-3.5l-.49-3.39c2.13.37,4.26.72,6.36,1.02,3.19.46,6.44.3,9.56-.52,10.97-2.91,18.82-7.68,22.08-14.06.08-.15-.05-.32-.21-.3-12.38,1.63-26.33,2.02-41.02.94l1.43-2.73c4.61-.16,9.32-.45,14.1-.93,4.1-.4,8.12-.91,12.04-1.52,3.95-.61,7.77-1.93,11.28-3.86,12.61-6.91,20.66-15.09,21.98-23.42.02-.16-.13-.28-.28-.22Z"/><path class="cls-1" d="m155.48,83.41c-2,11.16-4.15,22.35-6.45,33.61,2.28-.07,4.55-.12,6.83-.15.32-1.95.65-3.91.96-5.86,2.65-.02,5.29-.02,7.94,0,.32,1.95.64,3.9.97,5.86,2.28.03,4.55.08,6.83.15-2.31-11.26-4.46-22.45-6.46-33.61-3.54,0-7.08,0-10.62,0Zm2.33,21.91c1.03-4.77,2.02-9.54,2.98-14.3.96,4.76,1.96,9.53,2.98,14.3-1.99-.01-3.98-.01-5.96,0Z"/><path class="cls-5" d="m144.04,83.47c-4.2.03-8.4.08-12.6.14-1.78.02-3.33,1.29-3.45,2.82-.74,9.75-1.48,19.5-2.21,29.25-.12,1.53,1.35,2.63,3.28,2.47,2.59-.21,5.17-.4,7.76-.56,1.27-.43,2.53-.85,3.79-1.27.17.34.34.68.51,1.02,1.69-.09,3.37-.16,5.06-.22.2-6.22.41-12.43.61-18.65-2.91.06-5.82.14-8.72.24-.77,1.78-1.55,3.58-2.34,5.38,1.27-.06,2.55-.11,3.82-.16-.13,2.71-.26,5.41-.39,8.12-1.98.1-3.96.21-5.94.34.48-7.88.96-15.76,1.44-23.64,1.91-.04,3.82-.08,5.73-.11-.11,2.21-.21,4.42-.32,6.63,2.33-1.28,4.65-2.55,6.95-3.79.06-1.78.12-3.55.17-5.33.05-1.48-1.37-2.67-3.15-2.66Z"/><path class="cls-9" d="m236.03,106.26c-3.51-2.66-7-5.2-10.45-7.63-.34-2.64-.68-5.29-1.01-7.93,1.59.09,11.02.85,12.58.96,1.19-2.15,2.36-4.36,3.52-6.61-3.96-.16-17.29-.7-19.84-.77-1.78-.05-3.07,1.25-2.88,2.9.54,4.5,1.07,9.01,1.61,13.51.09.8.56,1.39,1.18,1.86,3.68,2.57,7.41,5.26,11.16,8.08.57,4.25,1.13,8.49,1.7,12.74-1.69-.32-3.39-.64-5.09-.94-.24-1.86-.47-3.72-.71-5.58-4.6-3.17-6.86-4.61-6.86-4.59.48,4.04.96,8.08,1.45,12.13.19,1.65,1.92,3.27,3.86,3.64,4.94.94,9.87,1.99,14.78,3.15-1.03-7.39-2.06-14.78-3.1-22.16-.19-1.36-1.24-2.25-1.9-2.76Z"/><path class="cls-11" d="m192.68,103.41c-.08-1.16-1.08-1.87-1.71-2.27-3.36-2.09-6.68-4.12-9.96-6.1-.1-2.02-.19-4.03-.29-6.05,1.59.03,3.19.06,4.78.09.04.63.07,1.27.11,1.9,2.14,1.3,4.29,2.62,6.46,3.97-.21-2.86-.41-5.72-.61-8.58-.11-1.52-1.65-2.78-3.44-2.8-3.5-.05-7-.08-10.5-.11-1.79-.01-3.2,1.18-3.15,2.66.12,3.7.24,7.4.37,11.1.02.71.44,1.22,1.02,1.61,3.5,2.08,7.04,4.21,10.63,6.41.14,2.33.27,4.66.41,6.99-1.7-.1-3.39-.19-5.09-.28-.05-1.13-.11-2.26-.16-3.39-4.4-2.39-6.55-3.51-6.55-3.49.1,3.12.21,6.24.31,9.35.05,1.48,1.65,2.74,3.59,2.83,3.78.18,7.57.41,11.35.7,1.93.15,3.41-.95,3.3-2.47-.29-4.03-.58-8.06-.86-12.09Z"/><path class="cls-3" d="m108.28,86.99c-1.16,10.35-2.32,20.69-3.47,31.04-.18,1.63,1.22,2.71,3.15,2.44,4.66-.64,9.33-1.2,14.01-1.68.16-1.91.31-3.82.47-5.73-3.52.31-7.03.66-10.53,1.06.37-3.61.73-7.22,1.1-10.83,2.46-.2,4.92-.39,7.38-.56.82-1.98,1.63-3.95,2.44-5.91-3.08.16-6.15.33-9.22.53.25-2.52.51-5.04.77-7.55,3.34-.14,6.68-.26,10.02-.36.16-1.91.31-3.82.47-5.73-4.34.08-8.68.16-13.02.27-1.78.04-3.38,1.39-3.56,3.01Z"/><path class="cls-2" d="m213.89,84.08c-2.26-.06-4.51-.11-6.77-.16,1.04,10.18,2.08,20.36,3.13,30.53-1.91-.22-3.81-.43-5.72-.62-.93-10.01-1.85-20.02-2.78-30.03-2.26-.04-4.52-.09-6.77-.12.85,10.74,1.7,21.47,2.55,32.21.15,1.51,1.8,2.88,3.7,3.08,4.48.47,8.94,1.03,13.4,1.66,1.92.27,3.32-.81,3.14-2.44-1.29-11.37-2.58-22.74-3.87-34.11Z"/><path class="cls-8" d="m101.55,84.24c-2.86.08-17.96.69-20.77.8,1.16,2.25,2.33,4.45,3.52,6.61,1.48-.1,11.69-.91,13.1-.99-.72,5.68-1.44,11.37-2.16,17.05-1.97,1.44-3.95,2.93-5.95,4.45.65-4.91,1.31-9.81,1.96-14.72-2.16.19-4.32.39-6.48.6l-4.65,33.22c2.26-.53,4.52-1.05,6.78-1.53.44-3.32.89-6.64,1.33-9.96,3.29-2.54,6.55-4.97,9.78-7.31,1.96-1.45,3.77-2.79,4.06-5.32.79-6.66,1.57-13.33,2.36-19.99.19-1.64-1.1-2.94-2.88-2.89Z"/></svg>