<?xml version="1.0" encoding="utf-8"?>
<!-- Generator: Adobe Illustrator 27.9.4, SVG Export Plug-In . SVG Version: 9.03 Build 54784)  -->
<svg version="1.1" id="Layer_1" xmlns="http://www.w3.org/2000/svg" xmlns:xlink="http://www.w3.org/1999/xlink" x="0px" y="0px"
	 viewBox="0 0 165.6 165.6" style="enable-background:new 0 0 165.6 165.6;" xml:space="preserve">
<style type="text/css">
	.st0{fill:#231916;}
	.st1{fill:#FDBB30;}
</style>
<g>
	<path class="st0" d="M37.8,109.1c-0.8-0.5-1.9-1.6-2.5-2.8c-0.5,1.2-1.6,2.4-2.4,2.9l-1.1-1.1c1.2-0.7,2.7-2.2,2.7-5v-2.7h1.6v2.7
		c0,2.8,1.6,4.2,2.6,4.8L37.8,109.1L37.8,109.1z M39.7,111.1v-6.2h-2v-1.6h2v-3.5h1.5v11.3C41.2,111.1,39.7,111.1,39.7,111.1z"/>
	<path class="st0" d="M52.1,105.5H48v0.7h3v3h-5.9v0.5h6.1v1.3h-7.8v-3h5.9v-0.6h-5.9v-1.2h3v-0.7h-4.2v-1.3h10L52.1,105.5
		L52.1,105.5z M51.2,101.6c0,1.3-1.5,2-4,2s-4-0.7-4-2c0-1.2,1.5-2,4-2S51.2,100.5,51.2,101.6z M49.5,101.7c0-0.4-0.9-0.8-2.3-0.8
		s-2.3,0.3-2.3,0.8s0.9,0.7,2.3,0.7S49.5,102.1,49.5,101.7L49.5,101.7z"/>
	<path class="st0" d="M58.2,105.9c-0.8-0.4-1.8-1.2-2.4-2.2c-0.5,1-1.4,1.8-2.3,2.4l-1.1-1.2c1.3-0.6,2.6-2.2,2.6-3.6v-1.4h1.6v1.4
		c0,1.4,1.3,2.8,2.5,3.2L58.2,105.9L58.2,105.9z M54.2,111v-4.3h7.2v4.3H54.2z M59.9,108.2h-4.2v1.3h4.2V108.2z M61.4,103.7v2.4
		h-1.5v-6.4h1.5v2.5h1.3v1.5L61.4,103.7L61.4,103.7z"/>
	<path class="st0" d="M68.4,105.9c-0.8-0.4-1.8-1.2-2.4-2.2c-0.5,1-1.4,1.8-2.3,2.4l-1.1-1.2c1.3-0.6,2.6-2.2,2.6-3.6V100h1.6v1.4
		c0,1.4,1.3,2.8,2.5,3.2L68.4,105.9L68.4,105.9z M68.2,111.3c-2.4,0-3.9-1-3.9-2.4c0-1.4,1.5-2.4,3.9-2.4s3.9,1,3.9,2.4
		C72.1,110.3,70.6,111.3,68.2,111.3z M68.2,107.9c-1.3,0-2.3,0.4-2.3,1s1,1.1,2.3,1.1s2.3-0.4,2.3-1
		C70.5,108.3,69.5,107.9,68.2,107.9z M70.4,106.4v-3.2h-1.9v-1.5h1.9v-1.9h1.5v6.6C71.9,106.4,70.4,106.4,70.4,106.4z"/>
	<path class="st0" d="M79.3,106.5c-0.4-0.3-1-0.9-1.4-1.8c-0.3,0.8-0.9,1.5-1.4,1.8c-0.4-0.2-1-0.9-1.5-1.8
		c-0.3,0.7-0.9,1.4-1.5,1.8l-1-1.2c0.8-0.6,1.7-1.7,1.7-3.7V100h1.5v1.5c0,2,0.6,2.6,0.7,2.8c0.1-0.1,0.7-0.6,0.7-2.8V100h1.5v1.5
		c0,1.9,0.7,3,1.4,3.5L79.3,106.5L79.3,106.5z M74.8,110.9v-3.6h1.5v2.1h6.1v1.5H74.8z M80.8,108v-4.6h-1.3v-1.5h1.3v-2.1h1.4v8.2
		L80.8,108L80.8,108z"/>
	<path class="st0" d="M89.5,108.3c-0.1,0-2.2,0.4-3.9,0.4h-1.7V101h4.8v1.5h-3.3v4.7h1c0.9,0,3.1-0.3,3.1-0.3
		C89.5,106.8,89.5,108.3,89.5,108.3z M92.1,111.1h-1.5v-5.9H88v-1.5h2.6v-3.9h1.5V111.1z"/>
	<path class="st0" d="M93.2,109.8v-1.5h10v1.5H93.2z M101.8,106.9c-1.1-0.3-2.8-1.6-3.6-2.9c-0.7,1.3-2.4,2.5-3.6,2.9l-1-1.2
		c1.9-0.7,3.7-2.2,3.7-4.2v-1.1H99v1.1c0,2,1.7,3.4,3.7,4.2L101.8,106.9z"/>
	<path class="st0" d="M113.4,106.1h-10v-1.5h4.1v-1.2h-2.9v-3.5h1.5v2.1h6.2v1.4h-3.1v1.2h4.2V106.1z M112.5,108.9
		c0,1.4-1.5,2.3-4.1,2.3s-4.1-1-4.1-2.3c0-1.4,1.5-2.3,4.1-2.3S112.5,107.5,112.5,108.9z M110.7,108.9c0-0.6-1-0.9-2.3-0.9
		s-2.3,0.3-2.3,0.9c0,0.7,0.9,1,2.3,1S110.7,109.6,110.7,108.9z"/>
	<path class="st0" d="M119.2,106.4v4.7h-1.6v-4.7h-4V105h6.8c0.2-0.7,0.4-2.2,0.4-3.2h-6.2v-1.5h7.9c0,2-0.5,4.2-0.6,4.7h1.6v1.5
		C123.6,106.4,119.2,106.4,119.2,106.4z"/>
	<path class="st0" d="M130.3,105.6c-0.7,0.1-2.6,0.4-4.1,0.4h-1.9v-5.6h5.2v1.5h-3.7v2.6h1.2c0.8,0,2.7-0.2,3.3-0.3
		C130.3,104.1,130.3,105.6,130.3,105.6z M132.8,110.9h-7.4V107h1.5v2.4h5.9V110.9z M133.9,104.6h-1.4v3.4H131v-8.2h1.5v3.3h1.4
		V104.6z"/>
	<path class="st0" d="M133.5,90.9l-1,0.7l-0.9-0.8c-1.2-1-3-1.9-4.8-3c-1.8-1.1-3.6-2.3-4.8-4.4l0,0v0c-0.8-1.7-1.5-3.8-1.5-3.8
		l-0.5-1.5h-3.5c0.3,1.1,0.6,2,0.7,2.2l0.9,2.5v3.8h-11c-1.1,0.8-2.2,1.2-3,1.6c-0.6,0.2-0.9,0.5-1,0.6l-1.4,1.5l-1.3-1.5
		c-0.5-0.6-1.1-1-2-1.4c-0.3-0.2-0.8-0.4-1.2-0.7h-8.6c0,0-0.1,0.1-0.1,0.1c-0.9,0.8-2,1.1-3,1.1c-0.7,0-1.3-0.1-1.9-0.3l-0.1,0
		l-0.1,0c-0.6-0.2-1.1-0.5-1.6-0.9H64.3c-1.4,1.4-3.6,3.2-7.2,4.8l-2.3,1.1c0.4-1.8-0.9-3.5-0.9-3.5c-0.1-0.2-0.6-0.7-1.2-1.2
		c-0.1-0.1-0.3-0.2-0.4-0.3H41.9c-0.3,0.3-0.6,0.6-0.9,0.8c-0.7,0.5-1.4,0.9-2,1.2c-1.1,0.5-2.1,0.8-2.4,0.8l0,0c0,0-0.1,0-0.2,0.1
		c0,0-2.9,1.3-2.8,3.7l-2-1.6c-6.5-6.8-5-13.4-4.2-15.2c0,0,0.3-0.8,1-1.9C18.3,77.2,0,64.4,0,64.4v-3.8c18.7,4.3,32.6,3.2,32.6,3.2
		h0.2c0.7-1.7,1.6-4.1,1.6-4.1l0.5-1.2H44l0,0c0,0,6.5-1.1,10-4.3L52,59.2c-0.3,0.8-0.7,1.7-1,2.5c0.2,0,0.4,0,0.6,0
		c0.3,0,0.7,0,1,0.1l22.1,0.1c0.8-0.3,1.6-0.4,2.4-0.4H77c1.5,0,2.9,0.7,3.8,1.8c0.2,0.2,0.3,0.4,0.4,0.7c0.1-0.1,0.1-0.1,0.2-0.2
		c0.6-0.7,1.6-1.3,2.6-1.5c0.4-0.1,0.7-0.1,1.1-0.1c0.7,0,1.2,0.1,1.8,0.3c0-0.2,0-0.5,0-0.7c0-0.5,0-1,0-1.3l0.1-1.5l1.5-0.3
		c0.5-0.1,0.8-0.1,1.3-0.4c0.5-0.2,1.3-0.6,2.6-1.5l3-1.9l-0.1,3.5c0,0.7,0,2.4,0,4.6c0.6-0.4,1.2-0.7,1.9-0.9
		c0.6-0.2,1.3-0.3,2-0.3c1.3,0,3,0.3,4.6,1.2l-0.3-1.1h8.4l0.1,0.3c0.6-0.2,1.2-0.3,1.9-0.3c0.5,0,1.1,0.1,1.6,0.2l0.1,0l0.1,0
		c0.9,0.3,1.7,0.8,2.3,1.4c0.1-0.2,0.3-0.5,0.4-0.7c0.7-1,1.8-1.6,3.1-1.8c0.7-0.1,1.3-0.2,2.1-0.2c2.2,0,4.8,0.5,7.3,2.1
		c0.4,0.2,0.8,0.5,1.1,0.8c0.4,0,0.9,0,1.4,0c0,0,21.2,0.1,32.3-3.2v3.8c0,0-13.6,9.3-28.5,10.6c0,0,1.8,3.6,2.3,5
		S141.6,85.3,133.5,90.9L133.5,90.9z"/>
	<path class="st1" d="M93.5,78.9c-0.2-0.8-0.2-17.8-0.2-20.6c-2.7,1.7-3.5,1.9-4.6,2.1c0,1.3,0,4.4,0,5.8c-0.7-1-1.3-1.4-1.6-1.6
		c-0.8-0.5-1.7-0.8-2.8-0.6c-2.6,0.5-2.8,4-3,7.3c-0.2,4.2-0.9,9.2,2.5,10.4c2.1,0.6,3.7,0.1,4.3-2.5c0.1,0.7,0.3,1.1,0.8,1.5h5.8
		C94.8,80.8,93.9,80.6,93.5,78.9L93.5,78.9z M88.4,70.2l-0.1,5.4c-0.1,2.1-1.5,1.8-1.5,1.8c-1.1-0.2-0.9-1.8-0.9-1.8l0.2-5.5
		c0-2.4,1.2-2.2,1.2-2.2C88.5,67.9,88.4,70.2,88.4,70.2L88.4,70.2z M51.5,63.6c-1.5,0-2.3,0.8-2.8,1.2c-0.6,0.5-0.7,0.5-1.7,1.6
		c0.9-2.1,2-5.2,3.1-7.9c-2.3,1.2-3.3,1.4-5.3,1.9l-1.7,4.2c-1.5,0-1.9,0-3.6,0c0.7-1.7,1.6-4.1,1.6-4.1h-5.1c0,0-1.3,3.4-2,5
		l-0.1,0.3c-1.4,0-9.1,0-12.6-0.2c-5.3-0.3-13.3-1.5-13.3-1.5c3.7,1.6,7.5,3.4,13.3,4.7c6.7,1.8,9.5-0.8,9.5-0.8s1.4-1.4,1.9-1
		c0.2,0.1,0.3,0.2,0.3,0.5l-0.2,0.5c-1.6,3.5-4.1,9.6-4.1,9.6s-2,4.9,3.6,9.3c0.6-1.6,3.4-2.5,3.4-2.5s4.2-1,5-3.1
		c0,0,3.5-8.2,4.9-12c0.6-1.2,1.7-1.2,1.7-1.2s1,0,0.5,1.4c-1.1,2.8-2.9,8.4-4.3,12h5.1c1.5-4.1,3.6-10.4,4.9-13.8
		C54.2,66.3,54,63.6,51.5,63.6L51.5,63.6z M35.4,82.4c0,0-2.9-0.6-1.7-3.8l4-9.5h3.3C41.1,69.1,35.4,82.4,35.4,82.4z M101.9,74.1
		c0.1,0.9,0.3,3,0.1,3.9c-0.2,0.8-0.3,1-1,1c-1.7-0.3-1.7-6.7-1.7-6.7c2.5,0,4.5,0,7.1,0c-0.2-2.4-0.6-5.3-1.9-6.5
		c-2.4-2.3-5.8-2.4-6.9-1.9c-2.1,0.5-2.9,2.2-3.1,4.1c-0.3,2.9,0.1,6.4,1.1,10.1c0.9,3.4,3.9,3.1,5.9,5.4c2-2.1,7.6-1.1,5.1-9.4
		C104.7,74.2,103.2,74.1,101.9,74.1L101.9,74.1z M99.6,66.1c0.4-0.2,1.3-0.1,1.5,0.8c0.2,1.2,0.3,2,0.3,3.1h-2.3
		C99,68.8,98.8,66.6,99.6,66.1z M115,63.9c-2-0.5-3.8,0.3-4.1,1.7c-0.2-0.6-0.3-1.2-0.5-1.9h-4.4c1.2,4.2,2.9,13,4.1,17h5.3
		c-0.3-1-2.7-9.1-3.5-12.1c-0.1-1.7,1.4-1.7,2-0.8c0.8,2.3,1.1,2.5,1.7,4.4h4.7C119.3,69.5,118,65,115,63.9L115,63.9z M79.3,78.9
		L80,67.4c0.2-2.1-0.8-4-3-4c-1.5,0-2.8,0.5-4.1,1.8c0,0,0.2-0.7,0.3-1.4H62.9l-2.2,8.8c-0.6,2.3-1.4,6.8-3,7.5
		c-0.8-0.7-0.9-1.3-0.6-2.6c0,0,2.7-10.8,3.4-13.8h-6.1c0,0,1.2,0.8,0.9,2.8c-0.1,1-2.9,8.9-3.7,12.3c-0.5,2.3,2.5,3.7,3.6,5.2
		c0.4,0.6,0.9,1.1,1,1.8c6.9-3.1,8.2-6.5,8.2-6.5s1.3-8.1,2.7-13.5c0.4-0.9,0.9-1.6,1.7-1.9c-0.8,4.9-3,16.9-3,16.9H71
		c0.7-4.4,1.1-6.8,1.8-11.8c0.1-0.6,0.5-1.1,1.4-1c0.7,0.1,1.1,0.7,1,1.3c-0.6,3.7-1.1,7.6-1.6,11.5h7.1
		C79.2,80.3,79.3,79,79.3,78.9L79.3,78.9z M133.8,73.8c-1.4-1.1-2.8-1.9-5.4-3.2c-1.6-1-4-1.8-4.4-3.6c-0.2-1,0.8-1.2,1.8-1
		c1.9,0.7,2,2.2,2.5,3.2c1.5,0.6,3.6,1.2,4.3,0.1c0.3-0.4,0.3-0.9,0.1-1.7c0,0,0-0.1-0.1-0.3c2.4,0.1,2.6,1.5,3.1,2.1
		c7.1-0.6,14.3-1.9,21-5.6c-6.3,1.2-18,2-25.4,1.9c-0.3-0.3-0.9-0.8-1.3-1c-2.8-1.7-5.8-2-8.1-1.7c-2.3,0.4-2.8,2.5-2.2,4.7
		c1.2,4.4,7.3,5.9,10.6,8.5c0.9,0.5,1.8,2.6,0.8,3c-0.6,0.4-1.5,0.1-2.2-0.6c-1.1-1.1-1.2-2.2-1.8-3.4l-4.7,0c0,0,0.7,2.1,1.4,3.6
		c1.6,3.1,6.2,4.5,9,6.8c2.5-1.3,4.9-3,4.7-4.9C137.2,79.7,135.7,75.2,133.8,73.8L133.8,73.8z"/>
</g>
</svg>
