<svg viewBox="0 0 24 24" fill="none" xmlns="http://www.w3.org/2000/svg">
<path d="M13.75 4.3H10.25M8.66333 1H15.3367C16.5774 1 17.1978 1 17.6766 1.2168C18.1549 1.43327 18.5404 1.79687 18.77 2.24767C19 2.69916 19 3.28411 19 4.454V19.546C19 20.7159 19 21.3008 18.77 21.7523C18.5404 22.2032 18.1549 22.5667 17.6766 22.7832C17.1978 23 16.5774 23 15.3367 23H8.66333C7.42254 23 6.80214 23 6.32329 22.7832C5.84517 22.5667 5.45953 22.2032 5.22994 21.7523C5 21.3008 5 20.7159 5 19.546V4.454C5 3.28411 5 2.69916 5.22994 2.24767C5.45953 1.79687 5.84517 1.43327 6.32329 1.2168C6.80214 1 7.42254 1 8.66333 1Z" stroke="#181818" stroke-width="1.5" stroke-linecap="round" stroke-linejoin="round"/>
</svg>
