<svg xmlns="http://www.w3.org/2000/svg" id="icon" viewBox="0 0 72.48 54"><defs><style>.cls-1{fill:#999;stroke-width:0}</style></defs><path d="M72.02 25.87C71.59 24.81 61.23 0 36.24 0S.89 24.81.46 25.87L0 27l.46 1.13C.89 29.19 11.25 54 36.24 54s35.35-24.81 35.78-25.87l.46-1.13-.46-1.13ZM36.24 48C17.84 48 8.71 31.56 6.53 27 8.71 22.44 17.85 6 36.24 6s27.53 16.44 29.71 21c-2.18 4.56-11.32 21-29.71 21Z" class="cls-1"/><path d="M36.24 12c-8.27 0-15 6.73-15 15s6.73 15 15 15 15-6.73 15-15-6.73-15-15-15Zm0 24c-4.96 0-9-4.04-9-9s4.04-9 9-9 9 4.04 9 9-4.04 9-9 9Z" class="cls-1"/></svg>