<svg xmlns="http://www.w3.org/2000/svg" id="Layer_1" viewBox="0 0 315.25 197.22"><defs><linearGradient id="linear-gradient" x1="160.95" x2="160.95" y1="85.97" y2="121.93" gradientUnits="userSpaceOnUse"><stop offset="0" stop-color="#00a8de"/><stop offset="1" stop-color="#0071b5"/></linearGradient><style>.cls-3,.cls-5,.cls-6{stroke-width:0}.cls-3{fill:#231f20}.cls-5{fill:#f1932f}.cls-6{fill:#fff}</style></defs><path d="M137.27 165.17c.35-.94.63-2.03.79-3.31.79-6.19-1.38-17.15-16.19-34.6-.39-.51-37.37-48.52 7.15-102.15-8.67 3.49-16.83 8.36-24.21 14.55-18.26 15.31-29.43 36.82-31.49 60.57-.58 6.64-.42 13.18.42 19.62l.27-.1c18.86 23.04 40.03 38.22 63.26 45.42Z" class="cls-5"/><path d="M134.13 169.82c.07-.05.79-.61 1.62-1.75-20.24-6.96-41.36-20.64-61.48-44.83 2.37 13.87 8.03 27 16.69 38.43l.12-.15c.25.19 27.25 20.2 43.06 8.29ZM125.62 124.22c7.17 8.44 12.13 16.19 14.88 23.21V21.39c-2.75.69-5.48 1.51-8.15 2.48-43.85 51.3-8.15 98.49-6.73 100.35Z" class="cls-5"/><path d="M140.5 169.63c-1.64 2.79-3.47 4.08-3.54 4.12-14.63 11.01-34.3-1.55-42.68-7.92 11.97 14.03 27.6 23.84 45.1 28.43.31-.48.68-1.06 1.11-1.74v-22.89ZM142.84 162.69c-.19 1.41-.51 2.69-.91 3.81 3.63.96 7.29 1.72 11.02 2.28 13.79-31.04 29.72-86.07 10.3-150.05-7.75-.09-15.38.81-22.76 2.66v126.04c2.18 5.57 2.97 10.67 2.35 15.26ZM227.48 102.89c-7.42 33.09-38.18 48.51-40.88 49.83-9.82 5.23-14.56 11.55-15.94 17.33 5.23-.02 10.57-.41 15.98-1.14 27.85-3.76 49.11-16.08 54.69-19.61 5.37-10.29 8.72-21.66 9.76-33.59 3.15-36.3-16-69.49-46.08-86.01 19.6 26.73 27.77 49.56 22.45 73.18Z" class="cls-5"/><path d="M140.5 169.63v22.89c2.36-3.77 6.44-10.72 10.89-20.31-3.58-.66-7.21-1.53-10.88-2.61 0 0-.02.02-.02.03ZM165.53 176.35c-.13-.78-.22-1.58-.25-2.39-3.06-.18-6.15-.5-9.29-.97-4.76 10.74-9.19 18.42-11.66 22.41 3.33.67 6.72 1.16 10.13 1.47 10.23.87 20.35.03 30-2.44-6.2-2.13-17.06-7.25-18.93-18.09Z" class="cls-5"/><path d="M170.22 174.17c.02.52.05 1.03.12 1.53 1.26 9.77 14.52 16 18.24 17.56 11.22-3.45 21.74-9.16 31-16.96a89.08 89.08 0 0 0 16.69-18.5c-12.61 6.66-36.95 16.99-66.06 16.37ZM157.56 169.39c2.61.28 5.26.48 7.92.59 1.11-7.41 6.43-15.34 18.46-21.3l.15-.13.17-.06c.35-.16 31.96-15.67 39.56-47.17 5.36-22.04-2.03-46.68-21.98-73.28-9.7-4.83-20.46-7.96-31.9-8.96-1.51-.13-3.02-.22-4.53-.28 20.03 63.95 5.52 118.84-7.87 150.6ZM140.5 169.6v.04s.02-.02.02-.03h-.02ZM188.78 195.72v-.02s0 .01-.01.01h.01Z" class="cls-5"/><path d="M25.01 40.38c22.58 18.59 23.01 36.66 23.01 36.66 0 .3-9.48 54.24-9.61 54.94-4.22 17.79-38.41 49-38.41 49 11.57-3.95 91.13-31.77 125.66-32.42 3.42 1.45 7.1 2.6 11 3.35 3.13.63 6.38 1.01 9.66 1.16 4.56.2 11.39-.67 20.84-2.69 4.1-.22 7.06.21 8.05.71 8.5 4.3 20.96 9.72 32.17 11.3 5.74 1.14 12.49 1.98 20.56.48 0 0 5.3-1.23 7.68-2.12 3.04-1.16 8.88-3.34 8.88-3.34 10.86-3.56 25.74-4.69 38.02-.83-16.45-9.99-19.36-16.03-16.45-29.57 2.83-13.07-5.56-20.43-5.56-20.43 19.24-43.67 54.72-47.01 54.72-47.01-44.86-15.35-68.4-5.4-82.18.52-18.86 8.11-6.68-.86-6.68-.86-21.92 7.58-52.03 24.16-52.03 24.16s-23.37-15.08-48.32-12.21c13.22 7.2 8.92 10.37-1.3 5.39 0 0-54.85-25.83-99.73-36.19Z" class="cls-3"/><path d="M277.41 57.02c-9.97-.63-21.45 1.13-31.78 4.23-10.06 3.02-21.63 8.21-30.29 15.31 0 0-15.11 12.17-13.23 30.46.89 17.52 29.19 17.21 23.76 31.28-2.64 6.78-10.59 7.67-15.54 7.05 0 0-13.26-.62-14.96-11.6.98-13.66 2.56-33.74 3.32-43.4.03 0 .05-.04.05-.04 0-10.76 15-20.12 15-20.12-32.53 13.33-36.96 19.04-36.96 19.04l-4.03 48.79c-2.71-1.34-5.18-2.3-5.18-6.5l2.05-20.21-23.93-1.74s6.11 2.83 5.23 9.79c0 0-1.84 12.71-2.36 15.34-4.77.09-8.42-1.29-10.89-4.12-4.54-5.2-3.96-13.76-3.19-18.41 1.01-6.18 3.62-11 7.55-13.99 3.69-2.79 8.41-3.87 14.01-3.19 7.76.92 13.83 8.02 13.83 8.02s3.59-10.25.96-14.94c-2.63-4.7-30.8-12.3-30.8-12.3s11.19 4.6 2.94 7.22c-7.28 1.07-14.01 3.74-19.52 7.89-3.86 2.92-6.94 6.46-9.21 10.47-1.71.84-4.52 1.91-6.57 1.11l-20.7-3.52 2.04-18.76 17.12 5.51c7.04 3.44 4.56 6.69 4.56 6.69L122 82.51S75.56 61.15 43.98 52.79c0 0 14.61 10.28 12.43 23.35 0 0-8.22 49.31-9.65 57.85-2.27 13.69-18.19 27.85-21.53 30.68 16.51-5.64 67.18-21.97 101.41-22.19 3.32 1.53 7.01 2.72 11.03 3.51 2.78.54 5.7.9 8.75 1.04 4.86.23 12.84-1.17 19.78-2.66 2.68-.17 8.39-.31 11.66 1.35 7.56 3.81 19.82 9.29 30.46 10.72 7.67 1.56 15.76 2.1 25.84-1.57 10.27-3.77 18.57-11.19 23.06-20.67 4.67-9.86 2.93-16.89-3.13-22.98-4.81-4.83-11.19-6.86-17.51-8.99-.53-.18-7.26-2.6-7.63-7.57-.48-6 9.84-7.83 12.85-8.35 8.18-1.39 13.42 1.9 18.67 5.26 6.81-9.95 24.19-29.77 36.16-32.18-2.2-.45-8.17-1.86-19.24-2.34Zm-175.88 78-18.49.28 2.64-24.32 14.68 1.12c6.64.21 8.84 3.5 9.56 5.77-.04 4.02.71 7.71 2.18 11-1.33 2.77-4.24 6.16-10.57 6.16Z" style="fill:url(#linear-gradient);stroke-width:0"/><path d="m170.63 107.92 2.18-19.93c-16.78-13.22-38.54-14.39-38.54-14.39 10.97 4.66 9.95 7.07 9.95 7.08-.02.12-.16.81-1.61.96-14.76 1.29-24.66 10.38-27.48 15.76-2.51 4.52-7.09 3.72-7.09 3.72L88.5 97.77c.21-2.04 1.43-13.15 1.71-15.74 2.66.86 13.83 4.33 13.83 4.33 7.35 2.29 6.81 11.02 6.81 11.02 6.1-10.49 15.57-15.04 15.57-15.04-.47-.22-51.95-23.79-85.22-31.81 0 0 12.92 12.89 12.18 25.38l-9.63 57.85s-4.15 19.39-25 34.63c14.98-5.13 73.33-24.21 107.63-24.52 3.34 1.53 7.05 2.7 11.02 3.48 2.9.56 5.92.92 8.95 1.06 4.15.19 10.89-.71 20.02-2.67 2.33-.14 7.87-.3 10.85 1.21 8.22 4.16 20.24 9.42 30.83 10.85 7.02 1.41 14.88 2.33 26.31-1.63 11.23-3.93 20.11-11.52 25.01-21.38 4.86-9.77 3.72-17.59-3.56-24.58-5.09-4.87-15.82-8.39-18.08-9.25-2.98-1.14-8.83-2.35-7.74-6.85 1.14-4.72 7.74-7.11 12.35-7.17 8.62-.1 13.86 2.89 18.96 7.85 7.15-16.04 29.01-33.21 39.2-35.26-9.38-3.12-23.04-3.92-23.04-3.92-9.57-.24-21.03.92-32.26 4.3-6.97 2.09-19.32 6.89-29.42 15.56-.62.47-16.31 12.83-14.45 31.7.46 9.43 8.14 13.98 14.92 17.97 7.28 4.29 10.46 7 8.29 12.66-2.78 7.17-12.2 6.39-14.07 6.15h-.11c-.49-.01-13.62-.82-13.62-9.07.98-13.41 3.31-44.47 3.31-44.47s.85-10.9 17.21-22.79c-28.59 10.91-41.86 20.91-41.86 20.91s-3.55 40.91-3.88 45.07c-2.52-1.04-2.51-3.98-2.52-6.26.02-.23 2.13-17.35 2.13-17.35l-27.81-1.38c.28.08 6.24 4.62 6.24 9.71 0 .27-.01.56-.05.84-.02.09-1.47 10.08-2.14 14.08-3.77-.15-6.7-1.32-8.68-3.59-2.64-3.03-3.37-7.39-3.37-11.3 0-2.26.24-4.37.51-5.98.95-5.81 3.38-10.35 7.02-13.1 3.39-2.57 7.77-3.55 13.01-2.92 0 0 12.82 2.13 14.74 11.56ZM50.3 56.06c27.61 8.17 62.86 23.21 70.11 26.49-5.11 3.22-8.56 7.95-8.56 7.95-.72-4.64-6.92-6.63-6.92-6.63l-17.09-5.55-2.37 21.74 21.88 3.73s6.24 1.23 9.16-3.26c2.17-3.86 4.13-5.77 7.82-8.55 5.21-3.95 11.75-6.59 18.89-7.63 4.23-.5 3.8-3.68 3.8-3.68 0-1.16-1.2-2.37-3.15-3.46 18.97 5.13 26.35 11.64 26.35 11.64l-1.12 11.37s-5.17-5.61-12.86-6.63c-5.99-.72-11.04.46-15.03 3.47-4.22 3.19-7.01 8.33-8.08 14.86-.79 4.89-1.4 13.93 3.52 19.57 2.74 3.14 6.76 4.69 11.96 4.6l1.13-.02.21-1.1c.52-2.64 2.3-14.91 2.38-15.43.05-.41.08-.8.08-1.19 0-2.94-.81-5.4-2.56-7.06 6.37.37 16.27 1.2 18.27 1.32-.25 2.49-1.73 17.79-1.73 17.79 0 4.06 3.28 6 7.19 7.9 0 0 4.46-47.11 4.56-48.33 1.81-1.3 8.64-6.64 27.74-15.06-4.73 4.13-8 8.77-8.5 15.4l-3.35 44.92c0 10.32 15.11 11.44 16.21 11.51 6.42.77 14.23-.91 16.95-7.95 3.17-8.17-2.96-12.19-9.52-16.08-6.49-3.83-13.19-7.78-13.58-15.75-1.7-17.35 13.28-29.17 13.43-29.29 7.17-6.14 17.05-11.63 28.54-15.09 10.94-3.28 22.05-4.75 31.3-4.17h.02c5.87.26 10.27.79 13.44 1.27-8.81 3.38-22.56 15.59-30.59 28.97-6.72-4.12-11.94-5.55-18.68-4.95-3.25.3-13.42 2.52-14.95 10.75-.99 5.23 6.02 7.63 10.3 9.32 3.62 1.43 11.86 3.99 16.25 8.41 6.09 6.12 6.98 12.73 2.87 21.4-4.37 9.2-12.27 16.3-22.29 19.96-10.26 3.73-18.44 2.86-25.08 1.52h-.05l-.04-.01c-10.23-1.37-21.97-6.51-30.01-10.58-3.51-1.78-9.26-1.7-12.39-1.5h-.09l-.1.03c-8.83 1.9-15.55 2.81-19.42 2.63-2.9-.15-5.77-.48-8.54-1.02-3.88-.77-7.48-1.9-10.71-3.41l-.28-.14h-.31c-30.95.2-75.62 13.63-95.68 20.2 6.12-6 15.43-16.6 17.18-27.06l9.64-57.85c1.88-9.68-7.5-20.29-7.5-20.29Z" class="cls-6"/><path d="m84.29 110.82-2.81 25.9 20.06-.31-.02.02c7.04 0 10.32-3.77 11.83-6.95l.28-.58-.27-.59c-1.4-3.12-2.09-6.63-2.05-10.43v-.23l-.07-.21c-.77-2.41-3.2-6.49-10.85-6.73.06 0-14.61-1.12-14.61-1.12l-1.34-.11-.15 1.34Zm2.63 1.63c2.22.18 13.32 1.03 13.32 1.03 5.55.19 7.56 2.59 8.28 4.63.01 3.83.72 7.4 2.05 10.64-1.74 3.21-4.77 4.86-9.04 4.86 0 0-14.3.22-16.93.25.28-2.58 2.08-19.19 2.33-21.43Z" class="cls-6"/><path d="M108.77 117.75s-2.09 15.87 14.06 19.22c0 0-9.99-2.94-11.52-19.09M203.03 142.45s-14.78-5.13-18.65-12.13c0 0 3.15 10.76 18.41 14.89l.24-2.75Z" class="cls-6"/><path d="M205.81 61.94c2.03 0 4.02-1.65 4.43-3.69l8.69-46.87c.42-2.02-.9-3.68-2.75-3.68h-95.54c-2.21 0-4.18 1.65-4.61 3.68l-9.54 46.87c-.43 2.04.9 3.69 2.93 3.69h96.41Z" style="fill:#1e4e9c;stroke-width:0"/><path d="m151.06 26.99-3.71 18.06s-2.52 10.39 11.17 10.39c0 0 12.03.41 15.35-9.16l1.1-5.35h-9.38l-.87 4.25s-.92 3.55-4.78 3.29c0 0-3.99.41-3.11-2.87l3.81-18.61s.1-3.08 4.42-3.42c0 0 3.9 0 3.49 3l-.96 4.66h9.38l.95-4.66s1.85-9.99-11.5-9.71c0 0-12.81.54-15.35 10.13ZM179.63 26.99l-3.71 18.06s-2.52 10.39 11.16 10.39c0 0 12.03.41 15.36-9.16l1.09-5.35h-9.39l-.86 4.25s-.94 3.55-4.78 3.29c0 0-3.99.41-3.13-2.87l3.82-18.61s.1-3.08 4.42-3.42c0 0 3.91 0 3.48 3l-.95 4.66h9.38l.95-4.66s1.85-9.99-11.49-9.71c0 0-12.81.54-15.35 10.13Z" class="cls-6"/><path d="M164.02 7.82h-10.86l-19.18 20.9 3.05-13.62-9.9-.01-8.48 39.38h9.9l2.29-10.99 2.56-2.95 3.41 13.94h9.82l-5.69-21.43 23.08-25.22" class="cls-6"/><path d="M171.18 0h-10.89l-7.13 7.82H164L171.18 0z" style="stroke-width:0;fill:#eb2d2e"/><path d="M111.3 119.96s-.51-12.38 7.39-22.86l-.86-2.57-2.92 3.26c-3.78 5.85-6.32 6.33-6.53 19.34l2.92 2.83Z" class="cls-6"/><path d="M116.46 95.22s-9.68 9.68-7.85 25.65l2.23-.44s-1.08-15.64 8.19-24.41l-2.57-.79Z" class="cls-6"/><path d="M110.79 97.39s-5.1 5.56-5.44 20.22l2.97.29s-.22-10.67 5.84-19.99l-3.37-.52Z" class="cls-3"/><path d="M109.07 100.19s-2.84 5.19-3.76 15.84c0 0-.36-1.74-3.05-2.4 0 0 1.72-8.17 3.78-12.8 0 0 1.69.2 3.04-.63Z" class="cls-6"/><path d="M102.83 103.07s1.79.38 2.77-.09c0 0-1.31 3.29-1.89 8.46 0 0-.58-.73-2.99-.8l2.11-7.56Z" style="fill:#0087c2;stroke-width:0"/></svg>