<svg viewBox="0 0 16 16" fill="none" xmlns="http://www.w3.org/2000/svg">
<path fill-rule="evenodd" clip-rule="evenodd" d="M1.61927 7.86836C2.6882 6.34087 4.49104 4.65947 6.65672 4.15315C7.79643 3.8867 9.04912 3.94149 10.3795 4.52783C11.6498 5.08763 13.0143 6.14271 14.4208 7.91184C13.3518 9.43933 11.549 11.1207 9.38333 11.6271C8.24362 11.8935 6.99093 11.8387 5.6605 11.2524C4.39029 10.6926 3.02571 9.63749 1.61927 7.86836ZM0.500101 7.88234C0.497448 8.01428 0.547058 8.14487 0.64207 8.24209C2.18634 10.2485 3.73929 11.4985 5.25722 12.1674C6.79449 12.8449 8.26934 12.9145 9.61098 12.6008C12.2403 11.9861 14.308 9.91643 15.4261 8.21072C15.4999 8.12121 15.5387 8.01019 15.5399 7.8979C15.5426 7.76595 15.493 7.63534 15.398 7.53811C13.8537 5.53168 12.3008 4.28173 10.7828 3.61276C9.24556 2.93526 7.77071 2.86574 6.42906 3.17941C3.79974 3.79412 1.73208 5.86377 0.613991 7.56948C0.540163 7.659 0.5013 7.77003 0.500101 7.88234Z" fill="#777777"/>
<path d="M6.65672 4.15315L6.71363 4.39659L6.65672 4.15315ZM1.61927 7.86836L1.41444 7.72502L1.30747 7.87788L1.42357 8.02393L1.61927 7.86836ZM10.3795 4.52783L10.4804 4.29906V4.29906L10.3795 4.52783ZM14.4208 7.91184L14.6256 8.05518L14.7326 7.90232L14.6165 7.75627L14.4208 7.91184ZM9.38333 11.6271L9.32642 11.3836L9.38333 11.6271ZM5.6605 11.2524L5.76132 11.0236L5.6605 11.2524ZM0.64207 8.24209L0.840185 8.08961L0.831182 8.07791L0.820866 8.06736L0.64207 8.24209ZM0.500101 7.88234L0.750062 7.88737L0.750087 7.88501L0.500101 7.88234ZM5.25722 12.1674L5.35804 11.9387L5.25722 12.1674ZM9.61098 12.6008L9.6679 12.8442L9.61098 12.6008ZM15.4261 8.21072L15.2332 8.05166L15.2245 8.06222L15.217 8.07367L15.4261 8.21072ZM15.5399 7.8979L15.29 7.89285L15.29 7.89521L15.5399 7.8979ZM15.398 7.53811L15.1999 7.6906L15.2089 7.70229L15.2192 7.71285L15.398 7.53811ZM10.7828 3.61276L10.682 3.84153V3.84153L10.7828 3.61276ZM6.42906 3.17941L6.37215 2.93597L6.42906 3.17941ZM0.613991 7.56948L0.806863 7.72854L0.815571 7.71798L0.823075 7.70653L0.613991 7.56948ZM6.5998 3.90972C4.35125 4.43541 2.50231 6.17046 1.41444 7.72502L1.82409 8.0117C2.87408 6.51128 4.63083 4.88353 6.71363 4.39659L6.5998 3.90972ZM10.4804 4.29906C9.09824 3.68994 7.79001 3.63146 6.5998 3.90972L6.71363 4.39659C7.80285 4.14194 9 4.19305 10.2787 4.7566L10.4804 4.29906ZM14.6165 7.75627C13.1917 5.96408 11.7966 4.87916 10.4804 4.29906L10.2787 4.7566C11.5029 5.2961 12.837 6.32134 14.2251 8.06742L14.6165 7.75627ZM9.44024 11.8705C11.6888 11.3448 13.5377 9.60974 14.6256 8.05518L14.216 7.76851C13.166 9.26892 11.4092 10.8967 9.32642 11.3836L9.44024 11.8705ZM5.55968 11.4811C6.94181 12.0903 8.25004 12.1487 9.44024 11.8705L9.32642 11.3836C8.2372 11.6383 7.04004 11.5872 5.76132 11.0236L5.55968 11.4811ZM1.42357 8.02393C2.84834 9.81612 4.24341 10.901 5.55968 11.4811L5.76132 11.0236C4.53716 10.4841 3.20308 9.45886 1.81496 7.71278L1.42357 8.02393ZM0.820866 8.06736C0.773832 8.01923 0.748713 7.95388 0.750051 7.88737L0.250152 7.87731C0.246182 8.07468 0.320284 8.27051 0.463273 8.41682L0.820866 8.06736ZM5.35804 11.9387C3.88817 11.2909 2.36633 10.0725 0.840185 8.08961L0.443955 8.39457C2.00636 10.4246 3.59041 11.7061 5.1564 12.3962L5.35804 11.9387ZM9.55407 12.3574C8.2629 12.6592 6.84359 12.5934 5.35804 11.9387L5.1564 12.3962C6.74538 13.0965 8.27577 13.1697 9.6679 12.8442L9.55407 12.3574ZM15.217 8.07367C14.1176 9.7508 12.0968 11.7629 9.55407 12.3574L9.6679 12.8442C12.3838 12.2093 14.4983 10.0821 15.6351 8.34778L15.217 8.07367ZM15.29 7.89521C15.2893 7.95191 15.2697 8.00738 15.2332 8.05166L15.6189 8.36978C15.73 8.23504 15.7881 8.06848 15.7899 7.90058L15.29 7.89521ZM15.2192 7.71285C15.2662 7.76098 15.2913 7.82634 15.29 7.89285L15.7899 7.90294C15.7939 7.70556 15.7198 7.50971 15.5768 7.36338L15.2192 7.71285ZM10.682 3.84153C12.1519 4.48932 13.6737 5.70772 15.1999 7.6906L15.5961 7.38563C14.0337 5.35564 12.4496 4.07414 10.8836 3.38399L10.682 3.84153ZM6.48598 3.42285C7.77715 3.12098 9.19645 3.18682 10.682 3.84153L10.8836 3.38399C9.29466 2.6837 7.76427 2.61051 6.37215 2.93597L6.48598 3.42285ZM0.823075 7.70653C1.92244 6.0294 3.94329 4.01731 6.48598 3.42285L6.37215 2.93597C3.6562 3.57094 1.54173 5.69814 0.404908 7.43242L0.823075 7.70653ZM0.750087 7.88501C0.750692 7.82831 0.770339 7.77282 0.806863 7.72854L0.42112 7.41041C0.309986 7.54517 0.251907 7.71176 0.250115 7.87967L0.750087 7.88501Z" fill="#777777"/>
<circle cx="8.01984" cy="7.89875" r="2.5757" stroke="#777777" stroke-width="1.4"/>
</svg>
