<svg viewBox="0 0 16 16" fill="none" xmlns="http://www.w3.org/2000/svg">
<path d="M11.2882 4.12825C11.6107 4.12825 11.8766 3.87125 11.8766 3.55038V1.77767C11.8766 1.4568 11.6107 1.1998 11.2882 1.1998C10.9656 1.1998 10.6998 1.4568 10.6998 1.77767V3.55038C10.6998 3.87125 10.9656 4.12825 11.2882 4.12825Z" fill="#777777" stroke="#777777" stroke-width="0.2"/>
<path d="M12.0674 2.10215H2.85585C1.77405 2.10215 0.9 3.01355 0.9 4.12516V12.6766C0.9 13.789 1.77407 14.6996 2.85585 14.6996H13.1442C14.2259 14.6996 15.1 13.789 15.1 12.6766V4.12516C15.1 3.01276 14.2259 2.10215 13.1442 2.10215H13.0326H12.9326H12.1674H12.0674ZM12.9326 3.25787H13.0326H13.1442C13.5646 3.25787 13.9232 3.63784 13.9232 4.12516V5.02097H2.07676V4.12516C2.07676 3.63784 2.4354 3.25787 2.85585 3.25787H12.0674H12.1674H12.9326ZM13.0442 13.5439V13.5446H2.85585C2.4354 13.5446 2.07676 13.1647 2.07676 12.6774V6.17669H8H13.9232V12.6766C13.9232 13.1639 13.5646 13.5439 13.1442 13.5439H13.0442Z" fill="#777777" stroke="#777777" stroke-width="0.2"/>
<path d="M4.71104 4.12825C5.0336 4.12825 5.29942 3.87125 5.29942 3.55038V1.77767C5.29942 1.4568 5.0336 1.1998 4.71104 1.1998C4.38848 1.1998 4.12266 1.4568 4.12266 1.77767V3.55038C4.12266 3.87125 4.38848 4.12825 4.71104 4.12825Z" fill="#777777" stroke="#777777" stroke-width="0.2"/>
</svg>
