<svg xmlns="http://www.w3.org/2000/svg" xml:space="preserve" style="enable-background:new 0 0 1457 600" viewBox="0 0 1457 600"><path d="M1353.7 22.8c-53.5-3.4-115.2 6.1-170.6 22.7-54 16.2-116.1 44-162.6 82.1 0 0-81.1 65.3-71 163.4 4.8 94 156.7 92.3 127.5 167.8-14.2 36.4-56.8 41.1-83.4 37.8 0 0-71.2-3.3-80.3-62.2 5.3-73.3 13.7-180.9 17.8-232.7.2 0 .3-.2.3-.2 0-57.7 80.5-107.9 80.5-107.9-174.6 71.5-198.4 102.1-198.4 102.1l-21.6 261.7c-14.5-7.2-27.8-12.3-27.8-34.9l11-108.4-128.5-9.3s32.8 15.2 28.1 52.5c0 0-9.9 68.2-12.7 82.3-25.6.5-45.2-6.9-58.5-22.1-24.4-27.9-21.3-73.8-17.1-98.7 5.4-33.1 19.4-59 40.5-75 19.8-15 45.1-20.8 75.2-17.1 41.7 4.9 74.2 43 74.2 43s19.3-55 5.2-80.1c-14.1-25.2-165.3-66-165.3-66s60.1 24.7 15.8 38.7c-39.1 5.7-75.2 20.1-104.8 42.3-20.7 15.4-37.2 34.4-49.4 55.9-9.2 4.5-24.3 10.2-35.3 6l-111.1-18.9 11-100.6 91.9 29.5c37.8 18.4 24.5 35.9 24.5 35.9l60.7-52.9S270.3 44.8 100.7 0c0 0 78.4 55.1 66.7 125.2 0 0-44.1 264.4-51.8 310.2C103.4 508.9 18 584.8 0 600c88.6-30.2 360.6-117.8 544.4-119 17.8 8.2 37.6 14.6 59.2 18.8 14.9 2.9 30.6 4.8 47 5.6 26.1 1.2 68.9-6.3 106.2-14.3 14.4-.9 45-1.7 62.6 7.2 40.6 20.4 106.4 49.8 163.5 57.5 41.2 8.4 84.6 11.3 138.7-8.4 55.1-20.2 99.7-60 123.8-110.9 25.1-52.9 15.7-90.6-16.8-123.2-25.8-25.9-60.1-36.8-94-48.2-2.8-1-39-13.9-41-40.6-2.6-32.2 52.8-42 69-44.8 43.9-7.5 72 10.2 100.2 28.2 36.6-53.4 129.9-159.7 194.1-172.6-11.8-2.3-43.8-9.9-103.2-12.5zM409.6 441.1l-99.3 1.5 14.2-130.4 78.8 6c35.6 1.1 47.5 18.8 51.3 30.9-.2 21.6 3.8 41.3 11.7 59-7.1 14.9-22.7 33.1-56.7 33z" style="fill:#00297f;enable-background:new"/></svg>