<svg xmlns="http://www.w3.org/2000/svg" xml:space="preserve" id="Layer_1" x="0" y="0" style="enable-background:new 0 0 24 24" version="1.1" viewBox="0 0 24 24"><style>.st0{fill:#181818}</style><path d="M16.7 6.4c.4 0 .7-.3.7-.7V3.2c0-.4-.3-.7-.7-.7-.4 0-.7.3-.7.7v2.5c0 .4.3.7.7.7z" class="st0"/><path d="M19.3 3.8H18v1.4h1.4c.7 0 1.3.6 1.3 1.4V8H3.4V6.5c0-.8.6-1.4 1.3-1.4H19V3.8H4.7C3.2 3.8 2 5 2 6.5v12.2c0 1.5 1.2 2.7 2.7 2.7h14.7c1.5 0 2.6-1.2 2.6-2.7V6.5c0-1.5-1.2-2.7-2.7-2.7zm0 16.3H4.7c-.7 0-1.3-.6-1.3-1.4V9.3h17.2v9.4c0 .8-.6 1.4-1.3 1.4z" class="st0"/><path d="M7.3 6.4c.4 0 .7-.3.7-.7V3.2c0-.4-.3-.7-.7-.7-.4 0-.7.3-.7.7v2.5c0 .4.3.7.7.7z" class="st0"/></svg>