<svg viewBox="0 0 24 24" fill="none" xmlns="http://www.w3.org/2000/svg">
<path d="M15.5625 7.125H8.6875C8.30937 7.125 8 6.81562 8 6.4375V5.0625C8 3.92813 8.92813 3 10.0625 3H14.1875C15.3219 3 16.25 3.92813 16.25 5.0625V6.4375C16.25 6.81562 15.9406 7.125 15.5625 7.125ZM9.375 5.75H14.875V5.0625C14.875 4.68438 14.5656 4.375 14.1875 4.375H10.0625C9.68438 4.375 9.375 4.68438 9.375 5.0625V5.75Z" fill="#777777"/>
<path d="M21.0625 7.125H3.1875C2.80937 7.125 2.5 6.81562 2.5 6.4375C2.5 6.05937 2.80937 5.75 3.1875 5.75H21.0625C21.4406 5.75 21.75 6.05937 21.75 6.4375C21.75 6.81562 21.4406 7.125 21.0625 7.125Z" fill="#777777"/>
<path d="M16.6268 20C16.6268 20 8.66036 20 7.68487 20C6.70938 20 5.89022 19.39 5.81518 18.615L4.6521 6.54C4.63959 6.4 4.69587 6.265 4.81468 6.16C4.93349 6.06 5.10233 6 5.27116 6H19.028C19.2031 6 19.3657 6.06 19.4845 6.16C19.6033 6.26 19.6659 6.4 19.6471 6.54L18.484 18.615C18.409 19.39 17.5898 20 16.6143 20C15.6388 20 16.6268 20 16.6268 20ZM5.95275 7C5.95275 7 7.03454 18.1237 7.05956 18.3837C7.08457 18.6438 7.35971 18.8438 7.68487 18.8438H16.6268C16.952 18.8438 17.2271 18.6388 17.2522 18.3837L18.3652 7H5.95275Z" fill="#777777"/>
</svg>
