<svg width="24" height="24" viewBox="0 0 24 24" fill="none" xmlns="http://www.w3.org/2000/svg">
<g clip-path="url(#clip0_1609_29040)">
<path d="M19.7079 5.40824L20.0152 9.68631L20.0154 9.68781L20.0162 9.70087C20.0174 9.71693 20.018 9.73294 20.018 9.74866C20.0177 9.76422 20.0173 9.78005 20.0157 9.79553C20.0154 9.79606 20.0152 9.79632 20.0156 9.79688C20.0147 9.80265 20.0143 9.80832 20.0135 9.81383C20.0127 9.82001 20.0121 9.82661 20.0111 9.83306C20.0104 9.83924 20.0093 9.84528 20.0083 9.85131C20.0072 9.85735 20.0061 9.86364 20.0045 9.86937C20.0035 9.87406 20.0024 9.879 20.0012 9.88353C20.0006 9.88635 19.9999 9.88874 19.9993 9.89114C19.999 9.89166 19.9989 9.89234 19.9986 9.89286C19.996 9.90287 19.9933 9.91287 19.9902 9.92257C19.9875 9.93148 19.9847 9.93998 19.9812 9.94845C19.9797 9.95283 19.9781 9.9568 19.9764 9.96103C19.9745 9.96552 19.973 9.9699 19.971 9.97398C19.9686 9.97926 19.9665 9.98469 19.9642 9.98997L19.9636 9.99101C19.9609 9.99681 19.9583 10.0026 19.9555 10.0087C19.9524 10.0146 19.9494 10.0205 19.9462 10.026C19.9429 10.0318 19.9398 10.0377 19.9365 10.0434C19.9333 10.0489 19.9303 10.0542 19.927 10.0593C19.9 10.1024 19.8678 10.1417 19.8312 10.1768C19.8191 10.1887 19.8064 10.1998 19.793 10.2103C19.7801 10.2206 19.7663 10.2305 19.7526 10.2397C19.7461 10.2443 19.7391 10.2486 19.7321 10.2529C19.7067 10.2684 19.6803 10.2821 19.6524 10.2935C19.6457 10.2967 19.6386 10.2992 19.6318 10.3019C19.622 10.3057 19.6119 10.3093 19.6017 10.3124C19.596 10.3144 19.5905 10.3161 19.5847 10.3177C19.5784 10.3196 19.5715 10.3212 19.5649 10.323C19.5584 10.3245 19.5515 10.3261 19.5448 10.3275C19.5377 10.3289 19.5302 10.3305 19.5229 10.3316C19.5174 10.3326 19.5124 10.3335 19.507 10.3343C19.5047 10.3347 19.5025 10.3348 19.5002 10.3352C19.4945 10.3361 19.4889 10.3367 19.4833 10.3373C19.4833 10.3373 19.4826 10.3373 19.4822 10.3374C19.4781 10.3378 19.4744 10.3381 19.4703 10.3386C19.4675 10.3387 19.4649 10.3389 19.4623 10.3392C19.4609 10.3391 19.4597 10.3394 19.4584 10.3393C19.4488 10.3401 19.4389 10.3403 19.429 10.3406C19.4233 10.3408 19.4174 10.3408 19.4118 10.3407C19.4049 10.3406 19.398 10.3405 19.3913 10.3401C19.3825 10.3395 19.3737 10.339 19.3647 10.3383C19.3614 10.3379 19.3582 10.3374 19.3551 10.3373C19.3532 10.337 19.3512 10.3368 19.3492 10.3367C19.3481 10.3368 19.3473 10.3363 19.3466 10.3363C19.3414 10.3357 19.3363 10.3349 19.331 10.3343C19.331 10.3343 19.3305 10.334 19.3303 10.3338C19.3242 10.3328 19.3178 10.3319 19.3115 10.3307C19.3071 10.3299 19.3026 10.329 19.2978 10.3283C19.2973 10.328 19.2963 10.3279 19.2954 10.3277C19.2921 10.3268 19.2886 10.3262 19.2853 10.3253C19.2827 10.3249 19.2803 10.3242 19.2779 10.3235C19.2763 10.3233 19.2748 10.3228 19.2731 10.3221C19.2717 10.3216 19.27 10.3214 19.2683 10.3208C19.2652 10.32 19.2621 10.3189 19.2587 10.318C19.2582 10.3177 19.2577 10.3174 19.2569 10.3176C19.2518 10.3161 19.2466 10.3148 19.2417 10.3131C19.2364 10.3114 19.2308 10.3096 19.2253 10.3081C19.2187 10.3057 19.2121 10.3033 19.2054 10.3009C19.1942 10.2968 19.1827 10.2919 19.1716 10.2869L15.2549 8.5036C14.9543 8.36675 14.822 8.01239 14.9587 7.71212C15.0954 7.41185 15.4496 7.27907 15.7502 7.41592L17.8052 8.35172C16.7448 6.73525 15.0462 5.63376 13.1369 5.32719C9.38771 4.72512 5.84641 7.28642 5.244 11.0368C4.64159 14.7872 7.20289 18.3285 10.953 18.9307C14.7034 19.5332 18.2447 16.9719 18.8471 13.2215C18.8995 12.8955 19.2059 12.6737 19.5319 12.7261C19.8578 12.7784 20.0796 13.0849 20.0272 13.4108C19.8543 14.4881 19.475 15.4995 18.9006 16.4169C18.346 17.3027 17.6335 18.0638 16.783 18.6793C15.9324 19.2944 14.9865 19.7329 13.9714 19.9821C12.9201 20.2403 11.8409 20.2838 10.7635 20.1105C9.68631 19.9376 8.67486 19.5582 7.75748 18.9839C6.87171 18.4292 6.11056 17.7167 5.49507 16.8662C4.87999 16.0156 4.44147 15.0697 4.1923 14.0547C3.93405 13.0033 3.89059 11.9241 4.06375 10.847C4.23692 9.76995 4.61585 8.75861 5.19034 7.84097C5.74504 6.9552 6.45769 6.19379 7.30801 5.57856C8.1586 4.96348 9.10453 4.52496 10.1196 4.27578C11.1709 4.01754 12.2501 3.97408 13.3272 4.14724C14.4794 4.33237 15.5528 4.75134 16.5176 5.39246C17.3594 5.95184 18.0783 6.65286 18.6583 7.47898L18.5157 5.4937C18.4921 5.16444 18.74 4.87842 19.0693 4.85484C19.3985 4.83125 19.6845 5.07913 19.7079 5.40824Z" fill="#4C4C4C" stroke="#4C4C4C" stroke-width="0.2"/>
</g>
<defs>
<clipPath id="clip0_1609_29040">
<rect width="24" height="24" fill="white"/>
</clipPath>
</defs>
</svg>
