<svg viewBox="0 0 24 24" fill="none" xmlns="http://www.w3.org/2000/svg">
<path d="M16.9575 15.8221C16.1658 15.8221 15.4444 16.1201 14.8977 16.6098L9.95657 13.1495C10.0991 12.7943 10.1782 12.4065 10.1782 12.0005C10.1782 11.5945 10.0991 11.2066 9.95657 10.8514L14.8977 7.39114C15.4444 7.88085 16.1662 8.1788 16.9575 8.1788C18.6637 8.1788 20.0466 6.79585 20.0466 5.08971C20.0466 3.38357 18.6637 2 16.9575 2C15.2514 2 13.8684 3.38295 13.8684 5.08909C13.8684 5.49539 13.9475 5.88291 14.09 6.23811L9.1489 9.69842C8.60224 9.2087 7.88045 8.91075 7.08909 8.91075C5.38295 8.91106 4 10.294 4 12.0002C4 13.7063 5.38295 15.0892 7.08909 15.0892C7.88076 15.0892 8.60224 14.7913 9.1489 14.3016L14.09 17.7619C13.9475 18.1171 13.8684 18.5049 13.8684 18.9109C13.8684 20.617 15.2514 22 16.9575 22C18.6637 22 20.0466 20.617 20.0466 18.9109C20.0466 17.2048 18.6637 15.8218 16.9575 15.8218V15.8221Z" fill="#4C4C4C"/>
</svg>
