<?xml version="1.0" encoding="UTF-8"?><svg id="Layer_1" xmlns="http://www.w3.org/2000/svg" viewBox="0 0 80 56"><defs><style>.cls-1{fill:#00aeef;}.cls-1,.cls-2{stroke-width:0px;}.cls-2{fill:#fff;}</style></defs><path class="cls-1" d="m78.33,8.74c-.92-3.44-3.63-6.15-7.07-7.07-6.24-1.67-31.26-1.67-31.26-1.67,0,0-25.02,0-31.26,1.67-3.44.92-6.15,3.63-7.07,7.07C0,14.98,0,28,0,28c0,0,0,13.02,1.67,19.26.92,3.44,3.63,6.15,7.07,7.07,6.24,1.67,31.26,1.67,31.26,1.67,0,0,25.02,0,31.26-1.67,3.44-.92,6.15-3.63,7.07-7.07,1.67-6.24,1.67-19.26,1.67-19.26,0,0,0-13.02-1.67-19.26Z"/><polygon class="cls-2" points="32 40 52.78 28 32 16 32 40"/></svg>