<svg viewBox="0 0 24 24" fill="none" xmlns="http://www.w3.org/2000/svg">
<path d="M16.4995 7.75038C16.377 7.75038 16.2545 7.79476 16.1582 7.88538L12.8176 11.0085C12.6151 11.1979 12.4995 11.4679 12.4995 11.7497C12.4995 12.0316 12.6151 12.3022 12.8176 12.491L16.1582 15.6154C16.3595 15.8029 16.6757 15.7935 16.8645 15.5916C17.0532 15.3897 17.042 15.0735 16.8407 14.8847L13.5008 11.761L16.8414 8.61538C17.0432 8.42663 17.0539 8.11038 16.8651 7.90851C16.7664 7.80351 16.6332 7.74976 16.5001 7.74976L16.4995 7.75038Z" fill="#4C4C4C"/>
<path d="M11.4995 7.75038C11.377 7.75038 11.2545 7.79476 11.1582 7.88538L7.81764 11.0085C7.61514 11.1979 7.49951 11.4679 7.49951 11.7497C7.49951 12.0316 7.61514 12.3022 7.81764 12.491L11.1582 15.6154C11.3595 15.8029 11.6757 15.7935 11.8645 15.5916C12.0532 15.3897 12.042 15.0735 11.8407 14.8847L8.50076 11.761L11.8414 8.61538C12.0432 8.42663 12.0539 8.11038 11.8651 7.90851C11.7664 7.80351 11.6332 7.74976 11.5001 7.74976L11.4995 7.75038Z" fill="#4C4C4C"/>
</svg>
