<svg xmlns="http://www.w3.org/2000/svg" xml:space="preserve" id="Layer_1" x="0" y="0" style="enable-background:new 0 0 24 24" version="1.1" viewBox="0 0 24 24"><style>.st1{fill:#fff}</style><g id="Group_797"><path id="Vector" d="M18.4 3c1.7 0 3.1.9 3.1 2.1v13.8c0 1.2-1.4 2.1-3.1 2.1H5.7c-1.7 0-3.2-.9-3.2-2.1V5.1C2.5 3.9 3.9 3 5.7 3h12.7z" style="fill:#9da4b1"/><g id="Group_798"><path id="Rectangle_97" d="M6.8 7h10.5c.4 0 .7.3.7.8 0 .4-.3.8-.8.8H6.8c-.5-.1-.8-.4-.8-.8 0-.5.3-.8.8-.8z" class="st1"/><path id="Rectangle_98" d="M6.8 11h10.5c.4 0 .8.3.8.8 0 .4-.3.8-.8.8H6.8c-.4 0-.8-.3-.8-.8s.3-.8.8-.8z" class="st1"/><path id="Rectangle_99" d="M6.8 15h10.5c.4 0 .8.3.8.8 0 .4-.3.8-.8.8H6.8c-.4 0-.8-.3-.8-.8s.3-.8.8-.8z" class="st1"/></g></g></svg>