<svg viewBox="0 0 24 24" fill="none" xmlns="http://www.w3.org/2000/svg">
<path d="M17.2043 17.9961C17.0006 17.9961 16.7963 17.9186 16.6411 17.7628L6.23327 7.35906C5.92224 7.04816 5.92224 6.54407 6.23327 6.23317C6.54429 5.92228 7.04858 5.92228 7.3596 6.23317L17.7667 16.6362C18.0778 16.9471 18.0778 17.4512 17.7667 17.7621C17.6109 17.9179 17.4072 17.9954 17.2036 17.9954L17.2043 17.9961Z" fill="#fff"/>
<path d="M6.79643 17.9954C6.59278 17.9954 6.38843 17.9179 6.23327 17.7621C5.92224 17.4512 5.92224 16.9471 6.23327 16.6362L16.6404 6.23317C16.9514 5.92228 17.4557 5.92228 17.7667 6.23317C18.0778 6.54407 18.0778 7.04816 17.7667 7.35906L7.3596 17.7621C7.20374 17.9179 7.00009 17.9954 6.79643 17.9954Z" fill="#fff"/>
</svg>
