<svg xmlns="http://www.w3.org/2000/svg" viewBox="0 0 24 24"><path d="M21.8 5.9c-1.7-2.3-4.1-3.9-7-4.4-2.8-.5-5.6.2-7.9 1.8C5.8 4 5 4.9 4.3 5.9c-.3.3-.2.8.2 1.1.3.2.8.2 1-.2.6-.9 1.4-1.6 2.2-2.2 2-1.4 4.5-2 6.9-1.6 2.4.4 4.6 1.8 6 3.8s2 4.5 1.6 6.9c-.4 2.4-1.8 4.6-3.8 6-4.2 2.9-9.9 2-12.9-2.2-.2-.3-.7-.4-1-.2-.3.2-.4.7-.2 1 2.1 3 5.4 4.5 8.8 4.5 2.1 0 4.3-.6 6.2-2 2.3-1.7 3.9-4.1 4.4-7 .4-2.7-.2-5.6-1.9-7.9z" /><path d="M4.8 15.7c.3-.3.3-.8 0-1.1L3.2 13h11.3c.4 0 .8-.3.8-.8s-.3-.8-.8-.8H3.2l1.6-1.7c.3-.3.3-.8 0-1.1-.3-.3-.8-.3-1.1 0l-2.8 3c-.3.3-.3.7 0 1l2.8 3c.2.3.4.4.6.4.2 0 .4-.1.5-.3z" /></svg>