<svg xmlns="http://www.w3.org/2000/svg" fill="none" viewBox="0 0 25 24"><path stroke="#fff" stroke-linecap="round" stroke-linejoin="round" stroke-width="1.5" d="M23.63 17.404a2.592 2.592 0 0 1-2.591 2.592H3.959a2.592 2.592 0 0 1-2.592-2.592V6.961A2.592 2.592 0 0 1 3.96 4.369H21.04a2.592 2.592 0 0 1 2.592 2.592v6.673"/><path stroke="#fff" stroke-dasharray="0.1 3" stroke-linecap="round" stroke-width="2" d="M7.5 6.6v11"/><path fill="#fff" stroke="#fff" d="M15.5 13.645h-.124l-.109.057-1.427.75.273-1.588.044-.26-.188-.183-1.154-1.125 1.595-.232.26-.038.117-.236.713-1.445.714 1.445.116.236.26.038 1.596.232-1.155 1.125-.188.183.044.26.273 1.588-1.427-.75-.11-.057H15.5Z"/></svg>