<svg xmlns="http://www.w3.org/2000/svg" xml:space="preserve" id="Layer_1" x="0" y="0" style="enable-background:new 0 0 24 24" version="1.1" viewBox="0 0 24 24"><style>.st2{fill:#fff;stroke:#fff}</style><path id="Vector" d="M23 17.1c0 1.4-1.1 2.6-2.6 2.6H3.6c-1.4 0-2.6-1.1-2.6-2.6V6.8c0-1.5 1.1-2.6 2.6-2.6h16.9c1.4 0 2.5 1.1 2.5 2.6v10.3z" style="fill:#9da4b1"/><g id="Group_795"><path id="Line_1" d="M6.8 16.4c-.4 0-.8-.4-.8-.8v-.1c0-.4.3-.8.8-.8s.8.3.8.8v.1c0 .4-.4.8-.8.8zm0-3.2c-.4 0-.7-.3-.7-.7s.3-.8.8-.8.8.3.8.7v.1c-.1.4-.5.7-.9.7zm0-3.1c-.4 0-.8-.2-.8-.7 0-.4.3-.8.8-.8s.8.3.8.8v.1c0 .4-.4.6-.8.6zm0-3c-.4 0-.8-.3-.8-.9 0-.4.3-.8.8-.8s.8.4.8.8v.1c0 .5-.4.8-.8.8z" style="fill:#fff"/><path d="M15 13.4H14.7l-1.4.8.3-1.6v-.2l-.1-.2-1.2-1.1 1.6-.2h.2l.2-.3.7-1.4.7 1.4.1.3h.2l1.6.2-1.1 1.1-.2.2v.2l.3 1.6-1.4-.8h-.1z" class="st2"/></g></svg>