<svg viewBox="0 0 78 78" fill="none" xmlns="http://www.w3.org/2000/svg">
<path style="mix-blend-mode:multiply" d="M42.6216 8.93457L77.346 22.702L54.1141 78.0001L12.8579 65.0641L25.3452 55.7631L42.6216 8.93457Z" fill="url(#paint0_linear_530_33448)"/>
<path d="M32.3641 58.103C28.6385 50.9875 31.3281 44.4974 31.3281 44.4974L25.0639 44.7329L18.7996 44.4974C18.7996 44.4974 21.4892 50.9875 17.7636 58.103C17.7636 58.103 16.4188 60.3473 14.8682 61.4732H35.2596C33.7089 60.3473 32.3641 58.103 32.3641 58.103Z" fill="#FFCB39"/>
<path d="M38.5804 37.5879L37.2424 34.5048C39.2733 33.4893 43.1087 30.5975 43.541 30.2737C48.2889 26.1384 46.9373 21.3333 46.752 20.752C46.3129 19.8543 45.7366 19.2951 44.9887 19.0449C43.493 18.5445 41.5444 19.376 40.9818 19.7072L39.4586 16.7197C39.8016 16.521 42.9029 14.7844 45.9287 15.7999C47.5136 16.3297 48.7898 17.5438 49.62 19.3024L49.6749 19.4423C50.6354 22.0397 50.9991 28.1987 45.4896 32.9595L45.4141 33.0184C45.2357 33.1582 40.9886 36.3885 38.5804 37.5879Z" fill="#FFCB39"/>
<path d="M11.6639 37.5879C9.25564 36.3885 5.00857 33.1509 4.83018 33.0184L4.75471 32.9595C-0.754804 28.1987 -0.398024 22.0324 0.569401 19.4423L0.62429 19.3024C1.45449 17.5364 2.73067 16.3297 4.3156 15.7999C7.34823 14.7844 10.4426 16.521 10.7857 16.7197L9.26936 19.7072C8.65186 19.354 6.73073 18.5445 5.24872 19.0449C4.50771 19.2951 3.93137 19.8543 3.49912 20.752C3.30701 21.3554 1.96222 26.1384 6.71014 30.2737C7.1424 30.5975 10.9709 33.4893 13.0087 34.5048L11.6708 37.5879H11.6639Z" fill="#FFCB39"/>
<path d="M42.107 10.1633H7.02588C7.02588 10.1633 9.04306 17.9853 9.04306 26.646C9.04306 26.646 9.04306 47.1243 23.7877 47.7866C24.22 47.8455 24.6591 47.8822 25.1051 47.8822C25.6677 47.8822 26.2097 47.8307 26.738 47.7498C41.0024 46.6681 41.0161 26.6534 41.0161 26.6534C41.0161 18 43.0333 10.1707 43.0333 10.1707H42.1002L42.107 10.1633Z" fill="#FEE551"/>
<path d="M43.6645 9.99411C43.6645 11.0979 42.6079 11.9882 41.3043 11.9882H7.25919C5.95557 11.9882 4.89209 11.0979 4.89209 9.99411C4.89209 8.89036 5.94871 8 7.25919 8H41.2974C42.6011 8 43.6577 8.89036 43.6577 9.99411H43.6645Z" fill="#FFCB39"/>
<path d="M37.9217 63.5114C37.9217 65.0714 36.7415 66.3444 35.2801 66.3444H14.7927C13.3381 66.3444 12.1511 65.0788 12.1511 63.5114C12.1511 61.9515 13.3312 60.6785 14.7927 60.6785H35.2801C36.7347 60.6785 37.9217 61.9441 37.9217 63.5114Z" fill="#FEE551"/>
<path d="M25.2765 19.5968L27.3348 24.0707L31.9386 24.7918L28.611 28.2723L29.3932 33.1877L25.2765 30.8698L21.1598 33.1877L21.9488 28.2723L18.6143 24.7918L23.2181 24.0707L25.2765 19.5968Z" fill="#8C5232"/>
<defs>
<linearGradient id="paint0_linear_530_33448" x1="70.6015" y1="60.3253" x2="32.441" y2="38.9323" gradientUnits="userSpaceOnUse">
<stop offset="0.28" stop-color="white"/>
<stop offset="0.53" stop-color="#F5F7F2"/>
<stop offset="0.89" stop-color="#BBCFE4"/>
</linearGradient>
</defs>
</svg>
