<svg viewBox="0 0 24 24" fill="none" xmlns="http://www.w3.org/2000/svg">
<path d="M16.6977 5.89778C17.0825 5.89778 17.3954 5.59168 17.3954 5.21511V2.68266C17.3954 2.3061 17.0825 2 16.6977 2C16.3128 2 16 2.3061 16 2.68266V5.21511C16 5.59168 16.3128 5.89778 16.6977 5.89778Z" fill="white"/>
<path d="M19.3488 3.28934H17.9534V4.65466H19.3488C20.0408 4.65466 20.6046 5.27456 20.6046 6.0365V7.45908H3.39538V6.0365C3.39538 5.27456 3.95915 4.65466 4.65121 4.65466H19.0466V3.28934H4.65121C3.18944 3.28934 2 4.52253 2 6.0365V18.2528C2 19.7679 3.18944 21 4.65121 21H19.3488C20.8106 21 22 19.7679 22 18.2528V6.0365C22 4.52143 20.8106 3.28934 19.3488 3.28934Z" fill="white"/>
<path d="M7.30218 5.89778C7.68703 5.89778 7.99987 5.59168 7.99987 5.21511V2.68266C7.99987 2.3061 7.68703 2 7.30218 2C6.91733 2 6.60449 2.3061 6.60449 2.68266V5.21511C6.60449 5.59168 6.91733 5.89778 7.30218 5.89778Z" fill="white"/>
</svg>
