<svg xmlns="http://www.w3.org/2000/svg" xml:space="preserve" id="Layer_1" x="0" y="0" style="enable-background:new 0 0 24 24" version="1.1" viewBox="0 0 24 24"><style>.st0{fill:#181818;stroke:#181818;stroke-width:.2}</style><path d="M11.8 14.8c-.3 0-.6-.3-.6-.6v-.4c0-.5 0-1.4.8-2 .2-.1.3-.2.5-.3.5-.3.9-.6 1.2-1.1.4-.8 0-1.7-.8-2.2-.5-.2-1.1-.3-1.6-.1-.6.2-1.1.6-1.3 1-.1.4-.4.5-.7.4-.2-.2-.3-.5-.2-.8.4-.7 1.1-1.3 1.9-1.5.8-.3 1.7-.2 2.5.2 1.3.7 1.8 2.3 1.2 3.6-.4.8-1 1.2-1.6 1.5-.1.1-.3.2-.5.3-.3.2-.3.6-.3 1v.4c.1.3-.2.6-.5.6zM11.8 17c-.3 0-.5-.2-.5-.5s.2-.5.5-.5.5.2.5.5-.2.5-.5.5z" class="st0"/><path d="M12 20c-4.4 0-8-3.6-8-8s3.6-8 8-8 8 3.6 8 8-3.6 8-8 8zm0-14.9c-3.8 0-6.9 3.1-6.9 6.9 0 3.8 3.1 6.9 6.9 6.9 3.8 0 6.9-3.1 6.9-6.9 0-3.8-3.1-6.9-6.9-6.9z" class="st0"/></svg>