<svg xmlns="http://www.w3.org/2000/svg" viewBox="0 0 61.08 41.46"><path fill="#1564c8" d="M60.69 29.94c-.25-.25-.59-.39-.94-.39H42.04V15.99c0-.33-.13-.65-.37-.88-.23-.23-.56-.37-.88-.37h-6.91V3.59c0-.66.02-1.37.07-2.09v-.09c0-.17-.03-.28-.04-.34v-.01a1.25 1.25 0 0 0-1.24-1.07H27.7c-.28 0-.56.09-.78.27L23.98 2.6c-.61.48-.93 1.2-.93 1.92 0 .52.17 1.05.51 1.5l1.17 1.52c.43.55 1.04.88 1.73.95.09 0 .16.01.22.01h.13V14.73h-6.54c-.33 0-.65.13-.88.37-.23.23-.37.55-.37.88v7.89H1.33A1.333 1.333 0 0 0 0 25.2v14.86a1.333 1.333 0 0 0 1.33 1.33h18.61c.12.04.24.07.36.07h20.5c.12 0 .24-.04.35-.07h18.61a1.333 1.333 0 0 0 1.33-1.33v-9.19c0-.35-.14-.69-.39-.94Zm-41.64 8.8H2.65V26.53h16.4v12.21Zm7.66-32.75-1.12-1.45 2.57-2.04h3.26c-.01.37-.02.74-.02 1.09V14.6h-2.07V6.43c0-.49-.29-.94-.74-1.14-.45-.2-.98-.11-1.35.22l-.53.48Zm12.84 32.97h-18V17.24h18v21.72Zm18.88-.22H42.05V32.2h16.38v6.54Z"/></svg>