<svg viewBox="0 0 24 24" fill="none" xmlns="http://www.w3.org/2000/svg">
<rect width="24" height="24" rx="12" fill="#4C4C4C" />
<path d="M14.3139 6.59601C12.1859 4.468 8.72346 4.468 6.59601 6.59601C4.468 8.72402 4.468 12.1864 6.59601 14.3139C8.49472 16.2126 11.4555 16.4167 13.5829 14.928L17.3764 18.7215C17.7478 19.0928 18.3501 19.0928 18.7215 18.7215C19.0928 18.3501 19.0928 17.7478 18.7215 17.3764L14.928 13.5829C16.4173 11.4555 16.2126 8.49472 14.3139 6.59601ZM13.4174 13.4174C11.7838 15.051 9.12613 15.051 7.49307 13.4174C5.85945 11.7838 5.85945 9.12613 7.49307 7.49307C9.12669 5.85945 11.7843 5.85945 13.4174 7.49307C15.051 9.12669 15.051 11.7843 13.4174 13.418V13.4174Z" fill="#fff"/>
</svg>
