<svg viewBox="0 0 24 24" fill="none" xmlns="http://www.w3.org/2000/svg">
<path d="M22.9971 16.8796C22.9971 18.2928 21.8499 19.4401 20.4367 19.4401H3.56047C2.1472 19.4401 1 18.2928 1 16.8796V6.56047C1 5.1472 2.1472 4 3.56047 4H20.4395C21.8528 4 23 5.1472 23 6.56047L22.9971 16.8796Z" fill="white"/>
<path d="M9.63042 15.4416C9.76929 15.4416 9.91036 15.3975 10.0426 15.3115L14.6495 12.327C14.8722 12.1815 15 11.9611 15 11.7208C15 11.4805 14.8722 11.2601 14.6495 11.1146L10.0426 8.13005C9.91036 8.04409 9.76929 8 9.63042 8C9.31741 8 9 8.24026 9 8.69875V14.745C9 15.2035 9.31741 15.4416 9.63042 15.4416Z" fill="#203868"/>
</svg>
