<svg viewBox="0 0 24 24" fill="none" xmlns="http://www.w3.org/2000/svg">
<rect width="24" height="24" rx="3" fill="black" fill-opacity="0.5"/>
<path d="M21.3939 11.4417C20.9081 11.4417 20.5129 11.8369 20.5129 12.3227V19.2982C20.5129 19.9738 19.9632 20.5234 19.2876 20.5234H4.7022C4.02659 20.5234 3.47692 19.9738 3.47692 19.2982V4.71276C3.47692 4.03716 4.02659 3.48749 4.7022 3.48749H11.6776C12.1634 3.48749 12.5587 3.09228 12.5587 2.60645C12.5587 2.12062 12.1634 1.72559 11.6776 1.72559H4.7022C3.05493 1.72559 1.71484 3.06567 1.71484 4.71276V19.2982C1.71484 20.9454 3.05493 22.2855 4.7022 22.2855H19.2876C20.9349 22.2855 22.2749 20.9454 22.2749 19.2982V12.3227C22.2749 11.8369 21.8797 11.4417 21.3939 11.4417Z" fill="white"/>
<path d="M21.2847 1.71387H16.3312C16.0988 1.71387 15.8796 1.80345 15.7139 1.96626C15.5484 2.12873 15.4549 2.34599 15.4503 2.57768C15.4458 2.81199 15.5354 3.03464 15.7022 3.20476C15.8711 3.37697 16.1058 3.47577 16.3456 3.47577H19.2832L11.3838 11.395C11.0408 11.7387 11.0413 12.2976 11.3854 12.6412C11.5519 12.8069 11.7728 12.8983 12.0074 12.8983C12.2421 12.8983 12.4649 12.8062 12.6312 12.6394L20.5254 4.72557V7.95227C20.5254 8.18467 20.615 8.40384 20.7778 8.56961C20.9403 8.73503 21.1575 8.82862 21.3892 8.83314C21.6232 8.83783 21.8462 8.74825 22.0163 8.58126C22.1885 8.41236 22.2873 8.17771 22.2873 7.93784V2.71684C22.2873 2.16387 21.8373 1.71387 21.2843 1.71387H21.2847Z" fill="white"/>
</svg>
