<svg xmlns="http://www.w3.org/2000/svg" fill="none" viewBox="0 0 20 20"><g clip-path="url(#a)"><path fill="#FF5C5C" d="m2.922 20 7.618-8.443 4.02 6.81L2.922 20ZM0 2.65.71.855l1.728 1.258-.39 2.08L0 2.648Z"/><path fill="#FFC82E" d="m4.533 0 2.743 1.242-3.808 2.951L4.533 0Z"/><path fill="#70B501" d="m1.643 5.636-1.367.736.072 2.325L4.46 6.484l-2.818-.848Z"/><path fill="#fff" d="M4.46 6.484.349 8.697l.07 2.325 6.863-3.69-2.82-.848ZM.24 5.215l.036 1.156 1.367-.735-1.402-.42ZM1.806 17.37.632 18l.029.99 1.145-1.621Z"/><path fill="#70B501" d="M8.606 7.728 7.28 7.332l-6.864 3.69.073 2.326L7.18 9.75l1.426-2.023ZM4.493 13.56.559 15.672l.073 2.328 1.174-.631 2.687-3.81Z"/><path fill="#fff" d="M7.18 9.751.49 13.348l.07 2.325 3.933-2.114L7.18 9.751Z"/><path fill="#00AEFF" d="m5.37 4.645 4.924-2.855 2.385 2.23 3.387-1.248.672 1.402-4.64 1.558-2.026-1.745-3.337 1.467-1.364-.809Z"/><path fill="#FFC82E" d="M12.1 11.354V8.753l2.139-.862.98 2.192-3.118 1.271Z"/><path fill="#70B501" d="m12.775 12.625 3.963-1.603-.605-3.13 2.93-.833.27 1.384-1.648.372.61 3.277-4.905 1.734-.615-1.201Z"/><path fill="#00AEFF" d="m14.56 15.138.859 2.114 1.643-1.472-2.502-.642Z"/></g><defs><clipPath id="a"><path fill="#fff" d="M0 0h19.334v20H0z"/></clipPath></defs></svg>