<svg xmlns="http://www.w3.org/2000/svg" viewBox="0 0 24 24"><path d="M21.8 5.9c-1.7-2.3-4.1-3.9-7-4.4-2.8-.5-5.6.2-7.9 1.8C5.9 4 5 4.9 4.3 5.9c-.3.3-.2.8.2 1.1.3.2.8.2 1-.2.6-.9 1.4-1.6 2.2-2.2 2-1.4 4.5-2 6.9-1.6 2.4.4 4.6 1.8 6 3.8 1.4 2 2 4.5 1.6 6.9s-1.8 4.6-3.8 6c-2 1.4-4.5 2-6.9 1.6-2.4-.4-4.6-1.8-6-3.8-.2-.3-.7-.4-1-.2-.3.2-.4.7-.2 1 1.7 2.3 4.1 3.9 7 4.4.6.1 1.2.2 1.8.2 2.2 0 4.3-.7 6.2-2 2.3-1.7 3.9-4.1 4.4-7 .4-2.8-.2-5.7-1.9-8z" /><path d="M11.1 14.7c-.3.3-.3.8 0 1.1.1.1.3.2.5.2s.4-.1.5-.2l2.8-3c.3-.3.3-.7 0-1l-2.8-3c-.3-.3-.8-.3-1.1 0-.3.3-.3.8 0 1.1l1.6 1.7H1.5c-.4 0-.8.3-.8.8s.3.8.8.8h11.3l-1.7 1.5z" /></svg>