<svg width="24" height="24" viewBox="0 0 24 24" fill="none" xmlns="http://www.w3.org/2000/svg">
<path d="M22.8658 17.1796C22.8658 18.5928 21.7186 19.74 20.3053 19.74H3.42912C2.01586 19.74 0.868652 18.5928 0.868652 17.1796V6.86046C0.868652 5.44719 2.01586 4.29999 3.42912 4.29999H20.3082C21.7214 4.29999 22.8687 5.44719 22.8687 6.86046L22.8658 17.1796Z" fill="white"/>
<line x1="6.68878" y1="6.26672" x2="6.68878" y2="17.6116" stroke="#00297F" stroke-width="1.5" stroke-linecap="round" stroke-dasharray="0.1 3"/>
<path d="M14.8316 13.9595L16.7265 14.9554L14.8316 13.9595ZM14.8316 13.9595H14.8313L12.9364 14.9554M14.8316 13.9595L12.9364 14.9554M12.9364 14.9554C12.7723 15.0419 12.5804 14.9026 12.6118 14.7197M12.9364 14.9554L12.6118 14.7197M12.6118 14.7197L12.9737 12.6099L12.6118 14.7197ZM14.8313 13.4595H14.7079L14.5987 13.5169L13.1993 14.2524L13.4665 12.6944L13.5109 12.4354L13.3227 12.2519L12.1908 11.1485L13.7554 10.9212L14.0156 10.8834L14.1319 10.6476L14.8315 9.22991L15.5312 10.6477L15.6476 10.8834L15.9077 10.9212L17.4722 11.1485L16.3402 12.2518L16.152 12.4353L16.1964 12.6944L16.4636 14.2524L15.0642 13.5169L14.955 13.4595H14.8316H14.8313ZM13.1046 14.8042L13.1046 14.8042L13.1046 14.8042Z" fill="#071124" stroke="#00297F"/>
</svg>
