<svg viewBox="0 0 24 24" fill="none" xmlns="http://www.w3.org/2000/svg">
<path d="M22.9971 16.8796C22.9971 18.2928 21.8499 19.4401 20.4367 19.4401H3.56047C2.1472 19.4401 1 18.2928 1 16.8796V6.56047C1 5.1472 2.1472 4 3.56047 4H20.4395C21.8528 4 23 5.1472 23 6.56047L22.9971 16.8796Z" fill="white"/>
<path d="M6.01758 7.51562L8.2207 14.207H8.31445L10.5293 7.51562H12.2051L9.20508 16H7.33008L4.3418 7.51562H6.01758ZM17.8301 9.84766C17.7598 9.12109 17.1387 8.69922 16.2246 8.69922C15.2637 8.69922 14.6777 9.16797 14.6777 9.80078C14.6777 10.5156 15.4277 10.8086 16.1309 10.9727L16.9277 11.1836C18.1934 11.4766 19.4121 12.1445 19.4121 13.6211C19.4121 15.1094 18.2402 16.1289 16.2012 16.1289C14.2207 16.1289 12.9785 15.1797 12.9082 13.5039H14.4082C14.4785 14.3945 15.2285 14.8281 16.1895 14.8281C17.1973 14.8281 17.8887 14.3359 17.8887 13.6094C17.8887 12.9414 17.2676 12.6602 16.3535 12.4258L15.3926 12.1797C13.998 11.8164 13.1309 11.1133 13.1309 9.89453C13.1309 8.39453 14.4668 7.39844 16.248 7.39844C18.0527 7.39844 19.2715 8.41797 19.2949 9.84766H17.8301Z" fill="#203868"/>
</svg>
