<svg xmlns="http://www.w3.org/2000/svg" width="7" height="6" fill="none"><path fill="#F4F4F4" d="M0 0h7v6H0z"/><g clip-path="url(#a)"><path fill="#F9F9F9" d="M-645-717h1920v1791H-645z"/><g filter="url(#b)"><path fill="#fff" d="M-185-175h988c6.627 0 12 5.373 12 12v900c0 6.627-5.373 12-12 12h-976c-6.627 0-12-5.373-12-12v-912Z" shape-rendering="crispEdges"/><path fill="#FF000A" d="M3.691 6H2.528l.092-2.197L.69 4.983.109 4.01l2.036-1.003L.11 1.99l.582-.973 1.929 1.18L2.528 0H3.69l-.107 2.197 1.928-1.18.597.973-2.035 1.017L6.109 4.01l-.597.973-1.928-1.18L3.69 6Z"/></g></g><defs><clipPath id="a"><path fill="#fff" d="M-645-717h1920v1791H-645z"/></clipPath><filter id="b" width="1060" height="984" x="-215" y="-205" color-interpolation-filters="sRGB" filterUnits="userSpaceOnUse"><feFlood flood-opacity="0" result="BackgroundImageFix"/><feColorMatrix in="SourceAlpha" result="hardAlpha" values="0 0 0 0 0 0 0 0 0 0 0 0 0 0 0 0 0 0 127 0"/><feOffset/><feGaussianBlur stdDeviation="15"/><feComposite in2="hardAlpha" operator="out"/><feColorMatrix values="0 0 0 0 0 0 0 0 0 0 0 0 0 0 0 0 0 0 0.08 0"/><feBlend in2="BackgroundImageFix" result="effect1_dropShadow_1340_16789"/><feBlend in="SourceGraphic" in2="effect1_dropShadow_1340_16789" result="shape"/></filter></defs></svg>