<svg viewBox="0 0 14 14" fill="none" xmlns="http://www.w3.org/2000/svg">
<path d="M12.4795 6.67457C12.196 6.67457 11.9655 6.90511 11.9655 7.18851V11.2575C11.9655 11.6516 11.6449 11.9722 11.2508 11.9722H2.74262C2.34852 11.9722 2.02788 11.6516 2.02788 11.2575V2.74936C2.02788 2.35525 2.34852 2.03461 2.74262 2.03461H6.81162C7.09502 2.03461 7.32555 1.80408 7.32555 1.52067C7.32555 1.23727 7.09502 1.00684 6.81162 1.00684H2.74262C1.78171 1.00684 1 1.78855 1 2.74936V11.2575C1 12.2184 1.78171 13.0001 2.74262 13.0001H11.2508C12.2117 13.0001 12.9934 12.2184 12.9934 11.2575V7.18851C12.9934 6.90511 12.7629 6.67457 12.4795 6.67457Z" fill="white"/>
<path d="M12.4156 1H9.52605C9.39049 1 9.26264 1.05226 9.16594 1.14723C9.06944 1.242 9.01485 1.36874 9.01221 1.50389C9.00957 1.64057 9.06183 1.77045 9.15914 1.86969C9.25766 1.97014 9.39455 2.02778 9.53447 2.02778H11.2481L6.64008 6.64734C6.43998 6.84784 6.44029 7.17386 6.64099 7.37426C6.7381 7.47096 6.86696 7.52423 7.00384 7.52423C7.14072 7.52423 7.27071 7.47055 7.36771 7.37324L11.9727 2.75683V4.63907C11.9727 4.77463 12.0249 4.90248 12.1199 4.99918C12.2147 5.09568 12.3414 5.15027 12.4766 5.15291C12.613 5.15565 12.7431 5.10339 12.8423 5.00598C12.9428 4.90746 13.0004 4.77057 13.0004 4.63065V1.58507C13.0004 1.2625 12.7379 1 12.4154 1H12.4156Z" fill="white"/>
</svg>
