<svg viewBox="0 0 24 24" fill="none" xmlns="http://www.w3.org/2000/svg">
<path d="M22.9971 17.1796C22.9971 18.5928 21.8499 19.74 20.4367 19.74H3.56047C2.1472 19.74 1 18.5928 1 17.1796V6.86046C1 5.44719 2.1472 4.29999 3.56047 4.29999H20.4395C21.8528 4.29999 23 5.44719 23 6.86046L22.9971 17.1796Z" fill="white"/>
<path fill-rule="evenodd" clip-rule="evenodd" d="M20.5545 12.3582V7.74542L20.5576 6.74542H3.44849V14.3635L5.61578 12.7556C6.08653 12.4071 6.73763 12.4407 7.16865 12.835L11.5032 16.7967L16.5592 9.76293C16.7824 9.45113 17.1431 9.26161 17.5282 9.2555C17.9134 9.23715 18.2802 9.42362 18.5156 9.7293L20.5545 12.3582Z" fill="#203868"/>
</svg>
