<svg xmlns="http://www.w3.org/2000/svg" xml:space="preserve" style="enable-background:new 0 0 24 24" viewBox="0 0 24 24"><path d="M23 17.1c0 1.4-1.1 2.6-2.6 2.6H3.6c-1.4 0-2.6-1.1-2.6-2.6V6.8c0-1.5 1.1-2.6 2.6-2.6h16.9c1.4 0 2.5 1.1 2.5 2.6v10.3z" style="fill:#9da4b1"/><path d="m6 7.8 2.2 6.7h.1l2.2-6.7h1.7l-3 8.5H7.3l-3-8.5H6zm11.8 2.3c-.1-.7-.7-1.1-1.6-1.1-1 0-1.5.5-1.5 1.1 0 .7.8 1 1.5 1.2l.8.2c1.3.3 2.5 1 2.5 2.4 0 1.5-1.2 2.5-3.2 2.5s-3.2-.9-3.3-2.6h1.5c.1.9.8 1.3 1.8 1.3s1.7-.5 1.7-1.2-.6-.9-1.5-1.2l-1-.2c-1.4-.4-2.3-1.1-2.3-2.3 0-1.5 1.3-2.5 3.1-2.5s3 1 3 2.4h-1.5z" style="fill:#fff"/></svg>