<svg xmlns="http://www.w3.org/2000/svg" viewBox="0 0 24 24"><path d="M23.1 14.2c.4 0 .8-.3.8-.8V6.8c0-1.8-1.5-3.3-3.3-3.3H3.5C1.7 3.5.2 5 .2 6.8v10.4c0 1.8 1.5 3.3 3.3 3.3h17.1c1.8 0 3.3-1.5 3.3-3.3 0-.4-.3-.8-.8-.8s-.8.3-.8.8c0 1-.8 1.8-1.8 1.8h-17c-1 0-1.8-.8-1.8-1.8V6.8c0-1 .8-1.8 1.8-1.8h17.1c1 0 1.8.8 1.8 1.8v6.7c0 .4.3.7.7.7z"/><path d="M8 13.6c0-.6-.4-1-1-1s-1 .5-1 1 .4 1 1 1 1-.4 1-1zm0-3.2c0-.6-.4-1-1-1s-1 .4-1 1v.1c0 .6.4 1 1 1s1-.4 1-1.1c0 .1 0 0 0 0zm-1 5.2c-.6 0-1 .5-1 1s.4 1 1 1 1-.4 1-1v-.1c0-.5-.4-.9-1-.9zm1-8.3c0-.6-.4-1-1-1s-1 .4-1 1v.1c0 .6.4 1 1 1s1-.3 1-1.1z"/><defs><filter id="a" width="9" height="8.6" x="10.5" y="7.7" filterUnits="userSpaceOnUse"><feColorMatrix values="1 0 0 0 0 0 1 0 0 0 0 0 1 0 0 0 0 0 1 0"/></filter></defs><mask id="b" width="9" height="8.6" x="10.5" y="7.7" maskUnits="userSpaceOnUse"><path d="m15 14.3-1.9 1c-.2.1-.4-.1-.3-.2l.4-2.1-1.6-1.5c-.1-.1-.1-.4.1-.4l2.1-.3 1-1.9c.1-.2.3-.2.4 0l1 1.9 2.1.3c.2 0 .3.3.1.4L16.8 13l.4 2.1c0 .2-.2.3-.3.2l-1.9-1z" style="fill:#fff;filter:url(#a)"/></mask><path d="m15 14.3-1.9 1c-.2.1-.4-.1-.3-.2l.4-2.1-1.6-1.5c-.1-.1-.1-.4.1-.4l2.1-.3 1-1.9c.1-.2.3-.2.4 0l1 1.9 2.1.3c.2 0 .3.3.1.4L16.8 13l.4 2.1c0 .2-.2.3-.3.2l-1.9-1z" style="mask:url(#b);fill:currentColor;stroke:currentColor;stroke-width:2"/></svg>