<svg xmlns="http://www.w3.org/2000/svg" xml:space="preserve" x="0" y="0" style="enable-background:new 0 0 78 59" version="1.1" viewBox="0 0 78 59"><style>.st0{fill:#fff}</style><path d="M57.6 19.3c-.1-.3-.2-.5-.2-.8-.6.5-1.6 1.4.2.8zM29.5 47.4c.2-.6.3-1.5.1-2.6-.2-.1-.4-.1-.6-.2-1.5 0-3.3.2-5.2.6 1.7 1.2 3.4 2.2 5.3 3.1.1-.3.3-.6.4-.9zM17.1 46.7c2.4 1.9 7.1 4.9 10.8 2.8 0 0 .3-.1.6-.4-1.9-1-3.9-2.2-5.8-3.7-1.8.4-3.6.8-5.6 1.3zM30.4 48.9c1 .4 2.1.8 3.2 1.1.8-1.3 1.6-2.7 2.5-4.3h-1c-1.1 0-2-.1-2.9-.2l-1.2-.3c.1.9 0 1.8-.2 2.6-.1.4-.3.8-.4 1.1zM58.2 19c.4-.2.8-.3 1.4-.6.5-.1.9-.3 1.4-.6-1.7-2.5-3.8-4.7-6.2-6.5 1.5 2.7 2.6 5.2 3.4 7.7zM52.7 48.2c-2.3-.3-4.8-1.1-7-2.1-.8.3-1.3.5-1.5.6-3.1 1.1-4.8 2.8-5.5 4.4 1.6.2 3.2.3 4.8.3 8.4.1 15.2-2.7 17-3.5.1-.1.2-.3.3-.4-.6.3-2.2.7-2.2.7-2.3.5-4.3.3-5.9 0z" class="st0"/><path d="M29.8 49.7c-.6.8-1.2 1.1-1.2 1.1-4.7 2.6-9.8-1.6-12.1-3.9h-.1c3 4.5 7.1 8 12 10 .1-.1.2-.3.4-.5.9-1 2.4-2.9 4.1-5.5-1-.3-2.1-.8-3.1-1.2zM36.9 52.8v-.7c-.9-.2-1.8-.4-2.7-.7-1.9 2.9-3.5 5-4.4 6.1 1 .3 1.9.6 2.9.9 3 .7 6 .9 9 .5C40 58 37 56 36.9 52.8z" class="st0"/><path d="M38.4 52.3v.4c0 2.9 3.6 5.3 4.7 5.9 3.5-.6 6.8-1.8 9.9-3.7 2.2-1.3 4.1-2.9 5.7-4.7-4 1.5-11.7 3.5-20.3 2.1zM43.6 45.4h.2s.1 0 .2-.1c-.2-.1-.3-.2-.5-.2-.5-.2-1.3-.3-2.5-.2-1.3.3-2.5.5-3.5.7-.9 1.8-1.8 3.4-2.6 4.8.8.2 1.5.4 2.3.5.6-2.1 2.6-4.2 6.4-5.5zM24 20.3l-1.4-.1c-.4 0-.8-.2-1-.4-.2-.3-.3-.6-.2-.9l1.7-7.6c-2.9 2.1-5.3 4.6-7.1 7.6 3 1.1 5.6 2.1 7.7 3 .1-.5.2-1.1.3-1.6zM42.6 25.5s.1 0 .1-.1c.3-1.8.5-3.6.6-5.6l-18.4.3c0 .7-.1 1.4-.2 2.1 2.3.9 3.6 1.6 3.6 1.6 3 1.4 4.2.4.3-1.6 7.2-.9 14 3.3 14 3.3zM54.6 12l-1.3 6.5c-.2.7-.9 1.2-1.7 1.2l-7.3.1c-.1 1.7-.2 3.4-.4 5 2.4-1.3 8.5-4.6 13.4-6.4-.7-2.1-1.6-4.2-2.7-6.4z" class="st0"/><path d="M72.4 17.3c-2.9-.1-6.2.4-9.2 1.4-2.9.9-6.2 2.5-8.7 4.6 0 0-4.3 3.6-3.7 8.9.3 5.1 8.5 4.8 7 8.9-.7 2-3 2.3-4.5 2.1 0 0-3.8-.1-4.4-3.3.2-4 .6-9.8.8-12.6-.1-3.1 4.2-5.9 4.2-5.9-9.3 4-10.6 5.7-10.6 5.7l-.9 14.1c-.8-.4-1.5-.6-1.5-1.9l.5-5.9-6.9-.4s1.8.8 1.6 2.8c0 0-.5 3.7-.6 4.4-1.4 0-2.4-.3-3.2-1.1-1.3-1.5-1.2-4-1-5.3.3-1.8 1-3.2 2.1-4.1 1.1-.8 2.4-1.2 4-1 2.2.2 4 2.3 4 2.3s1-3 .2-4.3c-.8-1.3-9-3.4-9-3.4s3.3 1.3.9 2.1c-2.1.4-4 1.1-5.6 2.4-1.1.9-2 1.9-2.6 3.1-.5.2-1.2.5-1.8.4-.1.7-.3 1.7-.5 3.2.8.3 1.1.9 1.3 1.3 0 1.2.2 2.2.7 3.2-.4.8-1.2 1.8-3 1.8l-5.4.2.7-7.1 4.2.2c.2 0 .4 0 .6.1.1-.6.4-2 .8-3l-5.4-.8.5-5.4 5 1.5c2.1 1 1.3 1.9 1.3 1.9l3.2-2.9s-13.5-6-22.7-8.2c0 0 4.3 2.9 3.7 6.7 0 0-2.1 14.3-2.5 16.8-.6 4-5.1 8.1-6.1 9 4.9-1.8 19.4-6.8 29.3-7 1 .4 2 .8 3.2 1 .8.1 1.7.2 2.5.3 1.4.1 3.7-.4 5.7-.9.8-.1 2.4-.1 3.4.3 2.2 1.1 5.8 2.6 8.9 3 2.2.4 4.6.5 7.5-.6 3-1.1 5.3-3.3 6.6-6.1 1.3-2.9.8-4.9-1-6.6-1.4-1.4-3.3-1.9-5.1-2.5-.2-.1-2.1-.7-2.2-2.1-.2-1.7 2.8-2.3 3.7-2.5 2.4-.4 3.9.5 5.4 1.4 1.9-2.9 6.9-8.7 10.3-9.5-.7-.2-2.5-.5-5.7-.7z" class="st0"/><path d="M23.4 19.3h2.4l17.8-.3h.8l7.1-.1c.6 0 1.2-.4 1.3-.9l1.4-6.9 1.5-7.8c-.1-.7-.4-1.1-1-1.1l-15.2.2-2.8 3.2-3.8 4.4 1.8 6.4-2.9.1-1.1-4.2-.7 1-.6 3.3-2.9.1.1-.5.6-2.8 1-5.2.6-3.2h2.9l-.4 2.1-.3 1-.1.7 5.4-6.3-9.4.1c-.6 0-1.2.4-1.3 1l-1.4 6.8-1.7 8c-.1.5.3.9.9.9zM44.2 7.9c.2-.7.5-1.3 1-1.7 1.3-1.3 3.5-1.4 3.5-1.4 4 0 3.5 3 3.5 3L52 9v.2l-2.8.1.2-1.4v-.1c0-.8-1-.8-1-.8-.2 0-.4 0-.6.1-.6.3-.7.9-.7.9l-1 5.6c-.2 1 .9.8.9.8 1.1.1 1.4-1 1.4-1l.2-1.3 2.8-.1-.3 1.6c-.9 2.9-4.5 2.8-4.5 2.8-.9 0-1.6-.2-2.1-.4-.3-.2-.6-.4-.7-.6-.7-.9-.5-2.1-.5-2.1l.3-1.8L44 9l.2-1.1zm-9.3 5.7 1-5.4c.3-1.4 1.4-2.2 2.4-2.6 1.1-.4 2-.5 2-.5 3.9-.2 3.4 2.9 3.4 2.9l-.3 1.4h-.1l-2.7.1.5-1.5c.1-.9-1-.9-1-.9-1.3.1-1.3 1.1-1.3 1.1l-1 5.6c-.2 1 .9.8.9.8 1.1.1 1.4-1 1.4-1l.2-1.3 2.8-.1-.4 1.7c-.9 2.9-4.5 2.8-4.5 2.8-4 .1-3.3-3.1-3.3-3.1zM41.4 0l-3.2.1-2 2.3h3.2z" class="st0"/></svg>