<svg xmlns="http://www.w3.org/2000/svg" width="60" height="33" fill="none"><g clip-path="url(#a)"><path fill="#1D4D9C" d="M52.967 33.002c1.081 0 2.142-.879 2.36-1.966l4.63-24.973c.224-1.076-.48-1.96-1.465-1.96H7.587c-1.177 0-2.227.879-2.456 1.96L.043 31.036c-.23 1.087.48 1.966 1.56 1.966h51.37-.006Z"/><path fill="#fff" d="m23.8 14.38-1.976 9.623s-1.343 5.536 5.951 5.536c0 0 6.41.219 8.179-4.88l.586-2.851h-4.998l-.463 2.265s-.49 1.89-2.547 1.752c0 0-2.126.219-1.657-1.529l2.03-9.915s.053-1.642 2.355-1.823c0 0 2.078 0 1.86 1.599l-.512 2.483h4.998l.506-2.483s.986-5.323-6.128-5.174c0 0-6.825.288-8.178 5.398H23.8ZM39.023 14.38l-1.977 9.623s-1.342 5.536 5.947 5.536c0 0 6.41.219 8.184-4.88l.58-2.851h-5.003l-.458 2.265s-.5 1.89-2.547 1.752c0 0-2.126.219-1.667-1.529l2.035-9.915s.053-1.642 2.355-1.823c0 0 2.083 0 1.854 1.599l-.506 2.483h4.998l.506-2.483s.986-5.323-6.122-5.174c0 0-6.825.288-8.179 5.398Z"/><path fill="#fff" d="M30.706 4.167h-5.792L14.7 15.302l1.625-7.257-5.28-.005-4.518 20.982h5.28l1.22-5.855 1.364-1.572 1.817 7.427h5.232L18.41 17.604 30.706 4.167Z"/><path fill="#EB2D2D" d="M34.52 0h-5.802l-3.804 4.167h5.781L34.521 0Z"/></g><defs><clipPath id="a"><path fill="#fff" d="M0 0h60v33.002H0z"/></clipPath></defs></svg>