<svg xmlns="http://www.w3.org/2000/svg" id="_레이어_1" viewBox="0 0 108 70"><defs><linearGradient id="linear-gradient" x1="-265.91" x2="-265.91" y1="-129.34" y2="-117.08" gradientTransform="rotate(-.97 9412.524 -19144.86)" gradientUnits="userSpaceOnUse"><stop offset="0" stop-color="#00aeef"/><stop offset="1" stop-color="#0072bc"/></linearGradient><style>.cls-3,.cls-4,.cls-5{stroke-width:0}.cls-3{fill:#fff}.cls-4{fill:#f7941d}.cls-5{fill:#231f20}</style></defs><path d="M43.21 56.81c.17-.32.33-.68.45-1.11.58-2.12.37-6.06-4-12.88-.11-.2-10.79-18.77 7.63-35.28-3.24.79-6.37 2.09-9.28 3.89-7.23 4.44-12.25 11.4-14.16 19.58-.54 2.28-.81 4.58-.83 6.86l.1-.02c5.52 8.97 12.24 15.3 20.1 18.96Z" class="cls-4"/><path d="M41.87 58.27s.31-.17.66-.52c-6.81-3.43-13.59-9.24-19.5-18.67.15 4.96 1.49 9.82 3.99 14.24l.04-.05c.08.08 8.63 8.39 14.82 5.01ZM41.13 41.95c2.11 3.3 3.48 6.25 4.1 8.83l6.29-43.97c-1.01.11-2.01.26-3.01.46-18.06 15.74-7.8 33.96-7.39 34.68ZM45.31 56.21c-.14.49-.32.91-.51 1.28 1.23.51 2.49.96 3.78 1.34C55.01 48.68 63.39 30.27 59.71 7c-2.73-.42-5.48-.48-8.18-.2l-6.29 43.97c.49 2.05.52 3.87.07 5.44ZM78.22 39.52c-4.27 11.17-15.93 15.04-16.94 15.37-3.73 1.34-5.72 3.31-6.5 5.27 1.85.25 3.76.38 5.71.39 10.04.06 18.17-3.2 20.33-4.14 2.41-3.33 4.16-7.13 5.12-11.24 2.93-12.51-2.19-25.03-12-32.28 5.6 10.29 7.34 18.66 4.29 26.64Z" class="cls-4"/><path d="m44.14 58.51-.01.01c-.72.89-1.44 1.25-1.45 1.25-5.73 3.12-12.05-2.22-14.69-4.86 3.52 5.49 8.56 9.68 14.52 12.15.13-.15.29-.34.48-.55 1.02-1.2 2.81-3.42 4.87-6.55-1.23-.41-2.48-.89-3.71-1.45ZM52.65 62.1c0-.28 0-.56.03-.84-1.07-.21-2.15-.48-3.24-.8-2.22 3.51-4.17 5.97-5.24 7.24 1.14.4 2.31.74 3.51 1.01 3.57.82 7.19 1.02 10.73.63-2.09-1.05-5.67-3.38-5.79-7.25Z" class="cls-4"/><path d="M54.41 61.57c-.02.18-.03.36-.04.54-.04 3.47 4.34 6.3 5.58 7.03a32.3 32.3 0 0 0 11.81-4.39c2.57-1.58 4.86-3.48 6.84-5.64-4.79 1.71-13.92 4.11-24.18 2.47ZM50.17 59.28c.92.22 1.84.43 2.78.6.77-2.53 3.04-5.03 7.59-6.52l.06-.04h.06c.13-.06 12.09-3.9 16.35-14.52 2.99-7.43 1.61-16.39-4.12-26.64a31.697 31.697 0 0 0-10.83-4.7c-.53-.12-1.05-.23-1.58-.32 3.88 23.3-3.98 41.74-10.31 52.15ZM44.13 58.51v.02-.01ZM59.9 70Z" class="cls-4"/><path d="M70.11 22.39c.73-.01 1.43-.51 1.56-1.13l3.55-17.52c.13-.62-.34-1.11-1.01-1.1l-34.18.49c-.79.01-1.49.52-1.63 1.14l-3.86 17.52c-.13.62.35 1.1 1.07 1.09l34.5-.49Z" style="fill:#034ea2;stroke-width:0"/><path d="m51.03 9.75-1.21 6.47s-.84 3.73 4.06 3.64c0 0 4.3.08 5.44-3.36l.36-1.91-3.36.06-.28 1.52s-.31 1.27-1.69 1.2c0 0-1.42.17-1.13-1.01l1.24-6.66s.03-1.09 1.56-1.25c0 0 1.4-.02 1.27 1.05l-.32 1.67 3.36-.06.32-1.67s.6-3.58-4.18-3.4c0 0-4.58.27-5.43 3.7ZM61.26 9.58l-1.22 6.47s-.84 3.73 4.05 3.64c0 0 4.31.08 5.44-3.36l.37-1.91-3.36.06-.28 1.52s-.31 1.27-1.69 1.2c0 0-1.42.17-1.14-1.01l1.25-6.66s.02-1.09 1.56-1.25c0 0 1.39-.02 1.26 1.05L67.19 11l3.36-.06.31-1.67s.6-3.58-4.17-3.4c0 0-4.58.27-5.43 3.7Z" class="cls-3"/><path d="m55.55 2.84-3.88.06-6.73 7.58 1.01-4.88-3.55.05-2.8 14.11 3.55-.06.75-3.93.9-1.08 1.3 4.97 3.51-.06-2.16-7.62 8.1-9.14" class="cls-3"/><path d="m58.07 0-3.89.07-2.51 2.83 3.88-.07L58.07 0z" style="fill:#ed1c24;stroke-width:0"/><path d="M7.81 15.72c7.89 6.27 8.15 12.49 8.15 12.49 0 .1-2.96 18.72-2.99 18.96C11.62 53.32.01 64.26.01 64.26c3.97-1.43 31.24-11.46 43.14-11.89 1.19.48 2.46.85 3.81 1.1 1.09.19 2.21.31 3.34.34 1.57.04 3.92-.3 7.17-1.05 1.42-.1 2.44.03 2.78.2 2.96 1.43 7.28 3.22 11.16 3.7 1.99.36 4.32.61 7.09.05 0 0 1.82-.46 2.64-.78 1.04-.42 3.04-1.21 3.04-1.21 3.72-1.28 8.85-1.76 13.1-.5-5.72-3.34-6.77-5.41-5.84-10.08.89-4.52-2.03-7-2.03-7 6.38-15.14 18.6-16.5 18.6-16.5-15.55-5.02-23.61-1.46-28.33.66-6.46 2.9-2.31-.26-2.31-.26-7.52 2.74-17.81 8.62-17.81 8.62s-8.15-5.05-16.73-3.92c4.6 2.4 3.14 3.51-.41 1.86 0 0-19.06-8.57-34.6-11.87Z" class="cls-5"/><path d="M94.93 19.99c-3.44-.16-7.38.51-10.94 1.64-3.45 1.1-7.41 2.95-10.35 5.45 0 0-5.14 4.28-4.38 10.56.41 6.02 10.16 5.75 8.37 10.61-.87 2.36-3.61 2.7-5.32 2.52 0 0-4.58-.13-5.23-3.9.26-4.71.69-11.62.9-14.95 0-.01.01-.02.01-.02-.06-3.71 5.05-7.02 5.05-7.02-11.14 4.77-12.63 6.77-12.63 6.77l-1.11 16.8c-.95-.44-1.8-.75-1.83-2.2l.59-6.97-8.26-.46s2.12.93 1.86 3.33c0 0-.56 4.39-.73 5.3-1.64.05-2.91-.4-3.78-1.36-1.59-1.76-1.44-4.72-1.2-6.32.31-2.13 1.18-3.8 2.52-4.85 1.26-.98 2.88-1.38 4.81-1.18 2.68.28 4.82 2.69 4.82 2.69s1.18-3.55.25-5.15c-.93-1.6-10.69-4.06-10.69-4.06s3.88 1.52 1.05 2.47c-2.5.41-4.81 1.37-6.69 2.83a11.608 11.608 0 0 0-3.11 3.65c-.59.31-1.55.69-2.26.42l-7.16-1.1.6-6.47 5.94 1.8c2.44 1.15 1.61 2.28 1.61 2.28l3.84-3.46s-16.13-7.09-27.07-9.78c0 0 5.09 3.45 4.42 7.96l-2.99 19.96c-.71 4.72-6.11 9.69-7.25 10.68 5.66-2.04 23.04-7.95 34.83-8.22 1.15.51 2.44.89 3.82 1.14.96.17 1.97.28 3.02.31 1.68.05 4.43-.47 6.81-1.02.92-.08 2.89-.16 4.03.39 2.63 1.27 6.89 3.08 10.57 3.52 2.65.49 5.45.62 8.9-.69 3.52-1.36 6.34-3.96 7.83-7.25 1.56-3.42.91-5.83-1.21-7.89-1.68-1.63-3.9-2.29-6.09-2.99-.19-.05-2.52-.85-2.68-2.56-.2-2.06 3.35-2.76 4.39-2.95 2.81-.53 4.64.58 6.47 1.7 2.29-3.47 8.17-10.39 12.28-11.28-.76-.14-2.82-.59-6.65-.7Zm-60.2 27.86-6.37.2.77-8.38 5.07.3c2.29.04 3.07 1.16 3.33 1.93.01 1.38.29 2.65.82 3.78-.44.96-1.43 2.14-3.62 2.17Z" style="stroke-width:0;fill:url(#linear-gradient)"/><path d="m58.41 38.12.64-6.87c-5.87-4.45-13.38-4.73-13.38-4.73 3.82 1.54 3.47 2.38 3.47 2.38 0 .04-.05.28-.55.34-5.08.53-8.44 3.71-9.38 5.57-.84 1.58-2.42 1.33-2.42 1.33l-6.76-1.04c.07-.7.42-4.53.5-5.42.92.28 4.8 1.41 4.8 1.41 2.54.75 2.41 3.75 2.41 3.75 2.04-3.64 5.28-5.26 5.28-5.26-.16-.07-18.05-7.89-29.57-10.46 0 0 4.53 4.36 4.34 8.66l-2.98 19.96s-1.32 6.7-8.42 12.06c5.13-1.85 25.14-8.75 36.97-9.06 1.16.5 2.45.88 3.82 1.13 1.01.18 2.05.29 3.09.32 1.43.04 3.75-.31 6.89-1.04.8-.06 2.71-.15 3.75.35 2.86 1.39 7.04 3.13 10.7 3.55 2.43.45 5.14.71 9.06-.71 3.85-1.42 6.87-4.08 8.5-7.5 1.62-3.39 1.18-6.07-1.37-8.44-1.78-1.64-5.5-2.79-6.29-3.07-1.03-.38-3.05-.76-2.71-2.32.36-1.62 2.63-2.49 4.21-2.53 2.97-.09 4.8.92 6.59 2.59 2.37-5.57 9.8-11.61 13.31-12.36-3.25-1.02-7.97-1.22-7.97-1.22-3.3-.03-7.24.44-11.1 1.66-2.39.76-6.62 2.48-10.06 5.53-.21.17-5.55 4.51-4.8 11 .22 3.24 2.89 4.76 5.25 6.1 2.53 1.44 3.65 2.35 2.93 4.31-.92 2.48-4.17 2.27-4.82 2.21h-.03c-.17 0-4.7-.2-4.75-3.04.26-4.62.88-15.33.88-15.33s.22-3.75 5.81-7.94c-9.79 3.92-14.32 7.44-14.32 7.44l-1.08 15.54c-.87-.35-.89-1.36-.9-2.15 0-.07.62-5.97.62-5.97l-9.59-.32c.1.03 2.18 1.56 2.21 3.31 0 .1 0 .19-.01.29 0 .03-.45 3.48-.66 4.85-1.29-.03-2.32-.41-3.01-1.19-.93-1.03-1.2-2.52-1.23-3.86-.01-.78.06-1.5.14-2.06.29-2 1.1-3.58 2.35-4.55 1.15-.9 2.65-1.27 4.47-1.08 0 0 4.43.66 5.15 3.9ZM16.62 20.97c9.57 2.66 21.81 7.63 24.33 8.71-1.75 1.14-2.91 2.79-2.91 2.79-.27-1.6-2.42-2.24-2.42-2.24l-5.93-1.81-.68 7.5 7.57 1.16s2.15.39 3.13-1.18c.73-1.34 1.39-2.01 2.65-2.99 1.78-1.4 4.01-2.34 6.47-2.74 1.46-.19 1.29-1.29 1.29-1.29 0-.4-.43-.81-1.11-1.18 6.57 1.66 9.16 3.86 9.16 3.86l-.32 3.92s-1.81-1.9-4.48-2.2c-2.06-.21-3.8.22-5.16 1.28-1.44 1.12-2.37 2.91-2.71 5.16-.24 1.68-.4 4.8 1.33 6.71.96 1.06 2.36 1.58 4.15 1.51l.39-.02.07-.38c.17-.9.71-5.14.73-5.31.02-.15.02-.29.02-.42-.02-1.01-.31-1.85-.92-2.41 2.2.09 5.61.32 6.3.35-.07.86-.49 6.13-.49 6.13.02 1.4 1.17 2.04 2.52 2.68 0 0 1.27-16.23 1.29-16.66.62-.46 2.94-2.33 9.48-5.34-1.61 1.45-2.72 3.06-2.84 5.35l-.9 15.47c.06 3.56 5.28 3.85 5.66 3.87 2.22.22 4.9-.4 5.8-2.83 1.04-2.82-1.09-4.17-3.38-5.48-2.25-1.28-4.59-2.6-4.77-5.35-.69-5.95 4.41-10.11 4.46-10.16 2.43-2.16 5.81-4.1 9.75-5.36 3.75-1.19 7.57-1.77 10.76-1.61h.02c2.02.05 3.54.21 4.64.36-3.02 1.21-7.69 5.5-10.38 10.14-2.34-1.38-4.15-1.84-6.47-1.59-1.12.11-4.61.94-5.09 3.78-.31 1.81 2.12 2.59 3.6 3.15 1.26.47 4.12 1.31 5.65 2.8 2.14 2.07 2.48 4.34 1.11 7.35-1.45 3.2-4.13 5.68-7.57 7-3.52 1.34-6.34 1.09-8.63.66h-.03c-3.53-.41-7.61-2.11-10.41-3.46-1.21-.59-3.2-.53-4.28-.44h-.03l-.04.01c-3.03.7-5.34 1.06-6.68 1.01-1-.03-2-.13-2.96-.3-1.34-.24-2.59-.61-3.71-1.11l-.1-.04h-.11c-10.67.25-25.99 5.13-32.87 7.51 2.07-2.1 5.22-5.8 5.77-9.41l2.99-19.97c.59-3.34-2.71-6.94-2.71-6.94Z" class="cls-3"/><path d="m28.66 39.62-.83 8.92 6.92-.22h-.01c2.43-.04 3.54-1.36 4.05-2.46l.09-.2-.1-.2c-.5-1.06-.76-2.26-.77-3.58v-.07l-.03-.07c-.28-.82-1.14-2.22-3.77-2.26.02 0-5.04-.3-5.04-.3l-.46-.03-.04.47Zm.91.54c.77.05 4.6.28 4.6.28 1.91.03 2.62.84 2.88 1.55.02 1.32.29 2.54.77 3.65-.58 1.12-1.62 1.7-3.09 1.73 0 0-4.92.15-5.83.18.08-.89.61-6.62.68-7.39Z" class="cls-3"/><path d="M37.13 41.86s-.62 5.47 4.97 6.53c0 0-3.46-.95-4.09-6.51M69.78 49.81s-5.12-1.68-6.5-4.07c0 0 1.15 3.69 6.43 5.01l.07-.95Z" class="cls-3"/><path d="M38.02 42.61s-.25-4.25 2.41-7.91l-.31-.87-.99 1.14c-1.27 2.03-2.14 2.21-2.14 6.69l1.02.96Z" class="cls-3"/><path d="M39.66 34.06s-3.28 3.39-2.56 8.87l.77-.17s-.47-5.37 2.68-8.44l-.89-.26Z" class="cls-3"/><path d="M37.71 34.84s-1.72 1.94-1.76 6.98l1.03.08s-.14-3.66 1.9-6.91l-1.17-.16Z" class="cls-5"/><path d="M37.14 35.82s-.95 1.8-1.2 5.47c0 0-.13-.6-1.07-.82 0 0 .54-2.82 1.22-4.42 0 0 .59.05 1.05-.23Z" class="cls-3"/><path d="M35.01 36.84s.61.12.95-.05c0 0-.44 1.14-.6 2.92 0 0-.21-.24-1.03-.26l.68-2.62Z" style="fill:#0088ce;stroke-width:0"/></svg>