<svg viewBox="0 0 24 24" fill="none" xmlns="http://www.w3.org/2000/svg">
<path d="M16.6977 6.39778C17.0825 6.39778 17.3954 6.09168 17.3954 5.71511V3.18266C17.3954 2.8061 17.0825 2.5 16.6977 2.5C16.3128 2.5 16 2.8061 16 3.18266V5.71511C16 6.09168 16.3128 6.39778 16.6977 6.39778Z" fill="#9DA4B1"/>
<path d="M19.3488 3.78934H17.9534V5.15467H19.3488C20.0408 5.15467 20.6046 5.77457 20.6046 6.53651V7.95908H3.39538V6.53651C3.39538 5.77457 3.95915 5.15467 4.65121 5.15467H19.0466V3.78934H4.65121C3.18944 3.78934 2 5.02254 2 6.53651V18.7528C2 20.2679 3.18944 21.5 4.65121 21.5H19.3488C20.8106 21.5 22 20.2679 22 18.7528V6.53651C22 5.02144 20.8106 3.78934 19.3488 3.78934ZM19.3488 20.1358H4.65121C3.95915 20.1358 3.39538 19.5159 3.39538 18.7539V9.32441H12H20.6046V18.7528C20.6046 19.5148 20.0408 20.1347 19.3488 20.1347V20.1358Z" fill="#9DA4B1"/>
<path d="M7.30218 6.39778C7.68703 6.39778 7.99987 6.09168 7.99987 5.71511V3.18266C7.99987 2.8061 7.68703 2.5 7.30218 2.5C6.91733 2.5 6.60449 2.8061 6.60449 3.18266V5.71511C6.60449 6.09168 6.91733 6.39778 7.30218 6.39778Z" fill="#9DA4B1"/>
</svg>
