<svg viewBox="0 0 24 24" fill="none" xmlns="http://www.w3.org/2000/svg">
<path d="M16.6977 5.89778C17.0825 5.89778 17.3954 5.59168 17.3954 5.21511V2.68266C17.3954 2.3061 17.0825 2 16.6977 2C16.3128 2 16 2.3061 16 2.68266V5.21511C16 5.59168 16.3128 5.89778 16.6977 5.89778Z" fill="#fff"/>
<path d="M19.3488 3.28906H17.9534V4.65438H19.3488C20.0408 4.65438 20.6046 5.27429 20.6046 6.03622V7.4588H3.39538V6.03622C3.39538 5.27429 3.95915 4.65438 4.65121 4.65438H19.0466V3.28906H4.65121C3.18944 3.28906 2 4.52226 2 6.03622V18.2526C2 19.7676 3.18944 20.9997 4.65121 20.9997H19.3488C20.8106 20.9997 22 19.7676 22 18.2526V6.03622C22 4.52116 20.8106 3.28906 19.3488 3.28906ZM19.3488 19.6355H4.65121C3.95915 19.6355 3.39538 19.0156 3.39538 18.2537V8.82412H12H20.6046V18.2526C20.6046 19.0145 20.0408 19.6344 19.3488 19.6344V19.6355Z" fill="#fff"/>
<path d="M7.30316 5.89778C7.68801 5.89778 8.00084 5.59168 8.00084 5.21511V2.68266C8.00084 2.3061 7.68801 2 7.30316 2C6.9183 2 6.60547 2.3061 6.60547 2.68266V5.21511C6.60547 5.59168 6.9183 5.89778 7.30316 5.89778Z" fill="#fff"/>
</svg>
