<svg viewBox="0 0 24 24" fill="none" xmlns="http://www.w3.org/2000/svg">
<g clip-path="url(#clip0_12_17613)">
<path d="M11.2151 22.1764C10.8143 22.1764 10.4937 21.8557 10.4937 21.4549V17.7049C10.4937 17.304 10.8143 16.9834 11.2151 16.9834C11.616 16.9834 11.9366 17.304 11.9366 17.7049V21.4549C11.9366 21.8557 11.616 22.1764 11.2151 22.1764Z" fill="#9DA4B1"/>
<path d="M7.75015 9.8753C5.71927 9.8753 4.0625 8.21853 4.0625 6.18765C4.0625 4.15677 5.71927 2.5 7.75015 2.5C9.78103 2.5 11.4378 4.15677 11.4378 6.18765C11.4378 8.21853 9.78103 9.8753 7.75015 9.8753ZM7.75015 3.94299C6.51202 3.94299 5.50549 4.94952 5.50549 6.18765C5.50549 7.42577 6.51202 8.4323 7.75015 8.4323C8.98827 8.4323 9.9948 7.42577 9.9948 6.18765C9.9948 4.94952 8.98827 3.94299 7.75015 3.94299Z" fill="#9DA4B1"/>
<path d="M4.28497 22.1764C3.88414 22.1764 3.56348 21.8557 3.56348 21.4549V17.7049C3.56348 17.304 3.88414 16.9834 4.28497 16.9834C4.6858 16.9834 5.00647 17.304 5.00647 17.7049V21.4549C5.00647 21.8557 4.6858 22.1764 4.28497 22.1764Z" fill="#9DA4B1"/>
<path d="M14.5285 22.1764H0.971496C0.570665 22.1764 0.25 21.8557 0.25 21.4549V15.5315C0.25 13.0819 2.08492 11.0154 4.52553 10.7393C4.91746 10.6948 5.28266 10.9798 5.3272 11.3717C5.37173 11.7726 5.0867 12.1289 4.69477 12.1734C2.98456 12.3694 1.7019 13.8123 1.7019 15.5315V20.7245H13.8159V15.5315C13.8159 13.8123 12.5333 12.3694 10.823 12.1734C10.4222 12.1289 10.1372 11.7726 10.1906 11.3717C10.2352 10.9709 10.6004 10.6859 10.9923 10.7393C13.4329 11.0154 15.2678 13.0819 15.2678 15.5315V21.4549C15.2678 21.8557 14.9471 22.1764 14.5463 22.1764H14.5285Z" fill="#9DA4B1"/>
</g>
<g clip-path="url(#clip1_12_17613)">
<path d="M19.7151 22.1764C19.3143 22.1764 18.9937 21.8557 18.9937 21.4549V17.7049C18.9937 17.304 19.3143 16.9834 19.7151 16.9834C20.116 16.9834 20.4366 17.304 20.4366 17.7049V21.4549C20.4366 21.8557 20.116 22.1764 19.7151 22.1764Z" fill="#9DA4B1"/>
<path d="M16.2501 9.8753C14.2193 9.8753 12.5625 8.21853 12.5625 6.18765C12.5625 4.15677 14.2193 2.5 16.2501 2.5C18.281 2.5 19.9378 4.15677 19.9378 6.18765C19.9378 8.21853 18.281 9.8753 16.2501 9.8753ZM16.2501 3.94299C15.012 3.94299 14.0055 4.94952 14.0055 6.18765C14.0055 7.42577 15.012 8.4323 16.2501 8.4323C17.4883 8.4323 18.4948 7.42577 18.4948 6.18765C18.4948 4.94952 17.4883 3.94299 16.2501 3.94299Z" fill="#9DA4B1"/>
<path d="M9.47169 22.1764H23.0287H23.0465C23.4473 22.1764 23.768 21.8557 23.768 21.4549V15.5315C23.768 13.0819 21.9331 11.0154 19.4925 10.7393C19.1005 10.6859 18.7353 10.9709 18.6908 11.3717C18.6374 11.7726 18.9224 12.1289 19.3232 12.1734C21.0334 12.3694 22.3161 13.8123 22.3161 15.5315V20.7245H10.2021C10.2021 21.1253 9.07086 22.1764 9.47169 22.1764Z" fill="#9DA4B1"/>
</g>
<defs>
<clipPath id="clip0_12_17613">
<rect width="15" height="19.6764" fill="white" transform="translate(0.25 2.5)"/>
</clipPath>
<clipPath id="clip1_12_17613">
<rect width="15" height="19.6764" fill="white" transform="translate(8.75 2.5)"/>
</clipPath>
</defs>
</svg>
