<svg viewBox="0 0 30 30" fill="none" xmlns="http://www.w3.org/2000/svg">
<rect width="30" height="30" rx="6" fill="#16181A"/>
<g clip-path="url(#clip0_153_4500)">
<path d="M21.6922 21.368L16.453 13.7567L15.8606 12.8958L12.1131 7.45126L11.8024 7H7.19727L8.3204 8.63214L13.3033 15.8722L13.8957 16.7321L17.8995 22.5492L18.2101 23H22.8153L21.6922 21.3679V21.368ZM18.7575 21.9584L14.5979 15.9147L14.0055 15.0544L9.1789 8.04162H11.2551L15.1586 13.713L15.751 14.5733L20.8338 21.9584H18.7576H18.7575Z" fill="white"/>
<path d="M14.006 15.0547L14.5982 15.915L13.896 16.7324L8.50836 23.0003H7.17969L13.3037 15.8725L14.006 15.0547Z" fill="white"/>
<path d="M22.2604 7L16.4527 13.7567L15.7504 14.5733L15.1582 13.7132L15.8604 12.8958L19.7945 8.31679L20.9319 7H22.2604Z" fill="white"/>
</g>
<defs>
<clipPath id="clip0_153_4500">
<rect width="15.6359" height="16" fill="white" transform="translate(7.17969 7)"/>
</clipPath>
</defs>
</svg>
