<svg viewBox="0 0 30 30" fill="none" xmlns="http://www.w3.org/2000/svg">
<rect width="30" height="30" rx="6" fill="#181818"/>
<g clip-path="url(#clip0_153_4505)">
<path d="M16.6414 18.6719C15.6081 18.6633 14.6892 18.338 13.8882 17.6801C13.6701 17.5009 13.4625 17.3168 13.3532 17.0481C13.1759 16.6118 13.3106 16.0761 13.6656 15.7987C14.0591 15.4913 14.5771 15.4717 14.9777 15.7508C15.1688 15.8837 15.3245 16.0599 15.5255 16.1825C16.2978 16.6537 17.3043 16.5823 17.9987 16.004C18.0844 15.9326 18.1652 15.857 18.2438 15.7785C19.2173 14.805 20.1906 13.8315 21.1643 12.8582C21.5238 12.4989 21.7471 12.0716 21.8033 11.5637C21.8702 10.9598 21.7134 10.42 21.3229 9.95271C20.878 9.42024 20.3018 9.16551 19.6123 9.18165C19.0546 9.19477 18.5732 9.40927 18.1762 9.80039C17.6629 10.3062 17.1614 10.8238 16.6446 11.326C16.3482 11.614 15.9837 11.7136 15.5827 11.597C15.1698 11.4772 14.9095 11.1958 14.8183 10.7743C14.7383 10.4045 14.8364 10.0708 15.0978 9.80297C15.6384 9.24877 16.1795 8.69371 16.7421 8.16209C17.4067 7.53388 18.2046 7.16169 19.1134 7.04078C20.1445 6.90352 21.1082 7.11264 21.9827 7.66985C23.112 8.3895 23.7695 9.42841 23.9568 10.7533C24.1003 11.7676 23.8787 12.7125 23.3504 13.5864C23.1886 13.8539 22.998 14.1015 22.7772 14.3229C21.7164 15.3865 20.6641 16.4588 19.5873 17.5061C18.9038 18.1709 18.0652 18.5396 17.1145 18.6476C16.9572 18.6655 16.8002 18.6698 16.6416 18.6722L16.6414 18.6719Z" fill="white"/>
<path d="M14.3629 12.3266C15.3923 12.3365 16.3078 12.6605 17.1068 13.3147C17.331 13.4983 17.5431 13.6876 17.6524 13.9649C17.8204 14.3915 17.6855 14.9182 17.3383 15.1962C16.9528 15.5047 16.4239 15.5275 16.0264 15.251C15.8295 15.1142 15.6686 14.9326 15.4607 14.8072C14.6991 14.3474 13.6822 14.4221 13.0049 14.9907C12.9141 15.0671 12.8281 15.1475 12.7444 15.231C11.7786 16.1968 10.8133 17.1634 9.84643 18.1283C9.48112 18.4928 9.25157 18.9237 9.19563 19.4398C9.13066 20.0396 9.28621 20.5764 9.67281 21.0413C10.1222 21.5813 10.7053 21.8373 11.4028 21.8162C11.9561 21.7995 12.4331 21.5833 12.8268 21.1945C13.3369 20.6906 13.8369 20.1764 14.3504 19.6762C14.6497 19.3847 15.0163 19.2836 15.4214 19.4028C15.8295 19.5228 16.0872 19.8017 16.1797 20.2184C16.2617 20.5882 16.1662 20.9232 15.9054 21.191C15.3603 21.7511 14.8147 22.3115 14.2456 22.8468C13.5826 23.4707 12.7861 23.8388 11.881 23.9582C10.8494 24.0942 9.88623 23.8838 9.01255 23.3257C7.88413 22.605 7.22795 21.5652 7.04207 20.2401C6.89965 19.2255 7.12275 18.2811 7.65178 17.4078C7.81185 17.1436 8.00031 16.8988 8.21846 16.6798C9.28169 15.6135 10.3363 14.5382 11.4161 13.489C12.0998 12.8247 12.9393 12.457 13.8902 12.3505C14.0475 12.3328 14.2048 12.3294 14.3631 12.3262L14.3629 12.3266Z" fill="white"/>
</g>
<defs>
<clipPath id="clip0_153_4505">
<rect width="17" height="16.9983" fill="white" transform="translate(7 7)"/>
</clipPath>
</defs>
</svg>
