<svg viewBox="0 0 30 30" fill="none" xmlns="http://www.w3.org/2000/svg">
<rect width="30" height="30" rx="6" fill="#00297F"/>
<path fill-rule="evenodd" clip-rule="evenodd" d="M17.4946 9.03712C18.0523 9.01837 18.6091 9.03337 19.1688 9.0315H19.3984V6.1321C19.1003 6.1021 18.7891 6.05898 18.477 6.04398C17.9051 6.01867 17.3324 5.98961 16.7596 6.00368C15.885 6.02242 15.0582 6.23521 14.3355 6.75266C13.5068 7.34885 13.0522 8.18596 12.8788 9.17398C12.8075 9.58175 12.7888 10.0045 12.7775 10.4189C12.7616 11.0704 12.7738 11.7209 12.7757 12.3724V12.6161H10V15.8558H12.7597V24H16.1316V15.8689H18.8819C19.0235 14.7919 19.1603 13.7251 19.3056 12.6143C19.0844 12.6143 18.8857 12.6143 18.6869 12.6143C17.9051 12.6171 16.1091 12.6143 16.1091 12.6143C16.1091 12.6143 16.1166 11.0085 16.1363 10.3111C16.1634 9.35678 16.7296 9.06524 17.4946 9.03806V9.03712Z" fill="white"/>
</svg>
