<svg viewBox="0 0 30 30" fill="none" xmlns="http://www.w3.org/2000/svg">
<rect width="30" height="30" rx="6" fill="#FFE812"/>
<path d="M15 6C9.47718 6 5 9.53007 5 13.8846C5 16.7 6.8717 19.1702 9.68731 20.5651C9.53408 21.0934 8.70301 23.9636 8.66987 24.1891C8.66987 24.1891 8.64997 24.3584 8.75972 24.4231C8.86947 24.4877 8.99845 24.4376 8.99845 24.4376C9.31303 24.3936 12.6468 22.052 13.2239 21.6452C13.8003 21.7269 14.3938 21.7693 15 21.7693C20.5228 21.7693 25 18.2393 25 13.8846C25 9.52997 20.5229 6 15 6Z" fill="#222222"/>
<path d="M9.47092 16.6375C9.15277 16.6375 8.89404 16.3903 8.89404 16.0865V12.6591H7.99389C7.68164 12.6591 7.42773 12.4057 7.42773 12.0942C7.42773 11.7827 7.68183 11.5293 7.99389 11.5293H10.948C11.2603 11.5293 11.5142 11.7827 11.5142 12.0942C11.5142 12.4057 11.2601 12.6591 10.948 12.6591H10.0479V16.0865C10.0479 16.3903 9.78917 16.6375 9.47102 16.6375H9.47092Z" fill="#FFE812"/>
<path d="M14.5303 16.6299C14.2898 16.6299 14.1057 16.5322 14.0503 16.3751L13.7646 15.6273H12.0053L11.7195 16.3754C11.6642 16.5323 11.4802 16.6299 11.2397 16.6299C11.1126 16.6299 10.9857 16.6024 10.8729 16.5503C10.7139 16.477 10.561 16.2752 10.7361 15.7311L12.1162 12.0987C12.2134 11.8225 12.5087 11.5379 12.8844 11.5293C13.2612 11.5377 13.5566 11.8224 13.654 12.0993L15.0334 15.73C15.209 16.2753 15.0561 16.4773 14.897 16.5504C14.784 16.6024 14.6573 16.6299 14.5302 16.6299H14.5303ZM13.4613 14.6054L12.885 12.9684L12.3087 14.6054H13.4612H13.4613Z" fill="#FFE812"/>
<path d="M15.9611 16.5533C15.6562 16.5533 15.4082 16.316 15.4082 16.0244V12.1062C15.4082 11.788 15.6724 11.5293 15.9972 11.5293C16.3219 11.5293 16.5861 11.788 16.5861 12.1062V15.4956H17.812C18.117 15.4956 18.365 15.7329 18.365 16.0244C18.365 16.316 18.117 16.5533 17.812 16.5533H15.9611Z" fill="#FFE812"/>
<path d="M19.1667 16.6299C18.8486 16.6299 18.5898 16.3711 18.5898 16.053V12.1062C18.5898 11.788 18.8487 11.5293 19.1667 11.5293C19.4848 11.5293 19.7436 11.788 19.7436 12.1062V13.3462L21.3533 11.7366C21.4361 11.6538 21.5498 11.6082 21.6733 11.6082C21.8173 11.6082 21.962 11.6704 22.0703 11.7787C22.1713 11.8796 22.2316 12.0096 22.2398 12.1444C22.2481 12.2805 22.2029 12.4052 22.1125 12.4956L20.7978 13.8102L22.2178 15.6915C22.3107 15.8145 22.35 15.9663 22.3286 16.1189C22.3072 16.2716 22.2277 16.4066 22.1047 16.4994C22.0038 16.5756 21.8839 16.6158 21.7578 16.6158C21.5749 16.6158 21.407 16.5323 21.2969 16.3865L19.944 14.5938L19.7438 14.794V16.0527C19.7436 16.3712 19.4849 16.6299 19.1667 16.6299Z" fill="#FFE812"/>
</svg>
