<svg xmlns="http://www.w3.org/2000/svg" id="Layer_1" viewBox="0 0 13.99 13.99"><path fill="#4c5d80" d="M13.97 4.2a5.44 5.44 0 0 0-.37-1.78c-.36-.94-1.1-1.68-2.04-2.04A5.71 5.71 0 0 0 9.78.01c-.74-.03-.89.01-2.79.01s-2.13 0-2.88.04c-.58.01-1.15.12-1.69.33C1.48.74.74 1.48.38 2.42.16 2.99.04 3.59.02 4.2c-.04.75 0 .9 0 2.79s-.04 2.05 0 2.79c.02.61.15 1.21.37 1.78.36.94 1.1 1.68 2.04 2.04.57.22 1.17.34 1.78.37.74.03.9 0 2.79 0s2.05.03 2.79 0a5.44 5.44 0 0 0 1.78-.37c.94-.36 1.68-1.1 2.04-2.04.22-.57.34-1.17.37-1.78.03-.74 0-.9 0-2.79s.03-2.05 0-2.79Zm-6.98 6.37c-1.98 0-3.58-1.6-3.58-3.58s1.6-3.58 3.58-3.58 3.58 1.6 3.58 3.58-1.6 3.58-3.58 3.58Zm3.72-6.47c-.46 0-.84-.38-.84-.84 0-.46.38-.84.84-.84.46 0 .84.37.84.84 0 .46-.38.84-.84.84Z" /><path fill="#4c5d80" d="M6.99 4.67C5.71 4.67 4.66 5.71 4.66 7S5.7 9.33 6.99 9.33 9.32 8.29 9.32 7 8.28 4.67 6.99 4.67Z" /></svg>