<svg viewBox="0 0 1920 3289" fill="none" xmlns="http://www.w3.org/2000/svg">
<g clip-path="url(#clip0_1874_31851)">
<g opacity="0.04">
<path d="M1419.46 3079.16L1399.82 3099.95V3134.97H1419.46V3079.16Z" fill="#00297F"/>
<path d="M1399.82 3076.88V3086.85L1409.21 3076.88H1399.82Z" fill="#00297F"/>
<path d="M1632.43 2736.73C1612.5 2712.67 1592.43 2686.62 1572.79 2659.28V3040.29H1632.43V2736.73Z" fill="#00297F"/>
<path d="M1412.77 2803.8C1404.8 2809.63 1399.82 2818.89 1399.82 2828.85V3040.43H1412.77V2803.8Z" fill="#00297F"/>
<path d="M1562.39 2644.61C1546.16 2621.83 1529.79 2597.34 1513.56 2572V3040.43H1562.39V2644.61Z" fill="#00297F"/>
<path d="M1513.56 3076.88V3118.03L1552 3076.88H1513.56Z" fill="#00297F"/>
<path d="M1513.56 3134.97H1563.11V3078.16L1513.56 3131.27V3134.97Z" fill="#00297F"/>
<path d="M1572.07 3134.97H1625.89L1572.07 3077.31V3134.97Z" fill="#00297F"/>
<path d="M1635.14 3131.56V3076.88H1583.89L1635.14 3131.56Z" fill="#00297F"/>
<path d="M1643.82 3076.88V3131.27L1694.93 3076.88H1643.82Z" fill="#00297F"/>
<path d="M1702.76 2815.19C1693.08 2805.36 1684.54 2796.39 1676.85 2787.85C1666.17 2776.32 1655.21 2763.64 1643.11 2749.26V3040.43H1702.9V2815.19H1702.76Z" fill="#00297F"/>
<path d="M1429.15 3134.97H1462.31V3112.76L1429.15 3077.17V3134.97Z" fill="#00297F"/>
<path d="M1431 2797.67C1428.58 2797.67 1426.01 2798.1 1423.17 2798.81V3040.43H1462.31V2828.86C1462.31 2811.63 1448.22 2797.67 1431.14 2797.67H1431Z" fill="#00297F"/>
<path d="M1462.31 3099.66V3076.88H1440.96L1462.31 3099.66Z" fill="#00297F"/>
<path d="M1920 2977.93C1900.78 2968.53 1874.02 2955.15 1853.66 2941.76V3040.43H1920V2977.93Z" fill="#00297F"/>
<path d="M1786.75 3076.88V3131.27L1837.72 3076.88H1786.75Z" fill="#00297F"/>
<path d="M1849.82 3134.97V3077.02L1795.72 3134.97H1849.82Z" fill="#00297F"/>
<path d="M1869.6 3076.88L1920 3130.85V3076.88H1869.6Z" fill="#00297F"/>
<path d="M1858.79 3134.97H1911.46L1858.79 3078.45V3134.97Z" fill="#00297F"/>
<path d="M1777.93 3131.56V3076.88H1726.68L1777.93 3131.56Z" fill="#00297F"/>
<path d="M1772.94 2881.11C1753.16 2864.31 1733.08 2845.66 1713.29 2825.87V3040.43H1772.94V2881.11Z" fill="#00297F"/>
<path d="M1843.13 2934.79C1838.14 2931.37 1833.16 2927.95 1827.89 2924.25C1813.8 2914.14 1798.71 2902.47 1783.48 2889.79V3040.29H1843.27V2934.64L1843.13 2934.79Z" fill="#00297F"/>
<path d="M1714.01 3134.97H1768.67L1714.01 3076.88V3134.97Z" fill="#00297F"/>
<path d="M1705.32 3134.97V3079.02L1652.79 3134.97H1705.32Z" fill="#00297F"/>
<path d="M1348.28 3132.84V3076.88H1296.04L1348.28 3132.84Z" fill="#00297F"/>
<path d="M1272.27 2897.91C1252.62 2917.56 1232.55 2935.5 1212.47 2951.44V3040.43H1272.27V2897.91Z" fill="#00297F"/>
<path d="M1216.75 3076.88V3127.57L1264.15 3076.88H1216.75Z" fill="#00297F"/>
<path d="M1286.22 3134.97H1338.04L1286.22 3079.45V3134.97Z" fill="#00297F"/>
<path d="M1342.45 2818.75C1322.8 2843.38 1302.73 2866.3 1282.66 2887.09V3040.43H1342.45V2818.75Z" fill="#00297F"/>
<path d="M1222.15 3134.97H1277.25V3076.88H1276.54L1222.15 3134.97Z" fill="#00297F"/>
<path d="M500.678 3079.16L520.181 3099.95V3134.97H500.678V3079.16Z" fill="#00297F"/>
<path d="M520.181 3076.88V3086.85L510.785 3076.88H520.181Z" fill="#00297F"/>
<path d="M287.566 2736.73C307.496 2712.67 327.569 2686.62 347.214 2659.28V3040.29H287.566V2736.73Z" fill="#00297F"/>
<path d="M507.226 2803.8C515.198 2809.63 520.181 2818.89 520.181 2828.85V3040.43H507.226V2803.8Z" fill="#00297F"/>
<path d="M357.749 2644.61C373.978 2621.83 390.349 2597.34 406.578 2572V3040.43H357.749V2644.61Z" fill="#00297F"/>
<path d="M406.578 3076.88V3118.03L367.999 3076.88H406.578Z" fill="#00297F"/>
<path d="M406.578 3134.97H356.895V3078.16L406.578 3131.27V3134.97Z" fill="#00297F"/>
<path d="M347.926 3134.97H294.114L347.926 3077.31V3134.97Z" fill="#00297F"/>
<path d="M285.003 3131.56V3076.88H336.11L285.003 3131.56Z" fill="#00297F"/>
<path d="M276.177 3076.88V3131.27L225.07 3076.88H276.177Z" fill="#00297F"/>
<path d="M217.241 2815.19C226.921 2805.36 235.462 2796.39 243.15 2787.85C253.827 2776.32 264.789 2763.64 276.889 2749.26V3040.43H217.098V2815.19H217.241Z" fill="#00297F"/>
<path d="M490.855 3134.97H457.685V3112.76L490.855 3077.17V3134.97Z" fill="#00297F"/>
<path d="M489.004 2797.67C491.424 2797.67 493.987 2798.1 496.834 2798.81V3040.43H457.685V2828.86C457.685 2811.63 471.779 2797.67 488.862 2797.67H489.004Z" fill="#00297F"/>
<path d="M457.685 3099.66V3076.88H479.039L457.685 3099.66Z" fill="#00297F"/>
<path d="M0 2977.93C19.2185 2968.53 45.9821 2955.15 66.3394 2941.76V3040.43H0V2977.93Z" fill="#00297F"/>
<path d="M133.248 3076.88V3131.27L82.2837 3076.88H133.248Z" fill="#00297F"/>
<path d="M70.1831 3134.97V3077.02L124.28 3134.97H70.1831Z" fill="#00297F"/>
<path d="M50.5376 3076.88L0 3130.85V3076.88H50.5376Z" fill="#00297F"/>
<path d="M61.3568 3134.97H8.5415L61.3568 3078.45V3134.97Z" fill="#00297F"/>
<path d="M142.075 3131.56V3076.88H193.324L142.075 3131.56Z" fill="#00297F"/>
<path d="M147.057 2881.11C166.845 2864.31 186.918 2845.66 206.706 2825.87V3040.43H147.057V2881.11Z" fill="#00297F"/>
<path d="M76.8738 2934.79C81.8564 2931.37 86.839 2927.95 92.1062 2924.25C106.2 2914.14 121.29 2902.47 136.522 2889.79V3040.29H76.7314V2934.64L76.8738 2934.79Z" fill="#00297F"/>
<path d="M205.994 3134.97H151.328L205.994 3076.88V3134.97Z" fill="#00297F"/>
<path d="M214.82 3134.97V3079.02L267.209 3134.97H214.82Z" fill="#00297F"/>
<path d="M571.715 3132.84V3076.88H624.103L571.715 3132.84Z" fill="#00297F"/>
<path d="M647.735 2897.91C667.38 2917.56 687.453 2935.5 707.526 2951.44V3040.43H647.735V2897.91Z" fill="#00297F"/>
<path d="M703.255 3076.88V3127.57L655.85 3076.88H703.255Z" fill="#00297F"/>
<path d="M633.784 3134.97H581.965L633.784 3079.45V3134.97Z" fill="#00297F"/>
<path d="M577.552 2818.75C597.197 2843.38 617.27 2866.3 637.343 2887.09V3040.43H577.552V2818.75Z" fill="#00297F"/>
<path d="M697.845 3134.97H642.752V3076.88H643.607L697.845 3134.97Z" fill="#00297F"/>
<path d="M760.057 3032.32H788.956C810.737 3032.32 819.42 3041 819.42 3055.95C819.42 3065.92 814.723 3073.32 803.619 3076.6V3077.31C815.292 3079.16 823.549 3085.71 823.549 3100.09C823.549 3115.75 812.872 3126.72 791.66 3126.72H760.057V3032.32ZM787.247 3073.47C799.063 3073.47 807.889 3069.48 807.889 3057.38C807.889 3045.27 801.198 3041.71 787.959 3041.71H771.161V3073.47H787.247ZM790.949 3117.32C804.615 3117.32 811.733 3111.48 811.733 3099.38C811.733 3087.28 803.761 3082.29 789.81 3082.29H771.161V3117.32H790.949Z" fill="#00297F"/>
<path d="M841.771 3093.97V3032.17H853.017V3093.26C853.017 3113.19 861.416 3119.45 877.076 3119.45C892.735 3119.45 900.28 3113.33 900.28 3093.11V3032.17H910.53V3093.68C910.53 3117.75 898.999 3128.28 876.506 3128.28C854.014 3128.28 841.628 3117.32 841.628 3093.83L841.771 3093.97Z" fill="#00297F"/>
<path d="M927.898 3122.02V3112.62C935.016 3116.32 944.27 3118.88 954.235 3118.88C968.756 3118.88 975.162 3112.19 975.162 3101.8C975.162 3092.12 970.464 3088.13 959.217 3084.43L949.964 3081.3C936.725 3076.88 929.322 3070.19 929.322 3055.81C929.322 3041.43 939.145 3030.75 958.648 3030.75C969.894 3030.75 976.443 3033.46 981.71 3035.88V3045.27C976.158 3042.71 968.756 3040.15 958.363 3040.15C946.832 3040.15 940.426 3045.84 940.426 3054.81C940.426 3063.78 943.843 3067.77 954.52 3071.33L963.773 3074.32C977.724 3079.02 986.551 3085 986.551 3100.94C986.551 3116.89 977.012 3128.28 954.947 3128.28C943.273 3128.28 934.305 3125.43 928.041 3121.87L927.898 3122.02Z" fill="#00297F"/>
<path d="M1030.54 3032.32H1041.36L1075.81 3126.72H1064.14L1054.17 3099.24H1016.3L1006.48 3126.72H995.804L1030.4 3032.32H1030.54ZM1019.58 3089.7H1050.61L1035.24 3047.12H1034.95L1019.44 3089.7H1019.58Z" fill="#00297F"/>
<path d="M1090.76 3032.32H1103.85L1149.41 3107.92H1149.84V3032.32H1160.09V3126.72H1148.56L1101.58 3047.55H1101.15V3126.72H1090.76V3032.32Z" fill="#00297F"/>
<path d="M1919.72 3169.57H0V3188.08H576.555L959.502 3270.95L1342.59 3188.08H1919.72V3169.57Z" fill="#00297F"/>
</g>
<path opacity="0.03" d="M2502.48 1896.74L2444.78 1860.31L1860.63 2202.76L967.877 1644.26L1609.35 1270.01L2451.04 1796.57L2512 1762.91L1668.17 1235.71L2394.55 816.397C2383.41 809.836 2371.79 804.025 2360.7 797.39C2352.49 792.479 2343.68 787.005 2336.48 780.145L1610.21 1199.42L401.572 443.235L1099.39 -2.44478L1041.44 -38.6963L343.652 406.946L-274.874 20.9999C-278.023 22.1995 -324.584 39.7817 -344.116 48.8165L284.758 441.323L-356.712 815.497L-629.143 645.036L-688 679.375L-415.569 849.836L-583.969 948.094C-573.247 960.128 -560.726 970.7 -547.492 979.885C-542.956 983.034 -542.793 987.491 -538.032 990.265L-357.574 886.088L851.062 1642.27L197.821 2023.34L-4.5484 1869.11L-63.4057 1903.45L138.964 2057.68L-148.935 2224.36C-148.935 2224.36 -124.262 2257.26 -108.561 2272.22L196.996 2093.93L1089.72 2652.48L907.258 2758.87L965.215 2795.16L1147.67 2688.77L1365 2824.74L1423.85 2790.4L1206.53 2654.43L1859.77 2273.36L2421.76 2625.19L2480.62 2590.85L1918.59 2238.98L2502.48 1896.71V1896.74ZM-298.755 851.748L342.715 477.537L1551.35 1233.72L909.882 1607.97L-298.755 851.748ZM1148.54 2618.14L255.779 2059.6L909.02 1678.52L1801.78 2237.07L1148.54 2618.14Z" fill="#00297F"/>
</g>
<defs>
<clipPath id="clip0_1874_31851">
<rect width="1920" height="3289" fill="white"/>
</clipPath>
</defs>
</svg>
