<svg viewBox="0 0 232 232" fill="none" xmlns="http://www.w3.org/2000/svg">
<path d="M232 116C232 51.9349 180.065 -7.87089e-06 116 -5.07052e-06C51.9349 -2.27015e-06 -7.87089e-06 51.935 -5.07052e-06 116C-2.27015e-06 180.065 51.935 232 116 232C180.065 232 232 180.065 232 116Z" fill="#00297F"/>
<path d="M116.005 164.693C142.899 164.693 164.701 142.891 164.701 115.997C164.701 89.1027 142.899 67.3008 116.005 67.3008C89.1106 67.3008 67.3086 89.1027 67.3086 115.997C67.3086 142.891 89.1106 164.693 116.005 164.693Z" fill="white"/>
<path d="M193.053 57.0284C201.019 64.7252 206.37 74.3286 208.766 85.14C209.714 89.4126 216.283 87.6057 215.334 83.3331C212.699 71.4436 206.629 60.6722 197.875 52.2167C194.72 49.172 189.898 53.9837 193.063 57.0284H193.053Z" fill="white" fill-opacity="0.3"/>
<path d="M188.959 73.3502C192.004 77.7226 194.12 82.3746 195.378 87.5557C196.416 91.8083 202.985 90.0114 201.946 85.7488C200.559 80.0686 198.173 74.7278 194.839 69.9261C192.353 66.3522 186.453 69.7564 188.959 73.3601V73.3502Z" fill="white" fill-opacity="0.3"/>
<path d="M182.2 87.1466L184.327 92.9267C184.955 94.6537 186.633 95.8217 188.519 95.3025C190.186 94.8433 191.534 92.8468 190.895 91.1098L188.769 85.3298C188.14 83.6027 186.463 82.4347 184.576 82.9538C182.919 83.4131 181.561 85.4096 182.2 87.1466Z" fill="white" fill-opacity="0.3"/>
<path d="M23.9139 162.137C28.0468 171.91 34.326 180.545 42.3122 187.533C45.5466 190.368 50.3084 185.646 47.054 182.791C39.4571 176.133 33.6471 168.057 29.7039 158.753C28.0268 154.79 22.2468 158.204 23.9139 162.137Z" fill="white" fill-opacity="0.3"/>
<path d="M35.4142 156.387C36.8617 159.791 38.6087 163.016 40.6652 166.09C43.061 169.654 48.871 166.3 46.4552 162.706C44.3987 159.641 42.6517 156.407 41.2042 153.003C40.4955 151.336 38.0397 150.966 36.6121 151.795C34.8851 152.803 34.6954 154.71 35.4042 156.387H35.4142Z" fill="white" fill-opacity="0.3"/>
<path d="M102.667 198.922V208.333H128.356V198.922" stroke="white" stroke-width="2" stroke-linecap="round" stroke-linejoin="round"/>
<path d="M115.514 181.667V201.377" stroke="white" stroke-width="2" stroke-linecap="round" stroke-linejoin="round"/>
<path d="M123.63 194.451L115.514 201.408L107.398 194.451" stroke="white" stroke-width="2" stroke-linecap="round" stroke-linejoin="round"/>
<g clip-path="url(#clip0_1862_89966)">
<path d="M110.834 132.891C110.923 132.652 110.994 132.376 111.035 132.051C111.235 130.48 110.685 127.699 106.926 123.27C106.827 123.141 97.4431 110.958 108.741 97.3481C106.541 98.2338 104.47 99.4696 102.597 101.04C97.9633 104.926 95.1288 110.384 94.606 116.411C94.4588 118.096 94.4994 119.756 94.7126 121.39L94.7811 121.365C99.5672 127.211 104.939 131.064 110.834 132.891Z" fill="#F1932F"/>
<path d="M110.037 134.071C110.055 134.058 110.238 133.916 110.448 133.627C105.312 131.861 99.9525 128.389 94.8467 122.25C95.4481 125.77 96.8844 129.102 99.082 132.003L99.1125 131.965C99.1759 132.013 106.028 137.091 110.04 134.068L110.037 134.071Z" fill="#F1932F"/>
<path d="M107.878 122.499C109.698 124.641 110.957 126.607 111.654 128.389V96.4041C110.957 96.5792 110.264 96.7872 109.586 97.0334C98.4585 110.052 107.518 122.027 107.878 122.499Z" fill="#F1932F"/>
<path d="M111.654 134.022C111.238 134.73 110.773 135.058 110.756 135.068C107.043 137.862 102.051 134.675 99.9248 133.058C102.962 136.618 106.929 139.108 111.37 140.273C111.448 140.151 111.542 140.004 111.651 139.831V134.022H111.654Z" fill="#F1932F"/>
<path d="M112.248 132.261C112.2 132.619 112.118 132.944 112.017 133.228C112.938 133.472 113.867 133.665 114.813 133.807C118.313 125.93 122.355 111.965 117.427 95.7291C115.46 95.7063 113.524 95.9346 111.651 96.4041V128.389C112.205 129.802 112.405 131.097 112.248 132.261Z" fill="#F1932F"/>
<path d="M133.727 117.086C131.844 125.483 124.038 129.396 123.353 129.731C120.861 131.058 119.658 132.662 119.308 134.129C120.635 134.124 121.99 134.025 123.363 133.84C130.43 132.885 135.825 129.759 137.241 128.863C138.604 126.252 139.454 123.367 139.718 120.339C140.517 111.127 135.658 102.705 128.025 98.5127C132.998 105.296 135.072 111.089 133.722 117.083L133.727 117.086Z" fill="#F1932F"/>
<path d="M111.654 134.023V139.831C112.253 138.875 113.288 137.111 114.417 134.677C113.509 134.51 112.588 134.289 111.656 134.015C111.656 134.015 111.651 134.02 111.651 134.023H111.654Z" fill="#F1932F"/>
<path d="M118.006 135.728C117.973 135.53 117.95 135.327 117.942 135.121C117.166 135.075 116.382 134.994 115.585 134.875C114.377 137.6 113.253 139.549 112.626 140.562C113.471 140.732 114.331 140.856 115.197 140.935C117.793 141.156 120.361 140.943 122.81 140.316C121.236 139.775 118.48 138.476 118.006 135.725V135.728Z" fill="#F1932F"/>
<path d="M119.196 135.175C119.201 135.307 119.209 135.436 119.226 135.563C119.546 138.042 122.911 139.623 123.855 140.019C126.702 139.144 129.372 137.695 131.722 135.715C133.371 134.335 134.787 132.754 135.957 131.021C132.757 132.711 126.581 135.332 119.193 135.175H119.196Z" fill="#F1932F"/>
<path d="M115.984 133.962C116.646 134.033 117.318 134.083 117.993 134.111C118.275 132.231 119.625 130.219 122.678 128.706L122.716 128.673L122.759 128.658C122.848 128.617 130.87 124.681 132.798 116.688C134.158 111.095 132.283 104.842 127.22 98.0916C124.759 96.8659 122.028 96.0716 119.125 95.8179C118.742 95.7849 118.359 95.7621 117.976 95.7468C123.059 111.975 119.376 125.904 115.979 133.964L115.984 133.962Z" fill="#F1932F"/>
<path d="M111.654 134.015V134.025C111.654 134.025 111.659 134.02 111.659 134.018H111.654V134.015Z" fill="#F1932F"/>
<path d="M123.906 140.643V140.638C123.906 140.638 123.906 140.641 123.903 140.641H123.906V140.643Z" fill="#F1932F"/>
<path d="M82.3467 101.223C88.0768 105.941 88.1859 110.526 88.1859 110.526C88.1859 110.602 85.7802 124.291 85.7472 124.468C84.6763 128.983 76 136.903 76 136.903C78.9361 135.9 99.1258 128.841 107.888 128.676C108.756 129.044 109.69 129.335 110.68 129.526C111.474 129.686 112.299 129.782 113.131 129.82C114.288 129.871 116.022 129.65 118.42 129.137C119.46 129.082 120.211 129.191 120.462 129.318C122.62 130.409 125.781 131.784 128.626 132.185C130.083 132.475 131.796 132.688 133.844 132.307C133.844 132.307 135.189 131.995 135.793 131.769C136.564 131.475 138.046 130.921 138.046 130.921C140.802 130.018 144.578 129.731 147.694 130.711C143.52 128.176 142.781 126.643 143.52 123.207C144.238 119.89 142.109 118.023 142.109 118.023C146.991 106.941 155.995 106.093 155.995 106.093C144.611 102.198 138.637 104.723 135.14 106.225C130.354 108.283 133.445 106.007 133.445 106.007C127.883 107.93 120.242 112.138 120.242 112.138C120.242 112.138 114.311 108.311 107.98 109.039C111.334 110.866 110.243 111.671 107.65 110.407C107.65 110.407 93.7307 103.852 82.3416 101.223H82.3467Z" fill="#221E1F"/>
<path d="M146.397 105.446C143.867 105.286 140.954 105.733 138.333 106.519C135.78 107.286 132.844 108.603 130.646 110.405C130.646 110.405 126.812 113.493 127.289 118.134C127.514 122.58 134.696 122.502 133.318 126.072C132.648 127.793 130.631 128.019 129.375 127.861C129.375 127.861 126.01 127.704 125.578 124.918C125.827 121.451 126.228 116.355 126.421 113.904C126.428 113.904 126.433 113.894 126.433 113.894C126.433 111.163 130.24 108.788 130.24 108.788C121.985 112.171 120.861 113.62 120.861 113.62L119.838 126.001C119.15 125.661 118.524 125.417 118.524 124.352L119.044 119.223L112.971 118.781C112.971 118.781 114.522 119.5 114.298 121.266C114.298 121.266 113.831 124.491 113.699 125.159C112.489 125.181 111.563 124.831 110.936 124.113C109.784 122.793 109.931 120.621 110.126 119.441C110.383 117.873 111.045 116.65 112.042 115.891C112.979 115.183 114.176 114.909 115.598 115.082C117.567 115.315 119.107 117.117 119.107 117.117C119.107 117.117 120.018 114.516 119.351 113.325C118.683 112.133 111.535 110.204 111.535 110.204C111.535 110.204 114.374 111.371 112.281 112.036C110.433 112.308 108.726 112.985 107.327 114.039C106.348 114.78 105.566 115.678 104.99 116.695C104.556 116.909 103.843 117.18 103.323 116.977L98.0699 116.084L98.5876 111.323L102.932 112.721C104.719 113.594 104.089 114.419 104.089 114.419L106.959 111.915C106.959 111.915 95.1744 106.494 87.1605 104.373C87.1605 104.373 90.868 106.981 90.3148 110.298C90.3148 110.298 88.2288 122.811 87.8659 124.978C87.2899 128.452 83.2499 132.046 82.4023 132.764C86.592 131.333 99.4504 127.189 108.137 127.133C108.979 127.521 109.916 127.823 110.936 128.024C111.641 128.161 112.382 128.252 113.156 128.288C114.39 128.346 116.415 127.991 118.176 127.613C118.856 127.569 120.305 127.534 121.135 127.955C123.053 128.922 126.164 130.313 128.865 130.675C130.811 131.071 132.864 131.208 135.422 130.277C138.028 129.32 140.134 127.437 141.274 125.032C142.459 122.53 142.017 120.746 140.479 119.2C139.259 117.974 137.64 117.459 136.036 116.919C135.901 116.873 134.194 116.259 134.1 114.998C133.978 113.475 136.597 113.011 137.361 112.879C139.436 112.526 140.766 113.361 142.098 114.214C143.827 111.689 148.237 106.659 151.275 106.047C150.716 105.933 149.201 105.575 146.392 105.454L146.397 105.446ZM101.765 125.24L97.0726 125.311L97.7426 119.139L101.468 119.423C103.153 119.477 103.711 120.312 103.894 120.888C103.884 121.908 104.074 122.844 104.447 123.679C104.11 124.382 103.371 125.242 101.765 125.242V125.24Z" fill="url(#paint0_linear_1862_89966)"/>
<path d="M119.3 118.363L119.853 113.305C115.595 109.95 110.073 109.653 110.073 109.653C112.857 110.836 112.598 111.447 112.598 111.45C112.593 111.48 112.557 111.655 112.189 111.694C108.444 112.021 105.931 114.328 105.216 115.693C104.579 116.84 103.417 116.637 103.417 116.637C103.417 116.637 99.0366 115.886 98.458 115.787C98.5113 115.269 98.8209 112.45 98.892 111.792C99.567 112.011 102.402 112.891 102.402 112.891C104.267 113.472 104.13 115.688 104.13 115.688C105.678 113.026 108.081 111.871 108.081 111.871C107.962 111.815 94.8977 105.834 86.4549 103.799C86.4549 103.799 89.7335 107.07 89.5458 110.239L87.102 124.92C87.102 124.92 86.0489 129.84 80.7578 133.708C84.5592 132.406 99.3665 127.564 108.071 127.485C108.918 127.874 109.86 128.171 110.867 128.369C111.603 128.511 112.37 128.602 113.138 128.638C114.192 128.686 115.902 128.457 118.219 127.96C118.81 127.924 120.216 127.884 120.972 128.267C123.058 129.323 126.108 130.658 128.796 131.02C130.577 131.378 132.572 131.612 135.472 130.607C138.322 129.609 140.576 127.683 141.819 125.181C143.052 122.702 142.763 120.717 140.916 118.944C139.624 117.708 136.901 116.815 136.328 116.596C135.571 116.307 134.087 116 134.364 114.858C134.653 113.66 136.328 113.054 137.498 113.038C139.685 113.013 141.015 113.772 142.309 115.031C144.123 110.96 149.671 106.603 152.257 106.083C149.876 105.291 146.41 105.088 146.41 105.088C143.981 105.027 141.073 105.321 138.223 106.179C136.455 106.71 133.321 107.928 130.757 110.128C130.6 110.247 126.619 113.384 127.091 118.172C127.207 120.565 129.156 121.72 130.877 122.732C132.724 123.821 133.531 124.509 132.98 125.945C132.275 127.765 129.885 127.567 129.41 127.506H129.382C129.258 127.503 125.926 127.298 125.926 125.204C126.174 121.801 126.766 113.919 126.766 113.919C126.766 113.919 126.981 111.153 131.133 108.136C123.878 110.904 120.51 113.442 120.51 113.442C120.51 113.442 119.61 123.824 119.526 124.879C118.886 124.615 118.889 123.869 118.886 123.291C118.891 123.232 119.427 118.888 119.427 118.888L112.37 118.538C112.441 118.558 113.953 119.71 113.953 121.002C113.953 121.07 113.951 121.144 113.94 121.215C113.935 121.238 113.567 123.773 113.397 124.788C112.441 124.75 111.697 124.453 111.195 123.877C110.525 123.108 110.339 122.002 110.339 121.009C110.339 120.436 110.4 119.9 110.469 119.492C110.71 118.017 111.327 116.865 112.25 116.167C113.111 115.515 114.222 115.267 115.552 115.426C115.552 115.426 118.805 115.967 119.292 118.36L119.3 118.363ZM88.7642 105.202C95.7707 107.275 104.716 111.092 106.556 111.924C105.259 112.742 104.384 113.942 104.384 113.942C104.201 112.764 102.627 112.259 102.627 112.259L98.2906 110.851L97.6891 116.368L103.242 117.314C103.242 117.314 104.825 117.627 105.566 116.487C106.117 115.508 106.614 115.023 107.551 114.317C108.873 113.315 110.532 112.645 112.344 112.381C113.418 112.254 113.308 111.447 113.308 111.447C113.308 111.153 113.004 110.846 112.509 110.569C117.323 111.871 119.196 113.523 119.196 113.523L118.912 116.409C118.912 116.409 117.6 114.985 115.648 114.726C114.128 114.543 112.847 114.843 111.834 115.607C110.763 116.416 110.055 117.72 109.784 119.378C109.583 120.618 109.428 122.913 110.677 124.344C111.372 125.141 112.392 125.534 113.712 125.511L113.999 125.506L114.052 125.227C114.184 124.557 114.636 121.443 114.656 121.311C114.669 121.207 114.676 121.108 114.676 121.009C114.676 120.263 114.471 119.639 114.027 119.218C115.643 119.312 118.155 119.522 118.663 119.553C118.6 120.185 118.224 124.067 118.224 124.067C118.224 125.097 119.056 125.59 120.049 126.072C120.049 126.072 121.18 114.117 121.206 113.807C121.665 113.477 123.398 112.122 128.245 109.986C127.045 111.034 126.215 112.211 126.088 113.894L125.238 125.293C125.238 127.912 129.072 128.196 129.352 128.214C130.981 128.409 132.963 127.983 133.653 126.196C134.457 124.123 132.902 123.103 131.237 122.116C129.59 121.144 127.89 120.141 127.791 118.119C127.36 113.716 131.161 110.717 131.199 110.686C133.019 109.128 135.526 107.735 138.442 106.857C141.218 106.024 144.037 105.651 146.384 105.799H146.39C147.879 105.864 148.996 105.999 149.8 106.121C147.564 106.979 144.075 110.077 142.037 113.472C140.332 112.427 139.007 112.064 137.297 112.216C136.472 112.292 133.892 112.856 133.503 114.944C133.252 116.271 135.031 116.881 136.117 117.309C137.036 117.672 139.127 118.322 140.241 119.444C141.786 120.997 142.012 122.674 140.969 124.874C139.86 127.209 137.855 129.011 135.313 129.939C132.709 130.886 130.633 130.665 128.948 130.325H128.935L128.925 130.323C126.329 129.975 123.35 128.671 121.31 127.638C120.419 127.186 118.96 127.206 118.166 127.257H118.143L118.117 127.265C115.877 127.747 114.171 127.978 113.189 127.932C112.453 127.894 111.725 127.81 111.022 127.673C110.037 127.478 109.124 127.191 108.304 126.808L108.233 126.772H108.154C100.3 126.823 88.9646 130.231 83.8741 131.898C85.4271 130.376 87.7897 127.686 88.2338 125.031L90.6801 110.351C91.1572 107.895 88.7768 105.202 88.7768 105.202H88.7642Z" fill="white"/>
<path d="M97.3898 119.098L96.6768 125.671L101.767 125.592L101.762 125.597C103.549 125.597 104.381 124.641 104.764 123.834L104.835 123.686L104.767 123.537C104.412 122.745 104.236 121.854 104.247 120.89V120.832L104.229 120.778C104.033 120.167 103.417 119.131 101.475 119.07C101.491 119.07 97.768 118.786 97.768 118.786L97.4279 118.758L97.3898 119.098ZM98.0572 119.512C98.6206 119.558 101.437 119.773 101.437 119.773C102.846 119.822 103.356 120.431 103.539 120.948C103.541 121.92 103.721 122.826 104.059 123.648C103.617 124.463 102.848 124.882 101.765 124.882C101.765 124.882 98.1359 124.938 97.4685 124.945C97.5396 124.29 97.9963 120.075 98.0598 119.507L98.0572 119.512Z" fill="white"/>
<path d="M103.602 120.857C103.602 120.857 103.072 124.884 107.17 125.734C107.17 125.734 104.635 124.988 104.247 120.89" fill="white"/>
<path d="M127.522 127.125C127.522 127.125 123.771 125.823 122.789 124.047C122.789 124.047 123.588 126.777 127.461 127.825L127.522 127.128V127.125Z" fill="white"/>
<path d="M128.228 106.694C128.743 106.694 129.248 106.276 129.352 105.758L131.557 93.864C131.664 93.3514 131.329 92.9302 130.859 92.9302H106.614C106.053 92.9302 105.554 93.3489 105.444 93.864L103.023 105.758C102.914 106.276 103.252 106.694 103.767 106.694H128.233H128.228Z" fill="#1D4D9C"/>
<path d="M114.333 97.8253L113.392 102.408C113.392 102.408 112.753 105.045 116.227 105.045C116.227 105.045 119.279 105.149 120.122 102.72L120.401 101.363H118.021L117.8 102.441C117.8 102.441 117.566 103.342 116.587 103.276C116.587 103.276 115.574 103.38 115.798 102.548L116.765 97.8253C116.765 97.8253 116.79 97.0437 117.886 96.9574C117.886 96.9574 118.876 96.9574 118.772 97.7187L118.528 98.9013H120.909L121.15 97.7187C121.15 97.7187 121.619 95.1836 118.231 95.2546C118.231 95.2546 114.981 95.3917 114.336 97.8253H114.333Z" fill="white"/>
<path d="M121.584 97.8253L120.642 102.408C120.642 102.408 120.003 105.045 123.474 105.045C123.474 105.045 126.527 105.149 127.372 102.72L127.649 101.363H125.266L125.047 102.441C125.047 102.441 124.809 103.342 123.834 103.276C123.834 103.276 122.822 103.38 123.04 102.548L124.01 97.8253C124.01 97.8253 124.035 97.0437 125.131 96.9574C125.131 96.9574 126.123 96.9574 126.014 97.7187L125.773 98.9013H128.154L128.395 97.7187C128.395 97.7187 128.864 95.1836 125.479 95.2546C125.479 95.2546 122.228 95.3917 121.584 97.8253Z" fill="white"/>
<path d="M117.623 92.9604H114.867L110 98.2642L110.774 94.8079L108.261 94.8053L106.109 104.799H108.622L109.203 102.01L109.852 101.261L110.718 104.799H113.21L111.766 99.3604L117.623 92.9604Z" fill="white"/>
<path d="M119.44 90.9761H116.677L114.867 92.9605H117.618L119.44 90.9761Z" fill="#EB2D2D"/>
<path d="M104.244 121.418C104.244 121.418 104.115 118.277 106.119 115.617L105.901 114.965L105.16 115.792C104.201 117.277 103.556 117.398 103.503 120.7L104.244 121.418Z" fill="white"/>
<path d="M105.553 115.14C105.553 115.14 103.097 117.596 103.561 121.649L104.127 121.537C104.127 121.537 103.853 117.568 106.206 115.343L105.553 115.142V115.14Z" fill="white"/>
<path d="M104.115 115.69C104.115 115.69 102.821 117.101 102.734 120.822L103.488 120.895C103.488 120.895 103.432 118.187 104.97 115.822L104.115 115.69Z" fill="#221E1F"/>
<path d="M103.678 116.401C103.678 116.401 102.958 117.718 102.724 120.421C102.724 120.421 102.633 119.979 101.95 119.812C101.95 119.812 102.387 117.738 102.909 116.563C102.909 116.563 103.338 116.614 103.681 116.403L103.678 116.401Z" fill="white"/>
<path d="M102.095 117.132C102.095 117.132 102.549 117.228 102.798 117.109C102.798 117.109 102.466 117.944 102.318 119.256C102.318 119.256 102.171 119.071 101.56 119.053L102.095 117.134V117.132Z" fill="#0087C2"/>
</g>
<defs>
<linearGradient id="paint0_linear_1862_89966" x1="116.844" y1="112.793" x2="116.844" y2="121.918" gradientUnits="userSpaceOnUse">
<stop stop-color="#00A8DE"/>
<stop offset="1" stop-color="#0071B5"/>
</linearGradient>
<clipPath id="clip0_1862_89966">
<rect width="80" height="50.0479" fill="white" transform="translate(76 90.9761)"/>
</clipPath>
</defs>
</svg>
