<svg viewBox="0 0 160 160" fill="none" xmlns="http://www.w3.org/2000/svg">
<path d="M0 80C0 35.8172 35.8172 0 80 0C124.183 0 160 35.8172 160 80C160 124.183 124.183 160 80 160C35.8172 160 0 124.183 0 80Z" fill="#203868"/>
<path d="M114.64 58.1387H112.93C112.377 58.1387 111.93 58.5864 111.93 59.1387V70.1282C111.93 70.6805 112.377 71.1282 112.93 71.1282H114.64C115.192 71.1282 115.64 70.6805 115.64 70.1282V59.1387C115.64 58.5864 115.192 58.1387 114.64 58.1387Z" fill="white"/>
<path d="M47.71 58.1387H46C45.4477 58.1387 45 58.5864 45 59.1387V70.1282C45 70.6805 45.4477 71.1282 46 71.1282H47.71C48.2623 71.1282 48.71 70.6805 48.71 70.1282V59.1387C48.71 58.5864 48.2623 58.1387 47.71 58.1387Z" fill="white"/>
<path d="M66.5761 94.7216C66.5761 96.8003 64.8921 98.4931 62.8046 98.4931C60.7172 98.4931 59.0332 96.8091 59.0332 94.7216C59.0332 92.6342 60.7172 90.9502 62.8046 90.9502C64.8921 90.9502 66.5761 92.6342 66.5761 94.7216Z" stroke="white" stroke-width="2" stroke-linecap="round" stroke-linejoin="round"/>
<path d="M101.721 94.7216C101.721 96.8003 100.037 98.4931 97.9492 98.4931C95.8617 98.4931 94.1777 96.8091 94.1777 94.7216C94.1777 92.6342 95.8617 90.9502 97.9492 90.9502C100.037 90.9502 101.721 92.6342 101.721 94.7216Z" stroke="white" stroke-width="2" stroke-linecap="round" stroke-linejoin="round"/>
<path d="M52.1306 88.0996C52.0573 88.4787 52.0166 88.8749 52.0166 89.2799V100.798C52.0166 103.951 54.4348 106.518 57.4229 106.518H103.62C106.6 106.518 109.027 103.96 109.027 100.798V89.2799C109.027 88.8749 108.986 88.4787 108.913 88.0996" stroke="white" stroke-width="2" stroke-linecap="round" stroke-linejoin="round"/>
<path d="M109.027 54.4165C109.027 49.763 105.509 46 101.177 46H59.8666C55.5263 46 52.0166 49.7717 52.0166 54.4165V86.7116C52.0166 87.1831 52.0655 87.6458 52.1306 88.0998C52.6436 85.4718 54.8178 83.4987 57.4155 83.4987H103.62C106.225 83.4987 108.392 85.4718 108.905 88.0998C108.978 87.6458 109.019 87.1831 109.019 86.7116V54.4165H109.027Z" stroke="white" stroke-width="2" stroke-linecap="round" stroke-linejoin="round"/>
<path d="M54.6479 106.142H63.2258V111.536C63.2258 112.895 62.1207 114 60.7612 114H57.1125C55.7531 114 54.6479 112.895 54.6479 111.536V106.142Z" fill="white"/>
<path d="M97.6074 106.142H106.185V111.536C106.185 112.895 105.08 114 103.721 114H100.072C98.7125 114 97.6074 112.895 97.6074 111.536V106.142Z" fill="white"/>
<path d="M96.2741 51.2803H65.1729V60.1826H96.2741V51.2803Z" stroke="white" stroke-width="2" stroke-linecap="round" stroke-linejoin="round"/>
</svg>
