<svg viewBox="0 0 40 40" fill="none" xmlns="http://www.w3.org/2000/svg">
<rect width="40" height="40" rx="20" fill="#00297F"/>
<path d="M29.1413 22.3975C28.8374 23.3478 28.4033 24.2258 27.8292 25.0314L30 26.7197L27.781 29.3005L25.3835 27.3951C24.5104 27.9402 23.6083 28.3502 22.6869 28.6252C21.727 28.9291 20.7429 29.0835 19.7347 29.0835C18.3213 29.0835 16.9947 28.8085 15.7501 28.2634C14.5055 27.7183 13.4057 26.9368 12.4457 25.9238C11.6546 25.041 11.0516 24.0521 10.6319 22.9571C10.2123 21.8331 10 20.6561 10 19.4356C10 18.1476 10.2508 16.9272 10.7574 15.7694C11.2446 14.6117 11.9778 13.5745 12.9522 12.6532C13.8929 11.7849 14.9252 11.124 16.054 10.6753C17.2118 10.2267 18.4515 10 19.7588 10C21.0661 10 22.3155 10.2267 23.4925 10.6753C24.6503 11.124 25.7019 11.7945 26.6425 12.6773C27.6025 13.5938 28.3309 14.6261 28.8374 15.7694C29.3439 16.9127 29.5948 18.1331 29.5948 19.4356C29.5948 20.4824 29.4452 21.4713 29.1413 22.4023V22.3975ZM21.1192 25.562C21.5581 25.4655 22.0116 25.3208 22.4795 25.1278L20.8394 23.8495L23.0584 21.2639L25.0507 22.8558C25.3546 22.3107 25.5813 21.7511 25.7308 21.1867C25.8997 20.6078 25.9817 20.0096 25.9817 19.4018C25.9817 18.63 25.837 17.9064 25.5523 17.2262C25.2677 16.5364 24.8384 15.8997 24.2644 15.3208C23.6083 14.631 22.9185 14.1293 22.1949 13.8254C21.4713 13.5215 20.6464 13.3671 19.725 13.3671C18.8857 13.3671 18.109 13.5022 17.4047 13.7771C16.6811 14.0666 16.0444 14.4959 15.4896 15.0555C14.8673 15.6536 14.3946 16.329 14.0762 17.0863C13.7578 17.8437 13.5986 18.63 13.5986 19.4549C13.5986 20.3232 13.7434 21.1384 14.028 21.8958C14.3319 22.6532 14.766 23.314 15.3401 23.8784C15.9286 24.4766 16.6088 24.9349 17.3854 25.2533C18.1235 25.5765 18.905 25.7356 19.7299 25.7356C20.2171 25.7356 20.6802 25.6778 21.1192 25.5668V25.562Z" fill="white"/>
</svg>
