<svg width="24" height="24" viewBox="0 0 24 24" fill="none" xmlns="http://www.w3.org/2000/svg">
<g clip-path="url(#clip0_515_4845)">
<path d="M16.1992 18H7.79922C7.46785 18 7.19922 18.2686 7.19922 18.6C7.19922 18.9314 7.46785 19.2 7.79922 19.2H16.1992C16.5306 19.2 16.7992 18.9314 16.7992 18.6C16.7992 18.2686 16.5306 18 16.1992 18Z" fill="white"/>
<path d="M12.7992 23.2V20.8C12.7992 20.3582 12.441 20 11.9992 20C11.5574 20 11.1992 20.3582 11.1992 20.8V23.2C11.1992 23.6418 11.5574 24 11.9992 24C12.441 24 12.7992 23.6418 12.7992 23.2Z" fill="white"/>
<path d="M15.6746 23.5152C15.4639 23.7754 15.0752 23.7982 14.8356 23.5643L13.3985 22.1612C12.621 21.4021 11.3796 21.4026 10.6028 22.1625L9.17003 23.5639C8.93044 23.7982 8.54138 23.7764 8.32949 23.5168C8.14292 23.2882 8.16159 22.955 8.37253 22.7486L10.6015 20.5683C11.3788 19.8079 12.6212 19.8079 13.3985 20.5683L15.6302 22.7513C15.8398 22.9563 15.859 23.2872 15.6746 23.5152Z" fill="white"/>
<rect y="1.6001" width="24" height="15.2" rx="2" fill="white"/>
<path d="M17.4175 13.1661C17.6829 13.1661 17.943 12.95 17.9966 12.6828L19.1327 6.54354C19.1877 6.27896 19.0151 6.06152 18.7732 6.06152H6.2824C5.99347 6.06152 5.73591 6.27765 5.6797 6.54354L4.43244 12.6828C4.37623 12.95 4.55011 13.1661 4.81551 13.1661H17.4201H17.4175Z" fill="#1D4D9C"/>
<path d="M10.2589 8.58788L9.77386 10.9535C9.77386 10.9535 9.44439 12.3144 11.2342 12.3144C11.2342 12.3144 12.807 12.3681 13.2411 11.1146L13.3849 10.4138H12.1585L12.0448 10.9705C12.0448 10.9705 11.9245 11.4355 11.4199 11.4014C11.4199 11.4014 10.8982 11.4551 11.0133 11.0255L11.5114 8.58788C11.5114 8.58788 11.5245 8.18445 12.0892 8.13991C12.0892 8.13991 12.5991 8.13991 12.5455 8.53287L12.42 9.14325H13.6463L13.7705 8.53287C13.7705 8.53287 14.0124 7.22434 12.267 7.26101C12.267 7.26101 10.5923 7.33174 10.2602 8.58788H10.2589Z" fill="white"/>
<path d="M13.9953 8.58788L13.5102 10.9535C13.5102 10.9535 13.1807 12.3144 14.9693 12.3144C14.9693 12.3144 16.542 12.3681 16.9774 11.1146L17.1199 10.4138H15.8923L15.7798 10.9705C15.7798 10.9705 15.6569 11.4355 15.1549 11.4014C15.1549 11.4014 14.6333 11.4551 14.7457 11.0255L15.2451 8.58788C15.2451 8.58788 15.2582 8.18445 15.823 8.13991C15.823 8.13991 16.3342 8.13991 16.278 8.53287L16.1538 9.14325H17.3801L17.5043 8.53287C17.5043 8.53287 17.7462 7.22434 16.0021 7.26101C16.0021 7.26101 14.3273 7.33174 13.9953 8.58788Z" fill="white"/>
<path d="M11.9551 6.07715H10.5352L8.02767 8.81472L8.42642 7.03071L7.1321 7.0294L6.02344 12.1876H7.31775L7.61715 10.748L7.95184 10.3616L8.39766 12.1876H9.68152L8.93761 9.38057L11.9551 6.07715Z" fill="white"/>
<path d="M12.8911 5.05273H11.4673L10.5352 6.07703H11.9524L12.8911 5.05273Z" fill="#EB2D2D"/>
</g>
<defs>
<clipPath id="clip0_515_4845">
<rect width="24" height="24" fill="white"/>
</clipPath>
</defs>
</svg>
