<svg width="24" height="24" viewBox="0 0 24 24" fill="none" xmlns="http://www.w3.org/2000/svg">
<path d="M18.9791 4.49727C17.7393 4.49727 16.7305 3.48846 16.7305 2.24863C16.7305 1.00881 17.7393 0 18.9791 0C20.2189 0 21.2277 1.00881 21.2277 2.24863C21.2277 3.48846 20.2189 4.49727 18.9791 4.49727Z" fill="white"/>
<path d="M17.7108 20C16.1257 20 14.3741 19.0874 14.266 17.7148C14.1895 16.7403 14.4011 16.2106 14.6037 15.7002C14.7929 15.2323 14.9685 14.7876 14.955 13.906C14.946 13.1095 14.7659 12.6532 14.5902 12.2124C14.3921 11.7058 14.1805 11.1838 14.2885 10.3061C14.5137 8.42296 15.8691 7 17.4451 7C19.0211 7 20.2819 8.5351 20.5656 9.97739C20.7637 10.9827 20.6466 11.5589 20.5206 12.166C20.426 12.6184 20.3314 13.0901 20.3314 13.8403C20.3314 14.7915 20.5881 15.3058 20.8313 15.8046C21.0609 16.2725 21.2996 16.7558 21.241 17.4634C21.1105 18.9637 19.3273 19.9807 17.7423 19.9961H17.7063L17.7108 20ZM17.4406 7.97055C16.477 7.97055 15.5629 9.06484 15.4053 10.4066C15.3242 11.0756 15.4728 11.439 15.6529 11.9069C15.8466 12.3941 16.0672 12.9509 16.0762 13.9021C16.0897 14.9539 15.8646 15.5184 15.6619 16.0211C15.4728 16.5006 15.3197 16.8757 15.3828 17.6568C15.4503 18.519 16.7741 19.0372 17.7063 19.0372C18.7915 19.0294 20.0298 18.3566 20.1153 17.4015C20.1558 16.9259 20.0027 16.6166 19.7911 16.1913C19.5299 15.6576 19.2012 14.9964 19.2012 13.848C19.2012 13.0128 19.3093 12.4792 19.4084 12.0074C19.5299 11.4158 19.6155 10.9866 19.4489 10.1475C19.2417 9.10351 18.4177 7.97442 17.4361 7.97442L17.4406 7.97055Z" fill="white"/>
<path d="M17.0508 16.6C17.0508 16.2686 17.3194 16 17.6508 16C17.9822 16 18.2508 16.2686 18.2508 16.6V23.4C18.2508 23.7314 17.9822 24 17.6508 24C17.3194 24 17.0508 23.7314 17.0508 23.4V16.6Z" fill="white"/>
<path d="M7.03906 18H8.23906V23.4C8.23906 23.7314 7.97043 24 7.63906 24C7.30769 24 7.03906 23.7314 7.03906 23.4V18Z" fill="white"/>
<path fill-rule="evenodd" clip-rule="evenodd" d="M8.24297 17.9816V14.3992C8.28324 14.3736 8.32117 14.3433 8.35588 14.3086L10.5599 12.1055C10.8134 11.8521 10.8134 11.4435 10.5599 11.1901C10.3064 10.9366 9.89763 10.9366 9.64412 11.1901L8.24297 12.5907V9.80697C8.24297 9.54129 7.97417 9.32567 7.64297 9.32567C7.31177 9.32567 7.04297 9.54129 7.04297 9.80697V17.962C4.61787 17.6993 2.75 16.1056 2.75 14.1888V4.81116C2.75 2.70791 4.99585 1 7.75 1C10.5042 1 12.75 2.71186 12.75 4.81116V14.1888C12.75 16.1651 10.7672 17.7923 8.24297 17.9816Z" fill="white"/>
</svg>
