<svg width="24" height="24" viewBox="0 0 24 24" fill="none" xmlns="http://www.w3.org/2000/svg">
<path fill-rule="evenodd" clip-rule="evenodd" d="M15.2 22.8V5.2H21.8V22.8V24H16V22.8L15.2 22.8ZM14 5C14 4.44772 14.4477 4 15 4H22C22.5523 4 23 4.44772 23 5V22.8V24H21.8H15.2H14V22.8V5Z" fill="white"/>
<path fill-rule="evenodd" clip-rule="evenodd" d="M2 1C1.44772 1 1 1.44772 1 2V24H16V2C16 1.44772 15.5523 1 15 1H2ZM5 4C4.44772 4 4 4.44772 4 5V8H6V5C6 4.44772 5.55228 4 5 4ZM8.5 4C7.94772 4 7.5 4.44772 7.5 5V8H9.5V5C9.5 4.44772 9.05228 4 8.5 4ZM11 5C11 4.44772 11.4477 4 12 4C12.5523 4 13 4.44772 13 5V8H11V5ZM5 10C4.44772 10 4 10.4477 4 11V14H6V11C6 10.4477 5.55228 10 5 10ZM8.5 10C7.94772 10 7.5 10.4477 7.5 11V14H9.5V11C9.5 10.4477 9.05228 10 8.5 10ZM11 11C11 10.4477 11.4477 10 12 10C12.5523 10 13 10.4477 13 11V14H11V11ZM4 17C4 16.4477 4.44772 16 5 16C5.55228 16 6 16.4477 6 17V20H4V17ZM7.5 17C7.5 16.4477 7.94772 16 8.5 16C9.05228 16 9.5 16.4477 9.5 17V20H7.5V17ZM12 16C11.4477 16 11 16.4477 11 17V20H13V17C13 16.4477 12.5523 16 12 16Z" fill="white"/>
</svg>
