<svg viewBox="0 0 318 318" fill="none" xmlns="http://www.w3.org/2000/svg">
<g opacity="0.05" clip-path="url(#clip0_147_16432)">
<path d="M47.917 223.687C48.9209 221.676 49.8047 219.313 50.4662 216.498C53.7015 202.891 51.4762 177.947 22.6261 135.528C21.8784 134.299 -49.1017 18.4891 62.8963 -90.4303C42.742 -84.7176 23.3956 -75.8077 5.47318 -63.7702C-38.8702 -33.9988 -68.8914 11.3019 -79.1158 63.723C-81.9903 78.3834 -83.1917 92.9972 -82.8537 107.55L-82.2282 107.392C-45.6836 163.234 -2.11825 202.109 47.9393 223.69L47.917 223.687Z" fill="#7289A3"/>
<path d="M39.8096 233.325C39.9775 233.23 41.7156 232.154 43.837 229.811C0.386138 209.477 -43.4251 173.957 -82.5039 115.252C-80.5261 146.729 -71.0396 177.34 -54.4619 204.877L-54.1587 204.571C-53.6468 205.054 1.76122 256.083 39.8343 233.305L39.8096 233.325Z" fill="#7289A3"/>
<path d="M31.6854 129.644C45.6546 150.163 54.8627 168.617 59.3193 184.917L89.3454 -95.9883C83.0521 -95.1057 76.7724 -93.9285 70.5907 -92.4027C-39.359 11.4835 28.9638 125.161 31.6854 129.644Z" fill="#7289A3"/>
<path d="M54.0272 234.415C49.7075 240.243 45.3217 242.682 45.1561 242.754C9.92735 263.807 -30.9191 231.129 -48.0781 214.936C-24.7429 249.056 7.75473 274.643 45.6636 289.042C46.4688 288.046 47.4316 286.841 48.5519 285.428L54.005 234.413L54.0272 234.415Z" fill="#7289A3"/>
<path d="M60.9213 219.486C60.1619 222.583 59.1438 225.36 57.9855 227.76C65.847 230.765 73.823 233.331 82.0027 235.467C120.129 169.596 168.742 50.7451 140.704 -96.4959C123.453 -98.5428 106.234 -98.3546 89.3453 -95.9896L59.3192 184.916C62.8508 197.849 63.3965 209.404 60.9213 219.486Z" fill="#7289A3"/>
<path d="M263.805 106.374C239.385 178.354 167.156 205.392 160.824 207.691C137.693 217.008 125.623 229.964 121.17 242.517C132.831 243.719 144.825 244.121 157.057 243.783C220.022 242.038 270.339 219.645 283.616 213.107C298.035 191.453 308.21 166.911 313.37 140.57C329.038 60.4186 294.265 -18.1141 231.161 -62.0982C268.476 2.14433 281.246 54.9719 263.762 106.347L263.805 106.374Z" fill="#7289A3"/>
<path d="M54.0269 234.415L48.5738 285.43C54.7317 277.59 65.4805 263.072 77.6828 242.759C69.8613 240.435 61.9783 237.632 54.0563 234.35C54.0563 234.35 54.007 234.39 54.0046 234.413L54.0269 234.415Z" fill="#7289A3"/>
<path d="M108.233 255.359C108.129 253.59 108.119 251.785 108.245 249.973C101.468 248.843 94.658 247.394 87.7718 245.598C74.6047 268.4 62.9019 284.461 56.4465 292.766C63.7085 295.052 71.147 296.952 78.6731 298.455C101.265 302.831 124.02 303.37 146.115 300.164C132.805 293.94 109.821 279.941 108.236 255.337L108.233 255.359Z" fill="#7289A3"/>
<path d="M119.208 251.619C119.129 252.783 119.075 253.927 119.111 255.058C119.592 277.132 147.661 294.176 155.58 298.539C181.408 293.523 206.214 283.303 228.71 268.125C244.492 257.549 258.413 244.994 270.314 230.87C240.623 242.709 183.916 259.933 119.186 251.617L119.208 251.619Z" fill="#7289A3"/>
<path d="M92.1309 237.926C97.8811 239.172 103.74 240.249 109.642 241.128C113.881 224.877 127.627 208.471 155.858 198.054L156.223 197.8L156.616 197.707C157.434 197.433 231.579 170.397 256.021 102.003C273.217 54.1593 262.617 -2.51643 224.491 -66.5525C204.023 -79.628 180.788 -89.1671 155.53 -94.1212C152.196 -94.7706 148.852 -95.3309 145.501 -95.8244C174.907 51.4728 129.492 170.35 92.0839 237.943L92.1309 237.926Z" fill="#7289A3"/>
<path d="M54.0391 234.326L54.0295 234.415C54.0295 234.415 54.0789 234.376 54.0812 234.353L54.0367 234.348L54.0391 234.326Z" fill="#7289A3"/>
<path d="M155.439 304.045L155.444 304C155.444 304 155.442 304.023 155.419 304.02L155.442 304.023L155.439 304.045Z" fill="#7289A3"/>
</g>
<defs>
<clipPath id="clip0_147_16432">
<rect width="400" height="400.067" fill="white" transform="translate(-60.4805 -118) rotate(6.10121)"/>
</clipPath>
</defs>
</svg>
