<svg xmlns="http://www.w3.org/2000/svg" xml:space="preserve" id="Layer_1" x="0" y="0" style="enable-background:new 0 0 100 100" version="1.1" viewBox="0 0 100 100"><style>.st0{fill:#ccc}</style><path d="M32.5 58.2C43 58.2 51.8 48 51.8 35.9c0-3.9-.8-7.4-2.3-10.6-.1-.2-.2-.3-.3-.4l.2-.2c4.1-4.4 4.8-12 1.8-19.1-.2-.3-.5-.6-.9-.8-.4-.1-.8-.1-1.2.1-3.4 1.7-6.8 2.7-10.3 3.2-3.9.6-6.8.2-9.3 0-3.1-.4-5.8-.7-9.3.9-7.5 3.4-9.7 11.7-9.7 11.7-2.1 7.9 1.2 14.7 2.8 17 .7 11.5 9 20.5 19.2 20.5zm0-3c-8.7 0-15.9-8.1-16.3-18.4 0-.3-.1-.6-.3-.8.2-.3.3-.6.3-.9-.1-1.9 1.1-4.9 2.3-7.8.9-2 2.1-3.9 3.7-5.5 4.3 4.5 9.9 7.2 15.8 7.3 3.3 0 6.4-.8 8.9-2.3 1.3 2.7 2 5.8 2 9.2-.1 10.4-7.6 19.2-16.4 19.2zM13.4 21.4c0-.1 1.9-7 8.1-9.7 1.5-.7 2.9-.9 4.3-.9 1.1 0 2.2.1 3.4.3 2.5.3 5.7.6 10 0 3.3-.5 6.6-1.4 9.7-2.8 1.9 5.5 1.3 11.2-1.7 14.4l-.1.1c-.1.1-.2.1-.2.2-2.1 2-5.3 3.2-8.9 3.1-5.4-.1-10.7-2.8-14.5-7.4-.3-.3-.6-.5-1-.5s-.8.1-1.1.3c-2.4 2.1-4.4 4.7-5.6 7.6-.8 1.9-1.6 3.8-2.1 5.5-.9-2.7-1.4-6.3-.3-10.2zM75.4 65.6c8.4 0 15.2-7.1 15.2-15.9 0-7.8 0-18.4-15.2-18.4S60.2 42 60.2 49.7c0 8.7 6.8 15.9 15.2 15.9zM63.2 48.8c.2.1.4.1.6.1h.2c5.9-.8 15.2-2.1 16.6-2.1.8 0 1.5-.7 1.5-1.5s-.7-1.5-1.5-1.5c-2.2 0-15.6 1.9-17.1 2.1-.1 0-.2 0-.3.1.3-6.4 1.9-11.8 12.1-11.8 12.2 0 12.2 7.5 12.2 15.4 0 7.1-5.5 12.9-12.2 12.9s-12.2-5.8-12.2-12.9c.1-.2.1-.5.1-.8zM20.6 62.8zM84.3 67.8c-.4-.1-.9 0-1.2.3 0 0-3.7 2.9-7.9 2.9h-.1c-4.2-.1-7.6-2.9-7.6-2.9-.3-.3-.8-.4-1.2-.3-2.9.5-5.5 1.7-7.8 3.4-3.6-5.1-9.1-8.8-15.4-9.9-.4-.1-.9 0-1.2.3l.9 1.2-.9-1.2c-.2.2-.5.4-.8.5-.5.4-1.3.9-2.3 1.3-2 1-4.5 1.9-7.3 1.9-2.7 0-5.2-1-7-1.9-.9-.5-1.6-.9-2.1-1.3-.2-.2-.5-.4-.7-.5-.3-.3-.8-.4-1.2-.3l.3 1.5.9-1.1c-.1.1-.3.4-.9 1.1l-.3-1.5C9.6 63.2 1.4 72.4.7 83.5l1.5.1-1.5-.1c0 .5.2.9.5 1.2 0 0 .1 0 .1.1 8.6 7.6 21.8 10.4 30 10.4 7.1 0 15.9-1.5 23.4-5.4 6.5 4 14.6 5.5 20.2 5.5 3.6 0 16-.6 24.7-8.4.3-.3.5-.8.5-1.2-.4-8.8-7.1-16.4-15.8-17.9zM2.2 83.6zm1.6-.7c.9-9.2 7.6-16.7 16.4-18.6.1.1.2.2.3.2.6.4 1.4 1 2.5 1.5 2.1 1.1 5 2.2 8.4 2.3 3.4 0 6.5-1.1 8.7-2.2 1.1-.6 2-1.1 2.6-1.5.1-.1.3-.2.4-.3 5.4 1.1 10 4.3 13 8.8-1.4 1.4-2.6 3-3.5 4.7L52 79c-.1.1-.1.3-.2.4-.1.3-.3.7-.4 1-.1.2-.2.5-.2.7l-.3.9c-.1.4-.2.8-.2 1.2 0 .2-.1.4-.1.5-.1.6-.2 1.1-.2 1.7V86.2c0 .1.1.1.1.2 0 0 0 .1.1.1.1.1.1.2.2.3.3.3.7.6 1 .8-6.7 3.1-14.3 4.4-20.6 4.4-7.5.2-19.5-2.4-27.4-9.1zM75 92.3c-5.9 0-13.9-1.8-19.7-5.8-.3-.2-.5-.4-.8-.6-.2-.1-.3-.3-.5-.4-.2-.1-.3-.2-.4-.4 0-.2 0-.4.1-.6 0-.2 0-.3.1-.5.1-.4.2-.8.2-1.1 0-.2.1-.3.1-.5.1-.4.2-.8.4-1.1.1-.3.2-.5.3-.8.1-.2.1-.3.2-.5.1-.3.3-.6.4-.9.1-.1.1-.2.2-.3.8-1.4 1.7-2.6 2.8-3.8l.2-.2c2.1-2 4.7-3.5 7.6-4.1 1.3 1 4.7 3.1 8.9 3.2 4.3.1 8-2.2 9.4-3.2 6.8 1.5 12 7.3 12.7 14.3-7.9 6.8-19 7.3-22.2 7.3z" class="st0"/></svg>