<svg xmlns="http://www.w3.org/2000/svg" fill="none" viewBox="0 0 1000 283"><g clip-path="url(#a)"><path fill="#F24C83" d="M66.216 17.672s2.048 26.274 35.005 33.656l4.243 9.875s-17.641-2.3-28.38-8.438c-10.737-6.135-14.19-16.49-14.19-16.49l3.322-18.603ZM118.679 101.041s3.941 1.148 8.851 0c3.941-.921 7.647-6.349 13.527-7.448 4.194-.785 8.641-.329 13.639.626-4.661-3.177-9.991-7.533-9.991-7.533s-7.482-.843-11.767.356c-7.237 2.029-16.999 9.44-23.274 6.073 0 0 6.429 7.728 9.015 7.926Z"/><path fill="#FF83A6" d="M101.221 51.328s11.223 9.06 10.333 24.193c-.89 15.135 2.375 22.257 7.122 25.521 0 0-14.73-3.561-17.455-16.025-2.725-12.463 5.394-18.118 0-33.689ZM144.703 86.686s25.447 7.903 30.261 28.363l-13.373 7.29s-3.556-26.408-16.888-35.653Z"/><path fill="#3B53FF" d="M611.65 86.715s-11.092 6.565-25.803 4.225c-14.713-2.34-17.035 2.08-17.035 2.08s4.059-13.034 15.533-14.325c11.474-1.293 30.66 7.907 33.397-.308l-6.092 8.328ZM565.852 120.965l2.491 1.823c6.147 4.894 13.664.377 13.664.377l2.915-3.976c-4.825 1.547-10.13-1.574-13.261-3.212-1.563-.818-5.799 2.538-5.809 4.99v-.002Z"/><path fill="#5F7AFF" d="M616.185 7.38s-3.511 11.098 6.493 36.403c9.227 23.342-1.901 40.13-11.032 42.932 0 0 11.802-15.7-2.76-42.188-4.002-7.276-5.397-23.26-4.573-28.772 3.143-4.734 9.112-8.355 11.873-8.373l-.001-.001ZM575.571 82.666s-4.804 4.126-6.759 10.353c-1.955 6.227 4.751 14.602 9.822 19.524 6.283 5.814 3.374 10.621 3.374 10.621s5.501-5.908 5.48-9.082c-.086-12.606-11.147-15.339-12.585-21.106-1.261-5.055-.355-7.654.668-10.312v.002ZM571.659 115.976c-3.756-.787-4.17 5.913-4.17 5.913.474 6.287 7.527 10.469 7.527 10.469-.575 1.984-4.506 3.694-6.066 4.173-2.003-.788-4.244-2.902-5.595-6.587-1.889-3.082 1.11-8.84 1.11-8.84s3.411-6.333 7.194-5.13v.002Z"/><path fill="#6CDCFF" d="m456.464 34.253-.745 16.381s19.287.73 25.951-12.788l-1.162-13.86s-9.011 15.38-24.044 10.267Z"/><path fill="#FF83A6" d="m888.561 225.904 11.808 14.361s-31.322 15.049-45.597 4.778l-7.245-14.487s28.516 7.774 41.034-4.654v.002Z"/><path fill="#004FD1" d="M254.819 60.284 242.724 78.29s-17.803-9.653-18.509-21.271l14.192-15.043s1.463 18.423 16.412 18.31Z"/><path fill="#00B3DD" d="m50.234 245.146-4.82-4.743c-12.75-11.563-6.406-26.962-6.406-26.962l6.428-7.533c-1.641 10.977 5.066 22.104 9.715 28.297.655 1.84 1.238 3.728.557 5.846-.778 2.422-2.648 4.622-5.472 5.093l-.002.002ZM21.946 229.773s4.26-1.625 9.07 2.077c3.52 2.711 13.627 17.672.551 27.28 0 0-3.921-18.699-7.157-22.975-3.235-4.275-2.462-6.382-2.462-6.382h-.002Z"/><path fill="#6CDCFF" d="M127.033 212.588s-4.463 12.448-19.336 18.92c-13.111 5.705-33.246-5.121-45.678-14.347-15.76-11.704-23.011-3.72-23.011-3.72s7.737-11.478 14.646-12.258c13.41-1.514 44.607 20.219 52.413 20.181 11.411-.052 15.583-5.629 20.966-8.776ZM55.15 234.208c3.028 7.841-7.491 7.724-7.491 7.724-26.495-3.478-25.709-12.157-25.709-12.157-4.086 1.943-5.21 9.446-5.21 9.446s-.12 2.049 2.104 4.87c2.398 3.043 6.795 5.621 14.026 8.09 9.696 3.64 17.553-3.988 17.553-3.988s8.983-5.567 4.73-13.983l-.003-.002Z"/><path fill="#6CDCFF" d="M36.412 253.464s-14.65 7.64-30.622-.962L0 265.916s14.834 4.899 26.722-2.144c0 0 7.515-5.338 9.688-10.308h.002Z"/><path fill="#FF83A6" d="m730.805 29.52 14.476 2.613s-.358 13.695-12.782 13.288l-12.944-3.806s15.698-4.133 11.25-12.096Z"/><path fill="#6CDCFF" d="m33.989 62.435-12.708 6.41s8.223 21.56 21.228 21.081l11.004-4.412S36.473 76.44 33.99 62.436Z"/><path fill="#004FD1" d="m406.48 50.675 42.552-.614-13.776 22.286-28.776-21.672Z"/><path fill="#FF83A6" d="M294.665 94.859a8.684 8.684 0 0 0 8.684-8.684 8.685 8.685 0 1 0-8.684 8.684Z"/><path fill="#F24C83" d="M17.911 177.884a8.684 8.684 0 1 0-8.684-8.684 8.684 8.684 0 0 0 8.684 8.684Z"/><path fill="#004FD1" d="M685.012 119.322a8.684 8.684 0 1 0 .001-17.369 8.684 8.684 0 0 0-.001 17.369Z"/><path fill="#FF83A6" d="M522.419 70.521a8.684 8.684 0 0 0 8.684-8.684 8.684 8.684 0 1 0-8.684 8.684Z"/><path fill="#004FD1" d="M196.028 235.9a8.685 8.685 0 1 0 0-17.37 8.685 8.685 0 0 0 0 17.37Z"/><path fill="#FEC343" d="M63.578 169.547 52.93 188.031l28.905-8.685-18.257-9.799Z"/><path fill="#fff" d="M-22.14 268.184s7.18-5.819 15.181-3.638l7.64 13.65s-10.74 3.081-13.554 4.536l-9.268-14.548Z"/><path fill="#5F7AFF" d="m188.823 35.51-26.464-4.145 15.881 23.538 10.583-19.393ZM865.352 83.857v20.235l17.486-10.787-17.486-9.448Z"/><path fill="#6CDCFF" d="M839.201 41.545s-20.85-10.699-41.759 12.409c-7.771 8.587-14.232 19.395-20.702 27.397-10.939 13.527-20.737 21.887-28.412 18.701 0 0 10.928 7.174 23.757 2.975 0 0 12.647-4.468 31.233-37.083 0 0 11.09-22.269 33.161-13.897l2.724-10.5-.002-.002Z"/><path fill="#E59E20" d="M374.051 72.522s10.447 9.735 25.318.063c3.317-2.158 7.742-6.719 6.189-10.46l-5.925-6.38s-15.389 17.763-31.399 9.022l5.817 7.755Z"/><path fill="#FEC343" d="m388.339 37.753-5.821-10.077s-35.13 7.974-14.284 37.09l5.817 7.756s-20.942-23.64 14.288-34.77ZM405.553 62.124l-6.873-8.271s-3.58-1.647-7.977.4c-7.915 3.688-16.813 14.913-5.85 39.208l7.382 4.207s-7.016-13.531-2.107-24.67c2.357-5.348 10.294-13.587 15.427-10.874h-.002Z"/><path fill="#E2AD42" d="M987.837 156.606s-9.842-21.339-27.724-11.417c0 0 19.523-13.14 39.743 3.318l-12.019 8.099Z"/><path fill="#E59E20" d="M912.171 180.968s-6.75-.837-12.71-11.407c-5.958-10.57-15.25-5.144-17.715-3.077 0 0 14.879-11.466 22.13-5.999 7.25 5.469 13.447 18.02 22.153 18.089 0 0-6.222 4.031-13.86 2.394h.002Z"/><path fill="#FEC343" d="M966.882 142.057s-12.217 1.185-26.785 21.611c-10.996 15.82-20.86 16.97-27.925 17.3 0 0 17.67 3.652 27.111-2.345 9.442-5.997 11.482-27.549 27.599-36.566ZM881.748 166.486s-12.578 8.745-13.617 23.761c-1.61 14.118-21.848 25.075-28.647 21.907 0 0 15.992 8.825 24.553 5.652 8.563-3.172 17.293-13.631 19.587-29.444 2.296-15.814 4.092-24.358 10.93-28.647 0 0-1.976.518-4.362 1.588-2.81 1.264-6.243 3.237-8.447 5.183h.003Z"/></g><defs><clipPath id="a"><path fill="#fff" d="M0 0h1000v283H0z"/></clipPath></defs></svg>