<svg xmlns="http://www.w3.org/2000/svg" xml:space="preserve" id="Layer_1" x="0" y="0" style="enable-background:new 0 0 100 100" version="1.1" viewBox="0 0 100 100"><style>.st0{fill:#ccc}</style><path d="M61.5 61.3c-.4-.1-.9 0-1.2.3-.1 0-5 4.1-10.9 4-5.7-.1-10.3-3.9-10.3-3.9-.3-.3-.8-.4-1.2-.3-11.1 1.8-19.7 11.6-20.4 23 0 .4.1.8.4 1.1l.2.2c8.4 7.5 21.8 10.8 31.3 10.8 4.7 0 20.9-.8 32.2-10.9.3-.3.5-.8.5-1.2-.7-11.4-9.4-21.1-20.6-23.1zM49.4 93.5c-8.8 0-21-3-28.8-9.6.9-9.5 8-17.6 17.2-19.5 1.6 1.2 6 4.1 11.6 4.2 5.8.1 10.6-3 12.2-4.2 9.3 1.9 16.5 10 17.4 19.5-10.5 8.9-25.3 9.6-29.6 9.6zM30.7 35.1c-.1.2-.1.4-.1.7.5 12.4 9.3 22.1 20 22.1 10.9 0 20.1-10.6 20.1-23.2 0-.2-.1-.4-.1-.6.2-.4.4-.9.7-1.3.5-1 1.1-2 1.3-3 2.6-9.3.1-15.9-7.2-18.5-2.7-4.7-9.1-7.9-16-7.8-6.5.1-15 4-18.5 11.2-1.7 3.6-4.1 10.8-.6 19.7 0 .3.1.6.4.7zM33.4 16c3-6.1 10.3-9.4 15.9-9.5 6.1-.1 11.6 2.7 13.6 6.7.2.4.5.6.9.8 6.2 2 8.1 7 5.8 15.1v.1c-.1.6-.6 1.4-1 2.2v.1c-.4-.6-.8-1.3-1.2-2-1.1-1.9-2.4-4.1-4.7-5.8-.7-.5-1.6-.4-2.1.3s-.4 1.6.3 2.1c1.8 1.3 2.8 3.2 3.9 5 .9 1.5 1.7 2.9 2.9 3.9 0 10.9-7.8 20.1-17.1 20.1-9.2 0-16.6-8.5-17.1-19.2 0-.4-.2-.7-.4-.9 1.4-.8 2.3-1.8 3.2-2.5.7-.6 1.3-1.3 1.7-1.3 5.8-.6 18-4.8 22-8.8.6-.6.6-1.5 0-2.1-.6-.6-1.5-.6-2.1 0-3.5 3.5-15 7.4-20.2 8-1.4.1-2.4 1.1-3.5 2.1-.6.5-1.2 1.1-1.9 1.6-2.2-7.4-.3-13.1 1.1-16z" class="st0"/></svg>