<svg xmlns="http://www.w3.org/2000/svg" fill="none" viewBox="0 0 80 80"><g fill="#7289A3" clip-path="url(#a)"><path d="M28.817 65.635a6.56 6.56 0 0 0 .354-1.484c.354-2.774-.619-7.686-7.257-15.507-.175-.23-16.75-21.747 3.205-45.785a40.262 40.262 0 0 0-10.851 6.522C6.084 16.243 1.078 25.888.158 36.529a40.525 40.525 0 0 0 .189 8.793l.12-.045c8.454 10.327 17.942 17.13 28.354 20.358h-.004Z"/><path d="M27.408 67.723c.031-.022.354-.273.726-.784-9.072-3.12-18.538-9.251-27.556-20.093a39.47 39.47 0 0 0 7.48 17.224l.054-.067c.112.085 12.214 9.054 19.3 3.716l-.004.004ZM23.59 47.28c3.214 3.783 5.437 7.257 6.67 10.403V1.191a37.26 37.26 0 0 0-3.653 1.112C6.953 25.296 22.954 46.447 23.591 47.28Z"/><path d="M30.259 67.639c-.735 1.25-1.555 1.828-1.587 1.846-6.557 4.935-15.373-.694-19.129-3.55 5.365 6.289 12.37 10.686 20.214 12.743.139-.215.305-.475.497-.78v-10.26h.005ZM31.311 64.524a8.447 8.447 0 0 1-.408 1.708c1.627.43 3.268.77 4.94 1.022C42.022 53.346 49.162 28.68 40.458 0a39.99 39.99 0 0 0-10.201 1.192v56.492c.977 2.496 1.331 4.782 1.053 6.84ZM69.248 37.72c-3.326 14.831-17.112 21.742-18.322 22.334-4.402 2.344-6.526 5.177-7.145 7.767a55.2 55.2 0 0 0 7.163-.51c12.482-1.686 22.01-7.208 24.512-8.79a39.99 39.99 0 0 0 4.374-15.055c1.412-16.27-7.17-31.146-20.653-38.55 8.785 11.98 12.447 22.213 10.062 32.8l.01.004Z"/><path d="M30.258 67.638v10.26c1.058-1.69 2.887-4.805 4.881-9.103a48.29 48.29 0 0 1-4.876-1.17s-.01.009-.01.013h.005ZM41.482 70.65a8.405 8.405 0 0 1-.112-1.07 46.543 46.543 0 0 1-4.163-.436c-2.134 4.814-4.12 8.256-5.227 10.045 1.493.3 3.012.52 4.54.659 4.586.39 9.122.013 13.447-1.094-2.779-.955-7.646-3.25-8.485-8.108v.004Z"/><path d="M43.583 69.673c.009.233.022.462.053.686.565 4.379 6.508 7.171 8.176 7.87a39.614 39.614 0 0 0 13.894-7.601 39.923 39.923 0 0 0 7.48-8.292c-5.651 2.985-16.56 7.615-29.608 7.337h.005ZM37.907 67.526c1.17.126 2.358.216 3.55.265.498-3.321 2.882-6.876 8.274-9.547l.067-.058.076-.027c.157-.072 14.325-7.023 17.731-21.142 2.403-9.878-.91-20.922-9.851-32.844A39.792 39.792 0 0 0 41.426.03c8.977 28.663 2.474 53.265-3.528 67.5l.01-.005ZM30.258 67.621v.018s.009-.009.009-.013h-.01v-.005ZM51.903 79.327v-.009s0 .005-.005.005h.005v.004Z"/></g><defs><clipPath id="a"><path fill="#fff" d="M0 0h79.987v80H0z"/></clipPath></defs></svg>