<svg width="335" height="120" viewBox="0 0 335 120" fill="none" xmlns="http://www.w3.org/2000/svg">
<mask id="mask0_484_19225" style="mask-type:alpha" maskUnits="userSpaceOnUse" x="0" y="0" width="335" height="120">
<rect width="335" height="120" rx="12" fill="none"/>
</mask>
<g mask="url(#mask0_484_19225)">
<rect width="335" height="120" rx="12" fill="#ECF1F7"/>
</g>
<g clip-path="url(#clip0_484_19225)">
<path d="M124.985 42.0969C123.619 42.0484 123.164 42.0678 120.333 42H117.779C113.929 42 106.97 42 105.723 42.0291C103.328 42.0775 100.051 42.0775 96.7355 45.5168C95.4883 46.815 94.4688 48.5975 93.1523 51.0486C89.6088 57.6655 85.3526 64.8347 85.3526 64.8347C85.3526 64.8347 84.541 66.317 83.3928 68.1964C81.9377 70.57 79.77 73.583 76.1968 75.0652C76.1968 75.0652 74.3558 75.724 73.1086 76.0825C72.4157 76.2859 72.0396 76.5669 72 76.8091V76.906C72.0396 77.0997 72.3266 77.2547 72.871 77.2741C72.871 77.2741 76.7709 77.3032 80.6114 77.3226H88.9654C90.1136 77.2644 91.5291 77.1094 92.9742 76.6928C95.4883 76.0922 96.7553 75.2009 98.5567 72.8564L102.565 66.036C102.565 66.036 117.433 66.0651 120.719 66.0651C122.936 66.0651 125.381 66.0844 128.073 64.5731C131.29 62.7711 134.18 59.4385 134.368 54.1197V53.0444C134.121 45.943 127.539 42.2131 124.995 42.0969H124.985Z" fill="#F5821F"/>
<path d="M105.299 49.7695C105.299 49.7695 111.624 54.8654 111.773 54.9914C111.911 55.1173 112.267 55.4467 112.416 55.1173C112.564 54.7879 111.832 54.4198 111.832 54.4198L105.299 49.7695Z" fill="white"/>
<path d="M105.1 50.2725C105.1 50.2725 111.425 55.3684 111.573 55.4943C111.722 55.6203 112.068 55.9496 112.217 55.6203C112.365 55.2909 111.633 54.9227 111.633 54.9227L105.1 50.2725Z" fill="white"/>
<path d="M104.9 50.79C104.9 50.79 111.226 55.8859 111.374 56.0119C111.513 56.1378 111.869 56.4672 112.018 56.1378C112.156 55.8084 111.443 55.4403 111.443 55.4403L104.91 50.79H104.9Z" fill="white"/>
<path d="M104.703 51.293C104.703 51.293 111.028 56.3889 111.177 56.5148C111.325 56.6311 111.672 56.9702 111.82 56.6408C111.969 56.3114 111.236 55.9432 111.236 55.9432L104.703 51.293Z" fill="white"/>
<path d="M104.498 51.7949C104.498 51.7949 110.823 56.8908 110.972 57.0168C111.12 57.1427 111.467 57.4721 111.615 57.1427C111.754 56.8133 111.041 56.4452 111.041 56.4452L104.508 51.7949H104.498Z" fill="white"/>
<path d="M104.301 52.2998C104.301 52.2998 110.626 57.3957 110.774 57.5217C110.923 57.6379 111.269 57.977 111.418 57.6476C111.566 57.3182 110.844 56.9501 110.844 56.9501L104.311 52.2998H104.301Z" fill="white"/>
<path d="M104.102 52.8027C104.102 52.8027 110.427 57.8986 110.575 58.0148C110.724 58.1408 111.07 58.4702 111.219 58.1408C111.367 57.8114 110.645 57.4432 110.645 57.4432L104.111 52.793L104.102 52.8027Z" fill="white"/>
<path d="M103.893 53.3076C103.893 53.3076 110.218 58.4035 110.366 58.5295C110.515 58.6457 110.861 58.9848 111.01 58.6554C111.158 58.326 110.436 57.9579 110.436 57.9579L103.902 53.3076H103.893Z" fill="white"/>
<path d="M103.695 53.8105C103.695 53.8105 110.021 58.9064 110.169 59.0324C110.318 59.1583 110.664 59.4877 110.812 59.1583C110.951 58.8289 110.238 58.4608 110.238 58.4608L103.705 53.8105H103.695Z" fill="white"/>
<path d="M103.498 54.3251C103.498 54.3251 109.823 59.421 109.972 59.5373C110.12 59.6632 110.467 59.9926 110.615 59.6632C110.754 59.3338 110.031 58.9657 110.031 58.9657L103.498 54.3154V54.3251Z" fill="white"/>
<path d="M103.289 54.8262C103.289 54.8262 109.614 59.9221 109.763 60.048C109.911 60.1643 110.258 60.5034 110.406 60.174C110.545 59.8446 109.832 59.4764 109.832 59.4764L103.299 54.8262H103.289Z" fill="white"/>
<path d="M108.545 62.0074C108.545 62.0074 115.424 57.6478 115.583 57.5509C115.741 57.454 116.177 57.2215 115.9 56.989C115.622 56.7565 115.048 57.3184 115.048 57.3184L108.545 62.0074Z" fill="white"/>
<path d="M108.971 62.3443C108.971 62.3443 115.84 57.9847 116.009 57.8878C116.167 57.7909 116.603 57.5584 116.325 57.3259C116.048 57.0934 115.474 57.6553 115.474 57.6553L108.971 62.3443Z" fill="white"/>
<path d="M109.402 62.6851C109.402 62.6851 116.282 58.3255 116.44 58.2286C116.599 58.1317 117.034 57.8992 116.757 57.6667C116.48 57.4342 115.906 57.9961 115.906 57.9961L109.402 62.6851Z" fill="white"/>
<path d="M109.832 63.022C109.832 63.022 116.702 58.6623 116.87 58.5558C117.028 58.4589 117.464 58.2264 117.187 57.9939C116.91 57.7614 116.335 58.3233 116.335 58.3233L109.832 63.0123V63.022Z" fill="white"/>
<path d="M110.266 63.3638C110.266 63.3638 117.145 59.0041 117.304 58.8976C117.462 58.8007 117.897 58.5682 117.62 58.3357C117.343 58.1032 116.769 58.6651 116.769 58.6651L110.266 63.3541V63.3638Z" fill="white"/>
<path d="M110.703 63.7026C110.703 63.7026 117.573 59.343 117.741 59.2364C117.899 59.1396 118.335 58.907 118.058 58.6745C117.781 58.442 117.207 59.0039 117.207 59.0039L110.703 63.6929V63.7026Z" fill="white"/>
<path d="M111.127 64.0406C111.127 64.0406 118.007 59.681 118.165 59.5841C118.323 59.4872 118.759 59.2547 118.482 59.0222C118.204 58.7897 117.63 59.3516 117.63 59.3516L111.127 64.0406Z" fill="white"/>
<path d="M111.564 64.3794C111.564 64.3794 118.444 60.0198 118.602 59.9132C118.761 59.8163 119.196 59.5838 118.919 59.3513C118.642 59.1188 118.068 59.6807 118.068 59.6807L111.564 64.3697V64.3794Z" fill="white"/>
<path d="M111.99 64.728C111.99 64.728 118.86 60.3684 119.028 60.2618C119.187 60.165 119.622 59.9324 119.345 59.6999C119.068 59.4674 118.494 60.0293 118.494 60.0293L111.99 64.7183V64.728Z" fill="white"/>
<path d="M112.424 65.0679C112.424 65.0679 119.303 60.7082 119.462 60.6017C119.63 60.5048 120.056 60.2723 119.779 60.0398C119.501 59.8073 118.927 60.3692 118.927 60.3692L112.424 65.0582V65.0679Z" fill="white"/>
<path d="M112.852 65.4088C112.852 65.4088 119.721 61.0491 119.89 60.9523C120.048 60.8554 120.483 60.6229 120.206 60.3904C119.929 60.1578 119.355 60.7197 119.355 60.7197L112.852 65.4088Z" fill="white"/>
<path d="M126.313 50.7577C126.313 50.7577 118.127 50.4186 117.939 50.3992C117.75 50.3895 117.265 50.3314 117.345 50.6801C117.434 51.0289 118.235 50.8933 118.235 50.8933L126.313 50.7577Z" fill="white"/>
<path d="M126.155 50.2375C126.155 50.2375 117.968 49.8984 117.78 49.8887C117.592 49.879 117.107 49.8209 117.186 50.16C117.275 50.5087 118.077 50.3731 118.077 50.3731L126.155 50.2375Z" fill="white"/>
<path d="M126.006 49.7137C126.006 49.7137 117.82 49.3746 117.632 49.3553C117.444 49.3456 116.959 49.2874 117.038 49.6362C117.127 49.985 117.929 49.8493 117.929 49.8493L126.006 49.7137Z" fill="white"/>
<path d="M125.858 49.1886C125.858 49.1886 117.672 48.8495 117.483 48.8399C117.295 48.8302 116.8 48.772 116.89 49.1111C116.979 49.4599 117.78 49.3243 117.78 49.3243L125.858 49.1886Z" fill="white"/>
<path d="M125.709 48.6756C125.709 48.6756 117.523 48.3365 117.335 48.3172C117.147 48.3075 116.662 48.2493 116.741 48.5981C116.83 48.9469 117.632 48.8113 117.632 48.8113L125.709 48.6756Z" fill="white"/>
<path d="M125.561 48.1532C125.561 48.1532 117.375 47.8141 117.187 47.7947C116.998 47.785 116.513 47.7269 116.593 48.0757C116.682 48.4244 117.484 48.2888 117.484 48.2888L125.561 48.1532Z" fill="white"/>
<path d="M125.412 47.629C125.412 47.629 117.226 47.2899 117.038 47.2705C116.85 47.2608 116.355 47.2027 116.444 47.5418C116.533 47.8906 117.335 47.7549 117.335 47.7549L125.412 47.6193V47.629Z" fill="white"/>
<path d="M125.25 47.1073C125.25 47.1073 117.064 46.7682 116.876 46.7488C116.688 46.7391 116.203 46.681 116.282 47.0298C116.371 47.3785 117.173 47.2429 117.173 47.2429L125.25 47.1073Z" fill="white"/>
<path d="M125.108 46.5838C125.108 46.5838 116.922 46.2447 116.733 46.2254C116.545 46.2157 116.06 46.1576 116.14 46.5063C116.229 46.8551 117.03 46.7195 117.03 46.7195L125.108 46.5838Z" fill="white"/>
<path d="M124.959 46.0604C124.959 46.0604 116.773 45.7213 116.585 45.7019C116.397 45.6922 115.912 45.6341 115.991 45.9829C116.08 46.3317 116.882 46.196 116.882 46.196L124.959 46.0604Z" fill="white"/>
<path d="M124.809 45.5369C124.809 45.5369 116.623 45.1979 116.435 45.1785C116.247 45.1688 115.762 45.1107 115.841 45.4594C115.93 45.8082 116.732 45.6726 116.732 45.6726L124.809 45.5369Z" fill="white"/>
<path d="M116.017 42.6016C116.017 42.6016 113.424 50.2067 113.365 50.3907C113.305 50.5651 113.107 51.0108 113.474 51.0205C113.84 51.0398 113.929 50.2454 113.929 50.2454L116.017 42.6113V42.6016Z" fill="white"/>
<path d="M115.463 42.5918C115.463 42.5918 112.869 50.1969 112.81 50.381C112.751 50.5554 112.553 51.001 112.919 51.0107C113.285 51.0204 113.374 50.2357 113.374 50.2357L115.463 42.6015V42.5918Z" fill="white"/>
<path d="M114.91 42.5918C114.91 42.5918 112.317 50.1969 112.257 50.381C112.198 50.5554 112 51.001 112.366 51.0107C112.732 51.0301 112.821 50.2357 112.821 50.2357L114.91 42.5918Z" fill="white"/>
<path d="M114.357 42.5918C114.357 42.5918 111.764 50.1969 111.704 50.381C111.645 50.5554 111.447 51.001 111.813 51.0107C112.18 51.0204 112.269 50.2357 112.269 50.2357L114.357 42.6015V42.5918Z" fill="white"/>
<path d="M113.801 42.5918C113.801 42.5918 111.207 50.2066 111.148 50.381C111.088 50.5554 110.89 51.001 111.257 51.0107C111.623 51.0301 111.712 50.2357 111.712 50.2357L113.801 42.5918Z" fill="white"/>
<path d="M113.257 42.5811C113.257 42.5811 110.674 50.1862 110.604 50.3702C110.535 50.5446 110.347 50.9903 110.713 51C111.079 51.0193 111.169 50.2249 111.169 50.2249L113.257 42.5907V42.5811Z" fill="white"/>
<path d="M112.701 42.5811C112.701 42.5811 110.118 50.1862 110.048 50.3702C109.989 50.5446 109.791 50.9903 110.157 51C110.523 51.0096 110.612 50.2249 110.612 50.2249L112.701 42.5907V42.5811Z" fill="white"/>
<path d="M112.148 42.5811C112.148 42.5811 109.564 50.1862 109.495 50.3605C109.426 50.5349 109.238 50.9806 109.604 50.9903C109.97 51 110.059 50.2152 110.059 50.2152L112.148 42.5811Z" fill="white"/>
<path d="M111.594 42.5811C111.594 42.5811 109.01 50.1862 108.941 50.3702C108.881 50.5446 108.693 50.9903 109.05 51C109.416 51.0193 109.505 50.2249 109.505 50.2249L111.594 42.5811Z" fill="white"/>
<path d="M111.039 42.5829C111.039 42.5829 108.455 50.188 108.386 50.3624C108.327 50.5368 108.129 50.9825 108.495 50.9921C108.861 51.0018 108.95 50.2171 108.95 50.2171L111.039 42.5732V42.5829Z" fill="white"/>
<path d="M110.484 42.5732C110.484 42.5732 107.901 50.1783 107.831 50.3527C107.772 50.5271 107.574 50.9728 107.94 50.9825C108.307 50.9921 108.396 50.2074 108.396 50.2074L110.484 42.5732Z" fill="white"/>
<path d="M122.214 63.0314C122.214 63.0314 119.69 55.2809 119.631 55.0969C119.571 54.9128 119.463 54.4381 119.156 54.6415C118.849 54.845 119.255 55.5425 119.255 55.5425L122.205 63.0217L122.214 63.0314Z" fill="white"/>
<path d="M122.669 62.711C122.669 62.711 120.145 54.9606 120.096 54.7765C120.036 54.5925 119.927 54.1178 119.621 54.3212C119.314 54.5247 119.72 55.2222 119.72 55.2222L122.669 62.7014V62.711Z" fill="white"/>
<path d="M123.124 62.3917C123.124 62.3917 120.6 54.6413 120.551 54.4572C120.491 54.2731 120.383 53.7984 120.076 54.0019C119.769 54.2053 120.175 54.9029 120.175 54.9029L123.124 62.3917Z" fill="white"/>
<path d="M123.581 62.0646C123.581 62.0646 121.057 54.3141 121.008 54.1301C120.948 53.946 120.84 53.4713 120.533 53.6747C120.226 53.8782 120.632 54.5757 120.632 54.5757L123.581 62.0646Z" fill="white"/>
<path d="M124.037 61.7452C124.037 61.7452 121.512 53.9948 121.463 53.8107C121.404 53.6267 121.295 53.1519 120.988 53.3554C120.681 53.5588 121.087 54.2564 121.087 54.2564L124.037 61.7452Z" fill="white"/>
<path d="M124.49 61.4259C124.49 61.4259 121.966 53.6755 121.916 53.4914C121.867 53.3073 121.748 52.8326 121.441 53.0361C121.134 53.2395 121.54 53.937 121.54 53.937L124.49 61.4259Z" fill="white"/>
<path d="M124.947 61.1065C124.947 61.1065 122.423 53.3561 122.363 53.1721C122.304 52.988 122.195 52.5133 121.888 52.7167C121.581 52.9202 121.987 53.6177 121.987 53.6177L124.937 61.0969L124.947 61.1065Z" fill="white"/>
<path d="M125.402 60.7872C125.402 60.7872 122.878 53.0368 122.828 52.8527C122.769 52.6686 122.66 52.1939 122.353 52.3974C122.046 52.6008 122.452 53.2984 122.452 53.2984L125.402 60.7872Z" fill="white"/>
<path d="M125.857 60.4552C125.857 60.4552 123.333 52.7048 123.283 52.5207C123.224 52.3366 123.115 51.8619 122.808 52.0653C122.501 52.2688 122.907 52.9663 122.907 52.9663L125.857 60.4552Z" fill="white"/>
<path d="M126.312 60.1358C126.312 60.1358 123.788 52.3854 123.738 52.2013C123.679 52.0173 123.57 51.5426 123.263 51.746C122.956 51.9495 123.362 52.647 123.362 52.647L126.312 60.1358Z" fill="white"/>
<path d="M126.767 59.8165C126.767 59.8165 124.243 52.0661 124.193 51.882C124.134 51.6979 124.025 51.2232 123.718 51.4267C123.411 51.6301 123.817 52.3277 123.817 52.3277L126.767 59.8165Z" fill="white"/>
<path d="M159.908 44.2202C158.393 43.2417 156.463 42.6701 154.147 42.6314H142.744V63.2669H147.426V54.8189H151.969C152.137 54.8189 152.316 54.8189 152.474 54.8189C155.354 54.8189 157.601 54.4895 159.225 53.7435C160.254 53.2494 161.046 52.581 161.57 51.7381C162.105 50.8953 162.372 49.878 162.392 48.7348V48.6476C162.392 46.8069 161.541 45.2859 159.908 44.2202ZM155.928 51.244C154.988 51.6897 154.018 51.8931 153.018 51.8931H147.426V45.5959H152.524C154.068 45.6153 155.315 45.9834 156.305 46.6132C156.78 46.9135 157.126 47.2622 157.354 47.6595C157.581 48.0567 157.69 48.5023 157.69 49.0352C157.69 49.0352 157.542 49.9361 157.265 50.2946C156.988 50.6531 156.552 50.9728 155.938 51.2537M178.308 60.6608C178.239 60.0601 178.209 59.5079 178.209 59.0041V58.8685L178.269 54.8092V54.6445C178.269 53.5401 178.09 52.581 177.724 51.7866C177.358 50.9825 176.794 50.3527 176.042 49.9071C174.814 49.1902 172.894 48.8511 170.231 48.8123C170.122 48.8123 170.014 48.8123 169.905 48.8123C167.678 48.8123 166.005 49.1514 164.876 49.9071C164.015 50.498 163.392 51.4765 162.966 52.8038L162.818 53.2688L167.252 53.327L167.321 53.0363C167.44 52.5422 167.598 52.1547 167.777 51.8737C167.955 51.5928 168.153 51.4184 168.38 51.3118C168.855 51.089 169.568 50.9631 170.489 50.9631H170.657C171.399 50.9728 172.013 51.0696 172.498 51.2537C172.993 51.4281 173.359 51.68 173.626 52.0094C173.993 52.426 174.171 52.9685 174.181 53.7048V53.7726C174.181 53.8695 174.161 54.0342 174.141 54.257C174.141 54.3151 174.121 54.3636 174.111 54.412C173.329 54.4023 172.617 54.3926 171.973 54.3926C170.716 54.3926 169.726 54.412 169.004 54.4508C166.886 54.5961 165.253 54.9642 164.104 55.5649C163.402 55.9137 162.837 56.3787 162.451 56.96C162.075 57.5412 161.877 58.2194 161.867 58.9751V59.0332C161.867 59.6435 162.026 60.2151 162.352 60.7286C162.679 61.2421 163.144 61.678 163.758 62.0656C164.985 62.8309 166.45 63.2281 168.123 63.2475C168.232 63.2475 168.331 63.2475 168.44 63.2475C170.014 63.2475 171.281 63.0828 172.26 62.7147C172.933 62.4531 173.547 62.0656 174.111 61.5424L174.478 63.2572H178.704L178.625 62.8212C178.486 62.0946 178.377 61.3099 178.308 60.6414V60.6608ZM172.785 60.1086C172.171 60.6124 171.191 60.8933 169.806 60.8933H169.647C168.568 60.8739 167.727 60.7092 167.163 60.438C166.807 60.2636 166.559 60.0408 166.401 59.7889C166.242 59.537 166.153 59.2367 166.153 58.8588V58.8201C166.163 58.3647 166.331 58.0256 166.708 57.6963C167.084 57.3669 167.707 57.0859 168.559 56.8825C169.598 56.6306 170.904 56.4949 172.478 56.4949C172.617 56.4949 172.765 56.4949 172.914 56.4949C173.3 56.4949 173.607 56.5143 173.814 56.524C173.884 56.524 173.953 56.524 174.012 56.5337C173.933 58.3647 173.478 59.5467 172.775 60.1086H172.785ZM190.988 48.9577H190.849C189.632 48.9577 188.503 49.1902 187.464 49.6455C186.86 49.8974 186.167 50.3334 185.375 50.934L185.405 49.3549L181.02 49.2967V63.2766H185.247V55.7199C185.267 54.5283 185.752 53.5885 186.633 52.7844C187.484 52.0191 188.592 51.6412 190.047 51.6315H190.156C191.146 51.6509 191.978 51.9319 192.69 52.4938C193.393 53.046 193.65 53.6467 193.65 54.3829V63.2669H197.867V55.4196V55.3324C197.867 53.7242 197.332 52.2613 196.095 51.0115C194.749 49.6746 193.017 48.977 190.988 48.9577ZM216.762 52.5035H216.743L216.723 52.4938C214.328 51.9028 211.942 51.3118 209.576 50.7209C208.349 50.3818 207.438 49.9846 206.864 49.5389C206.29 49.0933 206.063 48.6573 206.063 48.1535V48.1342C206.073 47.611 206.231 47.1944 206.538 46.8263C206.845 46.4678 207.32 46.1578 208.003 45.9156C208.864 45.5862 209.953 45.4215 211.269 45.4215C211.348 45.4215 211.417 45.4215 211.497 45.4215C212.981 45.4409 214.07 45.7897 214.832 46.4C215.436 46.8941 215.684 47.3591 215.684 47.8726V48.2601L220.197 48.3279V47.9017C220.197 46.5453 219.425 45.344 218.029 44.3558C216.347 43.1933 214.1 42.612 211.319 42.5732C211.22 42.5732 211.121 42.5732 211.022 42.5732C208.418 42.5732 206.201 43.077 204.4 44.1136C203.469 44.6465 202.747 45.2471 202.252 45.9253C201.757 46.5938 201.49 47.3494 201.48 48.1535V48.2214C201.48 49.258 201.836 50.188 202.539 50.9631C203.242 51.7381 204.261 52.3485 205.578 52.8426H205.597L205.617 52.8522C208.003 53.4723 210.408 54.0923 212.823 54.7123C214.07 55.0708 214.981 55.5068 215.565 55.9815C216.139 56.4562 216.376 56.9309 216.386 57.4831V57.5122C216.386 57.9869 216.228 58.3938 215.921 58.7619C215.614 59.1301 215.139 59.4595 214.466 59.7404C213.466 60.1667 212.289 60.3798 210.952 60.3798H210.774C209.19 60.3508 207.894 59.9826 206.874 59.2851C206.36 58.9363 205.993 58.5779 205.756 58.2291C205.518 57.8803 205.409 57.5316 205.409 57.1731V57.1537L205.419 56.7856L200.906 56.7178V57.0762V57.1634C200.906 58.0838 201.153 58.9266 201.658 59.6532C202.163 60.3798 202.905 60.9902 203.855 61.4843C205.667 62.4143 208.013 62.8794 210.903 62.9181C211.031 62.9181 211.16 62.9181 211.289 62.9181C214.07 62.9181 216.327 62.4725 218.039 61.5424C218.94 61.058 219.643 60.438 220.118 59.692C220.593 58.946 220.831 58.0838 220.85 57.1247V57.0568C220.85 56.0396 220.494 55.1192 219.801 54.3636C219.108 53.5982 218.099 52.9879 216.792 52.5035H216.762ZM228.234 45.3343L224.087 46.4581L224.048 48.9383L220.593 48.8898L220.553 51.3506L224.008 51.399L223.899 58.355C223.899 58.4325 223.899 58.5197 223.899 58.5972C223.899 59.4789 223.978 60.2248 224.147 60.8546C224.315 61.4746 224.562 61.9784 224.938 62.3465C225.245 62.6178 225.631 62.8018 226.106 62.9181C226.581 63.0344 227.146 63.0925 227.809 63.1022C228.046 63.1022 228.413 63.1119 228.908 63.1215L232.016 62.9956V62.6468L232.055 60.1279L231.63 60.1764C231.164 60.2248 230.541 60.3798 229.838 60.4477C229.699 60.4573 229.581 60.467 229.462 60.467C228.858 60.467 228.462 60.3217 228.274 60.2055C228.175 60.1473 228.116 60.0795 228.076 60.002C228.036 59.9245 228.007 59.8082 228.007 59.6629V59.6435L228.126 51.4669L232.194 51.525L232.223 49.0642L228.155 49.0061L228.205 45.3343H228.234ZM250.149 60.7286C250.08 60.1376 250.05 59.5951 250.05 59.0913V58.9363L250.109 54.877V54.7123C250.109 53.6079 249.931 52.6488 249.565 51.8544C249.199 51.06 248.635 50.4205 247.892 49.9749C246.665 49.258 244.745 48.9286 242.082 48.8801C241.973 48.8801 241.854 48.8801 241.745 48.8801C239.528 48.8801 237.855 49.2192 236.717 49.9652C235.856 50.5562 235.232 51.5347 234.807 52.8619L234.658 53.327L239.103 53.3948L239.172 53.1041C239.291 52.61 239.449 52.2225 239.627 51.9416C239.805 51.6606 240.003 51.4862 240.231 51.3893C240.716 51.1665 241.429 51.0309 242.369 51.0406H242.517C243.26 51.0503 243.874 51.1568 244.368 51.3312C244.863 51.5056 245.23 51.7575 245.507 52.0869C245.863 52.5035 246.051 53.046 246.051 53.7726V53.8501C246.051 53.947 246.031 54.1117 246.002 54.3248C246.002 54.3926 245.982 54.4314 245.982 54.4895C245.19 54.4798 244.458 54.4701 243.804 54.4701C242.567 54.4701 241.597 54.4895 240.874 54.5283C238.756 54.6833 237.123 55.0417 235.975 55.6424C235.272 55.9912 234.708 56.4562 234.322 57.0375C233.946 57.6188 233.748 58.2969 233.738 59.0526V59.101C233.738 59.7114 233.896 60.2926 234.223 60.7964C234.549 61.3099 235.025 61.7555 235.628 62.1334C236.856 62.9084 238.321 63.2959 239.993 63.3153C240.102 63.3153 240.201 63.3153 240.31 63.3153C241.884 63.3153 243.151 63.1409 244.131 62.7825C244.804 62.5209 245.428 62.1237 245.992 61.6102L246.348 63.2572H250.575L250.495 62.8212C250.357 62.0849 250.248 61.368 250.179 60.7092L250.149 60.7286ZM244.626 60.1764C244.022 60.6705 243.042 60.9611 241.666 60.9611H241.498C240.409 60.9417 239.578 60.777 239.014 60.5058C238.657 60.3217 238.41 60.1086 238.251 59.847C238.093 59.5951 238.004 59.2851 238.004 58.9073V58.8782V58.8685C238.014 58.4229 238.182 58.0838 238.558 57.7544C238.934 57.425 239.558 57.144 240.409 56.9406C241.448 56.6887 242.755 56.5531 244.329 56.5531C244.477 56.5531 244.626 56.5531 244.774 56.5531C245.16 56.5531 245.467 56.5724 245.675 56.5821C245.744 56.5821 245.814 56.5821 245.873 56.5918C245.794 58.4229 245.338 59.6048 244.636 60.1667L244.626 60.1764ZM262.136 49.1611H261.987C260.789 49.1611 259.74 49.3742 258.869 49.8199C258.246 50.1396 257.424 50.5562 256.89 51.0696V49.3839H252.861V63.2669H256.89V55.8846C256.899 55.1386 257.206 54.5283 257.424 54.0245C257.642 53.5304 257.959 53.1526 258.374 52.8619C259.037 52.3969 260.106 52.1353 261.581 52.1353H261.769L263.304 52.1547V49.1708L262.136 49.1514V49.1611Z" fill="#262D69"/>
</g>
<defs>
<clipPath id="clip0_484_19225">
<rect width="192" height="36" fill="white" transform="translate(72 42)"/>
</clipPath>
</defs>
</svg>
