<svg width="335" height="120" viewBox="0 0 335 120" fill="none" xmlns="http://www.w3.org/2000/svg">
<mask id="mask0_484_19224" style="mask-type:alpha" maskUnits="userSpaceOnUse" x="0" y="0" width="335" height="120">
<rect width="335" height="120" rx="12" fill="none"/>
</mask>
<g mask="url(#mask0_484_19224)">
<rect width="335" height="120" rx="12" fill="#ECF1F7"/>
</g>
<g clip-path="url(#clip0_484_19224)">
<path d="M149.8 53.4404H151.988C152.131 53.4404 152.249 53.3364 152.249 53.2093V49.5417C152.249 49.4146 152.131 49.3105 151.988 49.3105H148.914C145.363 49.3105 143.477 50.3199 142.4 52.4658L135.718 67.0129C135.31 67.8797 134.73 68.2919 133.575 68.2919V49.5417C133.575 49.4146 133.461 49.3105 133.318 49.3105H128.408C128.265 49.3105 128.15 49.4146 128.15 49.5417V72.0096C128.15 72.233 128.354 72.4141 128.608 72.4141H134.114C137.669 72.4141 139.289 71.4047 140.367 69.2589L146.963 54.8967C147.494 53.8796 148.253 53.4327 149.804 53.4327L149.8 53.4404Z" fill="#D7000F"/>
<path d="M89.772 60.8701C91.7434 60.142 93.3761 58.5085 93.3761 55.8002C93.3761 51.7628 89.4781 49.3164 84.78 49.3164H70.2612C70.1184 49.3164 70 49.4204 70 49.5476V53.2152C70 53.3423 70.1184 53.4463 70.2612 53.4463H83.7718C85.9514 53.4463 87.429 54.629 87.429 56.0853C87.429 57.5415 85.9555 58.7281 83.7718 58.7281H75.7471V56.0044C75.7471 55.8772 75.6287 55.7732 75.4859 55.7732H70.2612C70.1184 55.7732 70 55.8772 70 56.0044V72.1965C70 72.3236 70.1184 72.4238 70.2612 72.4238H84.5718C89.9189 72.4238 93.7517 70.2086 93.7517 65.6896C93.7517 63.4706 92.2781 61.6329 89.776 60.8701H89.772ZM84.0494 68.3941H75.7471V62.9774H84.0534C86.2902 62.9774 87.8046 64.191 87.8046 65.6857C87.8046 67.1805 86.2902 68.3941 84.0534 68.3941H84.0494Z" fill="#D7000F"/>
<path d="M154.886 72.1538L146.465 62.588C146.44 62.5572 146.403 62.5649 146.391 62.5957L144.126 67.5192C144.113 67.55 144.113 67.5847 144.134 67.6117L147.816 71.992C148.077 72.3002 148.371 72.4157 148.812 72.4157H154.747C154.918 72.4157 154.992 72.2694 154.89 72.1499L154.886 72.1538Z" fill="#D7000F"/>
<path d="M102.971 55.7656H98.0521C97.9092 55.7656 97.7949 55.8696 97.7949 55.9968V72.1889C97.7949 72.316 97.9092 72.4162 98.0521 72.4162H102.971C103.114 72.4162 103.232 72.3122 103.232 72.1889V55.9968C103.232 55.8696 103.114 55.7656 102.971 55.7656Z" fill="#D7000F"/>
<path d="M123.198 49.3144H118.283C118.14 49.3144 118.026 49.4184 118.026 49.5456V68.2957C116.875 68.2957 116.291 67.8835 115.883 67.0167L109.201 52.4696C108.124 50.3238 106.238 49.3144 102.687 49.3144H98.054C97.9112 49.3144 97.7969 49.4184 97.7969 49.5456V53.2131C97.7969 53.3403 97.9112 53.4443 98.054 53.4443H101.797C103.348 53.4443 104.107 53.8912 104.638 54.9083L111.234 69.2704C112.307 71.4163 113.932 72.4256 117.487 72.4256H122.993C123.247 72.4256 123.451 72.2446 123.451 72.0211V49.5417C123.451 49.4146 123.336 49.3105 123.193 49.3105L123.198 49.3144Z" fill="#D7000F"/>
<path d="M181.453 58.5083C181.861 57.7533 182.106 56.5628 182.159 55.2799V49.3047H164.779V51.9591H178.355V55.2761C178.355 56.1429 178.236 57.8457 178.061 58.5083H161.02V61.1589H186.171V58.5083H181.449H181.453ZM165.375 70.0081C165.375 70.663 165.587 71.2717 166.105 71.7109C166.62 72.154 167.424 72.4159 168.571 72.4159H179.077C180.22 72.4159 181.024 72.154 181.538 71.7109C182.057 71.2679 182.269 70.6592 182.269 70.0081V63.4742H165.383V70.0081H165.375ZM169.224 66.0593H178.379V69.3339C178.379 69.5843 178.151 69.7885 177.869 69.7885H169.742C169.456 69.7885 169.228 69.5843 169.228 69.3339V66.0593H169.224Z" fill="#6F634F"/>
<path d="M235.229 49.793H217.845V52.5514H231.306V61.3351C231.306 62.3522 231.147 64.421 230.878 65.7039H214.094V68.4584H239.245V65.7039H234.294C235.033 64.2322 235.233 62.0286 235.233 59.8442V49.793H235.229Z" fill="#6F634F"/>
<path d="M195.684 56.8646C197.007 57.8008 198.823 58.3748 200.827 58.3748C202.831 58.3748 204.652 57.8008 205.97 56.8646C207.293 55.9285 208.117 54.6263 208.117 53.1893C208.117 51.7524 207.293 50.4463 205.97 49.5102C204.652 48.574 202.831 48 200.827 48C198.823 48 197.007 48.574 195.684 49.5102C194.366 50.4463 193.537 51.7485 193.537 53.1893C193.537 54.6302 194.362 55.9285 195.684 56.8646ZM198.288 51.3055C198.933 50.82 199.831 50.5157 200.823 50.5157C201.815 50.5157 202.717 50.82 203.362 51.3055C204.011 51.7909 204.403 52.4574 204.403 53.1893C204.403 53.9213 204.011 54.5839 203.362 55.0694C202.717 55.5548 201.815 55.8591 200.823 55.8591C199.831 55.8591 198.933 55.5586 198.288 55.0694C197.643 54.5839 197.247 53.9213 197.247 53.1893C197.247 52.4574 197.643 51.7909 198.288 51.3055ZM213.252 61.8614V59.2108H188.402V61.8614H195.031V65.0551C194.186 65.8564 193.684 66.8542 193.684 67.9445C193.684 69.3275 194.492 70.5757 195.786 71.4734C197.08 72.371 198.864 72.9219 200.827 72.9219C202.795 72.9219 204.574 72.371 205.868 71.4734C207.162 70.5757 207.974 69.3314 207.974 67.9445C207.974 66.8542 207.472 65.8603 206.627 65.0551V61.8614H213.252ZM198.803 61.8614H202.844V63.2328C202.203 63.1019 201.525 63.0364 200.823 63.0364C200.121 63.0364 199.443 63.1057 198.803 63.2328V61.8614ZM203.26 69.7474C202.639 70.229 201.778 70.5257 200.823 70.5257C199.868 70.5257 199.011 70.229 198.39 69.7474C197.77 69.2697 197.39 68.611 197.39 67.8867C197.39 67.1624 197.77 66.5036 198.39 66.0259C199.011 65.5482 199.872 65.2477 200.823 65.2477C201.774 65.2477 202.639 65.5482 203.26 66.0259C203.88 66.5075 204.26 67.1624 204.26 67.8867C204.26 68.611 203.88 69.2659 203.26 69.7474Z" fill="#6F634F"/>
<path d="M265.285 60.5098H240.664V62.8868H251.089V65.0634H254.864V62.8868H265.285V60.5098Z" fill="#6F634F"/>
<path d="M258.194 72.4191C259.341 72.4191 260.145 72.1571 260.664 71.7179C261.182 71.2749 261.395 70.6662 261.395 70.0112V64.375H257.815V65.8428H248.14V64.375H244.561V70.0112C244.561 70.67 244.773 71.2787 245.287 71.7179C245.806 72.1609 246.606 72.4229 247.753 72.4191H258.19H258.194ZM248.683 69.9766C248.398 69.9766 248.169 69.7724 248.169 69.522V68.1158H257.79V69.522C257.79 69.7685 257.557 69.9766 257.276 69.9766H248.683Z" fill="#6F634F"/>
<path d="M249.04 56.8941C248.751 56.8941 248.514 56.6861 248.514 56.428V55.4417H261.066V49.3047H244.562V51.647H257.143V53.0917H244.562V56.9712C244.562 57.6377 244.779 58.2579 245.305 58.7087C245.832 59.1594 246.648 59.4252 247.82 59.4252H261.396V56.8903H249.044L249.04 56.8941Z" fill="#6F634F"/>
</g>
<defs>
<clipPath id="clip0_484_19224">
<rect width="196" height="25" fill="white" transform="translate(70 48)"/>
</clipPath>
</defs>
</svg>
