<svg width="335" height="120" viewBox="0 0 335 120" fill="none" xmlns="http://www.w3.org/2000/svg">
<mask id="mask0_484_19227" style="mask-type:alpha" maskUnits="userSpaceOnUse" x="0" y="0" width="335" height="120">
<rect width="335" height="120" rx="12" fill="none"/>
</mask>
<g mask="url(#mask0_484_19227)">
<rect width="335" height="120" rx="12" fill="#ECF1F7"/>
</g>
<g clip-path="url(#clip0_484_19227)">
<path d="M136.053 82.1716H121.088V80.298H136.053V82.1716ZM134.47 79.4149C131.646 79.0185 129.631 77.8116 128.569 76.2082C127.526 77.8116 125.493 79.0185 122.688 79.4149L121.825 77.5592C125.53 77.0914 127.347 75.2 127.347 73.4526V72.9658H129.794V73.4526C129.794 75.1821 131.61 77.0914 135.316 77.5592L134.471 79.4149H134.47ZM134.29 86.2782C134.29 88.2053 132.114 89.304 128.535 89.304C124.956 89.304 122.797 88.2053 122.797 86.2782C122.797 84.351 124.956 83.2702 128.535 83.2702C132.114 83.2702 134.29 84.351 134.29 86.2782ZM131.88 86.2782C131.88 85.4318 130.747 85.0534 128.534 85.0534C126.321 85.0534 125.188 85.4318 125.188 86.2782C125.188 87.1245 126.321 87.503 128.534 87.503C130.747 87.503 131.88 87.1245 131.88 86.2782Z" fill="black"/>
<path d="M152.266 84.1176H145.898V89.2872H143.523V84.1176H137.264V82.2262H152.266V84.1176ZM150.485 80.6586H138.973V73.3096H141.329V75.201H148.146V73.3096H150.484V80.6586H150.485ZM148.146 77.0566H141.329V78.7683H148.146V77.0566Z" fill="black"/>
<path d="M159.537 76.3711C159.537 79.3612 160.706 82.3691 163.368 83.6844L161.928 85.5579C160.201 84.6748 159.033 83.0725 158.349 81.0907C157.63 83.1987 156.389 84.945 154.518 85.8639L153.098 83.9367C155.885 82.6215 157.145 79.4516 157.145 76.3711V73.9572H159.538V76.3711H159.537ZM168.818 81.036H166.407V89.2682H164.033V72.6787H166.407V79.0552H168.818V81.0371V81.036Z" fill="black"/>
<path d="M184.633 81.2176V83.109H169.668V81.2176H175.945V79.8845C173.032 79.6143 171.161 78.3716 171.161 76.5159C171.161 74.409 173.554 73.0938 177.151 73.0938C180.747 73.0938 183.158 74.409 183.158 76.5159C183.158 78.3716 181.269 79.6322 178.319 79.8845V81.2176H184.633ZM173.858 87.0895H182.96V88.9809H171.483V84.172H173.857V87.0906L173.858 87.0895ZM177.151 78.0467C179.38 78.0467 180.712 77.5421 180.712 76.5159C180.712 75.4898 179.38 74.9673 177.151 74.9673C174.921 74.9673 173.607 75.5077 173.607 76.5159C173.607 77.5242 174.938 78.0467 177.151 78.0467Z" fill="black"/>
<path d="M188.341 83.5039C190.715 83.486 192.676 83.3598 194.835 82.9813L195.051 84.9085C192.569 85.3585 190.285 85.4667 187.407 85.4667H186.004V78.6224H191.257V75.975H185.986V74.0836H193.595V80.4959H188.342V83.5039H188.341ZM200.698 80.8923H198.324V89.3042H195.95V72.6611H198.324V78.9294H200.698V80.8923Z" fill="black"/>
<path d="M207.079 82.1534C204.542 82.1534 202.564 80.3703 202.564 77.9563C202.564 75.5424 204.543 73.7414 207.079 73.7414C209.614 73.7414 211.576 75.5067 211.576 77.9563C211.576 80.406 209.614 82.1534 207.079 82.1534ZM207.079 80.099C208.32 80.099 209.255 79.2884 209.255 77.9553C209.255 76.6222 208.32 75.7937 207.079 75.7937C205.838 75.7937 204.885 76.5864 204.885 77.9553C204.885 79.3242 205.856 80.099 207.079 80.099ZM216.505 87.0885V88.9799H205.065V83.4318H207.439V87.0885H216.505ZM216.091 84.602H213.699V72.6953H216.091V84.602Z" fill="black"/>
<path d="M224.494 49.6837C214.922 50.4376 209.953 50.0864 202.734 50.0244C202.316 50.0212 201.511 50.077 201.3 50.4502C200.656 51.5888 199.85 53.1238 198.221 55.3212C202.35 56.3631 205.294 57.5364 209.533 57.7235C217.688 58.0831 226.902 49.4945 224.494 49.6837Z" fill="black"/>
<path d="M192.846 61.835C192.718 61.754 192.655 61.5637 192.713 61.3944C192.728 61.3534 192.757 61.304 192.786 61.2767C193.983 60.1738 195.002 59.1403 195.989 58.0143C196.196 57.803 196.461 57.7041 196.725 57.7409C199.809 58.7156 202.713 59.5451 205.799 60.6721C206.436 60.9056 206.11 61.3629 205.947 61.4481C199.995 64.559 195.375 63.4309 192.847 61.8339" fill="black"/>
<path d="M234.864 36.7484C234.819 36.6307 234.702 36.5581 234.577 36.5708H234.53C231.41 36.7978 197.353 40.6543 197.01 40.6932C196.429 40.8319 196.06 41.2378 195.789 41.7697C195.067 46.033 193.544 50.1502 191.44 53.9256C189.637 57.1617 186.768 60.8205 183.617 63.9535C185.529 63.0062 188.255 61.1716 189.819 59.7186C193.646 56.4478 196.782 52.4442 199.043 47.9423C199.322 47.1937 200.089 46.7448 200.876 46.8678H203.051C205.53 46.8678 207.722 46.9088 209.934 46.9572L210.557 46.9719C212.348 47.0108 214.043 47.0476 215.575 47.0476C222.669 47.0476 226.943 46.2065 231.982 41.5195C233.576 40.0382 235.14 37.4518 234.862 36.7474" fill="black"/>
<path d="M111.403 49.6837C120.975 50.4376 125.944 50.0864 133.163 50.0244C133.581 50.0212 134.386 50.077 134.597 50.4502C135.241 51.5888 136.047 53.1238 137.677 55.3212C133.547 56.3631 130.603 57.5364 126.364 57.7235C118.21 58.0831 108.996 49.4945 111.403 49.6837Z" fill="black"/>
<path d="M143.051 61.835C143.179 61.754 143.242 61.5637 143.184 61.3944C143.169 61.3534 143.14 61.304 143.111 61.2767C141.914 60.1738 140.895 59.1403 139.908 58.0143C139.701 57.803 139.436 57.7041 139.172 57.7409C136.088 58.7156 133.184 59.5451 130.098 60.6721C129.461 60.9056 129.788 61.3629 129.95 61.4481C135.902 64.559 140.522 63.4309 143.05 61.8339" fill="black"/>
<path d="M101.032 36.7484C101.077 36.6307 101.195 36.5581 101.32 36.5708H101.365C104.485 36.7978 138.543 40.6543 138.886 40.6932C139.467 40.8319 139.835 41.2378 140.107 41.7697C140.828 46.033 142.352 50.1502 144.456 53.9256C146.258 57.1617 149.128 60.8205 152.278 63.9535C150.367 63.0062 147.641 61.1716 146.077 59.7186C142.25 56.4478 139.114 52.4442 136.852 47.9423C136.573 47.1937 135.807 46.7448 135.018 46.8678H132.844C130.364 46.8678 128.173 46.9088 125.961 46.9572L125.337 46.9719C123.546 47.0108 121.852 47.0476 120.32 47.0476C113.226 47.0476 108.952 46.2065 103.912 41.5195C102.318 40.0392 100.754 37.4518 101.032 36.7484Z" fill="black"/>
<path d="M190.738 37.7781C184.198 34.459 177.283 31.9389 170.143 30.2724C169.375 30.0895 168.589 29.9991 167.801 30.0001C167.029 29.9959 166.259 30.0843 165.509 30.2619C158.453 31.9473 151.624 34.4705 145.165 37.7771C144.787 37.9937 144.567 38.409 144.601 38.8442C145.014 43.1369 146.303 47.2993 148.39 51.0716C152.572 58.5037 158.942 64.4628 166.63 68.1352C167.042 68.3455 167.496 68.4548 167.957 68.4548C168.412 68.4496 168.859 68.3392 169.264 68.131C176.952 64.4586 183.322 58.4995 187.504 51.0674C189.593 47.2972 190.886 43.1369 191.3 38.8453C191.336 38.41 191.115 37.9937 190.736 37.7781M177.807 45.4163H174.306V44.2777C174.306 44.2398 174.286 44.2051 174.253 44.1862L168.073 40.6084L168.02 40.5779C167.987 40.559 167.948 40.559 167.915 40.5779L161.668 44.1778C161.636 44.1967 161.616 44.2314 161.616 44.2693V47.1984C161.616 47.2562 161.663 47.3035 161.721 47.3035H177.807V55.1425L170.333 59.4667L170.28 59.4972C170.248 59.5161 170.228 59.5508 170.228 59.5876V62.134L158.138 55.1383V51.9127H168.002V54.3487H164.151C164.104 54.3487 164.062 54.3802 164.049 54.4265C164.037 54.4727 164.057 54.5211 164.099 54.5442L167.916 56.7489C167.949 56.7679 167.989 56.7679 168.021 56.7489L174.263 53.1501C174.295 53.1312 174.315 53.0965 174.315 53.0587V50.1285C174.315 50.0707 174.268 50.0234 174.21 50.0234H158.138V42.1855L165.71 37.8223C165.743 37.8034 165.763 37.7687 165.763 37.7308V35.2401L167.989 36.5218L177.807 42.2054V45.4121V45.4163Z" fill="black"/>
</g>
<defs>
<clipPath id="clip0_484_19227">
<rect width="134" height="60" fill="white" transform="translate(101 30)"/>
</clipPath>
</defs>
</svg>
