<svg width="335" height="120" viewBox="0 0 335 120" fill="none" xmlns="http://www.w3.org/2000/svg">
<mask id="mask0_526_22443" style="mask-type:alpha" maskUnits="userSpaceOnUse" x="0" y="0" width="335" height="120">
<rect width="335" height="120" rx="12" fill="none"/>
</mask>
<g mask="url(#mask0_526_22443)">
<rect width="335" height="120" rx="12" fill="#ECF1F7"/>
</g>
<g clip-path="url(#clip0_526_22443)">
<path d="M96.0647 62.314C99.992 63.2096 102.489 65.2654 102.489 68.9095C102.489 72.1609 100.033 75.5931 93.4131 75.5931H76.5467V70.4535H92.7388C94.6888 70.4535 95.354 69.7697 95.354 69.0197C95.354 68.0492 94.7025 67.5462 91.7957 66.8889L83.1666 64.961C78.2279 63.7478 76 61.7228 76 58.0832C76 55.3127 78.0593 51.7524 84.0232 51.7524H101.29V56.8876H85.3125C84.055 56.8876 83.1302 57.3553 83.1302 58.1626C83.1302 58.8817 83.5402 59.4508 85.5266 59.9449L96.0602 62.314H96.0647Z" fill="#002F7B"/>
<path d="M122.034 69.8143C124.704 73.5378 128.745 75.5936 135.023 75.5936C137.465 75.5936 137.93 74.4157 137.93 73.2819V51.7661H132.062V69.8187C127.98 69.8187 124.845 66.0953 124.845 62.063V51.7573H119.227V62.063C119.227 66.0997 116.088 69.8187 112.006 69.8187V51.7661H106.143V73.2863C106.143 74.4201 106.612 75.598 109.049 75.598C115.323 75.598 119.369 73.5422 122.039 69.8187L122.034 69.8143Z" fill="#002F7B"/>
<path d="M149.479 51.7661H143.096V75.5848H149.479V51.7661Z" fill="#002F7B"/>
<path d="M233.174 54.0602V75.5803H239.557V57.2542C245.885 57.2542 252.833 62.6718 252.833 72.3642V75.5848H259.225V51.7661H252.842V58.0704C250.828 55.0219 247.206 51.7661 236.491 51.7661C234.017 51.7661 233.174 52.9617 233.174 54.0646V54.0602Z" fill="#002F7B"/>
<path d="M228.342 56.9925V51.7603H204.76V72.3893C204.769 74.5201 205.726 75.5745 207.999 75.5745H228.501V70.3334H211.147V66.0982H227.49V60.8571H211.147V56.9837H228.346L228.342 56.9925Z" fill="#002F7B"/>
<path d="M183.958 70.3955L197.854 58.784C199.494 57.3943 200.251 56.3222 200.251 54.9326C200.251 52.9032 198.67 51.8047 195.982 51.8047H176.614V57.0016H190.76L177.512 68.2999C174.085 71.0661 175.12 75.5351 180.5 75.5351H200.319V70.3999H183.954L183.958 70.3955Z" fill="#002F7B"/>
<path d="M168.883 70.5196C168.113 70.9431 166.322 71.7945 164.463 71.7945C163.42 71.7945 162.623 71.071 163.329 68.7946C163.502 68.2123 166.687 57.9331 167.548 55.1669H173.106L174.136 51.8229H168.619L171.152 44.001H168.345C164.791 48.5053 160.427 51.1876 155.834 52.189L154.777 55.1669H159.789L155.566 68.5828C154.331 72.5622 154.878 76.0562 160.199 76.0562C162.846 76.0562 165.338 75.443 167.73 74.243L168.878 70.5152L168.883 70.5196Z" fill="#E8380D"/>
</g>
<defs>
<clipPath id="clip0_526_22443">
<rect width="184" height="33" fill="white" transform="translate(76 44)"/>
</clipPath>
</defs>
</svg>
