<svg width="335" height="120" viewBox="0 0 335 120" fill="none" xmlns="http://www.w3.org/2000/svg">
<mask id="mask0_526_24942" style="mask-type:alpha" maskUnits="userSpaceOnUse" x="0" y="0" width="335" height="120">
<rect width="335" height="120" rx="12" fill="white"/>
</mask>
<g mask="url(#mask0_526_24942)">
<rect width="335" height="120" rx="12" fill="none"/>
<path d="M182.825 48.1729C178.142 48.1729 174.452 52.2735 173.577 55.7988V48.9295H162.699V51.2325H166.042V76.6495H173.577V63.4017C173.577 58.2943 176.605 50.9664 180.863 51.1035C183.384 51.1843 184.816 52.6931 184.816 56.6875V76.6495H192.35V57.4518C192.35 49.9375 187.099 48.1729 182.825 48.1729Z" fill="black"/>
<path d="M113.599 42H109.675L94.5343 57.9835V42H87V76.6506H94.5343V61.147L107.959 76.6506H117.607L100.027 56.7082L113.599 42Z" fill="black"/>
<path d="M116.934 44.3028H120.603V76.65H128.138V42H116.934V44.3028Z" fill="black"/>
<path d="M195.773 48.9302V51.2332H211.077L195.666 76.6502H220.669V74.3477H205.414L220.825 48.9302H195.773Z" fill="black"/>
<path d="M160.092 60.6995C160.092 59.4502 159.465 48.3032 147.337 48.3032C138.535 48.3032 133.217 53.2763 133.217 62.9228C133.217 72.5693 140.12 77.6437 147.658 77.6437C154.272 77.6437 158.719 74.0772 160.05 68.1614L157.644 68.116C156.592 72.5319 152.977 75.306 148.727 75.3337C142.986 75.1468 140.88 70.3878 140.88 62.8234C140.88 62.0919 140.892 61.3835 140.917 60.6995H160.092H160.092ZM146.858 49.8641C150.914 49.8616 152.576 53.1184 152.803 58.3964H140.914C141.142 53.0459 143.078 49.8663 146.857 49.8641" fill="black"/>
<path d="M237.044 75.3318C231.304 75.1448 229.198 70.3858 229.198 62.8214C229.198 62.09 229.21 61.3816 229.235 60.6975H248.41C248.41 59.4482 247.784 48.3013 235.656 48.3013C226.853 48.3013 221.535 53.2743 221.535 62.9208C221.535 72.5673 228.438 77.6417 235.975 77.6417C242.59 77.6417 247.038 74.0753 248.368 68.1595L245.962 68.1141C244.91 72.5299 241.295 75.3041 237.045 75.3318M235.176 49.8624C239.232 49.8599 240.894 53.1168 241.121 58.3947H229.232C229.461 53.0442 231.396 49.8646 235.176 49.8624" fill="black"/>
</g>
</svg>
