<svg width="335" height="120" viewBox="0 0 335 120" fill="none" xmlns="http://www.w3.org/2000/svg">
<mask id="mask0_484_8575" style="mask-type:alpha" maskUnits="userSpaceOnUse" x="0" y="0" width="335" height="120">
<rect width="335" height="120" rx="12" fill="none"/>
</mask>
<g mask="url(#mask0_484_8575)">
<rect width="335" height="120" rx="12" fill="#ECF1F7"/>
</g>
<g clip-path="url(#clip0_484_8575)">
<path d="M238.964 69.5842L228.916 69.6051L224.458 74.3233L225.572 78.3257L223.668 78.3296L223.004 75.7249L222.508 76.2783L222.071 78.3313L220.152 78.3353L221.777 70.9749L223.696 70.9739L223.109 73.5196L226.814 69.6092L220.556 69.6223C220.132 69.6233 219.75 69.9282 219.671 70.3064L217.848 79.0256C217.771 79.4027 218.024 79.7089 218.414 79.7081L236.988 79.6694C237.381 79.6686 237.761 79.3612 237.841 78.9839L239.497 70.2651C239.576 69.8869 239.322 69.5832 238.964 69.584L238.964 69.5842ZM230.841 76.7816C230.2 78.5711 227.871 78.5002 227.871 78.5002C225.223 78.5057 225.707 76.5622 225.707 76.5622L226.416 73.1872C226.904 71.3995 229.386 71.2915 229.386 71.2915C231.969 71.2349 231.615 73.1009 231.615 73.1009L231.432 73.9703L229.616 73.974L229.799 73.1046C229.879 72.542 229.123 72.5436 229.123 72.5436C228.29 72.6097 228.269 73.1835 228.269 73.1835L227.539 76.6614C227.371 77.2739 228.143 77.1968 228.143 77.1968C228.891 77.2467 229.068 76.5814 229.068 76.5814L229.233 75.7891L231.05 75.7854L230.841 76.782L230.841 76.7816ZM237.147 73.0893L236.965 73.9587L235.148 73.9625L235.331 73.0931C235.411 72.5305 234.655 72.5321 234.655 72.5321C233.822 72.5982 233.801 73.1719 233.801 73.1719L233.07 76.6499C232.904 77.2624 233.676 77.1853 233.676 77.1853C234.423 77.2352 234.6 76.5699 234.6 76.5699L234.766 75.7776L236.582 75.7738L236.373 76.7704C235.732 78.5599 233.403 78.4891 233.403 78.4891C230.754 78.4945 231.237 76.5511 231.237 76.5511L231.947 73.176C232.436 71.3883 234.918 71.2803 234.918 71.2803C237.501 71.2238 237.147 73.0897 237.147 73.0897V73.0893Z" fill="#000B8C"/>
<path d="M228.917 69.6038L230.301 68.1421L228.195 68.1466L226.816 69.6095L228.917 69.6038Z" fill="#E1251B"/>
<path d="M242.757 76.1975L247.566 76.1875L247.567 76.6045L242.756 76.6145L242.76 78.2811C242.761 78.899 242.987 79.1268 243.535 79.1256L248.734 79.1149L248.731 78.0531L243.919 78.0631L243.918 77.6377L248.73 77.6277L248.725 75.1162L242.754 75.1287L242.756 76.1973L242.757 76.1975Z" fill="#000B8C"/>
<path d="M256.22 70.5791L255.059 70.5814L255.071 76.1215L251.133 76.1297L251.129 74.357L253.972 74.3512L253.964 70.775L249.961 70.7834L249.963 71.9021L252.805 71.8962L252.808 73.2321L249.963 73.238L249.97 76.3946C249.972 77.0586 250.234 77.2521 250.798 77.2509L255.073 77.2421L255.077 79.1003L256.239 79.0979L256.228 74.3956L257.122 74.3936L257.12 73.2718L256.226 73.2738L256.22 70.5793L256.22 70.5791Z" fill="#000B8C"/>
<path d="M248.702 71.5811C248.701 71.0572 248.515 70.6896 247.848 70.6909L242.744 70.7015L242.747 71.8233L247.541 71.8133L247.545 73.5144L242.307 73.5253L242.309 74.6454L249.21 74.6299L249.208 73.511L248.706 73.512L248.702 71.5811H248.702Z" fill="#000B8C"/>
<path d="M264.233 77.2259L257.393 77.2397L257.395 78.3618L264.236 78.3479L264.233 77.2259Z" fill="#000B8C"/>
<path d="M260.801 70.7458L260.189 70.7472V70.7585C260.171 74.2633 258.504 74.7366 257.395 74.9372L257.397 76.0577C258.535 76.0653 260.174 75.3227 260.808 73.8598C261.446 75.32 263.088 76.0557 264.226 76.0434L264.223 74.9229C263.113 74.7271 261.444 74.2608 261.414 70.756V70.7446L260.801 70.746L260.801 70.7458Z" fill="#000B8C"/>
<path d="M208.064 77.7467V72.3838H209.298V74.2335H209.335C209.595 74.0083 209.921 73.8682 210.394 73.8682C211.097 73.8682 211.779 74.3112 211.779 75.7645V75.8659C211.779 77.4127 211.061 78.0265 209.697 78.0265C209.052 78.0265 208.493 77.9177 208.064 77.7465V77.7467ZM210.517 76.0212V75.9046C210.517 75.0806 210.278 74.8789 209.828 74.8789C209.618 74.8789 209.407 74.9489 209.298 75.0106V77.0239C209.407 77.0783 209.559 77.1174 209.77 77.1174C210.176 77.1174 210.517 76.9075 210.517 76.0212Z" fill="#000B8C"/>
<path d="M212.414 78.9605V78.09C212.544 78.1134 212.689 78.1365 212.812 78.1365C213.153 78.1365 213.342 78.0434 213.436 77.779L213.495 77.6082L212.109 73.9395H213.4L214.105 76.108H214.119L214.851 73.9395H216.012L214.569 78.0592C214.315 78.8519 213.93 79.085 213.132 79.085C212.878 79.085 212.559 79.0306 212.414 78.9605Z" fill="#000B8C"/>
<path d="M72.9613 79.7871H91.1108C92.1877 79.7871 93.0708 78.9369 93.0708 77.8983V59.9811H115.139V77.8983C115.139 78.9371 116.02 79.7871 117.097 79.7871H135.253C136.323 79.7871 137.209 78.9369 137.209 77.8983V61.8744C137.209 60.8323 136.58 59.3846 135.818 58.6473L116.526 41.5121C116.176 41.1866 115.68 40.8781 115.139 40.6391C114.484 40.3626 113.645 40.1787 113.182 40.1787H95.0305C94.4715 40.1787 93.5451 40.4227 93.0708 40.6391C92.5272 40.8781 92.0363 41.1866 91.6836 41.5121L72.3844 58.6471C71.6248 59.3844 71 60.8321 71 61.8742V77.8981C71 78.9369 71.8848 79.7869 72.9613 79.7869V79.7871Z" fill="#C6C6C6"/>
<path d="M135.251 59.9819H115.139V77.8981C115.139 78.9366 116.02 79.7872 117.097 79.7872H135.251C136.321 79.7872 137.208 78.9368 137.208 77.8981V61.8745C137.208 60.8325 136.321 59.9821 135.251 59.9821" fill="#FCBF00"/>
<path d="M72.9617 59.9821C71.8852 59.9821 71 60.8325 71 61.8745V77.8981C71 78.9366 71.8852 79.7872 72.9617 79.7872H91.1108C92.1873 79.7872 93.0706 78.9368 93.0706 77.8981V59.9819H72.9617V59.9821Z" fill="#FCBF00"/>
<path d="M113.183 40.1787H95.0305C94.4721 40.1787 93.5447 40.4227 93.0723 40.638V59.9807H115.139V40.638C114.484 40.3619 113.647 40.1787 113.183 40.1787Z" fill="#FCBF00"/>
<path d="M115.139 40.6377C115.68 40.8766 116.175 41.185 116.526 41.512L135.817 58.6455C136.579 59.3824 137.208 60.831 137.208 61.873C137.208 60.831 136.321 59.9806 135.251 59.9806H115.139V40.6377H115.139Z" fill="#F07D1A"/>
<path d="M93.0706 40.6377C92.5262 40.8766 92.0361 41.185 91.6832 41.512L72.3838 58.6453C71.6233 59.3822 71 60.8308 71 61.8728C71 60.8308 71.8852 59.9804 72.9617 59.9804H93.0706V40.6377Z" fill="#F07D1A"/>
<path d="M239.219 47.5531C240.376 47.5531 241.028 47.6805 241.415 48.0186C241.803 48.3646 241.9 48.8855 241.87 49.7531H247.401C247.401 43.9744 244.083 43.4775 239.219 43.4775C232.297 43.4775 231.141 46.2886 231.141 51.7915C231.141 58.1933 232.688 60.0731 239.219 60.0731C242.222 60.0731 244.253 59.9227 245.53 58.9948C246.86 58.0966 247.401 56.4196 247.401 53.3992H241.87C241.87 55.4015 241.727 55.9899 239.219 55.9899C237.133 55.9899 236.676 55.5902 236.676 51.7917C236.676 47.9932 237.25 47.5533 239.219 47.5533V47.5531Z" fill="#F07D1A"/>
<path d="M256.113 55.9897C254.014 55.9897 253.575 55.59 253.575 51.7915C253.575 47.993 254.15 47.5531 256.113 47.5531C257.282 47.5531 257.915 47.6805 258.307 48.0186C258.689 48.3646 258.785 48.8855 258.747 49.7531H264.295C264.295 43.9744 260.974 43.4775 256.113 43.4775C249.196 43.4775 248.033 46.2886 248.033 51.7915C248.033 58.1933 249.577 60.0731 256.113 60.0731C259.1 60.0731 261.134 59.9227 262.43 58.9948C263.734 58.0966 264.295 56.4196 264.295 53.3992H258.747C258.747 55.4015 258.621 55.9899 256.113 55.9899V55.9897Z" fill="#F07D1A"/>
<path d="M229.147 51.7915C229.147 45.186 227.252 43.4775 220.896 43.4775C214.114 43.4775 212.627 45.5548 212.627 51.7915C212.627 58.0281 214.243 60.0731 220.896 60.0731C223.355 60.0731 225.419 59.8859 226.863 59.1184C228.307 58.3165 229.147 56.9288 229.147 54.4797H223.715C223.715 56.1811 222.614 56.3582 220.896 56.3582C218.621 56.3582 218.167 55.5291 218.167 52.6894H229.147V51.7913L229.147 51.7915ZM218.168 49.7533C218.232 47.6222 218.846 47.1935 220.81 47.1935C222.774 47.1935 223.615 47.3388 223.615 49.7533H218.167H218.168Z" fill="#54565A"/>
<path d="M211.541 59.8857V48.7929C211.541 45.0216 209.55 43.4775 205.653 43.4775C203.534 43.4775 200.995 44.3526 200.697 46.6669C200.404 43.882 197.963 43.4775 195.573 43.4775C193.681 43.4775 191.395 44.0421 190.716 45.9491V43.6621H185.334V59.8859H190.869V50.6757C190.869 48.7401 191.304 47.5531 193.583 47.5531C195.517 47.5531 195.614 48.5841 195.674 50.0625V59.8859H201.208V50.6757C201.208 48.9545 201.629 47.5531 203.791 47.5531C205.954 47.5531 206.007 49.0686 206.007 50.4986V59.8859H211.541V59.8857Z" fill="#54565A"/>
<path d="M175.636 60.0731C182.641 60.0731 184.108 58.4592 184.108 51.7915C184.108 45.1238 182.711 43.4775 175.636 43.4775C168.56 43.4775 167.186 45.1449 167.186 51.7915C167.186 58.438 168.699 60.0731 175.636 60.0731ZM175.731 47.5586C178.296 47.5586 178.559 48.2675 178.559 51.7915C178.559 55.3154 178.296 55.9897 175.731 55.9897C173.166 55.9897 172.733 55.3235 172.733 51.7915C172.733 48.2595 173.054 47.5586 175.731 47.5586Z" fill="#54565A"/>
<path d="M154.991 49.522L151.094 53.7103H157.088L160.986 49.522H154.991Z" fill="#F07D1A"/>
<path d="M151.847 51.865V43.645H146.283V59.8739H151.847V54.4H149.493L151.847 51.865Z" fill="#54565A"/>
<path d="M160.24 48.834H162.586L160.24 51.3618V59.8739H165.808V43.645H160.24V48.834Z" fill="#54565A"/>
<path d="M150.381 73.6749C151.527 73.6749 152.445 73.3759 153.131 72.7914C153.966 72.0647 154.442 70.9282 154.442 69.3485C154.442 67.7688 153.966 66.6323 153.131 65.9051C152.445 65.3381 151.527 65.0371 150.381 65.0371C149.234 65.0371 148.335 65.3379 147.648 65.9051C146.814 66.6323 146.322 67.7856 146.322 69.3485C146.322 70.9113 146.814 72.0647 147.648 72.7914C148.335 73.3759 149.268 73.6749 150.381 73.6749ZM149.284 67.4547C149.562 67.169 149.923 67.0436 150.381 67.0436C150.839 67.0436 151.215 67.169 151.478 67.4547C151.855 67.8335 152.052 68.4804 152.052 69.3485C152.052 70.2165 151.855 70.8806 151.478 71.244C151.215 71.5275 150.857 71.6706 150.381 71.6706C149.905 71.6706 149.562 71.5275 149.284 71.244C148.925 70.8806 148.728 70.2488 148.728 69.3485C148.728 68.4482 148.925 67.8335 149.284 67.4547Z" fill="#54565A"/>
<path d="M158.861 65.1328H156.373V75.3652H158.861V65.1328Z" fill="#54565A"/>
<path d="M149.873 74.5938H147.385V79.7882H159.107V77.7841H149.873V74.5938Z" fill="#54565A"/>
<path d="M173.969 65.1328H171.629V79.7088H173.969V65.1328Z" fill="#54565A"/>
<path d="M167.015 67.3888V65.3843H161.434V78.7594H165.445C166.246 78.7594 167.015 78.7117 167.59 78.506V76.595C167.015 76.7381 166.313 76.7703 165.559 76.7703H163.776V72.9957H166.672V71.0049H163.776V67.3888H167.015Z" fill="#54565A"/>
<path d="M170.827 79.5826V65.2104H168.536V70.7698H167.127V72.8391H168.536V79.5826H170.827Z" fill="#54565A"/>
<path d="M188.637 79.7088V65.1328H186.149V76.1551C185.658 76.5813 184.824 76.7547 183.596 76.7547H178.88V73.0127H183.791V65.3858H176.41V67.4072H181.337V70.9914H176.41V78.761H183.203C184.628 78.761 185.642 78.5553 186.149 78.0661V79.7086H188.637V79.7088Z" fill="#54565A"/>
<path d="M201.046 70.6904H199.096C199.015 68.7014 198.672 67.217 197.885 66.3012C197.264 65.5267 196.281 65.1479 195.119 65.1479C193.956 65.1479 193.008 65.5267 192.353 66.3012C191.388 67.4226 191.107 69.3812 191.107 72.0649C191.107 74.7486 191.388 76.7241 192.353 77.8452C193.008 78.6028 193.973 78.9666 195.119 78.9666C196.265 78.9666 197.264 78.6028 197.885 77.8452C198.769 76.8194 199.081 75.0816 199.13 72.7292H201.046V79.7088H203.534V65.1328H201.046V70.6906L201.046 70.6904ZM196.085 76.5032C195.857 76.8018 195.511 76.9601 195.118 76.9601C194.726 76.9601 194.383 76.802 194.17 76.5032C193.712 75.8542 193.58 74.3543 193.58 72.0647C193.58 69.7751 193.712 68.2901 194.17 67.6432C194.383 67.3424 194.742 67.169 195.118 67.169C195.495 67.169 195.857 67.3422 196.085 67.6432C196.543 68.2901 196.673 69.7899 196.673 72.0647C196.673 74.3394 196.543 75.854 196.085 76.5032Z" fill="#54565A"/>
</g>
<defs>
<clipPath id="clip0_484_8575">
<rect width="194" height="40" fill="white" transform="translate(71 40)"/>
</clipPath>
</defs>
</svg>
