<svg width="335" height="120" viewBox="0 0 335 120" fill="none" xmlns="http://www.w3.org/2000/svg">
<mask id="mask0_526_27357" style="mask-type:alpha" maskUnits="userSpaceOnUse" x="0" y="0" width="335" height="120">
<rect width="335" height="120" rx="12" fill="none"/>
</mask>
<g mask="url(#mask0_526_27357)">
<rect width="335" height="120" rx="12" fill="#ECF1F7"/>
</g>
<g clip-path="url(#clip0_526_27357)">
<path d="M151.843 81.4426C153.375 81.4426 154.867 80.2117 155.179 78.6901L161.726 43.6246C162.038 42.1029 161.053 40.8721 159.648 40.8721H87.712C86.0534 40.8721 84.5606 42.1029 84.2484 43.6246L77.0577 78.6901C76.7455 80.2117 77.7309 81.4426 79.2627 81.4426H151.843Z" fill="#1A4298"/>
<path d="M110.584 55.2768L107.784 68.8552C107.784 68.8552 105.871 76.6669 116.223 76.6669C116.223 76.6669 125.326 76.9771 127.843 69.776L128.673 65.7635H121.58L120.926 68.9521C120.926 68.9521 120.223 71.6271 117.306 71.4236C117.306 71.4236 114.282 71.7337 114.945 69.2623L117.833 55.2768C117.833 55.2768 117.911 52.9604 121.17 52.7084C121.17 52.7084 124.126 52.7084 123.814 54.9763L123.092 58.4654H130.185L130.907 54.9763C130.907 54.9763 132.312 47.4651 122.214 47.6783C122.214 47.6783 112.516 48.095 110.594 55.2865" fill="white"/>
<path d="M132.203 55.2768L129.403 68.8552C129.403 68.8552 127.491 76.6669 137.842 76.6669C137.842 76.6669 146.945 76.9771 149.463 69.776L150.282 65.7635H143.189L142.535 68.9521C142.535 68.9521 141.833 71.6271 138.916 71.4236C138.916 71.4236 135.891 71.7337 136.555 69.2623L139.442 55.2768C139.442 55.2768 139.53 52.9604 142.779 52.7084C142.779 52.7084 145.736 52.7084 145.423 54.9763L144.701 58.4654H151.794L152.516 54.9763C152.516 54.9763 153.921 47.4651 143.823 47.6783C143.823 47.6783 134.125 48.095 132.203 55.2865" fill="white"/>
<path d="M120.387 40.8823H112.171L97.6632 56.5833L99.9755 46.3486L92.4824 46.3389L86.0625 75.9382H93.5556L95.2923 67.6806L97.2241 65.4611L99.8097 75.9478H107.244L102.922 59.8301L120.387 40.8823Z" fill="white"/>
<path d="M125.814 35.0005H117.579L112.174 40.8835L120.389 40.8738L125.814 35.0005Z" fill="#EE3123"/>
<path d="M174.412 67.5166H193.203V69.1933H174.402V75.9002C174.402 78.391 175.29 79.302 177.427 79.302H197.74V75.0279H178.939V73.3221H197.74V63.2134H174.402V67.5166H174.412Z" fill="#1A4298"/>
<path d="M227.077 45.0322H222.54V67.3237H207.144V60.1905H218.257V45.7979H202.607V50.3047H213.72V55.674H202.598V68.3802C202.598 71.0454 203.622 71.8305 205.827 71.8305H222.54V79.303H227.077V60.3843H230.57V55.8775H227.077V45.0322Z" fill="#1A4298"/>
<path d="M197.69 48.9957C197.69 46.8828 196.968 45.4097 194.363 45.4097H174.42V49.9164H193.153V56.759H172.684V61.2657H199.651V56.759H197.69V48.986V48.9957Z" fill="#1A4298"/>
<path d="M258.329 71.792H231.605V76.2988H258.329V71.792Z" fill="#1A4298"/>
<path d="M244.972 58.2705C247.45 64.1535 253.87 67.1192 258.31 67.0805V62.5737C253.978 61.779 247.46 59.889 247.372 45.7872V45.7388H242.582V45.7872C242.494 59.889 235.967 61.779 231.635 62.5737V67.0805C236.074 67.1192 242.494 64.1535 244.972 58.2705Z" fill="#1A4298"/>
</g>
<defs>
<clipPath id="clip0_526_27357">
<rect width="182" height="47.0007" fill="white" transform="translate(77 35.0005)"/>
</clipPath>
</defs>
</svg>
