<svg width="335" height="120" viewBox="0 0 335 120" fill="none" xmlns="http://www.w3.org/2000/svg">
<mask id="mask0_484_19088" style="mask-type:alpha" maskUnits="userSpaceOnUse" x="0" y="0" width="335" height="120">
<rect width="335" height="120" rx="12" fill="none"/>
</mask>
<g mask="url(#mask0_484_19088)">
<rect width="335" height="120" rx="12" fill="#ECF1F7"/>
</g>
<g clip-path="url(#clip0_484_19088)">
<path d="M153.482 82.3448C155.046 82.3448 156.575 81.1131 156.892 79.5984L163.579 44.6097C163.897 43.0926 162.889 41.8667 161.46 41.8667H87.9517C86.2555 41.8667 84.7343 43.0926 84.4117 44.6097L77.0582 79.5984C76.7415 81.1131 77.7496 82.3448 79.3114 82.3448H153.482Z" fill="#000B8C"/>
<path d="M111.317 56.2336L108.456 69.7791C108.456 69.7791 106.506 77.5718 117.084 77.5718C117.084 77.5718 126.384 77.8824 128.961 70.6993L129.804 66.7001H122.551L121.88 69.8783C121.88 69.8783 121.166 72.5463 118.185 72.3419C118.185 72.3419 115.097 72.6502 115.772 70.1877L118.722 56.2336C118.722 56.2336 118.804 53.927 122.133 53.6685C122.133 53.6685 125.156 53.6685 124.831 55.929L124.091 59.4143H131.344L132.083 55.929C132.083 55.929 133.515 48.4388 123.196 48.6453C123.196 48.6453 113.287 49.0563 111.317 56.2336" fill="white"/>
<path d="M133.409 56.2336L130.544 69.7791C130.544 69.7791 128.594 77.5718 139.172 77.5718C139.172 77.5718 148.474 77.8824 151.051 70.6993L151.893 66.7001H144.644L143.971 69.8783C143.971 69.8783 143.256 72.5463 140.275 72.3419C140.275 72.3419 137.189 72.6502 137.859 70.1877L140.812 56.2336C140.812 56.2336 140.898 53.927 144.224 53.6685C144.224 53.6685 147.245 53.6685 146.922 55.929L146.182 59.4143H153.434L154.173 55.929C154.173 55.929 155.605 48.4388 145.287 48.6453C145.287 48.6453 135.379 49.0563 133.409 56.2336" fill="white"/>
<path d="M121.341 41.869L112.944 41.8667L98.1161 57.5398L100.478 47.3228L92.8181 47.3135L86.2598 76.852H93.924L95.6903 68.6067L97.6734 66.3924L100.308 76.8577H107.905L103.495 60.7746L121.341 41.869Z" fill="white"/>
<path d="M126.882 36.0035L118.469 36L112.945 41.8659L121.337 41.8589L126.882 36.0035Z" fill="#E1251B"/>
<path d="M200.042 74.3192V46.4243H195.454V64.3036H176.965V68.5495H195.454V70.253H176.961V77.0235C176.961 79.1745 177.857 80.2392 180.025 80.2392H200.042V76.0055H181.549V74.3194H200.042V74.3192Z" fill="#000B8C"/>
<path d="M183.337 56.6252C184.993 59.9519 189.278 62.3264 193.096 62.3264V57.8779C187.786 57.4217 185.485 52.402 185.677 46.4346H181.001C181.193 52.402 178.888 57.4217 173.582 57.8779V62.3264C177.398 62.3264 181.685 59.9519 183.337 56.6252Z" fill="#000B8C"/>
<path d="M228.065 46.04H223.427V68.2825H207.694V61.1669H219.055V46.8083H203.063V51.3065H214.418V56.6657H203.057V69.344C203.057 72.0085 204.102 72.7816 206.353 72.7816H223.427V80.2395H228.065V46.04Z" fill="#000B8C"/>
<path d="M256.158 49.8391C256.158 47.561 255.426 46.4243 253.194 46.4243H232.857V50.8774H251.564V54.3491H233.396V58.5684H251.564V63.8867H244.776V60.7496H240.184V63.8867H231.08V68.106H258.34V63.8867H256.148L256.157 49.8388L256.158 49.8391Z" fill="#000B8C"/>
<path d="M237.325 75.9034V70.7061H232.857V76.9584C232.857 78.7719 233.864 80.2399 235.736 80.2399H256.148V75.9031H237.324L237.325 75.9034Z" fill="#000B8C"/>
</g>
<defs>
<clipPath id="clip0_484_19088">
<rect width="182" height="47" fill="white" transform="translate(77 36)"/>
</clipPath>
</defs>
</svg>
