<svg width="335" height="120" viewBox="0 0 335 120" fill="none" xmlns="http://www.w3.org/2000/svg">
<mask id="mask0_484_8903" style="mask-type:alpha" maskUnits="userSpaceOnUse" x="0" y="0" width="335" height="120">
<rect width="335" height="120" rx="12" fill="none"/>
</mask>
<g mask="url(#mask0_484_8903)">
<rect width="335" height="120" rx="12" fill="#ECF1F7"/>
</g>
<g clip-path="url(#clip0_484_8903)">
<path d="M144.756 82.8875C146.307 82.8875 147.826 81.6476 148.137 80.1073L154.774 44.7118C155.094 43.1793 154.089 41.9316 152.671 41.9316H79.7172C78.0346 41.9316 76.5155 43.1793 76.1961 44.7118L68.8968 80.1073C68.5852 81.6476 69.5823 82.8875 71.1404 82.8875H144.756Z" fill="#004098"/>
<path d="M102.903 56.4709L100.06 70.1716C100.06 70.1716 98.1279 78.0578 108.621 78.0578C108.621 78.0578 117.86 78.3659 120.415 71.1035L121.249 67.0603H114.051L113.381 70.2718C113.381 70.2718 112.672 72.9749 109.72 72.767C109.72 72.767 106.658 73.0828 107.32 70.5875L110.249 56.4709C110.249 56.4709 110.335 54.1374 113.638 53.8756C113.638 53.8756 116.637 53.8756 116.318 56.1552L115.585 59.6824H122.783L123.516 56.1552C123.516 56.1552 124.934 48.577 114.697 48.785C114.697 48.785 104.866 49.2008 102.911 56.4632L102.903 56.4709Z" fill="white"/>
<path d="M124.821 56.4709L121.986 70.1716C121.986 70.1716 120.054 78.0578 130.547 78.0578C130.547 78.0578 139.778 78.3659 142.333 71.1035L143.175 67.0603H135.977L135.307 70.2718C135.307 70.2718 134.598 72.9749 131.645 72.767C131.645 72.767 128.584 73.0828 129.246 70.5875L132.167 56.4709C132.167 56.4709 132.245 54.1374 135.556 53.8756C135.556 53.8756 138.555 53.8756 138.228 56.1552L137.496 59.6824H144.694L145.426 56.1552C145.426 56.1552 146.844 48.577 136.608 48.785C136.608 48.785 126.769 49.2008 124.813 56.4632L124.821 56.4709Z" fill="white"/>
<path d="M112.849 41.9316H104.521L89.7981 57.7887L92.143 47.4612L84.5399 47.4458L78.0352 77.3271H85.6383L87.391 68.9865L89.3619 66.7454L91.9794 77.3271H99.5124L95.1343 61.0618L112.849 41.9316Z" fill="white"/>
<path d="M118.349 36.0005H109.998L104.521 41.9305L112.849 41.9228L118.349 36.0005Z" fill="#E60012"/>
<path d="M236.489 52.4339C236.497 52.2183 236.489 52.2645 236.489 52.0411C236.512 51.6252 236.403 50.7627 235.351 50.7627H224.126V54.2514H232.726C231.589 58.5873 227.803 61.2057 223.799 61.2057V64.6945C228.364 64.7176 236.208 61.5369 236.481 52.4339H236.489Z" fill="#595757"/>
<path d="M239.975 55.1545H237.498V58.6432H239.975V73.3682H228.671V67.985H225.143V74.2231C225.143 75.8789 225.735 76.8569 227.339 76.8569H243.512V50.2949H239.983V55.1545H239.975Z" fill="#595757"/>
<path d="M266.087 72.2126V50.3022H262.558V53.6446H259.73V57.1334H262.558V64.3341H248.045V67.6611H262.558V69.0243H248.045V74.3767C248.045 76.071 248.738 76.9028 250.405 76.9028H266.095V73.5835H251.582V72.2203H266.095L266.087 72.2126Z" fill="#595757"/>
<path d="M253.232 57.7795C253.357 60.1823 257.19 63.1474 260.742 63.0626V59.5662C256.66 59.212 254.884 55.2689 255.032 50.5864H251.433C251.573 55.2689 249.812 59.2043 245.723 59.5662V63.0626C249.267 63.1474 253.108 60.1823 253.232 57.7795Z" fill="#595757"/>
<path d="M183.925 50.5864H177.623L173.066 60.9756H173.004V50.5864H166.834V76.5554H173.004V70.1479L174.359 67.5217L177.756 76.5554H184.268L178.317 62.0461L183.925 50.5864Z" fill="#595757"/>
<path d="M195.346 68.7692C195.346 70.3634 195.167 72.5121 193.072 72.5121C191.467 72.5121 190.867 71.6496 190.867 70.194L190.906 57.3481C190.906 55.6538 191.358 54.6141 193.29 54.6449C194.451 54.6449 195.253 55.7924 195.253 58.0027V59.6585H201.415V57.479C201.415 52.1805 198.26 49.9702 193.009 49.9702C187.369 49.9702 184.744 52.6041 184.744 58.2492V68.9156C184.744 74.2141 186.957 77.1868 192.628 77.1868C198.93 77.1868 201.516 74.0678 201.516 69.6087V66.4203H195.354V68.7769L195.346 68.7692Z" fill="#595757"/>
<path d="M214.813 68.7692C214.813 70.3634 214.642 72.5121 212.539 72.5121C210.934 72.5121 210.334 71.6496 210.334 70.194L210.365 57.3481C210.365 55.6538 210.825 54.6141 212.749 54.6449C213.902 54.6449 214.712 55.7924 214.712 58.0027V59.6585H220.882V57.479C220.882 52.1805 217.734 49.9702 212.476 49.9702C206.836 49.9702 204.211 52.6041 204.211 58.2492V68.9156C204.211 74.2141 206.416 77.1868 212.087 77.1868C218.389 77.1868 220.983 74.0678 220.983 69.6087V66.4203H214.813V68.7769V68.7692Z" fill="#595757"/>
</g>
<defs>
<clipPath id="clip0_484_8903">
<rect width="199" height="47" fill="white" transform="translate(68 36)"/>
</clipPath>
</defs>
</svg>
