<svg viewBox="0 0 110 110" fill="none" xmlns="http://www.w3.org/2000/svg">
<g clip-path="url(#clip0_55_5354)">
<path d="M6.86536 55C6.86536 28.4145 28.4145 6.86536 55 6.86536C81.5856 6.86536 103.135 28.4145 103.135 55C103.135 81.5856 81.5811 103.135 55 103.135C28.4189 103.135 6.86536 81.5856 6.86536 55Z" fill="#001F5B"/>
<path d="M55 6.86534C81.5855 6.86534 103.135 28.4145 103.135 55C103.135 81.5855 81.5855 103.135 55 103.135C28.4145 103.135 6.86534 81.5855 6.86534 55C6.86534 28.4145 28.4145 6.86534 55 6.86534ZM55 5C41.6451 5 29.0895 10.2007 19.6474 19.6429C10.2007 29.0895 5 41.6451 5 55C5 68.3549 10.2007 80.9105 19.6429 90.3571C29.0851 99.7992 41.6406 105 54.9956 105C68.3505 105 80.906 99.7992 90.3526 90.3571C99.7948 80.9149 104.996 68.3594 104.996 55C104.996 41.6406 99.7948 29.0895 90.3526 19.6429C80.9105 10.2007 68.3549 5 55 5Z" fill="#B5B5B6"/>
<mask id="mask0_55_5354" style="mask-type:luminance" maskUnits="userSpaceOnUse" x="9" y="9" width="92" height="92">
<path d="M9.9787 55C9.9787 79.8268 30.1777 100.021 55 100.021C79.8224 100.021 100.021 79.8224 100.021 55C100.021 30.1777 79.8268 9.9787 55 9.9787C30.1732 9.9787 9.9787 30.1732 9.9787 55Z" fill="white"/>
</mask>
<g mask="url(#mask0_55_5354)">
<path d="M100.021 9.9787H9.9787V100.026H100.021V9.9787Z" fill="url(#paint0_radial_55_5354)"/>
</g>
<path d="M96.0508 53.3168C93.2084 50.652 89.7753 49.4528 85.9158 49.8037C84.9609 46.8458 83.7573 43.9679 82.305 41.1787C86.3732 40.2194 89.944 39.5532 92.862 39.0913C92.4978 38.2253 92.1025 37.3725 91.685 36.5376C88.7893 37.0172 85.1519 37.719 80.9682 38.7271C79.5425 36.2533 78.0325 34.0016 76.4603 31.9542C76.8467 31.7188 77.2242 31.4656 77.5928 31.1858C79.6625 29.6269 81.6566 27.1176 81.2524 23.3514C80.111 22.3921 78.9208 21.4949 77.6772 20.66C79.3249 24.2397 78.7742 26.9089 75.9629 29.0185C75.5676 29.316 75.1546 29.5825 74.7371 29.8224C66.9648 20.6955 57.8691 16.1121 49.746 13.9048C47.4232 14.1713 45.1626 14.6287 42.973 15.2638C51.7312 16.534 62.8433 20.4335 72.1123 30.946C68.0618 32.1718 63.4162 31.5589 59.2015 30.8216C58.4864 30.6973 57.7669 30.5685 57.0474 30.4397C48.5912 28.9252 39.8508 27.3574 31.4701 29.6758C25.9362 31.208 20.5134 34.6278 16.2098 39.1313C15.2238 41.4896 14.4466 43.9545 13.9048 46.5083C18.1018 39.682 25.0524 34.2636 32.194 32.2828C39.9796 30.1288 48.4136 31.6388 56.5722 33.1C57.3006 33.2288 58.0201 33.3576 58.7351 33.4864C63.9581 34.4013 69.3276 34.9254 73.9687 33.1711C75.4566 35.0586 76.8822 37.1327 78.2324 39.4155C73.0938 40.7568 67.2757 42.5422 61.0934 44.9272C44.1233 51.4647 29.1384 60.5561 16.5251 71.9657C16.9071 72.8273 17.3157 73.6756 17.7554 74.5106C38.7715 55.2709 62.7456 46.1441 79.6003 41.8449C79.6491 41.9382 79.698 42.027 79.7468 42.1203C81.1547 44.7806 82.3184 47.5164 83.2421 50.3144C76.7801 52.3086 72.4454 59.7922 67.4845 68.3638C61.5731 78.5788 54.8801 90.1306 43.0307 95.1137C44.4031 95.509 45.811 95.8376 47.2366 96.0908C57.9535 90.2239 64.229 79.396 69.8295 69.7184C74.4972 61.6531 78.5699 54.6181 84.0283 52.9082C86.7685 62.8833 86.5509 73.6667 83.3621 85.1119C84.7211 83.8018 85.9957 82.3983 87.1682 80.9149C88.2608 75.6564 88.7405 70.4823 88.5939 65.4726C88.4607 61.0091 87.8256 56.6611 86.7019 52.464C90.4459 52.2775 93.5193 53.903 96.0375 57.3939C96.0775 56.661 96.0952 55.9238 96.0952 55.1777C96.0952 54.5514 96.0775 53.9341 96.0508 53.3123" fill="#005225"/>
<path d="M36.7774 29.7468L34.1792 31.7854L30.0888 26.5713L32.687 24.5328L33.8506 24.6705L36.9195 28.5788L36.7818 29.7424L36.7774 29.7468ZM33.1 25.6697L31.7498 26.7312L34.4235 30.1332L35.7737 29.0718L33.1 25.6697Z" fill="white"/>
<path d="M42.2802 26.5669L39.3312 28.0325L36.3821 22.0989L39.3312 20.6333L40.4415 21.0064L41.2942 22.7207L41.0588 23.4135L41.7517 23.6489L42.6488 25.4565L42.2757 26.5669H42.2802ZM39.5088 21.828L37.9677 22.5919L38.6561 23.9731L40.1972 23.2092L39.5088 21.828ZM40.7035 24.2307L39.1624 24.9946L39.8952 26.4692L41.4363 25.7052L40.7035 24.2307Z" fill="white"/>
<path d="M51.8689 21.4461L49.7948 21.717L50.1234 24.253L48.9332 24.4084L48.0804 17.8353L51.3448 17.4134L52.273 18.1284L52.5839 20.5223L51.8689 21.4505V21.4461ZM51.1227 18.5992L49.4173 18.8213L49.6438 20.58L51.3492 20.358L51.1227 18.6037V18.5992Z" fill="white"/>
<path d="M58.2599 24.0309L57.4472 21.4105L56.6522 21.3528L56.4701 23.9021L55.2709 23.8177L55.7417 17.2047L59.0283 17.4356L59.7966 18.3194L59.6278 20.7266L58.744 21.4949L59.5967 24.1197L58.2644 24.0265L58.2599 24.0309ZM58.5708 18.5637L56.8565 18.4438L56.7366 20.1581L58.4509 20.278L58.5708 18.5637Z" fill="white"/>
<path d="M64.6198 25.3722L62.2482 24.706L61.6752 23.6845L63.0209 18.9012L64.0424 18.3283L66.4141 18.9945L66.987 20.016L65.6413 24.7993L64.6198 25.3722ZM65.7435 19.9982L64.0868 19.5319L62.9143 23.6978L64.571 24.1642L65.7435 19.9982Z" fill="white"/>
<path d="M71.7836 28.6765L70.7621 28.1302L72.3832 25.0657L70.429 26.709L69.8961 26.4248L70.1714 23.8844L68.5415 26.9444L67.5067 26.3937L70.6289 20.549L71.5971 21.0641L71.2196 24.5816L73.9332 22.3121L74.9014 22.8273L71.7836 28.6765Z" fill="white"/>
<path d="M77.3219 29.5648L75.572 31.6389L74.6616 30.8705L76.407 28.792L77.4862 24.5772L78.5566 25.4832L77.7083 28.1969L80.2132 26.8867L81.2569 27.7661L77.3219 29.5648Z" fill="white"/>
<path d="M22.3476 70.1492L21.7525 68.7857L20.0826 69.5097L19.7406 68.7236L24.062 66.8405L24.9991 68.99L24.6926 69.7673L23.1204 70.4512L22.3432 70.1448L22.3476 70.1492ZM24.1508 69.0789L23.6623 67.9552L22.5075 68.4571L22.9961 69.5807L24.1508 69.0789Z" fill="white"/>
<path d="M23.076 75.2478L24.2618 73.6978L23.9643 73.2137L22.4098 74.1597L21.9657 73.4313L25.9939 70.9797L27.2109 72.9828L27.0154 73.7911L25.5498 74.6838L24.7415 74.4884L23.569 76.065L23.076 75.2523V75.2478ZM26.3759 73.1782L25.7408 72.1345L24.6971 72.7696L25.3322 73.8133L26.3759 73.1782Z" fill="white"/>
<path d="M26.2204 79.5115L25.1146 78.1525L25.1989 77.3219L27.9437 75.0924L28.7742 75.1768L29.8801 76.5358L29.7957 77.3663L27.051 79.6003L26.2204 79.5159V79.5115ZM29.0762 76.8467L28.3034 75.8963L25.914 77.8416L26.6868 78.792L29.0762 76.8467Z" fill="white"/>
<path d="M32.345 85.2674L30.5019 83.8195L33.4198 80.1155L35.263 81.5633L35.3607 82.3894L34.5168 83.4598L33.9972 83.5219L34.0594 84.0416L33.1711 85.1697L32.345 85.2674ZM33.3665 83.5397L32.4072 82.7847L31.6833 83.704L32.6426 84.4591L33.3665 83.5397ZM34.5479 82.043L33.5841 81.288L32.9046 82.1496L33.8639 82.9046L34.5435 82.043H34.5479Z" fill="white"/>
<path d="M36.6575 88.0698L36.9595 86.9062L35.9424 86.3066L35.103 87.1549L34.3658 86.7241L37.9188 83.3443L38.5939 83.7396L37.3725 88.4918L36.6619 88.0743L36.6575 88.0698ZM37.5591 84.7167L36.5242 85.747L37.1549 86.1157L37.5591 84.7122V84.7167Z" fill="white"/>
<path d="M41.2409 90.2238L39.4377 89.4732L39.2379 88.9803L39.4288 88.5228L41.2986 89.3089L41.7161 88.3007L40.3793 87.7411L40.0639 86.9684L40.6724 85.5161L41.4407 85.1963L43.2439 85.9513L43.4438 86.4443L43.2572 86.8973L41.3874 86.1156L40.9922 87.0572L42.3334 87.6168L42.6443 88.394L42.0137 89.9085L41.2409 90.2238Z" fill="white"/>
<path d="M46.7037 91.9027L46.3661 89.2157L45.0871 90.2194L44.7806 91.4097L43.9545 91.1965L45.127 86.6264L45.9575 86.8396L45.4024 88.9892L47.5919 87.2615L48.5601 87.5102L47.1611 88.625L47.5609 92.1203L46.7037 91.9027Z" fill="white"/>
<path d="M49.4617 92.4223L49.9725 87.7323L52.8948 88.0521L52.806 88.8648L50.7408 88.6383L50.6209 89.7442L52.0199 89.8996L51.9266 90.7479L50.5276 90.5969L50.4077 91.7028L52.4729 91.9293L52.3797 92.7421L49.4617 92.4223Z" fill="white"/>
<path d="M57.4116 88.8559L56.1903 88.8825L56.2747 92.782L55.4175 92.7998L55.3331 88.9003L54.1118 88.9358L54.094 88.1098L57.3939 88.0387L57.4116 88.8559Z" fill="white"/>
<path d="M61.7685 92.2046L59.4546 92.5688L58.7263 87.9099L61.0402 87.5457L61.7152 88.0343L61.9284 89.38L61.622 89.8019L62.0439 90.1083L62.266 91.5295L61.773 92.2046H61.7685ZM60.9025 88.3984L59.6945 88.5894L59.8632 89.6731L61.0713 89.4821L60.9025 88.3984ZM61.1956 90.2815L59.9876 90.4725L60.1697 91.6317L61.3777 91.4452L61.1956 90.286V90.2815Z" fill="white"/>
<path d="M66.765 90.9433L66.1166 89.9307L64.9885 90.2682L65.0373 91.4629L64.2201 91.7072L64.1535 86.804L64.8996 86.5775L67.5555 90.7035L66.765 90.9433ZM64.9174 88.0076L64.9707 89.4688L65.668 89.2601L64.9174 88.0076Z" fill="white"/>
<path d="M69.3054 90.0195L67.3734 85.7204L68.1551 85.3695L69.7495 88.927L71.4772 88.1497L71.8103 88.8959L69.3054 90.0195Z" fill="white"/>
<path d="M73.5912 87.941L71.1352 83.9172L71.8636 83.4731L73.8977 86.7996L75.5143 85.8092L75.9407 86.5109L73.5912 87.941Z" fill="white"/>
<path d="M81.7143 81.7543L80.5107 82.9046L79.6758 82.8824L77.2375 80.3198L77.2597 79.4893L78.4633 78.339L79.2982 78.3612L79.4537 78.5255L78.0147 79.8979L80.1376 82.1274L81.5811 80.7595L81.7365 80.9238L81.7143 81.7543Z" fill="white"/>
<path d="M83.5308 79.8313L79.8712 76.8511L80.4131 76.1894L83.4376 78.6499L84.6323 77.1842L85.2674 77.6994L83.5308 79.8313Z" fill="white"/>
<path d="M87.6745 74.0398L86.7552 75.5321L85.9424 75.7275L82.4294 73.5646L82.878 72.8362L86.1956 74.8792L86.8396 73.8355L83.5175 71.7925L83.9661 71.0641L87.4791 73.2271L87.6745 74.0398Z" fill="white"/>
<path d="M89.9796 69.372L89.038 71.5171L84.7211 69.6251L85.6626 67.48L86.4398 67.178L87.6878 67.7243L87.8788 68.2084L88.3629 68.0174L89.6775 68.5947L89.9796 69.372ZM86.3066 68.0529L85.8136 69.1721L86.8174 69.6118L87.3103 68.4926L86.3066 68.0529ZM88.052 68.8168L87.5591 69.936L88.6338 70.4068L89.1268 69.2876L88.052 68.8168Z" fill="white"/>
<path d="M55 13.9092C77.695 13.9092 96.0908 32.305 96.0908 55C96.0908 77.695 77.695 96.0908 55 96.0908C32.305 96.0908 13.9092 77.695 13.9092 55C13.9092 32.305 32.305 13.9092 55 13.9092ZM55 12.2526C31.4301 12.2526 12.2526 31.4301 12.2526 55C12.2526 78.5699 31.4301 97.7474 55 97.7474C78.5699 97.7474 97.7474 78.5699 97.7474 55C97.7474 31.4301 78.5699 12.2526 55 12.2526Z" fill="white"/>
<path d="M67.6888 44.2432H39.5888C39.0913 44.2432 38.6916 44.6474 38.6916 45.1404V56.3502L37.4214 58.0023C37.2793 58.1444 37.2793 58.371 37.4214 58.5131L38.6916 60.1652V70.4957C38.6916 70.6511 38.8782 70.7355 38.9936 70.6289L43.7724 66.3031V60.445H66.5962L71.2951 56.1903C71.5349 55.9727 71.6726 55.6618 71.6726 55.3376V48.2226C71.6726 47.9162 71.5527 47.623 71.3351 47.4099L68.506 44.5808C68.2883 44.3631 67.9997 44.2432 67.6932 44.2432M66.5873 55.6307H43.7636V49.1064H66.5873V55.6307Z" fill="#007F41"/>
<path d="M38.8648 71.1663C38.7716 71.1663 38.6827 71.1485 38.5939 71.1086C38.3496 71.002 38.1942 70.7621 38.1942 70.4957V60.3296L37.0395 58.8284C36.7419 58.5042 36.7419 58.0068 37.0395 57.6826L38.1942 56.1814V45.1404C38.1942 44.372 38.816 43.7502 39.5843 43.7502H67.6843C68.124 43.7502 68.5371 43.919 68.8435 44.2299L71.6726 47.059C71.9835 47.3699 72.1523 47.7829 72.1523 48.2182V55.3331C72.1523 55.795 71.9569 56.2391 71.6149 56.55L66.7739 60.9336H44.2521V66.5163L39.3134 70.9887C39.189 71.1041 39.0247 71.1619 38.8648 71.1619M37.8389 58.2599L39.1757 60.0009V69.7984L43.275 66.0899V59.9609H66.4008L70.962 55.8305C71.0997 55.7062 71.1796 55.5285 71.1796 55.342V48.2271C71.1796 48.0494 71.113 47.8851 70.9842 47.7607L68.1551 44.9316C68.0308 44.8073 67.862 44.7362 67.6888 44.7362H39.5888C39.3623 44.7362 39.1802 44.9183 39.1802 45.1448V56.5189L37.8433 58.2599H37.8389ZM67.0803 56.1237H43.275V48.6179H67.0803V56.1237ZM44.2565 55.1421H66.0988V49.5994H44.2565V55.1421Z" fill="#001A54"/>
<path d="M39.0469 60.1652C39.0469 60.0675 39.0114 59.9787 38.9403 59.9121L37.6701 58.2599L38.9403 56.6078C39.0069 56.5411 39.0469 56.4479 39.0469 56.3546V45.1448C39.0469 44.8472 39.2912 44.603 39.5843 44.603H67.6888C67.9019 44.603 68.0974 44.6874 68.2484 44.8339L71.0775 47.663C71.2285 47.814 71.3084 48.0094 71.3084 48.2226V55.3376C71.3084 55.5596 71.2151 55.7728 71.0464 55.9238L66.4496 60.0853H43.768C43.5681 60.0853 43.4082 60.2452 43.4082 60.445V66.1432L39.0469 70.0915V60.1652ZM43.768 48.7467C43.5681 48.7467 43.4082 48.9066 43.4082 49.1064V55.6307C43.4082 55.8305 43.5681 55.9904 43.768 55.9904H66.5918C66.7916 55.9904 66.9515 55.8305 66.9515 55.6307V49.1064C66.9515 48.9066 66.7916 48.7467 66.5918 48.7467H43.768Z" fill="#001F5B"/>
<path d="M38.8515 70.5356V60.1652C38.8515 60.1208 38.8337 60.0808 38.8026 60.0497L38.7849 60.032L37.4214 58.2599L38.8026 56.4701C38.8337 56.439 38.8515 56.399 38.8515 56.3546V45.1448C38.8515 44.7406 39.1801 44.4075 39.5887 44.4075H67.6887C67.9508 44.4075 68.1995 44.5097 68.386 44.6962L71.2151 47.5253C71.4017 47.7118 71.5038 47.9606 71.5038 48.2226V55.3375C71.5038 55.6173 71.3839 55.8838 71.1796 56.0703L66.5251 60.2851H43.768C43.6792 60.2851 43.6037 60.3606 43.6037 60.4495V66.232L38.8515 70.5356ZM39.0913 59.7833C39.189 59.8854 39.2423 60.0231 39.2423 60.1652V69.6518L43.2084 66.0588V60.4495C43.2084 60.143 43.4571 59.8943 43.7635 59.8943H66.3697L70.9131 55.7817C71.0375 55.6706 71.1085 55.5063 71.1085 55.342V48.227C71.1085 48.0672 71.0464 47.9206 70.9353 47.8051L68.1062 44.976C67.9952 44.865 67.8442 44.8028 67.6843 44.8028H39.5843C39.3933 44.8028 39.2423 44.9582 39.2423 45.1448V56.3546C39.2423 56.4967 39.189 56.6344 39.0913 56.7365L37.9188 58.2599L39.0913 59.7833ZM66.5873 56.1858H43.7635C43.4571 56.1858 43.2084 55.9371 43.2084 55.6307V49.1064C43.2084 48.8 43.4571 48.5512 43.7635 48.5512H66.5873C66.8938 48.5512 67.1425 48.8 67.1425 49.1064V55.6307C67.1425 55.9371 66.8938 56.1858 66.5873 56.1858ZM43.768 48.9421C43.6792 48.9421 43.6037 49.0176 43.6037 49.1064V55.6307C43.6037 55.7195 43.6747 55.795 43.768 55.795H66.5917C66.6806 55.795 66.7561 55.7195 66.7561 55.6307V49.1064C66.7561 49.0176 66.6806 48.9421 66.5917 48.9421H43.768Z" fill="#001A54"/>
<path d="M66.5873 62.1993V67.7909H44.0567L39.0336 72.3388C38.9137 72.4498 38.9892 72.6541 39.1535 72.6541H67.6888C67.9952 72.6541 68.2883 72.5342 68.5015 72.3166L71.3306 69.4875C71.5483 69.2698 71.6682 68.9767 71.6682 68.6747V61.089C71.6682 60.7825 71.5483 60.4894 71.3306 60.2762L70.207 59.1526C70.1404 59.086 70.0293 59.0815 69.9583 59.1481L66.5829 62.2037L66.5873 62.1993Z" fill="#007F41"/>
<path d="M67.6888 73.1427H39.1535C38.8737 73.1427 38.6294 72.9739 38.5273 72.7119C38.4251 72.4498 38.4962 72.1612 38.7049 71.9746L43.8701 67.3024H66.0988V61.9817L69.634 58.784C69.9005 58.5442 70.3047 58.553 70.5578 58.8062L71.6815 59.9298C71.9924 60.2407 72.1611 60.6538 72.1611 61.089V68.6747C72.1611 69.1144 71.9924 69.5275 71.6815 69.8339L68.8524 72.663C68.5415 72.9739 68.1329 73.1427 67.6932 73.1427M39.9618 72.1612H67.6888C67.8664 72.1612 68.0307 72.0945 68.1551 71.9657L70.9842 69.1366C71.1086 69.0123 71.1796 68.848 71.1796 68.6703V61.0846C71.1796 60.9069 71.113 60.7426 70.9842 60.6182L70.0737 59.7078L67.0803 62.417V68.2839H44.2477L39.9618 72.1656V72.1612Z" fill="#001A54"/>
<path d="M39.6198 72.2943L44.1943 68.1551H66.5873C66.7871 68.1551 66.947 67.9952 66.947 67.7953V62.3592L70.0737 59.5301L71.073 60.5294C71.224 60.6804 71.3039 60.8758 71.3039 61.089V68.6747C71.3039 68.8879 71.2195 69.0833 71.073 69.2343L68.2439 72.0634C68.0929 72.2144 67.8975 72.2943 67.6843 72.2943H39.6154H39.6198Z" fill="#001F5B"/>
<path d="M67.6888 72.4898H39.1135L44.1233 67.9552H66.5918C66.6806 67.9552 66.7561 67.8797 66.7561 67.7909V62.2704L70.0871 59.2548L71.2196 60.3873C71.4061 60.5738 71.5083 60.8225 71.5083 61.0846V68.6703C71.5083 68.9323 71.4061 69.181 71.2196 69.3676L68.3905 72.1967C68.2039 72.3832 67.9552 72.4853 67.6932 72.4853M40.1306 72.0945H67.6888C67.8486 72.0945 67.9952 72.0323 68.1107 71.9213L70.9398 69.0922C71.0508 68.9812 71.113 68.8302 71.113 68.6703V61.0846C71.113 60.9247 71.0508 60.7781 70.9398 60.6626L70.0737 59.7922L67.1514 62.4392V67.7865C67.1514 68.0929 66.9027 68.3416 66.5962 68.3416H44.2787L40.135 72.0901L40.1306 72.0945Z" fill="#001A54"/>
<path d="M60.747 37.3814C60.5294 37.1683 60.2407 37.0439 59.9343 37.0439H57.083L55.453 35.7515C55.3109 35.6094 55.0844 35.6094 54.9423 35.7515L53.3123 37.0439H47.3432C46.8458 37.0439 46.4417 37.4481 46.4417 37.9455V78.9519C46.4417 79.4493 46.8458 79.8535 47.3432 79.8535H53.3123L54.9423 81.0171C55.0844 81.1592 55.3109 81.1592 55.453 81.0171L57.083 79.8535H59.8899C60.223 79.8535 60.5427 79.7202 60.7781 79.4848L63.545 76.7179C63.7804 76.4825 63.9137 76.1627 63.9137 75.8296V41.3564C63.9137 40.8412 63.7094 40.3438 63.3452 39.9796L60.747 37.3814ZM58.8328 74.9902H51.5625V41.9071H58.8328V74.9902Z" fill="#007F41"/>
<path d="M55.1954 81.6122C54.9822 81.6122 54.7868 81.5367 54.6314 81.399L53.1524 80.3464H47.3388C46.5705 80.3464 45.9487 79.7246 45.9487 78.9563V37.9499C45.9487 37.1815 46.5705 36.5598 47.3388 36.5598H53.1391L54.6181 35.3873C54.9334 35.0941 55.4575 35.0941 55.7728 35.3873L57.2517 36.5598H59.9343C60.374 36.5598 60.787 36.733 61.0935 37.0394L63.6916 39.6376C64.1535 40.095 64.4067 40.7079 64.4067 41.3608V75.8341C64.4067 76.3004 64.2246 76.7401 63.8959 77.0732L61.129 79.8401C60.8003 80.1732 60.3606 80.3508 59.8899 80.3508H57.2429L55.7639 81.4034C55.6085 81.5411 55.4086 81.6166 55.1999 81.6166M47.3388 37.5368C47.1123 37.5368 46.9302 37.7189 46.9302 37.9454V78.9518C46.9302 79.1783 47.1123 79.3604 47.3388 79.3604H53.4633L55.191 80.5951L56.9186 79.3604H59.881C60.0853 79.3604 60.2807 79.2805 60.4228 79.1339L63.1897 76.367C63.3363 76.2205 63.4162 76.0295 63.4162 75.8252V41.3519C63.4162 40.9611 63.2652 40.5969 62.9899 40.326L60.3917 37.7278C60.2674 37.6035 60.103 37.5368 59.9254 37.5368H56.9053L55.191 36.1778L53.4767 37.5368H47.3344H47.3388ZM59.3258 75.4788H51.0739V41.4141H59.3258V75.4788ZM52.0554 74.4972H58.3443V42.3956H52.0554V74.4972Z" fill="#001A54"/>
<path d="M53.5655 79.5959C53.4988 79.5292 53.4056 79.4893 53.3123 79.4893H47.3432C47.0457 79.4893 46.8014 79.245 46.8014 78.9474V37.941C46.8014 37.6435 47.0457 37.4036 47.3432 37.4036H53.3123C53.41 37.4036 53.5033 37.3637 53.5699 37.2971L55.2043 36.0046L56.8298 37.2971C56.8964 37.3681 56.9897 37.4036 57.0874 37.4036H59.9387C60.1519 37.4036 60.3473 37.4836 60.4983 37.6346L63.0965 40.2327C63.394 40.5303 63.5584 40.93 63.5584 41.3519V75.8252C63.5584 76.065 63.4651 76.2915 63.2963 76.4603L60.5294 79.2272C60.3606 79.396 60.1341 79.4893 59.8943 79.4893H57.0874C56.9941 79.4893 56.9009 79.5248 56.8343 79.5959L55.1999 80.8483L53.5699 79.5959H53.5655ZM51.5624 41.5474C51.3626 41.5474 51.2027 41.7073 51.2027 41.9071V74.9902C51.2027 75.1901 51.3626 75.35 51.5624 75.35H58.8328C59.0327 75.35 59.1926 75.1901 59.1926 74.9902V41.9071C59.1926 41.7073 59.0327 41.5474 58.8328 41.5474H51.5624Z" fill="#001F5B"/>
<path d="M55.262 81.0437H55.1954C55.151 81.0437 54.5677 80.6129 53.4455 79.7513L53.4278 79.7335C53.3967 79.7024 53.3567 79.6847 53.3123 79.6847H47.3432C46.9391 79.6847 46.606 79.356 46.606 78.9474V37.941C46.606 37.5369 46.9346 37.2038 47.3432 37.2038H53.3123C53.3567 37.2038 53.3967 37.186 53.4278 37.1549L53.4455 37.1371L55.1998 35.7515L56.9675 37.1549C56.9986 37.186 57.0385 37.2038 57.0829 37.2038H59.9343C60.1963 37.2038 60.445 37.3059 60.6315 37.4925L63.2297 40.0906C63.5672 40.4281 63.7493 40.8723 63.7493 41.3519V75.8252C63.7493 76.1183 63.6338 76.3937 63.4295 76.6024L60.6626 79.3693C60.4539 79.5736 60.1785 79.6891 59.8854 79.6891H57.0785C57.0341 79.6891 56.9941 79.7069 56.963 79.738L56.9453 79.7557L55.262 81.0481V81.0437ZM53.6942 79.4493C53.8053 79.5337 54.8401 80.3287 55.1998 80.5996L56.7054 79.4448C56.8076 79.3471 56.9453 79.2938 57.0874 79.2938H59.8943C60.0808 79.2938 60.2585 79.2228 60.3917 79.0895L63.1586 76.3226C63.2919 76.1894 63.3629 76.0117 63.3629 75.8252V41.3519C63.3629 40.9833 63.2164 40.6324 62.9543 40.3704L60.3562 37.7723C60.2451 37.6612 60.0941 37.599 59.9343 37.599H57.0829C56.9408 37.599 56.7987 37.5413 56.6966 37.4392L55.1998 36.2533L53.6987 37.4392C53.5965 37.5413 53.4544 37.599 53.3123 37.599H47.3432C47.1522 37.599 47.0012 37.7545 47.0012 37.941V78.9474C47.0012 79.1384 47.1567 79.2894 47.3432 79.2894H53.3123C53.4544 79.2894 53.5921 79.3427 53.6942 79.4404M58.8328 75.5454H51.5624C51.256 75.5454 51.0073 75.2967 51.0073 74.9902V41.9071C51.0073 41.6006 51.256 41.3519 51.5624 41.3519H58.8328C59.1393 41.3519 59.388 41.6006 59.388 41.9071V74.9902C59.388 75.2967 59.1393 75.5454 58.8328 75.5454ZM51.5624 41.7428C51.4736 41.7428 51.3981 41.8183 51.3981 41.9071V74.9902C51.3981 75.0791 51.4736 75.1546 51.5624 75.1546H58.8328C58.9216 75.1546 58.9971 75.0835 58.9971 74.9902V41.9071C58.9971 41.8183 58.9216 41.7428 58.8328 41.7428H51.5624Z" fill="#001A54"/>
<path d="M68.8835 43.0219H40.7835C40.286 43.0219 39.8863 43.426 39.8863 43.9234V55.1288L38.6161 56.781C38.474 56.9231 38.474 57.1496 38.6161 57.2917L39.8863 58.9439V69.2743C39.8863 69.4297 40.0729 69.5141 40.1883 69.4075L44.9671 65.0817V59.2237H67.7909L72.4942 54.9689C72.7341 54.7513 72.8718 54.4404 72.8718 54.1162V47.0012C72.8718 46.6948 72.7518 46.4017 72.5342 46.1885L69.7051 43.3594C69.4875 43.1418 69.1944 43.0219 68.8924 43.0219M67.782 54.4093H44.9583V47.8851H67.782V54.4093Z" fill="#008F43"/>
<path d="M40.0595 69.7717C39.9929 69.7717 39.9219 69.7584 39.8597 69.7273C39.682 69.6474 39.5666 69.4697 39.5666 69.2743V59.0505L38.3718 57.496C38.2564 57.3717 38.1898 57.2073 38.1898 57.0341C38.1898 56.8609 38.2519 56.6966 38.3718 56.5722L39.5666 55.0178V43.919C39.5666 43.2484 40.1128 42.7021 40.7835 42.7021H68.8835C69.2743 42.7021 69.6429 42.8531 69.9227 43.1329L72.7518 45.962C73.0316 46.2418 73.1827 46.606 73.1827 47.0013V54.1162C73.1827 54.5292 73.005 54.9289 72.6985 55.2043L67.9064 59.5434H45.2781V65.2239L40.3926 69.6429C40.2994 69.7273 40.1795 69.7717 40.0595 69.7717ZM40.779 43.3416C40.4593 43.3416 40.1972 43.6037 40.1972 43.9234V55.2398L38.8337 57.0075C38.8337 57.0075 38.8204 57.0252 38.8204 57.0386C38.8204 57.0519 38.8204 57.0608 38.8337 57.0696L38.8604 57.1007L40.1972 58.8373V68.9679L44.6429 64.944V58.9128H67.6621L72.2722 54.738C72.4454 54.5825 72.5475 54.356 72.5475 54.1206V47.0057C72.5475 46.7836 72.4587 46.5749 72.3033 46.415L69.4742 43.5859C69.3187 43.4305 69.1055 43.3416 68.8835 43.3416H40.7835H40.779ZM68.0974 54.7291H44.6429V47.5697H68.0974V54.7291ZM45.2781 54.094H67.4667V48.2048H45.2781V54.094Z" fill="#001A54"/>
<path d="M40.1128 69.1544V58.9439C40.1128 58.8817 40.0906 58.824 40.0462 58.7796L40.0373 58.7662L38.7049 57.0386L40.0462 55.2976C40.0906 55.2532 40.1128 55.1954 40.1128 55.1333V43.9235C40.1128 43.5548 40.4103 43.2573 40.779 43.2573H68.8834C69.1277 43.2573 69.3587 43.355 69.5319 43.5282L72.361 46.3573C72.5342 46.5305 72.6319 46.7614 72.6319 47.0057V54.1206C72.6319 54.3782 72.5209 54.627 72.3299 54.8002L67.6932 58.9972H44.9627C44.8339 58.9972 44.7317 59.1038 44.7317 59.2326V64.984L40.1172 69.1588L40.1128 69.1544ZM40.2327 58.6063C40.3215 58.6996 40.3704 58.8195 40.3704 58.9439V68.5859L44.4786 64.8686V59.2281C44.4786 58.9617 44.6962 58.7396 44.9671 58.7396H67.5999L72.1611 54.6092C72.2988 54.4848 72.3787 54.3027 72.3787 54.1162V47.0013C72.3787 46.8236 72.3077 46.6593 72.1833 46.5305L69.3542 43.7014C69.2299 43.577 69.0611 43.506 68.8834 43.506H40.779C40.5525 43.506 40.3659 43.6925 40.3659 43.919V55.1288C40.3659 55.2576 40.3171 55.3775 40.2283 55.4664L39.0202 57.0341L40.2283 58.6019L40.2327 58.6063ZM67.782 54.8979H44.9582C44.6917 54.8979 44.4697 54.6803 44.4697 54.4093V47.8851C44.4697 47.6186 44.6873 47.3965 44.9582 47.3965H67.782C68.0529 47.3965 68.2705 47.6142 68.2705 47.8851V54.4093C68.2705 54.6758 68.0529 54.8979 67.782 54.8979ZM44.9582 47.6541C44.8294 47.6541 44.7273 47.7563 44.7273 47.8851V54.4093C44.7273 54.5381 44.8339 54.6403 44.9582 54.6403H67.782C67.9108 54.6403 68.0174 54.5337 68.0174 54.4093V47.8851C68.0174 47.7563 67.9108 47.6541 67.782 47.6541H44.9582Z" fill="white"/>
<path d="M67.782 60.9779V66.574H45.2514L40.2283 71.1218C40.104 71.2329 40.1839 71.4327 40.3482 71.4327H68.8835C69.1899 71.4327 69.4831 71.3128 69.6962 71.0952L72.5253 68.2661C72.743 68.0485 72.8629 67.7553 72.8629 67.4533V59.8676C72.8629 59.5612 72.743 59.268 72.5253 59.0549L71.4017 57.9357C71.3351 57.869 71.224 57.8646 71.153 57.9312L67.7776 60.9824L67.782 60.9779Z" fill="#008F43"/>
<path d="M68.8835 71.7481H40.3482C40.1395 71.7481 39.9574 71.6237 39.8863 71.4283C39.8108 71.2329 39.8641 71.0197 40.0151 70.882L45.1315 66.2542H67.4667V60.8358L70.9442 57.687C71.1396 57.5093 71.4417 57.5182 71.6282 57.7047L72.7518 58.8284C73.0272 59.1037 73.1826 59.4724 73.1826 59.8676V67.4533C73.1826 67.8442 73.0316 68.2128 72.7518 68.4926L69.9227 71.3217C69.6474 71.6015 69.2743 71.7525 68.8835 71.7525M40.7035 71.113H68.8835C69.1055 71.113 69.3143 71.0241 69.4742 70.8687L72.3033 68.0396C72.4587 67.8841 72.5475 67.6754 72.5475 67.4489V59.8632C72.5475 59.6411 72.4587 59.4324 72.3033 59.2725L71.2729 58.2421L68.1018 61.1112V66.8804H45.3757L40.708 71.1085L40.7035 71.113Z" fill="#001A54"/>
<path d="M40.2416 58.9439C40.2416 58.8506 40.2016 58.7573 40.135 58.6907L38.8648 57.0386L40.135 55.3864C40.2016 55.3198 40.2416 55.2265 40.2416 55.1332V43.9234C40.2416 43.6259 40.4859 43.386 40.779 43.386H68.8835C69.0966 43.386 69.2921 43.466 69.4431 43.617L72.2722 46.4461C72.4232 46.5971 72.5031 46.7925 72.5031 47.0057V54.1206C72.5031 54.3427 72.4098 54.5559 72.2411 54.7069L67.6443 58.8684H44.9627C44.7628 58.8684 44.6029 59.0283 44.6029 59.2281V64.9263L40.2416 68.8746V58.9483V58.9439ZM44.9583 47.5253C44.7584 47.5253 44.5985 47.6852 44.5985 47.8851V54.4093C44.5985 54.6092 44.7584 54.7691 44.9583 54.7691H67.782C67.9819 54.7691 68.1418 54.6092 68.1418 54.4093V47.8851C68.1418 47.6852 67.9819 47.5253 67.782 47.5253H44.9583Z" fill="white"/>
<path d="M40.8145 71.073L45.389 66.9338H67.782C67.9818 66.9338 68.1417 66.7739 68.1417 66.574V61.1379L71.2684 58.3088L72.2677 59.3081C72.4187 59.4591 72.4986 59.6545 72.4986 59.8677V67.4534C72.4986 67.6666 72.4143 67.862 72.2677 68.013L69.4386 70.8421C69.2876 70.9931 69.0922 71.073 68.879 71.073H40.8101H40.8145Z" fill="white"/>
<path d="M68.8835 71.1974H40.4859L45.3402 66.8005H67.782C67.9108 66.8005 68.013 66.6939 68.013 66.5696V61.0801L71.2729 58.1311L72.3566 59.2192C72.5298 59.3924 72.6275 59.6234 72.6275 59.8676V67.4534C72.6275 67.6976 72.5342 67.9286 72.3566 68.1018L69.5275 70.9309C69.3543 71.1041 69.1233 71.2018 68.879 71.2018M41.1432 70.9442H68.8835C69.0611 70.9442 69.2299 70.8732 69.3543 70.7488L72.1834 67.9197C72.3077 67.7953 72.3788 67.6266 72.3788 67.4489V59.8632C72.3788 59.6856 72.3077 59.5168 72.1834 59.3924L71.2685 58.4775L68.2706 61.1911V66.5696C68.2706 66.836 68.053 67.0581 67.7865 67.0581H45.4424L41.1477 70.9442H41.1432Z" fill="white"/>
<path d="M44.4919 54.4892V48.5424H44.2299C44.03 48.5424 43.8701 48.7022 43.8701 48.9021V55.4264C43.8701 55.6262 44.03 55.7861 44.2299 55.7861H67.0536C67.2535 55.7861 67.4134 55.6262 67.4134 55.4264V54.849H44.8516C44.6518 54.849 44.4919 54.6891 44.4919 54.4892Z" fill="#007F41"/>
<path d="M72.2721 46.4461L69.443 43.617C69.292 43.466 69.0966 43.386 68.8834 43.386H40.7834C40.4858 43.386 40.2416 43.6259 40.2416 43.9234V44.3232H68.2617C68.4748 44.3232 68.6702 44.4075 68.8213 44.5541L71.6504 47.3832C71.8014 47.5342 71.8813 47.7296 71.8813 47.9428V55.0311L72.241 54.7069C72.4054 54.5559 72.5031 54.3427 72.5031 54.1206V47.0057C72.5031 46.7925 72.4187 46.5971 72.2721 46.4461Z" fill="#007F41"/>
<path d="M43.8701 60.1252V65.4459L44.4919 64.8863V59.7655H44.2299C44.03 59.7655 43.8701 59.9254 43.8701 60.1252Z" fill="#007F41"/>
<path d="M67.2712 67.8664C67.4711 67.8664 67.631 67.7065 67.631 67.5067V66.9293H45.5001L40.9255 71.0686H41.3386L44.8783 67.862H67.2712V67.8664Z" fill="#007F41"/>
<path d="M39.1179 57.2162L38.9891 57.0474L40.2993 55.382V55.5818C40.2993 55.6928 40.2549 55.7994 40.175 55.8794L39.1179 57.2162Z" fill="#007F41"/>
<path d="M71.2685 58.4331L68.1418 61.2666V61.6397L70.6511 59.3702L71.6504 60.3695C71.8014 60.5205 71.8813 60.7159 71.8813 60.9291V68.5148C71.8813 68.5148 71.8813 68.5237 71.8813 68.5281L72.2722 68.1373C72.4232 67.9863 72.5031 67.7909 72.5031 67.5777V59.992C72.5031 59.7788 72.4187 59.5834 72.2722 59.4324L71.2729 58.4331H71.2685Z" fill="#007F41"/>
<path d="M40.1128 69.1544V58.9439C40.1128 58.8817 40.0906 58.824 40.0462 58.7796L40.0373 58.7662L38.7049 57.0386L40.0462 55.2976C40.0906 55.2532 40.1128 55.1954 40.1128 55.1333V43.9235C40.1128 43.5548 40.4103 43.2573 40.779 43.2573H68.8834C69.1277 43.2573 69.3587 43.355 69.5319 43.5282L72.361 46.3573C72.5342 46.5305 72.6319 46.7614 72.6319 47.0057V54.1206C72.6319 54.3782 72.5209 54.627 72.3299 54.8002L67.6932 58.9972H44.9627C44.8339 58.9972 44.7317 59.1038 44.7317 59.2326V64.984L40.1172 69.1588L40.1128 69.1544ZM40.2327 58.6063C40.3215 58.6996 40.3704 58.8195 40.3704 58.9439V68.5859L44.4786 64.8686V59.2281C44.4786 58.9617 44.6962 58.7396 44.9671 58.7396H67.5999L72.1611 54.6092C72.2988 54.4848 72.3787 54.3027 72.3787 54.1162V47.0013C72.3787 46.8236 72.3077 46.6593 72.1833 46.5305L69.3542 43.7014C69.2299 43.577 69.0611 43.506 68.8834 43.506H40.779C40.5525 43.506 40.3659 43.6925 40.3659 43.919V55.1288C40.3659 55.2576 40.3171 55.3775 40.2283 55.4664L39.0202 57.0341L40.2283 58.6019L40.2327 58.6063ZM67.782 54.8979H44.9582C44.6917 54.8979 44.4697 54.6803 44.4697 54.4093V47.8851C44.4697 47.6186 44.6873 47.3965 44.9582 47.3965H67.782C68.0529 47.3965 68.2705 47.6142 68.2705 47.8851V54.4093C68.2705 54.6758 68.0529 54.8979 67.782 54.8979ZM44.9582 47.6541C44.8294 47.6541 44.7273 47.7563 44.7273 47.8851V54.4093C44.7273 54.5381 44.8339 54.6403 44.9582 54.6403H67.782C67.9108 54.6403 68.0174 54.5337 68.0174 54.4093V47.8851C68.0174 47.7563 67.9108 47.6541 67.782 47.6541H44.9582Z" fill="white"/>
<path d="M68.8835 71.1974H40.4859L45.3402 66.8005H67.782C67.9108 66.8005 68.013 66.6939 68.013 66.5696V61.0801L71.2729 58.1311L72.3566 59.2192C72.5298 59.3924 72.6275 59.6234 72.6275 59.8676V67.4534C72.6275 67.6976 72.5342 67.9286 72.3566 68.1018L69.5275 70.9309C69.3543 71.1041 69.1233 71.2018 68.879 71.2018M41.1432 70.9442H68.8835C69.0611 70.9442 69.2299 70.8732 69.3543 70.7488L72.1834 67.9197C72.3077 67.7953 72.3788 67.6266 72.3788 67.4489V59.8632C72.3788 59.6856 72.3077 59.5168 72.1834 59.3924L71.2685 58.4775L68.2706 61.1911V66.5696C68.2706 66.836 68.053 67.0581 67.7865 67.0581H45.4424L41.1477 70.9442H41.1432Z" fill="white"/>
<path d="M52.2686 41.1787H52.1487C51.9488 41.1787 51.7889 41.3386 51.7889 41.5385V54.0895H52.2686V41.1787Z" fill="#007F41"/>
<path d="M64.3933 75.1501C64.5399 75.0036 64.6198 74.8082 64.6198 74.6039V71.7481H64.1268V75.4166L64.3933 75.1501Z" fill="#007F41"/>
<path d="M52.2686 73.7689V59.5435H51.7889V74.6216C51.7889 74.8215 51.9488 74.9814 52.1487 74.9814H59.4191C59.6189 74.9814 59.7788 74.8215 59.7788 74.6216V74.253H52.7571C52.4907 74.253 52.2686 74.0354 52.2686 73.7645" fill="#007F41"/>
<path d="M64.1935 39.1046L61.5953 36.5065C61.502 36.4132 61.3821 36.351 61.2578 36.3244C61.2222 36.3155 61.1911 36.3155 61.1556 36.3155C61.1467 36.3155 61.1378 36.3155 61.129 36.3155H58.2777C58.251 36.3155 58.2244 36.3155 58.1977 36.3066C58.1 36.2888 58.0067 36.2444 57.9357 36.1734L56.3946 34.9476L54.849 36.1734C54.7779 36.2444 54.6847 36.2888 54.5825 36.3066C54.5559 36.311 54.5292 36.3155 54.507 36.3155H48.5379C48.5068 36.3155 48.4757 36.3155 48.4491 36.3244C48.2626 36.3643 48.1249 36.5287 48.1249 36.7285V37.3547C48.2137 37.2926 48.3159 37.257 48.4313 37.257H53.8852C53.9829 37.257 54.0762 37.2171 54.1428 37.146L55.7728 35.8536L57.3983 37.146C57.4649 37.2171 57.5582 37.257 57.6559 37.257H60.5072C60.7204 37.257 60.9158 37.337 61.0668 37.488L63.6649 40.0861C63.9625 40.3837 64.1268 40.7834 64.1268 41.2053V42.7109H64.6198V40.1394C64.6198 39.7486 64.4688 39.3844 64.1935 39.1091" fill="#007F41"/>
<path d="M64.7486 71.7481H64.6198V74.6038C64.6198 74.8081 64.5399 75.0036 64.3933 75.1501L64.1269 75.4166L61.6309 77.9126C61.4843 78.0592 61.2889 78.1391 61.0846 78.1391H58.2777C58.1489 78.1391 58.029 78.188 57.9401 78.2768L56.3901 79.4626C56.0792 79.2228 54.9378 78.3479 54.8401 78.2768C54.7469 78.188 54.6269 78.1391 54.5026 78.1391H48.5335C48.307 78.1391 48.1205 77.9526 48.1205 77.7261V59.539H47.8673V77.7261C47.8673 78.0947 48.1649 78.3923 48.5335 78.3923H54.5026C54.5648 78.3923 54.6225 78.4189 54.6669 78.4633L54.6802 78.4722C55.7906 79.3249 56.3605 79.7513 56.3901 79.7513H56.4346L58.1 78.4722L58.1134 78.4633C58.1578 78.4189 58.2155 78.3923 58.2777 78.3923H61.0846C61.3599 78.3923 61.6175 78.2857 61.8085 78.0947L64.5754 75.3278C64.7708 75.1324 64.8774 74.8748 64.8774 74.6038V71.7481H64.7486Z" fill="white"/>
<path d="M60.3429 42.7065H60.5116V40.6858C60.5116 40.4193 60.294 40.2017 60.0231 40.2017H52.7527C52.4862 40.2017 52.2642 40.4193 52.2642 40.6858V54.094H52.5173V40.6858C52.5173 40.557 52.6195 40.4548 52.7483 40.4548H60.0186C60.1474 40.4548 60.254 40.5614 60.254 40.6858V42.7065H60.3384H60.3429Z" fill="white"/>
<path d="M64.3711 38.9225L61.7729 36.3244C61.5997 36.1512 61.3688 36.0579 61.1245 36.0579H58.2732C58.211 36.0579 58.1489 36.0312 58.1044 35.9868L56.3857 34.6234L54.6758 35.9779L54.6624 35.9913C54.618 36.0357 54.5559 36.0623 54.4937 36.0623H48.5246C48.156 36.0623 47.8584 36.3599 47.8584 36.7285V54.094H48.1116V36.7285C48.1116 36.5331 48.2492 36.3688 48.4358 36.3244C48.4669 36.3199 48.4935 36.3155 48.5246 36.3155H54.4937C54.5203 36.3155 54.547 36.3155 54.5692 36.3066C54.6669 36.2888 54.7602 36.2444 54.8357 36.1734L56.3812 34.9476L57.9224 36.1734C57.9934 36.2444 58.0867 36.2888 58.1888 36.3066C58.2155 36.311 58.2377 36.3155 58.2643 36.3155H61.1156C61.1156 36.3155 61.1334 36.3155 61.1423 36.3155C61.1778 36.3155 61.2133 36.3155 61.2444 36.3244C61.3732 36.351 61.4887 36.4132 61.582 36.5065L64.1801 39.1046C64.4555 39.38 64.6065 39.7442 64.6065 40.135V42.7065H64.8596V40.135C64.8596 39.6775 64.682 39.2467 64.3578 38.9225" fill="white"/>
<path d="M52.2686 73.7689C52.2686 74.0398 52.4862 74.2574 52.7572 74.2574H60.0275C60.294 74.2574 60.5161 74.0398 60.5161 73.7689V71.7481H60.2629V73.7689C60.2629 73.8977 60.1563 74.0043 60.0275 74.0043H52.7572C52.6284 74.0043 52.5262 73.8977 52.5262 73.7689V59.5435H52.2731V73.7689H52.2686Z" fill="white"/>
<path d="M60.0275 40.4548H52.7571C52.6283 40.4548 52.5262 40.5614 52.5262 40.6857V54.094H53.0769V41.0055H59.7122V42.7109H60.2629V40.6902C60.2629 40.5614 60.1563 40.4592 60.0275 40.4592" fill="#001A54"/>
<path d="M60.0275 71.7481H59.7122V73.4491H53.0769V59.539H52.5262V73.7644C52.5262 73.8932 52.6283 73.9998 52.7571 73.9998H60.0275C60.1563 73.9998 60.2585 73.8932 60.2585 73.7644V71.7437H60.0275V71.7481Z" fill="#001A54"/>
<path d="M60.0275 48.2004H59.7078V66.2542H60.0275H60.2585V48.2004H60.0275Z" fill="#001A54"/>
<path d="M65.1084 71.7481H64.8774V74.6038C64.8774 74.8792 64.7708 75.1368 64.5754 75.3278L61.8085 78.0947C61.6131 78.2901 61.3555 78.3923 61.0846 78.3923H58.2777C58.2155 78.3923 58.1578 78.4189 58.1134 78.4633L58.1 78.4722L56.4345 79.7513H56.3901C56.3605 79.7513 55.7906 79.3249 54.6802 78.4722L54.6669 78.4633C54.6225 78.4189 54.5648 78.3923 54.5026 78.3923H48.5335C48.1649 78.3923 47.8673 78.0947 47.8673 77.7261V59.539H47.3166V77.7261C47.3166 78.3967 47.8629 78.943 48.5335 78.943H54.4004L55.9327 80.0355C56.0615 80.1555 56.2258 80.2132 56.3901 80.2132C56.5545 80.2132 56.7188 80.1555 56.8476 80.0355L58.3798 78.943H61.0846C61.5065 78.943 61.9018 78.7787 62.1993 78.4811L64.9663 75.7142C65.2638 75.4166 65.4282 75.0213 65.4282 74.5994V71.7437H65.1128L65.1084 71.7481Z" fill="#001A54"/>
<path d="M64.762 38.5361L62.1638 35.938C61.8885 35.6626 61.5154 35.5072 61.1245 35.5072H58.3843L56.852 34.2947C56.59 34.0504 56.1858 34.0504 55.9238 34.2947L54.3916 35.5072H48.5335C47.8629 35.5072 47.3166 36.0535 47.3166 36.7241V54.0895H47.8673V36.7241C47.8673 36.3555 48.1649 36.0579 48.5335 36.0579H54.5026C54.5648 36.0579 54.6269 36.0313 54.6669 35.9868L54.6802 35.978L56.3901 34.6234L58.1045 35.9868C58.1489 36.0313 58.2066 36.0579 58.2688 36.0579H61.1201C61.3644 36.0579 61.5953 36.1512 61.7685 36.3288L64.3667 38.927C64.6909 39.2512 64.8686 39.682 64.8686 40.135V42.7065H65.4193V40.135C65.4193 39.531 65.1839 38.9625 64.7575 38.5361" fill="#001A54"/>
<path d="M65.1084 48.2004H64.873V66.2542H65.1084H65.4237V48.2004H65.1084Z" fill="#001A54"/>
<path d="M60.0275 74.2574H59.7788V74.626C59.7788 74.8259 59.6189 74.9858 59.4191 74.9858H52.1487C51.9488 74.9858 51.7889 74.8259 51.7889 74.626V59.5479H48.1204V77.7349C48.1204 77.9614 48.307 78.148 48.5335 78.148H54.5026C54.6313 78.148 54.7513 78.1968 54.8401 78.2856C54.9334 78.3567 56.0792 79.2361 56.3901 79.4715L57.9401 78.2856C58.0334 78.1968 58.1488 78.148 58.2776 78.148H61.0845C61.2888 78.148 61.4843 78.068 61.6308 77.9215L64.1268 75.4255V71.7569H60.5161V73.7777C60.5161 74.0487 60.2984 74.2663 60.0275 74.2663" fill="white"/>
<path d="M63.6605 40.0773L61.0624 37.4791C60.9114 37.3281 60.716 37.2482 60.5028 37.2482H57.6515C57.5538 37.2482 57.4605 37.2082 57.3939 37.1416L55.7684 35.8492L54.134 37.1416C54.0673 37.2127 53.9741 37.2482 53.8764 37.2482H48.4225C48.307 37.2482 48.2004 37.2837 48.116 37.3459V54.0895H51.7845V41.5385C51.7845 41.3386 51.9444 41.1787 52.1443 41.1787H52.2642V40.6857C52.2642 40.4193 52.4818 40.1972 52.7527 40.1972H60.0231C60.2896 40.1972 60.5117 40.4148 60.5117 40.6857V42.7065H64.1224V41.2009C64.1224 40.779 63.9581 40.3793 63.6605 40.0817" fill="white"/>
<path d="M64.1268 48.2004H60.5161V66.2498H64.1268V48.2004Z" fill="white"/>
<path d="M64.6198 48.2004H64.1268V66.2498H64.6198V48.2004Z" fill="#007F41"/>
<path d="M60.3873 48.2004H60.3429H60.2585V66.2542H60.3429H60.3873H60.5161V48.2004H60.3873Z" fill="white"/>
<path d="M64.7886 48.2004H64.7486H64.6198V66.2542H64.7486H64.7886H64.873V48.2004H64.7886Z" fill="white"/>
<path d="M56.3102 31.6344L54.5825 32.8557C54.5026 32.9135 54.3916 32.8335 54.4226 32.7403L55.0755 30.7594C55.0888 30.715 55.0755 30.6706 55.04 30.644L53.339 29.3826C53.259 29.3249 53.3034 29.1961 53.4012 29.1961H55.4886C55.533 29.1961 55.5729 29.1695 55.5863 29.125L56.2569 27.1265C56.288 27.0332 56.4212 27.0332 56.4523 27.1265L57.1052 29.1206C57.1185 29.165 57.1585 29.1917 57.2029 29.1917H59.3525C59.4546 29.1917 59.4946 29.3205 59.4147 29.3782L57.6559 30.6395C57.6204 30.6662 57.6026 30.715 57.6204 30.7594L58.3177 32.7491C58.3532 32.8424 58.2422 32.9268 58.1578 32.8691L56.4301 31.6388C56.3946 31.6122 56.3457 31.6122 56.3102 31.6388" fill="#001A54"/>
<path d="M58.8329 29.4626H56.932L56.3502 27.6906L55.755 29.4626H53.9075L55.4219 30.5818L54.8401 32.3406L56.3679 31.2569L57.8869 32.3406L57.2695 30.5818L58.8329 29.4626Z" fill="#E94709"/>
<path d="M58.0556 32.5671L56.3679 31.3679L54.6758 32.5626L55.3153 30.6173L53.6454 29.3782H55.6928L56.3501 27.4196L56.9897 29.3782H59.0948L57.3672 30.6173L58.0511 32.5671H58.0556ZM54.1695 29.547L55.5241 30.5507L55.0089 32.1185L56.3723 31.1547L57.718 32.1096L57.1718 30.5507L58.5708 29.547H56.8742L56.3546 27.9615L55.8216 29.547H54.1739H54.1695Z" fill="white"/>
</g>
<defs>
<radialGradient id="paint0_radial_55_5354" cx="0" cy="0" r="1" gradientUnits="userSpaceOnUse" gradientTransform="translate(54.6789 54.9867) scale(44.8921 44.8921)">
<stop stop-color="#009633"/>
<stop offset="0.77" stop-color="#006228"/>
<stop offset="1" stop-color="#005225"/>
</radialGradient>
<clipPath id="clip0_55_5354">
<rect width="100" height="100" fill="white" transform="translate(5 5)"/>
</clipPath>
</defs>
</svg>
