<svg viewBox="0 0 110 110" fill="none" xmlns="http://www.w3.org/2000/svg">
<path d="M71.8806 61.8026C76.0836 57.5996 78.544 52.0293 78.8203 46.1019L79.5 45.6239L78.8506 44.6901C78.7961 40.0455 77.4126 35.5702 74.8452 31.7444L73.3306 29.4855L71.096 33.4889C70.975 33.7067 70.852 33.9225 70.731 34.1403C69.4544 33.021 68.0628 32.0388 66.5905 31.22L66.2295 31.0183L66.294 30.5403L69.1135 27.1319L67.0282 26.2688C66.9253 26.2264 66.77 26.174 66.5542 26.1074L66.5461 23.3484L69.4181 19.9824L67.3004 19.1051C66.2315 18.6614 65.1183 18.2722 63.9888 17.9475V17.5603C63.9888 12.6332 59.9795 8.62384 55.0464 8.62384H54.998H54.9476C50.0205 8.62384 46.0112 12.6332 46.0112 17.5603V17.9475C44.8797 18.2742 43.7665 18.6634 42.6996 19.1051L40.5819 19.9824L43.4518 23.3484L43.4458 26.1074C43.23 26.174 43.0727 26.2264 42.9718 26.2688L40.8865 27.134L43.706 30.5423L43.7705 31.0203L43.4095 31.222C41.9352 32.0408 40.5456 33.023 39.269 34.1423C39.146 33.9265 39.025 33.7087 38.904 33.4909L36.6694 29.4876L35.1548 31.7464C32.5874 35.5722 31.2039 40.0475 31.1494 44.6922L30.5 45.6259L31.1797 46.1039C31.456 52.0313 33.9164 57.6017 38.1194 61.8047C38.4502 62.1354 38.8092 62.4742 39.1904 62.811L39.265 62.8776C38.9221 63.7287 38.5309 64.5152 38.1013 65.2191L37.2321 66.6429L41.8223 69.4463L42.6915 68.0224C43.0767 67.3932 43.4377 66.7135 43.7705 65.9996C45.3597 66.8466 47.0438 67.5102 48.7863 67.974L49.4599 72.9595H60.5401L61.2137 67.974C62.9562 67.5102 64.6423 66.8466 66.2295 65.9996C66.5623 66.7115 66.9233 67.3912 67.3085 68.0224L68.1777 69.4463L72.7679 66.6429L71.8987 65.2191C71.4691 64.5152 71.0779 63.7287 70.735 62.8776L70.8096 62.811C71.1888 62.4742 71.5498 62.1354 71.8806 61.8047V61.8026ZM69.1458 53.2454C69.1861 52.1684 69.3071 51.0834 69.5088 50.0205L69.6339 49.9943C69.886 49.9419 71.3663 49.5466 73.0725 48.9516C72.4695 52.0272 71.1948 54.6955 69.2769 56.8998C69.1438 55.6837 69.0974 54.4575 69.1438 53.2434L69.1458 53.2454ZM71.5498 43.8955C71.9148 43.113 72.3384 42.2781 72.8547 41.3241L73.0402 40.9914C73.1935 41.6871 73.3084 42.393 73.379 43.1029C72.8264 43.3671 72.2053 43.6354 71.5498 43.8975V43.8955ZM64.4749 60.7942C63.6883 61.2641 62.8655 61.6776 62.0205 62.0245L63.4322 51.6219C63.5774 51.5936 63.7246 51.5654 63.8699 51.5372C63.8235 52.0414 63.7892 52.5476 63.771 53.0457C63.6742 55.6393 63.9183 58.3116 64.4749 60.7942ZM64.1966 45.9869L65.4309 36.8932C66.3707 37.5467 67.25 38.2626 68.0043 38.9867C67.1189 40.6384 65.9048 43.0606 65.0376 45.7994C64.7613 45.8639 64.4809 45.9264 64.1966 45.9869ZM56.5045 63.3334C55.484 63.4161 54.514 63.4161 53.4935 63.3334L53.3119 61.6352L54.159 52.364C54.4071 52.3721 54.6793 52.3761 55.002 52.3761C55.3247 52.3761 55.5909 52.3701 55.837 52.364L56.684 61.6352L56.5025 63.3334H56.5045ZM54.998 47.0216H54.9919C54.8548 47.0216 54.7136 47.0216 54.5442 47.0175L55 41.7013L55.4558 47.0175C55.2924 47.0216 55.1472 47.0236 54.998 47.0216ZM44.5671 36.8932L45.8014 45.9869C45.517 45.9264 45.2367 45.8639 44.9604 45.7994C44.0932 43.0606 42.8791 40.6384 41.9937 38.9867C42.748 38.2626 43.6273 37.5467 44.5671 36.8932ZM46.2269 53.0457C46.2088 52.5476 46.1745 52.0414 46.1281 51.5372C46.2733 51.5654 46.4206 51.5956 46.5658 51.6219L47.9775 62.0245C47.1325 61.6776 46.3096 61.2641 45.5231 60.7942C46.0797 58.3116 46.3238 55.6373 46.2269 53.0457ZM36.621 43.1009C36.6936 42.391 36.8065 41.6851 36.9598 40.9893L37.1453 41.3201C37.6616 42.276 38.0852 43.109 38.4502 43.8935C37.8996 43.6757 37.2583 43.4034 36.621 43.0989V43.1009ZM40.3641 49.9943L40.4892 50.0205C40.6909 51.0854 40.8119 52.1684 40.8522 53.2454C40.8966 54.4595 40.8522 55.6857 40.7191 56.9018C38.8011 54.6955 37.5285 52.0272 36.9235 48.9536C38.6297 49.5486 40.112 49.9439 40.3621 49.9963L40.3641 49.9943Z" fill="#223E63"/>
<path d="M71.3138 61.2359C75.4825 57.0672 77.8583 51.5573 78.0358 45.6764L78.3867 45.4283L78.0499 44.9463C78.0438 40.3682 76.7067 35.9595 74.1797 32.1941L73.3931 31.0223L71.7978 33.8822C71.5114 34.3944 71.221 34.9087 70.9306 35.4129C69.5027 34.0475 67.9115 32.8758 66.1992 31.9239L65.3582 31.456L65.5276 30.2076L67.8005 27.4587L66.7195 27.0109C66.5663 26.9484 66.2174 26.8415 65.7515 26.7125L65.7414 23.054L68.0889 20.3031L66.9898 19.8473C65.7495 19.333 64.4789 18.9034 63.1821 18.5566V18.5142C63.1821 18.5142 63.1821 17.8547 63.1821 17.5603C63.1821 13.0689 59.5398 9.42653 55.0484 9.42653C55.0322 9.42653 55.0141 9.42653 54.9979 9.42653C54.9818 9.42653 54.9637 9.42653 54.9475 9.42653C50.4561 9.42653 46.8138 13.0689 46.8138 17.5603C46.8138 17.8567 46.8138 18.5142 46.8138 18.5142V18.5566C45.519 18.9034 44.2484 19.333 43.0081 19.8473L41.909 20.3031L44.2565 23.054L44.2464 26.7125C43.7805 26.8415 43.4296 26.9484 43.2784 27.0109L42.1974 27.4587L44.4703 30.2076L44.6397 31.456L43.7987 31.9239C42.0844 32.8758 40.4952 34.0496 39.0673 35.4129C38.7789 34.9067 38.4865 34.3944 38.2001 33.8822L36.6048 31.0223L35.8182 32.1941C33.2912 35.9595 31.9541 40.3702 31.948 44.9463L31.6112 45.4283L31.9621 45.6764C32.1376 51.5573 34.5134 57.0672 38.6841 61.2359C39.0048 61.5566 39.3537 61.8853 39.7187 62.208L40.2108 62.6436C39.8095 63.7287 39.3295 64.7371 38.7829 65.6345L38.3332 66.3727L41.552 68.3391L42.0017 67.6009C42.512 66.766 42.9779 65.8483 43.3893 64.8661C45.3012 65.9814 47.3523 66.8063 49.5062 67.3266L50.1597 72.1548H59.8362L60.4897 67.3266C62.6436 66.8063 64.6967 65.9814 66.6066 64.8661C67.018 65.8483 67.4839 66.766 67.9942 67.6009L68.4439 68.3391L71.6627 66.3727L71.213 65.6345C70.6644 64.7371 70.1864 63.7287 69.7851 62.6436L70.2772 62.208C70.6422 61.8833 70.9911 61.5566 71.3118 61.2359H71.3138ZM36.7076 38.8919L37.8471 40.9349C38.5913 42.3103 39.3154 43.7503 39.9285 45.2972C39.154 45.033 37.3873 44.3977 35.7719 43.5789C35.8868 41.9735 36.1994 40.4065 36.7076 38.8919ZM41.2817 58.6443C38.2888 55.8107 36.4858 52.1442 35.913 47.7234C38.1214 48.5866 40.3016 49.1614 40.5295 49.2078L41.1748 49.3409C41.437 50.561 41.6064 51.8478 41.6589 53.2131C41.7274 55.0403 41.5943 56.8837 41.2837 58.6423L41.2817 58.6443ZM41.0014 38.8415C42.0663 37.7423 43.476 36.6109 44.9503 35.6751L45.1903 35.5218L46.7472 46.9953C45.9143 46.838 45.1036 46.6646 44.3251 46.473C43.4659 43.595 42.1933 41.0277 40.9994 38.8394L41.0014 38.8415ZM44.6094 61.1734C45.2447 58.598 45.5271 55.8128 45.4242 53.076C45.392 52.2269 45.3173 51.3698 45.2024 50.5187C45.8901 50.676 46.5859 50.8152 47.2817 50.9362L48.9516 63.2406C47.4249 62.7384 45.9708 62.0467 44.6094 61.1734ZM54.9475 32.898H55.0504L56.325 47.7839C55.7038 47.8142 55.361 47.8263 54.9979 47.8242C54.6349 47.8263 54.2921 47.8142 53.6709 47.7839L54.9455 32.898H54.9475ZM49.9882 43.2582L51.2548 36.4193L51.6944 47.673C51.3254 47.6427 50.9502 47.6085 50.567 47.5661L49.9882 43.2582ZM50.9341 51.3415L51.9667 51.4646L52.0373 56.7808L50.9341 51.3415ZM56.6436 68.3814H53.3563L53.2937 67.9155C53.8584 67.9539 54.4252 67.972 55 67.972C55.5747 67.972 56.1435 67.9559 56.7062 67.9155L56.6436 68.3814ZM57.2325 64.0695C56.4581 64.1562 55.722 64.1986 54.9979 64.1986C54.2739 64.1986 53.5378 64.1562 52.7633 64.0695L52.5032 61.6413L53.4269 51.5372C53.9714 51.5553 54.3788 51.5735 54.9939 51.5735C54.9939 51.5735 54.9959 51.5735 54.9979 51.5735C55 51.5735 55 51.5735 55.002 51.5735C55.6151 51.5735 56.0245 51.5533 56.569 51.5372L57.4927 61.6413L57.2325 64.0695ZM57.9606 56.7808L58.0312 51.4646L59.0638 51.3415L57.9606 56.7808ZM59.4308 47.5661C59.0477 47.6085 58.6725 47.6427 58.3035 47.673L58.7431 36.4193L60.0097 43.2582L59.4308 47.5661ZM72.1508 40.9369L73.2902 38.8939C73.7965 40.4085 74.1091 41.9776 74.226 43.5809C72.6106 44.4018 70.8419 45.037 70.0694 45.2992C70.6846 43.7544 71.4086 42.3124 72.1508 40.9369ZM61.0463 63.2406L62.7162 50.9362C63.412 50.8152 64.1078 50.674 64.7955 50.5187C64.6785 51.3698 64.6059 52.2249 64.5737 53.076C64.4728 55.8128 64.7532 58.598 65.3885 61.1734C64.0251 62.0467 62.571 62.7384 61.0463 63.2406ZM65.6708 46.473C64.8923 46.6646 64.0836 46.838 63.2486 46.9953L64.8056 35.5218L65.0456 35.6751C66.5219 36.6109 67.9296 37.7423 68.9945 38.8415C67.8005 41.0297 66.5279 43.597 65.6688 46.475L65.6708 46.473ZM68.7182 58.6443C68.4076 56.8857 68.2765 55.0424 68.3431 53.2151C68.3935 51.8478 68.5649 50.5631 68.8271 49.3429L69.4725 49.2098C69.6983 49.1634 71.8785 48.5886 74.0889 47.7254C73.5161 52.1462 71.7131 55.8128 68.7202 58.6464L68.7182 58.6443Z" fill="#72A3CD"/>
<path d="M77.1382 44.9725C77.1382 40.5275 75.8374 36.2842 73.4152 32.6741L72.5056 34.3016C72.1083 35.0156 71.6989 35.7315 71.3016 36.4233C71.2249 36.5564 71.1483 36.6915 71.0717 36.8267C70.9345 36.6815 70.7974 36.5383 70.6562 36.3971C69.1739 34.9148 67.5161 33.6704 65.7332 32.6781L65.465 34.943C67.0562 35.9514 68.7624 37.3067 70.0108 38.7083C68.5527 41.3382 67.1853 44.0831 66.3201 47.1889C65.0354 47.5197 63.6297 47.8142 62.1897 48.0501L64.6603 29.8445L66.3443 27.8076C65.9208 27.6321 63.1134 26.9141 61.2217 26.4765L61.5343 21.735C61.9538 21.8358 62.3712 21.9448 62.7847 22.0658L62.7927 25.3148C63.4805 25.4883 64.1621 25.6819 64.8378 25.8936L64.8297 22.7353L66.6125 20.6439C65.0193 19.9844 63.3796 19.4621 61.6976 19.0849L61.6936 17.3142V17.3001C61.6633 13.6335 58.6724 10.6608 54.9978 10.6608C51.3232 10.6608 48.3343 13.6335 48.3021 17.3001V17.3102L48.3001 19.087C46.6181 19.4641 44.9784 19.9864 43.3851 20.6459L45.168 22.7374L45.1599 25.8957C45.8355 25.6839 46.5172 25.4923 47.2049 25.3168L47.213 22.0678C47.6285 21.9468 48.0459 21.8399 48.4634 21.737L48.776 26.4785C46.8843 26.9161 44.0789 27.6341 43.6534 27.8096L45.3374 29.8465L47.808 48.0521C46.37 47.8162 44.9623 47.5237 43.6776 47.191C42.8124 44.0851 41.445 41.3402 39.9868 38.7104C41.2352 37.3087 42.9394 35.9534 44.5327 34.945L44.2645 32.6801C42.4816 33.6704 40.8238 34.9168 39.3415 36.3991C39.2003 36.5403 39.0611 36.6835 38.926 36.8287C38.8494 36.6936 38.7727 36.5605 38.6961 36.4253C38.2988 35.7316 37.8894 35.0156 37.4921 34.3037L36.5825 32.6761C34.1603 36.2862 32.8595 40.5295 32.8595 44.9745C32.8595 45.0532 32.8635 45.1318 32.8655 45.2105L32.8595 45.2185C32.8595 45.2185 32.8635 45.2206 32.8655 45.2226C32.9301 51.041 35.2212 56.5045 39.3435 60.6268C39.6682 60.9515 40.001 61.2621 40.3398 61.5626L40.9852 59.5095C37.2783 56.1254 35.322 51.6783 34.957 46.3681C37.5122 47.5298 40.5798 48.3284 40.7512 48.3647C40.5939 47.7617 40.2591 46.715 40.1179 46.2592C40.1179 46.2592 37.2642 45.3617 34.9247 44.0891C35.0356 41.5439 35.6225 39.1218 36.5986 36.9053C36.7075 37.0767 36.8164 37.2542 36.9233 37.4418C37.121 37.7867 37.3166 38.1295 37.5102 38.4724L38.6074 40.4387C40.6867 44.2706 42.3808 48.1913 42.5663 53.1849C42.7418 57.9022 41.6204 62.7243 39.5674 66.0863L41.3119 67.1512C41.9734 66.0702 42.5401 64.8702 43.012 63.5915C45.2507 65.0396 47.6265 66.0621 50.2322 66.6187L50.8574 71.2916H59.1383L59.7635 66.6187C62.3712 66.0621 64.745 65.0396 66.9836 63.5915C67.4556 64.8702 68.0223 66.0702 68.6838 67.1512L70.4283 66.0863C68.3752 62.7243 67.2559 57.9022 67.4293 53.1849C67.6149 48.1913 69.307 44.2706 71.3883 40.4387L72.4854 38.4724C72.6811 38.1295 72.8767 37.7867 73.0723 37.4418C73.1792 37.2542 73.2881 37.0767 73.397 36.9053C74.3732 39.1198 74.96 41.5439 75.071 44.0891C72.7315 45.3617 69.8777 46.2592 69.8777 46.2592C69.7366 46.717 69.4018 47.7637 69.2445 48.3647C69.4159 48.3284 72.4834 47.5298 75.0387 46.3681C74.6737 51.6783 72.7174 56.1254 69.0105 59.5095L69.6559 61.5626C69.9967 61.2621 70.3295 60.9495 70.6522 60.6268C74.7745 56.5045 77.0656 51.043 77.1301 45.2226C77.1301 45.2226 77.1342 45.2206 77.1362 45.2185L77.1301 45.2105C77.1301 45.1318 77.1362 45.0532 77.1362 44.9745L77.1382 44.9725ZM60.1225 26.2365C59.9349 26.1982 59.7776 26.1679 59.6667 26.1518C58.146 25.8513 56.696 25.694 55.137 25.6819L55.2479 20.9485C56.8452 20.9686 58.4405 21.1239 60.0176 21.4143L60.1225 26.2385V26.2365ZM59.9672 17.3586V17.3767L59.9632 18.7481C58.4486 17.3384 57.9867 15.7129 57.8798 14.527C58.503 14.7952 59.0919 15.1562 59.6405 15.5959C59.8502 16.1445 59.9692 16.7354 59.9692 17.3565L59.9672 17.3586ZM57.8798 13.3189C58.497 13.7606 59.0112 14.3374 59.3743 15.009C58.8943 14.6682 58.386 14.3838 57.8556 14.166C57.8435 13.8251 57.8597 13.5388 57.8798 13.3189ZM55.4355 12.8954C55.4395 12.732 55.4657 12.5727 55.5081 12.4174C56.1172 12.4799 56.694 12.6574 57.2183 12.9216C57.2183 13.2161 57.2304 13.565 57.2728 13.9583C56.6758 13.7707 56.0546 13.6658 55.4173 13.6497L55.4355 12.8974V12.8954ZM57.3212 14.3193C57.5208 15.6201 58.0714 17.2577 59.4529 18.6715C58.0976 18.4739 56.7141 18.367 55.3084 18.3508L55.4093 13.9845C56.0687 14.0006 56.7081 14.1156 57.3212 14.3193ZM52.7794 12.9216C53.3037 12.6574 53.8785 12.4799 54.4896 12.4174C54.534 12.5727 54.5582 12.7341 54.5622 12.8954L54.5804 13.6779C53.931 13.7425 53.3017 13.8998 52.7007 14.1418C52.7632 13.6759 52.7814 13.2604 52.7794 12.9216ZM52.1199 13.3189C52.1461 13.5872 52.1622 13.9603 52.13 14.4019C51.4947 14.7226 50.8977 15.1381 50.3451 15.6342C50.694 14.6964 51.3172 13.8917 52.1179 13.3169L52.1199 13.3189ZM50.1716 16.209C50.7565 15.6302 51.3999 15.1461 52.0916 14.7811C51.9444 15.9367 51.4422 17.4352 50.0365 18.7461L50.0325 17.3646V17.3525C50.0325 16.9592 50.0849 16.5781 50.1716 16.209ZM52.6442 14.5189C53.2634 14.2547 53.9148 14.0853 54.5904 14.0167L54.6913 18.3528C53.2876 18.369 51.9061 18.4759 50.5508 18.6735C51.8597 17.3303 52.4224 15.7855 52.6442 14.5209V14.5189ZM49.9801 21.4123C51.5552 21.1219 53.1525 20.9666 54.7498 20.9464L54.8607 25.6799C53.3017 25.692 51.8516 25.8493 50.331 26.1498C50.22 26.1659 50.0648 26.1962 49.8752 26.2345L49.9801 21.4103V21.4123ZM47.3179 29.1992C47.8523 29.0459 48.3908 28.9108 48.9313 28.7897L49.5989 38.8919L49.8227 28.6062C51.5047 28.2856 53.2089 28.1182 54.9151 28.104L54.9978 31.6475L55.0805 28.104C56.7867 28.1161 58.4909 28.2856 60.1729 28.6062L60.3968 38.8919L61.0643 28.7897C61.6048 28.9108 62.1433 29.0459 62.6778 29.1992L60.1023 48.3466C58.4607 48.5463 56.46 48.6632 54.9998 48.6632C54.9998 48.6632 54.9978 48.6632 54.9958 48.6632C54.9938 48.6632 54.9938 48.6632 54.9918 48.6632C53.5336 48.6632 51.531 48.5483 49.8893 48.3466L47.3139 29.1992H47.3179ZM43.6655 61.5525C44.3835 58.9126 44.7162 56.0185 44.6093 53.1082C44.5609 51.7993 44.4137 50.559 44.1898 49.3691C45.4786 49.7059 46.7855 49.9782 48.1024 50.1879L50.0365 64.4426C47.7273 63.8537 45.5794 62.8635 43.6655 61.5525ZM57.418 69.2466H52.5817L52.3236 66.9555C53.1807 67.0544 54.1205 67.1088 54.9958 67.1088C54.9958 67.1088 54.9978 67.1088 54.9998 67.1088C55.0019 67.1088 55.0019 67.1088 55.0039 67.1088C55.8792 67.1088 56.819 67.0564 57.6761 66.9555L57.418 69.2466ZM57.9887 64.854C57.0469 64.9892 55.982 65.0638 55.0019 65.0638C55.0019 65.0638 54.9999 65.0638 54.9978 65.0638C54.9958 65.0638 54.9958 65.0638 54.9938 65.0638C54.0157 65.0638 52.9488 64.9892 52.0069 64.854L50.0668 50.4683C51.9303 50.6679 53.9047 50.7062 54.9938 50.7062C54.9938 50.7062 54.9958 50.7062 54.9978 50.7062C54.9999 50.7062 54.9998 50.7062 55.0019 50.7062C56.0909 50.7062 58.0634 50.6679 59.9289 50.4683L57.9887 64.854ZM59.9612 64.4426L61.8953 50.1879C63.2142 49.9782 64.5191 49.7059 65.8078 49.3691C65.584 50.557 65.4368 51.7993 65.3883 53.1082C65.2794 56.0205 65.6122 58.9126 66.3322 61.5525C64.4183 62.8635 62.2704 63.8537 59.9612 64.4426Z" fill="#223E63"/>
<path d="M61.2802 80.5789H55.8066V92.3732H58.5374V83.6848C58.5374 83.4791 58.7048 83.3097 58.9105 83.3097H61.1451C61.4375 83.3097 61.8752 83.4912 62.0809 83.6969L62.1999 83.8159C62.4056 84.0216 62.5871 84.4593 62.5871 84.7517V92.3732H65.3178V84.6186C65.3178 82.392 63.5068 80.5789 61.2782 80.5789H61.2802Z" fill="#223E63"/>
<path d="M64.0976 92.3732H63.8274V84.6973C63.8274 83.2492 62.6496 82.0694 61.1995 82.0694H57.3152V92.3732H57.0449V81.8011H61.1995C62.7968 81.8011 64.0956 83.1 64.0956 84.6993V92.3752L64.0976 92.3732Z" fill="#72A3CD"/>
<path d="M41.223 83.3101L41.231 84.2883H43.9618V80.5794H35.699C35.0092 80.5794 34.4506 81.1381 34.4506 81.8278V85.3895H34.4606C34.4606 85.456 34.4606 85.4943 34.4606 85.4963C34.4788 86.2728 35.0455 86.7851 35.7716 87.0694L40.6139 87.9871L40.6421 87.9992C40.9588 88.1202 41.231 88.2271 41.231 88.7958V89.2677C41.231 89.4735 41.0636 89.6409 40.8579 89.6409L37.1793 89.6247L37.1752 88.693H34.4506V92.3716H42.7134C43.4031 92.3716 43.9638 91.8129 43.9638 91.1232V87.5615H43.9557C43.9557 87.5252 43.9557 87.5051 43.9557 87.501C43.873 86.7367 43.3688 86.0852 42.6367 85.8029L37.7884 84.9599L37.748 84.9437C37.4334 84.8227 37.1853 84.7279 37.1853 84.1572V83.3101H41.229H41.223Z" fill="#223E63"/>
<path d="M41.8041 91.1389H35.7134V88.6925H35.9836V90.8687H41.8061C42.1389 90.8687 42.4071 90.5984 42.4071 90.2677V88.1097C42.4071 87.662 42.1409 87.2626 41.7295 87.0872L36.5221 85.9174C36.032 85.6996 35.7154 85.2136 35.7154 84.6771V82.6361C35.7154 82.1743 36.0905 81.7991 36.5524 81.7991H42.6774V84.2879H42.4071V82.0694H36.5524C36.2398 82.0694 35.9836 82.3235 35.9836 82.6381V84.6791C35.9836 85.1047 36.2317 85.4919 36.6189 85.6694L41.8122 86.8351C42.3466 87.0589 42.6774 87.5571 42.6774 88.1117V90.2697C42.6774 90.7497 42.2861 91.1409 41.8061 91.1409L41.8041 91.1389Z" fill="#72A3CD"/>
<path d="M47.3462 80.5729C46.1462 80.5729 45.1741 81.545 45.1741 82.745V92.3671H52.5152C53.7152 92.3671 54.6873 91.395 54.6873 90.195V80.5729H47.3462ZM51.9565 88.8639C51.9565 89.3056 51.5976 89.6646 51.1559 89.6646H47.9048V84.0761C47.9048 83.6344 48.2638 83.2754 48.7055 83.2754H51.9565V88.8639Z" fill="#223E63"/>
<path d="M51.8093 91.1389H46.4305V83.3621C46.4305 82.501 47.1324 81.7991 47.9936 81.7991H53.457V89.4912C53.457 90.3987 52.7189 91.1369 51.8113 91.1369L51.8093 91.1389ZM46.6988 90.8707H51.8093C52.5676 90.8707 53.1868 90.2535 53.1868 89.4932V82.0694H47.9915C47.2776 82.0694 46.6988 82.6502 46.6988 83.3621V90.8707Z" fill="#72A3CD"/>
<path d="M68.5609 80.5729C67.3609 80.5729 66.3888 81.545 66.3888 82.745V92.3671H73.7299C74.9299 92.3671 75.902 91.395 75.902 90.195V80.5729H68.5609ZM73.1713 88.8639C73.1713 89.3056 72.8123 89.6646 72.3706 89.6646H69.1195V84.0761C69.1195 83.6344 69.4785 83.2754 69.9202 83.2754H73.1713V88.8639Z" fill="#223E63"/>
<path d="M73.038 91.1389H67.6451V83.4025C67.6451 82.5191 68.3631 81.8011 69.2485 81.8011H74.6716V89.5073C74.6716 90.4068 73.9396 91.1389 73.0401 91.1389H73.038ZM67.9134 90.8707H73.038C73.7903 90.8707 74.4014 90.2596 74.4014 89.5073V82.0694H69.2465C68.5124 82.0694 67.9134 82.6664 67.9134 83.4025V90.8707Z" fill="#72A3CD"/>
<path d="M36.2275 95.9953H34.4487L34.6726 96.8444V97.7782C34.6726 98.4457 34.8642 98.6797 35.2655 98.8229L36.3001 99.1819C36.5422 99.2645 36.5764 99.3815 36.5764 99.674V100.638C36.4837 100.662 36.3849 100.672 36.2598 100.672C35.9008 100.672 35.8181 100.406 35.8181 99.8716V99.7082H34.6746V99.9624C34.6746 100.791 34.8481 101.366 36.1449 101.374H37.724V99.4662C37.724 98.6151 37.3065 98.4316 36.9818 98.3227L36.0884 98.0303C35.8968 97.9637 35.8201 97.8709 35.8201 97.6471V96.7335C35.9129 96.7093 36.0117 96.6992 36.1368 96.6992C36.4958 96.6992 36.5785 96.9654 36.5785 97.4999V97.6632H37.722V97.4091C37.722 96.5742 37.5385 95.9973 36.2275 95.9973V95.9953Z" fill="#223E63"/>
<path d="M74.4498 95.9953H72.671L72.8949 96.8444V97.7782C72.8949 98.4457 73.0865 98.6797 73.4878 98.8229L74.5224 99.1819C74.7644 99.2645 74.7987 99.3815 74.7987 99.674V100.638C74.706 100.662 74.6071 100.672 74.4821 100.672C74.1231 100.672 74.0404 100.406 74.0404 99.8716V99.7082H72.8969V99.9624C72.8969 100.791 73.0703 101.366 74.3671 101.374H75.9463V99.4662C75.9463 98.6151 75.5288 98.4316 75.2041 98.3227L74.3107 98.0303C74.1191 97.9637 74.0424 97.8709 74.0424 97.6471V96.7335C74.1352 96.7093 74.234 96.6992 74.3591 96.6992C74.7181 96.6992 74.8008 96.9654 74.8008 97.4999V97.6632H75.9443V97.4091C75.9443 96.5742 75.7607 95.9973 74.4498 95.9973V95.9953Z" fill="#223E63"/>
<path d="M45.287 99.2847C45.1862 99.3089 45.0289 99.319 44.9704 99.319C44.5953 99.319 44.5287 99.0185 44.5287 98.4498V95.9893H43.3852H43.1633L43.3852 96.8242V98.7059C43.3852 99.5408 43.728 99.8655 44.3371 99.9744V101.37H45.4806V99.9744C45.5734 99.9644 45.6662 99.9502 45.7589 99.9361C46.1462 99.8756 46.4326 99.5408 46.4326 99.1476V95.9852H45.289V99.2807L45.287 99.2847Z" fill="#223E63"/>
<path d="M49.2379 95.9953H49.1955C49.1955 95.9953 49.1935 95.9953 49.1915 95.9953H47.449L47.6688 96.8242V99.9785C47.6688 101.114 48.2678 101.362 49.137 101.372H49.1955H50.7142V98.9519H49.2701V99.6699H49.5706V100.043C49.5706 100.511 49.4617 100.652 49.1955 100.652C48.9293 100.652 48.8123 100.511 48.8123 100.043V97.3304C48.8123 96.8626 48.9293 96.7133 49.1955 96.7133C49.4617 96.7133 49.5706 96.8646 49.5706 97.3304V98.0565H50.7142V97.3304C50.7142 96.3785 50.3128 95.9953 49.2359 95.9953H49.2379Z" fill="#223E63"/>
<path d="M53.8543 100.638C53.7616 100.662 53.6627 100.672 53.5377 100.672C53.1787 100.672 53.096 100.406 53.096 99.8716V95.9913H51.9525H51.7246L51.9505 96.8424V100.089C51.9505 101.104 52.497 101.368 53.4187 101.374H54.9979V95.9913H53.8543V100.64V100.638Z" fill="#223E63"/>
<path d="M57.8879 95.9953C57.8879 95.9953 57.8737 95.9953 57.8657 95.9953H56.1232L56.343 96.8242V101.372H57.4865V96.7294C57.5793 96.7052 57.6781 96.6951 57.8032 96.6951C58.1621 96.6951 58.2448 96.9613 58.2448 97.4958V101.37H59.3884V97.278C59.3884 96.2514 58.8297 95.9913 57.8858 95.9913L57.8879 95.9953Z" fill="#223E63"/>
<path d="M62.2804 95.9953C62.2804 95.9953 62.2663 95.9953 62.2583 95.9953H60.5157L60.7356 96.8242V101.372H61.8791V96.7294C61.9719 96.7052 62.0707 96.6951 62.1957 96.6951C62.5547 96.6951 62.6374 96.9613 62.6374 97.4958V101.37H63.7809V97.278C63.7809 96.2514 63.2223 95.9913 62.2784 95.9913L62.2804 95.9953Z" fill="#223E63"/>
<path d="M65.1282 95.9953H64.9083L65.1282 96.8283V101.372H67.5745V100.654H66.2717V98.8894H67.3668V98.1715H66.2717V96.7133H67.5745V95.9953H65.1282Z" fill="#223E63"/>
<path d="M70.263 95.9953H68.6354H68.4176L68.6354 96.8141V101.37H69.7789V99.8958H70.1299C70.4223 99.8958 70.5393 100.037 70.5393 100.497V101.37H71.6828V100.598C71.6828 100.063 71.5739 99.7203 71.2492 99.5287C71.5416 99.3371 71.6828 99.0286 71.6828 98.4518V97.2961C71.6828 96.3603 71.2411 95.9933 70.263 95.9933V95.9953ZM70.5393 98.5707C70.5393 99.0386 70.4223 99.1798 70.1299 99.1798H69.7789V96.7133H70.1218C70.4142 96.7133 70.5393 96.8545 70.5393 97.3224V98.5707Z" fill="#223E63"/>
<path d="M42.5926 101.376L41.2575 99.1234L42.5221 95.9933H41.3221L40.1281 98.9055V98.8914V98.1734V95.9933H38.9826H38.7607L38.9826 96.8363V101.376H40.1281V99.4864L41.2071 101.376H42.5926Z" fill="#223E63"/>
</svg>
