<svg viewBox="0 0 110 110" fill="none" xmlns="http://www.w3.org/2000/svg">
<path d="M48.7397 75.4839C48.8474 75.1946 48.9335 74.8592 48.9828 74.4653C49.2259 72.5606 48.5581 69.1881 44.0009 63.8185C43.8809 63.6616 32.5017 48.8883 46.201 32.3857C43.5332 33.4597 41.0223 34.9582 38.7513 36.8629C33.1325 41.574 29.6954 48.1929 29.0615 55.5011C28.883 57.5443 28.9323 59.5567 29.1907 61.5384L29.2738 61.5076C35.0773 68.5973 41.5915 73.2683 48.7397 75.4839Z" fill="#F1932F"/>
<path d="M47.7735 76.9147C47.7951 76.8993 48.0166 76.727 48.272 76.3762C42.0439 74.2346 35.545 70.0251 29.3539 62.5815C30.0832 66.8495 31.8248 70.8897 34.4896 74.4069L34.5265 74.3607C34.6034 74.4192 42.9117 80.5765 47.7766 76.9117L47.7735 76.9147Z" fill="#F1932F"/>
<path d="M45.1548 62.8831C47.3611 65.4802 48.8873 67.8649 49.7335 70.0251V31.2411C48.8873 31.4534 48.0473 31.7057 47.2257 32.0042C33.7325 47.7898 44.7178 62.3107 45.1548 62.8831Z" fill="#F1932F"/>
<path d="M49.7335 76.8563C49.2289 77.7148 48.6658 78.1117 48.6443 78.124C44.1424 81.5119 38.0897 77.6471 35.5111 75.687C39.1944 80.0041 44.004 83.0228 49.3889 84.4352C49.4843 84.2875 49.5982 84.109 49.7305 83.8998V76.8563H49.7335Z" fill="#F1932F"/>
<path d="M50.4536 74.7207C50.3951 75.1546 50.2967 75.5485 50.1736 75.8931C51.2906 76.1885 52.4168 76.4224 53.5646 76.5947C57.8079 67.0433 62.7098 50.1099 56.734 30.4225C54.3492 30.3948 52.0014 30.6718 49.7305 31.2411V70.0251C50.4013 71.739 50.6444 73.3083 50.4536 74.7207Z" fill="#F1932F"/>
<path d="M76.4983 56.3196C74.2151 66.5017 64.7499 71.2467 63.9191 71.6528C60.8974 73.2622 59.4388 75.2069 59.0142 76.9855C60.6235 76.9793 62.2667 76.8593 63.9314 76.6347C72.5012 75.4777 79.0431 71.6867 80.7602 70.6005C82.4126 67.4341 83.4434 63.9354 83.7634 60.2644C84.7327 49.0945 78.84 38.8815 69.5841 33.7981C75.6152 42.0233 78.1292 49.0483 76.4922 56.3165L76.4983 56.3196Z" fill="#F1932F"/>
<path d="M49.7335 76.8562V83.8998C50.4597 82.7397 51.7152 80.6011 53.0845 77.6501C51.9829 77.4471 50.8659 77.1793 49.7366 76.847C49.7366 76.847 49.7305 76.8532 49.7305 76.8562H49.7335Z" fill="#F1932F"/>
<path d="M57.4356 78.9241C57.3956 78.6841 57.3679 78.4379 57.3587 78.1886C56.4171 78.1333 55.4662 78.0348 54.5 77.8902C53.0353 81.195 51.6722 83.5582 50.9121 84.786C51.9368 84.9922 52.9799 85.1429 54.0292 85.2383C57.1771 85.506 60.2912 85.2476 63.2606 84.4875C61.3528 83.8321 58.011 82.2566 57.4356 78.921V78.9241Z" fill="#F1932F"/>
<path d="M58.8787 78.2532C58.8848 78.4133 58.8941 78.5702 58.9156 78.724C59.3033 81.7304 63.3836 83.6474 64.5283 84.1275C67.9808 83.0659 71.2179 81.3088 74.0673 78.9087C76.0675 77.2347 77.7845 75.3177 79.2031 73.216C75.3228 75.2654 67.8331 78.444 58.8756 78.2532H58.8787Z" fill="#F1932F"/>
<path d="M54.9831 76.7824C55.7862 76.8686 56.6016 76.9301 57.4202 76.964C57.7617 74.6838 59.3988 72.2437 63.1005 70.4097L63.1467 70.3697L63.199 70.3512C63.3067 70.302 73.0335 65.5294 75.3721 55.8365C77.0214 49.0545 74.7474 41.4725 68.6086 33.2873C65.6238 31.8011 62.3128 30.838 58.7926 30.5303C58.3279 30.4902 57.8633 30.4626 57.3986 30.4441C63.5621 50.1223 59.0972 67.0126 54.9769 76.7855L54.9831 76.7824Z" fill="#F1932F"/>
<path d="M49.7335 76.847V76.8596C49.7335 76.8596 49.7398 76.8533 49.7398 76.8502H49.7335V76.847Z" fill="#F1932F"/>
<path d="M64.5902 84.8851V84.8783C64.5902 84.8783 64.5902 84.8817 64.5868 84.8817H64.5902V84.8851Z" fill="#F1932F"/>
<path d="M14.1959 37.067C21.144 42.7525 21.2763 48.2789 21.2763 48.2789C21.2763 48.3706 18.3592 64.8672 18.3192 65.0813C17.0207 70.522 6.5 80.067 6.5 80.067C10.0602 78.859 34.5418 70.3508 45.1671 70.152C46.2194 70.5954 47.3518 70.9471 48.5519 71.1765C49.515 71.3692 50.5151 71.4854 51.5244 71.5313C52.9276 71.5924 55.0292 71.3264 57.9371 70.7086C59.1987 70.6413 60.1096 70.7728 60.4142 70.9257C63.0297 72.2408 66.8638 73.8984 70.3133 74.3816C72.0795 74.7303 74.1566 74.9872 76.6398 74.5284C76.6398 74.5284 78.2707 74.1523 79.0031 73.8801C79.9385 73.5253 81.7355 72.8586 81.7355 72.8586C85.0773 71.7698 89.656 71.4242 93.4347 72.6047C88.3729 69.5495 87.4774 67.7023 88.3729 63.5613C89.2437 59.5641 86.662 57.3131 86.662 57.3131C92.5824 43.9574 103.5 42.936 103.5 42.936C89.696 38.2414 82.4525 41.2845 78.2122 43.095C72.4088 45.5753 76.1567 42.832 76.1567 42.832C69.4117 45.1502 60.1465 50.2209 60.1465 50.2209C60.1465 50.2209 52.9552 45.6089 45.2778 46.4867C49.3458 48.6887 48.0226 49.6582 44.8778 48.1351C44.8778 48.1351 27.9998 40.2355 14.1897 37.067H14.1959Z" fill="#221E1F"/>
<path d="M91.6221 42.3525C88.5731 42.1611 85.0622 42.6959 81.9031 43.638C78.8265 44.5558 75.2882 46.133 72.6398 48.2907C72.6398 48.2907 68.0188 51.9891 68.5937 57.5474C68.8659 62.8717 77.5207 62.7775 75.8601 67.0533C75.0527 69.1137 72.6214 69.3842 71.1076 69.1958C71.1076 69.1958 67.0524 69.0073 66.5325 65.6706C66.8322 61.5193 67.3154 55.4171 67.5478 52.4814C67.557 52.4814 67.5631 52.4693 67.5631 52.4693C67.5631 49.1993 72.1504 46.3549 72.1504 46.3549C62.2021 50.4058 60.8473 52.1411 60.8473 52.1411L59.6148 66.9682C58.786 66.561 58.0307 66.2692 58.0307 64.9929L58.6576 58.8511L51.3393 58.3223C51.3393 58.3223 53.2079 59.1824 52.9387 61.2975C52.9387 61.2975 52.376 65.16 52.217 65.9593C50.7582 65.9866 49.642 65.5672 48.8866 64.7072C47.4982 63.1269 47.6755 60.5256 47.911 59.1125C48.2199 57.2344 49.0181 55.7696 50.22 54.8609C51.3485 54.0131 52.7919 53.6849 54.5045 53.8915C56.8777 54.1711 58.734 56.3288 58.734 56.3288C58.734 56.3288 59.832 53.2138 59.0276 51.7885C58.2233 50.3602 49.6083 48.0506 49.6083 48.0506C49.6083 48.0506 53.0305 49.4485 50.5074 50.2447C48.2811 50.5699 46.2229 51.3813 44.5378 52.6425C43.3573 53.5299 42.4154 54.6057 41.7212 55.8243C41.1982 56.0796 40.3389 56.4047 39.7119 56.1616L33.3814 55.0919L34.0053 49.3908L39.241 51.0653C41.394 52.1107 40.6355 53.0983 40.6355 53.0983L44.0944 50.0989C44.0944 50.0989 29.892 43.6076 20.2342 41.067C20.2342 41.067 24.7022 44.1911 24.0355 48.163C24.0355 48.163 21.5217 63.1482 21.0843 65.7435C20.3901 69.9038 15.5214 74.207 14.5 75.067C19.5491 73.3531 35.0451 68.3904 45.5134 68.3236C46.5287 68.7885 47.6572 69.1502 48.8866 69.3903C49.7368 69.5544 50.6298 69.6638 51.5625 69.7063C53.0488 69.7762 55.4893 69.3507 57.6117 68.8979C58.4313 68.8463 60.1775 68.8037 61.1776 69.3082C63.4896 70.466 67.239 72.1314 70.4929 72.566C72.8385 73.0401 75.3126 73.2042 78.3953 72.0889C81.5361 70.9432 84.0744 68.6882 85.4476 65.8073C86.8758 62.8109 86.3436 60.6745 84.4903 58.8238C83.0193 57.3559 81.0682 56.739 79.1354 56.0917C78.9733 56.037 76.9151 55.3016 76.802 53.7912C76.6552 51.9678 79.8113 51.4117 80.7318 51.2537C83.2334 50.8313 84.8359 51.8311 86.4415 52.8522C88.5241 49.8284 93.8393 43.8052 97.5 43.0728C96.8272 42.936 95.0014 42.5075 91.616 42.3616L91.6221 42.3525ZM37.8342 66.0565L32.1796 66.1416L32.9869 58.7508L37.4764 59.0912C39.507 59.155 40.1798 60.1548 40.4 60.8447C40.3878 62.0663 40.6172 63.1877 41.0667 64.1875C40.66 65.0293 39.77 66.0595 37.8342 66.0595V66.0565Z" fill="url(#paint0_linear_1876_68398)"/>
<path d="M58.8591 57.5967L59.5245 51.5091C54.4027 47.4711 47.7608 47.1137 47.7608 47.1137C51.1092 48.5371 50.7979 49.2732 50.7979 49.2763C50.7917 49.3129 50.749 49.5237 50.3064 49.5695C45.8012 49.9635 42.7793 52.74 41.9186 54.3834C41.1524 55.764 39.7544 55.5196 39.7544 55.5196C39.7544 55.5196 34.4861 54.6155 33.7902 54.4964C33.8543 53.8733 34.2266 50.4797 34.3121 49.6886C35.124 49.9513 38.5335 51.0112 38.5335 51.0112C40.777 51.7107 40.6122 54.3772 40.6122 54.3772C42.4741 51.1731 45.3647 49.7833 45.3647 49.7833C45.2212 49.7161 29.5077 42.5167 19.3525 40.067C19.3525 40.067 23.2962 44.0043 23.0703 47.8193L20.1309 65.4894C20.1309 65.4894 18.8642 71.412 12.5 76.067C17.0724 74.5001 34.8829 68.6722 45.3525 68.5775C46.3719 69.0448 47.5044 69.4022 48.7161 69.6404C49.6013 69.8115 50.5231 69.9215 51.448 69.9642C52.7147 70.0222 54.772 69.7473 57.5588 69.1487C58.27 69.1059 59.961 69.057 60.8706 69.5183C63.3796 70.7889 67.0486 72.3956 70.281 72.8324C72.4238 73.263 74.8229 73.5441 78.3118 72.3345C81.7395 71.1341 84.45 68.8157 85.9457 65.804C87.4291 62.8198 87.0812 60.4312 84.859 58.2961C83.3054 56.8086 80.0302 55.7334 79.3404 55.4707C78.4308 55.1225 76.6452 54.7529 76.9779 53.3784C77.3258 51.9367 79.3404 51.2067 80.7475 51.1884C83.3787 51.1578 84.9781 52.0711 86.5348 53.5861C88.7172 48.6868 95.3897 43.4422 98.5 42.8161C95.6369 41.8631 91.4674 41.6187 91.4674 41.6187C88.5463 41.5454 85.0483 41.8997 81.6205 42.9321C79.493 43.5705 75.7234 45.0367 72.6405 47.6849C72.4512 47.8285 67.6621 51.6038 68.2298 57.3676C68.3702 60.2479 70.7144 61.6377 72.7839 62.8565C75.0061 64.1668 75.9767 64.9946 75.3143 66.7234C74.4658 68.9135 71.5905 68.6752 71.0197 68.6019H70.9861C70.8365 68.5989 66.8288 68.3515 66.8288 65.8315C67.1279 61.7355 67.8391 52.2483 67.8391 52.2483C67.8391 52.2483 68.0986 48.9189 73.0922 45.2871C64.3656 48.6196 60.3151 51.674 60.3151 51.674C60.3151 51.674 59.2315 64.1699 59.1308 65.4405C58.3616 65.1229 58.3646 64.2249 58.3616 63.5284C58.3677 63.4582 59.0117 58.2289 59.0117 58.2289L50.5231 57.8074C50.6086 57.8319 52.4278 59.2186 52.4278 60.7733C52.4278 60.8558 52.4248 60.9444 52.4125 61.0299C52.4064 61.0574 51.9639 64.1088 51.7593 65.3306C50.6086 65.2848 49.7143 64.9274 49.1099 64.234C48.3041 63.3085 48.0813 61.9768 48.0813 60.7825C48.0813 60.0922 48.1545 59.4477 48.2369 58.9559C48.5269 57.1813 49.2686 55.7945 50.3797 54.9545C51.4144 54.1695 52.7514 53.8702 54.3508 54.0626C54.3508 54.0626 58.2639 54.7132 58.85 57.5936L58.8591 57.5967ZM22.1302 41.7562C30.5577 44.2517 41.3173 48.8456 43.5302 49.8475C41.9705 50.831 40.9174 52.2758 40.9174 52.2758C40.6976 50.8585 38.8052 50.2507 38.8052 50.2507L33.5887 48.5554L32.8653 55.1958L39.5438 56.3352C39.5438 56.3352 41.4485 56.7109 42.3398 55.3394C43.0021 54.1604 43.6004 53.577 44.7267 52.7278C46.317 51.5213 48.3132 50.7149 50.4926 50.3973C51.7838 50.2445 51.6525 49.2732 51.6525 49.2732C51.6525 48.9189 51.2862 48.5493 50.691 48.2164C56.4813 49.7833 58.734 51.7718 58.734 51.7718L58.3921 55.2447C58.3921 55.2447 56.814 53.5312 54.4668 53.2196C52.6384 52.9997 51.097 53.3601 49.8791 54.2795C48.591 55.2539 47.7394 56.8239 47.4128 58.8184C47.1717 60.3121 46.9855 63.0733 48.4872 64.796C49.3236 65.7552 50.5506 66.2286 52.1378 66.2011L52.4828 66.195L52.5469 65.859C52.7056 65.0526 53.2489 61.3048 53.2733 61.146C53.2886 61.0207 53.2977 60.9016 53.2977 60.7825C53.2977 59.8845 53.0505 59.1331 52.5163 58.626C54.4607 58.739 57.4825 58.9926 58.093 59.0292C58.0167 59.7898 57.5649 64.4631 57.5649 64.4631C57.5649 65.7032 58.5661 66.2958 59.7596 66.8761C59.7596 66.8761 61.1209 52.4865 61.1514 52.1139C61.7039 51.7168 63.7887 50.0857 69.6187 47.5138C68.1749 48.7753 67.1768 50.1926 67.0242 52.2177L66.0016 65.9384C66.0016 69.0906 70.6137 69.4327 70.9495 69.4541C72.9091 69.6893 75.293 69.1762 76.1232 67.0258C77.0908 64.5303 75.2197 63.3024 73.2174 62.1142C71.2364 60.9444 69.1913 59.7378 69.0723 57.3034C68.5534 52.0039 73.1258 48.3935 73.1716 48.3569C75.3601 46.4814 78.3758 44.8045 81.883 43.7477C85.2223 42.7458 88.6134 42.2968 91.4369 42.474H91.443C93.2347 42.5534 94.5777 42.7153 95.5453 42.8619C92.8562 43.8943 88.6592 47.6238 86.2082 51.7107C84.157 50.4523 82.5637 50.0155 80.5064 50.1987C79.5144 50.2904 76.4101 50.9685 75.9431 53.4823C75.6409 55.0798 77.7806 55.8128 79.087 56.3291C80.192 56.7658 82.7071 57.5478 84.0471 58.8979C85.906 60.7672 86.1777 62.7862 84.9231 65.4344C83.5893 68.2445 81.1779 70.4132 78.1195 71.5312C74.9877 72.6705 72.4909 72.4047 70.4642 71.9954H70.4489L70.4367 71.9924C67.3141 71.5739 63.7307 70.0039 61.2766 68.7608C60.2052 68.2171 58.4501 68.2415 57.4947 68.3026H57.4672L57.4367 68.3117C54.7415 68.8921 52.6903 69.1701 51.5091 69.1151C50.6239 69.0693 49.7478 68.9685 48.9023 68.8035C47.718 68.5683 46.6192 68.2232 45.6333 67.7619L45.5478 67.7192H45.4532C36.0062 67.7803 22.3713 71.8824 16.2483 73.8892C18.1163 72.0565 20.9581 68.8188 21.4922 65.6238L24.4347 47.9537C25.0085 44.997 22.1454 41.7562 22.1454 41.7562H22.1302Z" fill="white"/>
<path d="M32.374 58.5098L31.5 67.067L37.7395 66.9646L37.7333 66.9712C39.923 66.9712 40.9432 65.7256 41.4129 64.675L41.5 64.4833L41.416 64.2884C40.9806 63.2576 40.7659 62.0979 40.7784 60.8424V60.7664L40.7566 60.697C40.5171 59.9007 39.7613 58.5527 37.3818 58.4734C37.4005 58.4734 32.8375 58.1034 32.8375 58.1034L32.4207 58.067L32.374 58.5098ZM33.1921 59.0483C33.8826 59.1078 37.3351 59.3886 37.3351 59.3886C39.0614 59.4514 39.6866 60.2444 39.9106 60.9184C39.9137 62.1838 40.1345 63.3633 40.5482 64.4338C40.007 65.4944 39.0645 66.0395 37.7364 66.0395C37.7364 66.0395 33.2885 66.1122 32.4704 66.1221C32.5575 65.2697 33.1174 59.7818 33.1952 59.0417L33.1921 59.0483Z" fill="white"/>
<path d="M39.5312 61.067C39.5312 61.067 38.7926 66.0213 44.5 67.067C44.5 67.067 40.9696 66.1493 40.4289 61.1076" fill="white"/>
<path d="M68.5 68.3256C68.5 68.3256 64.5375 66.9475 63.5 65.067C63.5 65.067 64.3445 67.9576 68.4357 69.067L68.5 68.3283V68.3256Z" fill="white"/>
<path d="M69.8302 43.7188C70.4549 43.7188 71.0672 43.2111 71.1934 42.5833L73.8674 28.1609C73.9966 27.5393 73.5905 27.0285 73.0212 27.0285H43.6224C42.9424 27.0285 42.3362 27.5362 42.2039 28.1609L39.2683 42.5833C39.136 43.2111 39.5452 43.7188 40.1699 43.7188H69.8364H69.8302Z" fill="#1D4D9C"/>
<path d="M52.983 32.9642L51.8414 38.5215C51.8414 38.5215 51.066 41.7186 55.2786 41.7186C55.2786 41.7186 58.9803 41.8448 60.0019 38.9L60.3404 37.2537H57.4541L57.1864 38.5615C57.1864 38.5615 56.9033 39.6539 55.7155 39.5739C55.7155 39.5739 54.4877 39.7 54.7585 38.6908L55.9309 32.9642C55.9309 32.9642 55.9617 32.0165 57.291 31.9119C57.291 31.9119 58.4911 31.9119 58.3649 32.835L58.0695 34.2689H60.9558L61.2482 32.835C61.2482 32.835 61.8174 29.761 57.7095 29.8471C57.7095 29.8471 53.7677 30.0133 52.9861 32.9642H52.983Z" fill="white"/>
<path d="M61.7744 32.9642L60.6327 38.5215C60.6327 38.5215 59.8573 41.7186 64.0668 41.7186C64.0668 41.7186 67.7686 41.8448 68.7933 38.9L69.1287 37.2537H66.2393L65.9746 38.5615C65.9746 38.5615 65.6854 39.6539 64.5038 39.5739C64.5038 39.5739 63.276 39.7 63.5406 38.6908L64.7161 32.9642C64.7161 32.9642 64.7469 32.0165 66.0762 31.9119C66.0762 31.9119 67.2793 31.9119 67.147 32.835L66.8547 34.2689H69.741L70.0333 32.835C70.0333 32.835 70.6026 29.761 66.4977 29.8471C66.4977 29.8471 62.5559 30.0133 61.7744 32.9642Z" fill="white"/>
<path d="M56.971 27.0654H53.6293L47.7274 33.4966L48.6659 29.3056L45.6195 29.3025L43.0101 41.4202H46.0565L46.7611 38.0384L47.5489 37.1307L48.5982 41.4202H51.6199L49.869 34.8259L56.971 27.0654Z" fill="white"/>
<path d="M59.1741 24.6591H55.8231L53.6292 27.0654H56.9647L59.1741 24.6591Z" fill="#EB2D2D"/>
<path d="M40.6329 62.067C40.6329 62.067 40.435 58.1724 43.5 54.8755L43.1663 54.067L42.0335 55.0926C40.5669 56.933 39.5815 57.084 39.5 61.1768L40.6329 62.067Z" fill="white"/>
<path d="M42.5348 54.067C42.5348 54.067 38.8992 57.0862 39.5865 62.067L40.424 61.9298C40.424 61.9298 40.0184 57.0518 43.5 54.3166L42.5348 54.0702V54.067Z" fill="white"/>
<path d="M40.3524 55.067C40.3524 55.067 38.6158 56.6936 38.5 60.9822L39.5114 61.067C39.5114 61.067 39.4364 57.9456 41.5 55.2192L40.3524 55.067Z" fill="#221E1F"/>
<path d="M40.4956 55.067C40.4956 55.067 39.2463 56.7053 38.8416 60.067C38.8416 60.067 38.6833 59.5178 37.5 59.3095C37.5 59.3095 38.2566 56.7306 39.1628 55.2691C39.1628 55.2691 39.9062 55.3322 40.5 55.0702L40.4956 55.067Z" fill="white"/>
<path d="M37.9324 56.099C37.9324 56.099 38.2992 56.2337 38.5 56.067C38.5 56.067 38.2316 57.2337 38.1127 59.067C38.1127 59.067 37.9939 58.8082 37.5 58.7834L37.9324 56.1025V56.099Z" fill="#0087C2"/>
<defs>
<linearGradient id="paint0_linear_1876_68398" x1="56.0061" y1="51.1504" x2="56.0061" y2="62.0785" gradientUnits="userSpaceOnUse">
<stop stop-color="#00A8DE"/>
<stop offset="1" stop-color="#0071B5"/>
</linearGradient>
</defs>
</svg>
