<svg viewBox="0 0 110 110" fill="none" xmlns="http://www.w3.org/2000/svg">
<path d="M46.8336 61.6279C42.1851 59.3147 38.6713 55.125 37.1712 49.7457C36.8058 48.4353 36.5476 47.0039 36.4679 45.6028C36.4487 45.2868 36.4459 45.067 36.4459 44.7456C36.4459 44.3005 36.4789 43.806 36.5091 43.3692C36.6822 40.957 37.3058 38.6685 38.2839 36.586C39.4103 34.1848 40.9845 32.0529 42.9324 30.3331C44.5231 28.9319 46.3693 27.811 48.3803 27.0006C50.3502 26.2066 52.4931 25.7066 54.7541 25.6104C54.875 25.6049 54.9959 25.5829 55.1168 25.5802C55.2596 25.5775 55.4053 25.572 55.5481 25.572C55.691 25.572 55.8366 25.5775 55.9795 25.5802C56.1196 25.5829 56.2569 25.6049 56.397 25.6104C58.3064 25.6983 60.1362 26.083 61.8477 26.6764C63.5126 27.2561 65.0951 28.0555 66.51 29.0418C66.6446 29.1352 66.7765 29.2122 66.9083 29.3111C67.1474 29.4869 67.3616 29.6545 67.5924 29.8413C67.7023 29.932 67.8095 30.0391 67.9166 30.1325C69.609 31.5886 71.0348 33.3497 72.142 35.3387C72.142 35.3387 69.5815 32.998 65.2435 34.2398C65.2435 34.2398 73.0239 37.2179 74.2767 41.5559C74.2767 41.5559 71.3892 37.6575 67.0842 38.0531C67.0842 38.0531 74.0514 44.4187 73.969 49.7457L73.3838 53.3914L71.2107 51.6524L72.0898 54.2623L46.8336 61.6224V61.6279Z" fill="white"/>
<path d="M73.381 53.3969C72.2958 45.3115 66.8451 42.4213 64.4164 41.6823C68.4687 43.9763 70.76 47.8363 71.0567 50.5095C70.1089 48.3913 68.5017 46.6055 65.8258 46.0835C68.7572 47.916 69.727 50.1166 70.1474 52.4628C67.6445 48.2045 62.301 46.6055 57.7267 47.4737C57.7267 47.4737 60.0454 46.0588 62.0043 46.1192C61.8641 44.9956 58.7349 45.1632 55.8228 44.3252C53.3419 43.6137 52.8529 42.3334 52.743 41.5422C53.1359 42.1466 54.3557 42.6439 55.6854 42.4955C56.875 42.3609 58.1168 41.6329 58.1772 39.9158C58.1772 39.9158 59.647 39.2317 59.9767 38.5751C59.6031 38.8965 55.1716 39.9652 52.4078 40.1603C51.4188 40.1713 51.1908 39.2317 49.8308 39.5256C49.8363 38.8855 50.2732 38.1465 50.982 37.6712C54.8392 35.0805 61.0949 37.5723 65.4961 40.5669C65.4961 40.5669 61.5592 36.5613 56.7898 35.6602C51.5781 34.6766 48.2731 37.4047 48.7209 39.968C46.6137 40.4955 44.4378 42.4873 45.1027 44.6687C45.7978 46.9407 47.5753 47.7841 47.5753 47.7841C46.3417 45.7978 50.2567 44.0807 55.4354 45.8198C53.6441 45.4516 47.9214 45.4269 48.5533 47.8198C49.4435 47.1797 51.6303 47.6413 52.2567 49.6523C53.3254 53.081 51.0671 58.985 46.4379 61.606C49.155 63.0813 52.2677 63.922 55.5755 63.922C56.9052 63.922 58.2047 63.7873 59.4575 63.5291L60.768 63.1829C60.4108 62.1994 59.7405 61.4411 57.4492 60.7323C62.8147 60.3999 64.4411 65.639 64.4411 65.639C66.6994 64.6143 67.7846 62.5977 67.6418 60.2543L70.3754 62.834C71.1501 61.1444 71.2793 57.5372 69.9798 55.1607L72.2078 57.6965C72.3342 56.1525 72.2738 54.0453 71.5457 52.2678L73.3892 53.3969H73.381Z" fill="#440404"/>
<path d="M53.8392 40.9927C54.8173 40.8636 55.8118 40.6053 56.5344 40.3801C56.3201 40.8966 55.636 41.4021 54.8915 41.4598L53.8392 40.9927Z" fill="white"/>
<path d="M62.0016 46.1192C60.0428 46.0588 57.724 47.4737 57.724 47.4737C62.2984 46.6055 67.6447 48.2045 70.1447 52.4628C69.7244 50.1166 68.7573 47.916 65.8232 46.0835C68.4991 46.6055 70.109 48.3913 71.0541 50.5095C70.7546 47.8336 68.4689 43.9791 64.4193 41.685C64.4193 41.685 64.4138 41.6823 64.4138 41.6796C65.3122 41.9515 66.6199 42.5202 67.9688 43.5313C67.1913 42.3774 66.3287 41.3718 65.4166 40.5119C65.3424 40.4625 65.2682 40.413 65.194 40.3636C65.1501 40.3334 65.1061 40.3059 65.0622 40.2757C64.5099 39.913 63.9303 39.5614 63.3341 39.2289C58.9658 37.3717 56.0701 37.064 54.0591 37.2811C52.342 37.4679 50.8887 38.1794 50.6277 39.4927C51.3365 39.6218 51.6497 40.1658 52.4052 40.1575C55.169 39.9625 59.6005 38.891 59.9741 38.5723C59.6472 39.2262 58.1746 39.913 58.1746 39.913C58.1142 41.6301 56.8724 42.3581 55.6828 42.4928C54.3503 42.6439 53.1333 42.1438 52.7404 41.5394C52.8503 42.3279 53.3393 43.6109 55.8201 44.3225C58.7323 45.1577 61.8615 44.9928 62.0016 46.1165V46.1192Z" fill="#BC1137"/>
<path d="M58.2349 59.4658C63.1169 59.2707 65.3395 60.9219 65.2543 63.6417C68.7077 59.7543 62.9328 57.658 58.2349 59.4658Z" fill="#BC1137"/>
<path d="M57.2514 51.0095C64.1197 51.4079 66.2132 55.2376 66.2132 55.2376C66.2132 55.2376 61.3449 54.0288 56.9025 58.7405C63.3285 55.8338 67.7379 57.9328 69.749 60.1746C69.1363 53.1085 64.0675 51.1633 64.0675 51.1633C64.0675 51.1633 66.878 51.1496 70.282 53.9766C67.7517 48.8611 60.1608 48.7127 57.2514 51.0067V51.0095Z" fill="#BC1137"/>
<path d="M47.5726 47.7814C47.5671 46.894 48.3556 46.6989 48.9188 46.5945C50.1881 45.4516 54.0261 45.5286 55.4327 45.817C50.254 44.0752 46.339 45.7923 47.5726 47.7814Z" fill="#BC1137"/>
<path d="M68.8122 39.2097C71.5843 39.5476 73.3399 40.501 74.4003 41.8114C73.3234 36.5256 69.3397 34.7261 65.4056 34.2837C67.6446 34.0008 70.1914 34.2041 72.2656 35.4266C71.076 33.281 69.4826 31.3881 67.5924 29.8495C65.4852 31.7122 63.944 34.5173 63.0209 37.4954C65.966 39.4735 67.8672 41.9186 68.6447 43.1878C70.2354 44.4983 72.6255 46.3857 73.9717 49.754C74.1173 49.232 74.2382 48.7017 74.3344 48.1633C74.8399 44.2291 72.9442 40.6108 68.815 39.2152L68.8122 39.2097Z" fill="#FFD200"/>
<path d="M48.8501 36.9404C50.0782 35.4788 52.1991 34.6382 54.6717 34.6382C54.8173 34.6382 54.9684 34.6409 55.1195 34.6464V25.5802C50.7595 25.6764 46.7622 27.2313 43.5945 29.7781C45.4187 31.737 47.177 34.5667 48.2622 37.8388C48.4161 37.5256 48.6139 37.2234 48.8529 36.9377L48.8501 36.9404Z" fill="#FFD200"/>
<path d="M62.2351 36.9926C63.3121 33.7508 65.0511 31.0337 66.9083 29.3166C63.8395 27.0418 60.0675 25.6709 55.9767 25.5802V34.7041C56.2954 34.7371 56.6168 34.7838 56.9383 34.8552C58.9438 35.2948 60.7103 36.0695 62.2324 36.9899L62.2351 36.9926Z" fill="#FFD200"/>
<path d="M44.6824 41.9708C45.3033 40.8691 46.4901 39.913 47.8143 39.402C46.8445 35.7673 44.9516 32.5007 42.9323 30.3358C38.9542 33.8359 36.4431 38.9625 36.4431 44.6769C36.4431 44.7016 36.4431 44.7236 36.4431 44.7483H44.273C44.001 43.8335 44.1741 42.8637 44.6796 41.9708H44.6824Z" fill="#FFD200"/>
<path d="M49.5479 48.3666C48.9188 48.3666 48.4023 48.7237 48.21 49.0506C47.3583 48.7017 45.6385 47.7539 44.6165 45.6055H36.4679C36.7646 51.7787 39.99 57.1827 44.7868 60.4576C47.3116 59.0042 52.6469 55.2404 51.4793 49.8941C51.2458 48.8199 50.3172 48.3666 49.5507 48.3666H49.5479Z" fill="#FFD200"/>
<path d="M49.394 42.4213C49.9188 42.2016 50.6386 42.0559 51.7045 42.273C51.7045 42.273 51.4545 41.9955 51.3776 41.5697C51.3776 41.5697 50.0012 41.8197 49.394 42.4186V42.4213Z" fill="#FFD200"/>
<path d="M50.9794 37.6712C50.2706 38.1492 49.8337 38.8855 49.8282 39.5256C50.1497 39.457 50.4079 39.457 50.6305 39.4954C50.8942 38.1822 52.3476 37.4706 54.0619 37.2838C56.0757 37.064 58.9714 37.3745 63.3451 39.2344C59.2241 36.9239 54.2432 35.4788 50.9821 37.6712H50.9794Z" fill="#FFD200"/>
<path d="M103 72.5733L101.297 68.5375H56.1772H56.1662L50.8502 69.1584L47.7841 68.5347H40.5806L37.3937 71.1886L37.3525 68.5375H27.7561L25.2121 71.0073L24.1543 68.5375H9.59623L11.3463 71.9085L9.61821 74.98L11.7913 77.5487L7 79.8537L8.70335 83.8896H18.4371L25.3604 83.2027L27.4044 80.7658L32.0886 83.1615L32.1161 83.178L36.5311 83.9528L41.5834 82.9335L42.2318 81.4389L51.3364 83.8923H68.3149L73.0623 82.8593L73.642 81.5653L85.9446 84.428L86.4968 83.8923H95.8981L100.492 78.5927L98.846 74.5734L103 72.5761V72.5733Z" fill="#440404"/>
<path d="M20.8218 74.5981H15.4068L14.753 73.8261L15.6816 72.1749H21.374L20.7614 74.1008L24.789 72.1667L23.6104 69.3699H10.9644L12.2859 71.9139L12.3051 71.9057L10.6292 74.8838L12.7447 77.3866H18.1624L18.4976 78.1861L16.6734 80.2933L11.4919 80.2521L12.1018 78.3262L8.07422 80.2603L9.25557 83.0571H18.3822L22.3906 78.4306L20.8218 74.5981Z" fill="#FFD200"/>
<path d="M97.9559 74.5981H92.5409L91.8898 73.8261L92.8184 72.1749H98.5081L97.8982 74.1008L101.926 72.1667L100.744 69.3699H88.1013L89.4227 71.9139L89.4392 71.9057L87.7633 74.8838L89.8815 77.3866H95.2965L95.6344 78.1861L93.8102 80.2933L88.626 80.2521L89.2359 78.3262L85.2111 80.2603L86.3924 83.0571H95.5191L99.5274 78.4306L97.9559 74.5981Z" fill="#FFD200"/>
<path d="M68.6556 72.2106L71.1337 69.3672L57.2074 69.3699L58.3366 71.881L53.2705 83.0571H64.6087L67.139 80.2136H58.4327L61.9411 72.2106H68.6556Z" fill="#FFD200"/>
<path d="M66.7819 77.469L68.0951 74.6255H63.595L60.4081 77.469H66.7819Z" fill="#FFD200"/>
<path d="M55.7981 69.3672L51.0178 70.0677L47.4243 74.0404L43.8445 76.8839H46.5836L49.1084 82.3098L52.9162 83.2796L49.7595 76.0844L55.7981 69.3672Z" fill="#FFD200"/>
<path d="M40.6659 69.3699L41.9159 71.7793L36.7811 83.0544L40.9983 82.1999L46.7567 69.3672L40.6659 69.3699Z" fill="#FFD200"/>
<path d="M87.211 69.3672L72.1282 69.3699L73.37 71.7793L68.2352 83.0544L72.4716 82.134L76.9635 72.0623H82.1917L80.5515 74.7986H78.557L75.3673 77.6421H79.2136L81.1642 82.3043L85.6094 83.3511L82.6422 76.3729L85.3758 73.337L87.211 69.3672Z" fill="#FFD200"/>
<path d="M28.9236 69.3699L29.9896 71.4249L19.8794 83.0571L24.9345 82.4142L32.8358 73.2849V77.0405H31.2341L28.0472 79.8867H32.8358V82.4527L36.5255 83.0571V69.3699H28.9236Z" fill="#FFD200"/>
<path d="M28.8248 62.2818H24.7753V55.4657H22.8164V63.9329H28.8248V62.2818Z" fill="#6A6C6C"/>
<path d="M33.226 64.0593C34.542 64.0593 35.825 63.7241 36.5255 63.2351V59.1251H33.1271V60.7076H34.7233V62.1884C34.4293 62.2983 33.8551 62.4137 33.3112 62.4137C31.5529 62.4137 30.9649 61.518 30.9649 59.7021C30.9649 57.8861 31.5226 56.9492 33.2864 56.9492C34.2645 56.9492 34.8222 57.2569 35.2837 57.8421L36.4981 56.7267C35.759 55.6635 34.4595 55.342 33.2425 55.342C30.5034 55.342 29.0665 56.8366 29.0665 59.6856C29.0665 62.5346 30.3633 64.0621 33.2287 64.0621" fill="#6A6C6C"/>
</svg>
