<svg viewBox="0 0 110 110" fill="none" xmlns="http://www.w3.org/2000/svg">
<path d="M87.1445 55.0016C87.1445 72.1249 73.3109 86 56.2548 86C39.1987 86 25.3651 72.1249 25.3651 55.0016C25.3651 37.8783 39.1987 24 56.2548 24C73.3109 24 87.1445 37.8751 87.1445 55.0016Z" fill="#E1002A"/>
<path d="M56.0024 33.8629C44.3268 33.8629 34.8668 43.3293 34.8668 55.0016C34.8668 66.674 44.3268 76.1372 56.0024 76.1372C67.6779 76.1372 77.1379 66.674 77.1379 55.0016C77.1379 43.3293 67.6715 33.8629 56.0024 33.8629Z" fill="white"/>
<path d="M36.9768 38.7031C37.1462 38.8406 37.2677 38.9973 37.3316 39.1731C37.402 39.3521 37.4116 39.5408 37.3668 39.7326C37.322 39.9276 37.2261 40.1226 37.0823 40.3081C37.0439 40.3624 36.9864 40.4167 36.9256 40.4903C36.8585 40.5606 36.7594 40.6437 36.6283 40.7396C36.4972 40.8388 36.347 40.9315 36.1743 41.0114L35.4933 40.4839C35.6788 40.4231 35.8482 40.356 35.9985 40.2793C36.1519 40.1994 36.283 40.0938 36.3949 39.9532C36.4908 39.8253 36.5356 39.723 36.5164 39.6495C36.494 39.5759 36.4684 39.5216 36.4269 39.4896C36.3533 39.4321 36.267 39.4161 36.1615 39.4385C36.0592 39.464 35.9313 39.5184 35.7779 39.5983C35.6084 39.6846 35.4486 39.7518 35.2919 39.7965C35.1321 39.8413 34.9722 39.8509 34.806 39.8285C34.6429 39.8061 34.4831 39.7326 34.3296 39.6111C34.1826 39.496 34.0675 39.3553 33.9971 39.1923C33.9268 39.0356 33.9108 38.8598 33.946 38.6648C33.9812 38.473 34.0707 38.2811 34.2209 38.0861C34.3296 37.9486 34.4479 37.8272 34.5662 37.7344C34.6909 37.6385 34.7996 37.565 34.8987 37.517C34.9946 37.4691 35.0681 37.4403 35.1033 37.4307L35.7619 37.9391C35.5988 37.9774 35.439 38.035 35.2728 38.1117C35.1097 38.1884 34.9754 38.2971 34.8635 38.441C34.7932 38.5337 34.758 38.62 34.7644 38.6936C34.774 38.7671 34.8092 38.8246 34.8635 38.8726C34.9179 38.9141 34.9818 38.9301 35.0522 38.9173C35.1289 38.9078 35.2376 38.8726 35.3783 38.8054C35.6276 38.6935 35.8386 38.6104 36.0081 38.5561C36.1775 38.5017 36.3406 38.4825 36.4972 38.4985C36.6539 38.5145 36.8105 38.5849 36.9672 38.7063L36.9768 38.7031Z" fill="white"/>
<path d="M39.8351 37.2166L38.1534 38.9142L35.6501 36.4365L37.2998 34.7676L37.8049 35.2632L36.8235 36.2543L37.287 36.7146L38.2206 35.7683L38.7289 36.267L37.7922 37.2102L38.3229 37.7377L39.3331 36.721L39.8351 37.2198V37.2166Z" fill="white"/>
<path d="M41.782 33.4377C41.9834 33.6998 42.1081 33.9812 42.1721 34.2849C42.2328 34.5854 42.204 34.8859 42.089 35.1769C41.9739 35.4678 41.7629 35.7331 41.4559 35.9697C41.1458 36.2063 40.8293 36.3374 40.5128 36.3725C40.1931 36.4013 39.899 36.347 39.6272 36.2095C39.3555 36.0688 39.1221 35.8738 38.9303 35.6244C38.7385 35.3719 38.6106 35.1001 38.5466 34.7964C38.4827 34.5023 38.5115 34.2018 38.6266 33.9012C38.7385 33.6039 38.9527 33.3386 39.2628 33.0988C39.4962 32.9198 39.7295 32.7983 39.9693 32.7343C40.2091 32.6736 40.4425 32.664 40.6567 32.7024C40.8741 32.7439 41.0819 32.8302 41.2769 32.9581C41.4687 33.086 41.6414 33.2458 41.7852 33.4377H41.782ZM41.0052 34.0323C40.9284 33.9268 40.8389 33.8437 40.7462 33.7766C40.6503 33.7126 40.5512 33.6679 40.4457 33.6487C40.3402 33.6295 40.2347 33.6327 40.126 33.6551C40.0173 33.6838 39.9118 33.7382 39.8031 33.8149C39.5953 33.9684 39.4898 34.1602 39.4706 34.3808C39.4578 34.6014 39.5345 34.822 39.6976 35.033C39.8638 35.2472 40.0556 35.3751 40.2698 35.4198C40.4872 35.4614 40.7014 35.407 40.8997 35.2536C41.0371 35.1417 41.1362 35.0234 41.1842 34.8859C41.2353 34.7516 41.2449 34.611 41.2098 34.4607C41.181 34.3169 41.1107 34.173 40.9988 34.0323H41.0052Z" fill="white"/>
<path d="M45.3723 31.6697C45.5161 31.9351 45.5961 32.1844 45.6088 32.421C45.6184 32.6544 45.5801 32.8686 45.4938 33.054C45.4042 33.2458 45.2891 33.4057 45.1421 33.5496C44.995 33.687 44.8416 33.8021 44.6753 33.8916C44.4387 34.0195 44.1862 34.0994 43.9176 34.1314C43.6427 34.1602 43.3741 34.109 43.1088 33.9748C42.8402 33.8405 42.6132 33.6039 42.431 33.2586L41.5103 31.5482L42.3479 31.0974L43.1375 32.5649C43.2494 32.7727 43.3645 32.9261 43.4892 33.0284C43.6139 33.1339 43.7418 33.1915 43.8697 33.2011C43.9975 33.2139 44.1254 33.1851 44.2565 33.1116C44.378 33.0476 44.4675 32.9581 44.5346 32.843C44.5986 32.7343 44.6146 32.5968 44.6018 32.4338C44.5826 32.2739 44.5187 32.0917 44.4068 31.8871L43.6139 30.4133L44.4579 29.9593L45.3755 31.6697H45.3723Z" fill="white"/>
<path d="M48.9977 31.999L46.7406 32.827L45.5321 29.5213L46.4273 29.1952L47.348 31.7081L48.7068 31.2093L48.9977 32.0022V31.999Z" fill="white"/>
<path d="M52.8917 30.1383C52.9333 30.3525 52.9141 30.554 52.8437 30.7266C52.767 30.9024 52.6519 31.0495 52.4889 31.1614C52.3258 31.2797 52.1276 31.3532 51.8942 31.3948C51.8335 31.4076 51.7536 31.414 51.6544 31.4235C51.5585 31.4331 51.4307 31.4299 51.2676 31.4108C51.1078 31.3948 50.9351 31.3628 50.7497 31.3116L50.6026 30.4612C50.7785 30.5444 50.9511 30.6051 51.1173 30.6499C51.2804 30.6946 51.453 30.7042 51.6289 30.6722C51.7855 30.6435 51.8846 30.5987 51.923 30.5284C51.9582 30.4612 51.9741 30.4005 51.9646 30.3493C51.955 30.2566 51.8942 30.1831 51.8047 30.1351C51.7088 30.0808 51.5841 30.036 51.4179 29.9977C51.2356 29.9497 51.0662 29.8858 50.9223 29.8122C50.7753 29.7419 50.6506 29.6396 50.5451 29.5117C50.4364 29.3838 50.366 29.224 50.3373 29.0322C50.3021 28.8435 50.3181 28.6677 50.3756 28.5047C50.43 28.3384 50.5323 28.1977 50.6921 28.0795C50.8424 27.9612 51.0406 27.8812 51.2836 27.8365C51.4626 27.8045 51.6225 27.7981 51.7791 27.8077C51.9358 27.8205 52.0637 27.8429 52.166 27.8716C52.2715 27.9036 52.3418 27.926 52.3866 27.9484L52.5272 28.7604C52.3802 28.6805 52.2235 28.6134 52.0541 28.5622C51.8814 28.5079 51.7088 28.4951 51.5298 28.5238C51.4147 28.5462 51.3315 28.5878 51.2868 28.6453C51.2452 28.7029 51.2324 28.7732 51.242 28.8435C51.2548 28.9139 51.29 28.9682 51.3507 29.0098C51.4115 29.0482 51.517 29.0929 51.664 29.1441C51.9262 29.2272 52.1372 29.3039 52.297 29.3806C52.4601 29.4574 52.5912 29.5501 52.6967 29.6684C52.799 29.7867 52.8693 29.9433 52.9013 30.1383H52.8917Z" fill="white"/>
<path d="M56.9487 30.9472L55.7881 30.9919L54.5157 29.3902L54.5797 31.0335L53.6206 31.0687L53.4927 27.5519L54.4486 27.5168L54.5029 29.0897L55.5963 27.4784L56.6322 27.44L55.5164 29.1281L56.9519 30.9472H56.9487Z" fill="white"/>
<path d="M62.0383 31.6953L60.8906 31.4907L59.9858 29.6556L59.6949 31.2797L58.7582 31.1166L59.3752 27.6511L60.3119 27.8141L60.0402 29.3647L61.4437 28.0123L62.4667 28.1946L61.0153 29.6108L62.0415 31.6953H62.0383Z" fill="white"/>
<path d="M65.5136 32.8942L64.7079 32.6128L63.8032 30.2214L63.1606 32.0725L62.2622 31.7624L63.4227 28.4375L64.222 28.7156L65.1267 31.0942L65.7693 29.2559L66.6741 29.5692L65.5168 32.8942H65.5136Z" fill="white"/>
<path d="M67 33.6583L66.1432 33.2394L67.6969 30.0808L68.5537 30.4996L67 33.6551V33.6583Z" fill="white"/>
<path d="M70.2196 35.2983C70.146 35.2855 70.0853 35.2728 70.0341 35.2632C69.9766 35.2536 69.935 35.2408 69.8839 35.2312C69.8391 35.2184 69.772 35.2024 69.6921 35.1768C69.545 35.1321 69.4107 35.0777 69.2765 35.017C69.1454 34.9562 69.0143 34.8859 68.8768 34.7964C68.6051 34.6238 68.3877 34.4128 68.2278 34.157C68.068 33.9012 67.9881 33.6135 68.0008 33.2938C68.0104 32.9741 68.1159 32.6448 68.3301 32.3091C68.4708 32.0917 68.6402 31.9063 68.8449 31.7368C69.0495 31.577 69.2637 31.4747 69.4939 31.4427C69.6825 31.4139 69.8519 31.4107 70.0118 31.4363C70.1716 31.4587 70.3155 31.4971 70.4434 31.5578C70.5744 31.6122 70.7119 31.6857 70.8526 31.7752C71.0892 31.9223 71.2714 32.0661 71.4025 32.2036C71.5304 32.3379 71.6646 32.4945 71.8053 32.68L71.3609 33.3801C71.2874 33.2235 71.2011 33.0796 71.102 32.9389C70.9965 32.8014 70.8494 32.6672 70.6416 32.5393C70.4114 32.3922 70.1908 32.3219 69.9894 32.3347C69.788 32.3411 69.6185 32.3986 69.4747 32.5009C69.334 32.6 69.2253 32.7183 69.1422 32.8462C69.0463 32.9965 68.9919 33.1531 68.9727 33.3194C68.9568 33.4856 68.9855 33.6487 69.0654 33.8085C69.1486 33.9652 69.2733 34.0994 69.4555 34.2145C69.5578 34.2785 69.6793 34.3328 69.8168 34.3744L70.0373 34.0259L69.6761 33.7957L70.0533 33.1947L71.1211 33.8725L70.2132 35.3047L70.2196 35.2983Z" fill="white"/>
<path d="M73.0681 38.0478L72.3519 37.418L73.2567 36.3853L72.1729 35.439L71.2713 36.4716L70.552 35.8418L72.873 33.1915L73.5892 33.8245L72.7356 34.7932L73.8194 35.7427L74.6666 34.7708L75.3827 35.3974L73.0617 38.0478H73.0681Z" fill="white"/>
<path d="M77.416 39.0356L76.6679 38.1501L74.6346 39.8701L74.0176 39.1411L76.0509 37.4211L75.3028 36.5356L75.955 35.9825L78.0746 38.4826L77.4192 39.0388L77.416 39.0356Z" fill="white"/>
<path d="M77.5855 42.287C77.4001 42.4053 77.2147 42.4693 77.0228 42.4724C76.8374 42.4756 76.6584 42.4245 76.4857 42.319C76.3131 42.2135 76.1628 42.0632 76.0318 41.8682C75.9998 41.8107 75.955 41.7403 75.9135 41.654C75.8655 41.5709 75.8208 41.4526 75.7696 41.2991C75.7185 41.1425 75.6833 40.9698 75.6577 40.7812L76.377 40.3081C76.377 40.5063 76.3802 40.6853 76.409 40.8548C76.4346 41.0274 76.4953 41.1808 76.5912 41.3311C76.684 41.4686 76.7639 41.5389 76.8438 41.5453C76.9173 41.5517 76.9749 41.5453 77.0228 41.5133C77.0996 41.4622 77.1443 41.3855 77.1571 41.28C77.1667 41.1745 77.1571 41.037 77.1252 40.8707C77.0996 40.6789 77.0932 40.5031 77.0996 40.34C77.106 40.1802 77.1475 40.0235 77.2211 39.8765C77.2978 39.7294 77.4193 39.5983 77.5855 39.4928C77.739 39.3841 77.9084 39.3298 78.0811 39.3138C78.2537 39.301 78.4295 39.3426 78.599 39.4353C78.7748 39.5312 78.9251 39.6814 79.0594 39.8892C79.1553 40.0363 79.232 40.1834 79.2799 40.3304C79.3311 40.4775 79.3631 40.6054 79.3759 40.7109C79.3918 40.8196 79.3918 40.8931 79.3918 40.9411L78.7045 41.3919C78.7173 41.2256 78.7173 41.0562 78.6981 40.8771C78.6757 40.7013 78.6214 40.535 78.5254 40.3816C78.4551 40.2793 78.388 40.2249 78.3144 40.209C78.2473 40.1898 78.1802 40.2058 78.113 40.2409C78.0555 40.2793 78.0203 40.3368 78.0043 40.4104C77.9915 40.4839 77.9915 40.5958 78.0043 40.7524C78.0331 41.0274 78.0427 41.248 78.0395 41.427C78.0331 41.6061 77.9947 41.7627 77.934 41.9034C77.8669 42.0472 77.7486 42.1719 77.5855 42.2838V42.287Z" fill="white"/>
<path d="M36.4364 73.1991C36.2063 73.3941 35.9601 73.4772 35.7043 73.4484C35.4454 73.4197 35.2088 73.2758 34.9946 73.02L33.8245 71.6101L36.5355 69.3594L37.517 70.5391C37.6417 70.6926 37.7376 70.8397 37.7984 70.9803C37.8623 71.1178 37.8911 71.2457 37.8911 71.364C37.8911 71.4823 37.8687 71.5878 37.8207 71.6837C37.7696 71.7828 37.6993 71.8723 37.6097 71.9458C37.5074 72.029 37.4051 72.0865 37.29 72.1249C37.1749 72.1568 37.0726 72.1696 36.9735 72.1664C36.8744 72.1568 36.7913 72.1377 36.7274 72.1025C36.7913 72.3295 36.8073 72.5341 36.7689 72.7099C36.7242 72.8922 36.6187 73.0552 36.4396 73.1991H36.4364ZM35.8578 72.435C36.0944 72.2432 36.0816 71.997 35.829 71.6933L35.586 71.3896L34.8891 71.965L35.1384 72.2655C35.3878 72.5693 35.6308 72.6236 35.8578 72.435ZM36.8904 71.38C37.0215 71.2713 37.0758 71.1594 37.0535 71.0475C37.0375 70.9324 36.9544 70.7917 36.8201 70.6255L36.6954 70.472L36.0432 71.0123L36.1743 71.1722C36.3118 71.3416 36.4364 71.4471 36.5419 71.4855C36.6506 71.5238 36.7657 71.4887 36.8968 71.38H36.8904Z" fill="white"/>
<path d="M38.7958 76.7638L38.0765 76.1052L38.361 75.4018L37.3476 74.4779L36.6698 74.8296L35.9473 74.171L39.3553 72.5117L40.1418 73.2247L38.799 76.7638H38.7958ZM38.6168 74.804L39.1379 73.5412L37.9262 74.1742L38.6168 74.804Z" fill="white"/>
<path d="M41.6411 77.4799C41.5132 77.6621 41.363 77.7868 41.1871 77.8635C41.0049 77.9371 40.8227 77.9562 40.6212 77.9179C40.4294 77.8795 40.2312 77.7964 40.0394 77.6621C39.9914 77.6237 39.9211 77.5758 39.8476 77.5151C39.7772 77.4511 39.6877 77.3552 39.5854 77.2305C39.4767 77.1058 39.3808 76.9588 39.2881 76.7925L39.7868 76.0892C39.8508 76.2682 39.9307 76.4345 40.017 76.5815C40.1001 76.7318 40.2152 76.8597 40.3591 76.9588C40.4902 77.0547 40.5957 77.0898 40.6724 77.0675C40.7459 77.0483 40.7971 77.0163 40.8259 76.9716C40.8802 76.8948 40.893 76.8053 40.8642 76.7062C40.8323 76.6039 40.7715 76.4792 40.6852 76.3321C40.5893 76.1659 40.5125 76.006 40.4646 75.8526C40.4102 75.6991 40.3911 75.5393 40.407 75.373C40.423 75.2068 40.4902 75.0437 40.6021 74.8839C40.714 74.7272 40.8418 74.6089 41.0017 74.5354C41.1583 74.4587 41.3374 74.4299 41.526 74.4555C41.7178 74.4811 41.9192 74.5674 42.1207 74.7081C42.2677 74.8104 42.386 74.9191 42.4883 75.0342C42.5938 75.1524 42.6705 75.2611 42.7217 75.3539C42.7728 75.4498 42.8048 75.5169 42.824 75.5617L42.3476 76.2362C42.3029 76.0796 42.2357 75.9197 42.1494 75.7599C42.0695 75.6 41.9512 75.469 41.8041 75.3666C41.705 75.2995 41.6187 75.2675 41.5484 75.2803C41.4717 75.2899 41.4141 75.3251 41.3725 75.3858C41.3342 75.4466 41.3214 75.5073 41.3342 75.5808C41.3502 75.6544 41.3949 75.7567 41.4621 75.9006C41.5899 76.1435 41.6827 76.3481 41.7434 76.5176C41.8041 76.6838 41.8297 76.8437 41.8201 77.0003C41.8105 77.157 41.7498 77.3168 41.6379 77.4767L41.6411 77.4799Z" fill="white"/>
<path d="M44.7007 80.3349L43.6681 79.7882L43.3676 77.7676L42.5971 79.2191L41.7531 78.7715L43.3995 75.6608L44.2435 76.1084L43.5018 77.5023L45.2538 76.6455L46.1745 77.1314L44.3618 78.0362L44.6975 80.3349H44.7007Z" fill="white"/>
<path d="M47.5045 81.3707L45.2666 80.5395L46.5007 77.2369L48.7034 78.0554L48.4572 78.7204L47.1497 78.2344L46.9227 78.8387L48.1695 79.3022L47.9233 79.964L46.6765 79.5036L46.4143 80.2038L47.7539 80.7057L47.5045 81.3675V81.3707Z" fill="white"/>
<path d="M52.0316 79.7434L50.8998 79.4876L50.3148 82.0868L49.3812 81.8758L49.9727 79.2766L48.8409 79.0177L49.0296 78.1864L52.2234 78.909L52.0348 79.7434H52.0316Z" fill="white"/>
<path d="M55.2477 81.7032C55.2158 82.0037 55.1007 82.2371 54.9024 82.4033C54.701 82.5696 54.4357 82.6335 54.1032 82.6048L52.2809 82.4513L52.5782 78.9474L54.1032 79.0752C54.2982 79.0912 54.4676 79.1264 54.6115 79.1807C54.7554 79.2351 54.8705 79.3022 54.9504 79.3885C55.0303 79.4685 55.0911 79.5612 55.1294 79.6603C55.1646 79.7658 55.1806 79.8745 55.1646 79.996C55.1582 80.1239 55.1262 80.2422 55.0719 80.3477C55.0143 80.4532 54.9504 80.5363 54.8769 80.597C54.8065 80.6642 54.7298 80.7057 54.6595 80.7313C54.8673 80.8432 55.0207 80.9743 55.123 81.1309C55.2221 81.2812 55.2637 81.4762 55.2477 81.7032ZM54.2918 81.5817C54.3174 81.2812 54.1352 81.1117 53.7387 81.083L53.3519 81.0478L53.2752 81.943L53.662 81.9781C54.0584 82.0101 54.2598 81.879 54.2886 81.5817H54.2918ZM54.2598 80.1079C54.2758 79.9384 54.2343 79.8201 54.1416 79.7594C54.0424 79.6955 53.8922 79.6539 53.6716 79.6347L53.4734 79.6155L53.403 80.4564L53.6108 80.4723C53.825 80.4915 53.9881 80.4755 54.0872 80.4308C54.1895 80.386 54.2471 80.2741 54.263 80.1047L54.2598 80.1079Z" fill="white"/>
<path d="M59.439 82.528L58.4639 82.5792L58.1698 81.879L56.7951 81.9525L56.5745 82.6815L55.593 82.7326L56.8015 79.1424L57.8565 79.088L59.439 82.528ZM57.9141 81.278L57.3834 80.0215L56.9837 81.3291L57.9141 81.278Z" fill="white"/>
<path d="M62.4027 81.9589L60.0401 82.4033L59.3911 78.9409L60.3278 78.7683L60.8202 81.3963L62.2429 81.1309L62.3995 81.9589H62.4027Z" fill="white"/>
<path d="M65.4207 81.0574L63.1252 81.7671L62.0862 78.4071L62.9973 78.1257L63.7902 80.6834L65.1745 80.255L65.4207 81.0606V81.0574Z" fill="white"/>
<path d="M69.6503 78.8163C69.5704 78.9441 69.4713 79.0592 69.3722 79.1615C69.2699 79.2638 69.1644 79.3565 69.0429 79.4365C68.9278 79.5164 68.8063 79.5899 68.672 79.6571C68.4259 79.7818 68.1861 79.8553 67.9527 79.8777C67.7193 79.9 67.4923 79.8745 67.2749 79.7977C67.0607 79.7242 66.8625 79.6027 66.6899 79.4429C66.5172 79.2798 66.3766 79.0816 66.2583 78.8418C66.1208 78.5733 66.0441 78.3175 66.0281 78.0681C66.0089 77.8252 66.0409 77.595 66.124 77.384C66.2103 77.1698 66.3318 76.9844 66.4917 76.8213C66.6547 76.6615 66.8433 76.5272 67.0575 76.4185C67.3772 76.2554 67.7801 76.1531 68.266 76.1084L68.688 76.9396C68.5026 76.9172 68.3236 76.9012 68.1541 76.9076C67.9815 76.9108 67.8056 76.962 67.6234 77.0579C67.4572 77.141 67.3261 77.2529 67.2174 77.3968C67.1087 77.5438 67.048 77.7037 67.0288 77.8795C67.0096 78.0586 67.048 78.2344 67.1343 78.4166C67.2174 78.5765 67.3261 78.7012 67.4732 78.7939C67.617 78.8898 67.7705 78.9441 67.9463 78.9537C68.119 78.9601 68.2948 78.925 68.4674 78.8386C68.6017 78.7683 68.7264 78.682 68.8255 78.5861C68.9342 78.487 69.0141 78.3974 69.0749 78.3047C69.1356 78.2184 69.1964 78.1225 69.2507 78.017L69.6535 78.8099L69.6503 78.8163Z" fill="white"/>
<path d="M72.5532 77.2146L70.5551 78.5573L68.5857 75.6384L69.3786 75.1045L70.8748 77.3233L72.0768 76.5144L72.55 77.2146H72.5532Z" fill="white"/>
<path d="M74.5738 73.4037C74.772 73.6275 74.9063 73.8545 74.9702 74.0815C75.0374 74.3085 75.0502 74.5227 75.0022 74.7273C74.9606 74.9319 74.8871 75.1141 74.7784 75.2835C74.6697 75.453 74.5418 75.6001 74.398 75.7279C74.1997 75.907 73.9728 76.0412 73.7106 76.134C73.4516 76.2267 73.1831 76.2427 72.8922 76.1691C72.6012 76.0988 72.3295 75.9198 72.0705 75.6288L70.7789 74.1742L71.4951 73.5412L72.598 74.7848C72.7515 74.9606 72.905 75.0853 73.0488 75.1557C73.1959 75.226 73.3334 75.258 73.4548 75.2388C73.5859 75.2196 73.701 75.1621 73.8129 75.0662C73.9184 74.9734 73.9855 74.8647 74.0207 74.7401C74.0559 74.6122 74.0431 74.4779 73.9919 74.3244C73.9344 74.171 73.8289 74.0079 73.6786 73.8385L72.5693 72.5885L73.2854 71.9554L74.5738 73.4069V73.4037Z" fill="white"/>
<path d="M77.4767 70.8972C77.7133 71.0922 77.838 71.3224 77.8572 71.5782C77.8732 71.8371 77.7773 72.0961 77.5599 72.3551L76.3865 73.7585L73.6851 71.5014L74.6665 70.3281C74.7944 70.1779 74.9223 70.0564 75.0502 69.9701C75.1749 69.8837 75.2964 69.8326 75.4147 69.8102C75.5234 69.7878 75.6384 69.7942 75.7408 69.8262C75.8463 69.8518 75.9422 69.9061 76.0349 69.9829C76.134 70.066 76.2075 70.1619 76.2683 70.2674C76.3226 70.3697 76.3514 70.472 76.3642 70.5679C76.377 70.6638 76.3738 70.7533 76.3514 70.8205C76.5624 70.715 76.7574 70.6638 76.9428 70.6702C77.1251 70.6734 77.3073 70.7565 77.4799 70.9004L77.4767 70.8972ZM75.6065 70.7853C75.4754 70.6798 75.3539 70.6446 75.2484 70.6862C75.1397 70.731 75.0182 70.8333 74.8807 70.9931L74.7529 71.1498L75.3987 71.6901L75.5329 71.5334C75.6704 71.364 75.7535 71.2265 75.7727 71.1178C75.7887 71.0059 75.7344 70.8972 75.6065 70.7885V70.7853ZM76.8309 71.6069C76.5975 71.4151 76.3578 71.4663 76.1052 71.77L75.8558 72.0705L76.5464 72.6492L76.7958 72.3519C77.0483 72.0481 77.0611 71.7988 76.8309 71.6101V71.6069Z" fill="white"/>
<path d="M87.0998 55.0016C87.0998 72.0386 73.2854 85.8465 56.2517 85.8465C39.2179 85.8465 25.4067 72.0386 25.4067 55.0016C25.4067 37.9646 39.2211 24.1535 56.2517 24.1535C73.2822 24.1535 87.0998 37.9614 87.0998 55.0016Z" fill="#E1002A"/>
<path d="M56.2516 33.8629C44.5761 33.8629 35.1161 43.3293 35.1161 55.0016C35.1161 66.674 44.5761 76.1372 56.2516 76.1372C67.9272 76.1372 77.3872 66.674 77.3872 55.0016C77.3872 43.3293 67.9208 33.8629 56.2516 33.8629Z" fill="white"/>
<path d="M28.0634 54.3622L37.5618 45.5448L30.7138 46.1043L31.0015 48.3422L23.9648 54.976L24.9016 60.2479C25.1573 61.92 25.9886 65.0435 29.0673 64.7877L32.3219 64.5224C30.6306 63.5281 29.6715 61.8944 29.2048 59.778L28.0634 54.359V54.3622Z" fill="url(#paint0_linear_1876_59765)"/>
<path d="M35.8578 55.1743L32.8558 64.4776L36.4621 64.1835L38.7799 57.0062C38.959 56.4371 39.1732 55.721 39.6431 55.2062C39.9692 54.8322 40.4168 54.57 40.7717 54.5413C41.2097 54.5029 41.5454 54.7267 41.6253 55.1711C41.7564 55.6346 41.5677 56.2261 41.3855 56.792L39.0741 63.9693L42.6803 63.672L44.9598 56.5969C45.3978 55.235 45.8358 54.0713 45.4234 53.0291C45.0077 51.9868 44.0838 51.7151 42.9552 51.8078C41.8906 51.8909 40.8644 52.3801 39.9532 53.3775L40.3816 52.054L35.6404 52.4408L35.8642 55.1775L35.8578 55.1743Z" fill="url(#paint1_linear_1876_59765)"/>
<path d="M56.6066 62.6681C54.1449 63.6144 52.5816 62.1118 52.5816 59.6789C52.5816 58.1603 53.5375 54.1256 56.8752 51.7822C58.365 50.7368 60.3248 50.0846 62.8888 50.043C64.823 50.0462 65.7789 50.2189 66.8211 50.5705C66.8211 50.5705 65.6798 51.3314 65.213 52.8244L62.2174 62.2557C59.8293 69.6344 53.2498 70.8589 49.5476 67.5244L52.4601 64.5671C52.6136 65.0787 52.8853 65.4687 53.253 65.7372C55.0049 67.0033 57.4187 65.8683 58.7934 61.6482L61.5077 53.1122C61.4342 53.093 61.3926 53.0514 61.3191 53.0354C60.0722 52.6134 58.8126 53.1985 57.7288 54.7011C57.2524 55.3821 56.8816 56.2325 56.5747 57.6296C56.3445 58.6526 56.4564 61.2966 58.982 59.762L56.6066 62.6745V62.6681Z" fill="url(#paint2_linear_1876_59765)"/>
<path d="M52.9267 51.066L48.1887 51.4561L48.4125 54.1927L45.4137 63.4961L49.0167 63.1956L52.9267 51.066Z" fill="url(#paint3_linear_1876_59765)"/>
<path d="M51.0342 50.1389L49.4293 47.869L52.6231 45.2091L54.2313 47.4758L51.0342 50.1389Z" fill="url(#paint4_linear_1876_59765)"/>
<path d="M36.9768 38.7031C37.1462 38.8406 37.2677 38.9973 37.3316 39.1731C37.402 39.3521 37.4116 39.5408 37.3668 39.7326C37.322 39.9276 37.2261 40.1226 37.0823 40.3081C37.0439 40.3624 36.9864 40.4167 36.9256 40.4903C36.8585 40.5606 36.7594 40.6437 36.6283 40.7396C36.4972 40.8388 36.347 40.9315 36.1743 41.0114L35.4933 40.4839C35.6788 40.4231 35.8482 40.356 35.9985 40.2793C36.1519 40.1994 36.283 40.0938 36.3949 39.9532C36.4908 39.8253 36.5356 39.723 36.5164 39.6495C36.494 39.5759 36.4684 39.5216 36.4269 39.4896C36.3533 39.4321 36.267 39.4161 36.1615 39.4385C36.0592 39.464 35.9313 39.5184 35.7779 39.5983C35.6084 39.6846 35.4486 39.7518 35.2919 39.7965C35.1321 39.8413 34.9722 39.8509 34.806 39.8285C34.6429 39.8061 34.4831 39.7326 34.3296 39.6111C34.1826 39.496 34.0675 39.3553 33.9971 39.1923C33.9268 39.0356 33.9108 38.8598 33.946 38.6648C33.9812 38.473 34.0707 38.2811 34.2209 38.0861C34.3296 37.9486 34.4479 37.8272 34.5662 37.7344C34.6909 37.6385 34.7996 37.565 34.8987 37.517C34.9946 37.4691 35.0681 37.4403 35.1033 37.4307L35.7619 37.9391C35.5988 37.9774 35.439 38.035 35.2728 38.1117C35.1097 38.1884 34.9754 38.2971 34.8635 38.441C34.7932 38.5337 34.758 38.62 34.7644 38.6936C34.774 38.7671 34.8092 38.8246 34.8635 38.8726C34.9179 38.9141 34.9818 38.9301 35.0522 38.9173C35.1289 38.9078 35.2376 38.8726 35.3783 38.8054C35.6276 38.6935 35.8386 38.6104 36.0081 38.5561C36.1775 38.5017 36.3406 38.4825 36.4972 38.4985C36.6539 38.5145 36.8105 38.5849 36.9672 38.7063L36.9768 38.7031Z" fill="white"/>
<path d="M39.8351 37.2166L38.1534 38.9142L35.6501 36.4365L37.2998 34.7676L37.8049 35.2632L36.8235 36.2543L37.287 36.7146L38.2206 35.7683L38.7289 36.267L37.7922 37.2102L38.3229 37.7377L39.3331 36.721L39.8351 37.2198V37.2166Z" fill="white"/>
<path d="M41.782 33.4377C41.9834 33.6998 42.1081 33.9812 42.1721 34.2849C42.2328 34.5854 42.204 34.8859 42.089 35.1769C41.9739 35.4678 41.7629 35.7331 41.4559 35.9697C41.1458 36.2063 40.8293 36.3374 40.5128 36.3725C40.1931 36.4013 39.899 36.347 39.6272 36.2095C39.3555 36.0688 39.1221 35.8738 38.9303 35.6244C38.7385 35.3719 38.6106 35.1001 38.5466 34.7964C38.4827 34.5023 38.5115 34.2018 38.6266 33.9012C38.7385 33.6039 38.9527 33.3386 39.2628 33.0988C39.4962 32.9198 39.7295 32.7983 39.9693 32.7343C40.2091 32.6736 40.4425 32.664 40.6567 32.7024C40.8741 32.7439 41.0819 32.8302 41.2769 32.9581C41.4687 33.086 41.6414 33.2458 41.7852 33.4377H41.782ZM41.0052 34.0323C40.9284 33.9268 40.8389 33.8437 40.7462 33.7766C40.6503 33.7126 40.5512 33.6679 40.4457 33.6487C40.3402 33.6295 40.2347 33.6327 40.126 33.6551C40.0173 33.6838 39.9118 33.7382 39.8031 33.8149C39.5953 33.9684 39.4898 34.1602 39.4706 34.3808C39.4578 34.6014 39.5345 34.822 39.6976 35.033C39.8638 35.2472 40.0556 35.3751 40.2698 35.4198C40.4872 35.4614 40.7014 35.407 40.8997 35.2536C41.0371 35.1417 41.1362 35.0234 41.1842 34.8859C41.2353 34.7516 41.2449 34.611 41.2098 34.4607C41.181 34.3169 41.1107 34.173 40.9988 34.0323H41.0052Z" fill="white"/>
<path d="M45.3723 31.6697C45.5161 31.9351 45.5961 32.1844 45.6088 32.421C45.6184 32.6544 45.5801 32.8686 45.4938 33.054C45.4042 33.2458 45.2891 33.4057 45.1421 33.5496C44.995 33.687 44.8416 33.8021 44.6753 33.8916C44.4387 34.0195 44.1862 34.0994 43.9176 34.1314C43.6427 34.1602 43.3741 34.109 43.1088 33.9748C42.8402 33.8405 42.6132 33.6039 42.431 33.2586L41.5103 31.5482L42.3479 31.0974L43.1375 32.5649C43.2494 32.7727 43.3645 32.9261 43.4892 33.0284C43.6139 33.1339 43.7418 33.1915 43.8697 33.2011C43.9975 33.2139 44.1254 33.1851 44.2565 33.1116C44.378 33.0476 44.4675 32.9581 44.5346 32.843C44.5986 32.7343 44.6146 32.5968 44.6018 32.4338C44.5826 32.2739 44.5187 32.0917 44.4068 31.8871L43.6139 30.4133L44.4579 29.9593L45.3755 31.6697H45.3723Z" fill="white"/>
<path d="M48.9977 31.999L46.7406 32.827L45.5321 29.5213L46.4273 29.1952L47.348 31.7081L48.7068 31.2093L48.9977 32.0022V31.999Z" fill="white"/>
<path d="M52.8917 30.1383C52.9333 30.3525 52.9141 30.554 52.8437 30.7266C52.767 30.9024 52.6519 31.0495 52.4889 31.1614C52.3258 31.2797 52.1276 31.3532 51.8942 31.3948C51.8335 31.4076 51.7536 31.414 51.6544 31.4235C51.5585 31.4331 51.4307 31.4299 51.2676 31.4108C51.1078 31.3948 50.9351 31.3628 50.7497 31.3116L50.6026 30.4612C50.7785 30.5444 50.9511 30.6051 51.1173 30.6499C51.2804 30.6946 51.453 30.7042 51.6289 30.6722C51.7855 30.6435 51.8846 30.5987 51.923 30.5284C51.9582 30.4612 51.9741 30.4005 51.9646 30.3493C51.955 30.2566 51.8942 30.1831 51.8047 30.1351C51.7088 30.0808 51.5841 30.036 51.4179 29.9977C51.2356 29.9497 51.0662 29.8858 50.9223 29.8122C50.7753 29.7419 50.6506 29.6396 50.5451 29.5117C50.4364 29.3838 50.366 29.224 50.3373 29.0322C50.3021 28.8435 50.3181 28.6677 50.3756 28.5047C50.43 28.3384 50.5323 28.1977 50.6921 28.0795C50.8424 27.9612 51.0406 27.8812 51.2836 27.8365C51.4626 27.8045 51.6225 27.7981 51.7791 27.8077C51.9358 27.8205 52.0637 27.8429 52.166 27.8716C52.2715 27.9036 52.3418 27.926 52.3866 27.9484L52.5272 28.7604C52.3802 28.6805 52.2235 28.6134 52.0541 28.5622C51.8814 28.5079 51.7088 28.4951 51.5298 28.5238C51.4147 28.5462 51.3315 28.5878 51.2868 28.6453C51.2452 28.7029 51.2324 28.7732 51.242 28.8435C51.2548 28.9139 51.29 28.9682 51.3507 29.0098C51.4115 29.0482 51.517 29.0929 51.664 29.1441C51.9262 29.2272 52.1372 29.3039 52.297 29.3806C52.4601 29.4574 52.5912 29.5501 52.6967 29.6684C52.799 29.7867 52.8693 29.9433 52.9013 30.1383H52.8917Z" fill="white"/>
<path d="M56.9487 30.9472L55.7881 30.9919L54.5157 29.3902L54.5797 31.0335L53.6206 31.0687L53.4927 27.5519L54.4486 27.5168L54.5029 29.0897L55.5963 27.4784L56.6322 27.44L55.5164 29.1281L56.9519 30.9472H56.9487Z" fill="white"/>
<path d="M62.0383 31.6953L60.8906 31.4907L59.9858 29.6556L59.6949 31.2797L58.7582 31.1166L59.3752 27.6511L60.3119 27.8141L60.0402 29.3647L61.4437 28.0123L62.4667 28.1946L61.0153 29.6108L62.0415 31.6953H62.0383Z" fill="white"/>
<path d="M65.5136 32.8942L64.7079 32.6128L63.8032 30.2214L63.1606 32.0725L62.2622 31.7624L63.4227 28.4375L64.222 28.7156L65.1267 31.0942L65.7693 29.2559L66.6741 29.5692L65.5168 32.8942H65.5136Z" fill="white"/>
<path d="M67 33.6583L66.1432 33.2394L67.6969 30.0808L68.5537 30.4996L67 33.6551V33.6583Z" fill="white"/>
<path d="M70.2196 35.2983C70.146 35.2855 70.0853 35.2728 70.0341 35.2632C69.9766 35.2536 69.935 35.2408 69.8839 35.2312C69.8391 35.2184 69.772 35.2024 69.6921 35.1768C69.545 35.1321 69.4107 35.0777 69.2765 35.017C69.1454 34.9562 69.0143 34.8859 68.8768 34.7964C68.6051 34.6238 68.3877 34.4128 68.2278 34.157C68.068 33.9012 67.9881 33.6135 68.0008 33.2938C68.0104 32.9741 68.1159 32.6448 68.3301 32.3091C68.4708 32.0917 68.6402 31.9063 68.8449 31.7368C69.0495 31.577 69.2637 31.4747 69.4939 31.4427C69.6825 31.4139 69.8519 31.4107 70.0118 31.4363C70.1716 31.4587 70.3155 31.4971 70.4434 31.5578C70.5744 31.6122 70.7119 31.6857 70.8526 31.7752C71.0892 31.9223 71.2714 32.0661 71.4025 32.2036C71.5304 32.3379 71.6646 32.4945 71.8053 32.68L71.3609 33.3801C71.2874 33.2235 71.2011 33.0796 71.102 32.9389C70.9965 32.8014 70.8494 32.6672 70.6416 32.5393C70.4114 32.3922 70.1908 32.3219 69.9894 32.3347C69.788 32.3411 69.6185 32.3986 69.4747 32.5009C69.334 32.6 69.2253 32.7183 69.1422 32.8462C69.0463 32.9965 68.9919 33.1531 68.9727 33.3194C68.9568 33.4856 68.9855 33.6487 69.0654 33.8085C69.1486 33.9652 69.2733 34.0994 69.4555 34.2145C69.5578 34.2785 69.6793 34.3328 69.8168 34.3744L70.0373 34.0259L69.6761 33.7957L70.0533 33.1947L71.1211 33.8725L70.2132 35.3047L70.2196 35.2983Z" fill="white"/>
<path d="M73.0681 38.0478L72.3519 37.418L73.2567 36.3853L72.1729 35.439L71.2713 36.4716L70.552 35.8418L72.873 33.1915L73.5892 33.8245L72.7356 34.7932L73.8194 35.7427L74.6666 34.7708L75.3827 35.3974L73.0617 38.0478H73.0681Z" fill="white"/>
<path d="M77.416 39.0356L76.6679 38.1501L74.6346 39.8701L74.0176 39.1411L76.0509 37.4211L75.3028 36.5356L75.955 35.9825L78.0746 38.4826L77.4192 39.0388L77.416 39.0356Z" fill="white"/>
<path d="M77.5855 42.287C77.4001 42.4053 77.2147 42.4693 77.0228 42.4724C76.8374 42.4756 76.6584 42.4245 76.4857 42.319C76.3131 42.2135 76.1628 42.0632 76.0318 41.8682C75.9998 41.8107 75.955 41.7403 75.9135 41.654C75.8655 41.5709 75.8208 41.4526 75.7696 41.2991C75.7185 41.1425 75.6833 40.9698 75.6577 40.7812L76.377 40.3081C76.377 40.5063 76.3802 40.6853 76.409 40.8548C76.4346 41.0274 76.4953 41.1808 76.5912 41.3311C76.684 41.4686 76.7639 41.5389 76.8438 41.5453C76.9173 41.5517 76.9749 41.5453 77.0228 41.5133C77.0996 41.4622 77.1443 41.3855 77.1571 41.28C77.1667 41.1745 77.1571 41.037 77.1252 40.8707C77.0996 40.6789 77.0932 40.5031 77.0996 40.34C77.106 40.1802 77.1475 40.0235 77.2211 39.8765C77.2978 39.7294 77.4193 39.5983 77.5855 39.4928C77.739 39.3841 77.9084 39.3298 78.0811 39.3138C78.2537 39.301 78.4295 39.3426 78.599 39.4353C78.7748 39.5312 78.9251 39.6814 79.0594 39.8892C79.1553 40.0363 79.232 40.1834 79.2799 40.3304C79.3311 40.4775 79.3631 40.6054 79.3759 40.7109C79.3918 40.8196 79.3918 40.8931 79.3918 40.9411L78.7045 41.3919C78.7173 41.2256 78.7173 41.0562 78.6981 40.8771C78.6757 40.7013 78.6214 40.535 78.5254 40.3816C78.4551 40.2793 78.388 40.2249 78.3144 40.209C78.2473 40.1898 78.1802 40.2058 78.113 40.2409C78.0555 40.2793 78.0203 40.3368 78.0043 40.4104C77.9915 40.4839 77.9915 40.5958 78.0043 40.7524C78.0331 41.0274 78.0427 41.248 78.0395 41.427C78.0331 41.6061 77.9947 41.7627 77.934 41.9034C77.8669 42.0472 77.7486 42.1719 77.5855 42.2838V42.287Z" fill="white"/>
<path d="M36.4364 73.1991C36.2063 73.3941 35.9601 73.4772 35.7043 73.4484C35.4454 73.4197 35.2088 73.2758 34.9946 73.02L33.8245 71.6101L36.5355 69.3594L37.517 70.5391C37.6417 70.6926 37.7376 70.8397 37.7984 70.9803C37.8623 71.1178 37.8911 71.2457 37.8911 71.364C37.8911 71.4823 37.8687 71.5878 37.8207 71.6837C37.7696 71.7828 37.6993 71.8723 37.6097 71.9458C37.5074 72.029 37.4051 72.0865 37.29 72.1249C37.1749 72.1568 37.0726 72.1696 36.9735 72.1664C36.8744 72.1568 36.7913 72.1377 36.7274 72.1025C36.7913 72.3295 36.8073 72.5341 36.7689 72.7099C36.7242 72.8922 36.6187 73.0552 36.4396 73.1991H36.4364ZM35.8578 72.435C36.0944 72.2432 36.0816 71.997 35.829 71.6933L35.586 71.3896L34.8891 71.965L35.1384 72.2655C35.3878 72.5693 35.6308 72.6236 35.8578 72.435ZM36.8904 71.38C37.0215 71.2713 37.0758 71.1594 37.0535 71.0475C37.0375 70.9324 36.9544 70.7917 36.8201 70.6255L36.6954 70.472L36.0432 71.0123L36.1743 71.1722C36.3118 71.3416 36.4364 71.4471 36.5419 71.4855C36.6506 71.5238 36.7657 71.4887 36.8968 71.38H36.8904Z" fill="white"/>
<path d="M38.7958 76.7638L38.0765 76.1052L38.361 75.4018L37.3476 74.4779L36.6698 74.8296L35.9473 74.171L39.3553 72.5117L40.1418 73.2247L38.799 76.7638H38.7958ZM38.6168 74.804L39.1379 73.5412L37.9262 74.1742L38.6168 74.804Z" fill="white"/>
<path d="M41.6411 77.4799C41.5132 77.6621 41.363 77.7868 41.1871 77.8635C41.0049 77.9371 40.8227 77.9562 40.6212 77.9179C40.4294 77.8795 40.2312 77.7964 40.0394 77.6621C39.9914 77.6237 39.9211 77.5758 39.8476 77.5151C39.7772 77.4511 39.6877 77.3552 39.5854 77.2305C39.4767 77.1058 39.3808 76.9588 39.2881 76.7925L39.7868 76.0892C39.8508 76.2682 39.9307 76.4345 40.017 76.5815C40.1001 76.7318 40.2152 76.8597 40.3591 76.9588C40.4902 77.0547 40.5957 77.0898 40.6724 77.0675C40.7459 77.0483 40.7971 77.0163 40.8259 76.9716C40.8802 76.8948 40.893 76.8053 40.8642 76.7062C40.8323 76.6039 40.7715 76.4792 40.6852 76.3321C40.5893 76.1659 40.5125 76.006 40.4646 75.8526C40.4102 75.6991 40.3911 75.5393 40.407 75.373C40.423 75.2068 40.4902 75.0437 40.6021 74.8839C40.714 74.7272 40.8418 74.6089 41.0017 74.5354C41.1583 74.4587 41.3374 74.4299 41.526 74.4555C41.7178 74.4811 41.9192 74.5674 42.1207 74.7081C42.2677 74.8104 42.386 74.9191 42.4883 75.0342C42.5938 75.1524 42.6705 75.2611 42.7217 75.3539C42.7728 75.4498 42.8048 75.5169 42.824 75.5617L42.3476 76.2362C42.3029 76.0796 42.2357 75.9197 42.1494 75.7599C42.0695 75.6 41.9512 75.469 41.8041 75.3666C41.705 75.2995 41.6187 75.2675 41.5484 75.2803C41.4717 75.2899 41.4141 75.3251 41.3725 75.3858C41.3342 75.4466 41.3214 75.5073 41.3342 75.5808C41.3502 75.6544 41.3949 75.7567 41.4621 75.9006C41.5899 76.1435 41.6827 76.3481 41.7434 76.5176C41.8041 76.6838 41.8297 76.8437 41.8201 77.0003C41.8105 77.157 41.7498 77.3168 41.6379 77.4767L41.6411 77.4799Z" fill="white"/>
<path d="M44.7007 80.3349L43.6681 79.7882L43.3676 77.7676L42.5971 79.2191L41.7531 78.7715L43.3995 75.6608L44.2435 76.1084L43.5018 77.5023L45.2538 76.6455L46.1745 77.1314L44.3618 78.0362L44.6975 80.3349H44.7007Z" fill="white"/>
<path d="M47.5045 81.3707L45.2666 80.5395L46.5007 77.2369L48.7034 78.0554L48.4572 78.7204L47.1497 78.2344L46.9227 78.8387L48.1695 79.3022L47.9233 79.964L46.6765 79.5036L46.4143 80.2038L47.7539 80.7057L47.5045 81.3675V81.3707Z" fill="white"/>
<path d="M52.0316 79.7434L50.8998 79.4876L50.3148 82.0868L49.3812 81.8758L49.9727 79.2766L48.8409 79.0177L49.0296 78.1864L52.2234 78.909L52.0348 79.7434H52.0316Z" fill="white"/>
<path d="M55.2477 81.7032C55.2158 82.0037 55.1007 82.2371 54.9024 82.4033C54.701 82.5696 54.4357 82.6335 54.1032 82.6048L52.2809 82.4513L52.5782 78.9474L54.1032 79.0752C54.2982 79.0912 54.4676 79.1264 54.6115 79.1807C54.7554 79.2351 54.8705 79.3022 54.9504 79.3885C55.0303 79.4685 55.0911 79.5612 55.1294 79.6603C55.1646 79.7658 55.1806 79.8745 55.1646 79.996C55.1582 80.1239 55.1262 80.2422 55.0719 80.3477C55.0143 80.4532 54.9504 80.5363 54.8769 80.597C54.8065 80.6642 54.7298 80.7057 54.6595 80.7313C54.8673 80.8432 55.0207 80.9743 55.123 81.1309C55.2221 81.2812 55.2637 81.4762 55.2477 81.7032ZM54.2918 81.5817C54.3174 81.2812 54.1352 81.1117 53.7387 81.083L53.3519 81.0478L53.2752 81.943L53.662 81.9781C54.0584 82.0101 54.2598 81.879 54.2886 81.5817H54.2918ZM54.2598 80.1079C54.2758 79.9384 54.2343 79.8201 54.1416 79.7594C54.0424 79.6955 53.8922 79.6539 53.6716 79.6347L53.4734 79.6155L53.403 80.4564L53.6108 80.4723C53.825 80.4915 53.9881 80.4755 54.0872 80.4308C54.1895 80.386 54.2471 80.2741 54.263 80.1047L54.2598 80.1079Z" fill="white"/>
<path d="M59.439 82.528L58.4639 82.5792L58.1698 81.879L56.7951 81.9525L56.5745 82.6815L55.593 82.7326L56.8015 79.1424L57.8565 79.088L59.439 82.528ZM57.9141 81.278L57.3834 80.0215L56.9837 81.3291L57.9141 81.278Z" fill="white"/>
<path d="M62.4027 81.9589L60.0401 82.4033L59.3911 78.9409L60.3278 78.7683L60.8202 81.3963L62.2429 81.1309L62.3995 81.9589H62.4027Z" fill="white"/>
<path d="M65.4207 81.0574L63.1252 81.7671L62.0862 78.4071L62.9973 78.1257L63.7902 80.6834L65.1745 80.255L65.4207 81.0606V81.0574Z" fill="white"/>
<path d="M69.6503 78.8163C69.5704 78.9441 69.4713 79.0592 69.3722 79.1615C69.2699 79.2638 69.1644 79.3565 69.0429 79.4365C68.9278 79.5164 68.8063 79.5899 68.672 79.6571C68.4259 79.7818 68.1861 79.8553 67.9527 79.8777C67.7193 79.9 67.4923 79.8745 67.2749 79.7977C67.0607 79.7242 66.8625 79.6027 66.6899 79.4429C66.5172 79.2798 66.3766 79.0816 66.2583 78.8418C66.1208 78.5733 66.0441 78.3175 66.0281 78.0681C66.0089 77.8252 66.0409 77.595 66.124 77.384C66.2103 77.1698 66.3318 76.9844 66.4917 76.8213C66.6547 76.6615 66.8433 76.5272 67.0575 76.4185C67.3772 76.2554 67.7801 76.1531 68.266 76.1084L68.688 76.9396C68.5026 76.9172 68.3236 76.9012 68.1541 76.9076C67.9815 76.9108 67.8056 76.962 67.6234 77.0579C67.4572 77.141 67.3261 77.2529 67.2174 77.3968C67.1087 77.5438 67.048 77.7037 67.0288 77.8795C67.0096 78.0586 67.048 78.2344 67.1343 78.4166C67.2174 78.5765 67.3261 78.7012 67.4732 78.7939C67.617 78.8898 67.7705 78.9441 67.9463 78.9537C68.119 78.9601 68.2948 78.925 68.4674 78.8386C68.6017 78.7683 68.7264 78.682 68.8255 78.5861C68.9342 78.487 69.0141 78.3974 69.0749 78.3047C69.1356 78.2184 69.1964 78.1225 69.2507 78.017L69.6535 78.8099L69.6503 78.8163Z" fill="white"/>
<path d="M72.5532 77.2146L70.5551 78.5573L68.5857 75.6384L69.3786 75.1045L70.8748 77.3233L72.0768 76.5144L72.55 77.2146H72.5532Z" fill="white"/>
<path d="M74.5738 73.4037C74.772 73.6275 74.9063 73.8545 74.9702 74.0815C75.0374 74.3085 75.0502 74.5227 75.0022 74.7273C74.9606 74.9319 74.8871 75.1141 74.7784 75.2835C74.6697 75.453 74.5418 75.6001 74.398 75.7279C74.1997 75.907 73.9728 76.0412 73.7106 76.134C73.4516 76.2267 73.1831 76.2427 72.8922 76.1691C72.6012 76.0988 72.3295 75.9198 72.0705 75.6288L70.7789 74.1742L71.4951 73.5412L72.598 74.7848C72.7515 74.9606 72.905 75.0853 73.0488 75.1557C73.1959 75.226 73.3334 75.258 73.4548 75.2388C73.5859 75.2196 73.701 75.1621 73.8129 75.0662C73.9184 74.9734 73.9855 74.8647 74.0207 74.7401C74.0559 74.6122 74.0431 74.4779 73.9919 74.3244C73.9344 74.171 73.8289 74.0079 73.6786 73.8385L72.5693 72.5885L73.2854 71.9554L74.5738 73.4069V73.4037Z" fill="white"/>
<path d="M77.4767 70.8972C77.7133 71.0922 77.838 71.3224 77.8572 71.5782C77.8732 71.8371 77.7773 72.0961 77.5599 72.3551L76.3865 73.7585L73.6851 71.5014L74.6665 70.3281C74.7944 70.1779 74.9223 70.0564 75.0502 69.9701C75.1749 69.8837 75.2964 69.8326 75.4147 69.8102C75.5234 69.7878 75.6384 69.7942 75.7408 69.8262C75.8463 69.8518 75.9422 69.9061 76.0349 69.9829C76.134 70.066 76.2075 70.1619 76.2683 70.2674C76.3226 70.3697 76.3514 70.472 76.3642 70.5679C76.377 70.6638 76.3738 70.7533 76.3514 70.8205C76.5624 70.715 76.7574 70.6638 76.9428 70.6702C77.1251 70.6734 77.3073 70.7565 77.4799 70.9004L77.4767 70.8972ZM75.6065 70.7853C75.4754 70.6798 75.3539 70.6446 75.2484 70.6862C75.1397 70.731 75.0182 70.8333 74.8807 70.9931L74.7529 71.1498L75.3987 71.6901L75.5329 71.5334C75.6704 71.364 75.7535 71.2265 75.7727 71.1178C75.7887 71.0059 75.7344 70.8972 75.6065 70.7885V70.7853ZM76.8309 71.6069C76.5975 71.4151 76.3578 71.4663 76.1052 71.77L75.8558 72.0705L76.5464 72.6492L76.7958 72.3519C77.0483 72.0481 77.0611 71.7988 76.8309 71.6101V71.6069Z" fill="white"/>
<path d="M100.355 48.9688L99.3891 47.4982C99.3891 47.4982 94.4689 45.7558 90.3735 48.1696L90.1113 47.4151C90.1113 47.4151 89.2737 47.4822 88.9156 47.5142L89.9003 44.3427L88.8517 42.7602L84.8139 43.0895C84.4814 44.3523 82.6623 48.745 79.0368 49.183L78.8386 49.7425C78.0777 48.825 77.2049 48.5212 76.0156 48.5148L77.0003 45.4009L75.9485 43.8184L67.7162 44.4962L68.0486 48.566L67.5787 50.0494C62.5977 48.518 58.0707 49.5091 55.2126 51.6895L54.6627 51.2195L56.6225 49.5827L52.4567 43.6266L46.7564 48.3838L48.3581 50.7048L45.8836 50.903L46.0947 52.7861C44.9885 51.325 43.2013 51.0341 41.4654 51.2259C41.4749 51.2259 37.1366 51.5808 34.8987 51.763C37.7024 49.1638 40.8771 46.213 40.8771 46.213L39.7038 44.445C39.7038 44.445 31.1741 45.1452 29.5149 45.2826C29.5308 45.2731 27.8684 45.4201 27.8684 45.4201C27.894 45.6151 28.0986 47.1497 28.1753 47.7476C28.2201 48.0864 28.2584 48.3934 28.2808 48.5532C28.1625 48.6651 27.7373 49.0647 27.1618 49.6082C26.3306 50.3915 22.005 54.5253 21.0076 55.4652C21.0523 55.6602 21.7429 59.5638 21.7429 59.5638L22.2544 62.4891C22.9705 66.8274 25.4802 68.8927 29.7035 68.5826L48.4956 67.0928L46.8012 68.8288C47.9106 70.5647 50.5641 73.2598 54.0329 73.2598H54.0648C58.4544 73.2598 61.7985 70.7246 63.8094 65.9131L76.9843 64.8421L77.6237 62.8695C77.9115 63.5984 79.1008 65.1074 81.0318 65.1074C82.9628 65.1074 84.1041 64.2634 84.4302 63.9981L85.1368 63.0102L85.3669 63.4578C89.8748 64.9092 93.7496 63.4833 95.6102 62.1662C97.8833 60.5549 99.485 57.5848 98.4364 54.9281L100.348 48.9592L100.355 48.9688ZM31.0942 62.8919C30.7329 62.4059 30.4452 61.7409 30.2694 60.9321C30.263 60.8969 29.6683 58.3937 29.3518 56.9294L33.1371 53.4159L33.3481 55.9895L31.0942 62.8919Z" fill="#A6A6A6"/>
<path d="M20.1444 62.3804C19.3707 63.9533 18.5395 65.6477 18.4468 65.8395C18.4756 65.9674 18.6386 66.6804 18.8368 67.5627L18.8848 67.7737C18.8976 67.8377 18.9136 67.9016 18.9296 67.9656L19.2876 69.5417C19.3771 69.9413 19.6329 71.0603 19.6329 71.0603L17.6444 71.3001C17.6444 71.3001 17.0753 70.6351 16.6916 70.1907C16.9602 71.4407 16.1705 72.5053 15.8476 72.8282C14.8853 73.7906 13.079 74.1166 11.7171 72.7579C9.72531 70.7662 10.7164 67.6778 12.0527 67.3102L12.6666 65.4495L9.64539 61.8017L13.7408 61.9488L20.0773 43.0255L27.667 38.1597L27.0372 48.3358L23.2232 56.1046L20.1444 62.3772V62.3804Z" fill="#A6A6A6"/>
<path d="M21.8772 57.6935L26.5321 48.2111L27.0948 39.1571L20.5217 43.374L14.1148 62.4858L10.7867 62.3676L13.2548 65.344C13.0566 65.9546 12.6762 67.1056 12.4876 67.6874C12.1711 67.7865 11.8897 67.9783 11.6563 68.2597C11.5892 68.3396 11.5317 68.4291 11.4741 68.5282C10.8123 69.6696 11.1096 71.2713 12.0144 72.3135C13.6513 74.1998 16.8323 72.6876 16.113 69.8966C16.1737 69.7719 16.3624 69.3243 16.4583 69.1229L17.8618 70.763L19.0095 70.6255L17.9097 65.782L20.8286 59.8355" fill="#160A0A"/>
<path d="M15.6111 67.0448L14.2683 69.8422C14.4665 70.4496 14.4505 71.1242 14.1724 71.6006C13.7632 72.3071 12.9511 72.3103 12.3533 71.607C11.7554 70.9036 11.6084 69.7655 12.0144 69.0589C12.235 68.6753 12.5803 68.4962 12.9447 68.5346L14.0381 65.1937L12.4396 63.3139L14.604 63.4705L21.0396 44.0294L25.1382 41.4046L24.6491 48.2846L16.3847 65.5166L17.2352 68.9566L15.6079 67.0448H15.6111ZM13.5873 70.91C13.776 70.5871 13.7056 70.066 13.4307 69.7463C13.1621 69.4298 12.7881 69.4298 12.6027 69.7463C12.4172 70.0724 12.4812 70.5903 12.7561 70.9132C13.0247 71.2329 13.4019 71.2297 13.5873 70.9132V70.91Z" fill="url(#paint5_linear_1876_59765)"/>
<path d="M15.2914 64.2762L13.776 64.1643L13.4786 63.8158L14.9972 63.9245L21.4264 44.4834L24.5723 42.4693L24.534 43.0383L21.7238 44.8351L15.2914 64.2762Z" fill="#EFEFEF"/>
<path d="M13.3315 68.9918L14.4281 65.6509L14.7286 66.0026L13.6321 69.3403L13.3315 68.9918Z" fill="#EFEFEF"/>
<path d="M21.9475 57.1564L22.8682 62.3931C23.4181 65.296 24.7832 68.3524 29.6811 67.9943L36.1966 67.4572L36.6378 66.2168L37.565 67.3389L42.8624 66.9329L43.2812 65.7468L44.0837 66.8562L49.6369 66.4086L51.2131 61.498C51.3633 64.2027 53.4446 65.6989 56.2836 64.8804C56.1269 65.4911 55.3948 66.5461 54.3526 66.5461C52.8851 66.5461 52.4535 64.9636 52.2137 64.1899L47.6068 68.8959C49.9279 72.1313 52.7924 72.6652 54.0552 72.6652C55.3181 72.6652 61.012 72.7259 63.8253 64.2282L64.3816 65.2865L69.4553 64.8772L69.8933 63.64L70.7533 64.7589L76.5559 64.2826L77.6621 60.8458C77.7324 62.1789 78.8098 64.516 81.0605 64.516C82.6463 64.516 83.5702 63.8925 84.0178 63.5696L85.2167 61.9104L85.6898 62.9111C86.3516 63.2499 88.9188 63.5569 90.284 63.429C91.8281 63.2819 96.4958 62.569 97.9792 57.9748C98.1358 57.5017 98.2094 57.0381 98.2094 56.5937C98.2094 56.0406 98.0527 55.446 97.8162 54.9664L99.7056 49.0615L99.0182 48.0193C94.9037 46.8172 91.486 47.9138 90.0762 49.1287L89.7053 48.0609C89.7053 48.0609 88.8549 48.1312 88.0844 48.1919C88.6023 46.5487 89.2545 44.4418 89.2545 44.4418L88.5608 43.3996L85.2646 43.665C83.7684 48.0769 80.7984 49.5219 79.4269 49.7297L78.9633 51.1396C78.5157 49.3716 76.7989 48.9496 75.1876 49.1862C75.7247 47.4854 76.3481 45.5032 76.3481 45.5032L75.6544 44.4578L68.3811 45.0589C68.3811 45.0589 68.6433 48.3134 68.6688 48.6459C68.6433 48.7258 68.3715 49.5699 67.9751 50.8263L67.0575 50.5226C65.9482 50.1517 64.8836 49.9407 62.7128 49.9375H62.6968C62.3068 49.9439 61.9167 49.9759 61.5714 50.0047H61.5491C58.2114 50.3467 55.7529 51.5392 53.9465 53.7612L54.5412 51.9165L53.7355 51.2259L55.82 49.4867L52.3448 44.525L47.5717 48.5116L49.4547 51.2323L46.5582 51.4721L46.9642 55.0592L46.4719 56.0982C46.4239 52.5687 44.2148 51.5424 41.5389 51.8366L33.6646 52.4824C33.6646 52.4824 33.9299 55.7337 33.9587 56.0662C33.8756 56.3156 32.357 60.9225 31.3659 64.0076C30.4899 63.4546 29.9337 62.2621 29.6811 61.0664C29.6811 61.0664 28.9873 58.1251 28.69 56.728C29.4317 56.0375 40.1034 46.1299 40.1034 46.1299L39.4064 45.0844L28.5589 45.9796C28.5589 45.9796 28.8467 48.1887 28.9266 48.793C28.4438 49.2438 24.7673 52.7125 22.8426 54.5285L21.6661 55.7082" fill="#160A0A"/>
<path d="M50.481 50.8647L48.8313 48.5308L52.1115 45.7974L53.7643 48.1248L50.481 50.8647Z" fill="url(#paint6_linear_1876_59765)"/>
<path d="M69.5992 48.6139L64.9955 63.0133L68.6976 62.7064L71.073 55.3341C71.559 53.8379 72.176 52.8788 73.1223 52.7988C74.075 52.7189 74.2413 53.5981 73.7489 55.1135L71.3704 62.489L75.0693 62.1789L77.6653 54.132C78.6596 51.0597 77.4735 49.816 75.357 49.9919C74.2669 50.0814 73.2086 50.5801 72.2719 51.6095L74.2381 45.4041L69.3658 45.8069L69.5928 48.6171L69.5992 48.6139Z" fill="url(#paint7_linear_1876_59765)"/>
<path d="M26.8806 55.203L36.6379 46.1458L29.6012 46.7213L29.8954 49.0199L22.6669 55.836L23.6292 61.2518C23.8913 62.9718 24.7449 66.1784 27.9068 65.9162L31.2509 65.6413C29.5149 64.6214 28.527 62.9398 28.0475 60.769L26.8742 55.203H26.8806Z" fill="url(#paint8_linear_1876_59765)"/>
<path d="M34.8892 56.0342L31.8073 65.5901L35.5094 65.2864L37.888 57.9141C38.0734 57.329 38.2908 56.5969 38.7736 56.063C39.1061 55.6793 39.5696 55.4076 39.9309 55.3788C40.3817 55.3405 40.7238 55.5675 40.8069 56.0246C40.9412 56.501 40.7461 57.1084 40.5607 57.6903L38.1853 65.0626L41.8907 64.7589L44.2309 57.4889C44.6817 56.0918 45.1325 54.8929 44.7073 53.8251C44.2789 52.7541 43.3325 52.4727 42.172 52.5686C41.0786 52.655 40.0236 53.1569 39.0901 54.1831L39.5281 52.8212L34.6558 53.2208L34.886 56.031L34.8892 56.0342Z" fill="url(#paint9_linear_1876_59765)"/>
<path d="M86.5595 57.9652C87.4195 58.7197 88.5288 59.2153 89.878 59.1066C90.4726 59.0586 91.4541 58.7965 91.7706 57.8214C92.3397 56.0502 87.2596 56.3667 88.4137 52.7988C88.8741 51.373 89.8204 50.2412 91.0289 49.4739C92.2438 48.6843 93.4363 48.4541 94.552 48.3646C95.6678 48.2718 96.7164 48.3646 97.7075 48.5915L96.8187 51.3378C96.2209 50.7432 95.3801 50.4586 94.4177 50.5353C93.9893 50.5705 93.1134 50.7687 92.88 51.4817C92.6178 52.3033 93.2604 52.4568 93.7112 52.5974C94.389 52.8244 95.1659 53.045 95.6774 53.5437C96.3424 54.1768 96.7388 55.1519 96.304 56.4978C95.1627 60.0369 91.7227 61.0951 89.4528 61.2806C88.2571 61.3829 87.1285 61.191 86.0543 60.9704L86.5658 57.9716L86.5595 57.9652Z" fill="url(#paint10_linear_1876_59765)"/>
<path d="M56.2038 63.7295C53.6749 64.7014 52.07 63.1604 52.07 60.6603C52.07 59.1002 53.0515 54.9568 56.4819 52.5495C58.0133 51.4753 60.0274 50.8071 62.6586 50.7623C64.6439 50.7655 65.6254 50.9446 66.6964 51.3026C66.6964 51.3026 65.5231 52.0859 65.0435 53.6173L61.9648 63.3043C59.5127 70.8812 52.751 72.1409 48.9497 68.7168L51.9421 65.6765C52.102 66.204 52.3769 66.6036 52.7574 66.8785C54.5573 68.1797 57.035 67.0128 58.4481 62.6777L61.2359 53.9114C61.1624 53.8922 61.1176 53.8475 61.0409 53.8315C59.7621 53.3967 58.4641 53.9977 57.3547 55.5419C56.8655 56.2388 56.4851 57.1148 56.1686 58.5503C55.932 59.6021 56.0439 62.3164 58.6431 60.7403L56.2006 63.7327L56.2038 63.7295Z" fill="url(#paint11_linear_1876_59765)"/>
<path d="M87.3076 51.9772L88.2795 49.004L85.6164 49.2246L87.1382 44.3427L85.8754 44.4418C83.6342 49.6818 80.1239 50.4043 80.1239 50.4043L79.6475 51.8621L81.1725 51.7374L78.714 59.4806C78.0778 61.3861 79.4589 63.4737 82.5984 61.6482L84.9035 58.4544C83.2634 59.1194 82.7742 58.0228 83.0172 57.2555L84.9131 51.4273L86.3325 51.3122C86.5947 51.2962 87.0583 51.3506 87.3076 51.9772Z" fill="url(#paint12_linear_1876_59765)"/>
<path d="M52.4249 51.8141L47.5558 52.2138L47.786 55.024L44.7073 64.5831L48.4062 64.2762L52.4249 51.8141Z" fill="url(#paint13_linear_1876_59765)"/>
<path d="M53.8475 57.9109C55.0016 54.8322 56.6673 52.9779 59.3464 51.8749L59.2569 51.7566C56.3284 52.8021 54.5477 54.7139 53.3328 57.9557C52.2042 60.9609 52.9875 63.0901 55.0016 63.4386L55.1231 63.2979C53.4063 62.7032 52.7989 60.7179 53.8475 57.9109Z" fill="#EFEFEF"/>
<path d="M61.8624 54.0105L59.1257 62.6201C58.2785 65.2193 57.0508 66.6772 55.8136 67.1471L55.8775 67.2366C57.2619 66.9713 58.6941 65.4975 59.6372 62.5818L62.3227 54.1448L61.8592 54.0137L61.8624 54.0105Z" fill="#EFEFEF"/>
<path d="M50.3243 68.6177L52.0859 66.8306L51.8941 66.5397L49.8064 68.6625C51.0277 69.7591 52.639 70.2003 54.2758 70.1076L54.3398 70.0244C52.8979 69.9605 51.4241 69.6152 50.3211 68.6209L50.3243 68.6177Z" fill="#EFEFEF"/>
<path d="M79.9128 59.3847L82.3745 51.6415L81.879 51.6799L79.4205 59.4263C78.9537 60.8202 79.7913 62.4667 82.2594 61.1623L82.3489 60.9928C79.8744 61.8305 79.5004 60.638 79.9128 59.3847Z" fill="#EFEFEF"/>
<path d="M86.0639 44.9981C84.0881 49.6978 80.776 50.5194 80.776 50.5194L80.5043 51.3378L80.9998 51.2995L81.214 50.692C81.214 50.692 84.5006 49.832 86.3644 44.963L86.0607 44.9981H86.0639Z" fill="#EFEFEF"/>
<path d="M50.0591 48.4637L52.1307 46.7341L51.9645 46.4975L49.5571 48.5052L50.6793 50.0942L51.0054 49.7968L50.0591 48.4637Z" fill="#EFEFEF"/>
<path d="M86.697 59.9794L86.5851 60.5133C89.7725 61.1751 91.9049 60.4046 93.2317 59.4967L93.171 59.4327C91.9049 60.2927 89.245 60.849 86.697 59.9826V59.9794Z" fill="#EFEFEF"/>
<path d="M96.579 49.9599C96.0706 49.7265 94.7247 49.4452 93.4874 50.107L93.5354 50.2093C94.9133 49.6913 95.8692 50.1453 96.4319 50.4043L96.579 49.9599Z" fill="#EFEFEF"/>
<path d="M90.2297 50.9446C89.7917 51.325 88.8774 52.4344 88.9221 53.6748C89.0084 55.9927 93.4715 55.8232 92.1351 58.0676L92.2758 58.0963C93.8327 55.7753 89.5519 55.689 89.3985 53.5374C89.3154 52.3577 90.1146 51.2771 90.3032 51.0501L90.2297 50.9446Z" fill="#EFEFEF"/>
<path d="M36.1455 55.8936L35.8993 53.6333L35.4358 53.6717L35.6755 55.9128C35.6244 56.0758 33.6742 62.1246 32.7982 64.8229L33.2874 64.7813L36.1455 55.8904V55.8936Z" fill="#EFEFEF"/>
<path d="M49.0424 54.8833L48.793 52.623L48.3263 52.6614L48.5692 54.9057C48.5149 55.072 46.5647 61.1176 45.6887 63.8126L46.1779 63.7743L49.0424 54.8833Z" fill="#EFEFEF"/>
<path d="M70.8557 48.47L70.6031 46.2097L70.1427 46.2513L70.3793 48.4956C70.3282 48.6587 66.821 59.5509 65.9482 62.246L66.4406 62.2045L70.8589 48.47H70.8557Z" fill="#EFEFEF"/>
<path d="M41.3311 55.1103L41.2032 55.2414C41.3311 55.3213 41.801 55.8872 41.232 57.652C40.7748 59.065 39.5535 62.8759 39.09 64.305L39.5823 64.2666L41.7147 57.6168C42.1591 56.2389 41.7851 55.3949 41.3311 55.1135V55.1103Z" fill="#EFEFEF"/>
<path d="M74.5163 52.5271L74.3852 52.6582C74.5163 52.7413 74.9831 53.3072 74.4172 55.0719C73.9568 56.485 72.7387 60.2895 72.272 61.7249L72.7675 61.6802L74.8967 55.0272C75.3411 53.6524 74.9671 52.8052 74.5163 52.5239V52.5271Z" fill="#EFEFEF"/>
<path d="M24.8953 61.1463L24.0097 55.9927L31.203 49.167L30.9345 47.1529L30.4581 47.1913L30.6947 49.0743L23.4758 55.9096L24.4701 61.418C24.8889 63.4705 25.5283 64.8548 26.8327 65.3184L27.1972 65.2896C25.9503 64.6822 25.2278 63.0901 24.8985 61.1431L24.8953 61.1463Z" fill="#EFEFEF"/>
<defs>
<linearGradient id="paint0_linear_1876_59765" x1="28.3998" y1="63.6579" x2="28.3998" y2="41.9916" gradientUnits="userSpaceOnUse">
<stop stop-color="#F5A200"/>
<stop offset="0.4" stop-color="#F08000"/>
<stop offset="1" stop-color="#E1002A"/>
</linearGradient>
<linearGradient id="paint1_linear_1876_59765" x1="36.8937" y1="62.8542" x2="36.8937" y2="48.2124" gradientUnits="userSpaceOnUse">
<stop stop-color="#F5A200"/>
<stop offset="0.4" stop-color="#F08000"/>
<stop offset="1" stop-color="#E1002A"/>
</linearGradient>
<linearGradient id="paint2_linear_1876_59765" x1="55.9397" y1="64.2583" x2="55.9397" y2="47.0576" gradientUnits="userSpaceOnUse">
<stop stop-color="#F5A200"/>
<stop offset="0.4" stop-color="#F08000"/>
<stop offset="1" stop-color="#E1002A"/>
</linearGradient>
<linearGradient id="paint3_linear_1876_59765" x1="46.8894" y1="62.6565" x2="46.8894" y2="47.7079" gradientUnits="userSpaceOnUse">
<stop stop-color="#F5A200"/>
<stop offset="0.4" stop-color="#F08000"/>
<stop offset="1" stop-color="#E1002A"/>
</linearGradient>
<linearGradient id="paint4_linear_1876_59765" x1="49.5598" y1="62.6566" x2="49.5598" y2="47.7079" gradientUnits="userSpaceOnUse">
<stop stop-color="#F5A200"/>
<stop offset="0.4" stop-color="#F08000"/>
<stop offset="1" stop-color="#E1002A"/>
</linearGradient>
<linearGradient id="paint5_linear_1876_59765" x1="11.148" y1="72.2176" x2="25.7233" y2="43.5371" gradientUnits="userSpaceOnUse">
<stop stop-color="#F5A200"/>
<stop offset="0.4" stop-color="#F08000"/>
<stop offset="1" stop-color="#E1002A"/>
</linearGradient>
<linearGradient id="paint6_linear_1876_59765" x1="49.0244" y1="63.7653" x2="49.0244" y2="48.4081" gradientUnits="userSpaceOnUse">
<stop stop-color="#F5A200"/>
<stop offset="0.4" stop-color="#F08000"/>
<stop offset="1" stop-color="#E1002A"/>
</linearGradient>
<linearGradient id="paint7_linear_1876_59765" x1="69.323" y1="62.012" x2="69.323" y2="44.3894" gradientUnits="userSpaceOnUse">
<stop stop-color="#F5A200"/>
<stop offset="0.4" stop-color="#F08000"/>
<stop offset="1" stop-color="#E1002A"/>
</linearGradient>
<linearGradient id="paint8_linear_1876_59765" x1="27.2872" y1="64.7934" x2="27.2872" y2="42.5364" gradientUnits="userSpaceOnUse">
<stop stop-color="#F5A200"/>
<stop offset="0.4" stop-color="#F08000"/>
<stop offset="1" stop-color="#E1002A"/>
</linearGradient>
<linearGradient id="paint9_linear_1876_59765" x1="36.0133" y1="63.9686" x2="36.0133" y2="48.9259" gradientUnits="userSpaceOnUse">
<stop stop-color="#F5A200"/>
<stop offset="0.4" stop-color="#F08000"/>
<stop offset="1" stop-color="#E1002A"/>
</linearGradient>
<linearGradient id="paint10_linear_1876_59765" x1="89.7808" y1="60.0535" x2="89.7808" y2="44.4949" gradientUnits="userSpaceOnUse">
<stop stop-color="#F5A200"/>
<stop offset="0.4" stop-color="#F08000"/>
<stop offset="1" stop-color="#E1002A"/>
</linearGradient>
<linearGradient id="paint11_linear_1876_59765" x1="55.5791" y1="65.4111" x2="55.5791" y2="47.7405" gradientUnits="userSpaceOnUse">
<stop stop-color="#F5A200"/>
<stop offset="0.4" stop-color="#F08000"/>
<stop offset="1" stop-color="#E1002A"/>
</linearGradient>
<linearGradient id="paint12_linear_1876_59765" x1="81.287" y1="61.3925" x2="81.287" y2="45.9355" gradientUnits="userSpaceOnUse">
<stop stop-color="#F5A200"/>
<stop offset="0.4" stop-color="#F08000"/>
<stop offset="1" stop-color="#E1002A"/>
</linearGradient>
<linearGradient id="paint13_linear_1876_59765" x1="46.2796" y1="63.7653" x2="46.2796" y2="48.41" gradientUnits="userSpaceOnUse">
<stop stop-color="#F5A200"/>
<stop offset="0.4" stop-color="#F08000"/>
<stop offset="1" stop-color="#E1002A"/>
</linearGradient>
</defs>
</svg>
