<svg viewBox="0 0 110 110" fill="none" xmlns="http://www.w3.org/2000/svg">
<path d="M41.3272 20.5411V22.5009C41.3272 22.7563 41.2465 22.9595 41.0823 23.1081C40.9181 23.2566 40.6705 23.3296 40.3395 23.3296C40.2744 23.3296 40.2171 23.327 40.1675 23.3218C40.118 23.3166 40.0789 23.3114 40.0529 23.3088C40.0268 23.3062 39.9799 23.2957 39.9148 23.2801C39.8496 23.2645 39.7975 23.254 39.7532 23.2436V22.6911C39.9564 22.725 40.1545 22.7432 40.3421 22.7432C40.4803 22.7432 40.5689 22.712 40.6054 22.6494C40.6418 22.5869 40.6601 22.4852 40.6601 22.3445V20.5411H41.3325H41.3272Z" fill="#221E1F"/>
<path d="M43.1723 20.5411H43.8525V22.5087C43.8525 22.738 43.7665 22.9335 43.5945 23.0951C43.4225 23.2566 43.1593 23.3374 42.8049 23.3374C42.4504 23.3374 42.1898 23.2566 42.0178 23.0951C41.8458 22.9335 41.7598 22.738 41.7598 22.5087V20.5411H42.44V22.5191C42.44 22.6077 42.4739 22.6729 42.5417 22.7172C42.6094 22.7615 42.698 22.7823 42.8049 22.7823C42.9117 22.7823 43.0003 22.7615 43.0707 22.7172C43.141 22.6729 43.1749 22.6077 43.1749 22.5191V20.5411H43.1723Z" fill="#221E1F"/>
<path d="M46.3674 20.5411V23.2879H45.7836L45.0878 22.1569L44.947 21.792H44.9158L44.9314 22.2351V23.2879H44.3033V20.5411H44.8871L45.6012 21.7347L45.7263 22.037H45.7575L45.7419 21.594V20.5411H46.3648H46.3674Z" fill="#221E1F"/>
<path d="M47.8033 23.3218C47.4776 23.3218 47.23 23.2462 47.058 23.0951C46.886 22.9439 46.8 22.7406 46.8 22.4852V21.3438C46.8 21.0858 46.886 20.8799 47.058 20.7287C47.23 20.5776 47.4776 20.502 47.8059 20.502C48.0248 20.502 48.2933 20.5307 48.606 20.588V21.1483C48.2542 21.091 47.9884 21.0623 47.8059 21.0623C47.6626 21.0623 47.561 21.0936 47.5036 21.1587C47.4463 21.2239 47.4176 21.3151 47.4176 21.435V22.3758C47.4176 22.6338 47.5479 22.7641 47.8059 22.7641C47.9206 22.7641 48.0431 22.7563 48.1708 22.7406V21.9015H48.7467V23.1889C48.4496 23.2749 48.1343 23.3192 47.8033 23.3192V23.3218Z" fill="#221E1F"/>
<path d="M49.6589 23.2879V20.5411H50.326V23.2879H49.6589ZM51.1235 21.8911L51.7828 20.5411H51.0636L50.412 21.9432L51.087 23.2905H51.8793L51.1209 21.8937L51.1235 21.8911Z" fill="#221E1F"/>
<path d="M54.759 23.2879H54.0945L53.7635 22.1725L53.4377 23.2879H52.7758L51.9705 20.5411H52.682L53.0208 21.792L53.1068 22.4514H53.1302L53.2319 21.792L53.4351 21.0415L53.2892 20.5385H54.0007L54.3394 21.7894L54.4254 22.4488H54.4489L54.5505 21.7894L54.8919 20.5385H55.5591L54.759 23.2853V23.2879Z" fill="#221E1F"/>
<path d="M56.9403 20.5411L57.7403 23.2879H57.0341L56.896 22.7823H56.2783L56.1402 23.2879H55.4678L56.2731 20.5411H56.9403ZM56.4217 22.2507H56.7526L56.6979 22.0344L56.6067 21.3751H56.5832L56.4816 22.0344L56.4217 22.2507Z" fill="#221E1F"/>
<path d="M60.0728 20.5411V23.2879H59.489L58.7932 22.1569L58.6525 21.792H58.6212L58.6369 22.2351V23.2879H58.0088V20.5411H58.5926L59.3066 21.7347L59.4317 22.037H59.463L59.4473 21.594V20.5411H60.0702H60.0728Z" fill="#221E1F"/>
<path d="M62.4287 20.5411V22.5009C62.4287 22.7563 62.3479 22.9595 62.1837 23.1081C62.0195 23.2566 61.772 23.3296 61.441 23.3296C61.3758 23.3296 61.3185 23.327 61.269 23.3218C61.2195 23.3166 61.1804 23.3114 61.1543 23.3088C61.1256 23.3036 61.0813 23.2957 61.0162 23.2801C60.951 23.2645 60.8989 23.254 60.8546 23.2436V22.6911C61.0579 22.725 61.256 22.7432 61.4436 22.7432C61.5817 22.7432 61.6703 22.712 61.7068 22.6494C61.7433 22.5869 61.7615 22.4852 61.7615 22.3445V20.5411H62.4339H62.4287Z" fill="#221E1F"/>
<path d="M64.1226 20.5411L64.9226 23.2879H64.2164L64.0783 22.7823H63.4606L63.3225 23.2879H62.6501L63.4554 20.5411H64.1226ZM63.6066 22.2507H63.9376L63.8828 22.0344L63.7916 21.3751H63.7682L63.6665 22.0344L63.6066 22.2507Z" fill="#221E1F"/>
<path d="M67.2551 20.5411V23.2879H66.6714L65.9755 22.1569L65.8348 21.792H65.8035L65.8192 22.2351V23.2879H65.1911V20.5411H65.7749L66.4889 21.7347L66.614 22.037H66.6453L66.6297 21.594V20.5411H67.2525H67.2551Z" fill="#221E1F"/>
<path d="M68.6911 23.3218C68.3653 23.3218 68.1177 23.2462 67.9457 23.0951C67.7737 22.9439 67.6877 22.7406 67.6877 22.4852V21.3438C67.6877 21.0858 67.7737 20.8799 67.9457 20.7287C68.1177 20.5776 68.3653 20.502 68.6937 20.502C68.9126 20.502 69.181 20.5307 69.4938 20.588V21.1483C69.1419 21.091 68.8761 21.0623 68.6937 21.0623C68.5504 21.0623 68.4487 21.0936 68.3914 21.1587C68.3341 21.2239 68.3054 21.3151 68.3054 21.435V22.3758C68.3054 22.6338 68.4357 22.7641 68.6937 22.7641C68.8084 22.7641 68.9308 22.7563 69.0585 22.7406V21.9015H69.6345V23.1889C69.3374 23.2749 69.0221 23.3192 68.6937 23.3192L68.6911 23.3218Z" fill="#221E1F"/>
<path d="M35.1404 30.4963L35.9144 32.8522H34.3846L33.6706 30.4963H33.4777V32.8522H32.0001V25.4588H34.8042L35.8049 26.4178V29.8448L35.143 30.4963H35.1404ZM33.4777 26.754V29.3027H34.2022C34.3143 29.3027 34.3455 29.261 34.3455 29.149V26.9051C34.3455 26.8139 34.3038 26.7514 34.2022 26.7514H33.4777V26.754Z" fill="#221E1F"/>
<path d="M73.3898 30.4963L74.1638 32.8522H72.6341L71.92 30.4963H71.7272V32.8522H70.2495V25.4588H73.0537L74.0544 26.4178V29.8448L73.3924 30.4963H73.3898ZM71.7272 26.754V29.3027H72.4516C72.5637 29.3027 72.595 29.261 72.595 29.149V26.9051C72.595 26.8139 72.5533 26.7514 72.4516 26.7514H71.7272V26.754Z" fill="#221E1F"/>
<path d="M36.4356 25.4588H39.3127L39.5681 26.8348H37.9576V28.5887H39.1824V29.8631H37.9576V31.4736H39.5082L39.2528 32.8496H36.4382V25.4562L36.4356 25.4588Z" fill="#221E1F"/>
<path d="M42.698 32.8522H40.0763V25.4588H42.9716L43.8499 26.3553V31.7108L42.698 32.8522ZM41.5461 26.754V31.557H42.2393C42.3618 31.557 42.3827 31.5153 42.3827 31.4032V26.8947C42.3827 26.8035 42.3514 26.7514 42.2498 26.7514H41.5461V26.754Z" fill="#221E1F"/>
<path d="M49.5729 29.7927V31.7108L48.421 32.8522H45.7393V25.4588H48.6269L49.5051 26.3553V28.3854L48.9943 29.1412L49.5755 29.7927H49.5729ZM47.2065 26.754V28.6929H47.8998C48.0014 28.6929 48.0822 28.633 48.0822 28.5001V26.8999C48.0822 26.8087 48.0509 26.7566 47.9493 26.7566H47.2039L47.2065 26.754ZM48.1056 30.0272C48.1056 29.863 48.0144 29.8135 47.8815 29.8135H47.2091V31.557H47.9545C48.077 31.557 48.1082 31.5153 48.1082 31.4032V30.0272H48.1056Z" fill="#221E1F"/>
<path d="M52.9608 32.8522H51.246L50.1853 31.802V26.4178L51.1834 25.4588H53.0181L54.0188 26.4178V31.802L52.9582 32.8522H52.9608ZM51.8063 26.754C51.7046 26.754 51.6734 26.8061 51.6734 26.8973V31.4058C51.6734 31.5179 51.6942 31.5596 51.8167 31.5596H52.377C52.4995 31.5596 52.5204 31.5179 52.5204 31.4058V26.8973C52.5204 26.8061 52.4891 26.754 52.3874 26.754H51.8063Z" fill="#221E1F"/>
<path d="M57.4016 32.8522H55.6868L54.6261 31.802V26.4178L55.6242 25.4588H57.4589L58.4596 26.4178V31.802L57.399 32.8522H57.4016ZM56.2497 26.754C56.1481 26.754 56.1168 26.8061 56.1168 26.8973V31.4058C56.1168 31.5179 56.1376 31.5596 56.2601 31.5596H56.8204C56.9429 31.5596 56.9638 31.5179 56.9638 31.4058V26.8973C56.9638 26.8061 56.9325 26.754 56.8308 26.754H56.2497Z" fill="#221E1F"/>
<path d="M61.2715 32.8522H59.4447L59.1788 31.4762H60.7712C60.9041 31.4762 60.9458 31.4345 60.9458 31.3225V29.9751C60.9458 29.7718 60.8754 29.7614 60.6695 29.7614H59.9033L59.0772 28.9249V26.4152L60.0779 25.4562H62.1185L62.3739 26.8322H60.7008C60.5783 26.8322 60.5184 26.8843 60.5184 26.9964V28.3437C60.5184 28.4975 60.5887 28.5366 60.7425 28.5366H61.6703L62.4052 29.2923V31.729L61.2741 32.8496L61.2715 32.8522Z" fill="#221E1F"/>
<path d="M76.8663 32.8522H75.0395L74.7736 31.4762H76.3659C76.4989 31.4762 76.5406 31.4345 76.5406 31.3225V29.9751C76.5406 29.7718 76.4702 29.7614 76.2643 29.7614H75.4981L74.672 28.9249V26.4152L75.6727 25.4562H77.7133L77.9687 26.8322H76.2956C76.1731 26.8322 76.1132 26.8843 76.1132 26.9964V28.3437C76.1132 28.4975 76.1835 28.5366 76.3373 28.5366H77.265L78 29.2923V31.729L76.8689 32.8496L76.8663 32.8522Z" fill="#221E1F"/>
<path d="M65.8322 25.4588L66.1997 26.8348H65.2094V32.8522H63.7005V26.8348H62.7101L63.0985 25.4588H65.8322Z" fill="#221E1F"/>
<path d="M66.6062 25.4588H69.4833L69.7387 26.8348H68.1282V28.5887H69.353V29.8631H68.1282V31.4736H69.6788L69.4234 32.8496H66.6088V25.4562L66.6062 25.4588Z" fill="#221E1F"/>
<path d="M55.2697 47.8294V61.1855L58.5169 62.5876L55.2697 89.498L74.1586 77.2781V63.187L70.57 61.6468L74.1586 57.7872V50.3651L77.6403 44.5613H59.9268C59.1528 46.4064 57.3676 47.7225 55.2697 47.8268V47.8294ZM62.4469 50.3677H66.9814V60.0832L62.4469 58.0765V50.3703V50.3677ZM62.4469 64.2972L66.9814 66.283L66.7912 73.5045L62.2566 76.4129L62.4469 64.2946V64.2972Z" fill="#221E1F"/>
<path d="M50.0732 44.5639H32.3492L35.831 50.3677V77.2781L43.0081 81.9221V66.6244L47.5427 68.5868V84.8539L54.7198 89.498V64.5708L50.18 62.5902L53.9198 47.7355C52.1789 47.3785 50.743 46.1693 50.068 44.5639H50.0732ZM44.9053 60.2916L43.0107 59.4655V50.3651H47.0293L44.9053 60.289V60.2916Z" fill="#CF1D24"/>
<path d="M77.9974 35.8883H32.0001V41.692H49.7266C50.1175 39.1303 52.3301 37.1601 55.0013 37.1601C57.6726 37.1601 59.8825 39.1303 60.276 41.692H78V35.8883H77.9974Z" fill="#CF1D24"/>
<path d="M59.7913 41.7077C59.145 40.2587 57.9853 39.172 56.5832 38.6951C56.8829 38.5048 57.3259 38.4162 57.5787 38.3849C58.7332 39.112 59.5594 40.3082 59.7913 41.7051V41.7077ZM55.9916 39.7974C56.1219 40.032 56.3252 40.3004 56.5598 40.6105C57.5866 41.9709 59.1294 44.0219 57.4797 46.6775C56.8178 47.071 56.0568 47.3134 55.2411 47.3524V38.9244C55.4365 38.9348 55.6294 38.9557 55.817 38.9895C55.7727 39.2371 55.8301 39.5055 55.9916 39.7974ZM53.4377 40.6105C53.6722 40.3004 53.8755 40.0294 54.0058 39.7974C54.17 39.5055 54.2247 39.2371 54.1804 38.9895C54.368 38.9531 54.5635 38.9348 54.7564 38.9244V47.3524C53.9406 47.3134 53.1797 47.071 52.5177 46.6775C50.8655 44.0245 52.4109 41.9735 53.4377 40.6105ZM53.0806 38.0357C53.5993 37.8116 54.1648 37.6813 54.759 37.6526V38.4423C54.4879 38.4553 54.2247 38.4866 53.9641 38.5439C53.74 38.2859 53.396 38.1295 53.0806 38.0357ZM55.2385 38.4423V37.6526C55.8301 37.6813 56.3982 37.8116 56.9168 38.0357C56.6015 38.1295 56.2575 38.2859 56.0333 38.5439C55.7753 38.4892 55.5095 38.4553 55.2385 38.4423ZM52.4213 38.3875C52.6741 38.4188 53.1171 38.5074 53.4168 38.6977C52.0148 39.172 50.855 40.2613 50.2087 41.7077C50.4407 40.3108 51.2668 39.1146 52.4213 38.3875ZM50.2166 43.3495C50.5527 41.2594 51.9366 39.6358 53.7139 39.099C53.7296 39.2293 53.6879 39.3831 53.5888 39.5603C53.4742 39.7661 53.2813 40.0242 53.0572 40.3212C52.1294 41.5513 50.6518 43.5163 51.6473 46.0103C50.915 45.3119 50.4042 44.3867 50.2192 43.3495H50.2166ZM58.3553 46.0103C59.3509 43.5163 57.8706 41.5513 56.9455 40.3212C56.7213 40.0242 56.5285 39.7661 56.4138 39.5603C56.3148 39.3831 56.2757 39.2293 56.2887 39.099C58.0635 39.6358 59.4473 41.2568 59.7861 43.3495C59.6037 44.3867 59.0903 45.3119 58.358 46.0103H58.3553Z" fill="#CF1D24"/>
</svg>
