<svg xmlns="http://www.w3.org/2000/svg" id="a" viewBox="0 0 110 110"><defs><style>.b,.c{fill:#002d72;stroke-width:0}.c{fill:#da291c}</style></defs><path d="M69.64 34.45h.69v3.09h-.69v-3.09ZM66.91 36.26v.7h1.36c.12 0 .17-.06.17-.17v-.31c0-.14-.07-.22-.22-.22H66.9Zm1.45-1.05c0-.12-.06-.17-.17-.17h-1.28v.69h1.25c.14 0 .21-.07.21-.21v-.31Zm-2.1 2.33v-3.09h2.08c.46 0 .68.22.68.65v.44c0 .2-.08.34-.24.43.21.07.31.2.31.39v.5c0 .46-.21.68-.65.68h-2.18ZM38.44 35.65H37v-1.2h-.68v3.09H37v-1.28h1.44v1.28h.68v-3.09h-.68v1.2ZM53.86 35.05h1.26v.89h-1.44v-.72s0-.1.02-.14c.03-.04.08-.03.15-.04m-.7-.43c-.14.15-.15.36-.15.48v2.44h.68v-.99h1.44v.99h.68v-3.09h-2.11c-.2 0-.39.03-.53.17M48.37 34.45h-2.12v3.09h.68v-2.49h1.27c.06 0 .12 0 .14.04.04.04.03.1.03.14v2.32h.68v-2.44c0-.12 0-.33-.15-.48-.14-.15-.33-.17-.53-.17M44.98 36.76s0 .1-.03.14c-.04.04-.08.03-.15.03h-1.27v-2.48h-.68v3.09h2.11c.2 0 .39-.04.53-.18.15-.15.15-.36.16-.48v-2.43h-.68v2.31ZM51.77 36.76s0 .1-.02.14c-.04.04-.08.03-.15.03h-1.27v-1.88h1.27c.06 0 .11 0 .15.04.03.04.02.1.02.14v1.53Zm.68-1.65c0-.12 0-.33-.15-.48-.14-.15-.33-.17-.53-.17h-2.12v3.09h2.12c.2 0 .38-.04.53-.18.14-.15.15-.36.15-.48v-1.78ZM40.99 35.8l-.82-1.35h-.81l1.26 1.95v1.15h.73V36.4l1.26-1.95h-.8l-.83 1.35ZM56.49 37.54h.72v-3.09h-.72v3.09ZM58.98 34.45v3.09h.68v-1.96l.66 1.96h.6l.66-1.96v1.96h.68v-3.09h-.9l-.73 2.18-.74-2.18h-.9ZM64.94 36.74s0 .06-.02.09c-.03.05-.08.04-.15.05h-1.1c-.06 0-.11 0-.15-.05-.02-.03-.02-.06-.02-.09v-1.49s0-.06.02-.08c.04-.04.09-.04.15-.04h1.1c.07 0 .11 0 .15.04.02.02.02.06.02.08v1.49Zm.53-2.11c-.14-.15-.33-.17-.53-.17H63.5c-.2 0-.38.03-.52.17-.14.15-.15.36-.15.48v1.78c0 .13.01.34.15.48.14.14.33.17.52.18h1.44c.2 0 .39-.04.53-.18.15-.15.15-.35.15-.48v-1.78c0-.12 0-.33-.15-.48M73.02 35.7h-1.28c-.12 0-.18-.06-.18-.18v-.3c0-.12.06-.17.18-.17h1.78v-.6h-1.94c-.45 0-.68.22-.68.68v.52c0 .42.22.63.66.63h1.29c.12 0 .17.06.17.17v.31c0 .12-.06.18-.18.18h-1.81v.6h1.98c.45 0 .68-.23.68-.69v-.52c0-.43-.21-.64-.65-.64M36.18 45.95c-.9.06-1.87.12-2.75.19v-5.17h-4.05s.98.53.95 1.89v11.86c1.04-.23 2.06-.45 3.1-.65v-5.45c.88-.1 1.86-.19 2.75-.28v5.28c1.04-.18 2.05-.34 3.1-.48V40.96h-3.1v4.98ZM47.69 40.97h-7.57s.95.46.93 1.64v8.54c0 1.14.86 1.72 2.37 1.56 1.42-.14 2.78-.26 4.2-.35 1.52-.1 2.42-.73 2.43-1.76v-8c0-1.02-.87-1.63-2.37-1.63m-.73 9.11c0 .26-.22.42-.61.45-.52.03-1.08.07-1.61.11-.38.03-.6-.11-.59-.37v-6.91c0-.27.2-.42.57-.43.51 0 1.16-.01 1.67-.02.37 0 .57.15.57.4v6.78ZM67.55 40.97H60.1s1 .43 1 1.55v9.78c2.19.12 4.46.3 6.65.55 1.51.17 2.25-.35 2.23-1.47V48.7c-.02-1.12-.58-1.74-2.18-1.91 1.61.02 2.2-.51 2.18-1.63v-2.43c-.02-1.12-.92-1.77-2.43-1.77m-.67 9.39c0 .26-.21.4-.59.38-.68-.06-1.41-.11-2.09-.16v-3.05c.69.03 1.39.07 2.08.11.37.02.59.18.6.45v2.28Zm0-4.96c0 .26-.21.41-.59.39-.68-.03-1.42-.05-2.09-.07V42.9c.67.01 1.41.02 2.08.04.37 0 .59.16.6.43v2.03ZM77.09 51.61c0 .3-.21.44-.57.38-.5-.08-1.01-.22-1.51-.29-.37-.06-.59-.32-.6-.61V40.96h-4.12s1 .47 1.02 1.69v8.71c0 1.26.92 2.04 2.43 2.3 1.38.23 2.73.55 4.11.83 1.5.31 2.36-.23 2.34-1.52v-12h-3.1v10.65ZM26.55 40.97h-8.66s1.78 2.07 1.78 2.14v14.34c1.05-.34 2.11-.66 3.16-.97v-5.04c1.2-.2 2.47-.42 3.67-.65 1.46-.26 2.35-1.16 2.37-2.42v-5.38c.02-1.26-.85-2.02-2.32-2.03m-.84 6.81c-.03.31-.24.52-.59.56-.79.11-1.5.22-2.29.33.01-1.69-.01-3.36 0-5.05.8-.04 1.51-.07 2.3-.11.35-.02.56.16.58.46-.02 1.26.02 2.54 0 3.8M80.9 40.97s.99.55 1.02 1.98c0 .98-.02 1.47-.02 2.49 0 .96.42 1.48 1.21 1.95.72.42 3.46 1.83 4.08 2.2.32.21.37.45.37.76v3.53c0 .39-.21.57-.57.48-.45-.14-.93-.31-1.36-.44-.41-.15-.56-.4-.57-.78v-1.99c-1.01-.18-2.02-.35-3.03-.51 0 0-.02 1.73 0 2.6.02 1.42.83 2.35 2.38 2.87 1.28.43 2.6.89 3.88 1.29 1.47.45 2.32-.25 2.32-1.94 0-1.25-.01-3.86-.01-5.08 0-.9-.18-1.74-1.17-2.33-1.2-.71-3.35-1.82-4.04-2.22-.25-.15-.38-.3-.38-.66-.01-.61 0-.66 0-1.34 0-.37.21-.58.6-.56 1.47.06 3.17.12 4.62.2.64-.82 1.26-1.66 1.87-2.5H80.9ZM50.61 40.97s.98.43.97 1.53v9.68c2.6-.08 5.08-.06 7.68.04v-2.1c-1.5-.05-3.07-.08-4.58-.08V47.8c1.31 0 2.75 0 4.06.04v-2.39c-1.31-.02-2.75-.03-4.06-.03v-2.38c1.49 0 3.09 0 4.58.02v-2.1h-8.65Z" class="b"/><path d="M32.69 33.17c1.86-2.36 11.83-8.88 26.31-9.57-1.29-.13-15.93-2.9-29.67 7.38v7.33h3.36v-5.14ZM75.93 56.1C76.68 72.05 59.29 79.85 55 80.54c-4.28-.69-21.67-8.49-20.93-24.44-1.87.36-3.78.74-5.59 1.19 1.96 19 18.38 27.74 26.52 30.29 8.15-2.55 24.57-11.29 26.52-30.29-1.8-.45-3.72-.83-5.59-1.19Z" class="c"/><path d="M77.31 33.17v5.14h3.36v-7.33C67.36 22.35 53 25.45 48.62 26.93c3.63-.64 16.65-2.11 28.69 6.24ZM55.14 77.76c1.18-.32 4.36-1.45 7.73-3.64-.27-1.71-1.24-3.38-2.37-5.04-1.23-1.81-2.64-3.58-2.67-5.25-.71-.11-1.43-.18-2.15-.21l-.53 14.14ZM59.31 62.82c2.85.74 5.5 2.19 7.57 4.23-.86-2.25-2.37-4.2-4.31-5.64-.51-.04-1.73-.06-2.56.49-.33.22-.58.54-.71.92Z" class="c"/><path d="M73.25 55.64c-5.94-1-12.92-1.4-18.25-1.4s-12.31.4-18.25 1.4c-.28 6.16 2.12 10.82 5.29 14.23.21-7.02 5.83-12.53 12.96-12.53s12.75 5.52 12.96 12.55c3.17-3.42 5.58-8.08 5.3-14.24ZM42.26 70.12c-.08-.08-.15-.17-.23-.25.08.09.15.17.23.25Z" class="c"/><path d="M52.01 62.53c.74-.14 1.49-.23 2.25-.27l-.14-3.35c-1.78.13-3.51.63-5.09 1.47.61.1 1.26.29 1.82.66.56.38.95.87 1.16 1.48ZM55.72 62.27c.76.04 1.51.13 2.26.27.21-.61.6-1.11 1.16-1.48.56-.37 1.21-.56 1.82-.66-1.58-.84-3.31-1.34-5.1-1.47l-.14 3.35ZM67.7 70.16c-.08-.72-.21-1.42-.41-2.1v.02c-2.13-2-5.09-3.33-8.07-3.99.15 1.33 1.16 2.83 2.24 4.41 1.17 1.71 1.78 3.64 1.7 5.43 1.54-1.03 3.11-2.27 4.54-3.76ZM42.29 70.15c1.43 1.49 3 2.74 4.54 3.77-.08-1.79.53-3.72 1.7-5.42 1.07-1.58 2.09-3.08 2.24-4.41-2.97.66-5.93 1.99-8.07 3.99-.2.68-.33 1.37-.4 2.08ZM47.41 61.41a12.69 12.69 0 0 0-4.3 5.64c2.06-2.05 4.72-3.5 7.57-4.24a1.86 1.86 0 0 0-.71-.92c-.82-.55-2.06-.52-2.57-.49ZM54.98 77.79H55h-.02zM54.31 63.62c-.7.03-1.42.09-2.15.21-.03 1.67-1.44 3.44-2.68 5.25-1.13 1.65-2.1 3.32-2.37 5.03 3.36 2.19 6.53 3.32 7.72 3.65l-.53-14.14Z" class="c"/><path d="M47.12 74.11c-.09-.06-.18-.11-.27-.17.09.05.18.12.27.18Z" class="c"/></svg>