<svg viewBox="0 0 110 110" fill="none" xmlns="http://www.w3.org/2000/svg">
<path d="M27.8563 70.8756C27.349 70.5556 26.6848 69.9215 26.3466 69.1788C26.0749 69.9215 25.3684 70.6401 24.9034 70.9421L24.2271 70.2657C24.9275 69.837 25.8514 68.9252 25.8514 67.2223V65.6039H26.8237V67.2223C26.8237 68.9191 27.7959 69.7585 28.4058 70.1389L27.8563 70.8696V70.8756ZM28.9855 72.0894V68.3213H27.7899V67.3491H28.9855V65.2416H29.9034V72.0894H28.9855Z" fill="#231815"/>
<path d="M36.4855 68.6896H33.9855V69.1305H35.7669V70.9179H32.2222V71.244H35.9058V72.0048H31.1715V70.2114H34.7162V69.8732H31.1715V69.1244H32.977V68.6836H30.4529V67.8744H36.4794V68.6836L36.4855 68.6896ZM35.8877 66.3587C35.8877 67.1377 34.9758 67.5664 33.4662 67.5664C31.9565 67.5664 31.0507 67.1317 31.0507 66.3708C31.0507 65.6703 31.9686 65.1691 33.4662 65.1691C34.9637 65.1691 35.8877 65.6522 35.8877 66.3587ZM34.8611 66.3949C34.8611 66.1292 34.2995 65.9179 33.4662 65.9179C32.6328 65.9179 32.0712 66.1232 32.0712 66.3768C32.0712 66.6305 32.6026 66.8176 33.4662 66.8176C34.3297 66.8176 34.8611 66.6425 34.8611 66.3889V66.3949Z" fill="#231815"/>
<path d="M40.1268 68.9553C39.6135 68.7078 39.0217 68.2609 38.6534 67.657C38.3575 68.2609 37.82 68.7681 37.2463 69.1124L36.5881 68.4058C37.3913 68.0194 38.1642 67.0894 38.1642 66.244V65.4107H39.1425V66.244C39.1425 67.0954 39.9577 67.9409 40.6763 68.1945L40.1207 68.9553H40.1268ZM37.7415 72.0109V69.4203H42.0773V72.0109H37.7415ZM41.1715 70.314H38.6654V71.1172H41.1715V70.314ZM42.0833 67.6389V69.0942H41.1654V65.2416H42.0833V66.7392H42.8744V67.6329H42.0833V67.6389Z" fill="#231815"/>
<path d="M46.3043 68.9674C45.791 68.7198 45.1993 68.273 44.8309 67.6691C44.541 68.273 43.9976 68.7802 43.4239 69.1244L42.7657 68.4179C43.5688 68.0314 44.3418 67.1015 44.3418 66.2561V65.3865H45.32V66.2561C45.32 67.1075 46.1352 67.9529 46.8538 68.2126L46.2983 68.9735L46.3043 68.9674ZM46.1836 72.1739C44.7222 72.1739 43.8043 71.5882 43.8043 70.7428C43.8043 69.8974 44.7222 69.2995 46.1836 69.2995C47.6449 69.2995 48.5688 69.8913 48.5688 70.7428C48.5688 71.5942 47.657 72.1739 46.1836 72.1739ZM46.1896 70.1208C45.4287 70.1208 44.8249 70.3442 44.8249 70.7186C44.8249 71.093 45.4287 71.3648 46.1896 71.3648C46.9505 71.3648 47.5664 71.1051 47.5664 70.7488C47.5664 70.3684 46.9807 70.1208 46.1896 70.1208ZM47.506 69.2331V67.3249H46.3285V66.4131H47.506V65.2416H48.4239V69.2331H47.506Z" fill="#231815"/>
<path d="M52.9106 69.2754C52.6811 69.1184 52.3007 68.7259 52.0712 68.2186C51.8961 68.6957 51.4975 69.1123 51.1956 69.3177C50.9722 69.1788 50.5917 68.7742 50.314 68.2186C50.1569 68.6232 49.7765 69.058 49.4323 69.3177L48.8526 68.587C49.3659 68.2307 49.8671 67.5604 49.8671 66.3285V65.3925H50.7608V66.3285C50.7608 67.5604 51.1473 67.9227 51.2016 68.0012C51.256 67.9227 51.6364 67.6208 51.6364 66.3285V65.3925H52.5362V66.3285C52.5362 67.4517 52.9528 68.1401 53.4118 68.4662L52.9226 69.2754H52.9106ZM50.1569 71.9324V69.7464H51.0809V71.0387H54.7705V71.9324H50.1569ZM53.7681 70.1872V67.4094H52.9528V66.5036H53.7681V65.2355H54.6195V70.1812H53.7681V70.1872Z" fill="#231815"/>
<path d="M59.0338 70.3925C58.9976 70.3925 57.7053 70.6099 56.6727 70.6099H55.634V65.9541H58.5447V66.8418H56.5519V69.6981H57.1558C57.7234 69.6921 58.9976 69.5169 59.0338 69.5109V70.3925ZM60.6159 72.0894H59.7041V68.5085H58.1521V67.6148H59.7041V65.2416H60.6159V72.0894Z" fill="#231815"/>
<path d="M61.2802 71.3164V70.4288H67.3067V71.3164H61.2802ZM66.4613 69.5169C65.8152 69.3116 64.7644 68.5689 64.2995 67.7778C63.8828 68.5447 62.8683 69.2693 62.1256 69.5109L61.5277 68.7681C62.6992 68.3454 63.7862 67.4457 63.7862 66.2198V65.5556H64.8007V66.2198C64.8007 67.4396 65.8212 68.285 67.0289 68.7681L66.4613 69.5169Z" fill="#231815"/>
<path d="M73.4722 69.052H67.4456V68.1582H69.9456V67.4276H68.1703V65.2899H69.0942V66.5822H72.814V67.4276H70.9299V68.1582H73.4722V69.052ZM72.9166 70.7669C72.9166 71.5882 72.0229 72.186 70.4589 72.186C68.8949 72.186 68.0072 71.5942 68.0072 70.7669C68.0072 69.9396 68.8889 69.366 70.4589 69.366C72.0289 69.366 72.9166 69.9396 72.9166 70.7669ZM71.8659 70.7488C71.8659 70.3684 71.2862 70.1812 70.4589 70.1812C69.6316 70.1812 69.064 70.3684 69.064 70.7488C69.064 71.1957 69.6256 71.3587 70.4589 71.3587C71.2922 71.3587 71.8659 71.1957 71.8659 70.7488Z" fill="#231815"/>
<path d="M76.9505 69.2693V72.0894H76.0024V69.2693H73.6111V68.3756H77.7174C77.8079 67.9408 77.9649 67.0592 77.9891 66.4493H74.2451V65.5556H79.0217C79.0217 66.7452 78.7077 68.0978 78.6594 68.3756H79.6437V69.2693H76.9505Z" fill="#231815"/>
<path d="M83.7077 68.75C83.285 68.8346 82.1256 68.9795 81.2379 68.9916H80.0724V65.616H83.2125V66.5157H80.9843V68.0737H81.6968C82.1739 68.0737 83.3273 67.9409 83.7077 67.8623V68.75ZM85.2113 71.9324H80.7186V69.6075H81.6425V71.0387H85.2113V71.9324ZM85.8575 68.1341H85.0362V70.1872H84.1244V65.2416H85.0362V67.2223H85.8575V68.1341Z" fill="#231815"/>
<path d="M85.6038 59.8792L84.9758 60.2717L84.4022 59.8007C83.6956 59.215 82.6147 58.6534 81.5338 58.0073C80.465 57.349 79.3418 56.6003 78.6594 55.3503L78.6473 55.3321V55.3201C78.1522 54.3116 77.7415 53.0435 77.7294 53.0193L77.4215 52.0954H75.2959C75.5012 52.7717 75.6522 53.279 75.7005 53.4058L76.2258 54.9094V57.1739H69.5773C68.9191 57.6751 68.2427 57.9046 67.7838 58.1159C67.4517 58.2669 67.2403 58.3998 67.1739 58.4783L66.3164 59.372L65.5012 58.442C65.1932 58.0858 64.8128 57.8563 64.2995 57.5785C64.0881 57.4577 63.8406 57.3309 63.593 57.1739H58.4179C58.4179 57.1739 58.3695 57.2162 58.3514 57.2403C57.8321 57.7114 57.1437 57.8986 56.5338 57.8925C56.1352 57.8925 55.7488 57.8261 55.3683 57.7234L55.3321 57.7114L55.2959 57.6993C54.9275 57.5845 54.6075 57.3974 54.3237 57.1739H43.8406C43.0193 58.0254 41.6606 59.0882 39.4626 60.0785L38.0495 60.7186C38.2911 59.6135 37.4819 58.5809 37.4819 58.5809C37.4155 58.4722 37.1135 58.1824 36.7391 57.8623C36.6667 57.7959 36.5821 57.7234 36.5036 57.651H30.2838C30.1147 57.8442 29.9275 58.0073 29.7403 58.1522C29.3357 58.4602 28.901 58.6896 28.5024 58.8647C27.82 59.1606 27.2283 59.3237 27.0411 59.372C27.0411 59.372 26.9746 59.3961 26.9203 59.4203C26.9203 59.4203 25.151 60.2174 25.1993 61.6304L23.9795 60.6763C20.0725 56.6003 20.9481 52.5846 21.4674 51.4976C21.4674 51.4976 21.6425 51.0205 22.0471 50.3382C16.0447 51.6304 5 43.901 5 43.901V41.6304C16.3104 44.215 24.6981 43.587 24.6981 43.587H24.8068C25.2174 42.5544 25.785 41.1232 25.785 41.1232L26.0688 40.4106H31.564C31.564 40.4106 35.4891 39.7464 37.6268 37.814L36.3768 40.7548C36.1654 41.25 35.9601 41.7693 35.7548 42.2887C35.8756 42.2766 35.9964 42.2705 36.1171 42.2766C36.3225 42.2705 36.5217 42.2887 36.715 42.337L50.0483 42.3913C50.5193 42.2283 51.0024 42.1498 51.4734 42.1498H51.5036C52.4215 42.1377 53.279 42.5664 53.7681 43.2186C53.8708 43.3515 53.9613 43.4843 54.0338 43.6232C54.064 43.5809 54.1002 43.5447 54.1304 43.5024C54.5048 43.0556 55.0785 42.7114 55.7005 42.5966C55.9239 42.5544 56.1473 42.5302 56.3647 42.5302C56.7572 42.5302 57.1195 42.6027 57.4456 42.7234C57.4456 42.5725 57.4456 42.4276 57.4456 42.2887C57.4456 41.9807 57.4456 41.7029 57.4577 41.4795L57.4879 40.5737L58.3816 40.4046C58.7077 40.3442 58.8587 40.314 59.1787 40.1812C59.4988 40.0483 59.9758 39.7947 60.7488 39.2995L62.5483 38.1522L62.4879 40.2838C62.4758 40.6884 62.4698 41.7452 62.4638 43.0556C62.808 42.808 63.2005 42.6208 63.6413 42.5061C64.0278 42.3732 64.4082 42.3309 64.8671 42.3249C65.6642 42.3249 66.6666 42.5 67.6389 43.0254L67.4577 42.3732H72.5121L72.5604 42.5725C72.9227 42.4577 73.3031 42.4034 73.6896 42.3974C74.0096 42.3974 74.3357 42.4396 74.6618 42.5121L74.7162 42.5242L74.7705 42.5423C75.3261 42.7416 75.791 43.0435 76.1775 43.4118C76.25 43.2609 76.3406 43.1099 76.4493 42.965C76.872 42.3913 77.5664 42.0109 78.3092 41.9082C78.7017 41.8478 79.1244 41.8116 79.5592 41.8116C80.9179 41.8116 82.4879 42.1437 83.9794 43.0616C84.215 43.2065 84.4323 43.3635 84.6256 43.5205C84.8973 43.5205 85.1751 43.5205 85.465 43.5205C85.465 43.5205 98.2548 43.593 105 41.5942V43.8587C105 43.8587 96.8055 49.4686 87.7717 50.2416C87.7717 50.2416 88.8285 52.3853 89.1787 53.285C89.529 54.1848 90.5253 56.5278 85.5918 59.8853L85.6038 59.8792Z" fill="#231815"/>
<path d="M61.4735 52.651C61.3587 52.1679 61.3225 41.8901 61.3708 40.2415C59.7645 41.2621 59.2633 41.3768 58.6051 41.5036C58.581 42.3007 58.6232 44.1667 58.6051 45.0181C58.2005 44.4203 57.8261 44.1667 57.6268 44.0459C57.1136 43.7198 56.6063 43.5568 55.9421 43.6896C54.3479 43.9915 54.2573 46.1051 54.1486 48.0918C54.0097 50.6341 53.587 53.6715 55.6643 54.3599C56.9505 54.6981 57.8865 54.4324 58.2669 52.8684C58.3394 53.3092 58.4723 53.5507 58.7561 53.7742H62.2404C62.2404 53.7742 61.715 53.6534 61.4795 52.6449L61.4735 52.651ZM58.3877 47.3732L58.3092 50.6522C58.2367 51.9263 57.3974 51.7271 57.3974 51.7271C56.7392 51.6002 56.8297 50.6582 56.8297 50.6582L56.9203 47.349C56.9445 45.8937 57.6268 46.0085 57.6268 46.0085C58.4481 46.0085 58.3938 47.3792 58.3938 47.3792L58.3877 47.3732ZM36.1232 43.3998C35.2416 43.3998 34.7283 43.8647 34.4626 44.1002C34.0822 44.4082 34.0278 44.4082 33.4481 45.0845C33.9855 43.8164 34.6377 41.9626 35.3382 40.314C33.9252 41.0628 33.3273 41.1655 32.1317 41.4493L31.0991 43.9976C30.1933 43.9976 29.9517 43.9976 28.9372 44.0217C29.3599 42.9891 29.9215 41.5459 29.9215 41.5459H26.8418C26.8418 41.5459 26.0327 43.5749 25.6462 44.5471L25.5737 44.7222C24.7102 44.7222 20.0544 44.7343 17.9892 44.6196C14.7645 44.4384 9.98193 43.7138 9.98193 43.7138C12.2162 44.7041 14.5351 45.785 18.0375 46.5459C22.0592 47.657 23.7742 46.0447 23.7742 46.0447C23.7742 46.0447 24.5894 45.2174 24.9517 45.471C25.0423 45.5374 25.1631 45.5737 25.1329 45.7971L25.0121 46.099C24.0218 48.2005 22.5061 51.9203 22.5061 51.9203C22.5061 51.9203 21.2923 54.8792 24.6619 57.5121C25.0121 56.558 26.715 56.0205 26.715 56.0205C26.715 56.0205 29.2392 55.4287 29.7223 54.1667C29.7223 54.1667 31.866 49.1969 32.6872 46.9082C33.0616 46.1594 33.6957 46.1836 33.6957 46.1836C33.6957 46.1836 34.2754 46.1594 34.0157 47.035C33.3394 48.7077 32.2827 52.1014 31.3889 54.2572H34.4807C35.3805 51.7995 36.6365 47.9771 37.4155 45.93C37.7476 45.0543 37.6087 43.4058 36.1232 43.4058V43.3998ZM26.3889 54.7584C26.3889 54.7584 24.6317 54.4142 25.3865 52.4819L27.8322 46.7391H29.8551L26.3889 54.7584ZM66.5399 49.7585C66.5761 50.2899 66.7392 51.5519 66.6124 52.1196C66.5037 52.5845 66.401 52.7174 66.0024 52.7415C65 52.5845 64.9698 48.6896 64.9698 48.6896C66.4916 48.6896 67.6812 48.7017 69.2573 48.6896C69.1244 47.2645 68.907 45.5133 68.1281 44.7464C66.6848 43.3333 64.6438 43.3213 63.9855 43.5809C62.6993 43.907 62.2585 44.8973 62.1438 46.0809C61.9747 47.8442 62.1921 49.9517 62.802 52.1558C63.3756 54.2089 65.1329 54.0338 66.3587 55.4348C67.5604 54.1787 70.9662 54.7464 69.4505 49.7645C68.2367 49.8007 67.331 49.7524 66.5338 49.7645L66.5399 49.7585ZM65.1691 44.9215C65.4107 44.7947 65.9602 44.8551 66.0628 45.4106C66.1715 46.1111 66.2198 46.6425 66.244 47.3007H64.8551C64.7706 46.5217 64.686 45.2355 65.1691 44.9215ZM74.4264 43.6051C73.2307 43.3213 72.1317 43.7621 71.9324 44.6196C71.8418 44.2572 71.7392 43.8889 71.6486 43.4903H68.9735C69.6739 46.0085 70.7367 51.3527 71.4372 53.7742H74.6438C74.4324 53.1642 73.0073 48.285 72.5121 46.4734C72.4517 45.4408 73.3696 45.4469 73.7078 46.0085C74.1908 47.3732 74.366 47.5302 74.7585 48.6896H77.5725C77.0411 46.9746 76.2561 44.221 74.4324 43.599L74.4264 43.6051ZM52.8805 52.663L53.3273 45.7065C53.4541 44.4626 52.8684 43.2729 51.5097 43.2729C50.5858 43.2971 49.837 43.5688 49.0339 44.3659C49.0339 44.3659 49.1365 43.9191 49.209 43.5205H43.0194L41.715 48.8527C41.3285 50.2597 40.8515 52.9287 39.8793 53.3816C39.4022 52.9348 39.3479 52.5845 39.5351 51.8357C39.5351 51.8357 41.1474 45.314 41.6063 43.4722H37.9107C37.9107 43.4722 38.6172 43.9795 38.4723 45.1691C38.3998 45.7911 36.7029 50.5254 36.2682 52.5725C35.9662 53.9795 37.808 54.7826 38.424 55.6944C38.6776 56.0749 38.9493 56.3828 38.9976 56.7935C43.1884 54.8973 43.9372 52.8804 43.9372 52.8804C43.9372 52.8804 44.7102 48.0072 45.5858 44.7464C45.8394 44.1848 46.1111 43.756 46.5942 43.587C46.1293 46.5459 44.8008 53.7862 44.8008 53.7862H47.8684C48.273 51.1413 48.5145 49.692 48.9493 46.6848C49.0278 46.3164 49.2512 46.0024 49.7706 46.0628C50.1872 46.1171 50.4469 46.4614 50.3865 46.8599C50.0182 49.1123 49.7041 51.4614 49.4203 53.7862H53.6776C52.8382 53.5024 52.8805 52.6691 52.8805 52.6691V52.663ZM85.785 49.5652C84.9638 48.8949 84.0701 48.4239 82.5121 47.6268C81.558 47.0531 80.0785 46.57 79.8672 45.4529C79.7524 44.8309 80.3322 44.7162 80.9239 44.8249C82.0652 45.2355 82.1558 46.1534 82.4276 46.7633C83.3152 47.1135 84.5834 47.4819 85 46.8056C85.1631 46.5942 85.2053 46.2379 85.0302 45.7911C85.0302 45.7911 85.0061 45.7246 84.9517 45.628C86.407 45.7005 86.5278 46.5399 86.8478 46.9082C91.1474 46.5217 95.5012 45.7367 99.5471 43.5145C95.7307 44.2633 88.6896 44.7403 84.2029 44.6377C84.0157 44.4565 83.6776 44.1848 83.3998 44.0217C81.6908 42.971 79.8793 42.808 78.4964 43.0193C77.0773 43.2367 76.7935 44.5048 77.18 45.8816C77.9348 48.5145 81.6003 49.4324 83.587 50.9964C84.1305 51.3225 84.686 52.5664 84.0459 52.82C83.6836 53.0737 83.1582 52.8623 82.7235 52.4517C82.0592 51.7814 82.023 51.099 81.6546 50.4167L78.7983 50.3925C78.7983 50.3925 79.215 51.6485 79.6498 52.5483C80.6281 54.3901 83.4119 55.2597 85.1087 56.6606C86.6184 55.8877 88.0556 54.8611 87.9227 53.7077C87.8563 53.1341 86.9626 50.3985 85.779 49.5652H85.785Z" fill="#FAC109"/>
</svg>
