<svg viewBox="0 0 110 110" fill="none" xmlns="http://www.w3.org/2000/svg">
<path d="M97.301 44.6191C100.382 40.8196 102.173 36.5775 102.482 32.3591L102.749 28.7141C102.767 28.4705 102.452 28.3546 102.31 28.5507L100.15 31.5006C95.6404 37.6618 85.1628 43.9002 72.8078 47.7829C71.9968 48.0383 71.1739 48.2819 70.3451 48.5166C70.0034 48.6117 69.6618 48.7068 69.3202 48.7988C65.7702 49.696 60.6695 50.2574 55.0015 50.2574C49.3334 50.2574 44.2328 49.696 40.6828 48.7988C40.3412 48.7068 39.9995 48.6147 39.6579 48.5166C38.8291 48.2819 38.0062 48.0383 37.1952 47.7829C24.8401 43.9002 14.3625 37.6618 9.85304 31.5006L7.69336 28.5507C7.54779 28.3516 7.2329 28.4675 7.25073 28.7111L7.51809 32.3561C7.82704 36.5775 9.61836 40.8166 12.699 44.6161C13.6466 45.7866 14.8408 46.7817 16.1806 47.5274C15.2894 47.2036 14.413 46.8679 13.5545 46.5174L11.8761 45.8341C11.7008 45.7628 11.5166 45.9084 11.5434 46.0926L11.787 47.8868C12.1761 50.7476 14.6388 53.5074 18.9136 55.8661L16.9886 55.6076C16.8431 55.5869 16.7361 55.7384 16.7985 55.8691L17.6927 57.7228C18.6344 59.6805 20.7139 61.2371 23.744 62.2709L22.9033 62.4135C22.7636 62.4372 22.7012 62.6066 22.7963 62.7135L24.0886 64.2048C25.0006 65.2564 26.3314 66.005 28.0544 66.4388L27.3415 71.3552C27.3236 71.483 27.4395 71.5899 27.5643 71.5602L31.6727 70.5888C32.3233 70.4343 32.9828 70.2858 33.6363 70.1462L35.7366 69.6917L36.2149 66.216C36.2684 66.2754 36.3248 66.3348 36.3812 66.3883C37.0942 67.0864 38.0626 67.4696 39.1024 67.4696C39.2985 67.4696 39.4975 67.4547 39.6936 67.428C41.0452 67.2408 42.4117 67.0775 43.7485 66.9438C43.7485 66.9438 45.7092 66.7626 45.8191 66.7537C46.5618 66.6913 47.3193 66.6378 48.062 66.5903L49.3156 66.519C49.8058 66.4952 50.293 66.4714 50.7772 66.4536L51.606 66.4269C52.2685 66.4061 52.9339 66.3912 53.5874 66.3853L55.0193 66.3675L56.4482 66.3853C57.1136 66.3942 57.7791 66.409 58.4178 66.4269C58.4178 66.4269 60.1645 66.4952 60.2685 66.4982C61.3558 66.5487 62.4609 66.617 63.557 66.7032C64.1096 66.7447 64.6503 66.6824 65.1612 66.5219C65.6514 66.7715 66.1861 66.9319 66.7446 66.9913C68.0368 67.128 69.3439 67.2884 70.6273 67.4696C70.7105 67.4815 70.7936 67.4904 70.8738 67.4963C71.5185 68.5895 72.6444 69.3976 73.9574 69.6501C75.3804 69.9204 76.8212 70.2294 78.2382 70.5621L82.3437 71.5275C82.4684 71.5572 82.5843 71.4503 82.5665 71.3226L81.8594 66.4536C83.627 66.0229 84.9876 65.2683 85.9144 64.1989L87.2067 62.7076C87.2987 62.6006 87.2393 62.4313 87.0997 62.4075L86.259 62.2649C89.2891 61.2312 91.3686 59.6745 92.3103 57.7168L93.2015 55.8631C93.2639 55.7324 93.1569 55.5839 93.0114 55.6017L91.0864 55.8602C95.3612 53.5014 97.8239 50.7417 98.213 47.8809L98.4566 46.0866C98.4804 45.8995 98.2962 45.7569 98.1239 45.8282L96.4455 46.5114C95.584 46.862 94.7076 47.1976 93.8194 47.5214C95.1592 46.7788 96.3534 45.7806 97.301 44.6102V44.6191Z" fill="#D9D9D9"/>
<path d="M55.0015 38.1786C43.0237 38.1786 33.3156 47.8868 33.3156 59.8646C33.3156 71.8424 43.0237 81.5506 55.0015 81.5506C66.9793 81.5506 76.6875 71.8424 76.6875 59.8646C76.6875 47.8868 66.9793 38.1786 55.0015 38.1786Z" fill="#E6E6E6"/>
<path d="M55.0016 45.2281C63.0729 45.2281 69.6381 51.7933 69.6381 59.8646C69.6381 67.936 63.0729 74.5012 55.0016 74.5012C46.9302 74.5012 40.368 67.936 40.368 59.8646C40.368 51.7933 46.9332 45.2281 55.0016 45.2281Z" fill="#ED6C00"/>
<path d="M55.0015 75.232C63.4769 75.232 70.3719 68.337 70.3719 59.8617C70.3719 51.3863 63.4769 44.4913 55.0015 44.4913C46.5262 44.4913 39.6312 51.3863 39.6312 59.8617C39.6312 68.337 46.5262 75.232 55.0015 75.232ZM41.0809 62.3214C42.9614 66.415 46.8322 69.4956 51.5288 70.5264C51.3209 71.2275 50.7416 71.6315 50.2633 71.8513C49.5444 72.1781 48.6413 72.2672 47.958 72.1187C44.3992 70.0689 41.8176 66.513 41.0839 62.3214H41.0809ZM47.6075 47.8126C49.6335 46.5679 51.9952 45.8222 54.5262 45.739V69.9471C53.8608 69.9263 53.2013 69.858 52.5567 69.7511C52.5359 68.0518 51.5407 66.0882 49.2592 63.1799C47.0371 60.3459 46.1192 58.4684 45.7538 56.0087C45.3646 53.3915 45.6677 49.9277 47.6045 47.8126H47.6075ZM62.3926 47.8126C64.3295 49.9277 64.6325 53.3915 64.2433 56.0087C63.8779 58.4684 62.96 60.3429 60.7379 63.1769C58.4564 66.0823 57.4642 68.0489 57.4405 69.7481C56.7958 69.858 56.1393 69.9234 55.4709 69.9442V45.739C58.0019 45.8222 60.3636 46.5679 62.3896 47.8126H62.3926ZM59.3476 72.7128C59.6239 72.8376 59.918 72.9356 60.2151 73.004C58.7387 73.5892 57.1434 73.9338 55.4739 73.9902V70.8977C56.175 70.877 56.8642 70.8116 57.5415 70.7047C57.7672 71.5751 58.3941 72.2791 59.3476 72.7128ZM52.4616 70.7017C53.136 70.8086 53.8251 70.874 54.5292 70.8948V73.9873C52.8567 73.9338 51.2614 73.5862 49.785 73.001C50.0851 72.9327 50.3792 72.8376 50.6554 72.7099C51.609 72.2761 52.2388 71.5691 52.4616 70.7017ZM62.045 72.1187C61.3618 72.2702 60.4557 72.1811 59.7398 71.8513C59.2585 71.6315 58.6792 71.2305 58.4713 70.5264C63.1679 69.4926 67.0387 66.412 68.9192 62.3184C68.1854 66.513 65.6039 70.066 62.045 72.1187ZM69.0737 58.5249C68.2686 63.8602 63.9017 68.2509 58.397 69.5609C58.4951 68.1261 59.4368 66.3764 61.4836 63.7622C63.7918 60.8182 64.7929 58.7566 65.1821 56.1483C65.488 54.0837 65.3841 51.523 64.475 49.3692C67.0298 51.6745 68.735 54.9006 69.0737 58.5249ZM45.528 49.3692C44.616 51.523 44.515 54.0837 44.821 56.1483C45.2072 58.7566 46.2113 60.8212 48.5195 63.7622C50.5693 66.3764 51.511 68.1261 51.606 69.5609C46.0984 68.2538 41.7315 63.8602 40.9294 58.5249C41.271 54.9006 42.9762 51.6774 45.528 49.3692Z" fill="#2C4198"/>
<path d="M48.5314 42.7089L49.7345 42.2277L49.7018 42.1475L49.3216 41.1998C49.2503 41.0216 49.0483 40.9325 48.87 41.0008L46.1994 42.0673L46.3955 42.5574L48.8403 41.5771L48.9948 41.9633L46.4965 42.9644L46.6896 43.4486L47.9046 42.9614L48.0442 43.312L46.8292 43.7992L47.0253 44.2893L49.5236 43.2882L49.7345 43.814L50.2781 43.5972L50.0019 42.908H50.0048C49.9365 42.7327 49.7464 42.6465 49.5711 42.703H49.5652C49.5592 42.703 49.5533 42.703 49.5474 42.7089L48.668 43.0624L48.5284 42.7119L48.5314 42.7089Z" fill="#2C4198"/>
<path d="M44.5833 43.3595C44.5833 43.3595 44.5774 43.3536 44.5774 43.3506V43.3476C44.4615 43.208 44.2595 43.1813 44.108 43.2823L44.0991 43.2882C44.0991 43.2882 44.0931 43.2882 44.0931 43.2912L42.2543 44.7082L42.0909 44.4943L41.6334 44.8478L41.984 45.3023L42.1176 45.4776L42.3612 45.2904C42.3553 45.4865 42.4088 45.6826 42.5335 45.846C42.8336 46.2351 43.4158 46.2856 43.8347 45.9618C44.2536 45.638 44.3546 45.0617 44.0545 44.6725C43.9298 44.5121 43.7545 44.4082 43.5614 44.3636L44.2298 43.8497L45.3913 45.3528L43.7396 46.6243L43.4931 46.3035L43.0326 46.6599L43.3742 47.1026C43.3742 47.1026 43.3742 47.1026 43.3772 47.1055V47.1115H43.3832C43.5079 47.263 43.7278 47.2897 43.8882 47.1768L46.1726 45.4182L45.9379 45.1152H45.9439L45.1834 44.1259L45.528 43.8586L45.2072 43.4397L44.8596 43.7071L44.5863 43.3565L44.5833 43.3595ZM43.5198 45.5608C43.3534 45.6885 43.1188 45.6558 42.991 45.4925C42.8633 45.3261 42.896 45.0914 43.0594 44.9637C43.2257 44.8359 43.4604 44.8686 43.5881 45.032C43.7159 45.1984 43.6832 45.433 43.5198 45.5608Z" fill="#2C4198"/>
<path d="M63.9374 42.4119H63.9314C63.9908 42.2425 63.9166 42.0613 63.7621 41.9811L61.0914 40.879L60.8894 41.3662L63.3224 42.3673L63.1145 42.8753L62.2767 42.5307L62.4104 42.2039L61.7896 41.9484L61.6559 42.2752L60.5597 41.8237L60.3607 42.3079L61.038 42.5871C60.8657 42.6703 60.7261 42.807 60.6488 42.9971C60.4438 43.4962 60.7587 44.0992 61.3558 44.3458C61.9529 44.5923 62.6006 44.3844 62.8055 43.8883C62.8828 43.6982 62.8828 43.5051 62.8174 43.3239L63.4531 43.5853L63.6522 43.1011L63.9344 42.4148L63.9374 42.4119ZM61.5519 43.8764C61.2964 43.7724 61.1776 43.4813 61.2816 43.2258C61.3855 42.9703 61.6767 42.8515 61.9322 42.9555C62.1876 43.0595 62.3065 43.3506 62.2025 43.6061C62.0985 43.8615 61.8074 43.9804 61.5519 43.8764Z" fill="#2C4198"/>
<path d="M52.9131 40.5017V40.4898C52.8894 40.3057 52.726 40.169 52.5388 40.1839L51 40.3116L51.0446 40.8374L52.316 40.7275L52.3725 41.3454C52.4348 42.0792 51.9863 42.4535 51.3951 42.504L51.1218 42.5307L51.1664 43.0565L51.508 43.0268C52.3546 42.9555 53.0765 42.3584 52.9814 41.2563L52.9161 40.5077L52.9131 40.5017Z" fill="#2C4198"/>
<path d="M53.8102 40.0739C53.6261 40.1007 53.4894 40.2641 53.5072 40.4512L53.7271 43.0208L54.3093 42.9703L54.1043 40.57L54.6094 40.5255L54.5648 39.9997L53.8073 40.065V40.071L53.8102 40.0739Z" fill="#2C4198"/>
<path d="M55.9475 42.2776L55.8781 42.7958L59.1257 43.2309L59.1951 42.7127L55.9475 42.2776Z" fill="#2C4198"/>
<path d="M57.7672 41.0513C57.9959 41.3454 58.4118 41.5711 58.9198 41.6603L59.2792 41.7167L59.3476 41.1998L58.9554 41.1374C58.4623 41.0394 58.1207 40.7899 58.1741 40.4007L58.2009 40.2017L58.1563 40.1957L57.6216 40.1244L57.577 40.1185L57.5503 40.3175C57.4968 40.7067 57.1017 40.8582 56.6027 40.8225L56.1897 40.778L56.1214 41.2949L56.5016 41.3394C57.0126 41.387 57.476 41.2771 57.7731 41.0543L57.7672 41.0513Z" fill="#2C4198"/>
<path d="M65.993 45.8846C65.5415 45.3736 65.5385 44.7736 66.1089 43.9685L66.2515 43.7665C66.2515 43.7665 66.2634 43.7487 66.2723 43.7398L66.3584 43.618L66.1059 43.4397L65.8534 43.2615L65.7673 43.3833C65.7673 43.3833 65.7554 43.4011 65.7495 43.41L65.6069 43.612C65.0365 44.4171 64.4691 44.6132 63.8363 44.3577L63.5601 44.8538C64.0591 45.1182 64.5671 45.1479 65.087 44.8775C65.0038 45.4568 65.2028 45.9292 65.6158 46.3094L65.6217 46.3154L65.7049 46.3956L65.5356 46.6332L66.0138 46.9719L67.4071 45.0083L67.823 45.3023L68.129 44.8716L67.52 44.4409C67.3655 44.3398 67.1576 44.3755 67.0447 44.5211H67.0417L66.0376 45.9351L65.993 45.8876V45.8846Z" fill="#2C4198"/>
<path d="M38.3776 70.6423L40.5937 69.0381L41.1284 69.7748C41.3126 70.0303 41.4017 70.262 41.3958 70.467C41.3898 70.6749 41.2859 70.8502 41.0868 70.9928C40.9769 71.07 40.864 71.1146 40.7422 71.1205C40.6204 71.1265 40.5075 71.0968 40.4006 71.0314C40.4511 71.1592 40.4541 71.2869 40.4125 71.4117C40.3709 71.5364 40.2877 71.6434 40.1629 71.7355C39.9491 71.89 39.7411 71.9434 39.5391 71.8929C39.3371 71.8424 39.147 71.6998 38.9717 71.4622L38.3776 70.6423ZM39.655 70.3749L39.0579 70.8086L39.3282 71.18C39.4025 71.281 39.4856 71.3434 39.5777 71.3641C39.6698 71.3849 39.7619 71.3641 39.851 71.2958C40.053 71.1503 40.0857 70.975 39.9431 70.773L39.655 70.3749ZM39.9788 70.1432L40.2105 70.464C40.3739 70.6809 40.5432 70.7225 40.7244 70.5918C40.8254 70.5205 40.8759 70.4403 40.8818 70.3511C40.8848 70.265 40.8432 70.161 40.7571 70.0422L40.5373 69.7392L39.9788 70.1432Z" fill="#2C4198"/>
<path d="M41.4998 73.5535L40.8462 72.8792L40.3175 73.1436L39.9224 72.7336L42.5603 71.5245L42.9049 71.881L41.6186 74.4833L41.2235 74.0734L41.5028 73.5505L41.4998 73.5535ZM41.274 72.6653L41.7256 73.1317L42.2336 72.184L41.274 72.6653Z" fill="#2C4198"/>
<path d="M43.6595 75.1785C43.7248 75.0953 43.7456 75.0091 43.7248 74.92C43.704 74.8309 43.6387 74.7061 43.5317 74.5398C43.4248 74.3764 43.3446 74.2368 43.297 74.1209C43.1663 73.806 43.1871 73.5387 43.3624 73.3129C43.4515 73.197 43.5644 73.1168 43.6981 73.0723C43.8318 73.0277 43.9773 73.0277 44.1348 73.0663C44.2922 73.1049 44.4437 73.1822 44.5893 73.2951C44.7348 73.4079 44.8448 73.5387 44.9161 73.6842C44.9873 73.8298 45.0141 73.9783 44.9992 74.1298C44.9844 74.2813 44.925 74.4209 44.824 74.5517L44.4021 74.2249C44.4794 74.1268 44.5091 74.0258 44.4912 73.9248C44.4734 73.8238 44.414 73.7317 44.3041 73.6486C44.2001 73.5684 44.1021 73.5297 44.01 73.5297C43.9179 73.5297 43.8407 73.5684 43.7842 73.6456C43.7308 73.7169 43.7189 73.8001 43.7486 73.9011C43.7783 74.0021 43.8436 74.1209 43.9417 74.2665C44.1229 74.5309 44.2269 74.7596 44.2476 74.9586C44.2714 75.1577 44.215 75.3389 44.0872 75.5082C43.9417 75.6954 43.7605 75.7904 43.5436 75.7934C43.3267 75.7934 43.1039 75.7073 42.8752 75.532C42.7177 75.4102 42.5959 75.2676 42.5128 75.1072C42.4296 74.9468 42.3969 74.7863 42.4088 74.6259C42.4236 74.4685 42.4831 74.317 42.593 74.1773L43.0178 74.5071C42.8336 74.7447 42.8752 74.9705 43.1455 75.1814C43.2465 75.2587 43.3416 75.3003 43.4307 75.3003C43.5198 75.3003 43.5941 75.2617 43.6565 75.1844L43.6595 75.1785Z" fill="#2C4198"/>
<path d="M45.6617 76.0281L45.2636 76.1648L44.8774 76.8451L44.411 76.5807L45.7567 74.1982L46.2231 74.4626L45.6112 75.5439L45.9825 75.3627L47.0014 74.9052L47.5748 75.229L46.1726 75.8321L46.2499 77.6234L45.6943 77.3085L45.6528 76.0251L45.6617 76.0281Z" fill="#2C4198"/>
<path d="M48.9354 77.4273L47.9759 77.056L47.7115 77.7392L48.8374 78.1759L48.674 78.5977L47.049 77.968L48.0382 75.4161L49.6602 76.0459L49.4939 76.4707L48.371 76.034L48.1363 76.643L49.0958 77.0144L48.9354 77.4273Z" fill="#2C4198"/>
<path d="M52.1319 77.1184L51.3535 76.9431L50.8515 79.1681L50.3287 79.0493L50.8307 76.8243L50.0643 76.652L50.1653 76.2064L52.2299 76.6728L52.1289 77.1184H52.1319Z" fill="#2C4198"/>
<path d="M52.5923 79.4771L52.7913 76.747L53.7003 76.8124C54.0152 76.8361 54.2499 76.9163 54.4014 77.056C54.5559 77.1956 54.6242 77.3857 54.6034 77.6323C54.5945 77.766 54.5529 77.8818 54.4787 77.9798C54.4044 78.0779 54.3093 78.1462 54.1905 78.1848C54.3212 78.2294 54.4193 78.3066 54.4906 78.4195C54.5589 78.5324 54.5886 78.6631 54.5767 78.8176C54.5589 79.079 54.4638 79.2721 54.2945 79.3969C54.1252 79.5187 53.8934 79.5721 53.5993 79.5543L52.5923 79.48V79.4771ZM53.2132 78.3274L53.1597 79.0641L53.6172 79.0968C53.7419 79.1057 53.8429 79.082 53.9202 79.0226C53.9944 78.9661 54.036 78.88 54.0449 78.77C54.0628 78.5205 53.9499 78.3839 53.7033 78.3631L53.2132 78.3274ZM53.2429 77.9323L53.638 77.962C53.9083 77.9769 54.0509 77.8729 54.0657 77.6531C54.0747 77.5283 54.0479 77.4392 53.9826 77.3798C53.9172 77.3204 53.8132 77.2847 53.6647 77.2758L53.2904 77.2491L53.2399 77.9383L53.2429 77.9323Z" fill="#2C4198"/>
<path d="M56.8018 78.9543L55.866 79.0196L55.7264 79.5959L55.159 79.6345L55.9314 76.8362L56.4275 76.8005L57.592 79.4622L57.0246 79.5038L56.8048 78.9543H56.8018ZM55.9789 78.5562L56.6265 78.5116L56.2284 77.5135L55.9789 78.5592V78.5562Z" fill="#2C4198"/>
<path d="M58.7981 78.7701L59.9091 78.5324L60.0042 78.975L58.3673 79.3226L57.7969 76.646L58.3198 76.5331L58.7951 78.7671L58.7981 78.7701Z" fill="#2C4198"/>
<path d="M61.1538 78.1373L62.2262 77.76L62.3747 78.1878L60.7973 78.7404L59.8912 76.1588L60.3963 75.9806L61.1508 78.1343L61.1538 78.1373Z" fill="#2C4198"/>
<path d="M65.5356 75.4845C65.6692 75.7489 65.699 75.9984 65.6247 76.242C65.5504 76.4826 65.3841 76.6817 65.1226 76.8361C64.8375 77.0055 64.5493 77.0411 64.2641 76.9342C63.9789 76.8302 63.7294 76.5985 63.5185 76.245L63.4323 76.1024C63.2986 75.8766 63.2155 75.6538 63.1887 75.4369C63.162 75.2201 63.1887 75.024 63.2778 74.8458C63.367 74.6675 63.5006 74.5279 63.6848 74.415C63.9433 74.2606 64.1928 74.2101 64.4364 74.2606C64.68 74.3111 64.8939 74.4626 65.0751 74.7091L64.6147 74.9824C64.5136 74.8369 64.4067 74.7507 64.2968 74.724C64.1869 74.6973 64.0621 74.724 63.9195 74.8101C63.765 74.9022 63.6848 75.027 63.6789 75.1904C63.6729 75.3508 63.7383 75.5558 63.8839 75.7994L63.9908 75.9776C64.1423 76.2331 64.2908 76.3965 64.4334 76.4678C64.576 76.542 64.7275 76.5302 64.885 76.4381C65.0276 76.3519 65.1137 76.2569 65.1434 76.1469C65.1731 76.037 65.1494 75.9063 65.0751 75.7578L65.5356 75.4845Z" fill="#2C4198"/>
<path d="M66.914 75.0151L67.7993 74.3021L68.0844 74.6557L66.7833 75.7073L65.0662 73.5773L65.4821 73.2416L66.917 75.0181L66.914 75.0151Z" fill="#2C4198"/>
<path d="M67.9716 70.871L69.2727 72.1187C69.4896 72.3267 69.5995 72.5554 69.6025 72.802C69.6025 73.0515 69.4985 73.2862 69.2876 73.509C69.0766 73.7288 68.8509 73.8447 68.6043 73.8566C68.3577 73.8684 68.129 73.7734 67.9121 73.5714L66.5961 72.3088L66.9675 71.9226L68.2716 73.1733C68.4023 73.2981 68.5241 73.3575 68.64 73.3575C68.7558 73.3575 68.8628 73.301 68.9638 73.1971C69.1717 72.9802 69.1569 72.7544 68.9192 72.5197L67.6032 71.2602L67.9745 70.871H67.9716Z" fill="#2C4198"/>
<path d="M70.5858 71.991L68.3518 70.4105L68.8776 69.6679C69.0588 69.4094 69.249 69.252 69.448 69.1926C69.647 69.1331 69.8461 69.1747 70.0451 69.3144C70.155 69.3916 70.2323 69.4867 70.2768 69.5995C70.3214 69.7124 70.3303 69.8283 70.3035 69.9531C70.4105 69.8639 70.5263 69.8194 70.66 69.8194C70.7907 69.8194 70.9185 69.861 71.0462 69.9501C71.2601 70.1016 71.3789 70.2828 71.3968 70.4908C71.4146 70.6987 71.3403 70.9245 71.171 71.1681L70.5887 71.9939L70.5858 71.991ZM69.5965 70.6363L69.8253 70.3125C69.9768 70.0897 69.9619 69.9144 69.7807 69.7837C69.6797 69.7124 69.5876 69.6887 69.5015 69.7124C69.4183 69.7362 69.3321 69.8105 69.249 69.9293L69.0321 70.2353L69.5965 70.6333V70.6363ZM69.9233 70.8651L70.5263 71.2928L70.7907 70.9185C70.865 70.8146 70.8947 70.7165 70.8828 70.6215C70.8709 70.5264 70.8204 70.4492 70.7313 70.3838C70.5263 70.2382 70.3511 70.265 70.2055 70.464L69.9233 70.8651Z" fill="#2C4198"/>
<path d="M96.8317 47.7591C92.5212 49.5059 87.6375 50.9882 82.3912 52.0666C82.0912 52.129 81.7911 52.1825 81.4911 52.2419L78.0421 52.1052C77.7183 52.0933 77.3559 52.0785 76.9727 52.0636C82.8576 50.6318 88.3356 48.7721 92.6638 46.6748C94.0809 45.9886 95.3196 45.0112 96.294 43.8081C99.1904 40.2314 100.792 36.3457 101.154 32.6918C101.166 32.57 101.008 32.5106 100.934 32.6086C96.297 38.6629 86.0036 44.9934 73.191 49.0187C71.4145 49.5772 69.6529 50.0673 67.9151 50.4981C67.8735 50.507 67.8349 50.5189 67.7933 50.5278C65.5534 51.0298 62.8114 51.4279 59.7516 51.6774C59.1694 51.725 58.6168 51.9448 58.1861 52.3072L58.0673 51.6537H51.9625L51.8437 52.3072C51.3951 51.9329 50.8188 51.7101 50.2098 51.6745C47.1649 51.4249 44.4348 51.0269 42.2038 50.5278C42.1622 50.5189 42.1236 50.507 42.082 50.4981C40.3442 50.0673 38.5826 49.5772 36.8061 49.0187C23.9965 44.9904 13.7031 38.6599 9.06287 32.6057C8.98861 32.5076 8.83116 32.567 8.84304 32.6888C9.20547 36.3428 10.8067 40.2284 13.7031 43.8051C14.6775 45.0083 15.9192 45.9856 17.3333 46.6718C21.6615 48.7691 27.1395 50.6288 33.0244 52.0607C32.4986 52.0815 31.9134 52.1052 31.2628 52.129L28.509 52.2389C28.2089 52.1795 27.9089 52.126 27.6089 52.0636C22.3626 50.9853 17.4788 49.5029 13.1684 47.7561C13.1238 47.7383 13.0763 47.774 13.0852 47.8215C13.4773 50.2931 15.8687 52.7231 19.6147 54.7788C20.6575 55.3492 21.7893 55.7443 22.9657 55.9255C24.1332 56.1038 25.3274 56.2553 26.5424 56.3771C27.9564 56.5167 29.3437 56.6028 30.7043 56.6504L30.7667 56.7692L30.6597 57.497C26.483 57.7733 22.5112 57.6515 18.9731 57.1851C18.9255 57.1791 18.8869 57.2296 18.9107 57.2742C19.8821 59.1695 22.2141 60.5865 25.47 61.451C26.3938 61.6976 27.3623 61.7421 28.3099 61.6055C28.9041 61.5193 29.5012 61.4243 30.1042 61.3203L29.9557 62.3363C28.3278 62.7492 26.7295 63.0878 25.1729 63.3522C25.1254 63.3611 25.1046 63.4176 25.1372 63.4532C26.073 64.4781 27.5821 65.1287 29.5071 65.4169L28.8506 69.9353L31.3727 69.3382C32.0322 69.1837 32.7006 69.0322 33.3601 68.8896L34.5751 68.6282L35.0534 65.1554C35.5525 64.7752 36.0664 64.3949 36.5833 64.0177C36.6368 64.5702 36.8804 65.0841 37.2814 65.4763C37.7567 65.9397 38.4013 66.1892 39.0995 66.1892C39.2361 66.1892 39.3728 66.1803 39.5124 66.1595C40.8789 65.9694 42.2632 65.806 43.6238 65.6664C43.6238 65.6664 45.6201 65.4822 45.7063 65.4763C46.4578 65.4139 47.2213 65.3604 47.9848 65.3129L49.2443 65.2416C49.7404 65.2178 50.2336 65.194 50.7297 65.1762L51.5644 65.1495C52.2328 65.1287 52.9012 65.1138 53.5697 65.1049L55.0193 65.0871L56.4661 65.1049C57.1345 65.1138 57.8088 65.1287 58.4683 65.1495C58.4683 65.1495 60.2477 65.2178 60.3309 65.2208C61.433 65.2713 62.553 65.3426 63.6581 65.4258C63.7383 65.4317 63.8185 65.4347 63.8987 65.4347C64.3978 65.4347 64.8701 65.3099 65.2801 65.0841C65.7257 65.4258 66.2753 65.6545 66.8813 65.7199C68.1854 65.8565 69.5074 66.0199 70.8115 66.2041C70.9541 66.2249 71.0967 66.2338 71.2363 66.2338C71.3967 66.2338 71.5512 66.2189 71.7027 66.1922C72.0146 67.2676 73.0039 68.1618 74.1981 68.3935C75.6389 68.6668 77.0975 68.9787 78.5323 69.3174L81.0514 69.9115L80.4009 65.4287C82.3675 65.1436 83.9122 64.493 84.8628 63.4503C84.8955 63.4146 84.8747 63.3582 84.8272 63.3493C83.2408 63.0789 81.6099 62.7314 79.9493 62.3095L79.8038 61.3025C80.4365 61.4124 81.0693 61.5163 81.6931 61.6055C82.6408 61.7421 83.6062 61.6946 84.5331 61.451C87.7919 60.5865 90.1239 59.1695 91.0924 57.2742C91.1161 57.2296 91.0775 57.1791 91.03 57.1851C87.3523 57.6693 83.2082 57.7852 78.8442 57.4643L79.269 56.6533C80.6385 56.6058 82.0377 56.5197 83.4577 56.3771C84.6757 56.2582 85.8699 56.1067 87.0344 55.9255C88.2078 55.7443 89.3426 55.3522 90.3853 54.7788C94.1314 52.7261 96.5228 50.2961 96.9149 47.8215C96.9208 47.774 96.8763 47.7383 96.8317 47.7561V47.7591Z" fill="#2C4198"/>
<path d="M53.4389 53.2281C52.8448 56.5434 52.2061 59.8676 51.5228 63.2126C52.2001 63.1918 52.8745 63.177 53.5518 63.1681C53.6469 62.5888 53.7449 62.0065 53.837 61.4272C54.6242 61.4213 55.4085 61.4213 56.1957 61.4272C56.2908 62.0065 56.3858 62.5858 56.4839 63.1681C57.1612 63.177 57.8355 63.1918 58.5128 63.2126C57.8266 59.8676 57.1879 56.5434 56.5938 53.2281C55.5422 53.2281 54.4905 53.2281 53.4389 53.2281ZM54.1311 59.7369C54.4371 58.3199 54.7312 56.9029 55.0163 55.4888C55.3015 56.9029 55.5986 58.3199 55.9016 59.7369C55.3104 59.7339 54.7193 59.7339 54.1311 59.7369Z" fill="url(#paint0_linear_1876_60564)"/>
<path d="M50.0405 53.246C48.7928 53.2549 47.5451 53.2697 46.2974 53.2876C45.7686 53.2935 45.3082 53.6708 45.2725 54.1253C45.0527 57.0217 44.8328 59.9181 44.616 62.8145C44.5803 63.2691 45.017 63.5958 45.5904 63.5483C46.3598 63.4859 47.1262 63.4295 47.8956 63.3819C48.2729 63.2542 48.6472 63.1294 49.0215 63.0047C49.072 63.1057 49.1225 63.2067 49.173 63.3077C49.6751 63.2809 50.1741 63.2601 50.6762 63.2423C50.7356 61.3946 50.798 59.5498 50.8574 57.702C49.9929 57.7198 49.1285 57.7436 48.267 57.7733C48.0382 58.3021 47.8065 58.8368 47.5718 59.3715C47.9491 59.3537 48.3293 59.3388 48.7066 59.324C48.668 60.129 48.6294 60.9311 48.5908 61.7362C48.0026 61.7659 47.4144 61.7986 46.8262 61.8372C46.9688 59.4963 47.1114 57.1554 47.254 54.8145C47.8214 54.8026 48.3888 54.7907 48.9562 54.7818C48.9235 55.4383 48.8938 56.0949 48.8611 56.7514C49.5533 56.3711 50.2425 55.9939 50.9257 55.6255C50.9435 55.0967 50.9614 54.5709 50.9762 54.0421C50.9911 53.6025 50.5692 53.2489 50.0405 53.2519V53.246Z" fill="url(#paint1_linear_1876_60564)"/>
<path d="M77.3678 60.0161C76.3251 59.2259 75.2883 58.4714 74.2634 57.7495C74.1624 56.9652 74.0614 56.178 73.9634 55.3938C74.4357 55.4205 77.2371 55.6463 77.7005 55.6789C78.054 55.0402 78.4016 54.3837 78.7462 53.7153C77.5698 53.6678 73.6099 53.5074 72.8523 53.4866C72.3236 53.4717 71.9403 53.8579 71.9968 54.3481C72.1572 55.6849 72.3147 57.0247 72.4751 58.3615C72.5018 58.5991 72.6414 58.7744 72.8256 58.914C73.9188 59.6775 75.0269 60.4766 76.1409 61.3143C76.3102 62.5769 76.4766 63.8364 76.6459 65.099C76.1439 65.0039 75.6388 64.9089 75.1338 64.8197C75.0625 64.2672 74.9942 63.7146 74.9229 63.1621C73.5564 62.2204 72.885 61.7926 72.885 61.7985C73.0276 62.9987 73.1702 64.1989 73.3158 65.402C73.3722 65.8921 73.8861 66.3734 74.4625 66.4833C75.93 66.7626 77.3945 67.0745 78.8531 67.4191C78.5471 65.2237 78.2412 63.0284 77.9322 60.836C77.8758 60.432 77.5638 60.1676 77.3678 60.0161Z" fill="url(#paint2_linear_1876_60564)"/>
<path d="M64.4898 59.1695C64.466 58.8249 64.169 58.614 63.9818 58.4952C62.9837 57.8743 61.9974 57.2712 61.023 56.6831C60.9933 56.083 60.9666 55.4859 60.9369 54.8858C61.4092 54.8947 61.8845 54.9036 62.3569 54.9125C62.3687 55.0997 62.3777 55.2898 62.3895 55.477C63.0253 55.8631 63.664 56.2553 64.3086 56.6563C64.2462 55.8067 64.1868 54.9571 64.1274 54.1075C64.0947 53.6559 63.6372 53.2816 63.1055 53.2757C62.0657 53.2608 61.026 53.2519 59.9863 53.243C59.4545 53.24 59.0356 53.5935 59.0505 54.0332C59.0861 55.1324 59.1218 56.2315 59.1604 57.3307C59.1664 57.5416 59.2911 57.6931 59.4634 57.8089C60.5032 58.4268 61.5548 59.0596 62.6213 59.7131C62.6628 60.4053 62.7015 61.0975 62.7431 61.7897C62.238 61.7599 61.736 61.7332 61.231 61.7065C61.2161 61.3708 61.1983 61.0351 61.1834 60.6994C59.8763 59.9894 59.2376 59.6567 59.2376 59.6626C59.2674 60.5895 59.3 61.5164 59.3297 62.4402C59.3446 62.8799 59.8199 63.2542 60.3962 63.2809C61.5191 63.3344 62.645 63.4027 63.7679 63.4889C64.3413 63.5334 64.7809 63.2067 64.7483 62.7551C64.6621 61.5579 64.576 60.3608 64.4928 59.1636L64.4898 59.1695Z" fill="url(#paint3_linear_1876_60564)"/>
<path d="M39.4173 54.2916C39.0727 57.3663 38.7281 60.438 38.3865 63.5126C38.333 63.9969 38.7489 64.3177 39.3222 64.2375C40.7066 64.0474 42.0939 63.881 43.4842 63.7384C43.5317 63.171 43.5762 62.6036 43.6238 62.0362C42.5781 62.1283 41.5354 62.2323 40.4957 62.3511C40.6056 61.2787 40.7125 60.2063 40.8224 59.1338C41.5532 59.0744 42.284 59.018 43.0148 58.9675C43.2584 58.3793 43.499 57.7941 43.7396 57.2118C42.8247 57.2593 41.9127 57.3098 41.0007 57.3693C41.0749 56.6206 41.1522 55.872 41.2294 55.1264C42.2216 55.0848 43.2138 55.0492 44.206 55.0194C44.2536 54.452 44.2981 53.8846 44.3457 53.3172C43.0564 53.341 41.7671 53.3648 40.4778 53.3975C39.949 53.4093 39.4737 53.8104 39.4203 54.2916H39.4173Z" fill="url(#paint4_linear_1876_60564)"/>
<path d="M70.7907 53.4272C70.1193 53.4094 69.4509 53.3945 68.7795 53.3796C69.0885 56.4038 69.3974 59.428 69.7093 62.4491C69.1419 62.3838 68.5775 62.3214 68.0101 62.265C67.7338 59.2913 67.4605 56.3177 67.1842 53.344C66.5129 53.3321 65.8415 53.3173 65.1731 53.3083C65.4256 56.4989 65.6781 59.6864 65.9306 62.8769C65.9752 63.3255 66.4653 63.7325 67.0298 63.7919C68.3606 63.9315 69.6856 64.0979 71.0105 64.285C71.5809 64.3652 71.9968 64.0444 71.9433 63.5602C71.5601 60.1825 71.1768 56.8048 70.7936 53.4272H70.7907Z" fill="url(#paint5_linear_1876_60564)"/>
<path d="M37.4181 53.4747C36.5684 53.4985 32.0827 53.6797 31.2479 53.7124C31.5925 54.3808 31.9401 55.0343 32.2936 55.676C32.7333 55.6463 35.7664 55.4056 36.1852 55.3819C35.9713 57.0692 35.7574 58.7595 35.5436 60.4469C34.9583 60.8747 34.3701 61.3173 33.776 61.7689C33.9691 60.3102 34.1652 58.8546 34.3582 57.396C33.7166 57.4524 33.0749 57.5119 32.4332 57.5742L31.0519 67.4429C31.7233 67.2854 32.3946 67.1309 33.066 66.9883C33.1967 66.0021 33.3304 65.0158 33.4611 64.0295C34.4385 63.275 35.4069 62.5531 36.3664 61.858C36.9487 61.4272 37.4864 61.0291 37.5725 60.2776C37.8072 58.2991 38.0389 56.3176 38.2736 54.3392C38.3301 53.852 37.9468 53.4658 37.4181 53.4806V53.4747Z" fill="url(#paint6_linear_1876_60564)"/>
<defs>
<linearGradient id="paint0_linear_1876_60564" x1="55.0164" y1="53.1895" x2="55.0164" y2="63.2572" gradientUnits="userSpaceOnUse">
<stop offset="0.15" stop-color="white"/>
<stop offset="1" stop-color="#00A0E9"/>
</linearGradient>
<linearGradient id="paint1_linear_1876_60564" x1="47.7946" y1="53.2727" x2="47.7946" y2="63.2542" gradientUnits="userSpaceOnUse">
<stop offset="0.15" stop-color="white"/>
<stop offset="1" stop-color="#00A0E9"/>
</linearGradient>
<linearGradient id="paint2_linear_1876_60564" x1="75.422" y1="53.6618" x2="75.422" y2="66.6051" gradientUnits="userSpaceOnUse">
<stop offset="0.15" stop-color="white"/>
<stop offset="1" stop-color="#00A0E9"/>
</linearGradient>
<linearGradient id="paint3_linear_1876_60564" x1="61.9023" y1="53.5757" x2="61.9023" y2="63.3344" gradientUnits="userSpaceOnUse">
<stop offset="0.15" stop-color="white"/>
<stop offset="1" stop-color="#00A0E9"/>
</linearGradient>
<linearGradient id="paint4_linear_1876_60564" x1="41.3631" y1="53.4034" x2="41.3631" y2="64.0889" gradientUnits="userSpaceOnUse">
<stop offset="0.15" stop-color="white"/>
<stop offset="1" stop-color="#00A0E9"/>
</linearGradient>
<linearGradient id="paint5_linear_1876_60564" x1="68.5597" y1="53.4034" x2="68.5597" y2="64.0355" gradientUnits="userSpaceOnUse">
<stop offset="0.15" stop-color="white"/>
<stop offset="1" stop-color="#00A0E9"/>
</linearGradient>
<linearGradient id="paint6_linear_1876_60564" x1="34.6672" y1="53.748" x2="34.6672" y2="66.9111" gradientUnits="userSpaceOnUse">
<stop offset="0.15" stop-color="white"/>
<stop offset="1" stop-color="#00A0E9"/>
</linearGradient>
</defs>
</svg>
