<svg viewBox="0 0 110 110" fill="none" xmlns="http://www.w3.org/2000/svg">
<path d="M21.3057 55C21.3057 36.3892 36.3908 21.3042 55.0015 21.3042C73.6122 21.3042 88.6973 36.3892 88.6973 55C88.6973 73.6107 73.6091 88.6958 55.0015 88.6958C36.3939 88.6958 21.3057 73.6107 21.3057 55Z" fill="#001F5B"/>
<path d="M55.0015 21.3042C73.6123 21.3042 88.6973 36.3892 88.6973 55C88.6973 73.6107 73.6123 88.6958 55.0015 88.6958C36.3908 88.6958 21.3057 73.6107 21.3057 55C21.3057 36.3892 36.3908 21.3042 55.0015 21.3042ZM55.0015 19.9984C45.6526 19.9984 36.8634 23.6391 30.2536 30.2489C23.6406 36.8618 19.9999 45.6511 19.9999 55C19.9999 64.3489 23.6406 73.1381 30.2504 79.7511C36.8603 86.3609 45.6495 90.0016 54.9984 90.0016C64.3473 90.0016 73.1366 86.3609 79.7495 79.7511C86.3593 73.1412 90 64.352 90 55C90 45.648 86.3593 36.8618 79.7495 30.2489C73.1397 23.6391 64.3504 19.9984 55.0015 19.9984Z" fill="#B5B5B6"/>
<mask id="mask0_1876_60452" style="mask-type:luminance" maskUnits="userSpaceOnUse" x="23" y="23" width="64" height="64">
<path d="M23.4852 55C23.4852 72.3795 37.6252 86.5163 55.0016 86.5163C72.378 86.5163 86.5179 72.3764 86.5179 55C86.5179 37.6235 72.3811 23.4836 55.0016 23.4836C37.622 23.4836 23.4852 37.6204 23.4852 55Z" fill="white"/>
</mask>
<g mask="url(#mask0_1876_60452)">
<path d="M86.5179 23.4836H23.4852V86.5194H86.5179V23.4836Z" fill="url(#paint0_radial_1876_60452)"/>
</g>
<path d="M83.7384 53.8217C81.7486 51.9562 79.3453 51.1168 76.6436 51.3624C75.9751 49.2918 75.1326 47.2771 74.1159 45.3246C76.9638 44.6531 79.4635 44.1867 81.5061 43.8634C81.2512 43.2571 80.9745 42.6602 80.6822 42.0757C78.6551 42.4115 76.1088 42.9027 73.1801 43.6085C72.1821 41.8767 71.125 40.3004 70.0244 38.8672C70.2949 38.7024 70.5592 38.5252 70.8172 38.3293C72.266 37.238 73.662 35.4814 73.3791 32.845C72.5801 32.1734 71.7468 31.5454 70.8763 30.9609C72.0298 33.4668 71.6442 35.3353 69.6762 36.8121C69.3995 37.0204 69.1104 37.2069 68.8181 37.3748C63.3773 30.9858 57.01 27.7772 51.3235 26.232C49.6975 26.4186 48.115 26.7388 46.5823 27.1834C52.7133 28.0726 60.4921 30.8023 66.9807 38.1614C64.1452 39.0195 60.8932 38.5905 57.9427 38.0744C57.4421 37.9873 56.9385 37.8972 56.4348 37.807C50.5152 36.7468 44.3966 35.6493 38.5298 37.2722C34.656 38.3449 30.8598 40.7388 27.8472 43.8914C27.157 45.5423 26.6129 47.2678 26.2336 49.0555C29.1716 44.2769 34.0373 40.4839 39.0366 39.0972C44.4868 37.5894 50.3908 38.6464 56.1021 39.6693C56.612 39.7595 57.1157 39.8496 57.6162 39.9398C61.2725 40.5803 65.0313 40.9471 68.2803 39.719C69.3218 41.0404 70.3198 42.4923 71.2649 44.0904C67.6678 45.0293 63.5949 46.2791 59.2671 47.9487C47.3875 52.5252 36.8976 58.8894 28.0679 66.8765C28.3353 67.4797 28.6213 68.0735 28.9291 68.658C43.6411 55.1896 60.4237 48.8006 72.2225 45.791C72.2567 45.8563 72.2909 45.9185 72.3251 45.9838C73.3107 47.8461 74.1253 49.7613 74.7719 51.7199C70.2483 53.1159 67.2139 58.3546 63.7411 64.3551C59.6029 71.5059 54.9176 79.5925 46.6227 83.0809C47.5834 83.3576 48.5689 83.5876 49.5669 83.7648C57.0691 79.6578 61.4621 72.078 65.3826 65.3034C68.6502 59.6573 71.5012 54.7326 75.3222 53.5356C77.2405 60.5185 77.0882 68.0673 74.8559 76.0793C75.8072 75.1621 76.6995 74.1797 77.5203 73.1412C78.2852 69.4601 78.6209 65.8381 78.5183 62.3311C78.4251 59.2065 77.9805 56.1628 77.1939 53.2247C79.8148 53.0941 81.9663 54.2321 83.7291 56.6758C83.7571 56.1628 83.7695 55.6467 83.7695 55.1244C83.7695 54.686 83.7571 54.2538 83.7384 53.8186" fill="#005225"/>
<path d="M42.2451 37.322L40.4263 38.749L37.5629 35.099L39.3817 33.6719L40.1962 33.7683L42.3446 36.5043L42.2482 37.3188L42.2451 37.322ZM39.6708 34.4679L38.7256 35.2109L40.5973 37.5924L41.5424 36.8494L39.6708 34.4679Z" fill="white"/>
<path d="M46.0973 35.0959L44.0328 36.1219L41.9684 31.9682L44.0328 30.9422L44.8101 31.2034L45.407 32.4035L45.2423 32.8885L45.7273 33.0533L46.3553 34.3186L46.0941 35.0959H46.0973ZM44.1572 31.7786L43.0784 32.3133L43.5603 33.2802L44.6391 32.7455L44.1572 31.7786ZM44.9935 33.4606L43.9147 33.9953L44.4277 35.0275L45.5065 34.4928L44.9935 33.4606Z" fill="white"/>
<path d="M52.8096 31.5112L51.3577 31.7008L51.5878 33.4761L50.7545 33.5849L50.1576 28.9835L52.4427 28.6881L53.0925 29.1887L53.3102 30.8645L52.8096 31.5143V31.5112ZM52.2873 29.5183L51.0934 29.6737L51.252 30.9049L52.4458 30.7494L52.2873 29.5214V29.5183Z" fill="white"/>
<path d="M57.2836 33.3206L56.7147 31.4863L56.1581 31.4459L56.0307 33.2305L55.1912 33.1714L55.5208 28.542L57.8215 28.7037L58.3593 29.3224L58.2412 31.0075L57.6225 31.5454L58.2194 33.3828L57.2867 33.3175L57.2836 33.3206ZM57.5012 29.4934L56.3012 29.4094L56.2172 30.6095L57.4173 30.6935L57.5012 29.4934Z" fill="white"/>
<path d="M61.7357 34.2596L60.0754 33.7932L59.6744 33.0781L60.6164 29.7297L61.3315 29.3286L62.9917 29.795L63.3928 30.51L62.4507 33.8585L61.7357 34.2596ZM62.5223 30.4976L61.3626 30.1712L60.5418 33.0874L61.7015 33.4139L62.5223 30.4976Z" fill="white"/>
<path d="M66.7506 36.5727L66.0355 36.1903L67.1703 34.045L65.8023 35.1954L65.4293 34.9964L65.622 33.218L64.481 35.3602L63.7566 34.9746L65.9422 30.8831L66.62 31.2438L66.3558 33.7062L68.2554 32.1174L68.9331 32.4781L66.7506 36.5727Z" fill="white"/>
<path d="M70.6276 37.1945L69.4026 38.6464L68.7653 38.1085L69.9871 36.6535L70.7426 33.703L71.4919 34.3372L70.8981 36.2369L72.6516 35.3197L73.3822 35.9353L70.6276 37.1945Z" fill="white"/>
<path d="M32.1439 65.6049L31.7272 64.6505L30.5582 65.1572L30.3188 64.6069L33.3439 63.2887L34 64.7935L33.7854 65.3376L32.6848 65.8163L32.1407 65.6018L32.1439 65.6049ZM33.4061 64.8557L33.0641 64.0691L32.2558 64.4204L32.5978 65.207L33.4061 64.8557Z" fill="white"/>
<path d="M32.6537 69.1741L33.4838 68.089L33.2755 67.7501L32.1874 68.4124L31.8765 67.9025L34.6964 66.1863L35.5482 67.5885L35.4114 68.1543L34.3855 68.7792L33.8196 68.6424L32.9988 69.7461L32.6537 69.1772V69.1741ZM34.9637 67.7253L34.5192 66.9946L33.7885 67.4392L34.2331 68.1698L34.9637 67.7253Z" fill="white"/>
<path d="M34.8549 72.1588L34.0807 71.2074L34.1398 70.626L36.0612 69.0653L36.6426 69.1243L37.4168 70.0757L37.3577 70.6571L35.4363 72.221L34.8549 72.1619V72.1588ZM36.854 70.2933L36.313 69.628L34.6404 70.9898L35.1814 71.6551L36.854 70.2933Z" fill="white"/>
<path d="M39.1423 76.1881L37.8521 75.1745L39.8947 72.5816L41.1849 73.5951L41.2533 74.1734L40.6626 74.9227L40.2989 74.9662L40.3424 75.33L39.7206 76.1197L39.1423 76.1881ZM39.8574 74.9787L39.1858 74.4501L38.6791 75.0937L39.3506 75.6222L39.8574 74.9787ZM40.6844 73.9309L40.0097 73.4024L39.534 74.0055L40.2056 74.5341L40.6813 73.9309H40.6844Z" fill="white"/>
<path d="M42.1612 78.1499L42.3726 77.3353L41.6607 76.9156L41.073 77.5094L40.5569 77.2078L43.0442 74.8419L43.5168 75.1186L42.6618 78.4452L42.1643 78.153L42.1612 78.1499ZM42.7923 75.8026L42.0679 76.5239L42.5094 76.7819L42.7923 75.7994V75.8026Z" fill="white"/>
<path d="M45.3697 79.6578L44.1074 79.1323L43.9675 78.7872L44.1012 78.467L45.4101 79.0173L45.7024 78.3116L44.7666 77.9198L44.5458 77.3788L44.9718 76.3622L45.5096 76.1383L46.7719 76.6669L46.9118 77.012L46.7812 77.3291L45.4723 76.7819L45.1956 77.441L46.1345 77.8328L46.3522 78.3768L45.9107 79.437L45.3697 79.6578Z" fill="white"/>
<path d="M49.1938 80.833L48.9576 78.952L48.0622 79.6547L47.8476 80.4879L47.2693 80.3387L48.0901 77.1395L48.6715 77.2887L48.2829 78.7935L49.8157 77.5841L50.4934 77.7582L49.5141 78.5385L49.7939 80.9854L49.1938 80.833Z" fill="white"/>
<path d="M51.1245 81.1967L51.4821 77.9136L53.5278 78.1374L53.4656 78.7064L52.0199 78.5478L51.936 79.322L52.9153 79.4308L52.85 80.0246L51.8707 79.9189L51.7867 80.6931L53.2324 80.8516L53.1672 81.4206L51.1245 81.1967Z" fill="white"/>
<path d="M56.6897 78.7002L55.8347 78.7189L55.8938 81.4486L55.2937 81.461L55.2347 78.7313L54.3797 78.7562L54.3672 78.1779L56.6773 78.1281L56.6897 78.7002Z" fill="white"/>
<path d="M59.7397 81.0444L58.1199 81.2993L57.61 78.038L59.2299 77.783L59.7024 78.125L59.8517 79.0671L59.6371 79.3624L59.9325 79.5769L60.088 80.5718L59.7428 81.0444H59.7397ZM59.1335 78.38L58.2878 78.5136L58.406 79.2722L59.2516 79.1386L59.1335 78.38ZM59.3387 79.6982L58.493 79.8319L58.6205 80.6433L59.4661 80.5128L59.3387 79.7013V79.6982Z" fill="white"/>
<path d="M63.2374 80.1615L62.7835 79.4526L61.9938 79.6889L62.028 80.5252L61.4559 80.6962L61.4093 77.2638L61.9316 77.1053L63.7908 79.9936L63.2374 80.1615ZM61.9441 78.1064L61.9814 79.1293L62.4695 78.9831L61.9441 78.1064Z" fill="white"/>
<path d="M65.0157 79.5148L63.6633 76.5052L64.2105 76.2596L65.3266 78.75L66.536 78.2059L66.7692 78.7282L65.0157 79.5148Z" fill="white"/>
<path d="M68.016 78.0598L66.2967 75.243L66.8066 74.9321L68.2305 77.2607L69.3622 76.5674L69.6607 77.0587L68.016 78.0598Z" fill="white"/>
<path d="M73.7024 73.7288L72.8598 74.5341L72.2753 74.5185L70.5685 72.7246L70.584 72.1432L71.4266 71.338L72.0111 71.3535L72.1199 71.4686L71.1126 72.4293L72.5987 73.99L73.6091 73.0324L73.7179 73.1474L73.7024 73.7288Z" fill="white"/>
<path d="M74.974 72.3826L72.4122 70.2965L72.7915 69.8332L74.9087 71.5556L75.7451 70.5296L76.1897 70.8903L74.974 72.3826Z" fill="white"/>
<path d="M77.8747 68.3284L77.2312 69.3731L76.6622 69.5099L74.2029 67.9958L74.517 67.4859L76.8394 68.9161L77.2902 68.1854L74.9647 66.7553L75.2787 66.2454L77.7379 67.7595L77.8747 68.3284Z" fill="white"/>
<path d="M79.4884 65.0608L78.8292 66.5625L75.8073 65.238L76.4664 63.7364L77.0104 63.525L77.8841 63.9074L78.0178 64.2463L78.3567 64.1126L79.2769 64.5167L79.4884 65.0608ZM76.9172 64.1374L76.5721 64.9209L77.2747 65.2287L77.6198 64.4452L76.9172 64.1374ZM78.139 64.6722L77.7939 65.4557L78.5463 65.7852L78.8914 65.0018L78.139 64.6722Z" fill="white"/>
<path d="M55.0015 26.2351C70.8887 26.2351 83.7663 39.1128 83.7663 55C83.7663 70.8872 70.8887 83.7649 55.0015 83.7649C39.1143 83.7649 26.2366 70.8872 26.2366 55C26.2366 39.1128 39.1143 26.2351 55.0015 26.2351ZM55.0015 25.0755C38.5018 25.0755 25.077 38.5003 25.077 55C25.077 71.4997 38.5018 84.9245 55.0015 84.9245C71.5012 84.9245 84.926 71.4997 84.926 55C84.926 38.5003 71.5012 25.0755 55.0015 25.0755Z" fill="white"/>
<path d="M63.8841 47.4699H44.2132C43.865 47.4699 43.5851 47.7528 43.5851 48.0979V55.9451L42.696 57.1017C42.5965 57.2012 42.5965 57.3597 42.696 57.4592L43.5851 58.6158V65.8474C43.5851 65.9562 43.7157 66.0153 43.7966 65.9407L47.1419 62.9125V58.8117H63.1192L66.4086 55.8332C66.5765 55.6809 66.6729 55.4632 66.6729 55.2363V50.2556C66.6729 50.0411 66.5889 49.8359 66.4366 49.6866L64.4561 47.7062C64.3038 47.5538 64.1017 47.4699 63.8872 47.4699M63.113 55.4415H47.1357V50.8743H63.113V55.4415Z" fill="#007F41"/>
<path d="M43.7064 66.3169C43.6411 66.3169 43.5789 66.3045 43.5167 66.2765C43.3457 66.2019 43.2369 66.034 43.2369 65.8474V58.7308L42.4286 57.68C42.2203 57.453 42.2203 57.1048 42.4286 56.8779L43.2369 55.827V48.0979C43.2369 47.5601 43.6722 47.1248 44.21 47.1248H63.881C64.1887 47.1248 64.4779 47.2429 64.6924 47.4606L66.6729 49.441C66.8905 49.6587 67.0086 49.9478 67.0086 50.2525V55.2332C67.0086 55.5565 66.8719 55.8674 66.6325 56.085L63.2436 59.1537H47.4777V63.0617L44.0204 66.1925C43.9333 66.2734 43.8183 66.3138 43.7064 66.3138M42.9882 57.282L43.924 58.5008V65.3593L46.7937 62.7633V58.4728H62.9824L66.1754 55.5814C66.2718 55.4943 66.3278 55.37 66.3278 55.2394V50.2587C66.3278 50.1343 66.2811 50.0193 66.191 49.9323L64.2105 47.9518C64.1235 47.8647 64.0053 47.815 63.8841 47.815H44.2132C44.0546 47.815 43.9271 47.9425 43.9271 48.101V56.0633L42.9913 57.282H42.9882ZM63.4581 55.7866H46.7937V50.5323H63.4581V55.7866ZM47.4808 55.0995H62.771V51.2194H47.4808V55.0995Z" fill="#001A54"/>
<path d="M43.8339 58.6158C43.8339 58.5474 43.809 58.4852 43.7592 58.4386L42.8701 57.282L43.7592 56.1255C43.8059 56.0788 43.8339 56.0135 43.8339 55.9482V48.101C43.8339 47.8927 44.0049 47.7217 44.2101 47.7217H63.8841C64.0333 47.7217 64.1701 47.7808 64.2758 47.8834L66.2563 49.8638C66.362 49.9695 66.4179 50.1063 66.4179 50.2556V55.2363C66.4179 55.3917 66.3526 55.541 66.2345 55.6467L63.0166 58.5598H47.1388C46.9989 58.5598 46.8869 58.6718 46.8869 58.8117V62.8006L43.8339 65.5645V58.6158ZM47.1388 50.6224C46.9989 50.6224 46.8869 50.7344 46.8869 50.8743V55.4415C46.8869 55.5814 46.9989 55.6933 47.1388 55.6933H63.1161C63.256 55.6933 63.368 55.5814 63.368 55.4415V50.8743C63.368 50.7344 63.256 50.6224 63.1161 50.6224H47.1388Z" fill="#001F5B"/>
<path d="M43.6971 65.8754V58.6158C43.6971 58.5847 43.6847 58.5567 43.6629 58.535L43.6505 58.5225L42.696 57.282L43.6629 56.0291C43.6847 56.0073 43.6971 55.9793 43.6971 55.9483V48.101C43.6971 47.8181 43.9272 47.5849 44.2132 47.5849H63.8841C64.0675 47.5849 64.2416 47.6564 64.3722 47.787L66.3527 49.7675C66.4833 49.8981 66.5548 50.0722 66.5548 50.2556V55.2363C66.5548 55.4321 66.4708 55.6187 66.3278 55.7493L63.0695 58.6998H47.1388C47.0766 58.6998 47.0238 58.7526 47.0238 58.8148V62.8628L43.6971 65.8754ZM43.865 58.3484C43.9334 58.4199 43.9707 58.5163 43.9707 58.6158V65.2567L46.7471 62.7415V58.8148C46.7471 58.6003 46.9212 58.4262 47.1357 58.4262H62.9607L66.1413 55.5472C66.2283 55.4695 66.2781 55.3544 66.2781 55.2394V50.2587C66.2781 50.1468 66.2345 50.0442 66.1568 49.9633L64.1763 47.9829C64.0986 47.9052 63.9929 47.8616 63.881 47.8616H44.2101C44.0764 47.8616 43.9707 47.9705 43.9707 48.101V55.9483C43.9707 56.0477 43.9334 56.1441 43.865 56.2156L43.0442 57.282L43.865 58.3484ZM63.1131 55.8301H47.1357C46.9212 55.8301 46.7471 55.656 46.7471 55.4415V50.8743C46.7471 50.6598 46.9212 50.4857 47.1357 50.4857H63.1131C63.3276 50.4857 63.5017 50.6598 63.5017 50.8743V55.4415C63.5017 55.656 63.3276 55.8301 63.1131 55.8301ZM47.1388 50.7593C47.0766 50.7593 47.0238 50.8121 47.0238 50.8743V55.4415C47.0238 55.5037 47.0735 55.5565 47.1388 55.5565H63.1162C63.1783 55.5565 63.2312 55.5037 63.2312 55.4415V50.8743C63.2312 50.8121 63.1783 50.7593 63.1162 50.7593H47.1388Z" fill="#001A54"/>
<path d="M63.1131 60.0397V63.954H47.3409L43.8246 67.1377C43.7406 67.2154 43.7935 67.3584 43.9085 67.3584H63.8841C64.0986 67.3584 64.3038 67.2745 64.4531 67.1221L66.4335 65.1417C66.5859 64.9893 66.6698 64.7841 66.6698 64.5727V59.2625C66.6698 59.048 66.5859 58.8428 66.4335 58.6935L65.6469 57.9069C65.6003 57.8603 65.5226 57.8572 65.4728 57.9038L63.11 60.0428L63.1131 60.0397Z" fill="#007F41"/>
<path d="M63.8841 67.7004H43.9085C43.7126 67.7004 43.5416 67.5823 43.4701 67.3988C43.3986 67.2154 43.4483 67.0133 43.5945 66.8827L47.2103 63.612H62.771V59.8874L65.2458 57.6489C65.4324 57.481 65.7153 57.4872 65.8925 57.6644L66.6791 58.451C66.8967 58.6686 67.0149 58.9578 67.0149 59.2625V64.5727C67.0149 64.8805 66.8967 65.1696 66.6791 65.3842L64.6986 67.3646C64.481 67.5823 64.195 67.7004 63.8872 67.7004M44.4743 67.0133H63.8841C64.0084 67.0133 64.1235 66.9667 64.2105 66.8765L66.191 64.896C66.278 64.809 66.3278 64.694 66.3278 64.5696V59.2594C66.3278 59.135 66.2811 59.02 66.191 58.9329L65.5536 58.2956L63.4581 60.1921V64.2991H47.4745L44.4743 67.0164V67.0133Z" fill="#001A54"/>
<path d="M44.2349 67.1066L47.4372 64.209H63.113C63.2529 64.209 63.3648 64.0971 63.3648 63.9572V60.1517L65.5536 58.1712L66.2531 58.8708C66.3588 58.9765 66.4148 59.1133 66.4148 59.2625V64.5728C66.4148 64.722 66.3557 64.8588 66.2531 64.9645L64.2726 66.945C64.1669 67.0507 64.0301 67.1066 63.8809 67.1066H44.2318H44.2349Z" fill="#001F5B"/>
<path d="M63.8841 67.2434H43.8805L47.3875 64.069H63.1161C63.1783 64.069 63.2312 64.0162 63.2312 63.954V60.0895L65.563 57.9784L66.3558 58.7712C66.4863 58.9018 66.5578 59.0759 66.5578 59.2593V64.5696C66.5578 64.753 66.4863 64.9271 66.3558 65.0577L64.3753 67.0382C64.2447 67.1688 64.0706 67.2403 63.8872 67.2403M44.5925 66.9667H63.8841C63.996 66.9667 64.0986 66.9231 64.1794 66.8454L66.1599 64.8649C66.2376 64.7872 66.2811 64.6815 66.2811 64.5696V59.2593C66.2811 59.1474 66.2376 59.0448 66.1599 58.964L65.5536 58.3546L63.5079 60.2076V63.9509C63.5079 64.1654 63.3338 64.3395 63.1192 64.3395H47.4963L44.5956 66.9636L44.5925 66.9667Z" fill="#001A54"/>
<path d="M59.0246 42.6664C58.8723 42.5172 58.6702 42.4301 58.4556 42.4301H56.4596L55.3186 41.5254C55.2191 41.4259 55.0606 41.4259 54.9611 41.5254L53.8201 42.4301H49.6415C49.2933 42.4301 49.0104 42.713 49.0104 43.0613V71.767C49.0104 72.1152 49.2933 72.3982 49.6415 72.3982H53.8201L54.9611 73.2127C55.0606 73.3122 55.2191 73.3122 55.3186 73.2127L56.4596 72.3982H58.4246C58.6577 72.3982 58.8816 72.3049 59.0464 72.1401L60.9833 70.2032C61.1481 70.0384 61.2413 69.8146 61.2413 69.5814V45.449C61.2413 45.0884 61.0983 44.7401 60.8434 44.4852L59.0246 42.6664ZM57.6846 68.9938H52.5951V45.8345H57.6846V68.9938Z" fill="#007F41"/>
<path d="M55.1383 73.6293C54.9891 73.6293 54.8523 73.5765 54.7435 73.4801L53.7081 72.7433H49.6384C49.1006 72.7433 48.6653 72.308 48.6653 71.7701V43.0644C48.6653 42.5265 49.1006 42.0912 49.6384 42.0912H53.6988L54.7341 41.2704C54.9549 41.0652 55.3217 41.0652 55.5425 41.2704L56.5778 42.0912H58.4557C58.7635 42.0912 59.0526 42.2125 59.2671 42.427L61.0859 44.2458C61.4092 44.566 61.5865 44.9951 61.5865 45.4521V69.5845C61.5865 69.9109 61.459 70.2187 61.2289 70.4519L59.292 72.3888C59.0619 72.622 58.7541 72.7464 58.4246 72.7464H56.5716L55.5363 73.4832C55.4275 73.5796 55.2875 73.6325 55.1414 73.6325M49.6384 42.7752C49.4799 42.7752 49.3524 42.9027 49.3524 43.0613V71.767C49.3524 71.9256 49.4799 72.0531 49.6384 72.0531H53.9258L55.1352 72.9174L56.3446 72.0531H58.4183C58.5614 72.0531 58.6982 71.9971 58.7977 71.8945L60.7346 69.9576C60.8372 69.855 60.8931 69.7213 60.8931 69.5783V45.4459C60.8931 45.1723 60.7874 44.9174 60.5947 44.7277L58.7759 42.9089C58.6888 42.8219 58.5738 42.7752 58.4494 42.7752H56.3353L55.1352 41.8239L53.9351 42.7752H49.6353H49.6384ZM58.0297 69.3358H52.2531V45.4894H58.0297V69.3358ZM52.9402 68.6487H57.3426V46.1765H52.9402V68.6487Z" fill="#001A54"/>
<path d="M53.9973 72.2179C53.9507 72.1712 53.8854 72.1432 53.8201 72.1432H49.6416C49.4333 72.1432 49.2623 71.9722 49.2623 71.7639V43.0581C49.2623 42.8498 49.4333 42.682 49.6416 42.682H53.8201C53.8885 42.682 53.9538 42.654 54.0004 42.6073L55.1446 41.7026L56.2825 42.6073C56.3291 42.6571 56.3944 42.682 56.4628 42.682H58.4588C58.608 42.682 58.7448 42.7379 58.8506 42.8436L60.6693 44.6624C60.8776 44.8707 60.9927 45.1505 60.9927 45.4459V69.5783C60.9927 69.7462 60.9274 69.9047 60.8092 70.0229L58.8723 71.9598C58.7542 72.0779 58.5956 72.1432 58.4277 72.1432H56.4628C56.3975 72.1432 56.3322 72.1681 56.2856 72.2179L55.1415 73.0946L54.0004 72.2179H53.9973ZM52.5952 45.5827C52.4553 45.5827 52.3433 45.6946 52.3433 45.8345V68.9938C52.3433 69.1337 52.4553 69.2456 52.5952 69.2456H57.6847C57.8246 69.2456 57.9365 69.1337 57.9365 68.9938V45.8345C57.9365 45.6946 57.8246 45.5827 57.6847 45.5827H52.5952Z" fill="#001F5B"/>
<path d="M55.1849 73.2314H55.1383C55.1072 73.2314 54.6989 72.9298 53.9134 72.3267L53.9009 72.3142C53.8792 72.2925 53.8512 72.28 53.8201 72.28H49.6415C49.3586 72.28 49.1254 72.05 49.1254 71.7639V43.0581C49.1254 42.7752 49.3555 42.542 49.6415 42.542H53.8201C53.8512 42.542 53.8792 42.5296 53.9009 42.5078L53.9134 42.4954L55.1414 41.5254L56.3788 42.5078C56.4006 42.5296 56.4286 42.542 56.4597 42.542H58.4557C58.6391 42.542 58.8132 42.6136 58.9438 42.7441L60.7626 44.5629C60.9989 44.7992 61.1263 45.1101 61.1263 45.4459V69.5783C61.1263 69.7835 61.0455 69.9762 60.9025 70.1224L58.9655 72.0593C58.8194 72.2023 58.6267 72.2831 58.4215 72.2831H56.4565C56.4255 72.2831 56.3975 72.2956 56.3757 72.3173L56.3633 72.3298L55.1849 73.2345V73.2314ZM54.0875 72.1153C54.1652 72.1743 54.8896 72.7308 55.1414 72.9205L56.1954 72.1121C56.2669 72.0437 56.3633 72.0064 56.4628 72.0064H58.4277C58.5583 72.0064 58.6826 71.9567 58.7759 71.8634L60.7128 69.9265C60.8061 69.8332 60.8558 69.7089 60.8558 69.5783V45.4459C60.8558 45.1878 60.7532 44.9422 60.5698 44.7588L58.751 42.94C58.6733 42.8623 58.5676 42.8188 58.4557 42.8188H56.4597C56.3602 42.8188 56.2607 42.7783 56.1892 42.7068L55.1414 41.8767L54.0906 42.7068C54.0191 42.7783 53.9196 42.8188 53.8201 42.8188H49.6415C49.5078 42.8188 49.4021 42.9276 49.4021 43.0581V71.7639C49.4021 71.8976 49.5109 72.0033 49.6415 72.0033H53.8201C53.9196 72.0033 54.0159 72.0406 54.0875 72.109M57.6846 69.3824H52.5951C52.3806 69.3824 52.2065 69.2083 52.2065 68.9938V45.8345C52.2065 45.62 52.3806 45.4459 52.5951 45.4459H57.6846C57.8991 45.4459 58.0732 45.62 58.0732 45.8345V68.9938C58.0732 69.2083 57.8991 69.3824 57.6846 69.3824ZM52.5951 45.7195C52.5329 45.7195 52.4801 45.7723 52.4801 45.8345V68.9938C52.4801 69.056 52.5329 69.1088 52.5951 69.1088H57.6846C57.7468 69.1088 57.7997 69.0591 57.7997 68.9938V45.8345C57.7997 45.7723 57.7468 45.7195 57.6846 45.7195H52.5951Z" fill="#001A54"/>
<path d="M64.7204 46.6149H45.0495C44.7013 46.6149 44.4215 46.8978 44.4215 47.246V55.0901L43.5323 56.2467C43.4328 56.3462 43.4328 56.5048 43.5323 56.6042L44.4215 57.7608V64.9924C44.4215 65.1013 44.5521 65.1603 44.6329 65.0857L47.9782 62.0575V57.9567H63.9556L67.2481 54.9782C67.416 54.8259 67.5124 54.6082 67.5124 54.3813V49.4006C67.5124 49.1861 67.4284 48.9809 67.2761 48.8316L65.2956 46.8512C65.1433 46.6988 64.9381 46.6149 64.7267 46.6149M63.9494 54.5865H47.972V50.0193H63.9494V54.5865Z" fill="#008F43"/>
<path d="M44.5427 65.3407C44.4961 65.3407 44.4464 65.3313 44.4028 65.3096C44.2785 65.2536 44.1976 65.1292 44.1976 64.9924V57.8354L43.3613 56.7473C43.2805 56.6602 43.2338 56.5452 43.2338 56.4239C43.2338 56.3027 43.2774 56.1876 43.3613 56.1006L44.1976 55.0124V47.2429C44.1976 46.7735 44.58 46.3911 45.0495 46.3911H64.7204C64.994 46.3911 65.2521 46.4968 65.4479 46.6926L67.4284 48.6731C67.6243 48.869 67.73 49.1239 67.73 49.4006V54.3813C67.73 54.6704 67.6056 54.9502 67.3911 55.143L64.0364 58.1805H48.1959V62.157L44.7759 65.2505C44.7106 65.3096 44.6267 65.3407 44.5427 65.3407ZM45.0464 46.8388C44.8225 46.8388 44.6391 47.0222 44.6391 47.246V55.1679L43.6846 56.4053C43.6846 56.4053 43.6753 56.4177 43.6753 56.427C43.6753 56.4364 43.6753 56.4426 43.6846 56.4488L43.7033 56.4706L44.6391 57.6862V64.7779L47.7513 61.9611V57.7391H63.8654L67.0926 54.8166C67.2139 54.7077 67.2854 54.5492 67.2854 54.3844V49.4037C67.2854 49.2483 67.2232 49.1021 67.1144 48.9902L65.1339 47.0098C65.0251 46.9009 64.8759 46.8388 64.7204 46.8388H45.0495H45.0464ZM64.1701 54.8103H47.7513V49.7986H64.1701V54.8103ZM48.1959 54.3657H63.7286V50.2432H48.1959V54.3657Z" fill="#001A54"/>
<path d="M44.58 64.9085V57.7608C44.58 57.7173 44.5645 57.6769 44.5334 57.6458L44.5272 57.6364L43.5945 56.427L44.5334 55.2083C44.5645 55.1772 44.58 55.1368 44.58 55.0932V47.246C44.58 46.988 44.7884 46.7797 45.0464 46.7797H64.7204C64.8914 46.7797 65.0531 46.8481 65.1743 46.9693L67.1548 48.9498C67.2761 49.071 67.3444 49.2327 67.3444 49.4037V54.3844C67.3444 54.5647 67.2667 54.7388 67.133 54.8601L63.8872 57.7981H47.9751C47.885 57.7981 47.8135 57.8727 47.8135 57.9629V61.9891L44.5832 64.9116L44.58 64.9085ZM44.664 57.5245C44.7262 57.5898 44.7604 57.6737 44.7604 57.7608V64.5105L47.6362 61.9083V57.9598C47.6362 57.7732 47.7886 57.6178 47.9782 57.6178H63.8219L67.0149 54.7264C67.1113 54.6393 67.1672 54.5118 67.1672 54.3813V49.4006C67.1672 49.2762 67.1175 49.1612 67.0304 49.071L65.05 47.0906C64.9629 47.0035 64.8448 46.9538 64.7204 46.9538H45.0464C44.8878 46.9538 44.7573 47.0843 44.7573 47.2429V55.0901C44.7573 55.1803 44.7231 55.2642 44.6609 55.3264L43.8152 56.4239L44.6609 57.5214L44.664 57.5245ZM63.9494 54.9285H47.972C47.7855 54.9285 47.63 54.7761 47.63 54.5865V50.0193C47.63 49.8327 47.7824 49.6773 47.972 49.6773H63.9494C64.139 49.6773 64.2914 49.8296 64.2914 50.0193V54.5865C64.2914 54.773 64.139 54.9285 63.9494 54.9285ZM47.972 49.8576C47.8819 49.8576 47.8103 49.9291 47.8103 50.0193V54.5865C47.8103 54.6766 47.885 54.7481 47.972 54.7481H63.9494C64.0395 54.7481 64.1142 54.6735 64.1142 54.5865V50.0193C64.1142 49.9291 64.0395 49.8576 63.9494 49.8576H47.972Z" fill="white"/>
<path d="M63.9493 59.1847V63.1021H48.1772L44.6608 66.2858C44.5738 66.3635 44.6298 66.5034 44.7448 66.5034H64.7204C64.9349 66.5034 65.1401 66.4195 65.2893 66.2671L67.2698 64.2867C67.4221 64.1343 67.5061 63.9291 67.5061 63.7177V58.4075C67.5061 58.1929 67.4221 57.9877 67.2698 57.8385L66.4832 57.055C66.4366 57.0084 66.3588 57.0053 66.3091 57.0519L63.9462 59.1878L63.9493 59.1847Z" fill="#008F43"/>
<path d="M64.7205 66.7242H44.7449C44.5987 66.7242 44.4713 66.6371 44.4215 66.5003C44.3687 66.3635 44.406 66.2143 44.5117 66.1179L48.0933 62.8783H63.7287V59.0853L66.163 56.881C66.2998 56.7566 66.5113 56.7628 66.6418 56.8934L67.4284 57.68C67.6212 57.8727 67.73 58.1308 67.73 58.4075V63.7177C67.73 63.9913 67.6243 64.2494 67.4284 64.4453L65.448 66.4257C65.2552 66.6216 64.994 66.7273 64.7205 66.7273M44.9936 66.2796H64.7205C64.8759 66.2796 65.022 66.2174 65.134 66.1086L67.1144 64.1281C67.2232 64.0193 67.2854 63.8732 67.2854 63.7146V58.4044C67.2854 58.2489 67.2232 58.1028 67.1144 57.9909L66.3931 57.2696L64.1733 59.278V63.3167H48.2643L44.9967 66.2765L44.9936 66.2796Z" fill="#001A54"/>
<path d="M44.6702 57.7608C44.6702 57.6955 44.6422 57.6302 44.5956 57.5836L43.7064 56.427L44.5956 55.2705C44.6422 55.2238 44.6702 55.1585 44.6702 55.0933V47.246C44.6702 47.0377 44.8412 46.8698 45.0464 46.8698H64.7204C64.8697 46.8698 65.0065 46.9258 65.1122 47.0315L67.0926 49.012C67.1983 49.1177 67.2543 49.2545 67.2543 49.4037V54.3844C67.2543 54.5398 67.189 54.6891 67.0709 54.7948L63.853 57.708H47.9751C47.8352 57.708 47.7233 57.8199 47.7233 57.9598V61.9487L44.6702 64.7126V57.7639V57.7608ZM47.972 49.7675C47.8321 49.7675 47.7202 49.8794 47.7202 50.0193V54.5865C47.7202 54.7264 47.8321 54.8383 47.972 54.8383H63.9494C64.0893 54.8383 64.2012 54.7264 64.2012 54.5865V50.0193C64.2012 49.8794 64.0893 49.7675 63.9494 49.7675H47.972Z" fill="white"/>
<path d="M45.0712 66.2516L48.2735 63.354H63.9493C64.0892 63.354 64.2012 63.242 64.2012 63.1021V59.2967L66.3899 57.3162L67.0895 58.0157C67.1952 58.1214 67.2511 58.2582 67.2511 58.4075V63.7177C67.2511 63.8669 67.1921 64.0037 67.0895 64.1095L65.109 66.0899C65.0033 66.1956 64.8665 66.2516 64.7173 66.2516H45.0681H45.0712Z" fill="white"/>
<path d="M64.7204 66.3386H44.8412L48.2394 63.2607H63.9494C64.0395 63.2607 64.111 63.1861 64.111 63.099V59.2562L66.3931 57.1918L67.1517 57.9536C67.2729 58.0748 67.3413 58.2365 67.3413 58.4075V63.7177C67.3413 63.8887 67.276 64.0504 67.1517 64.1716L65.1712 66.1521C65.05 66.2733 64.8883 66.3417 64.7173 66.3417M45.3013 66.1614H64.7204C64.8448 66.1614 64.9629 66.1117 65.05 66.0246L67.0304 64.0442C67.1175 63.9571 67.1672 63.839 67.1672 63.7146V58.4044C67.1672 58.28 67.1175 58.1619 67.0304 58.0748L66.39 57.4343L64.2914 59.334V63.099C64.2914 63.2856 64.139 63.441 63.9525 63.441H48.3109L45.3044 66.1614H45.3013Z" fill="white"/>
<path d="M47.6455 54.6424V50.4794H47.4621C47.3222 50.4794 47.2103 50.5913 47.2103 50.7312V55.2984C47.2103 55.4383 47.3222 55.5502 47.4621 55.5502H63.4395C63.5794 55.5502 63.6913 55.4383 63.6913 55.2984V54.8942H47.8974C47.7575 54.8942 47.6455 54.7823 47.6455 54.6424Z" fill="#007F41"/>
<path d="M67.0926 49.012L65.1122 47.0315C65.0065 46.9258 64.8697 46.8698 64.7204 46.8698H45.0495C44.8412 46.8698 44.6702 47.0377 44.6702 47.246V47.5259H64.2852C64.4344 47.5259 64.5712 47.5849 64.6769 47.6875L66.6574 49.668C66.7631 49.7737 66.819 49.9105 66.819 50.0597V55.0217L67.0709 54.7948C67.1859 54.6891 67.2543 54.5398 67.2543 54.3844V49.4037C67.2543 49.2545 67.1952 49.1177 67.0926 49.012Z" fill="#007F41"/>
<path d="M47.2103 58.5878V62.3125L47.6455 61.9207V58.336H47.4621C47.3222 58.336 47.2103 58.4479 47.2103 58.5878Z" fill="#007F41"/>
<path d="M63.5918 64.0069C63.7317 64.0069 63.8436 63.8949 63.8436 63.755V63.3509H48.3512L45.1489 66.2485H45.4381L47.916 64.0038H63.5918V64.0069Z" fill="#007F41"/>
<path d="M43.8836 56.5514L43.7934 56.4333L44.7106 55.2674V55.4073C44.7106 55.485 44.6795 55.5596 44.6235 55.6156L43.8836 56.5514Z" fill="#007F41"/>
<path d="M66.3899 57.4033L64.2012 59.3868V59.648L65.9578 58.0593L66.6573 58.7588C66.763 58.8645 66.819 59.0013 66.819 59.1505V64.4608C66.819 64.4608 66.819 64.467 66.819 64.4701L67.0926 64.1965C67.1983 64.0908 67.2543 63.954 67.2543 63.8048V58.4945C67.2543 58.3453 67.1952 58.2085 67.0926 58.1028L66.393 57.4033H66.3899Z" fill="#007F41"/>
<path d="M44.58 64.9085V57.7608C44.58 57.7173 44.5645 57.6769 44.5334 57.6458L44.5272 57.6364L43.5945 56.427L44.5334 55.2083C44.5645 55.1772 44.58 55.1368 44.58 55.0932V47.246C44.58 46.988 44.7884 46.7797 45.0464 46.7797H64.7204C64.8914 46.7797 65.0531 46.8481 65.1743 46.9693L67.1548 48.9498C67.2761 49.071 67.3444 49.2327 67.3444 49.4037V54.3844C67.3444 54.5647 67.2667 54.7388 67.133 54.8601L63.8872 57.7981H47.9751C47.885 57.7981 47.8135 57.8727 47.8135 57.9629V61.9891L44.5832 64.9116L44.58 64.9085ZM44.664 57.5245C44.7262 57.5898 44.7604 57.6737 44.7604 57.7608V64.5105L47.6362 61.9083V57.9598C47.6362 57.7732 47.7886 57.6178 47.9782 57.6178H63.8219L67.0149 54.7264C67.1113 54.6393 67.1672 54.5118 67.1672 54.3813V49.4006C67.1672 49.2762 67.1175 49.1612 67.0304 49.071L65.05 47.0906C64.9629 47.0035 64.8448 46.9538 64.7204 46.9538H45.0464C44.8878 46.9538 44.7573 47.0843 44.7573 47.2429V55.0901C44.7573 55.1803 44.7231 55.2642 44.6609 55.3264L43.8152 56.4239L44.6609 57.5214L44.664 57.5245ZM63.9494 54.9285H47.972C47.7855 54.9285 47.63 54.7761 47.63 54.5865V50.0193C47.63 49.8327 47.7824 49.6773 47.972 49.6773H63.9494C64.139 49.6773 64.2914 49.8296 64.2914 50.0193V54.5865C64.2914 54.773 64.139 54.9285 63.9494 54.9285ZM47.972 49.8576C47.8819 49.8576 47.8103 49.9291 47.8103 50.0193V54.5865C47.8103 54.6766 47.885 54.7481 47.972 54.7481H63.9494C64.0395 54.7481 64.1142 54.6735 64.1142 54.5865V50.0193C64.1142 49.9291 64.0395 49.8576 63.9494 49.8576H47.972Z" fill="white"/>
<path d="M64.7204 66.3386H44.8412L48.2394 63.2607H63.9494C64.0395 63.2607 64.111 63.1861 64.111 63.099V59.2562L66.3931 57.1918L67.1517 57.9536C67.2729 58.0748 67.3413 58.2365 67.3413 58.4075V63.7177C67.3413 63.8887 67.276 64.0504 67.1517 64.1716L65.1712 66.1521C65.05 66.2733 64.8883 66.3417 64.7173 66.3417M45.3013 66.1614H64.7204C64.8448 66.1614 64.9629 66.1117 65.05 66.0246L67.0304 64.0442C67.1175 63.9571 67.1672 63.839 67.1672 63.7146V58.4044C67.1672 58.28 67.1175 58.1619 67.0304 58.0748L66.39 57.4343L64.2914 59.334V63.099C64.2914 63.2856 64.139 63.441 63.9525 63.441H48.3109L45.3044 66.1614H45.3013Z" fill="white"/>
<path d="M53.0895 45.3246H53.0056C52.8657 45.3246 52.7537 45.4366 52.7537 45.5765V54.3626H53.0895V45.3246Z" fill="#007F41"/>
<path d="M61.5772 69.1057C61.6798 69.0031 61.7357 68.8663 61.7357 68.7233V66.7242H61.3906V69.2922L61.5772 69.1057Z" fill="#007F41"/>
<path d="M53.0895 68.1388V58.1805H52.7537V68.7357C52.7537 68.8756 52.8657 68.9875 53.0056 68.9875H58.0951C58.235 68.9875 58.3469 68.8756 58.3469 68.7357V68.4777H53.4315C53.245 68.4777 53.0895 68.3253 53.0895 68.1357" fill="#007F41"/>
<path d="M61.4372 43.8727L59.6184 42.054C59.5532 41.9887 59.4692 41.9451 59.3822 41.9265C59.3573 41.9203 59.3355 41.9203 59.3107 41.9203C59.3044 41.9203 59.2982 41.9203 59.292 41.9203H57.296C57.2773 41.9203 57.2587 41.9203 57.24 41.914C57.1716 41.9016 57.1063 41.8705 57.0566 41.8208L55.9778 40.9627L54.8958 41.8208C54.8461 41.8705 54.7808 41.9016 54.7093 41.914C54.6906 41.9172 54.672 41.9203 54.6564 41.9203H50.4779C50.4561 41.9203 50.4343 41.9203 50.4157 41.9265C50.2851 41.9545 50.1887 42.0695 50.1887 42.2094V42.6478C50.2509 42.6043 50.3224 42.5794 50.4032 42.5794H54.2211C54.2895 42.5794 54.3548 42.5514 54.4015 42.5017L55.5425 41.5969L56.6804 42.5017C56.727 42.5514 56.7923 42.5794 56.8607 42.5794H58.8567C59.006 42.5794 59.1428 42.6353 59.2485 42.741L61.0673 44.5598C61.2756 44.7681 61.3906 45.048 61.3906 45.3433V46.3973H61.7357V44.5971C61.7357 44.3236 61.63 44.0686 61.4372 43.8758" fill="#007F41"/>
<path d="M61.8259 66.7242H61.7357V68.7233C61.7357 68.8663 61.6798 69.0031 61.5772 69.1057L61.3906 69.2923L59.6433 71.0395C59.5407 71.1421 59.4039 71.1981 59.2609 71.1981H57.296C57.2059 71.1981 57.1219 71.2323 57.0597 71.2945L55.9747 72.1246C55.757 71.9567 54.958 71.3442 54.8896 71.2945C54.8243 71.2323 54.7404 71.1981 54.6533 71.1981H50.4748C50.3162 71.1981 50.1856 71.0675 50.1856 70.909V58.1774H50.0084V70.909C50.0084 71.167 50.2167 71.3753 50.4748 71.3753H54.6533C54.6969 71.3753 54.7373 71.394 54.7684 71.4251L54.7777 71.4313C55.555 72.0282 55.9539 72.3267 55.9747 72.3267H56.0058L57.1717 71.4313L57.181 71.4251C57.2121 71.394 57.2525 71.3753 57.296 71.3753H59.2609C59.4537 71.3753 59.634 71.3007 59.7677 71.167L61.7046 69.2301C61.8414 69.0933 61.9161 68.9129 61.9161 68.7233V66.7242H61.8259Z" fill="white"/>
<path d="M58.7417 46.3942H58.8599V44.9795C58.8599 44.793 58.7075 44.6407 58.5179 44.6407H53.4284C53.2418 44.6407 53.0864 44.793 53.0864 44.9795V54.3657H53.2636V44.9795C53.2636 44.8894 53.3351 44.8179 53.4253 44.8179H58.5148C58.6049 44.8179 58.6795 44.8925 58.6795 44.9795V46.3942H58.7386H58.7417Z" fill="white"/>
<path d="M61.5616 43.7452L59.7428 41.9265C59.6215 41.8052 59.4598 41.7399 59.2888 41.7399H57.2928C57.2493 41.7399 57.2058 41.7213 57.1747 41.6902L55.9715 40.7357L54.7745 41.6839L54.7652 41.6933C54.7341 41.7244 54.6906 41.743 54.647 41.743H50.4685C50.2104 41.743 50.0021 41.9513 50.0021 42.2094V54.3657H50.1794V42.2094C50.1794 42.0726 50.2757 41.9575 50.4063 41.9265C50.4281 41.9233 50.4467 41.9202 50.4685 41.9202H54.647C54.6657 41.9202 54.6844 41.9202 54.6999 41.914C54.7683 41.9016 54.8336 41.8705 54.8864 41.8207L55.9684 40.9626L57.0472 41.8207C57.097 41.8705 57.1623 41.9016 57.2338 41.914C57.2524 41.9171 57.268 41.9202 57.2866 41.9202H59.2826C59.2826 41.9202 59.2951 41.9202 59.3013 41.9202C59.3262 41.9202 59.351 41.9202 59.3728 41.9265C59.4629 41.9451 59.5438 41.9886 59.6091 42.0539L61.4279 43.8727C61.6206 44.0655 61.7263 44.3204 61.7263 44.594V46.3941H61.9035V44.594C61.9035 44.2738 61.7792 43.9722 61.5522 43.7452" fill="white"/>
<path d="M53.0894 68.1388C53.0894 68.3284 53.2418 68.4808 53.4314 68.4808H58.5209C58.7075 68.4808 58.8629 68.3284 58.8629 68.1388V66.7242H58.6857V68.1388C58.6857 68.2289 58.6111 68.3035 58.5209 68.3035H53.4314C53.3412 68.3035 53.2697 68.2289 53.2697 68.1388V58.1805H53.0925V68.1388H53.0894Z" fill="white"/>
<path d="M58.521 44.8179H53.4315C53.3413 44.8179 53.2698 44.8925 53.2698 44.9795V54.3657H53.6554V45.2034H58.3003V46.3973H58.6858V44.9826C58.6858 44.8925 58.6112 44.821 58.521 44.821" fill="#001A54"/>
<path d="M58.521 66.7242H58.3003V67.9149H53.6554V58.1774H53.2698V68.1357C53.2698 68.2259 53.3413 68.3005 53.4315 68.3005H58.521C58.6112 68.3005 58.6827 68.2259 58.6827 68.1357V66.7211H58.521V66.7242Z" fill="#001A54"/>
<path d="M58.521 50.2401H58.2971V62.8783H58.521H58.6826V50.2401H58.521Z" fill="#001A54"/>
<path d="M62.0777 66.7242H61.9161V68.7233C61.9161 68.9161 61.8415 69.0964 61.7047 69.2301L59.7677 71.167C59.6309 71.3038 59.4506 71.3753 59.261 71.3753H57.296C57.2525 71.3753 57.2121 71.394 57.181 71.4251L57.1717 71.4313L56.0058 72.3267H55.9747C55.954 72.3267 55.555 72.0282 54.7777 71.4313L54.7684 71.4251C54.7373 71.394 54.6969 71.3753 54.6534 71.3753H50.4748C50.2168 71.3753 50.0084 71.167 50.0084 70.909V58.1774H49.6229V70.909C49.6229 71.3784 50.0053 71.7608 50.4748 71.7608H54.5818L55.6545 72.5257C55.7446 72.6096 55.8597 72.65 55.9747 72.65C56.0897 72.65 56.2048 72.6096 56.2949 72.5257L57.3675 71.7608H59.261C59.5563 71.7608 59.833 71.6458 60.0413 71.4375L61.9783 69.5006C62.1866 69.2923 62.3016 69.0155 62.3016 68.7202V66.7211H62.0809L62.0777 66.7242Z" fill="#001A54"/>
<path d="M61.8352 43.4748L60.0165 41.656C59.8237 41.4632 59.5625 41.3544 59.2889 41.3544H57.3707L56.298 40.5056C56.1146 40.3346 55.8317 40.3346 55.6482 40.5056L54.5756 41.3544H50.4748C50.0053 41.3544 49.6229 41.7368 49.6229 42.2063V54.3626H50.0084V42.2063C50.0084 41.9482 50.2168 41.7399 50.4748 41.7399H54.6534C54.6969 41.7399 54.7404 41.7213 54.7684 41.6902L54.7777 41.684L55.9747 40.7357L57.1748 41.6902C57.2059 41.7213 57.2463 41.7399 57.2898 41.7399H59.2858C59.4568 41.7399 59.6185 41.8052 59.7397 41.9296L61.5585 43.7484C61.7855 43.9753 61.9099 44.2769 61.9099 44.594V46.3942H62.2954V44.594C62.2954 44.1712 62.1306 43.7732 61.8321 43.4748" fill="#001A54"/>
<path d="M62.0777 50.2401H61.9129V62.8783H62.0777H62.2984V50.2401H62.0777Z" fill="#001A54"/>
<path d="M58.521 68.4808H58.3468V68.7389C58.3468 68.8788 58.2349 68.9907 58.095 68.9907H53.0055C52.8656 68.9907 52.7537 68.8788 52.7537 68.7389V58.1837H50.1856V70.9152C50.1856 71.0737 50.3162 71.2043 50.4747 71.2043H54.6533C54.7435 71.2043 54.8274 71.2385 54.8896 71.3007C54.9549 71.3504 55.757 71.966 55.9746 72.1308L57.0597 71.3007C57.125 71.2385 57.2058 71.2043 57.296 71.2043H59.2609C59.4039 71.2043 59.5407 71.1484 59.6433 71.0458L61.3906 69.2985V66.7304H58.8629V68.145C58.8629 68.3347 58.7106 68.487 58.521 68.487" fill="white"/>
<path d="M61.0642 44.5536L59.2454 42.7348C59.1397 42.6291 59.0029 42.5731 58.8537 42.5731H56.8577C56.7893 42.5731 56.724 42.5451 56.6773 42.4985L55.5394 41.5938L54.3953 42.4985C54.3487 42.5483 54.2834 42.5731 54.215 42.5731H50.3971C50.3162 42.5731 50.2416 42.598 50.1826 42.6415V54.3626H52.7506V45.5765C52.7506 45.4366 52.8625 45.3246 53.0025 45.3246H53.0864V44.9795C53.0864 44.793 53.2387 44.6375 53.4284 44.6375H58.5179C58.7044 44.6375 58.8599 44.7899 58.8599 44.9795V46.3941H61.3875V45.3402C61.3875 45.0448 61.2725 44.765 61.0642 44.5567" fill="white"/>
<path d="M61.3906 50.2401H58.863V62.8752H61.3906V50.2401Z" fill="white"/>
<path d="M61.7357 50.2401H61.3906V62.8752H61.7357V50.2401Z" fill="#007F41"/>
<path d="M58.7728 50.2401H58.7418H58.6827V62.8783H58.7418H58.7728H58.863V50.2401H58.7728Z" fill="white"/>
<path d="M61.8539 50.2401H61.8259H61.7357V62.8783H61.8259H61.8539H61.9129V50.2401H61.8539Z" fill="white"/>
<path d="M55.9187 38.6433L54.7093 39.4983C54.6534 39.5387 54.5756 39.4827 54.5974 39.4175L55.0544 38.0308C55.0638 37.9997 55.0544 37.9686 55.0296 37.95L53.8388 37.067C53.7828 37.0266 53.8139 36.9364 53.8823 36.9364H55.3436C55.3747 36.9364 55.4026 36.9178 55.412 36.8867L55.8814 35.4876C55.9032 35.4223 55.9965 35.4223 56.0182 35.4876L56.4753 36.8836C56.4846 36.9147 56.5126 36.9333 56.5437 36.9333H58.0484C58.1199 36.9333 58.1479 37.0235 58.092 37.0639L56.8608 37.9469C56.8359 37.9655 56.8235 37.9997 56.8359 38.0308L57.324 39.4237C57.3489 39.489 57.2712 39.548 57.2121 39.5076L56.0027 38.6464C55.9778 38.6278 55.9436 38.6278 55.9187 38.6464" fill="#001A54"/>
<path d="M57.6847 37.123H56.354L55.9467 35.8825L55.5301 37.123H54.2368L55.2969 37.9065L54.8897 39.1376L55.9592 38.379L57.0225 39.1376L56.5903 37.9065L57.6847 37.123Z" fill="#E94709"/>
<path d="M57.1405 39.2962L55.9591 38.4568L54.7745 39.2931L55.2222 37.9314L54.0532 37.0639H55.4865L55.9466 35.6928L56.3943 37.0639H57.868L56.6586 37.9314L57.1374 39.2962H57.1405ZM54.4201 37.1821L55.3683 37.8847L55.0077 38.9822L55.9622 38.3075L56.9042 38.976L56.5218 37.8847L57.5012 37.1821H56.3135L55.9497 36.0721L55.5767 37.1821H54.4232H54.4201Z" fill="white"/>
<defs>
<radialGradient id="paint0_radial_1876_60452" cx="0" cy="0" r="1" gradientUnits="userSpaceOnUse" gradientTransform="translate(54.7768 54.9906) scale(31.4259 31.4259)">
<stop stop-color="#009633"/>
<stop offset="0.77" stop-color="#006228"/>
<stop offset="1" stop-color="#005225"/>
</radialGradient>
</defs>
</svg>
